0
SECTION
2
HEADER
9
$INSUNITS
70
4
9
$ACADVER
1
AC1014
9
$HANDSEED
5
FFFF
0
ENDSEC
0
SECTION
2
TABLES
0
TABLE
2
VPORT
5
8
100
AcDbSymbolTable
0
ENDTAB
0
TABLE
2
LTYPE
5
5
100
AcDbSymbolTable
0
LTYPE
5
14
100
AcDbSymbolTableRecord
100
AcDbLinetypeTableRecord
2
BYBLOCK
70
0
0
LTYPE
5
15
100
AcDbSymbolTableRecord
100
AcDbLinetypeTableRecord
2
BYLAYER
70
0
0
ENDTAB
0
TABLE
2
LAYER
5
2
100
AcDbSymbolTable
70
2
0
LAYER
5
50
100
AcDbSymbolTableRecord
100
AcDbLayerTableRecord
2
0
70
0
6
CONTINUOUS
0
ENDTAB
0
TABLE
2
STYLE
5
3
100
AcDbSymbolTable
70
1
0
STYLE
5
11
100
AcDbSymbolTableRecord
100
AcDbTextStyleTableRecord
2
STANDARD
70
0
0
ENDTAB
0
TABLE
2
VIEW
5
6
100
AcDbSymbolTable
70
0
0
ENDTAB
0
TABLE
2
UCS
5
7
100
AcDbSymbolTable
70
0
0
ENDTAB
0
TABLE
2
APPID
5
9
100
AcDbSymbolTable
70
2
0
APPID
5
12
100
AcDbSymbolTableRecord
100
AcDbRegAppTableRecord
2
ACAD
70
0
0
ENDTAB
0
TABLE
2
DIMSTYLE
5
A
100
AcDbSymbolTable
70
1
0
ENDTAB
0
TABLE
2
BLOCK_RECORD
5
1
100
AcDbSymbolTable
70
1
0
BLOCK_RECORD
5
1F
100
AcDbSymbolTableRecord
100
AcDbBlockTableRecord
2
*MODEL_SPACE
0
BLOCK_RECORD
5
1B
100
AcDbSymbolTableRecord
100
AcDbBlockTableRecord
2
*PAPER_SPACE
0
ENDTAB
0
ENDSEC
0
SECTION
2
BLOCKS
0
BLOCK
5
20
100
AcDbEntity
100
AcDbBlockBegin
2
*MODEL_SPACE
0
ENDBLK
5
21
100
AcDbEntity
100
AcDbBlockEnd
0
BLOCK
5
1C
100
AcDbEntity
100
AcDbBlockBegin
2
*PAPER_SPACE
0
ENDBLK
5
1D
100
AcDbEntity
100
AcDbBlockEnd
0
ENDSEC
0
SECTION
2
ENTITIES
0
SPLINE
5
100
100
AcDbEntity
8
0
100
AcDbSpline
70
1064
71
3
72
8
73
4
74
0
42
0.000000001
43
0.0000000001
44
0.0000000001
40
0
40
0
40
0
40
0
40
1
40
1
40
1
40
1
10
500.09236900000008
20
268.026478
30
412
10
499.83747800000003
20
268.28137000000004
30
412
10
499.69428300000004
20
268.62707400000011
30
412
10
499.69428300000004
20
268.98754500000001
30
412
0
SPLINE
5
101
100
AcDbEntity
8
0
100
AcDbSpline
70
1064
71
3
72
8
73
4
74
0
42
0.000000001
43
0.0000000001
44
0.0000000001
40
0
40
0
40
0
40
0
40
1
40
1
40
1
40
1
10
494.29237699999999
20
268.026478
30
412
10
494.037486
20
268.28137000000004
30
412
10
493.89429000000001
20
268.62707400000011
30
412
10
493.89429000000001
20
268.98754500000001
30
412
0
SPLINE
5
102
100
AcDbEntity
8
0
100
AcDbSpline
70
1064
71
3
72
8
73
4
74
0
42
0.000000001
43
0.0000000001
44
0.0000000001
40
0
40
0
40
0
40
0
40
1
40
1
40
1
40
1
10
502.01450400000004
20
269.94861200000008
30
412
10
502.26939299999998
20
269.69372099999998
30
412
10
502.41259100000008
20
269.34801600000003
30
412
10
502.41259100000008
20
268.98754500000001
30
412
0
SPLINE
5
103
100
AcDbEntity
8
0
100
AcDbSpline
70
1064
71
3
72
8
73
4
74
0
42
0.000000001
43
0.0000000001
44
0.0000000001
40
0
40
0
40
0
40
0
40
1
40
1
40
1
40
1
10
349.24744500000003
20
281.62070200000005
30
412
10
349.60791599999999
20
281.62070200000005
30
412
10
349.953622
20
281.47750600000001
30
412
10
350.20851300000004
20
281.22261500000002
30
412
0
SPLINE
5
104
100
AcDbEntity
8
0
100
AcDbSpline
70
1064
71
3
72
8
73
4
74
0
42
0.000000001
43
0.0000000001
44
0.0000000001
40
0
40
0
40
0
40
0
40
1
40
1
40
1
40
1
10
497.56037300000003
20
10.364578000000009
30
412
10
497.56037300000003
20
11.501678000000005
30
412
10
498.48218700000007
20
12.423513000000007
30
412
10
499.61929699999996
20
12.423513000000007
30
412
0
SPLINE
5
105
100
AcDbEntity
8
0
100
AcDbSpline
70
1064
71
3
72
8
73
4
74
0
42
0.000000001
43
0.0000000001
44
0.0000000001
40
0
40
0
40
0
40
0
40
1
40
1
40
1
40
1
10
415.06538000000006
20
10.364578000000009
30
412
10
415.06538000000006
20
11.501678000000005
30
412
10
415.98719100000005
20
12.423513000000007
30
412
10
417.12430400000005
20
12.423513000000007
30
412
0
SPLINE
5
106
100
AcDbEntity
8
0
100
AcDbSpline
70
1064
71
3
72
8
73
4
74
0
42
0.000000001
43
0.0000000001
44
0.0000000001
40
0
40
0
40
0
40
0
40
1
40
1
40
1
40
1
10
349.19129199999998
20
49.471302000000009
30
412
10
350.32840400000003
20
49.471302000000009
30
412
10
351.25021600000002
20
48.549491000000003
30
412
10
351.25021600000002
20
47.412378000000011
30
412
0
SPLINE
5
107
100
AcDbEntity
8
0
100
AcDbSpline
70
1064
71
3
72
8
73
4
74
0
42
0.000000001
43
0.0000000001
44
0.0000000001
40
0
40
0
40
0
40
0
40
1
40
1
40
1
40
1
10
347.13237100000003
20
182.76937200000003
30
412
10
347.13237100000003
20
183.906485
30
412
10
348.05418200000008
20
184.82829600000002
30
412
10
349.19129500000003
20
184.82829600000002
30
412
0
SPLINE
5
108
100
AcDbEntity
8
0
100
AcDbSpline
70
1064
71
3
72
8
73
4
74
0
42
0.000000001
43
0.0000000001
44
0.0000000001
40
0
40
0
40
0
40
0
40
1
40
1
40
1
40
1
10
349.19129199999998
20
24.133442000000009
30
412
10
348.05417900000003
20
24.133442000000009
30
412
10
347.13236800000004
20
25.055251000000013
30
412
10
347.13236800000004
20
26.192377000000008
30
412
0
SPLINE
5
109
100
AcDbEntity
8
0
100
AcDbSpline
70
1064
71
3
72
8
73
4
74
0
42
0.000000001
43
0.0000000001
44
0.0000000001
40
0
40
0
40
0
40
0
40
1
40
1
40
1
40
1
10
349.19129500000003
20
184.82829600000002
30
412
10
350.32840700000003
20
184.82829600000002
30
412
10
351.25021800000007
20
183.906485
30
412
10
351.25021900000002
20
182.76937200000003
30
412
0
SPLINE
5
110
100
AcDbEntity
8
0
100
AcDbSpline
70
1064
71
3
72
8
73
4
74
0
42
0.000000001
43
0.0000000001
44
0.0000000001
40
0
40
0
40
0
40
0
40
1
40
1
40
1
40
1
10
351.25021900000002
20
463.992389
30
412
10
351.25021800000007
20
462.85527600000012
30
412
10
350.32840700000003
20
461.93346500000007
30
412
10
349.19129500000003
20
461.93346500000007
30
412
0
SPLINE
5
111
100
AcDbEntity
8
0
100
AcDbSpline
70
1064
71
3
72
8
73
4
74
0
42
0.000000001
43
0.0000000001
44
0.0000000001
40
0
40
0
40
0
40
0
40
1
40
1
40
1
40
1
10
347.13236800000004
20
47.412378000000011
30
412
10
347.13236800000004
20
48.549491000000003
30
412
10
348.05417900000003
20
49.471302000000009
30
412
10
349.19129199999998
20
49.471302000000009
30
412
0
SPLINE
5
112
100
AcDbEntity
8
0
100
AcDbSpline
70
1064
71
3
72
8
73
4
74
0
42
0.000000001
43
0.0000000001
44
0.0000000001
40
0
40
0
40
0
40
0
40
1
40
1
40
1
40
1
10
347.13236800000004
20
26.192377000000008
30
412
10
347.13236800000004
20
27.329477000000008
30
412
10
348.05417900000003
20
28.25128500000001
30
412
10
349.19129199999998
20
28.25128500000001
30
412
0
SPLINE
5
113
100
AcDbEntity
8
0
100
AcDbSpline
70
1064
71
3
72
8
73
4
74
0
42
0.000000001
43
0.0000000001
44
0.0000000001
40
0
40
0
40
0
40
0
40
1
40
1
40
1
40
1
10
349.19129199999998
20
28.25128500000001
30
412
10
350.32840400000003
20
28.25128500000001
30
412
10
351.25021600000002
20
27.329477000000008
30
412
10
351.25021600000002
20
26.192377000000008
30
412
0
SPLINE
5
114
100
AcDbEntity
8
0
100
AcDbSpline
70
1064
71
3
72
8
73
4
74
0
42
0.000000001
43
0.0000000001
44
0.0000000001
40
0
40
0
40
0
40
0
40
1
40
1
40
1
40
1
10
351.25021600000002
20
47.412378000000011
30
412
10
351.25021600000002
20
46.275265000000012
30
412
10
350.32840400000003
20
45.353454000000006
30
412
10
349.19129199999998
20
45.353454000000006
30
412
0
SPLINE
5
115
100
AcDbEntity
8
0
100
AcDbSpline
70
1064
71
3
72
8
73
4
74
0
42
0.000000001
43
0.0000000001
44
0.0000000001
40
0
40
0
40
0
40
0
40
1
40
1
40
1
40
1
10
351.25021600000002
20
26.192377000000008
30
412
10
351.25021600000002
20
25.055251000000013
30
412
10
350.32840400000003
20
24.133442000000009
30
412
10
349.19129199999998
20
24.133442000000009
30
412
0
SPLINE
5
116
100
AcDbEntity
8
0
100
AcDbSpline
70
1064
71
3
72
8
73
4
74
0
42
0.000000001
43
0.0000000001
44
0.0000000001
40
0
40
0
40
0
40
0
40
1
40
1
40
1
40
1
10
351.25021900000002
20
442.77238200000011
30
412
10
351.25021800000007
20
441.63526900000011
30
412
10
350.32840700000003
20
440.71345800000006
30
412
10
349.19129500000003
20
440.71345800000006
30
412
0
SPLINE
5
117
100
AcDbEntity
8
0
100
AcDbSpline
70
1064
71
3
72
8
73
4
74
0
42
0.000000001
43
0.0000000001
44
0.0000000001
40
0
40
0
40
0
40
0
40
1
40
1
40
1
40
1
10
349.19129500000003
20
461.93346500000007
30
412
10
348.05418200000008
20
461.93346500000007
30
412
10
347.13237100000003
20
462.85527600000012
30
412
10
347.13237100000003
20
463.992389
30
412
0
SPLINE
5
118
100
AcDbEntity
8
0
100
AcDbSpline
70
1064
71
3
72
8
73
4
74
0
42
0.000000001
43
0.0000000001
44
0.0000000001
40
0
40
0
40
0
40
0
40
1
40
1
40
1
40
1
10
349.19129500000003
20
466.05131299999994
30
412
10
350.32840700000003
20
466.05131299999994
30
412
10
351.25021800000007
20
465.12950199999989
30
412
10
351.25021900000002
20
463.992389
30
412
0
SPLINE
5
119
100
AcDbEntity
8
0
100
AcDbSpline
70
1064
71
3
72
8
73
4
74
0
42
0.000000001
43
0.0000000001
44
0.0000000001
40
0
40
0
40
0
40
0
40
1
40
1
40
1
40
1
10
349.19129500000003
20
440.71345800000006
30
412
10
348.05418200000008
20
440.71345800000006
30
412
10
347.13237100000003
20
441.63526900000011
30
412
10
347.13237100000003
20
442.77238200000011
30
412
0
SPLINE
5
120
100
AcDbEntity
8
0
100
AcDbSpline
70
1064
71
3
72
8
73
4
74
0
42
0.000000001
43
0.0000000001
44
0.0000000001
40
0
40
0
40
0
40
0
40
1
40
1
40
1
40
1
10
347.13237100000003
20
442.77238200000011
30
412
10
347.13237100000003
20
443.90949200000011
30
412
10
348.05418200000008
20
444.83130599999993
30
412
10
349.19129500000003
20
444.83130599999993
30
412
0
SPLINE
5
121
100
AcDbEntity
8
0
100
AcDbSpline
70
1064
71
3
72
8
73
4
74
0
42
0.000000001
43
0.0000000001
44
0.0000000001
40
0
40
0
40
0
40
0
40
1
40
1
40
1
40
1
10
347.13237100000003
20
463.992389
30
412
10
347.13237100000003
20
465.12950199999989
30
412
10
348.05418200000008
20
466.05131299999994
30
412
10
349.19129500000003
20
466.05131299999994
30
412
0
SPLINE
5
122
100
AcDbEntity
8
0
100
AcDbSpline
70
1064
71
3
72
8
73
4
74
0
42
0.000000001
43
0.0000000001
44
0.0000000001
40
0
40
0
40
0
40
0
40
1
40
1
40
1
40
1
10
349.19129500000003
20
444.83130599999993
30
412
10
350.32840700000003
20
444.83130599999993
30
412
10
351.25021800000007
20
443.90949200000011
30
412
10
351.25021900000002
20
442.77238200000011
30
412
0
SPLINE
5
123
100
AcDbEntity
8
0
100
AcDbSpline
70
1064
71
3
72
8
73
4
74
0
42
0.000000001
43
0.0000000001
44
0.0000000001
40
0
40
0
40
0
40
0
40
1
40
1
40
1
40
1
10
349.19129199999998
20
45.353454000000006
30
412
10
348.05417900000003
20
45.353454000000006
30
412
10
347.13236800000004
20
46.275268000000011
30
412
10
347.13236800000004
20
47.412378000000011
30
412
0
SPLINE
5
124
100
AcDbEntity
8
0
100
AcDbSpline
70
1064
71
3
72
8
73
4
74
0
42
0.000000001
43
0.0000000001
44
0.0000000001
40
0
40
0
40
0
40
0
40
1
40
1
40
1
40
1
10
353.68828300000007
20
280.26154800000006
30
412
10
353.68828300000007
20
280.62201800000003
30
412
10
353.83147900000006
20
280.96772300000003
30
412
10
354.08637000000004
20
281.22261500000002
30
412
0
SPLINE
5
125
100
AcDbEntity
8
0
100
AcDbSpline
70
1064
71
3
72
8
73
4
74
0
42
0.000000001
43
0.0000000001
44
0.0000000001
40
0
40
0
40
0
40
0
40
1
40
1
40
1
40
1
10
356.00850400000007
20
281.22261500000002
30
412
10
356.263395
20
280.96772300000003
30
412
10
356.40659099999999
20
280.62201800000003
30
412
10
356.40659099999999
20
280.26154800000006
30
412
0
SPLINE
5
126
100
AcDbEntity
8
0
100
AcDbSpline
70
1064
71
3
72
8
73
4
74
0
42
0.000000001
43
0.0000000001
44
0.0000000001
40
0
40
0
40
0
40
0
40
1
40
1
40
1
40
1
10
355.04743700000006
20
278.90239400000002
30
412
10
354.68696700000004
20
278.90239400000002
30
412
10
354.34126000000003
20
279.04559
30
412
10
354.08637000000004
20
279.30048099999999
30
412
0
SPLINE
5
127
100
AcDbEntity
8
0
100
AcDbSpline
70
1064
71
3
72
8
73
4
74
0
42
0.000000001
43
0.0000000001
44
0.0000000001
40
0
40
0
40
0
40
0
40
1
40
1
40
1
40
1
10
496.61259800000005
20
268.98754500000001
30
412
10
496.61259800000005
20
268.62707400000011
30
412
10
496.46940300000006
20
268.28137000000004
30
412
10
496.21451200000001
20
268.026478
30
412
0
SPLINE
5
128
100
AcDbEntity
8
0
100
AcDbSpline
70
1064
71
3
72
8
73
4
74
0
42
0.000000001
43
0.0000000001
44
0.0000000001
40
0
40
0
40
0
40
0
40
1
40
1
40
1
40
1
10
347.88829099999998
20
280.26154800000006
30
412
10
347.88829099999998
20
280.62201800000003
30
412
10
348.03148800000002
20
280.96772300000003
30
412
10
348.28637800000001
20
281.22261500000002
30
412
0
SPLINE
5
129
100
AcDbEntity
8
0
100
AcDbSpline
70
1064
71
3
72
8
73
4
74
0
42
0.000000001
43
0.0000000001
44
0.0000000001
40
0
40
0
40
0
40
0
40
1
40
1
40
1
40
1
10
349.24744500000003
20
278.90239400000002
30
412
10
348.88697500000006
20
278.90239400000002
30
412
10
348.54126900000006
20
279.04559
30
412
10
348.28637800000001
20
279.30048099999999
30
412
0
SPLINE
5
130
100
AcDbEntity
8
0
100
AcDbSpline
70
1064
71
3
72
8
73
4
74
0
42
0.000000001
43
0.0000000001
44
0.0000000001
40
0
40
0
40
0
40
0
40
1
40
1
40
1
40
1
10
350.20851300000004
20
279.30048099999999
30
412
10
349.953622
20
279.04559
30
412
10
349.60791599999999
20
278.90239400000002
30
412
10
349.24744500000003
20
278.90239400000002
30
412
0
SPLINE
5
131
100
AcDbEntity
8
0
100
AcDbSpline
70
1064
71
3
72
8
73
4
74
0
42
0.000000001
43
0.0000000001
44
0.0000000001
40
0
40
0
40
0
40
0
40
1
40
1
40
1
40
1
10
354.08637000000004
20
279.30048099999999
30
412
10
353.83147900000006
20
279.55537000000004
30
412
10
353.68828300000007
20
279.90107699999999
30
412
10
353.68828300000007
20
280.26154800000006
30
412
0
LINE
5
132
100
AcDbEntity
8
0
100
AcDbLine
10
508.25900100000007
20
3.1323250000000069
30
412
11
508.17218085920979
21
462.28235685934476
31
412
0
SPLINE
5
133
100
AcDbEntity
8
0
100
AcDbSpline
70
1064
71
3
72
8
73
4
74
0
42
0.000000001
43
0.0000000001
44
0.0000000001
40
0
40
0
40
0
40
0
40
1
40
1
40
1
40
1
10
494.29237699999999
20
269.94861200000008
30
412
10
494.54726900000003
20
270.20350400000001
30
412
10
494.89297400000004
20
270.346699
30
412
10
495.253444
20
270.346699
30
412
0
SPLINE
5
134
100
AcDbEntity
8
0
100
AcDbSpline
70
1064
71
3
72
8
73
4
74
0
42
0.000000001
43
0.0000000001
44
0.0000000001
40
0
40
0
40
0
40
0
40
1
40
1
40
1
40
1
10
350.60659900000007
20
280.26154800000006
30
412
10
350.60660000000007
20
279.90107699999999
30
412
10
350.46340300000003
20
279.55537000000004
30
412
10
350.20851300000004
20
279.30048099999999
30
412
0
SPLINE
5
135
100
AcDbEntity
8
0
100
AcDbSpline
70
1064
71
3
72
8
73
4
74
0
42
0.000000001
43
0.0000000001
44
0.0000000001
40
0
40
0
40
0
40
0
40
1
40
1
40
1
40
1
10
502.41259100000008
20
202.987548
30
412
10
502.41259100000008
20
202.62707700000004
30
412
10
502.26939299999998
20
202.28137200000003
30
412
10
502.01450400000004
20
202.02647999999999
30
412
0
SPLINE
5
136
100
AcDbEntity
8
0
100
AcDbSpline
70
1064
71
3
72
8
73
4
74
0
42
0.000000001
43
0.0000000001
44
0.0000000001
40
0
40
0
40
0
40
0
40
1
40
1
40
1
40
1
10
350.20851300000004
20
281.22261500000002
30
412
10
350.46340300000003
20
280.96772300000003
30
412
10
350.60660000000007
20
280.62201800000003
30
412
10
350.60659900000007
20
280.26154800000006
30
412
0
SPLINE
5
137
100
AcDbEntity
8
0
100
AcDbSpline
70
1064
71
3
72
8
73
4
74
0
42
0.000000001
43
0.0000000001
44
0.0000000001
40
0
40
0
40
0
40
0
40
1
40
1
40
1
40
1
10
502.01450400000004
20
268.026478
30
412
10
501.75961200000006
20
267.77158600000001
30
412
10
501.413905
20
267.62839100000002
30
412
10
501.05343700000003
20
267.62839100000002
30
412
0
SPLINE
5
138
100
AcDbEntity
8
0
100
AcDbSpline
70
1064
71
3
72
8
73
4
74
0
42
0.000000001
43
0.0000000001
44
0.0000000001
40
0
40
0
40
0
40
0
40
1
40
1
40
1
40
1
10
356.40659099999999
20
280.26154800000006
30
412
10
356.40659099999999
20
279.90107699999999
30
412
10
356.263395
20
279.55537000000004
30
412
10
356.00850400000007
20
279.30048099999999
30
412
0
SPLINE
5
139
100
AcDbEntity
8
0
100
AcDbSpline
70
1064
71
3
72
8
73
4
74
0
42
0.000000001
43
0.0000000001
44
0.0000000001
40
0
40
0
40
0
40
0
40
1
40
1
40
1
40
1
10
348.28637800000001
20
279.30048099999999
30
412
10
348.03148800000002
20
279.55537000000004
30
412
10
347.88829099999998
20
279.90107699999999
30
412
10
347.88829099999998
20
280.26154800000006
30
412
0
SPLINE
5
140
100
AcDbEntity
8
0
100
AcDbSpline
70
1064
71
3
72
8
73
4
74
0
42
0.000000001
43
0.0000000001
44
0.0000000001
40
0
40
0
40
0
40
0
40
1
40
1
40
1
40
1
10
496.21451200000001
20
268.026478
30
412
10
495.95961999999997
20
267.77158600000001
30
412
10
495.61391500000002
20
267.62839100000002
30
412
10
495.253444
20
267.62839100000002
30
412
0
SPLINE
5
141
100
AcDbEntity
8
0
100
AcDbSpline
70
1064
71
3
72
8
73
4
74
0
42
0.000000001
43
0.0000000001
44
0.0000000001
40
0
40
0
40
0
40
0
40
1
40
1
40
1
40
1
10
356.00850400000007
20
279.30048099999999
30
412
10
355.75361300000003
20
279.04559
30
412
10
355.40790700000002
20
278.90239400000002
30
412
10
355.04743700000006
20
278.90239400000002
30
412
0
SPLINE
5
142
100
AcDbEntity
8
0
100
AcDbSpline
70
1064
71
3
72
8
73
4
74
0
42
0.000000001
43
0.0000000001
44
0.0000000001
40
0
40
0
40
0
40
0
40
1
40
1
40
1
40
1
10
350.20851300000004
20
232.15561400000001
30
412
10
350.46340300000003
20
231.90072500000002
30
412
10
350.60660000000007
20
231.55501700000002
30
412
10
350.60659900000007
20
231.194546
30
412
0
SPLINE
5
143
100
AcDbEntity
8
0
100
AcDbSpline
70
1064
71
3
72
8
73
4
74
0
42
0.000000001
43
0.0000000001
44
0.0000000001
40
0
40
0
40
0
40
0
40
1
40
1
40
1
40
1
10
354.08637000000004
20
281.22261500000002
30
412
10
354.34126000000003
20
281.47750600000001
30
412
10
354.68696700000004
20
281.62070200000005
30
412
10
355.04743700000006
20
281.62070200000005
30
412
0
SPLINE
5
144
100
AcDbEntity
8
0
100
AcDbSpline
70
1064
71
3
72
8
73
4
74
0
42
0.000000001
43
0.0000000001
44
0.0000000001
40
0
40
0
40
0
40
0
40
1
40
1
40
1
40
1
10
348.28637800000001
20
232.15561400000001
30
412
10
348.54126900000006
20
232.410505
30
412
10
348.88697500000006
20
232.55370000000002
30
412
10
349.24744500000003
20
232.55370000000002
30
412
0
SPLINE
5
145
100
AcDbEntity
8
0
100
AcDbSpline
70
1064
71
3
72
8
73
4
74
0
42
0.000000001
43
0.0000000001
44
0.0000000001
40
0
40
0
40
0
40
0
40
1
40
1
40
1
40
1
10
495.253444
20
270.346699
30
412
10
495.61391500000002
20
270.346699
30
412
10
495.95961999999997
20
270.20350400000001
30
412
10
496.21451200000001
20
269.94861200000008
30
412
0
SPLINE
5
146
100
AcDbEntity
8
0
100
AcDbSpline
70
1064
71
3
72
8
73
4
74
0
42
0.000000001
43
0.0000000001
44
0.0000000001
40
0
40
0
40
0
40
0
40
1
40
1
40
1
40
1
10
355.04743700000006
20
281.62070200000005
30
412
10
355.40790700000002
20
281.62070200000005
30
412
10
355.75361300000003
20
281.47750600000001
30
412
10
356.00850400000007
20
281.22261500000002
30
412
0
SPLINE
5
147
100
AcDbEntity
8
0
100
AcDbSpline
70
1064
71
3
72
8
73
4
74
0
42
0.000000001
43
0.0000000001
44
0.0000000001
40
0
40
0
40
0
40
0
40
1
40
1
40
1
40
1
10
501.05343700000003
20
201.62839399999999
30
412
10
500.69296600000001
20
201.62839399999999
30
412
10
500.34725800000001
20
201.77158899999998
30
412
10
500.09236900000008
20
202.02647999999999
30
412
0
SPLINE
5
148
100
AcDbEntity
8
0
100
AcDbSpline
70
1064
71
3
72
8
73
4
74
0
42
0.000000001
43
0.0000000001
44
0.0000000001
40
0
40
0
40
0
40
0
40
1
40
1
40
1
40
1
10
349.24744500000003
20
232.55370000000002
30
412
10
349.60791599999999
20
232.55370000000002
30
412
10
349.953622
20
232.410505
30
412
10
350.20851300000004
20
232.15561400000001
30
412
0
SPLINE
5
149
100
AcDbEntity
8
0
100
AcDbSpline
70
1064
71
3
72
8
73
4
74
0
42
0.000000001
43
0.0000000001
44
0.0000000001
40
0
40
0
40
0
40
0
40
1
40
1
40
1
40
1
10
502.41259100000008
20
268.98754500000001
30
412
10
502.41259100000008
20
268.62707400000011
30
412
10
502.26939299999998
20
268.28137000000004
30
412
10
502.01450400000004
20
268.026478
30
412
0
SPLINE
5
150
100
AcDbEntity
8
0
100
AcDbSpline
70
1064
71
3
72
8
73
4
74
0
42
0.000000001
43
0.0000000001
44
0.0000000001
40
0
40
0
40
0
40
0
40
1
40
1
40
1
40
1
10
348.28637800000001
20
281.22261500000002
30
412
10
348.54126900000006
20
281.47750600000001
30
412
10
348.88697500000006
20
281.62070200000005
30
412
10
349.24744500000003
20
281.62070200000005
30
412
0
SPLINE
5
151
100
AcDbEntity
8
0
100
AcDbSpline
70
1064
71
3
72
8
73
4
74
0
42
0.000000001
43
0.0000000001
44
0.0000000001
40
0
40
0
40
0
40
0
40
1
40
1
40
1
40
1
10
501.05343700000003
20
270.346699
30
412
10
501.413905
20
270.346699
30
412
10
501.75961200000006
20
270.20350400000001
30
412
10
502.01450400000004
20
269.94861200000008
30
412
0
SPLINE
5
152
100
AcDbEntity
8
0
100
AcDbSpline
70
1064
71
3
72
8
73
4
74
0
42
0.000000001
43
0.0000000001
44
0.0000000001
40
0
40
0
40
0
40
0
40
1
40
1
40
1
40
1
10
500.09236900000008
20
269.94861200000008
30
412
10
500.34725800000001
20
270.20350400000001
30
412
10
500.69296600000001
20
270.346699
30
412
10
501.05343700000003
20
270.346699
30
412
0
SPLINE
5
153
100
AcDbEntity
8
0
100
AcDbSpline
70
1064
71
3
72
8
73
4
74
0
42
0.000000001
43
0.0000000001
44
0.0000000001
40
0
40
0
40
0
40
0
40
1
40
1
40
1
40
1
10
478.39928999999995
20
12.423513000000007
30
412
10
479.53640300000006
20
12.423513000000007
30
412
10
480.458214
20
11.501678000000005
30
412
10
480.458214
20
10.364578000000009
30
412
0
SPLINE
5
154
100
AcDbEntity
8
0
100
AcDbSpline
70
1064
71
3
72
8
73
4
74
0
42
0.000000001
43
0.0000000001
44
0.0000000001
40
0
40
0
40
0
40
0
40
1
40
1
40
1
40
1
10
502.07929799999999
20
36.773474000000007
30
412
10
503.21641100000011
20
36.773474000000007
30
412
10
504.13822199999998
20
35.851663000000009
30
412
10
504.13822199999998
20
34.714553000000009
30
412
0
SPLINE
5
155
100
AcDbEntity
8
0
100
AcDbSpline
70
1064
71
3
72
8
73
4
74
0
42
0.000000001
43
0.0000000001
44
0.0000000001
40
0
40
0
40
0
40
0
40
1
40
1
40
1
40
1
10
349.19129500000003
20
180.71044799999999
30
412
10
348.05418200000008
20
180.71044799999999
30
412
10
347.13237100000003
20
181.632262
30
412
10
347.13237100000003
20
182.76937200000003
30
412
0
SPLINE
5
156
100
AcDbEntity
8
0
100
AcDbSpline
70
1064
71
3
72
8
73
4
74
0
42
0.000000001
43
0.0000000001
44
0.0000000001
40
0
40
0
40
0
40
0
40
1
40
1
40
1
40
1
10
496.61260400000003
20
70.988544000000005
30
412
10
496.61260400000003
20
70.628076000000021
30
412
10
496.46940900000004
20
70.282368999999989
30
412
10
496.214517
20
70.027480000000025
30
412
0
SPLINE
5
157
100
AcDbEntity
8
0
100
AcDbSpline
70
1064
71
3
72
8
73
4
74
0
42
0.000000001
43
0.0000000001
44
0.0000000001
40
0
40
0
40
0
40
0
40
1
40
1
40
1
40
1
10
347.73541300000005
20
205.44526200000004
30
412
10
348.12153700000005
20
205.83138700000003
30
412
10
348.64523300000002
20
206.04830800000005
30
412
10
349.19129500000003
20
206.04830800000005
30
412
0
SPLINE
5
158
100
AcDbEntity
8
0
100
AcDbSpline
70
1064
71
3
72
8
73
4
74
0
42
0.000000001
43
0.0000000001
44
0.0000000001
40
0
40
0
40
0
40
0
40
1
40
1
40
1
40
1
10
349.19129500000003
20
206.04830800000005
30
412
10
349.73735600000003
20
206.04830800000005
30
412
10
350.26105200000006
20
205.83138700000003
30
412
10
350.647176
20
205.44526200000004
30
412
0
SPLINE
5
159
100
AcDbEntity
8
0
100
AcDbSpline
70
1064
71
3
72
8
73
4
74
0
42
0.000000001
43
0.0000000001
44
0.0000000001
40
0
40
0
40
0
40
0
40
1
40
1
40
1
40
1
10
494.29238300000003
20
71.949612000000016
30
412
10
494.54727400000002
20
72.204503000000017
30
412
10
494.89298099999996
20
72.347698000000008
30
412
10
495.25345000000004
20
72.347698000000008
30
412
0
SPLINE
5
160
100
AcDbEntity
8
0
100
AcDbSpline
70
1064
71
3
72
8
73
4
74
0
42
0.000000001
43
0.0000000001
44
0.0000000001
40
0
40
0
40
0
40
0
40
1
40
1
40
1
40
1
10
502.01450900000003
20
71.949612000000016
30
412
10
502.26940100000007
20
71.69472300000001
30
412
10
502.41259600000006
20
71.349015000000009
30
412
10
502.41259600000006
20
70.988544000000005
30
412
0
SPLINE
5
161
100
AcDbEntity
8
0
100
AcDbSpline
70
1064
71
3
72
8
73
4
74
0
42
0.000000001
43
0.0000000001
44
0.0000000001
40
0
40
0
40
0
40
0
40
1
40
1
40
1
40
1
10
495.25345000000004
20
69.629390000000015
30
412
10
494.89298099999996
20
69.629390000000015
30
412
10
494.54727400000002
20
69.772588000000013
30
412
10
494.29238300000003
20
70.027480000000025
30
412
0
SPLINE
5
162
100
AcDbEntity
8
0
100
AcDbSpline
70
1064
71
3
72
8
73
4
74
0
42
0.000000001
43
0.0000000001
44
0.0000000001
40
0
40
0
40
0
40
0
40
1
40
1
40
1
40
1
10
501.05344200000002
20
72.347698000000008
30
412
10
501.41391300000004
20
72.347698000000008
30
412
10
501.75961700000005
20
72.204503000000017
30
412
10
502.01450900000003
20
71.949612000000016
30
412
0
SPLINE
5
163
100
AcDbEntity
8
0
100
AcDbSpline
70
1064
71
3
72
8
73
4
74
0
42
0.000000001
43
0.0000000001
44
0.0000000001
40
0
40
0
40
0
40
0
40
1
40
1
40
1
40
1
10
349.24744500000003
20
83.620700000000014
30
412
10
349.60791599999999
20
83.620700000000014
30
412
10
349.953622
20
83.477502000000015
30
412
10
350.20851300000004
20
83.22261300000001
30
412
0
SPLINE
5
164
100
AcDbEntity
8
0
100
AcDbSpline
70
1064
71
3
72
8
73
4
74
0
42
0.000000001
43
0.0000000001
44
0.0000000001
40
0
40
0
40
0
40
0
40
1
40
1
40
1
40
1
10
496.214517
20
70.027480000000025
30
412
10
495.95962499999996
20
69.772588000000013
30
412
10
495.61392100000006
20
69.629390000000015
30
412
10
495.25345000000004
20
69.629390000000015
30
412
0
SPLINE
5
165
100
AcDbEntity
8
0
100
AcDbSpline
70
1064
71
3
72
8
73
4
74
0
42
0.000000001
43
0.0000000001
44
0.0000000001
40
0
40
0
40
0
40
0
40
1
40
1
40
1
40
1
10
502.07929799999999
20
32.655618000000011
30
412
10
500.94218700000005
20
32.655618000000011
30
412
10
500.02037400000006
20
33.577427000000014
30
412
10
500.02037400000006
20
34.714553000000009
30
412
0
SPLINE
5
166
100
AcDbEntity
8
0
100
AcDbSpline
70
1064
71
3
72
8
73
4
74
0
42
0.000000001
43
0.0000000001
44
0.0000000001
40
0
40
0
40
0
40
0
40
1
40
1
40
1
40
1
10
496.21451200000001
20
202.02647999999999
30
412
10
495.95961999999997
20
201.77158899999998
30
412
10
495.61391500000002
20
201.62839399999999
30
412
10
495.253444
20
201.62839399999999
30
412
0
SPLINE
5
167
100
AcDbEntity
8
0
100
AcDbSpline
70
1064
71
3
72
8
73
4
74
0
42
0.000000001
43
0.0000000001
44
0.0000000001
40
0
40
0
40
0
40
0
40
1
40
1
40
1
40
1
10
455.74620000000004
20
9.154057000000007
30
412
10
457.12826900000005
20
9.154057000000007
30
412
10
458.24860800000005
20
8.0336790000000082
30
412
10
458.24860800000005
20
6.6516280000000076
30
412
0
SPLINE
5
168
100
AcDbEntity
8
0
100
AcDbSpline
70
1064
71
3
72
8
73
4
74
0
42
0.000000001
43
0.0000000001
44
0.0000000001
40
0
40
0
40
0
40
0
40
1
40
1
40
1
40
1
10
350.20851300000004
20
83.22261300000001
30
412
10
350.46340300000003
20
82.967721999999995
30
412
10
350.60660000000007
20
82.622014000000021
30
412
10
350.60659900000007
20
82.26154600000001
30
412
0
SPLINE
5
169
100
AcDbEntity
8
0
100
AcDbSpline
70
1064
71
3
72
8
73
4
74
0
42
0.000000001
43
0.0000000001
44
0.0000000001
40
0
40
0
40
0
40
0
40
1
40
1
40
1
40
1
10
500.02037400000006
20
34.714553000000009
30
412
10
500.02037400000006
20
35.851663000000009
30
412
10
500.94218700000005
20
36.773474000000007
30
412
10
502.07929799999999
20
36.773474000000007
30
412
0
SPLINE
5
170
100
AcDbEntity
8
0
100
AcDbSpline
70
1064
71
3
72
8
73
4
74
0
42
0.000000001
43
0.0000000001
44
0.0000000001
40
0
40
0
40
0
40
0
40
1
40
1
40
1
40
1
10
502.01450400000004
20
203.94861500000002
30
412
10
502.26939299999998
20
203.69372300000003
30
412
10
502.41259100000008
20
203.34801800000002
30
412
10
502.41259100000008
20
202.987548
30
412
0
SPLINE
5
171
100
AcDbEntity
8
0
100
AcDbSpline
70
1064
71
3
72
8
73
4
74
0
42
0.000000001
43
0.0000000001
44
0.0000000001
40
0
40
0
40
0
40
0
40
1
40
1
40
1
40
1
10
500.02037400000006
20
126.01454100000001
30
412
10
500.02037400000006
20
127.15165400000002
30
412
10
500.94218700000005
20
128.073465
30
412
10
502.07929799999999
20
128.073465
30
412
0
SPLINE
5
172
100
AcDbEntity
8
0
100
AcDbSpline
70
1064
71
3
72
8
73
4
74
0
42
0.000000001
43
0.0000000001
44
0.0000000001
40
0
40
0
40
0
40
0
40
1
40
1
40
1
40
1
10
381.48437300000006
20
292.20662400000003
30
412
10
381.87050900000003
20
291.820492
30
412
10
382.39421700000003
20
291.603565
30
412
10
382.940291
20
291.603565
30
412
0
SPLINE
5
173
100
AcDbEntity
8
0
100
AcDbSpline
70
1064
71
3
72
8
73
4
74
0
42
0.000000001
43
0.0000000001
44
0.0000000001
40
0
40
0
40
0
40
0
40
1
40
1
40
1
40
1
10
499.69428800000003
20
70.988544000000005
30
412
10
499.69428800000003
20
71.349015000000009
30
412
10
499.83748300000002
20
71.69472300000001
30
412
10
500.09237500000006
20
71.949612000000016
30
412
0
SPLINE
5
174
100
AcDbEntity
8
0
100
AcDbSpline
70
1064
71
3
72
8
73
4
74
0
42
0.000000001
43
0.0000000001
44
0.0000000001
40
0
40
0
40
0
40
0
40
1
40
1
40
1
40
1
10
451.259523
20
6.6323400000000081
30
412
10
451.26865100000003
20
8.0143910000000087
30
412
10
452.396387
20
9.1273070000000072
30
412
10
453.77842499999997
20
9.1181790000000085
30
412
0
SPLINE
5
175
100
AcDbEntity
8
0
100
AcDbSpline
70
1064
71
3
72
8
73
4
74
0
42
0.000000001
43
0.0000000001
44
0.0000000001
40
0
40
0
40
0
40
0
40
1
40
1
40
1
40
1
10
354.08637000000004
20
147.300487
30
412
10
353.83147900000006
20
147.55537900000004
30
412
10
353.68828300000007
20
147.90108600000002
30
412
10
353.68828300000007
20
148.26155400000002
30
412
0
SPLINE
5
176
100
AcDbEntity
8
0
100
AcDbSpline
70
1064
71
3
72
8
73
4
74
0
42
0.000000001
43
0.0000000001
44
0.0000000001
40
0
40
0
40
0
40
0
40
1
40
1
40
1
40
1
10
355.04743700000006
20
146.9024
30
412
10
354.68696700000004
20
146.9024
30
412
10
354.34126000000003
20
147.04559800000001
30
412
10
354.08637000000004
20
147.300487
30
412
0
SPLINE
5
177
100
AcDbEntity
8
0
100
AcDbSpline
70
1064
71
3
72
8
73
4
74
0
42
0.000000001
43
0.0000000001
44
0.0000000001
40
0
40
0
40
0
40
0
40
1
40
1
40
1
40
1
10
379.16364699999605
20
8.1894919999994489
30
412
10
380.54568999999606
20
8.1894920936573197
30
412
10
381.66605507591964
20
7.0691401695818783
30
412
10
381.66605516957986
20
5.6870631695818821
30
412
0
SPLINE
5
178
100
AcDbEntity
8
0
100
AcDbSpline
70
1064
71
3
72
8
73
4
74
0
42
0.000000001
43
0.0000000001
44
0.0000000001
40
0
40
0
40
0
40
0
40
1
40
1
40
1
40
1
10
478.39928999999995
20
8.305644000000008
30
412
10
477.26217700000007
20
8.305644000000008
30
412
10
476.34036600000002
20
9.2274520000000066
30
412
10
476.34036600000002
20
10.364578000000009
30
412
0
SPLINE
5
179
100
AcDbEntity
8
0
100
AcDbSpline
70
1064
71
3
72
8
73
4
74
0
42
0.000000001
43
0.0000000001
44
0.0000000001
40
0
40
0
40
0
40
0
40
1
40
1
40
1
40
1
10
504.13822199999998
20
126.01454100000001
30
412
10
504.13822199999998
20
124.87742800000004
30
412
10
503.21641100000011
20
123.955617
30
412
10
502.07929799999999
20
123.955617
30
412
0
SPLINE
5
180
100
AcDbEntity
8
0
100
AcDbSpline
70
1064
71
3
72
8
73
4
74
0
42
0.000000001
43
0.0000000001
44
0.0000000001
40
0
40
0
40
0
40
0
40
1
40
1
40
1
40
1
10
502.07929799999999
20
128.073465
30
412
10
503.21641100000011
20
128.073465
30
412
10
504.13822199999998
20
127.15165400000002
30
412
10
504.13822199999998
20
126.01454100000001
30
412
0
SPLINE
5
181
100
AcDbEntity
8
0
100
AcDbSpline
70
1064
71
3
72
8
73
4
74
0
42
0.000000001
43
0.0000000001
44
0.0000000001
40
0
40
0
40
0
40
0
40
1
40
1
40
1
40
1
10
499.61929699999996
20
12.423513000000007
30
412
10
500.75641000000007
20
12.423513000000007
30
412
10
501.67822100000001
20
11.501678000000005
30
412
10
501.67822100000001
20
10.364578000000009
30
412
0
SPLINE
5
182
100
AcDbEntity
8
0
100
AcDbSpline
70
1064
71
3
72
8
73
4
74
0
42
0.000000001
43
0.0000000001
44
0.0000000001
40
0
40
0
40
0
40
0
40
1
40
1
40
1
40
1
10
494.29237699999999
20
202.02647999999999
30
412
10
494.037486
20
202.28137200000003
30
412
10
493.89429000000001
20
202.62707700000004
30
412
10
493.89429000000001
20
202.987548
30
412
0
SPLINE
5
183
100
AcDbEntity
8
0
100
AcDbSpline
70
1064
71
3
72
8
73
4
74
0
42
0.000000001
43
0.0000000001
44
0.0000000001
40
0
40
0
40
0
40
0
40
1
40
1
40
1
40
1
10
480.458214
20
10.364578000000009
30
412
10
480.458214
20
9.2274520000000066
30
412
10
479.53640300000006
20
8.305644000000008
30
412
10
478.39928999999995
20
8.305644000000008
30
412
0
SPLINE
5
184
100
AcDbEntity
8
0
100
AcDbSpline
70
1064
71
3
72
8
73
4
74
0
42
0.000000001
43
0.0000000001
44
0.0000000001
40
0
40
0
40
0
40
0
40
1
40
1
40
1
40
1
10
496.21451200000001
20
203.94861500000002
30
412
10
496.46940300000006
20
203.69372300000003
30
412
10
496.61259800000005
20
203.34801800000002
30
412
10
496.61259800000005
20
202.987548
30
412
0
SPLINE
5
185
100
AcDbEntity
8
0
100
AcDbSpline
70
1064
71
3
72
8
73
4
74
0
42
0.000000001
43
0.0000000001
44
0.0000000001
40
0
40
0
40
0
40
0
40
1
40
1
40
1
40
1
10
347.12349600000005
20
310.67984799999999
30
412
10
347.12349600000005
20
309.29779500000001
30
412
10
346.00311100000005
20
308.17742799999996
30
412
10
344.621061
20
308.17742799999996
30
412
0
SPLINE
5
186
100
AcDbEntity
8
0
100
AcDbSpline
70
1064
71
3
72
8
73
4
74
0
42
0.000000001
43
0.0000000001
44
0.0000000001
40
0
40
0
40
0
40
0
40
1
40
1
40
1
40
1
10
496.214517
20
71.949612000000016
30
412
10
496.46940900000004
20
71.69472300000001
30
412
10
496.61260400000003
20
71.349015000000009
30
412
10
496.61260400000003
20
70.988544000000005
30
412
0
SPLINE
5
187
100
AcDbEntity
8
0
100
AcDbSpline
70
1064
71
3
72
8
73
4
74
0
42
0.000000001
43
0.0000000001
44
0.0000000001
40
0
40
0
40
0
40
0
40
1
40
1
40
1
40
1
10
355.04743700000006
20
149.62070800000004
30
412
10
355.40790700000002
20
149.62070800000004
30
412
10
355.75361300000003
20
149.47751299999999
30
412
10
356.00850400000007
20
149.222621
30
412
0
SPLINE
5
188
100
AcDbEntity
8
0
100
AcDbSpline
70
1064
71
3
72
8
73
4
74
0
42
0.000000001
43
0.0000000001
44
0.0000000001
40
0
40
0
40
0
40
0
40
1
40
1
40
1
40
1
10
504.13822199999998
20
34.714553000000009
30
412
10
504.13822199999998
20
33.577427000000014
30
412
10
503.21641100000011
20
32.655618000000011
30
412
10
502.07929799999999
20
32.655618000000011
30
412
0
SPLINE
5
189
100
AcDbEntity
8
0
100
AcDbSpline
70
1064
71
3
72
8
73
4
74
0
42
0.000000001
43
0.0000000001
44
0.0000000001
40
0
40
0
40
0
40
0
40
1
40
1
40
1
40
1
10
348.28637800000001
20
147.300487
30
412
10
348.03148800000002
20
147.55537900000004
30
412
10
347.88829099999998
20
147.90108600000002
30
412
10
347.88829099999998
20
148.26155400000002
30
412
0
SPLINE
5
190
100
AcDbEntity
8
0
100
AcDbSpline
70
1064
71
3
72
8
73
4
74
0
42
0.000000001
43
0.0000000001
44
0.0000000001
40
0
40
0
40
0
40
0
40
1
40
1
40
1
40
1
10
493.89429000000001
20
202.987548
30
412
10
493.89429000000001
20
203.34801800000002
30
412
10
494.037486
20
203.69372300000003
30
412
10
494.29237699999999
20
203.94861500000002
30
412
0
SPLINE
5
191
100
AcDbEntity
8
0
100
AcDbSpline
70
1064
71
3
72
8
73
4
74
0
42
0.000000001
43
0.0000000001
44
0.0000000001
40
0
40
0
40
0
40
0
40
1
40
1
40
1
40
1
10
356.00850400000007
20
147.300487
30
412
10
355.75361300000003
20
147.04559800000001
30
412
10
355.40790700000002
20
146.9024
30
412
10
355.04743700000006
20
146.9024
30
412
0
SPLINE
5
192
100
AcDbEntity
8
0
100
AcDbSpline
70
1064
71
3
72
8
73
4
74
0
42
0.000000001
43
0.0000000001
44
0.0000000001
40
0
40
0
40
0
40
0
40
1
40
1
40
1
40
1
10
354.08637000000004
20
149.222621
30
412
10
354.34126000000003
20
149.47751299999999
30
412
10
354.68696700000004
20
149.62070800000004
30
412
10
355.04743700000006
20
149.62070800000004
30
412
0
SPLINE
5
193
100
AcDbEntity
8
0
100
AcDbSpline
70
1064
71
3
72
8
73
4
74
0
42
0.000000001
43
0.0000000001
44
0.0000000001
40
0
40
0
40
0
40
0
40
1
40
1
40
1
40
1
10
349.24744500000003
20
146.9024
30
412
10
348.88697500000006
20
146.9024
30
412
10
348.54126900000006
20
147.04559800000001
30
412
10
348.28637800000001
20
147.300487
30
412
0
SPLINE
5
194
100
AcDbEntity
8
0
100
AcDbSpline
70
1064
71
3
72
8
73
4
74
0
42
0.000000001
43
0.0000000001
44
0.0000000001
40
0
40
0
40
0
40
0
40
1
40
1
40
1
40
1
10
476.34036600000002
20
10.364578000000009
30
412
10
476.34036600000002
20
11.501678000000005
30
412
10
477.26217700000007
20
12.423513000000007
30
412
10
478.39928999999995
20
12.423513000000007
30
412
0
SPLINE
5
195
100
AcDbEntity
8
0
100
AcDbSpline
70
1064
71
3
72
8
73
4
74
0
42
0.000000001
43
0.0000000001
44
0.0000000001
40
0
40
0
40
0
40
0
40
1
40
1
40
1
40
1
10
348.28637800000001
20
83.22261300000001
30
412
10
348.54126900000006
20
83.477502000000015
30
412
10
348.88697500000006
20
83.620700000000014
30
412
10
349.24744500000003
20
83.620700000000014
30
412
0
SPLINE
5
196
100
AcDbEntity
8
0
100
AcDbSpline
70
1064
71
3
72
8
73
4
74
0
42
0.000000001
43
0.0000000001
44
0.0000000001
40
0
40
0
40
0
40
0
40
1
40
1
40
1
40
1
10
382.940291
20
295.72152000000006
30
412
10
382.39421700000003
20
295.72152000000006
30
412
10
381.87050900000003
20
295.504592
30
412
10
381.48437300000006
20
295.11846000000003
30
412
0
SPLINE
5
197
100
AcDbEntity
8
0
100
AcDbSpline
70
1064
71
3
72
8
73
4
74
0
42
0.000000001
43
0.0000000001
44
0.0000000001
40
0
40
0
40
0
40
0
40
1
40
1
40
1
40
1
10
382.940291
20
291.603565
30
412
10
383.48636699999997
20
291.603565
30
412
10
384.01007500000003
20
291.820492
30
412
10
384.396208
20
292.20662400000003
30
412
0
SPLINE
5
198
100
AcDbEntity
8
0
100
AcDbSpline
70
1064
71
3
72
8
73
4
74
0
42
0.000000001
43
0.0000000001
44
0.0000000001
40
0
40
0
40
0
40
0
40
1
40
1
40
1
40
1
10
381.48437300000006
20
295.11846000000003
30
412
10
381.09824000000003
20
294.73232600000006
30
412
10
380.88131400000003
20
294.20861600000001
30
412
10
380.88131400000003
20
293.66254200000003
30
412
0
SPLINE
5
199
100
AcDbEntity
8
0
100
AcDbSpline
70
1064
71
3
72
8
73
4
74
0
42
0.000000001
43
0.0000000001
44
0.0000000001
40
0
40
0
40
0
40
0
40
1
40
1
40
1
40
1
10
495.25345000000004
20
72.347698000000008
30
412
10
495.61392100000006
20
72.347698000000008
30
412
10
495.95962499999996
20
72.204503000000017
30
412
10
496.214517
20
71.949612000000016
30
412
0
SPLINE
5
200
100
AcDbEntity
8
0
100
AcDbSpline
70
1064
71
3
72
8
73
4
74
0
42
0.000000001
43
0.0000000001
44
0.0000000001
40
0
40
0
40
0
40
0
40
1
40
1
40
1
40
1
10
501.05343700000003
20
204.34670200000002
30
412
10
501.413905
20
204.34670200000002
30
412
10
501.75961200000006
20
204.20350600000003
30
412
10
502.01450400000004
20
203.94861500000002
30
412
0
SPLINE
5
201
100
AcDbEntity
8
0
100
AcDbSpline
70
1064
71
3
72
8
73
4
74
0
42
0.000000001
43
0.0000000001
44
0.0000000001
40
0
40
0
40
0
40
0
40
1
40
1
40
1
40
1
10
495.253444
20
204.34670200000002
30
412
10
495.61391500000002
20
204.34670200000002
30
412
10
495.95961999999997
20
204.20350600000003
30
412
10
496.21451200000001
20
203.94861500000002
30
412
0
SPLINE
5
202
100
AcDbEntity
8
0
100
AcDbSpline
70
1064
71
3
72
8
73
4
74
0
42
0.000000001
43
0.0000000001
44
0.0000000001
40
0
40
0
40
0
40
0
40
1
40
1
40
1
40
1
10
502.07929799999999
20
123.955617
30
412
10
500.94218700000005
20
123.955617
30
412
10
500.02037400000006
20
124.87742800000004
30
412
10
500.02037400000006
20
126.01454100000001
30
412
0
SPLINE
5
203
100
AcDbEntity
8
0
100
AcDbSpline
70
1064
71
3
72
8
73
4
74
0
42
0.000000001
43
0.0000000001
44
0.0000000001
40
0
40
0
40
0
40
0
40
1
40
1
40
1
40
1
10
501.67822100000001
20
10.364578000000009
30
412
10
501.67822100000001
20
9.2274520000000066
30
412
10
500.75641000000007
20
8.305644000000008
30
412
10
499.61929699999996
20
8.305644000000008
30
412
0
SPLINE
5
204
100
AcDbEntity
8
0
100
AcDbSpline
70
1064
71
3
72
8
73
4
74
0
42
0.000000001
43
0.0000000001
44
0.0000000001
40
0
40
0
40
0
40
0
40
1
40
1
40
1
40
1
10
439.57629500000002
20
5.3917080000000084
30
412
10
439.57629444630021
20
6.7737859999998964
30
412
10
440.69665799745565
20
7.8941374488495324
30
412
10
442.07872799745553
20
7.8941380025461321
30
412
0
SPLINE
5
205
100
AcDbEntity
8
0
100
AcDbSpline
70
1064
71
3
72
8
73
4
74
0
42
0.000000001
43
0.0000000001
44
0.0000000001
40
0
40
0
40
0
40
0
40
1
40
1
40
1
40
1
10
356.40659099999999
20
148.26155400000002
30
412
10
356.40659099999999
20
147.90108600000002
30
412
10
356.263395
20
147.55537900000004
30
412
10
356.00850400000007
20
147.300487
30
412
0
SPLINE
5
206
100
AcDbEntity
8
0
100
AcDbSpline
70
1064
71
3
72
8
73
4
74
0
42
0.000000001
43
0.0000000001
44
0.0000000001
40
0
40
0
40
0
40
0
40
1
40
1
40
1
40
1
10
353.68828300000007
20
148.26155400000002
30
412
10
353.68828300000007
20
148.62202500000001
30
412
10
353.83147900000006
20
148.96773000000002
30
412
10
354.08637000000004
20
149.222621
30
412
0
SPLINE
5
207
100
AcDbEntity
8
0
100
AcDbSpline
70
1064
71
3
72
8
73
4
74
0
42
0.000000001
43
0.0000000001
44
0.0000000001
40
0
40
0
40
0
40
0
40
1
40
1
40
1
40
1
10
349.24744500000003
20
149.62070800000004
30
412
10
349.60791599999999
20
149.62070800000004
30
412
10
349.953622
20
149.47751299999999
30
412
10
350.20851300000004
20
149.222621
30
412
0
SPLINE
5
208
100
AcDbEntity
8
0
100
AcDbSpline
70
1064
71
3
72
8
73
4
74
0
42
0.000000001
43
0.0000000001
44
0.0000000001
40
0
40
0
40
0
40
0
40
1
40
1
40
1
40
1
10
356.00850400000007
20
149.222621
30
412
10
356.263395
20
148.96773000000002
30
412
10
356.40659099999999
20
148.62202500000001
30
412
10
356.40659099999999
20
148.26155400000002
30
412
0
SPLINE
5
209
100
AcDbEntity
8
0
100
AcDbSpline
70
1064
71
3
72
8
73
4
74
0
42
0.000000001
43
0.0000000001
44
0.0000000001
40
0
40
0
40
0
40
0
40
1
40
1
40
1
40
1
10
349.24744500000003
20
229.83539199999998
30
412
10
348.88697500000006
20
229.83539199999998
30
412
10
348.54126900000006
20
229.97858800000003
30
412
10
348.28637800000001
20
230.23347900000005
30
412
0
SPLINE
5
210
100
AcDbEntity
8
0
100
AcDbSpline
70
1064
71
3
72
8
73
4
74
0
42
0.000000001
43
0.0000000001
44
0.0000000001
40
0
40
0
40
0
40
0
40
1
40
1
40
1
40
1
10
350.60659900000007
20
148.26155400000002
30
412
10
350.60660000000007
20
147.90108600000002
30
412
10
350.46340300000003
20
147.55537900000004
30
412
10
350.20851300000004
20
147.300487
30
412
0
SPLINE
5
211
100
AcDbEntity
8
0
100
AcDbSpline
70
1064
71
3
72
8
73
4
74
0
42
0.000000001
43
0.0000000001
44
0.0000000001
40
0
40
0
40
0
40
0
40
1
40
1
40
1
40
1
10
355.04743700000006
20
229.83539199999998
30
412
10
354.68696700000004
20
229.83539199999998
30
412
10
354.34126000000003
20
229.97858800000003
30
412
10
354.08637000000004
20
230.23347900000005
30
412
0
SPLINE
5
212
100
AcDbEntity
8
0
100
AcDbSpline
70
1064
71
3
72
8
73
4
74
0
42
0.000000001
43
0.0000000001
44
0.0000000001
40
0
40
0
40
0
40
0
40
1
40
1
40
1
40
1
10
355.04743700000006
20
232.55370000000002
30
412
10
355.40790700000002
20
232.55370000000002
30
412
10
355.75361300000003
20
232.410505
30
412
10
356.00850400000007
20
232.15561400000001
30
412
0
SPLINE
5
213
100
AcDbEntity
8
0
100
AcDbSpline
70
1064
71
3
72
8
73
4
74
0
42
0.000000001
43
0.0000000001
44
0.0000000001
40
0
40
0
40
0
40
0
40
1
40
1
40
1
40
1
10
356.00850400000007
20
230.23347900000005
30
412
10
355.75361300000003
20
229.97858800000003
30
412
10
355.40790700000002
20
229.83539199999998
30
412
10
355.04743700000006
20
229.83539199999998
30
412
0
SPLINE
5
214
100
AcDbEntity
8
0
100
AcDbSpline
70
1064
71
3
72
8
73
4
74
0
42
0.000000001
43
0.0000000001
44
0.0000000001
40
0
40
0
40
0
40
0
40
1
40
1
40
1
40
1
10
353.68828300000007
20
231.194546
30
412
10
353.68828300000007
20
231.55501700000002
30
412
10
353.83147900000006
20
231.90072500000002
30
412
10
354.08637000000004
20
232.15561400000001
30
412
0
SPLINE
5
215
100
AcDbEntity
8
0
100
AcDbSpline
70
1064
71
3
72
8
73
4
74
0
42
0.000000001
43
0.0000000001
44
0.0000000001
40
0
40
0
40
0
40
0
40
1
40
1
40
1
40
1
10
347.88829099999998
20
148.26155400000002
30
412
10
347.88829099999998
20
148.62202500000001
30
412
10
348.03148800000002
20
148.96773000000002
30
412
10
348.28637800000001
20
149.222621
30
412
0
SPLINE
5
216
100
AcDbEntity
8
0
100
AcDbSpline
70
1064
71
3
72
8
73
4
74
0
42
0.000000001
43
0.0000000001
44
0.0000000001
40
0
40
0
40
0
40
0
40
1
40
1
40
1
40
1
10
397.96321900000004
20
10.364578000000009
30
412
10
397.96321900000004
20
9.2274520000000066
30
412
10
397.04140800000005
20
8.305644000000008
30
412
10
395.90429499999999
20
8.305644000000008
30
412
0
SPLINE
5
217
100
AcDbEntity
8
0
100
AcDbSpline
70
1064
71
3
72
8
73
4
74
0
42
0.000000001
43
0.0000000001
44
0.0000000001
40
0
40
0
40
0
40
0
40
1
40
1
40
1
40
1
10
395.90429499999999
20
8.305644000000008
30
412
10
394.76718400000004
20
8.305644000000008
30
412
10
393.84537300000005
20
9.2274520000000066
30
412
10
393.845371
20
10.364578000000009
30
412
0
SPLINE
5
218
100
AcDbEntity
8
0
100
AcDbSpline
70
1064
71
3
72
8
73
4
74
0
42
0.000000001
43
0.0000000001
44
0.0000000001
40
0
40
0
40
0
40
0
40
1
40
1
40
1
40
1
10
348.28637800000001
20
149.222621
30
412
10
348.54126900000006
20
149.47751299999999
30
412
10
348.88697500000006
20
149.62070800000004
30
412
10
349.24744500000003
20
149.62070800000004
30
412
0
SPLINE
5
219
100
AcDbEntity
8
0
100
AcDbSpline
70
1064
71
3
72
8
73
4
74
0
42
0.000000001
43
0.0000000001
44
0.0000000001
40
0
40
0
40
0
40
0
40
1
40
1
40
1
40
1
10
354.08637000000004
20
230.23347900000005
30
412
10
353.83147900000006
20
230.48837100000003
30
412
10
353.68828300000007
20
230.83407600000001
30
412
10
353.68828300000007
20
231.194546
30
412
0
SPLINE
5
220
100
AcDbEntity
8
0
100
AcDbSpline
70
1064
71
3
72
8
73
4
74
0
42
0.000000001
43
0.0000000001
44
0.0000000001
40
0
40
0
40
0
40
0
40
1
40
1
40
1
40
1
10
350.60659900000007
20
231.194546
30
412
10
350.60660000000007
20
230.83407600000001
30
412
10
350.46340300000003
20
230.48837100000003
30
412
10
350.20851300000004
20
230.23347900000005
30
412
0
SPLINE
5
221
100
AcDbEntity
8
0
100
AcDbSpline
70
1064
71
3
72
8
73
4
74
0
42
0.000000001
43
0.0000000001
44
0.0000000001
40
0
40
0
40
0
40
0
40
1
40
1
40
1
40
1
10
356.40659099999999
20
231.194546
30
412
10
356.40659099999999
20
230.83407600000001
30
412
10
356.263395
20
230.48837100000003
30
412
10
356.00850400000007
20
230.23347900000005
30
412
0
SPLINE
5
222
100
AcDbEntity
8
0
100
AcDbSpline
70
1064
71
3
72
8
73
4
74
0
42
0.000000001
43
0.0000000001
44
0.0000000001
40
0
40
0
40
0
40
0
40
1
40
1
40
1
40
1
10
350.20851300000004
20
147.300487
30
412
10
349.953622
20
147.04559800000001
30
412
10
349.60791599999999
20
146.9024
30
412
10
349.24744500000003
20
146.9024
30
412
0
SPLINE
5
223
100
AcDbEntity
8
0
100
AcDbSpline
70
1064
71
3
72
8
73
4
74
0
42
0.000000001
43
0.0000000001
44
0.0000000001
40
0
40
0
40
0
40
0
40
1
40
1
40
1
40
1
10
350.20851300000004
20
230.23347900000005
30
412
10
349.953622
20
229.97858800000003
30
412
10
349.60791599999999
20
229.83539199999998
30
412
10
349.24744500000003
20
229.83539199999998
30
412
0
SPLINE
5
224
100
AcDbEntity
8
0
100
AcDbSpline
70
1064
71
3
72
8
73
4
74
0
42
0.000000001
43
0.0000000001
44
0.0000000001
40
0
40
0
40
0
40
0
40
1
40
1
40
1
40
1
10
354.08637000000004
20
232.15561400000001
30
412
10
354.34126000000003
20
232.410505
30
412
10
354.68696700000004
20
232.55370000000002
30
412
10
355.04743700000006
20
232.55370000000002
30
412
0
SPLINE
5
225
100
AcDbEntity
8
0
100
AcDbSpline
70
1064
71
3
72
8
73
4
74
0
42
0.000000001
43
0.0000000001
44
0.0000000001
40
0
40
0
40
0
40
0
40
1
40
1
40
1
40
1
10
356.00850400000007
20
232.15561400000001
30
412
10
356.263395
20
231.90072500000002
30
412
10
356.40659099999999
20
231.55501700000002
30
412
10
356.40659099999999
20
231.194546
30
412
0
SPLINE
5
226
100
AcDbEntity
8
0
100
AcDbSpline
70
1064
71
3
72
8
73
4
74
0
42
0.000000001
43
0.0000000001
44
0.0000000001
40
0
40
0
40
0
40
0
40
1
40
1
40
1
40
1
10
395.90429499999999
20
12.423513000000007
30
412
10
397.04140800000005
20
12.423513000000007
30
412
10
397.96321900000004
20
11.501678000000005
30
412
10
397.96321900000004
20
10.364578000000009
30
412
0
SPLINE
5
227
100
AcDbEntity
8
0
100
AcDbSpline
70
1064
71
3
72
8
73
4
74
0
42
0.000000001
43
0.0000000001
44
0.0000000001
40
0
40
0
40
0
40
0
40
1
40
1
40
1
40
1
10
350.20851300000004
20
149.222621
30
412
10
350.46340300000003
20
148.96773000000002
30
412
10
350.60660000000007
20
148.62202500000001
30
412
10
350.60659900000007
20
148.26155400000002
30
412
0
SPLINE
5
228
100
AcDbEntity
8
0
100
AcDbSpline
70
1064
71
3
72
8
73
4
74
0
42
0.000000001
43
0.0000000001
44
0.0000000001
40
0
40
0
40
0
40
0
40
1
40
1
40
1
40
1
10
417.12430400000005
20
12.423513000000007
30
412
10
418.26141400000006
20
12.423513000000007
30
412
10
419.18322800000004
20
11.501678000000005
30
412
10
419.18322800000004
20
10.364578000000009
30
412
0
SPLINE
5
229
100
AcDbEntity
8
0
100
AcDbSpline
70
1064
71
3
72
8
73
4
74
0
42
0.000000001
43
0.0000000001
44
0.0000000001
40
0
40
0
40
0
40
0
40
1
40
1
40
1
40
1
10
393.845371
20
10.364578000000009
30
412
10
393.84537300000005
20
11.501678000000005
30
412
10
394.76718400000004
20
12.423513000000007
30
412
10
395.90429499999999
20
12.423513000000007
30
412
0
SPLINE
5
230
100
AcDbEntity
8
0
100
AcDbSpline
70
1064
71
3
72
8
73
4
74
0
42
0.000000001
43
0.0000000001
44
0.0000000001
40
0
40
0
40
0
40
0
40
1
40
1
40
1
40
1
10
351.25021900000002
20
203.98938200000003
30
412
10
351.25021800000007
20
202.85226900000001
30
412
10
350.32840700000003
20
201.93045800000004
30
412
10
349.19129500000003
20
201.93045800000004
30
412
0
SPLINE
5
231
100
AcDbEntity
8
0
100
AcDbSpline
70
1064
71
3
72
8
73
4
74
0
42
0.000000001
43
0.0000000001
44
0.0000000001
40
0
40
0
40
0
40
0
40
1
40
1
40
1
40
1
10
347.13237100000003
20
203.98938200000003
30
412
10
347.13236900000004
20
204.53544199999999
30
412
10
347.34929
20
205.05914000000001
30
412
10
347.73541300000005
20
205.44526200000004
30
412
0
SPLINE
5
232
100
AcDbEntity
8
0
100
AcDbSpline
70
1064
71
3
72
8
73
4
74
0
42
0.000000001
43
0.0000000001
44
0.0000000001
40
0
40
0
40
0
40
0
40
1
40
1
40
1
40
1
10
350.647176
20
205.44526200000004
30
412
10
351.03329900000006
20
205.05914000000001
30
412
10
351.25022000000001
20
204.53544199999999
30
412
10
351.25021900000002
20
203.98938200000003
30
412
0
SPLINE
5
233
100
AcDbEntity
8
0
100
AcDbSpline
70
1064
71
3
72
8
73
4
74
0
42
0.000000001
43
0.0000000001
44
0.0000000001
40
0
40
0
40
0
40
0
40
1
40
1
40
1
40
1
10
500.09237500000006
20
71.949612000000016
30
412
10
500.34726599999999
20
72.204503000000017
30
412
10
500.692971
20
72.347698000000008
30
412
10
501.05344200000002
20
72.347698000000008
30
412
0
SPLINE
5
234
100
AcDbEntity
8
0
100
AcDbSpline
70
1064
71
3
72
8
73
4
74
0
42
0.000000001
43
0.0000000001
44
0.0000000001
40
0
40
0
40
0
40
0
40
1
40
1
40
1
40
1
10
351.25021900000002
20
182.76937200000003
30
412
10
351.25021800000007
20
181.632262
30
412
10
350.32840700000003
20
180.71044799999999
30
412
10
349.19129500000003
20
180.71044799999999
30
412
0
SPLINE
5
235
100
AcDbEntity
8
0
100
AcDbSpline
70
1064
71
3
72
8
73
4
74
0
42
0.000000001
43
0.0000000001
44
0.0000000001
40
0
40
0
40
0
40
0
40
1
40
1
40
1
40
1
10
349.19129500000003
20
201.93045800000004
30
412
10
348.05418200000008
20
201.93045800000004
30
412
10
347.13237100000003
20
202.85226900000001
30
412
10
347.13237100000003
20
203.98938200000003
30
412
0
LINE
5
236
100
AcDbEntity
8
0
100
AcDbLine
10
444.55558700000006
20
3.1323250000000069
30
412
11
451.259523
21
3.1323250000000069
31
412
0
SPLINE
5
237
100
AcDbEntity
8
0
100
AcDbSpline
70
1064
71
3
72
8
73
4
74
0
42
0.000000001
43
0.0000000001
44
0.0000000001
40
0
40
0
40
0
40
0
40
1
40
1
40
1
40
1
10
349.19129500000003
20
340.71346000000005
30
412
10
348.05418200000008
20
340.71346000000005
30
412
10
347.13237100000003
20
341.63526999999999
30
412
10
347.13237100000003
20
342.77238399999999
30
412
0
LINE
5
238
100
AcDbEntity
8
0
100
AcDbLine
10
444.58751900000004
20
5.3980850000000071
30
412
11
444.55558700000006
21
3.1323250000000069
31
412
0
SPLINE
5
239
100
AcDbEntity
8
0
100
AcDbSpline
70
1064
71
3
72
8
73
4
74
0
42
0.000000001
43
0.0000000001
44
0.0000000001
40
0
40
0
40
0
40
0
40
1
40
1
40
1
40
1
10
493.894296
20
70.988544000000005
30
412
10
493.894296
20
71.349015000000009
30
412
10
494.03749400000004
20
71.69472300000001
30
412
10
494.29238300000003
20
71.949612000000016
30
412
0
SPLINE
5
240
100
AcDbEntity
8
0
100
AcDbSpline
70
1064
71
3
72
8
73
4
74
0
42
0.000000001
43
0.0000000001
44
0.0000000001
40
0
40
0
40
0
40
0
40
1
40
1
40
1
40
1
10
494.29238300000003
20
70.027480000000025
30
412
10
494.03749400000004
20
70.282368999999989
30
412
10
493.894296
20
70.628076000000021
30
412
10
493.894296
20
70.988544000000005
30
412
0
LINE
5
241
100
AcDbEntity
8
0
100
AcDbLine
10
458.25900100000007
20
3.1322720000000071
30
412
11
508.25900100000007
21
3.1323250000000069
31
412
0
SPLINE
5
242
100
AcDbEntity
8
0
100
AcDbSpline
70
1064
71
3
72
8
73
4
74
0
42
0.000000001
43
0.0000000001
44
0.0000000001
40
0
40
0
40
0
40
0
40
1
40
1
40
1
40
1
10
349.19129500000003
20
361.93346599999995
30
412
10
348.05418200000008
20
361.93346599999995
30
412
10
347.13237100000003
20
362.855277
30
412
10
347.13237100000003
20
363.99239000000011
30
412
0
SPLINE
5
243
100
AcDbEntity
8
0
100
AcDbSpline
70
1064
71
3
72
8
73
4
74
0
42
0.000000001
43
0.0000000001
44
0.0000000001
40
0
40
0
40
0
40
0
40
1
40
1
40
1
40
1
10
351.25021900000002
20
363.99239000000011
30
412
10
351.25021800000007
20
362.855277
30
412
10
350.32840700000003
20
361.93346599999995
30
412
10
349.19129500000003
20
361.93346599999995
30
412
0
SPLINE
5
244
100
AcDbEntity
8
0
100
AcDbSpline
70
1064
71
3
72
8
73
4
74
0
42
0.000000001
43
0.0000000001
44
0.0000000001
40
0
40
0
40
0
40
0
40
1
40
1
40
1
40
1
10
347.88829099999998
20
231.194546
30
412
10
347.88829099999998
20
231.55501700000002
30
412
10
348.03148800000002
20
231.90072500000002
30
412
10
348.28637800000001
20
232.15561400000001
30
412
0
LINE
5
245
100
AcDbEntity
8
0
100
AcDbLine
10
381.66200700000002
20
3.152672000000007
30
412
11
439.586905
21
3.1339130000000068
31
412
0
LINE
5
246
100
AcDbEntity
8
0
100
AcDbLine
10
356.66194200000007
20
3.152672000000007
30
412
11
356.64287100000001
21
5.6719810000000077
31
412
0
SPLINE
5
247
100
AcDbEntity
8
0
100
AcDbSpline
70
1064
71
3
72
8
73
4
74
0
42
0.000000001
43
0.0000000001
44
0.0000000001
40
0
40
0
40
0
40
0
40
1
40
1
40
1
40
1
10
417.12430400000005
20
8.305644000000008
30
412
10
415.98719100000005
20
8.305644000000008
30
412
10
415.06538000000006
20
9.2274520000000066
30
412
10
415.06538000000006
20
10.364578000000009
30
412
0
LINE
5
248
100
AcDbEntity
8
0
100
AcDbLine
10
359.145308
20
8.1744110000000063
30
412
11
379.16364700000003
21
8.1894920000000067
31
412
0
LINE
5
249
100
AcDbEntity
8
0
100
AcDbLine
10
439.586905
20
3.1339130000000068
30
412
11
439.57629500000002
21
5.3917080000000075
31
412
0
LINE
5
250
100
AcDbEntity
8
0
100
AcDbLine
10
347.14435801045352
20
330.65935301085074
30
412
11
347.12349500000005
21
310.67984799999999
31
412
0
LINE
5
251
100
AcDbEntity
8
0
100
AcDbLine
10
451.259523
20
3.1323250000000069
30
412
11
451.259523
21
6.6323400000000081
31
412
0
LINE
5
252
100
AcDbEntity
8
0
100
AcDbLine
10
344.62106000878714
20
308.17742799121282
30
412
11
342.13229200000001
21
308.15536500000002
31
412
0
LINE
5
253
100
AcDbEntity
8
0
100
AcDbLine
10
342.13229200000001
20
333.15554900000006
30
412
11
344.54918200000003
21
333.15935899999999
31
412
0
SPLINE
5
254
100
AcDbEntity
8
0
100
AcDbSpline
70
1064
71
3
72
8
73
4
74
0
42
0.000000001
43
0.0000000001
44
0.0000000001
40
0
40
0
40
0
40
0
40
1
40
1
40
1
40
1
10
349.19129500000003
20
344.83130800000015
30
412
10
350.32840700000003
20
344.83130800000015
30
412
10
351.25021800000007
20
343.9094970000001
30
412
10
351.25021900000002
20
342.77238399999999
30
412
0
SPLINE
5
255
100
AcDbEntity
8
0
100
AcDbSpline
70
1064
71
3
72
8
73
4
74
0
42
0.000000001
43
0.0000000001
44
0.0000000001
40
0
40
0
40
0
40
0
40
1
40
1
40
1
40
1
10
347.13237100000003
20
342.77238399999999
30
412
10
347.13237100000003
20
343.9094970000001
30
412
10
348.05418200000008
20
344.83130800000015
30
412
10
349.19129500000003
20
344.83130800000015
30
412
0
SPLINE
5
256
100
AcDbEntity
8
0
100
AcDbSpline
70
1064
71
3
72
8
73
4
74
0
42
0.000000001
43
0.0000000001
44
0.0000000001
40
0
40
0
40
0
40
0
40
1
40
1
40
1
40
1
10
493.201595
20
338.26005200000009
30
412
10
493.201595
20
339.39716299999998
30
412
10
494.12340600000005
20
340.31897400000003
30
412
10
495.26051899999999
20
340.31897599999991
30
412
0
SPLINE
5
257
100
AcDbEntity
8
0
100
AcDbSpline
70
1064
71
3
72
8
73
4
74
0
42
0.000000001
43
0.0000000001
44
0.0000000001
40
0
40
0
40
0
40
0
40
1
40
1
40
1
40
1
10
495.26051899999999
20
340.31897599999991
30
412
10
496.39763200000004
20
340.31897400000003
30
412
10
497.31944300000004
20
339.39716299999998
30
412
10
497.31944300000004
20
338.26005200000009
30
412
0
SPLINE
5
258
100
AcDbEntity
8
0
100
AcDbSpline
70
1064
71
3
72
8
73
4
74
0
42
0.000000001
43
0.0000000001
44
0.0000000001
40
0
40
0
40
0
40
0
40
1
40
1
40
1
40
1
10
383.25600700000001
20
456.58645799999999
30
412
10
383.25600700000001
20
457.723568
30
412
10
384.177818
20
458.64537900000005
30
412
10
385.31493100000006
20
458.64538200000015
30
412
0
SPLINE
5
259
100
AcDbEntity
8
0
100
AcDbSpline
70
1064
71
3
72
8
73
4
74
0
42
0.000000001
43
0.0000000001
44
0.0000000001
40
0
40
0
40
0
40
0
40
1
40
1
40
1
40
1
10
387.37385500000005
20
456.58645799999999
30
412
10
387.37385500000005
20
455.44934499999999
30
412
10
386.45204200000001
20
454.52753400000006
30
412
10
385.31493100000006
20
454.52753400000006
30
412
0
SPLINE
5
260
100
AcDbEntity
8
0
100
AcDbSpline
70
1064
71
3
72
8
73
4
74
0
42
0.000000001
43
0.0000000001
44
0.0000000001
40
0
40
0
40
0
40
0
40
1
40
1
40
1
40
1
10
495.397672
20
454.43014599999998
30
412
10
494.260558
20
454.43014599999998
30
412
10
493.33874800000001
20
455.35195700000003
30
412
10
493.33874800000001
20
456.48906699999998
30
412
0
SPLINE
5
261
100
AcDbEntity
8
0
100
AcDbSpline
70
1064
71
3
72
8
73
4
74
0
42
0.000000001
43
0.0000000001
44
0.0000000001
40
0
40
0
40
0
40
0
40
1
40
1
40
1
40
1
10
383.18219900000003
20
338.56998500000003
30
412
10
383.18219900000003
20
339.70709799999997
30
412
10
384.10401000000002
20
340.62890900000002
30
412
10
385.24112300000002
20
340.62890900000002
30
412
0
SPLINE
5
262
100
AcDbEntity
8
0
100
AcDbSpline
70
1064
71
3
72
8
73
4
74
0
42
0.000000001
43
0.0000000001
44
0.0000000001
40
0
40
0
40
0
40
0
40
1
40
1
40
1
40
1
10
385.24112300000002
20
340.62890900000002
30
412
10
386.37823400000002
20
340.62890900000002
30
412
10
387.30004700000001
20
339.70709799999997
30
412
10
387.30004700000001
20
338.56998500000003
30
412
0
SPLINE
5
263
100
AcDbEntity
8
0
100
AcDbSpline
70
1064
71
3
72
8
73
4
74
0
42
0.000000001
43
0.0000000001
44
0.0000000001
40
0
40
0
40
0
40
0
40
1
40
1
40
1
40
1
10
493.33874800000001
20
456.48906699999998
30
412
10
493.33874800000001
20
457.62618000000003
30
412
10
494.260558
20
458.54799100000008
30
412
10
495.397672
20
458.54799400000002
30
412
0
SPLINE
5
264
100
AcDbEntity
8
0
100
AcDbSpline
70
1064
71
3
72
8
73
4
74
0
42
0.000000001
43
0.0000000001
44
0.0000000001
40
0
40
0
40
0
40
0
40
1
40
1
40
1
40
1
10
495.397672
20
458.54799400000002
30
412
10
496.53478500000006
20
458.54799100000008
30
412
10
497.45659799999999
20
457.62618000000003
30
412
10
497.45659799999999
20
456.48906699999998
30
412
0
SPLINE
5
265
100
AcDbEntity
8
0
100
AcDbSpline
70
1064
71
3
72
8
73
4
74
0
42
0.000000001
43
0.0000000001
44
0.0000000001
40
0
40
0
40
0
40
0
40
1
40
1
40
1
40
1
10
450.89129100000002
20
479.50741500000004
30
412
10
450.89129100000002
20
480.64452500000004
30
412
10
451.81310200000007
20
481.56633600000009
30
412
10
452.95021500000007
20
481.56633900000003
30
412
0
SPLINE
5
266
100
AcDbEntity
8
0
100
AcDbSpline
70
1064
71
3
72
8
73
4
74
0
42
0.000000001
43
0.0000000001
44
0.0000000001
40
0
40
0
40
0
40
0
40
1
40
1
40
1
40
1
10
485.22711500000003
20
292.20261800000009
30
412
10
485.61325000000005
20
292.58875
30
412
10
485.83017699999999
20
293.11246
30
412
10
485.83017699999999
20
293.65853399999997
30
412
0
SPLINE
5
267
100
AcDbEntity
8
0
100
AcDbSpline
70
1064
71
3
72
8
73
4
74
0
42
0.000000001
43
0.0000000001
44
0.0000000001
40
0
40
0
40
0
40
0
40
1
40
1
40
1
40
1
10
385.24112300000002
20
336.51106100000004
30
412
10
384.10401000000002
20
336.51106100000004
30
412
10
383.18219900000003
20
337.43287200000009
30
412
10
383.18219900000003
20
338.56998500000003
30
412
0
SPLINE
5
268
100
AcDbEntity
8
0
100
AcDbSpline
70
1064
71
3
72
8
73
4
74
0
42
0.000000001
43
0.0000000001
44
0.0000000001
40
0
40
0
40
0
40
0
40
1
40
1
40
1
40
1
10
347.88829099999998
20
82.26154600000001
30
412
10
347.88829099999998
20
82.622014000000021
30
412
10
348.03148800000002
20
82.967721999999995
30
412
10
348.28637800000001
20
83.22261300000001
30
412
0
SPLINE
5
269
100
AcDbEntity
8
0
100
AcDbSpline
70
1064
71
3
72
8
73
4
74
0
42
0.000000001
43
0.0000000001
44
0.0000000001
40
0
40
0
40
0
40
0
40
1
40
1
40
1
40
1
10
385.31493100000006
20
458.64538200000015
30
412
10
386.45204200000001
20
458.64537900000005
30
412
10
387.37385500000005
20
457.723568
30
412
10
387.37385500000005
20
456.58645799999999
30
412
0
SPLINE
5
270
100
AcDbEntity
8
0
100
AcDbSpline
70
1064
71
3
72
8
73
4
74
0
42
0.000000001
43
0.0000000001
44
0.0000000001
40
0
40
0
40
0
40
0
40
1
40
1
40
1
40
1
10
387.30004700000001
20
338.56998500000003
30
412
10
387.30004700000001
20
337.43287200000009
30
412
10
386.37823400000002
20
336.51106100000004
30
412
10
385.24112300000002
20
336.51106100000004
30
412
0
SPLINE
5
271
100
AcDbEntity
8
0
100
AcDbSpline
70
1064
71
3
72
8
73
4
74
0
42
0.000000001
43
0.0000000001
44
0.0000000001
40
0
40
0
40
0
40
0
40
1
40
1
40
1
40
1
10
497.45659799999999
20
456.48906699999998
30
412
10
497.45659799999999
20
455.35195700000003
30
412
10
496.53478500000006
20
454.43014599999998
30
412
10
495.397672
20
454.43014599999998
30
412
0
SPLINE
5
272
100
AcDbEntity
8
0
100
AcDbSpline
70
1064
71
3
72
8
73
4
74
0
42
0.000000001
43
0.0000000001
44
0.0000000001
40
0
40
0
40
0
40
0
40
1
40
1
40
1
40
1
10
455.009139
20
479.50741500000004
30
412
10
455.009139
20
478.37030200000004
30
412
10
454.08732600000008
20
477.44849099999999
30
412
10
452.95021500000007
20
477.44849099999999
30
412
0
SPLINE
5
273
100
AcDbEntity
8
0
100
AcDbSpline
70
1064
71
3
72
8
73
4
74
0
42
0.000000001
43
0.0000000001
44
0.0000000001
40
0
40
0
40
0
40
0
40
1
40
1
40
1
40
1
10
452.95021500000007
20
477.44849099999999
30
412
10
451.81310200000007
20
477.44849099999999
30
412
10
450.89129100000002
20
478.37030200000004
30
412
10
450.89129100000002
20
479.50741500000004
30
412
0
SPLINE
5
274
100
AcDbEntity
8
0
100
AcDbSpline
70
1064
71
3
72
8
73
4
74
0
42
0.000000001
43
0.0000000001
44
0.0000000001
40
0
40
0
40
0
40
0
40
1
40
1
40
1
40
1
10
353.68828300000007
20
82.26154600000001
30
412
10
353.68828300000007
20
82.622014000000021
30
412
10
353.83147900000006
20
82.967721999999995
30
412
10
354.08637000000004
20
83.22261300000001
30
412
0
SPLINE
5
275
100
AcDbEntity
8
0
100
AcDbSpline
70
1064
71
3
72
8
73
4
74
0
42
0.000000001
43
0.0000000001
44
0.0000000001
40
0
40
0
40
0
40
0
40
1
40
1
40
1
40
1
10
356.40659099999999
20
82.26154600000001
30
412
10
356.40659099999999
20
81.90107500000002
30
412
10
356.263395
20
81.555368000000001
30
412
10
356.00850400000007
20
81.30047900000001
30
412
0
SPLINE
5
276
100
AcDbEntity
8
0
100
AcDbSpline
70
1064
71
3
72
8
73
4
74
0
42
0.000000001
43
0.0000000001
44
0.0000000001
40
0
40
0
40
0
40
0
40
1
40
1
40
1
40
1
10
483.31311400000016
20
487.14130800000066
30
412
10
497.04237799996037
20
487.14134105939638
30
412
10
508.1721477998791
20
476.01159385930487
30
412
10
508.17218085920979
20
462.28235685934465
30
412
0
LINE
5
277
100
AcDbEntity
8
0
100
AcDbLine
10
342.25912700000003
20
487.13172999999995
30
412
11
342.13229200000001
21
333.15554900000006
31
412
0
SPLINE
5
278
100
AcDbEntity
8
0
100
AcDbSpline
70
1064
71
3
72
8
73
4
74
0
42
0.000000001
43
0.0000000001
44
0.0000000001
40
0
40
0
40
0
40
0
40
1
40
1
40
1
40
1
10
384.396208
20
295.11846000000003
30
412
10
384.01007500000003
20
295.504592
30
412
10
383.48636699999997
20
295.72152000000006
30
412
10
382.940291
20
295.72152000000006
30
412
0
SPLINE
5
279
100
AcDbEntity
8
0
100
AcDbSpline
70
1064
71
3
72
8
73
4
74
0
42
0.000000001
43
0.0000000001
44
0.0000000001
40
0
40
0
40
0
40
0
40
1
40
1
40
1
40
1
10
354.08637000000004
20
81.30047900000001
30
412
10
353.83147900000006
20
81.555368000000001
30
412
10
353.68828300000007
20
81.90107500000002
30
412
10
353.68828300000007
20
82.26154600000001
30
412
0
SPLINE
5
280
100
AcDbEntity
8
0
100
AcDbSpline
70
1064
71
3
72
8
73
4
74
0
42
0.000000001
43
0.0000000001
44
0.0000000001
40
0
40
0
40
0
40
0
40
1
40
1
40
1
40
1
10
452.95021500000007
20
481.56633900000003
30
412
10
454.08732600000008
20
481.56633600000009
30
412
10
455.009139
20
480.64452500000004
30
412
10
455.009139
20
479.50741500000004
30
412
0
LINE
5
281
100
AcDbEntity
8
0
100
AcDbLine
10
483.31311400000004
20
487.14130800000009
30
412
11
342.25912700000003
21
487.13172999999995
31
412
0
SPLINE
5
282
100
AcDbEntity
8
0
100
AcDbSpline
70
1064
71
3
72
8
73
4
74
0
42
0.000000001
43
0.0000000001
44
0.0000000001
40
0
40
0
40
0
40
0
40
1
40
1
40
1
40
1
10
384.99926800000003
20
293.66254200000003
30
412
10
384.99926800000003
20
294.20861600000001
30
412
10
384.78234100000003
20
294.73232600000006
30
412
10
384.396208
20
295.11846000000003
30
412
0
SPLINE
5
283
100
AcDbEntity
8
0
100
AcDbSpline
70
1064
71
3
72
8
73
4
74
0
42
0.000000001
43
0.0000000001
44
0.0000000001
40
0
40
0
40
0
40
0
40
1
40
1
40
1
40
1
10
482.31528200000002
20
295.11445200000003
30
412
10
481.92914999999999
20
294.728318
30
412
10
481.71222300000005
20
294.20461
30
412
10
481.71222300000005
20
293.65853399999997
30
412
0
SPLINE
5
284
100
AcDbEntity
8
0
100
AcDbSpline
70
1064
71
3
72
8
73
4
74
0
42
0.000000001
43
0.0000000001
44
0.0000000001
40
0
40
0
40
0
40
0
40
1
40
1
40
1
40
1
10
344.54918199999958
20
333.15935899994759
30
412
10
345.9824609999996
20
333.15935900594042
30
412
10
347.1443580046797
20
332.04006301079858
30
412
10
347.14435801045278
20
330.65935301079861
30
412
0
SPLINE
5
285
100
AcDbEntity
8
0
100
AcDbSpline
70
1064
71
3
72
8
73
4
74
0
42
0.000000001
43
0.0000000001
44
0.0000000001
40
0
40
0
40
0
40
0
40
1
40
1
40
1
40
1
10
356.64287200000001
20
5.6719810000000077
30
412
10
356.64287200000001
20
7.0540320000000083
30
412
10
357.76323700000006
20
8.1744110000000063
30
412
10
359.145308
20
8.1744110000000063
30
412
0
SPLINE
5
286
100
AcDbEntity
8
0
100
AcDbSpline
70
1064
71
3
72
8
73
4
74
0
42
0.000000001
43
0.0000000001
44
0.0000000001
40
0
40
0
40
0
40
0
40
1
40
1
40
1
40
1
10
485.22711500000003
20
295.11445200000003
30
412
10
484.84098200000005
20
295.500585
30
412
10
484.31727300000006
20
295.717512
30
412
10
483.77120000000002
20
295.717512
30
412
0
SPLINE
5
287
100
AcDbEntity
8
0
100
AcDbSpline
70
1064
71
3
72
8
73
4
74
0
42
0.000000001
43
0.0000000001
44
0.0000000001
40
0
40
0
40
0
40
0
40
1
40
1
40
1
40
1
10
349.24744500000003
20
80.90239200000002
30
412
10
348.88697500000006
20
80.90239200000002
30
412
10
348.54126900000006
20
81.045587000000012
30
412
10
348.28637800000001
20
81.30047900000001
30
412
0
SPLINE
5
288
100
AcDbEntity
8
0
100
AcDbSpline
70
1064
71
3
72
8
73
4
74
0
42
0.000000001
43
0.0000000001
44
0.0000000001
40
0
40
0
40
0
40
0
40
1
40
1
40
1
40
1
10
356.00850400000007
20
81.30047900000001
30
412
10
355.75361300000003
20
81.045587000000012
30
412
10
355.40790700000002
20
80.90239200000002
30
412
10
355.04743700000006
20
80.90239200000002
30
412
0
SPLINE
5
289
100
AcDbEntity
8
0
100
AcDbSpline
70
1064
71
3
72
8
73
4
74
0
42
0.000000001
43
0.0000000001
44
0.0000000001
40
0
40
0
40
0
40
0
40
1
40
1
40
1
40
1
10
419.18322800000004
20
10.364578000000009
30
412
10
419.18322800000004
20
9.2274520000000066
30
412
10
418.26141400000006
20
8.305644000000008
30
412
10
417.12430400000005
20
8.305644000000008
30
412
0
SPLINE
5
290
100
AcDbEntity
8
0
100
AcDbSpline
70
1064
71
3
72
8
73
4
74
0
42
0.000000001
43
0.0000000001
44
0.0000000001
40
0
40
0
40
0
40
0
40
1
40
1
40
1
40
1
10
354.08637000000004
20
83.22261300000001
30
412
10
354.34126000000003
20
83.477502000000015
30
412
10
354.68696700000004
20
83.620700000000014
30
412
10
355.04743700000006
20
83.620700000000014
30
412
0
SPLINE
5
291
100
AcDbEntity
8
0
100
AcDbSpline
70
1064
71
3
72
8
73
4
74
0
42
0.000000001
43
0.0000000001
44
0.0000000001
40
0
40
0
40
0
40
0
40
1
40
1
40
1
40
1
10
380.88131400000003
20
293.66254200000003
30
412
10
380.88131400000003
20
293.116468
30
412
10
381.09824000000003
20
292.592759
30
412
10
381.48437300000006
20
292.20662400000003
30
412
0
SPLINE
5
292
100
AcDbEntity
8
0
100
AcDbSpline
70
1064
71
3
72
8
73
4
74
0
42
0.000000001
43
0.0000000001
44
0.0000000001
40
0
40
0
40
0
40
0
40
1
40
1
40
1
40
1
10
356.00850400000007
20
83.22261300000001
30
412
10
356.263395
20
82.967721999999995
30
412
10
356.40659099999999
20
82.622014000000021
30
412
10
356.40659099999999
20
82.26154600000001
30
412
0
SPLINE
5
293
100
AcDbEntity
8
0
100
AcDbSpline
70
1064
71
3
72
8
73
4
74
0
42
0.000000001
43
0.0000000001
44
0.0000000001
40
0
40
0
40
0
40
0
40
1
40
1
40
1
40
1
10
350.60659900000007
20
82.26154600000001
30
412
10
350.60660000000007
20
81.90107500000002
30
412
10
350.46340300000003
20
81.555368000000001
30
412
10
350.20851300000004
20
81.30047900000001
30
412
0
SPLINE
5
294
100
AcDbEntity
8
0
100
AcDbSpline
70
1064
71
3
72
8
73
4
74
0
42
0.000000001
43
0.0000000001
44
0.0000000001
40
0
40
0
40
0
40
0
40
1
40
1
40
1
40
1
10
350.20851300000004
20
81.30047900000001
30
412
10
349.953622
20
81.045587000000012
30
412
10
349.60791599999999
20
80.90239200000002
30
412
10
349.24744500000003
20
80.90239200000002
30
412
0
SPLINE
5
295
100
AcDbEntity
8
0
100
AcDbSpline
70
1064
71
3
72
8
73
4
74
0
42
0.000000001
43
0.0000000001
44
0.0000000001
40
0
40
0
40
0
40
0
40
1
40
1
40
1
40
1
10
442.07872799745542
20
7.894138002546133
30
412
10
443.46076599883008
20
7.8975774502655458
30
412
10
444.5839905522962
20
6.7801620014101331
30
412
10
444.58751900000004
20
5.398085000000008
30
412
0
SPLINE
5
296
100
AcDbEntity
8
0
100
AcDbSpline
70
1064
71
3
72
8
73
4
74
0
42
0.000000001
43
0.0000000001
44
0.0000000001
40
0
40
0
40
0
40
0
40
1
40
1
40
1
40
1
10
355.04743700000006
20
80.90239200000002
30
412
10
354.68696700000004
20
80.90239200000002
30
412
10
354.34126000000003
20
81.045587000000012
30
412
10
354.08637000000004
20
81.30047900000001
30
412
0
SPLINE
5
297
100
AcDbEntity
8
0
100
AcDbSpline
70
1064
71
3
72
8
73
4
74
0
42
0.000000001
43
0.0000000001
44
0.0000000001
40
0
40
0
40
0
40
0
40
1
40
1
40
1
40
1
10
485.83017699999999
20
293.65853399999997
30
412
10
485.83017699999999
20
294.20461
30
412
10
485.61325000000005
20
294.728318
30
412
10
485.22711500000003
20
295.11445200000003
30
412
0
SPLINE
5
298
100
AcDbEntity
8
0
100
AcDbSpline
70
1064
71
3
72
8
73
4
74
0
42
0.000000001
43
0.0000000001
44
0.0000000001
40
0
40
0
40
0
40
0
40
1
40
1
40
1
40
1
10
482.31528200000002
20
292.20261800000009
30
412
10
482.701415
20
291.816485
30
412
10
483.22512399999999
20
291.59955600000001
30
412
10
483.77120000000002
20
291.59955600000001
30
412
0
SPLINE
5
299
100
AcDbEntity
8
0
100
AcDbSpline
70
1064
71
3
72
8
73
4
74
0
42
0.000000001
43
0.0000000001
44
0.0000000001
40
0
40
0
40
0
40
0
40
1
40
1
40
1
40
1
10
483.77120000000002
20
295.717512
30
412
10
483.22512399999999
20
295.717512
30
412
10
482.701415
20
295.500585
30
412
10
482.31528200000002
20
295.11445200000003
30
412
0
SPLINE
5
300
100
AcDbEntity
8
0
100
AcDbSpline
70
1064
71
3
72
8
73
4
74
0
42
0.000000001
43
0.0000000001
44
0.0000000001
40
0
40
0
40
0
40
0
40
1
40
1
40
1
40
1
10
483.77120000000002
20
291.59955600000001
30
412
10
484.31727300000006
20
291.59955600000001
30
412
10
484.84098200000005
20
291.816485
30
412
10
485.22711500000003
20
292.20261800000009
30
412
0
SPLINE
5
301
100
AcDbEntity
8
0
100
AcDbSpline
70
1064
71
3
72
8
73
4
74
0
42
0.000000001
43
0.0000000001
44
0.0000000001
40
0
40
0
40
0
40
0
40
1
40
1
40
1
40
1
10
384.396208
20
292.20662400000003
30
412
10
384.78234100000003
20
292.592759
30
412
10
384.99926800000003
20
293.116468
30
412
10
384.99926800000003
20
293.66254200000003
30
412
0
SPLINE
5
302
100
AcDbEntity
8
0
100
AcDbSpline
70
1064
71
3
72
8
73
4
74
0
42
0.000000001
43
0.0000000001
44
0.0000000001
40
0
40
0
40
0
40
0
40
1
40
1
40
1
40
1
10
355.04743700000006
20
83.620700000000014
30
412
10
355.40790700000002
20
83.620700000000014
30
412
10
355.75361300000003
20
83.477502000000015
30
412
10
356.00850400000007
20
83.22261300000001
30
412
0
SPLINE
5
303
100
AcDbEntity
8
0
100
AcDbSpline
70
1064
71
3
72
8
73
4
74
0
42
0.000000001
43
0.0000000001
44
0.0000000001
40
0
40
0
40
0
40
0
40
1
40
1
40
1
40
1
10
348.28637800000001
20
81.30047900000001
30
412
10
348.03148800000002
20
81.555368000000001
30
412
10
347.88829099999998
20
81.90107500000002
30
412
10
347.88829099999998
20
82.26154600000001
30
412
0
SPLINE
5
304
100
AcDbEntity
8
0
100
AcDbSpline
70
1064
71
3
72
8
73
4
74
0
42
0.000000001
43
0.0000000001
44
0.0000000001
40
0
40
0
40
0
40
0
40
1
40
1
40
1
40
1
10
481.71222300000005
20
293.65853399999997
30
412
10
481.71222300000005
20
293.11246
30
412
10
481.92914999999999
20
292.58875
30
412
10
482.31528200000002
20
292.20261800000009
30
412
0
LINE
5
305
100
AcDbEntity
8
0
100
AcDbLine
10
342.26194800000002
20
3.1527250000000073
30
412
11
356.66194200000007
21
3.152672000000007
31
412
0
LINE
5
306
100
AcDbEntity
8
0
100
AcDbLine
10
381.66605516958413
20
5.6870631695821716
30
412
11
381.66200700000002
21
3.152672000000007
31
412
0
SPLINE
5
307
100
AcDbEntity
8
0
100
AcDbSpline
70
1064
71
3
72
8
73
4
74
0
42
0.000000001
43
0.0000000001
44
0.0000000001
40
0
40
0
40
0
40
0
40
1
40
1
40
1
40
1
10
348.28637800000001
20
230.23347900000005
30
412
10
348.03148800000002
20
230.48837100000003
30
412
10
347.88829099999998
20
230.83407600000001
30
412
10
347.88829099999998
20
231.194546
30
412
0
LINE
5
308
100
AcDbEntity
8
0
100
AcDbLine
10
342.13229200000001
20
308.15536500000002
30
412
11
342.26194800000002
21
3.1527250000000073
31
412
0
SPLINE
5
309
100
AcDbEntity
8
0
100
AcDbSpline
70
1064
71
3
72
8
73
4
74
0
42
0.000000001
43
0.0000000001
44
0.0000000001
40
0
40
0
40
0
40
0
40
1
40
1
40
1
40
1
10
499.61929699999996
20
8.305644000000008
30
412
10
498.48218700000007
20
8.305644000000008
30
412
10
497.56037300000003
20
9.2274520000000066
30
412
10
497.56037300000003
20
10.364578000000009
30
412
0
SPLINE
5
310
100
AcDbEntity
8
0
100
AcDbSpline
70
1064
71
3
72
8
73
4
74
0
42
0.000000001
43
0.0000000001
44
0.0000000001
40
0
40
0
40
0
40
0
40
1
40
1
40
1
40
1
10
347.13237100000003
20
442.77238200000011
30
412
10
347.13237100000003
20
443.90949200000011
30
412
10
348.05418200000008
20
444.83130599999993
30
412
10
349.19129500000003
20
444.83130599999993
30
412
0
SPLINE
5
311
100
AcDbEntity
8
0
100
AcDbSpline
70
1064
71
3
72
8
73
4
74
0
42
0.000000001
43
0.0000000001
44
0.0000000001
40
0
40
0
40
0
40
0
40
1
40
1
40
1
40
1
10
347.13237100000003
20
463.992389
30
412
10
347.13237100000003
20
465.12950199999989
30
412
10
348.05418200000008
20
466.05131299999994
30
412
10
349.19129500000003
20
466.05131299999994
30
412
0
SPLINE
5
312
100
AcDbEntity
8
0
100
AcDbSpline
70
1064
71
3
72
8
73
4
74
0
42
0.000000001
43
0.0000000001
44
0.0000000001
40
0
40
0
40
0
40
0
40
1
40
1
40
1
40
1
10
497.31944300000004
20
196.76005200000003
30
412
10
497.31944300000004
20
195.62293900000003
30
412
10
496.39763200000004
20
194.70112800000004
30
412
10
495.26051899999999
20
194.70112800000004
30
412
0
SPLINE
5
313
100
AcDbEntity
8
0
100
AcDbSpline
70
1064
71
3
72
8
73
4
74
0
42
0.000000001
43
0.0000000001
44
0.0000000001
40
0
40
0
40
0
40
0
40
1
40
1
40
1
40
1
10
495.26051899999999
20
336.20112800000004
30
412
10
494.12340600000005
20
336.20112800000004
30
412
10
493.201595
20
337.12293900000009
30
412
10
493.201595
20
338.26005200000009
30
412
0
SPLINE
5
314
100
AcDbEntity
8
0
100
AcDbSpline
70
1064
71
3
72
8
73
4
74
0
42
0.000000001
43
0.0000000001
44
0.0000000001
40
0
40
0
40
0
40
0
40
1
40
1
40
1
40
1
10
495.26051899999999
20
194.70112800000004
30
412
10
494.12340600000005
20
194.70112800000004
30
412
10
493.201595
20
195.62293900000003
30
412
10
493.201595
20
196.76005200000003
30
412
0
SPLINE
5
315
100
AcDbEntity
8
0
100
AcDbSpline
70
1064
71
3
72
8
73
4
74
0
42
0.000000001
43
0.0000000001
44
0.0000000001
40
0
40
0
40
0
40
0
40
1
40
1
40
1
40
1
10
497.45659799999999
20
314.98906899999997
30
412
10
497.45659799999999
20
313.85195600000009
30
412
10
496.53478500000006
20
312.93014500000004
30
412
10
495.397672
20
312.93014500000004
30
412
0
SPLINE
5
316
100
AcDbEntity
8
0
100
AcDbSpline
70
1064
71
3
72
8
73
4
74
0
42
0.000000001
43
0.0000000001
44
0.0000000001
40
0
40
0
40
0
40
0
40
1
40
1
40
1
40
1
10
495.397672
20
312.93014500000004
30
412
10
494.260558
20
312.93014500000004
30
412
10
493.33874800000001
20
313.85195600000009
30
412
10
493.33874800000001
20
314.98906899999997
30
412
0
SPLINE
5
317
100
AcDbEntity
8
0
100
AcDbSpline
70
1064
71
3
72
8
73
4
74
0
42
0.000000001
43
0.0000000001
44
0.0000000001
40
0
40
0
40
0
40
0
40
1
40
1
40
1
40
1
10
387.30004700000001
20
197.069985
30
412
10
387.30004700000001
20
195.93287200000003
30
412
10
386.37823400000002
20
195.01106100000004
30
412
10
385.24112300000002
20
195.01106100000004
30
412
0
SPLINE
5
318
100
AcDbEntity
8
0
100
AcDbSpline
70
1064
71
3
72
8
73
4
74
0
42
0.000000001
43
0.0000000001
44
0.0000000001
40
0
40
0
40
0
40
0
40
1
40
1
40
1
40
1
10
495.397672
20
317.04799300000002
30
412
10
496.53478500000006
20
317.04799200000002
30
412
10
497.45659799999999
20
316.12618100000009
30
412
10
497.45659799999999
20
314.98906899999997
30
412
0
SPLINE
5
319
100
AcDbEntity
8
0
100
AcDbSpline
70
1064
71
3
72
8
73
4
74
0
42
0.000000001
43
0.0000000001
44
0.0000000001
40
0
40
0
40
0
40
0
40
1
40
1
40
1
40
1
10
493.201595
20
196.76005200000003
30
412
10
493.201595
20
197.89716299999998
30
412
10
494.12340600000005
20
198.81897400000003
30
412
10
495.26051899999999
20
198.81897600000002
30
412
0
SPLINE
5
320
100
AcDbEntity
8
0
100
AcDbSpline
70
1064
71
3
72
8
73
4
74
0
42
0.000000001
43
0.0000000001
44
0.0000000001
40
0
40
0
40
0
40
0
40
1
40
1
40
1
40
1
10
351.25021900000002
20
463.992389
30
412
10
351.25021800000007
20
462.85527600000012
30
412
10
350.32840700000003
20
461.93346500000007
30
412
10
349.19129500000003
20
461.93346500000007
30
412
0
SPLINE
5
321
100
AcDbEntity
8
0
100
AcDbSpline
70
1064
71
3
72
8
73
4
74
0
42
0.000000001
43
0.0000000001
44
0.0000000001
40
0
40
0
40
0
40
0
40
1
40
1
40
1
40
1
10
477.570221
20
481.56633900000003
30
412
10
478.70733400000006
20
481.56633600000009
30
412
10
479.62914500000005
20
480.64452500000004
30
412
10
479.62914500000005
20
479.50741500000004
30
412
0
SPLINE
5
322
100
AcDbEntity
8
0
100
AcDbSpline
70
1064
71
3
72
8
73
4
74
0
42
0.000000001
43
0.0000000001
44
0.0000000001
40
0
40
0
40
0
40
0
40
1
40
1
40
1
40
1
10
385.24112300000002
20
199.12890900000005
30
412
10
386.37823400000002
20
199.12890900000005
30
412
10
387.30004700000001
20
198.20709800000003
30
412
10
387.30004700000001
20
197.069985
30
412
0
SPLINE
5
323
100
AcDbEntity
8
0
100
AcDbSpline
70
1064
71
3
72
8
73
4
74
0
42
0.000000001
43
0.0000000001
44
0.0000000001
40
0
40
0
40
0
40
0
40
1
40
1
40
1
40
1
10
450.89129100000002
20
479.50741500000004
30
412
10
450.89129100000002
20
480.64452500000004
30
412
10
451.81310200000007
20
481.56633600000009
30
412
10
452.95021500000007
20
481.56633900000003
30
412
0
SPLINE
5
324
100
AcDbEntity
8
0
100
AcDbSpline
70
1064
71
3
72
8
73
4
74
0
42
0.000000001
43
0.0000000001
44
0.0000000001
40
0
40
0
40
0
40
0
40
1
40
1
40
1
40
1
10
452.95021500000007
20
481.56633900000003
30
412
10
454.08732600000008
20
481.56633600000009
30
412
10
455.009139
20
480.64452500000004
30
412
10
455.009139
20
479.50741500000004
30
412
0
SPLINE
5
325
100
AcDbEntity
8
0
100
AcDbSpline
70
1064
71
3
72
8
73
4
74
0
42
0.000000001
43
0.0000000001
44
0.0000000001
40
0
40
0
40
0
40
0
40
1
40
1
40
1
40
1
10
385.31493100000006
20
313.02753300000001
30
412
10
384.177818
20
313.02753300000001
30
412
10
383.25600700000001
20
313.949344
30
412
10
383.25600700000001
20
315.086457
30
412
0
SPLINE
5
326
100
AcDbEntity
8
0
100
AcDbSpline
70
1064
71
3
72
8
73
4
74
0
42
0.000000001
43
0.0000000001
44
0.0000000001
40
0
40
0
40
0
40
0
40
1
40
1
40
1
40
1
10
477.570221
20
477.44849099999999
30
412
10
476.433108
20
477.44849099999999
30
412
10
475.51129700000001
20
478.37030200000004
30
412
10
475.51129700000001
20
479.50741500000004
30
412
0
SPLINE
5
327
100
AcDbEntity
8
0
100
AcDbSpline
70
1064
71
3
72
8
73
4
74
0
42
0.000000001
43
0.0000000001
44
0.0000000001
40
0
40
0
40
0
40
0
40
1
40
1
40
1
40
1
10
385.24112300000002
20
195.01106100000004
30
412
10
384.10401000000002
20
195.01106100000004
30
412
10
383.18219900000003
20
195.93287200000003
30
412
10
383.18219900000003
20
197.069985
30
412
0
SPLINE
5
328
100
AcDbEntity
8
0
100
AcDbSpline
70
1064
71
3
72
8
73
4
74
0
42
0.000000001
43
0.0000000001
44
0.0000000001
40
0
40
0
40
0
40
0
40
1
40
1
40
1
40
1
10
349.19129500000003
20
466.05131299999994
30
412
10
350.32840700000003
20
466.05131299999994
30
412
10
351.25021800000007
20
465.12950199999989
30
412
10
351.25021900000002
20
463.992389
30
412
0
SPLINE
5
329
100
AcDbEntity
8
0
100
AcDbSpline
70
1064
71
3
72
8
73
4
74
0
42
0.000000001
43
0.0000000001
44
0.0000000001
40
0
40
0
40
0
40
0
40
1
40
1
40
1
40
1
10
349.19129500000003
20
461.93346500000007
30
412
10
348.05418200000008
20
461.93346500000007
30
412
10
347.13237100000003
20
462.85527600000012
30
412
10
347.13237100000003
20
463.992389
30
412
0
SPLINE
5
330
100
AcDbEntity
8
0
100
AcDbSpline
70
1064
71
3
72
8
73
4
74
0
42
0.000000001
43
0.0000000001
44
0.0000000001
40
0
40
0
40
0
40
0
40
1
40
1
40
1
40
1
10
385.31493100000006
20
317.14538100000004
30
412
10
386.45204200000001
20
317.14537999999999
30
412
10
387.37385500000005
20
316.22356900000005
30
412
10
387.37385500000005
20
315.086457
30
412
0
SPLINE
5
331
100
AcDbEntity
8
0
100
AcDbSpline
70
1064
71
3
72
8
73
4
74
0
42
0.000000001
43
0.0000000001
44
0.0000000001
40
0
40
0
40
0
40
0
40
1
40
1
40
1
40
1
10
349.19129500000003
20
444.83130599999993
30
412
10
350.32840700000003
20
444.83130599999993
30
412
10
351.25021800000007
20
443.90949200000011
30
412
10
351.25021900000002
20
442.77238200000011
30
412
0
SPLINE
5
332
100
AcDbEntity
8
0
100
AcDbSpline
70
1064
71
3
72
8
73
4
74
0
42
0.000000001
43
0.0000000001
44
0.0000000001
40
0
40
0
40
0
40
0
40
1
40
1
40
1
40
1
10
351.25021900000002
20
442.77238200000011
30
412
10
351.25021800000007
20
441.63526900000011
30
412
10
350.32840700000003
20
440.71345800000006
30
412
10
349.19129500000003
20
440.71345800000006
30
412
0
SPLINE
5
333
100
AcDbEntity
8
0
100
AcDbSpline
70
1064
71
3
72
8
73
4
74
0
42
0.000000001
43
0.0000000001
44
0.0000000001
40
0
40
0
40
0
40
0
40
1
40
1
40
1
40
1
10
349.19129500000003
20
440.71345800000006
30
412
10
348.05418200000008
20
440.71345800000006
30
412
10
347.13237100000003
20
441.63526900000011
30
412
10
347.13237100000003
20
442.77238200000011
30
412
0
SPLINE
5
334
100
AcDbEntity
8
0
100
AcDbSpline
70
1064
71
3
72
8
73
4
74
0
42
0.000000001
43
0.0000000001
44
0.0000000001
40
0
40
0
40
0
40
0
40
1
40
1
40
1
40
1
10
497.31944300000004
20
338.26005200000009
30
412
10
497.31944300000004
20
337.12293900000009
30
412
10
496.39763200000004
20
336.20112800000004
30
412
10
495.26051899999999
20
336.20112800000004
30
412
0
SPLINE
5
335
100
AcDbEntity
8
0
100
AcDbSpline
70
1064
71
3
72
8
73
4
74
0
42
0.000000001
43
0.0000000001
44
0.0000000001
40
0
40
0
40
0
40
0
40
1
40
1
40
1
40
1
10
383.25600700000001
20
315.086457
30
412
10
383.25600700000001
20
316.22356900000005
30
412
10
384.177818
20
317.14537999999999
30
412
10
385.31493100000006
20
317.14538100000004
30
412
0
SPLINE
5
336
100
AcDbEntity
8
0
100
AcDbSpline
70
1064
71
3
72
8
73
4
74
0
42
0.000000001
43
0.0000000001
44
0.0000000001
40
0
40
0
40
0
40
0
40
1
40
1
40
1
40
1
10
452.95021500000007
20
477.44849099999999
30
412
10
451.81310200000007
20
477.44849099999999
30
412
10
450.89129100000002
20
478.37030200000004
30
412
10
450.89129100000002
20
479.50741500000004
30
412
0
SPLINE
5
337
100
AcDbEntity
8
0
100
AcDbSpline
70
1064
71
3
72
8
73
4
74
0
42
0.000000001
43
0.0000000001
44
0.0000000001
40
0
40
0
40
0
40
0
40
1
40
1
40
1
40
1
10
387.37385500000005
20
315.086457
30
412
10
387.37385500000005
20
313.949344
30
412
10
386.45204200000001
20
313.02753300000001
30
412
10
385.31493100000006
20
313.02753300000001
30
412
0
SPLINE
5
338
100
AcDbEntity
8
0
100
AcDbSpline
70
1064
71
3
72
8
73
4
74
0
42
0.000000001
43
0.0000000001
44
0.0000000001
40
0
40
0
40
0
40
0
40
1
40
1
40
1
40
1
10
385.31493100000006
20
454.52753400000006
30
412
10
384.177818
20
454.52753400000006
30
412
10
383.25600700000001
20
455.44934499999999
30
412
10
383.25600700000001
20
456.58645799999999
30
412
0
SPLINE
5
339
100
AcDbEntity
8
0
100
AcDbSpline
70
1064
71
3
72
8
73
4
74
0
42
0.000000001
43
0.0000000001
44
0.0000000001
40
0
40
0
40
0
40
0
40
1
40
1
40
1
40
1
10
495.26051899999999
20
198.81897600000002
30
412
10
496.39763200000004
20
198.81897400000003
30
412
10
497.31944300000004
20
197.89716299999998
30
412
10
497.31944300000004
20
196.76005200000003
30
412
0
SPLINE
5
340
100
AcDbEntity
8
0
100
AcDbSpline
70
1064
71
3
72
8
73
4
74
0
42
0.000000001
43
0.0000000001
44
0.0000000001
40
0
40
0
40
0
40
0
40
1
40
1
40
1
40
1
10
475.51129700000001
20
479.50741500000004
30
412
10
475.51129700000001
20
480.64452500000004
30
412
10
476.433108
20
481.56633600000009
30
412
10
477.570221
20
481.56633900000003
30
412
0
SPLINE
5
341
100
AcDbEntity
8
0
100
AcDbSpline
70
1064
71
3
72
8
73
4
74
0
42
0.000000001
43
0.0000000001
44
0.0000000001
40
0
40
0
40
0
40
0
40
1
40
1
40
1
40
1
10
383.18219900000003
20
197.069985
30
412
10
383.18219900000003
20
198.20709800000003
30
412
10
384.10401000000002
20
199.12890900000005
30
412
10
385.24112300000002
20
199.12890900000005
30
412
0
SPLINE
5
342
100
AcDbEntity
8
0
100
AcDbSpline
70
1064
71
3
72
8
73
4
74
0
42
0.000000001
43
0.0000000001
44
0.0000000001
40
0
40
0
40
0
40
0
40
1
40
1
40
1
40
1
10
479.62914500000005
20
479.50741500000004
30
412
10
479.62914500000005
20
478.37030200000004
30
412
10
478.70733400000006
20
477.44849099999999
30
412
10
477.570221
20
477.44849099999999
30
412
0
SPLINE
5
343
100
AcDbEntity
8
0
100
AcDbSpline
70
1064
71
3
72
8
73
4
74
0
42
0.000000001
43
0.0000000001
44
0.0000000001
40
0
40
0
40
0
40
0
40
1
40
1
40
1
40
1
10
493.33874800000001
20
314.98906899999997
30
412
10
493.33874800000001
20
316.12618100000009
30
412
10
494.260558
20
317.04799200000002
30
412
10
495.397672
20
317.04799300000002
30
412
0
LINE
5
344
100
AcDbEntity
8
0
100
AcDbLine
10
453.77842499999997
20
9.1181790000000085
30
412
11
455.74620000000004
21
9.154057000000007
31
412
0
SPLINE
5
345
100
AcDbEntity
8
0
100
AcDbSpline
70
1064
71
3
72
8
73
4
74
0
42
0.000000001
43
0.0000000001
44
0.0000000001
40
0
40
0
40
0
40
0
40
1
40
1
40
1
40
1
10
455.009139
20
479.50741500000004
30
412
10
455.009139
20
478.37030200000004
30
412
10
454.08732600000008
20
477.44849099999999
30
412
10
452.95021500000007
20
477.44849099999999
30
412
0
SPLINE
5
346
100
AcDbEntity
8
0
100
AcDbSpline
70
1064
71
3
72
8
73
4
74
0
42
0.000000001
43
0.0000000001
44
0.0000000001
40
0
40
0
40
0
40
0
40
1
40
1
40
1
40
1
10
502.01450400000004
20
202.02647999999999
30
412
10
501.75961200000006
20
201.77158899999998
30
412
10
501.413905
20
201.62839399999999
30
412
10
501.05343700000003
20
201.62839399999999
30
412
0
SPLINE
5
347
100
AcDbEntity
8
0
100
AcDbSpline
70
1064
71
3
72
8
73
4
74
0
42
0.000000001
43
0.0000000001
44
0.0000000001
40
0
40
0
40
0
40
0
40
1
40
1
40
1
40
1
10
501.05343700000003
20
267.62839100000002
30
412
10
500.69296600000001
20
267.62839100000002
30
412
10
500.34725800000001
20
267.77158600000001
30
412
10
500.09236900000008
20
268.026478
30
412
0
SPLINE
5
348
100
AcDbEntity
8
0
100
AcDbSpline
70
1064
71
3
72
8
73
4
74
0
42
0.000000001
43
0.0000000001
44
0.0000000001
40
0
40
0
40
0
40
0
40
1
40
1
40
1
40
1
10
494.29237699999999
20
203.94861500000002
30
412
10
494.54726900000003
20
204.20350600000003
30
412
10
494.89297400000004
20
204.34670200000002
30
412
10
495.253444
20
204.34670200000002
30
412
0
SPLINE
5
349
100
AcDbEntity
8
0
100
AcDbSpline
70
1064
71
3
72
8
73
4
74
0
42
0.000000001
43
0.0000000001
44
0.0000000001
40
0
40
0
40
0
40
0
40
1
40
1
40
1
40
1
10
501.05344200000002
20
69.629390000000015
30
412
10
500.692971
20
69.629390000000015
30
412
10
500.34726599999999
20
69.772588000000013
30
412
10
500.09237500000006
20
70.027480000000025
30
412
0
SPLINE
5
350
100
AcDbEntity
8
0
100
AcDbSpline
70
1064
71
3
72
8
73
4
74
0
42
0.000000001
43
0.0000000001
44
0.0000000001
40
0
40
0
40
0
40
0
40
1
40
1
40
1
40
1
10
500.09236900000008
20
202.02647999999999
30
412
10
499.83747800000003
20
202.28137200000003
30
412
10
499.69428300000004
20
202.62707700000004
30
412
10
499.69428300000004
20
202.987548
30
412
0
SPLINE
5
351
100
AcDbEntity
8
0
100
AcDbSpline
70
1064
71
3
72
8
73
4
74
0
42
0.000000001
43
0.0000000001
44
0.0000000001
40
0
40
0
40
0
40
0
40
1
40
1
40
1
40
1
10
493.89429000000001
20
268.98754500000001
30
412
10
493.89429000000001
20
269.34801600000003
30
412
10
494.037486
20
269.69372099999998
30
412
10
494.29237699999999
20
269.94861200000008
30
412
0
SPLINE
5
352
100
AcDbEntity
8
0
100
AcDbSpline
70
1064
71
3
72
8
73
4
74
0
42
0.000000001
43
0.0000000001
44
0.0000000001
40
0
40
0
40
0
40
0
40
1
40
1
40
1
40
1
10
496.21451200000001
20
269.94861200000008
30
412
10
496.46940300000006
20
269.69372099999998
30
412
10
496.61259800000005
20
269.34801600000003
30
412
10
496.61259800000005
20
268.98754500000001
30
412
0
SPLINE
5
353
100
AcDbEntity
8
0
100
AcDbSpline
70
1064
71
3
72
8
73
4
74
0
42
0.000000001
43
0.0000000001
44
0.0000000001
40
0
40
0
40
0
40
0
40
1
40
1
40
1
40
1
10
496.61259800000005
20
202.987548
30
412
10
496.61259800000005
20
202.62707700000004
30
412
10
496.46940300000006
20
202.28137200000003
30
412
10
496.21451200000001
20
202.02647999999999
30
412
0
SPLINE
5
354
100
AcDbEntity
8
0
100
AcDbSpline
70
1064
71
3
72
8
73
4
74
0
42
0.000000001
43
0.0000000001
44
0.0000000001
40
0
40
0
40
0
40
0
40
1
40
1
40
1
40
1
10
495.253444
20
201.62839399999999
30
412
10
494.89297400000004
20
201.62839399999999
30
412
10
494.54726900000003
20
201.77158899999998
30
412
10
494.29237699999999
20
202.02647999999999
30
412
0
SPLINE
5
355
100
AcDbEntity
8
0
100
AcDbSpline
70
1064
71
3
72
8
73
4
74
0
42
0.000000001
43
0.0000000001
44
0.0000000001
40
0
40
0
40
0
40
0
40
1
40
1
40
1
40
1
10
502.41259600000006
20
70.988544000000005
30
412
10
502.41259600000006
20
70.628076000000021
30
412
10
502.26940100000007
20
70.282368999999989
30
412
10
502.01450900000003
20
70.027480000000025
30
412
0
SPLINE
5
356
100
AcDbEntity
8
0
100
AcDbSpline
70
1064
71
3
72
8
73
4
74
0
42
0.000000001
43
0.0000000001
44
0.0000000001
40
0
40
0
40
0
40
0
40
1
40
1
40
1
40
1
10
500.09236900000008
20
203.94861500000002
30
412
10
500.34725800000001
20
204.20350600000003
30
412
10
500.69296600000001
20
204.34670200000002
30
412
10
501.05343700000003
20
204.34670200000002
30
412
0
SPLINE
5
357
100
AcDbEntity
8
0
100
AcDbSpline
70
1064
71
3
72
8
73
4
74
0
42
0.000000001
43
0.0000000001
44
0.0000000001
40
0
40
0
40
0
40
0
40
1
40
1
40
1
40
1
10
499.69428300000004
20
268.98754500000001
30
412
10
499.69428300000004
20
269.34801600000003
30
412
10
499.83747800000003
20
269.69372099999998
30
412
10
500.09236900000008
20
269.94861200000008
30
412
0
SPLINE
5
358
100
AcDbEntity
8
0
100
AcDbSpline
70
1064
71
3
72
8
73
4
74
0
42
0.000000001
43
0.0000000001
44
0.0000000001
40
0
40
0
40
0
40
0
40
1
40
1
40
1
40
1
10
499.69428300000004
20
202.987548
30
412
10
499.69428300000004
20
203.34801800000002
30
412
10
499.83747800000003
20
203.69372300000003
30
412
10
500.09236900000008
20
203.94861500000002
30
412
0
SPLINE
5
359
100
AcDbEntity
8
0
100
AcDbSpline
70
1064
71
3
72
8
73
4
74
0
42
0.000000001
43
0.0000000001
44
0.0000000001
40
0
40
0
40
0
40
0
40
1
40
1
40
1
40
1
10
502.01450900000003
20
70.027480000000025
30
412
10
501.75961700000005
20
69.772588000000013
30
412
10
501.41391300000004
20
69.629390000000015
30
412
10
501.05344200000002
20
69.629390000000015
30
412
0
SPLINE
5
360
100
AcDbEntity
8
0
100
AcDbSpline
70
1064
71
3
72
8
73
4
74
0
42
0.000000001
43
0.0000000001
44
0.0000000001
40
0
40
0
40
0
40
0
40
1
40
1
40
1
40
1
10
500.09237500000006
20
70.027480000000025
30
412
10
499.83748300000002
20
70.282368999999989
30
412
10
499.69428800000003
20
70.628076000000021
30
412
10
499.69428800000003
20
70.988544000000005
30
412
0
SPLINE
5
361
100
AcDbEntity
8
0
100
AcDbSpline
70
1064
71
3
72
8
73
4
74
0
42
0.000000001
43
0.0000000001
44
0.0000000001
40
0
40
0
40
0
40
0
40
1
40
1
40
1
40
1
10
495.253444
20
267.62839100000002
30
412
10
494.89297400000004
20
267.62839100000002
30
412
10
494.54726900000003
20
267.77158600000001
30
412
10
494.29237699999999
20
268.026478
30
412
0
LINE
5
362
100
AcDbEntity
8
0
100
AcDbLine
10
458.24860800000005
20
6.6516280000000076
30
412
11
458.25900100000007
21
3.1322720000000071
31
412
0
SPLINE
5
363
100
AcDbEntity
8
0
100
AcDbSpline
70
1064
71
3
72
8
73
4
74
0
42
0.000000001
43
0.0000000001
44
0.0000000001
40
0
40
0
40
0
40
0
40
1
40
1
40
1
40
1
10
351.25021900000002
20
342.77238399999999
30
412
10
351.25021800000007
20
341.63526999999999
30
412
10
350.32840700000003
20
340.71346000000005
30
412
10
349.19129500000003
20
340.71346000000005
30
412
0
SPLINE
5
364
100
AcDbEntity
8
0
100
AcDbSpline
70
1064
71
3
72
8
73
4
74
0
42
0.000000001
43
0.0000000001
44
0.0000000001
40
0
40
0
40
0
40
0
40
1
40
1
40
1
40
1
10
349.19129500000003
20
366.05131400000005
30
412
10
350.32840700000003
20
366.05131400000005
30
412
10
351.25021800000007
20
365.129503
30
412
10
351.25021900000002
20
363.99239000000011
30
412
0
SPLINE
5
365
100
AcDbEntity
8
0
100
AcDbSpline
70
1064
71
3
72
8
73
4
74
0
42
0.000000001
43
0.0000000001
44
0.0000000001
40
0
40
0
40
0
40
0
40
1
40
1
40
1
40
1
10
347.13237100000003
20
363.99239000000011
30
412
10
347.13237100000003
20
365.129503
30
412
10
348.05418200000008
20
366.05131400000005
30
412
10
349.19129500000003
20
366.05131400000005
30
412
0
ENDSEC
0
SECTION
2
OBJECTS
0
DICTIONARY
5
C
100
AcDbDictionary
3
ACAD_GROUP
350
D
3
ACAD_MLINESTYLE
350
17
0
DICTIONARY
5
D
100
AcDbDictionary
0
DICTIONARY
5
1A
330
C
100
AcDbDictionary
0
DICTIONARY
5
17
100
AcDbDictionary
0
ENDSEC
0
EOF
