0
SECTION
2
HEADER
9
$INSUNITS
70
4
9
$ACADVER
1
AC1014
9
$HANDSEED
5
FFFF
0
ENDSEC
0
SECTION
2
TABLES
0
TABLE
2
VPORT
5
8
100
AcDbSymbolTable
0
ENDTAB
0
TABLE
2
LTYPE
5
5
100
AcDbSymbolTable
0
LTYPE
5
14
100
AcDbSymbolTableRecord
100
AcDbLinetypeTableRecord
2
BYBLOCK
70
0
0
LTYPE
5
15
100
AcDbSymbolTableRecord
100
AcDbLinetypeTableRecord
2
BYLAYER
70
0
0
ENDTAB
0
TABLE
2
LAYER
5
2
100
AcDbSymbolTable
70
2
0
LAYER
5
50
100
AcDbSymbolTableRecord
100
AcDbLayerTableRecord
2
0
70
0
6
CONTINUOUS
0
ENDTAB
0
TABLE
2
STYLE
5
3
100
AcDbSymbolTable
70
1
0
STYLE
5
11
100
AcDbSymbolTableRecord
100
AcDbTextStyleTableRecord
2
STANDARD
70
0
0
ENDTAB
0
TABLE
2
VIEW
5
6
100
AcDbSymbolTable
70
0
0
ENDTAB
0
TABLE
2
UCS
5
7
100
AcDbSymbolTable
70
0
0
ENDTAB
0
TABLE
2
APPID
5
9
100
AcDbSymbolTable
70
2
0
APPID
5
12
100
AcDbSymbolTableRecord
100
AcDbRegAppTableRecord
2
ACAD
70
0
0
ENDTAB
0
TABLE
2
DIMSTYLE
5
A
100
AcDbSymbolTable
70
1
0
ENDTAB
0
TABLE
2
BLOCK_RECORD
5
1
100
AcDbSymbolTable
70
1
0
BLOCK_RECORD
5
1F
100
AcDbSymbolTableRecord
100
AcDbBlockTableRecord
2
*MODEL_SPACE
0
BLOCK_RECORD
5
1B
100
AcDbSymbolTableRecord
100
AcDbBlockTableRecord
2
*PAPER_SPACE
0
ENDTAB
0
ENDSEC
0
SECTION
2
BLOCKS
0
BLOCK
5
20
100
AcDbEntity
100
AcDbBlockBegin
2
*MODEL_SPACE
0
ENDBLK
5
21
100
AcDbEntity
100
AcDbBlockEnd
0
BLOCK
5
1C
100
AcDbEntity
100
AcDbBlockBegin
2
*PAPER_SPACE
0
ENDBLK
5
1D
100
AcDbEntity
100
AcDbBlockEnd
0
ENDSEC
0
SECTION
2
ENTITIES
0
LINE
5
100
100
AcDbEntity
8
0
100
AcDbLine
10
341.86861099999999
20
2.9322889999999999
30
78.5
11
341.86861099999999
21
486.93229499999995
31
78.5
0
LINE
5
101
100
AcDbEntity
8
0
100
AcDbLine
10
341.86861099999999
20
486.93229499999995
30
78.5
11
341.86861099999999
21
2.9322889999999999
31
78.5
0
SPLINE
5
102
100
AcDbEntity
8
0
100
AcDbSpline
70
1064
71
3
72
8
73
4
74
0
42
0.000000001
43
0.0000000001
44
0.0000000001
40
0
40
0
40
0
40
0
40
1
40
1
40
1
40
1
10
475.02779300000009
20
479.32547599999992
30
78.5
10
475.02779300000009
20
478.18836299999992
30
78.5
10
475.94960399999997
20
477.26655199999993
30
78.5
10
477.08671700000002
20
477.26655199999993
30
78.5
0
SPLINE
5
103
100
AcDbEntity
8
0
100
AcDbSpline
70
1064
71
3
72
8
73
4
74
0
42
0.000000001
43
0.0000000001
44
0.0000000001
40
0
40
0
40
0
40
0
40
1
40
1
40
1
40
1
10
349.10552100000007
20
461.65933700000005
30
78.5
10
349.65015
20
461.65933700000005
30
78.5
10
350.17247400000002
20
461.87569199999996
30
78.5
10
350.55758600000001
20
462.26080399999995
30
78.5
0
SPLINE
5
104
100
AcDbEntity
8
0
100
AcDbSpline
70
1064
71
3
72
8
73
4
74
0
42
0.000000001
43
0.0000000001
44
0.0000000001
40
0
40
0
40
0
40
0
40
1
40
1
40
1
40
1
10
350.55758600000001
20
443.94493799999992
30
78.5
10
350.17247400000002
20
444.33004900000003
30
78.5
10
349.65015
20
444.54640199999994
30
78.5
10
349.10552100000007
20
444.54640199999994
30
78.5
0
SPLINE
5
105
100
AcDbEntity
8
0
100
AcDbSpline
70
1064
71
3
72
8
73
4
74
0
42
0.000000001
43
0.0000000001
44
0.0000000001
40
0
40
0
40
0
40
0
40
1
40
1
40
1
40
1
10
477.08671700000002
20
477.26655199999993
30
78.5
10
478.22383000000002
20
477.26655199999993
30
78.5
10
479.14564100000001
20
478.18836299999992
30
78.5
10
479.14564100000001
20
479.32547599999992
30
78.5
0
LINE
5
106
100
AcDbEntity
8
0
100
AcDbLine
10
507.90452000000005
20
461.93397999999996
30
78.5
11
507.90422000000001
21
2.9350140000000002
31
78.5
0
SPLINE
5
107
100
AcDbEntity
8
0
100
AcDbSpline
70
1064
71
3
72
8
73
4
74
0
42
0.000000001
43
0.0000000001
44
0.0000000001
40
0
40
0
40
0
40
0
40
1
40
1
40
1
40
1
10
347.65345300000001
20
465.16493700000001
30
78.5
10
347.26833899999997
20
464.77982499999996
30
78.5
10
347.05198599999994
20
464.25749999999994
30
78.5
10
347.05198599999994
20
463.71286900000001
30
78.5
0
SPLINE
5
108
100
AcDbEntity
8
0
100
AcDbSpline
70
1064
71
3
72
8
73
4
74
0
42
0.000000001
43
0.0000000001
44
0.0000000001
40
0
40
0
40
0
40
0
40
1
40
1
40
1
40
1
10
477.08671700000002
20
481.38439999999997
30
78.5
10
475.94960399999997
20
481.38439800000003
30
78.5
10
475.02779300000009
20
480.46258700000004
30
78.5
10
475.02779300000009
20
479.32547599999992
30
78.5
0
SPLINE
5
109
100
AcDbEntity
8
0
100
AcDbSpline
70
1064
71
3
72
8
73
4
74
0
42
0.000000001
43
0.0000000001
44
0.0000000001
40
0
40
0
40
0
40
0
40
1
40
1
40
1
40
1
10
347.65345000000002
20
441.04080199999993
30
78.5
10
348.03856500000001
20
440.65569099999999
30
78.5
10
348.56088699999998
20
440.43933599999997
30
78.5
10
349.10552100000007
20
440.43933799999996
30
78.5
0
SPLINE
5
110
100
AcDbEntity
8
0
100
AcDbSpline
70
1064
71
3
72
8
73
4
74
0
42
0.000000001
43
0.0000000001
44
0.0000000001
40
0
40
0
40
0
40
0
40
1
40
1
40
1
40
1
10
347.05198599999994
20
442.49287000000004
30
78.5
10
347.05198400000006
20
441.94823899999994
30
78.5
10
347.26833899999997
20
441.42591699999997
30
78.5
10
347.65345000000002
20
441.04080199999993
30
78.5
0
SPLINE
5
111
100
AcDbEntity
8
0
100
AcDbSpline
70
1064
71
3
72
8
73
4
74
0
42
0.000000001
43
0.0000000001
44
0.0000000001
40
0
40
0
40
0
40
0
40
1
40
1
40
1
40
1
10
349.10552100000007
20
444.54640199999994
30
78.5
10
348.56088900000003
20
444.54640199999994
30
78.5
10
348.03856500000001
20
444.33004900000003
30
78.5
10
347.65345300000001
20
443.94493799999992
30
78.5
0
SPLINE
5
112
100
AcDbEntity
8
0
100
AcDbSpline
70
1064
71
3
72
8
73
4
74
0
42
0.000000001
43
0.0000000001
44
0.0000000001
40
0
40
0
40
0
40
0
40
1
40
1
40
1
40
1
10
452.46671200000003
20
481.38439999999997
30
78.5
10
451.32959900000003
20
481.38439800000003
30
78.5
10
450.40778800000004
20
480.46258700000004
30
78.5
10
450.40778800000004
20
479.32547599999992
30
78.5
0
SPLINE
5
113
100
AcDbEntity
8
0
100
AcDbSpline
70
1064
71
3
72
8
73
4
74
0
42
0.000000001
43
0.0000000001
44
0.0000000001
40
0
40
0
40
0
40
0
40
1
40
1
40
1
40
1
10
351.15905300000003
20
463.71286900000001
30
78.5
10
351.15905300000003
20
464.25749999999994
30
78.5
10
350.9427
20
464.77982499999996
30
78.5
10
350.55758600000001
20
465.16493700000001
30
78.5
0
SPLINE
5
114
100
AcDbEntity
8
0
100
AcDbSpline
70
1064
71
3
72
8
73
4
74
0
42
0.000000001
43
0.0000000001
44
0.0000000001
40
0
40
0
40
0
40
0
40
1
40
1
40
1
40
1
10
479.14564100000001
20
479.32547599999992
30
78.5
10
479.14564100000001
20
480.46258700000004
30
78.5
10
478.22383000000002
20
481.38439800000003
30
78.5
10
477.08671700000002
20
481.38439999999997
30
78.5
0
SPLINE
5
115
100
AcDbEntity
8
0
100
AcDbSpline
70
1064
71
3
72
8
73
4
74
0
42
0.000000001
43
0.0000000001
44
0.0000000001
40
0
40
0
40
0
40
0
40
1
40
1
40
1
40
1
10
349.10552100000007
20
465.76640099999992
30
78.5
10
348.56088900000003
20
465.76640099999992
30
78.5
10
348.03856500000001
20
465.55004599999995
30
78.5
10
347.65345300000001
20
465.16493700000001
30
78.5
0
SPLINE
5
116
100
AcDbEntity
8
0
100
AcDbSpline
70
1064
71
3
72
8
73
4
74
0
42
0.000000001
43
0.0000000001
44
0.0000000001
40
0
40
0
40
0
40
0
40
1
40
1
40
1
40
1
10
351.15905300000003
20
442.49287000000004
30
78.5
10
351.15905300000003
20
443.0375019999999
30
78.5
10
350.9427
20
443.55982599999999
30
78.5
10
350.55758600000001
20
443.94493799999992
30
78.5
0
SPLINE
5
117
100
AcDbEntity
8
0
100
AcDbSpline
70
1064
71
3
72
8
73
4
74
0
42
0.000000001
43
0.0000000001
44
0.0000000001
40
0
40
0
40
0
40
0
40
1
40
1
40
1
40
1
10
350.55758600000001
20
462.26080399999995
30
78.5
10
350.9427
20
462.645915
30
78.5
10
351.15905300000003
20
463.16823999999997
30
78.5
10
351.15905300000003
20
463.71286900000001
30
78.5
0
LINE
5
118
100
AcDbEntity
8
0
100
AcDbLine
10
341.86861099999999
20
2.9322889999999999
30
78.5
11
507.90422000000001
21
2.9350140000000002
31
78.5
0
SPLINE
5
119
100
AcDbEntity
8
0
100
AcDbSpline
70
1064
71
3
72
8
73
4
74
0
42
0.000000001
43
0.0000000001
44
0.0000000001
40
0
40
0
40
0
40
0
40
1
40
1
40
1
40
1
10
445.84905100000009
20
54.643878999999998
30
78.5
10
445.84905100000009
20
55.188511000000005
30
78.5
10
445.632699
20
55.710835000000003
30
78.5
10
445.24758700000001
20
56.09594700000001
30
78.5
0
SPLINE
5
120
100
AcDbEntity
8
0
100
AcDbSpline
70
1064
71
3
72
8
73
4
74
0
42
0.000000001
43
0.0000000001
44
0.0000000001
40
0
40
0
40
0
40
0
40
1
40
1
40
1
40
1
10
408.10850899999997
20
52.97162800000001
30
78.5
10
418.016795
20
52.97162800000001
30
78.5
10
427.51926599999996
20
56.907683000000006
30
78.5
10
434.52548000000002
20
63.913902999999991
30
78.5
0
SPLINE
5
121
100
AcDbEntity
8
0
100
AcDbSpline
70
1064
71
3
72
8
73
4
74
0
42
0.000000001
43
0.0000000001
44
0.0000000001
40
0
40
0
40
0
40
0
40
1
40
1
40
1
40
1
10
497.99833900000004
20
11.634673000000003
30
78.5
10
497.61322699999999
20
11.249572000000001
30
78.5
10
497.39687200000003
20
10.727232000000003
30
78.5
10
497.39687500000002
20
10.182613
30
78.5
0
SPLINE
5
122
100
AcDbEntity
8
0
100
AcDbSpline
70
1064
71
3
72
8
73
4
74
0
42
0.000000001
43
0.0000000001
44
0.0000000001
40
0
40
0
40
0
40
0
40
1
40
1
40
1
40
1
10
497.39687500000002
20
10.182613
30
78.5
10
497.39687200000003
20
9.6379680000000008
30
78.5
10
497.61322699999999
20
9.115654000000001
30
78.5
10
497.99833900000004
20
8.7305530000000005
30
78.5
0
SPLINE
5
123
100
AcDbEntity
8
0
100
AcDbSpline
70
1064
71
3
72
8
73
4
74
0
42
0.000000001
43
0.0000000001
44
0.0000000001
40
0
40
0
40
0
40
0
40
1
40
1
40
1
40
1
10
442.34345200000001
20
56.09594700000001
30
78.5
10
441.95834000000002
20
55.710835000000003
30
78.5
10
441.741985
20
55.188511000000005
30
78.5
10
441.74198800000005
20
54.643878999999998
30
78.5
0
SPLINE
5
124
100
AcDbEntity
8
0
100
AcDbSpline
70
1064
71
3
72
8
73
4
74
0
42
0.000000001
43
0.0000000001
44
0.0000000001
40
0
40
0
40
0
40
0
40
1
40
1
40
1
40
1
10
478.23040500000002
20
8.1290760000000013
30
78.5
10
478.775037
20
8.1290760000000013
30
78.5
10
479.29735900000003
20
8.3454259999999998
30
78.5
10
479.68247300000002
20
8.7305270000000004
30
78.5
0
SPLINE
5
125
100
AcDbEntity
8
0
100
AcDbSpline
70
1064
71
3
72
8
73
4
74
0
42
0.000000001
43
0.0000000001
44
0.0000000001
40
0
40
0
40
0
40
0
40
1
40
1
40
1
40
1
10
499.45040400000005
20
8.1290760000000013
30
78.5
10
499.99503600000003
20
8.1290760000000013
30
78.5
10
500.51736000000005
20
8.3454259999999998
30
78.5
10
500.90247199999999
20
8.7305530000000005
30
78.5
0
SPLINE
5
126
100
AcDbEntity
8
0
100
AcDbSpline
70
1064
71
3
72
8
73
4
74
0
42
0.000000001
43
0.0000000001
44
0.0000000001
40
0
40
0
40
0
40
0
40
1
40
1
40
1
40
1
10
442.34345200000001
20
53.191811000000001
30
78.5
10
442.72856600000006
20
52.806700000000006
30
78.5
10
443.25088800000003
20
52.590344999999999
30
78.5
10
443.79552000000001
20
52.590344999999999
30
78.5
0
SPLINE
5
127
100
AcDbEntity
8
0
100
AcDbSpline
70
1064
71
3
72
8
73
4
74
0
42
0.000000001
43
0.0000000001
44
0.0000000001
40
0
40
0
40
0
40
0
40
1
40
1
40
1
40
1
10
497.99833900000004
20
8.7305530000000005
30
78.5
10
498.38345100000004
20
8.3454259999999998
30
78.5
10
498.90577500000006
20
8.1290760000000013
30
78.5
10
499.45040400000005
20
8.1290760000000013
30
78.5
0
SPLINE
5
128
100
AcDbEntity
8
0
100
AcDbSpline
70
1064
71
3
72
8
73
4
74
0
42
0.000000001
43
0.0000000001
44
0.0000000001
40
0
40
0
40
0
40
0
40
1
40
1
40
1
40
1
10
418.40147300000007
20
8.7305530000000005
30
78.5
10
418.78658700000005
20
9.115654000000001
30
78.5
10
419.00293900000003
20
9.6379680000000008
30
78.5
10
419.00293900000003
20
10.182613
30
78.5
0
SPLINE
5
129
100
AcDbEntity
8
0
100
AcDbSpline
70
1064
71
3
72
8
73
4
74
0
42
0.000000001
43
0.0000000001
44
0.0000000001
40
0
40
0
40
0
40
0
40
1
40
1
40
1
40
1
10
443.79552000000001
20
52.590344999999999
30
78.5
10
444.34015100000005
20
52.590346999999994
30
78.5
10
444.86247600000007
20
52.806700000000006
30
78.5
10
445.24758700000001
20
53.191813999999994
30
78.5
0
SPLINE
5
130
100
AcDbEntity
8
0
100
AcDbSpline
70
1064
71
3
72
8
73
4
74
0
42
0.000000001
43
0.0000000001
44
0.0000000001
40
0
40
0
40
0
40
0
40
1
40
1
40
1
40
1
10
500.90247199999999
20
11.634673000000003
30
78.5
10
500.51736000000005
20
12.0198
30
78.5
10
499.99503600000003
20
12.236150000000002
30
78.5
10
499.45040400000005
20
12.236150000000002
30
78.5
0
SPLINE
5
131
100
AcDbEntity
8
0
100
AcDbSpline
70
1064
71
3
72
8
73
4
74
0
42
0.000000001
43
0.0000000001
44
0.0000000001
40
0
40
0
40
0
40
0
40
1
40
1
40
1
40
1
10
480.28393700000004
20
10.182613
30
78.5
10
480.28393700000004
20
10.727232000000003
30
78.5
10
480.06758500000001
20
11.249572000000001
30
78.5
10
479.68247300000002
20
11.634673000000003
30
78.5
0
SPLINE
5
132
100
AcDbEntity
8
0
100
AcDbSpline
70
1064
71
3
72
8
73
4
74
0
42
0.000000001
43
0.0000000001
44
0.0000000001
40
0
40
0
40
0
40
0
40
1
40
1
40
1
40
1
10
478.23040500000002
20
12.236150000000002
30
78.5
10
477.68577400000004
20
12.236150000000002
30
78.5
10
477.16344900000001
20
12.0198
30
78.5
10
476.77834000000007
20
11.634673000000003
30
78.5
0
SPLINE
5
133
100
AcDbEntity
8
0
100
AcDbSpline
70
1064
71
3
72
8
73
4
74
0
42
0.000000001
43
0.0000000001
44
0.0000000001
40
0
40
0
40
0
40
0
40
1
40
1
40
1
40
1
10
414.89587300000005
20
10.182613
30
78.5
10
414.89587300000005
20
9.6379680000000008
30
78.5
10
415.11222800000007
20
9.115654000000001
30
78.5
10
415.49734000000001
20
8.7305270000000004
30
78.5
0
SPLINE
5
134
100
AcDbEntity
8
0
100
AcDbSpline
70
1064
71
3
72
8
73
4
74
0
42
0.000000001
43
0.0000000001
44
0.0000000001
40
0
40
0
40
0
40
0
40
1
40
1
40
1
40
1
10
419.00293900000003
20
10.182613
30
78.5
10
419.00293900000003
20
10.727232000000003
30
78.5
10
418.78658700000005
20
11.249572000000001
30
78.5
10
418.40147300000007
20
11.634673000000003
30
78.5
0
SPLINE
5
135
100
AcDbEntity
8
0
100
AcDbSpline
70
1064
71
3
72
8
73
4
74
0
42
0.000000001
43
0.0000000001
44
0.0000000001
40
0
40
0
40
0
40
0
40
1
40
1
40
1
40
1
10
443.79552000000001
20
56.697414000000009
30
78.5
10
443.25088800000003
20
56.697414000000009
30
78.5
10
442.72856600000006
20
56.481060999999997
30
78.5
10
442.34345200000001
20
56.09594700000001
30
78.5
0
SPLINE
5
136
100
AcDbEntity
8
0
100
AcDbSpline
70
1064
71
3
72
8
73
4
74
0
42
0.000000001
43
0.0000000001
44
0.0000000001
40
0
40
0
40
0
40
0
40
1
40
1
40
1
40
1
10
501.50393600000001
20
10.182613
30
78.5
10
501.50393600000001
20
10.727232000000003
30
78.5
10
501.28758300000004
20
11.249572000000001
30
78.5
10
500.90247199999999
20
11.634673000000003
30
78.5
0
SPLINE
5
137
100
AcDbEntity
8
0
100
AcDbSpline
70
1064
71
3
72
8
73
4
74
0
42
0.000000001
43
0.0000000001
44
0.0000000001
40
0
40
0
40
0
40
0
40
1
40
1
40
1
40
1
10
499.45040400000005
20
12.236150000000002
30
78.5
10
498.90577500000006
20
12.236150000000002
30
78.5
10
498.38345100000004
20
12.0198
30
78.5
10
497.99833900000004
20
11.634673000000003
30
78.5
0
SPLINE
5
138
100
AcDbEntity
8
0
100
AcDbSpline
70
1064
71
3
72
8
73
4
74
0
42
0.000000001
43
0.0000000001
44
0.0000000001
40
0
40
0
40
0
40
0
40
1
40
1
40
1
40
1
10
476.77834000000007
20
8.7305530000000005
30
78.5
10
477.16344900000001
20
8.3454259999999998
30
78.5
10
477.68577400000004
20
8.1290760000000013
30
78.5
10
478.23040500000002
20
8.1290760000000013
30
78.5
0
SPLINE
5
139
100
AcDbEntity
8
0
100
AcDbSpline
70
1064
71
3
72
8
73
4
74
0
42
0.000000001
43
0.0000000001
44
0.0000000001
40
0
40
0
40
0
40
0
40
1
40
1
40
1
40
1
10
418.40147300000007
20
11.634673000000003
30
78.5
10
418.01636100000002
20
12.0198
30
78.5
10
417.49403900000004
20
12.236150000000002
30
78.5
10
416.94940800000006
20
12.236150000000002
30
78.5
0
SPLINE
5
140
100
AcDbEntity
8
0
100
AcDbSpline
70
1064
71
3
72
8
73
4
74
0
42
0.000000001
43
0.0000000001
44
0.0000000001
40
0
40
0
40
0
40
0
40
1
40
1
40
1
40
1
10
416.94940800000006
20
8.1290760000000013
30
78.5
10
417.49403900000004
20
8.1290760000000013
30
78.5
10
418.01636100000002
20
8.3454259999999998
30
78.5
10
418.40147300000007
20
8.7305530000000005
30
78.5
0
SPLINE
5
141
100
AcDbEntity
8
0
100
AcDbSpline
70
1064
71
3
72
8
73
4
74
0
42
0.000000001
43
0.0000000001
44
0.0000000001
40
0
40
0
40
0
40
0
40
1
40
1
40
1
40
1
10
479.68247300000002
20
11.634673000000003
30
78.5
10
479.29735900000003
20
12.0198
30
78.5
10
478.775037
20
12.236150000000002
30
78.5
10
478.23040500000002
20
12.236150000000002
30
78.5
0
SPLINE
5
142
100
AcDbEntity
8
0
100
AcDbSpline
70
1064
71
3
72
8
73
4
74
0
42
0.000000001
43
0.0000000001
44
0.0000000001
40
0
40
0
40
0
40
0
40
1
40
1
40
1
40
1
10
445.24758700000001
20
53.191813999999994
30
78.5
10
445.632699
20
53.576926
30
78.5
10
445.84905100000009
20
54.099248000000003
30
78.5
10
445.84905100000009
20
54.643878999999998
30
78.5
0
SPLINE
5
143
100
AcDbEntity
8
0
100
AcDbSpline
70
1064
71
3
72
8
73
4
74
0
42
0.000000001
43
0.0000000001
44
0.0000000001
40
0
40
0
40
0
40
0
40
1
40
1
40
1
40
1
10
476.77834000000007
20
11.634673000000003
30
78.5
10
476.39322600000008
20
11.249572000000001
30
78.5
10
476.176874
20
10.727232000000003
30
78.5
10
476.176874
20
10.182613
30
78.5
0
SPLINE
5
144
100
AcDbEntity
8
0
100
AcDbSpline
70
1064
71
3
72
8
73
4
74
0
42
0.000000001
43
0.0000000001
44
0.0000000001
40
0
40
0
40
0
40
0
40
1
40
1
40
1
40
1
10
441.74198800000005
20
54.643878999999998
30
78.5
10
441.741985
20
54.099248000000003
30
78.5
10
441.95834000000002
20
53.576923000000001
30
78.5
10
442.34345200000001
20
53.191811000000001
30
78.5
0
SPLINE
5
145
100
AcDbEntity
8
0
100
AcDbSpline
70
1064
71
3
72
8
73
4
74
0
42
0.000000001
43
0.0000000001
44
0.0000000001
40
0
40
0
40
0
40
0
40
1
40
1
40
1
40
1
10
476.176874
20
10.182613
30
78.5
10
476.176874
20
9.6379680000000008
30
78.5
10
476.39322600000008
20
9.115654000000001
30
78.5
10
476.77834000000007
20
8.7305530000000005
30
78.5
0
SPLINE
5
146
100
AcDbEntity
8
0
100
AcDbSpline
70
1064
71
3
72
8
73
4
74
0
42
0.000000001
43
0.0000000001
44
0.0000000001
40
0
40
0
40
0
40
0
40
1
40
1
40
1
40
1
10
445.24758700000001
20
56.09594700000001
30
78.5
10
444.86247600000007
20
56.481058999999988
30
78.5
10
444.34015100000005
20
56.697414000000009
30
78.5
10
443.79552000000001
20
56.697414000000009
30
78.5
0
SPLINE
5
147
100
AcDbEntity
8
0
100
AcDbSpline
70
1064
71
3
72
8
73
4
74
0
42
0.000000001
43
0.0000000001
44
0.0000000001
40
0
40
0
40
0
40
0
40
1
40
1
40
1
40
1
10
434.52548000000002
20
63.913902999999991
30
78.5
10
441.53169400000002
20
70.920119999999997
30
78.5
10
445.46774200000004
20
80.422593000000006
30
78.5
10
445.46773899999999
20
90.33087900000001
30
78.5
0
SPLINE
5
148
100
AcDbEntity
8
0
100
AcDbSpline
70
1064
71
3
72
8
73
4
74
0
42
0.000000001
43
0.0000000001
44
0.0000000001
40
0
40
0
40
0
40
0
40
1
40
1
40
1
40
1
10
479.68247300000002
20
8.7305270000000004
30
78.5
10
480.06758500000001
20
9.115654000000001
30
78.5
10
480.28393700000004
20
9.6379680000000008
30
78.5
10
480.28393700000004
20
10.182613
30
78.5
0
SPLINE
5
149
100
AcDbEntity
8
0
100
AcDbSpline
70
1064
71
3
72
8
73
4
74
0
42
0.000000001
43
0.0000000001
44
0.0000000001
40
0
40
0
40
0
40
0
40
1
40
1
40
1
40
1
10
416.94940800000006
20
12.236150000000002
30
78.5
10
416.40477600000003
20
12.236150000000002
30
78.5
10
415.882451
20
12.0198
30
78.5
10
415.49734000000001
20
11.634673000000003
30
78.5
0
SPLINE
5
150
100
AcDbEntity
8
0
100
AcDbSpline
70
1064
71
3
72
8
73
4
74
0
42
0.000000001
43
0.0000000001
44
0.0000000001
40
0
40
0
40
0
40
0
40
1
40
1
40
1
40
1
10
500.90247199999999
20
8.7305530000000005
30
78.5
10
501.28758300000004
20
9.115654000000001
30
78.5
10
501.50393600000001
20
9.6379680000000008
30
78.5
10
501.50393600000001
20
10.182613
30
78.5
0
SPLINE
5
151
100
AcDbEntity
8
0
100
AcDbSpline
70
1064
71
3
72
8
73
4
74
0
42
0.000000001
43
0.0000000001
44
0.0000000001
40
0
40
0
40
0
40
0
40
1
40
1
40
1
40
1
10
349.10439100000008
20
340.52033699999993
30
78.5
10
349.64902300000006
20
340.52033699999993
30
78.5
10
350.17134700000008
20
340.73669199999995
30
78.5
10
350.55645900000002
20
341.12180299999989
30
78.5
0
SPLINE
5
152
100
AcDbEntity
8
0
100
AcDbSpline
70
1064
71
3
72
8
73
4
74
0
42
0.000000001
43
0.0000000001
44
0.0000000001
40
0
40
0
40
0
40
0
40
1
40
1
40
1
40
1
10
384.35052900000005
20
294.93652200000002
30
78.5
10
383.96439600000002
20
295.322655
30
78.5
10
383.44068499999997
20
295.539582
30
78.5
10
382.894612
20
295.539582
30
78.5
0
SPLINE
5
153
100
AcDbEntity
8
0
100
AcDbSpline
70
1064
71
3
72
8
73
4
74
0
42
0.000000001
43
0.0000000001
44
0.0000000001
40
0
40
0
40
0
40
0
40
1
40
1
40
1
40
1
10
347.05085700000006
20
363.79386999999997
30
78.5
10
347.05085700000006
20
363.24923799999993
30
78.5
10
347.26721199999997
20
362.72691399999997
30
78.5
10
347.65232300000002
20
362.34180199999997
30
78.5
0
SPLINE
5
154
100
AcDbEntity
8
0
100
AcDbSpline
70
1064
71
3
72
8
73
4
74
0
42
0.000000001
43
0.0000000001
44
0.0000000001
40
0
40
0
40
0
40
0
40
1
40
1
40
1
40
1
10
347.65232300000002
20
365.24593499999992
30
78.5
10
347.26721199999997
20
364.86082299999993
30
78.5
10
347.05085700000006
20
364.33849899999996
30
78.5
10
347.05085700000006
20
363.79386999999997
30
78.5
0
SPLINE
5
155
100
AcDbEntity
8
0
100
AcDbSpline
70
1064
71
3
72
8
73
4
74
0
42
0.000000001
43
0.0000000001
44
0.0000000001
40
0
40
0
40
0
40
0
40
1
40
1
40
1
40
1
10
481.66654400000004
20
293.47660000000008
30
78.5
10
481.66654400000004
20
292.93052499999999
30
78.5
10
481.88346999999999
20
292.40681600000005
30
78.5
10
482.26960300000002
20
292.02068300000002
30
78.5
0
SPLINE
5
156
100
AcDbEntity
8
0
100
AcDbSpline
70
1064
71
3
72
8
73
4
74
0
42
0.000000001
43
0.0000000001
44
0.0000000001
40
0
40
0
40
0
40
0
40
1
40
1
40
1
40
1
10
381.438694
20
292.02468800000008
30
78.5
10
381.82482700000003
20
291.638554
30
78.5
10
382.34853499999997
20
291.421627
30
78.5
10
382.894612
20
291.421627
30
78.5
0
SPLINE
5
157
100
AcDbEntity
8
0
100
AcDbSpline
70
1064
71
3
72
8
73
4
74
0
42
0.000000001
43
0.0000000001
44
0.0000000001
40
0
40
0
40
0
40
0
40
1
40
1
40
1
40
1
10
349.10439100000008
20
365.847399
30
78.5
10
348.55975900000004
20
365.84740199999993
30
78.5
10
348.03743500000002
20
365.63104699999997
30
78.5
10
347.65232300000002
20
365.24593499999992
30
78.5
0
SPLINE
5
158
100
AcDbEntity
8
0
100
AcDbSpline
70
1064
71
3
72
8
73
4
74
0
42
0.000000001
43
0.0000000001
44
0.0000000001
40
0
40
0
40
0
40
0
40
1
40
1
40
1
40
1
10
351.15792300000004
20
342.57387099999994
30
78.5
10
351.15792300000004
20
343.11850299999992
30
78.5
10
350.94157000000001
20
343.64082499999995
30
78.5
10
350.55645900000002
20
344.02593899999999
30
78.5
0
SPLINE
5
159
100
AcDbEntity
8
0
100
AcDbSpline
70
1064
71
3
72
8
73
4
74
0
42
0.000000001
43
0.0000000001
44
0.0000000001
40
0
40
0
40
0
40
0
40
1
40
1
40
1
40
1
10
382.894612
20
295.539582
30
78.5
10
382.34853499999997
20
295.539582
30
78.5
10
381.82482700000003
20
295.322655
30
78.5
10
381.438694
20
294.93652200000002
30
78.5
0
SPLINE
5
160
100
AcDbEntity
8
0
100
AcDbSpline
70
1064
71
3
72
8
73
4
74
0
42
0.000000001
43
0.0000000001
44
0.0000000001
40
0
40
0
40
0
40
0
40
1
40
1
40
1
40
1
10
350.55645900000002
20
341.12180299999989
30
78.5
10
350.94157000000001
20
341.50691499999994
30
78.5
10
351.15792500000003
20
342.02923999999996
30
78.5
10
351.15792300000004
20
342.57387099999994
30
78.5
0
SPLINE
5
161
100
AcDbEntity
8
0
100
AcDbSpline
70
1064
71
3
72
8
73
4
74
0
42
0.000000001
43
0.0000000001
44
0.0000000001
40
0
40
0
40
0
40
0
40
1
40
1
40
1
40
1
10
384.95358799999997
20
293.48060499999997
30
78.5
10
384.95358799999997
20
294.02668
30
78.5
10
384.73666200000002
20
294.55038900000005
30
78.5
10
384.35052900000005
20
294.93652200000002
30
78.5
0
SPLINE
5
162
100
AcDbEntity
8
0
100
AcDbSpline
70
1064
71
3
72
8
73
4
74
0
42
0.000000001
43
0.0000000001
44
0.0000000001
40
0
40
0
40
0
40
0
40
1
40
1
40
1
40
1
10
384.35052900000005
20
292.02468800000008
30
78.5
10
384.73666200000002
20
292.410821
30
78.5
10
384.95358799999997
20
292.93453
30
78.5
10
384.95358799999997
20
293.48060499999997
30
78.5
0
SPLINE
5
163
100
AcDbEntity
8
0
100
AcDbSpline
70
1064
71
3
72
8
73
4
74
0
42
0.000000001
43
0.0000000001
44
0.0000000001
40
0
40
0
40
0
40
0
40
1
40
1
40
1
40
1
10
347.65232300000002
20
341.12180299999989
30
78.5
10
348.03743500000002
20
340.73669199999995
30
78.5
10
348.55975900000004
20
340.52033699999993
30
78.5
10
349.10439100000008
20
340.52033699999993
30
78.5
0
SPLINE
5
164
100
AcDbEntity
8
0
100
AcDbSpline
70
1064
71
3
72
8
73
4
74
0
42
0.000000001
43
0.0000000001
44
0.0000000001
40
0
40
0
40
0
40
0
40
1
40
1
40
1
40
1
10
349.10439100000008
20
361.74033799999995
30
78.5
10
349.64902000000001
20
361.74033799999995
30
78.5
10
350.17134400000003
20
361.95669099999998
30
78.5
10
350.55645900000002
20
362.34180199999997
30
78.5
0
SPLINE
5
165
100
AcDbEntity
8
0
100
AcDbSpline
70
1064
71
3
72
8
73
4
74
0
42
0.000000001
43
0.0000000001
44
0.0000000001
40
0
40
0
40
0
40
0
40
1
40
1
40
1
40
1
10
485.18143800000007
20
292.02068300000002
30
78.5
10
485.56757100000004
20
292.40681600000005
30
78.5
10
485.78449799999999
20
292.93052499999999
30
78.5
10
485.78449799999999
20
293.47660000000008
30
78.5
0
SPLINE
5
166
100
AcDbEntity
8
0
100
AcDbSpline
70
1064
71
3
72
8
73
4
74
0
42
0.000000001
43
0.0000000001
44
0.0000000001
40
0
40
0
40
0
40
0
40
1
40
1
40
1
40
1
10
350.55645900000002
20
365.24593499999992
30
78.5
10
350.17134400000003
20
365.63104699999997
30
78.5
10
349.64902000000001
20
365.84740199999993
30
78.5
10
349.10439100000008
20
365.847399
30
78.5
0
SPLINE
5
167
100
AcDbEntity
8
0
100
AcDbSpline
70
1064
71
3
72
8
73
4
74
0
42
0.000000001
43
0.0000000001
44
0.0000000001
40
0
40
0
40
0
40
0
40
1
40
1
40
1
40
1
10
347.65232300000002
20
344.02593899999999
30
78.5
10
347.26721199999997
20
343.64082499999995
30
78.5
10
347.05085700000006
20
343.11850299999992
30
78.5
10
347.05085700000006
20
342.57387099999994
30
78.5
0
SPLINE
5
168
100
AcDbEntity
8
0
100
AcDbSpline
70
1064
71
3
72
8
73
4
74
0
42
0.000000001
43
0.0000000001
44
0.0000000001
40
0
40
0
40
0
40
0
40
1
40
1
40
1
40
1
10
381.438694
20
294.93652200000002
30
78.5
10
381.05256099999997
20
294.55038900000005
30
78.5
10
380.83563200000003
20
294.02668
30
78.5
10
380.83563200000003
20
293.48060499999997
30
78.5
0
SPLINE
5
169
100
AcDbEntity
8
0
100
AcDbSpline
70
1064
71
3
72
8
73
4
74
0
42
0.000000001
43
0.0000000001
44
0.0000000001
40
0
40
0
40
0
40
0
40
1
40
1
40
1
40
1
10
347.05085700000006
20
342.57387099999994
30
78.5
10
347.05085700000006
20
342.02923999999996
30
78.5
10
347.26720900000004
20
341.50691499999994
30
78.5
10
347.65232300000002
20
341.12180299999989
30
78.5
0
SPLINE
5
170
100
AcDbEntity
8
0
100
AcDbSpline
70
1064
71
3
72
8
73
4
74
0
42
0.000000001
43
0.0000000001
44
0.0000000001
40
0
40
0
40
0
40
0
40
1
40
1
40
1
40
1
10
349.10439100000008
20
344.62739999999997
30
78.5
10
348.55975900000004
20
344.62740299999996
30
78.5
10
348.03743500000002
20
344.41104799999994
30
78.5
10
347.65232300000002
20
344.02593899999999
30
78.5
0
SPLINE
5
171
100
AcDbEntity
8
0
100
AcDbSpline
70
1064
71
3
72
8
73
4
74
0
42
0.000000001
43
0.0000000001
44
0.0000000001
40
0
40
0
40
0
40
0
40
1
40
1
40
1
40
1
10
351.15792300000004
20
363.79386999999997
30
78.5
10
351.15792300000004
20
364.33849899999996
30
78.5
10
350.94157000000001
20
364.86082299999993
30
78.5
10
350.55645900000002
20
365.24593499999992
30
78.5
0
SPLINE
5
172
100
AcDbEntity
8
0
100
AcDbSpline
70
1064
71
3
72
8
73
4
74
0
42
0.000000001
43
0.0000000001
44
0.0000000001
40
0
40
0
40
0
40
0
40
1
40
1
40
1
40
1
10
483.72552100000001
20
295.53557499999999
30
78.5
10
482.58838099999997
20
295.53557499999999
30
78.5
10
481.66654400000004
20
294.613741
30
78.5
10
481.66654400000004
20
293.47660000000008
30
78.5
0
SPLINE
5
173
100
AcDbEntity
8
0
100
AcDbSpline
70
1064
71
3
72
8
73
4
74
0
42
0.000000001
43
0.0000000001
44
0.0000000001
40
0
40
0
40
0
40
0
40
1
40
1
40
1
40
1
10
483.72552100000001
20
291.41762200000005
30
78.5
10
484.27159399999999
20
291.41762200000005
30
78.5
10
484.79530500000004
20
291.63454999999999
30
78.5
10
485.18143800000007
20
292.02068300000002
30
78.5
0
SPLINE
5
174
100
AcDbEntity
8
0
100
AcDbSpline
70
1064
71
3
72
8
73
4
74
0
42
0.000000001
43
0.0000000001
44
0.0000000001
40
0
40
0
40
0
40
0
40
1
40
1
40
1
40
1
10
382.894612
20
291.421627
30
78.5
10
383.44068499999997
20
291.421627
30
78.5
10
383.96439600000002
20
291.638554
30
78.5
10
384.35052900000005
20
292.02468800000008
30
78.5
0
SPLINE
5
175
100
AcDbEntity
8
0
100
AcDbSpline
70
1064
71
3
72
8
73
4
74
0
42
0.000000001
43
0.0000000001
44
0.0000000001
40
0
40
0
40
0
40
0
40
1
40
1
40
1
40
1
10
347.65232300000002
20
362.34180199999997
30
78.5
10
348.03743500000002
20
361.95669099999998
30
78.5
10
348.55975900000004
20
361.74033799999995
30
78.5
10
349.10439100000008
20
361.74033799999995
30
78.5
0
SPLINE
5
176
100
AcDbEntity
8
0
100
AcDbSpline
70
1064
71
3
72
8
73
4
74
0
42
0.000000001
43
0.0000000001
44
0.0000000001
40
0
40
0
40
0
40
0
40
1
40
1
40
1
40
1
10
380.83563200000003
20
293.48060499999997
30
78.5
10
380.83563200000003
20
292.93453
30
78.5
10
381.05256099999997
20
292.410821
30
78.5
10
381.438694
20
292.02468800000008
30
78.5
0
SPLINE
5
177
100
AcDbEntity
8
0
100
AcDbSpline
70
1064
71
3
72
8
73
4
74
0
42
0.000000001
43
0.0000000001
44
0.0000000001
40
0
40
0
40
0
40
0
40
1
40
1
40
1
40
1
10
347.65345300000001
20
443.94493799999992
30
78.5
10
347.26833899999997
20
443.55982599999999
30
78.5
10
347.05198599999994
20
443.0375019999999
30
78.5
10
347.05198599999994
20
442.49287000000004
30
78.5
0
SPLINE
5
178
100
AcDbEntity
8
0
100
AcDbSpline
70
1064
71
3
72
8
73
4
74
0
42
0.000000001
43
0.0000000001
44
0.0000000001
40
0
40
0
40
0
40
0
40
1
40
1
40
1
40
1
10
479.14564100000001
20
479.32547599999992
30
78.5
10
479.14564100000001
20
480.46258700000004
30
78.5
10
478.22383000000002
20
481.38439800000003
30
78.5
10
477.08671700000002
20
481.38439999999997
30
78.5
0
SPLINE
5
179
100
AcDbEntity
8
0
100
AcDbSpline
70
1064
71
3
72
8
73
4
74
0
42
0.000000001
43
0.0000000001
44
0.0000000001
40
0
40
0
40
0
40
0
40
1
40
1
40
1
40
1
10
477.08671700000002
20
481.38439999999997
30
78.5
10
475.94960399999997
20
481.38439800000003
30
78.5
10
475.02779300000009
20
480.46258700000004
30
78.5
10
475.02779300000009
20
479.32547599999992
30
78.5
0
SPLINE
5
180
100
AcDbEntity
8
0
100
AcDbSpline
70
1064
71
3
72
8
73
4
74
0
42
0.000000001
43
0.0000000001
44
0.0000000001
40
0
40
0
40
0
40
0
40
1
40
1
40
1
40
1
10
347.05198599999994
20
463.71286900000001
30
78.5
10
347.05198599999994
20
463.16823999999997
30
78.5
10
347.26833899999997
20
462.645915
30
78.5
10
347.65345300000001
20
462.26080399999995
30
78.5
0
LINE
5
181
100
AcDbEntity
8
0
100
AcDbLine
10
341.86861099999999
20
486.93229499999995
30
78.5
11
483.187274
21
486.93395099999998
31
78.5
0
SPLINE
5
182
100
AcDbEntity
8
0
100
AcDbSpline
70
1064
71
3
72
8
73
4
74
0
42
0.000000001
43
0.0000000001
44
0.0000000001
40
0
40
0
40
0
40
0
40
1
40
1
40
1
40
1
10
482.26960300000002
20
292.02068300000002
30
78.5
10
482.65573600000005
20
291.63454999999999
30
78.5
10
483.17944700000004
20
291.41762200000005
30
78.5
10
483.72552100000001
20
291.41762200000005
30
78.5
0
SPLINE
5
183
100
AcDbEntity
8
0
100
AcDbSpline
70
1064
71
3
72
8
73
4
74
0
42
0.000000001
43
0.0000000001
44
0.0000000001
40
0
40
0
40
0
40
0
40
1
40
1
40
1
40
1
10
350.55758600000001
20
465.16493700000001
30
78.5
10
350.17247400000002
20
465.55004599999995
30
78.5
10
349.65015
20
465.76640099999992
30
78.5
10
349.10552100000007
20
465.76640099999992
30
78.5
0
SPLINE
5
184
100
AcDbEntity
8
0
100
AcDbSpline
70
1064
71
3
72
8
73
4
74
0
42
0.000000001
43
0.0000000001
44
0.0000000001
40
0
40
0
40
0
40
0
40
1
40
1
40
1
40
1
10
349.10552100000007
20
440.43933799999996
30
78.5
10
349.65015
20
440.43933599999997
30
78.5
10
350.17247400000002
20
440.65569099999999
30
78.5
10
350.55758800000001
20
441.04080199999993
30
78.5
0
SPLINE
5
185
100
AcDbEntity
8
0
100
AcDbSpline
70
1064
71
3
72
8
73
4
74
0
42
0.000000001
43
0.0000000001
44
0.0000000001
40
0
40
0
40
0
40
0
40
1
40
1
40
1
40
1
10
350.55645900000002
20
344.02593899999999
30
78.5
10
350.17134400000003
20
344.41104799999994
30
78.5
10
349.64902000000001
20
344.62740299999996
30
78.5
10
349.10439100000008
20
344.62739999999997
30
78.5
0
SPLINE
5
186
100
AcDbEntity
8
0
100
AcDbSpline
70
1064
71
3
72
8
73
4
74
0
42
0.000000001
43
0.0000000001
44
0.0000000001
40
0
40
0
40
0
40
0
40
1
40
1
40
1
40
1
10
454.52563599999996
20
479.32547599999992
30
78.5
10
454.52563599999996
20
480.46258700000004
30
78.5
10
453.60382200000004
20
481.38439800000003
30
78.5
10
452.46671200000003
20
481.38439999999997
30
78.5
0
SPLINE
5
187
100
AcDbEntity
8
0
100
AcDbSpline
70
1064
71
3
72
8
73
4
74
0
42
0.000000001
43
0.0000000001
44
0.0000000001
40
0
40
0
40
0
40
0
40
1
40
1
40
1
40
1
10
347.65345300000001
20
462.26080399999995
30
78.5
10
348.03856500000001
20
461.87569199999996
30
78.5
10
348.56088900000003
20
461.65933700000005
30
78.5
10
349.10552100000007
20
461.65933700000005
30
78.5
0
SPLINE
5
188
100
AcDbEntity
8
0
100
AcDbSpline
70
1064
71
3
72
8
73
4
74
0
42
0.000000001
43
0.0000000001
44
0.0000000001
40
0
40
0
40
0
40
0
40
1
40
1
40
1
40
1
10
507.90452000000005
20
461.93397999999996
30
78.5
10
507.982595
20
475.66302099999996
30
78.5
10
496.91629600000005
20
486.85587499999997
30
78.5
10
483.18727400000006
20
486.93395099999998
30
78.5
0
SPLINE
5
189
100
AcDbEntity
8
0
100
AcDbSpline
70
1064
71
3
72
8
73
4
74
0
42
0.000000001
43
0.0000000001
44
0.0000000001
40
0
40
0
40
0
40
0
40
1
40
1
40
1
40
1
10
485.78449799999999
20
293.47660000000008
30
78.5
10
485.78449799999999
20
294.613741
30
78.5
10
484.86266000000006
20
295.53557499999999
30
78.5
10
483.72552100000001
20
295.53557499999999
30
78.5
0
SPLINE
5
190
100
AcDbEntity
8
0
100
AcDbSpline
70
1064
71
3
72
8
73
4
74
0
42
0.000000001
43
0.0000000001
44
0.0000000001
40
0
40
0
40
0
40
0
40
1
40
1
40
1
40
1
10
350.55645900000002
20
362.34180199999997
30
78.5
10
350.94157000000001
20
362.72691399999997
30
78.5
10
351.15792300000004
20
363.24923799999993
30
78.5
10
351.15792300000004
20
363.79386999999997
30
78.5
0
SPLINE
5
191
100
AcDbEntity
8
0
100
AcDbSpline
70
1064
71
3
72
8
73
4
74
0
42
0.000000001
43
0.0000000001
44
0.0000000001
40
0
40
0
40
0
40
0
40
1
40
1
40
1
40
1
10
350.55758800000001
20
441.04080199999993
30
78.5
10
350.9427
20
441.42591699999997
30
78.5
10
351.15905300000003
20
441.94823899999994
30
78.5
10
351.15905300000003
20
442.49287000000004
30
78.5
0
SPLINE
5
192
100
AcDbEntity
8
0
100
AcDbSpline
70
1064
71
3
72
8
73
4
74
0
42
0.000000001
43
0.0000000001
44
0.0000000001
40
0
40
0
40
0
40
0
40
1
40
1
40
1
40
1
10
450.40778800000004
20
479.32547599999992
30
78.5
10
450.40778800000004
20
478.18836299999992
30
78.5
10
451.32959900000003
20
477.26655199999993
30
78.5
10
452.46671200000003
20
477.26655199999993
30
78.5
0
SPLINE
5
193
100
AcDbEntity
8
0
100
AcDbSpline
70
1064
71
3
72
8
73
4
74
0
42
0.000000001
43
0.0000000001
44
0.0000000001
40
0
40
0
40
0
40
0
40
1
40
1
40
1
40
1
10
475.02779300000009
20
479.32547599999992
30
78.5
10
475.02779300000009
20
478.18836299999992
30
78.5
10
475.94960399999997
20
477.26655199999993
30
78.5
10
477.08671700000002
20
477.26655199999993
30
78.5
0
SPLINE
5
194
100
AcDbEntity
8
0
100
AcDbSpline
70
1064
71
3
72
8
73
4
74
0
42
0.000000001
43
0.0000000001
44
0.0000000001
40
0
40
0
40
0
40
0
40
1
40
1
40
1
40
1
10
477.08671700000002
20
477.26655199999993
30
78.5
10
478.22383000000002
20
477.26655199999993
30
78.5
10
479.14564100000001
20
478.18836299999992
30
78.5
10
479.14564100000001
20
479.32547599999992
30
78.5
0
SPLINE
5
195
100
AcDbEntity
8
0
100
AcDbSpline
70
1064
71
3
72
8
73
4
74
0
42
0.000000001
43
0.0000000001
44
0.0000000001
40
0
40
0
40
0
40
0
40
1
40
1
40
1
40
1
10
452.46671200000003
20
477.26655199999993
30
78.5
10
453.60382200000004
20
477.26655199999993
30
78.5
10
454.52563599999996
20
478.18836299999992
30
78.5
10
454.52563599999996
20
479.32547599999992
30
78.5
0
SPLINE
5
196
100
AcDbEntity
8
0
100
AcDbSpline
70
1064
71
3
72
8
73
4
74
0
42
0.000000001
43
0.0000000001
44
0.0000000001
40
0
40
0
40
0
40
0
40
1
40
1
40
1
40
1
10
498.98960300000005
20
124.85051400000002
30
78.5
10
498.60347000000002
20
124.46438100000002
30
78.5
10
498.38654400000001
20
123.94067000000001
30
78.5
10
498.38654400000001
20
123.39459600000001
30
78.5
0
SPLINE
5
197
100
AcDbEntity
8
0
100
AcDbSpline
70
1064
71
3
72
8
73
4
74
0
42
0.000000001
43
0.0000000001
44
0.0000000001
40
0
40
0
40
0
40
0
40
1
40
1
40
1
40
1
10
347.65731899999997
20
202.34078100000005
30
78.5
10
348.04243000000008
20
201.95566900000003
30
78.5
10
348.56475499999999
20
201.73931400000001
30
78.5
10
349.10938600000003
20
201.739317
30
78.5
0
SPLINE
5
198
100
AcDbEntity
8
0
100
AcDbSpline
70
1064
71
3
72
8
73
4
74
0
42
0.000000001
43
0.0000000001
44
0.0000000001
40
0
40
0
40
0
40
0
40
1
40
1
40
1
40
1
10
350.56145400000003
20
205.24491900000001
30
78.5
10
350.17634200000003
20
205.63003300000005
30
78.5
10
349.65401800000001
20
205.84638600000005
30
78.5
10
349.10938600000003
20
205.84638600000005
30
78.5
0
SPLINE
5
199
100
AcDbEntity
8
0
100
AcDbSpline
70
1064
71
3
72
8
73
4
74
0
42
0.000000001
43
0.0000000001
44
0.0000000001
40
0
40
0
40
0
40
0
40
1
40
1
40
1
40
1
10
500.44552100000004
20
125.45357600000003
30
78.5
10
499.89944700000001
20
125.45357600000003
30
78.5
10
499.37573600000002
20
125.23664900000001
30
78.5
10
498.98960300000005
20
124.85051400000002
30
78.5
0
SPLINE
5
200
100
AcDbEntity
8
0
100
AcDbSpline
70
1064
71
3
72
8
73
4
74
0
42
0.000000001
43
0.0000000001
44
0.0000000001
40
0
40
0
40
0
40
0
40
1
40
1
40
1
40
1
10
370.84346000000005
20
124.69179500000003
30
78.5
10
371.22856899999999
20
124.30668400000002
30
78.5
10
371.75089300000002
20
124.09033100000002
30
78.5
10
372.29552500000005
20
124.09032900000001
30
78.5
0
SPLINE
5
201
100
AcDbEntity
8
0
100
AcDbSpline
70
1064
71
3
72
8
73
4
74
0
42
0.000000001
43
0.0000000001
44
0.0000000001
40
0
40
0
40
0
40
0
40
1
40
1
40
1
40
1
10
442.34345200000001
20
127.59593100000004
30
78.5
10
441.95834000000002
20
127.21081900000001
30
78.5
10
441.741985
20
126.688495
30
78.5
10
441.74198800000005
20
126.143863
30
78.5
0
SPLINE
5
202
100
AcDbEntity
8
0
100
AcDbSpline
70
1064
71
3
72
8
73
4
74
0
42
0.000000001
43
0.0000000001
44
0.0000000001
40
0
40
0
40
0
40
0
40
1
40
1
40
1
40
1
10
443.79552000000001
20
128.19739800000002
30
78.5
10
443.25088800000003
20
128.19739800000002
30
78.5
10
442.72856600000006
20
127.98104500000001
30
78.5
10
442.34345200000001
20
127.59593100000004
30
78.5
0
SPLINE
5
203
100
AcDbEntity
8
0
100
AcDbSpline
70
1064
71
3
72
8
73
4
74
0
42
0.000000001
43
0.0000000001
44
0.0000000001
40
0
40
0
40
0
40
0
40
1
40
1
40
1
40
1
10
498.98960300000005
20
121.93867600000003
30
78.5
10
499.37573600000002
20
121.55254300000001
30
78.5
10
499.89944700000001
20
121.33561700000001
30
78.5
10
500.44552100000004
20
121.33561700000001
30
78.5
0
SPLINE
5
204
100
AcDbEntity
8
0
100
AcDbSpline
70
1064
71
3
72
8
73
4
74
0
42
0.000000001
43
0.0000000001
44
0.0000000001
40
0
40
0
40
0
40
0
40
1
40
1
40
1
40
1
10
347.65731600000004
20
205.24491900000001
30
78.5
10
347.27220399999999
20
204.85980500000005
30
78.5
10
347.05585200000002
20
204.33748000000006
30
78.5
10
347.05585200000002
20
203.79284800000005
30
78.5
0
SPLINE
5
205
100
AcDbEntity
8
0
100
AcDbSpline
70
1064
71
3
72
8
73
4
74
0
42
0.000000001
43
0.0000000001
44
0.0000000001
40
0
40
0
40
0
40
0
40
1
40
1
40
1
40
1
10
349.10938600000003
20
201.739317
30
78.5
10
349.65401800000001
20
201.73931400000001
30
78.5
10
350.17634200000003
20
201.95566900000003
30
78.5
10
350.56145400000003
20
202.34078100000005
30
78.5
0
SPLINE
5
206
100
AcDbEntity
8
0
100
AcDbSpline
70
1064
71
3
72
8
73
4
74
0
42
0.000000001
43
0.0000000001
44
0.0000000001
40
0
40
0
40
0
40
0
40
1
40
1
40
1
40
1
10
349.10938600000003
20
205.84638600000005
30
78.5
10
348.56475499999999
20
205.84638600000005
30
78.5
10
348.04243000000008
20
205.63003300000005
30
78.5
10
347.65731600000004
20
205.24491900000001
30
78.5
0
SPLINE
5
207
100
AcDbEntity
8
0
100
AcDbSpline
70
1064
71
3
72
8
73
4
74
0
42
0.000000001
43
0.0000000001
44
0.0000000001
40
0
40
0
40
0
40
0
40
1
40
1
40
1
40
1
10
408.10850899999997
20
127.69010100000003
30
78.5
10
387.47557800000004
20
127.69010100000003
30
78.5
10
370.749281
20
110.96381000000002
30
78.5
10
370.74927600000001
20
90.33087900000001
30
78.5
0
SPLINE
5
208
100
AcDbEntity
8
0
100
AcDbSpline
70
1064
71
3
72
8
73
4
74
0
42
0.000000001
43
0.0000000001
44
0.0000000001
40
0
40
0
40
0
40
0
40
1
40
1
40
1
40
1
10
350.56145400000003
20
202.34078100000005
30
78.5
10
350.94656600000002
20
202.72589200000002
30
78.5
10
351.16292100000004
20
203.24821700000001
30
78.5
10
351.16292100000004
20
203.79284800000005
30
78.5
0
SPLINE
5
209
100
AcDbEntity
8
0
100
AcDbSpline
70
1064
71
3
72
8
73
4
74
0
42
0.000000001
43
0.0000000001
44
0.0000000001
40
0
40
0
40
0
40
0
40
1
40
1
40
1
40
1
10
373.74759299999999
20
124.69179500000003
30
78.5
10
374.13270399999999
20
125.07690700000003
30
78.5
10
374.34905900000001
20
125.59923200000001
30
78.5
10
374.34905900000001
20
126.143863
30
78.5
0
SPLINE
5
210
100
AcDbEntity
8
0
100
AcDbSpline
70
1064
71
3
72
8
73
4
74
0
42
0.000000001
43
0.0000000001
44
0.0000000001
40
0
40
0
40
0
40
0
40
1
40
1
40
1
40
1
10
349.10938600000003
20
180.51933600000001
30
78.5
10
350.24351200000007
20
180.51933600000001
30
78.5
10
351.16290500000002
20
181.43871899999999
30
78.5
10
351.16292100000004
20
182.57284200000001
30
78.5
0
SPLINE
5
211
100
AcDbEntity
8
0
100
AcDbSpline
70
1064
71
3
72
8
73
4
74
0
42
0.000000001
43
0.0000000001
44
0.0000000001
40
0
40
0
40
0
40
0
40
1
40
1
40
1
40
1
10
443.79552000000001
20
124.09032900000001
30
78.5
10
444.34015100000005
20
124.09033100000002
30
78.5
10
444.86247600000007
20
124.30668400000002
30
78.5
10
445.24758700000001
20
124.69179500000003
30
78.5
0
SPLINE
5
212
100
AcDbEntity
8
0
100
AcDbSpline
70
1064
71
3
72
8
73
4
74
0
42
0.000000001
43
0.0000000001
44
0.0000000001
40
0
40
0
40
0
40
0
40
1
40
1
40
1
40
1
10
347.05585200000002
20
182.57284200000001
30
78.5
10
347.05586799999998
20
181.43871899999999
30
78.5
10
347.97525999999999
20
180.51933600000001
30
78.5
10
349.10938600000003
20
180.51933600000001
30
78.5
0
SPLINE
5
213
100
AcDbEntity
8
0
100
AcDbSpline
70
1064
71
3
72
8
73
4
74
0
42
0.000000001
43
0.0000000001
44
0.0000000001
40
0
40
0
40
0
40
0
40
1
40
1
40
1
40
1
10
349.10938600000003
20
184.62637600000005
30
78.5
10
348.56475499999999
20
184.62637600000005
30
78.5
10
348.04243000000008
20
184.41002400000002
30
78.5
10
347.65731899999997
20
184.02491000000003
30
78.5
0
SPLINE
5
214
100
AcDbEntity
8
0
100
AcDbSpline
70
1064
71
3
72
8
73
4
74
0
42
0.000000001
43
0.0000000001
44
0.0000000001
40
0
40
0
40
0
40
0
40
1
40
1
40
1
40
1
10
442.34345200000001
20
124.69179500000003
30
78.5
10
442.72856600000006
20
124.30668400000002
30
78.5
10
443.25088800000003
20
124.09032900000001
30
78.5
10
443.79552000000001
20
124.09032900000001
30
78.5
0
SPLINE
5
215
100
AcDbEntity
8
0
100
AcDbSpline
70
1064
71
3
72
8
73
4
74
0
42
0.000000001
43
0.0000000001
44
0.0000000001
40
0
40
0
40
0
40
0
40
1
40
1
40
1
40
1
10
347.05585200000002
20
203.79284800000005
30
78.5
10
347.05585200000002
20
203.24821700000001
30
78.5
10
347.27220700000004
20
202.72589200000002
30
78.5
10
347.65731899999997
20
202.34078100000005
30
78.5
0
SPLINE
5
216
100
AcDbEntity
8
0
100
AcDbSpline
70
1064
71
3
72
8
73
4
74
0
42
0.000000001
43
0.0000000001
44
0.0000000001
40
0
40
0
40
0
40
0
40
1
40
1
40
1
40
1
10
372.29552500000005
20
124.09032900000001
30
78.5
10
372.84015600000004
20
124.09032900000001
30
78.5
10
373.36248100000006
20
124.30668400000002
30
78.5
10
373.74759299999999
20
124.69179500000003
30
78.5
0
SPLINE
5
217
100
AcDbEntity
8
0
100
AcDbSpline
70
1064
71
3
72
8
73
4
74
0
42
0.000000001
43
0.0000000001
44
0.0000000001
40
0
40
0
40
0
40
0
40
1
40
1
40
1
40
1
10
347.65731899999997
20
184.02491000000003
30
78.5
10
347.27220700000004
20
183.63979800000004
30
78.5
10
347.05585200000002
20
183.11747300000005
30
78.5
10
347.05585200000002
20
182.57284200000001
30
78.5
0
SPLINE
5
218
100
AcDbEntity
8
0
100
AcDbSpline
70
1064
71
3
72
8
73
4
74
0
42
0.000000001
43
0.0000000001
44
0.0000000001
40
0
40
0
40
0
40
0
40
1
40
1
40
1
40
1
10
351.16292100000004
20
203.79284800000005
30
78.5
10
351.16292100000004
20
204.33748000000006
30
78.5
10
350.94656800000001
20
204.85980500000005
30
78.5
10
350.56145400000003
20
205.24491900000001
30
78.5
0
SPLINE
5
219
100
AcDbEntity
8
0
100
AcDbSpline
70
1064
71
3
72
8
73
4
74
0
42
0.000000001
43
0.0000000001
44
0.0000000001
40
0
40
0
40
0
40
0
40
1
40
1
40
1
40
1
10
373.74759299999999
20
127.59593100000004
30
78.5
10
373.36248100000006
20
127.98104500000001
30
78.5
10
372.84015600000004
20
128.19739800000002
30
78.5
10
372.29552500000005
20
128.19739800000002
30
78.5
0
SPLINE
5
220
100
AcDbEntity
8
0
100
AcDbSpline
70
1064
71
3
72
8
73
4
74
0
42
0.000000001
43
0.0000000001
44
0.0000000001
40
0
40
0
40
0
40
0
40
1
40
1
40
1
40
1
10
370.24199299999998
20
126.143863
30
78.5
10
370.24199299999998
20
125.59923200000001
30
78.5
10
370.458348
20
125.07691000000003
30
78.5
10
370.84346000000005
20
124.69179500000003
30
78.5
0
SPLINE
5
221
100
AcDbEntity
8
0
100
AcDbSpline
70
1064
71
3
72
8
73
4
74
0
42
0.000000001
43
0.0000000001
44
0.0000000001
40
0
40
0
40
0
40
0
40
1
40
1
40
1
40
1
10
351.16292100000004
20
182.57284200000001
30
78.5
10
351.16292100000004
20
183.11747300000005
30
78.5
10
350.94656600000002
20
183.63979800000004
30
78.5
10
350.56145400000003
20
184.02491000000003
30
78.5
0
SPLINE
5
222
100
AcDbEntity
8
0
100
AcDbSpline
70
1064
71
3
72
8
73
4
74
0
42
0.000000001
43
0.0000000001
44
0.0000000001
40
0
40
0
40
0
40
0
40
1
40
1
40
1
40
1
10
498.38654400000001
20
123.39459600000001
30
78.5
10
498.38654400000001
20
122.84852000000001
30
78.5
10
498.60347000000002
20
122.32481200000002
30
78.5
10
498.98960300000005
20
121.93867600000003
30
78.5
0
SPLINE
5
223
100
AcDbEntity
8
0
100
AcDbSpline
70
1064
71
3
72
8
73
4
74
0
42
0.000000001
43
0.0000000001
44
0.0000000001
40
0
40
0
40
0
40
0
40
1
40
1
40
1
40
1
10
372.29552500000005
20
128.19739800000002
30
78.5
10
371.75089300000002
20
128.19739800000002
30
78.5
10
371.22856899999999
20
127.981043
30
78.5
10
370.84346000000005
20
127.59593100000004
30
78.5
0
SPLINE
5
224
100
AcDbEntity
8
0
100
AcDbSpline
70
1064
71
3
72
8
73
4
74
0
42
0.000000001
43
0.0000000001
44
0.0000000001
40
0
40
0
40
0
40
0
40
1
40
1
40
1
40
1
10
370.84346000000005
20
127.59593100000004
30
78.5
10
370.458348
20
127.21081900000001
30
78.5
10
370.24199299999998
20
126.688495
30
78.5
10
370.24199299999998
20
126.143863
30
78.5
0
SPLINE
5
225
100
AcDbEntity
8
0
100
AcDbSpline
70
1064
71
3
72
8
73
4
74
0
42
0.000000001
43
0.0000000001
44
0.0000000001
40
0
40
0
40
0
40
0
40
1
40
1
40
1
40
1
10
441.74198800000005
20
126.143863
30
78.5
10
441.741985
20
125.59923200000001
30
78.5
10
441.95834000000002
20
125.07690700000003
30
78.5
10
442.34345200000001
20
124.69179500000003
30
78.5
0
SPLINE
5
226
100
AcDbEntity
8
0
100
AcDbSpline
70
1064
71
3
72
8
73
4
74
0
42
0.000000001
43
0.0000000001
44
0.0000000001
40
0
40
0
40
0
40
0
40
1
40
1
40
1
40
1
10
500.44552100000004
20
121.33561700000001
30
78.5
10
500.99159700000001
20
121.33561700000001
30
78.5
10
501.51530500000001
20
121.55254300000001
30
78.5
10
501.90143799999998
20
121.93867600000003
30
78.5
0
SPLINE
5
227
100
AcDbEntity
8
0
100
AcDbSpline
70
1064
71
3
72
8
73
4
74
0
42
0.000000001
43
0.0000000001
44
0.0000000001
40
0
40
0
40
0
40
0
40
1
40
1
40
1
40
1
10
350.56145400000003
20
184.02491000000003
30
78.5
10
350.17634200000003
20
184.41002400000002
30
78.5
10
349.65401800000001
20
184.62637600000005
30
78.5
10
349.10938600000003
20
184.62637600000005
30
78.5
0
SPLINE
5
228
100
AcDbEntity
8
0
100
AcDbSpline
70
1064
71
3
72
8
73
4
74
0
42
0.000000001
43
0.0000000001
44
0.0000000001
40
0
40
0
40
0
40
0
40
1
40
1
40
1
40
1
10
501.90143799999998
20
121.93867600000003
30
78.5
10
502.28757100000001
20
122.32481200000002
30
78.5
10
502.50450000000001
20
122.84852000000001
30
78.5
10
502.50450000000001
20
123.39459600000001
30
78.5
0
SPLINE
5
229
100
AcDbEntity
8
0
100
AcDbSpline
70
1064
71
3
72
8
73
4
74
0
42
0.000000001
43
0.0000000001
44
0.0000000001
40
0
40
0
40
0
40
0
40
1
40
1
40
1
40
1
10
374.34905900000001
20
126.143863
30
78.5
10
374.34905900000001
20
126.688495
30
78.5
10
374.13270399999999
20
127.21081900000001
30
78.5
10
373.74759299999999
20
127.59593100000004
30
78.5
0
SPLINE
5
230
100
AcDbEntity
8
0
100
AcDbSpline
70
1064
71
3
72
8
73
4
74
0
42
0.000000001
43
0.0000000001
44
0.0000000001
40
0
40
0
40
0
40
0
40
1
40
1
40
1
40
1
10
349.10442
20
45.160336999999998
30
78.5
10
349.64904899999999
20
45.160336999999998
30
78.5
10
350.17137600000007
20
45.376691999999998
30
78.5
10
350.556488
20
45.761803000000008
30
78.5
0
SPLINE
5
231
100
AcDbEntity
8
0
100
AcDbSpline
70
1064
71
3
72
8
73
4
74
0
42
0.000000001
43
0.0000000001
44
0.0000000001
40
0
40
0
40
0
40
0
40
1
40
1
40
1
40
1
10
381.69153499999999
20
63.913899999999998
30
78.5
10
388.69775199999998
20
56.907681000000011
30
78.5
10
398.20022
20
52.97162800000001
30
78.5
10
408.10850899999997
20
52.97162800000001
30
78.5
0
SPLINE
5
232
100
AcDbEntity
8
0
100
AcDbSpline
70
1064
71
3
72
8
73
4
74
0
42
0.000000001
43
0.0000000001
44
0.0000000001
40
0
40
0
40
0
40
0
40
1
40
1
40
1
40
1
10
445.84905100000009
20
126.143863
30
78.5
10
445.84905100000009
20
126.688495
30
78.5
10
445.632699
20
127.21081900000001
30
78.5
10
445.24758700000001
20
127.59593100000004
30
78.5
0
SPLINE
5
233
100
AcDbEntity
8
0
100
AcDbSpline
70
1064
71
3
72
8
73
4
74
0
42
0.000000001
43
0.0000000001
44
0.0000000001
40
0
40
0
40
0
40
0
40
1
40
1
40
1
40
1
10
374.34905900000001
20
54.643878999999998
30
78.5
10
374.34905900000001
20
55.188511000000005
30
78.5
10
374.13270399999999
20
55.710835000000003
30
78.5
10
373.74759299999999
20
56.09594700000001
30
78.5
0
SPLINE
5
234
100
AcDbEntity
8
0
100
AcDbSpline
70
1064
71
3
72
8
73
4
74
0
42
0.000000001
43
0.0000000001
44
0.0000000001
40
0
40
0
40
0
40
0
40
1
40
1
40
1
40
1
10
349.10442
20
49.267406000000008
30
78.5
10
348.55978800000003
20
49.267406000000008
30
78.5
10
348.037464
20
49.051051000000001
30
78.5
10
347.65235200000001
20
48.665938999999995
30
78.5
0
SPLINE
5
235
100
AcDbEntity
8
0
100
AcDbSpline
70
1064
71
3
72
8
73
4
74
0
42
0.000000001
43
0.0000000001
44
0.0000000001
40
0
40
0
40
0
40
0
40
1
40
1
40
1
40
1
10
347.65235200000001
20
45.761803000000008
30
78.5
10
348.037464
20
45.376691999999998
30
78.5
10
348.55978800000003
20
45.160339
30
78.5
10
349.10442
20
45.160336999999998
30
78.5
0
SPLINE
5
236
100
AcDbEntity
8
0
100
AcDbSpline
70
1064
71
3
72
8
73
4
74
0
42
0.000000001
43
0.0000000001
44
0.0000000001
40
0
40
0
40
0
40
0
40
1
40
1
40
1
40
1
10
351.15795200000002
20
47.213870999999997
30
78.5
10
351.15795200000002
20
47.758503000000005
30
78.5
10
350.941599
20
48.280827000000016
30
78.5
10
350.556488
20
48.665938999999995
30
78.5
0
SPLINE
5
237
100
AcDbEntity
8
0
100
AcDbSpline
70
1064
71
3
72
8
73
4
74
0
42
0.000000001
43
0.0000000001
44
0.0000000001
40
0
40
0
40
0
40
0
40
1
40
1
40
1
40
1
10
347.05088800000004
20
47.213870999999997
30
78.5
10
347.05088800000004
20
46.669240000000002
30
78.5
10
347.26724100000007
20
46.146918000000014
30
78.5
10
347.65235200000001
20
45.761803000000008
30
78.5
0
SPLINE
5
238
100
AcDbEntity
8
0
100
AcDbSpline
70
1064
71
3
72
8
73
4
74
0
42
0.000000001
43
0.0000000001
44
0.0000000001
40
0
40
0
40
0
40
0
40
1
40
1
40
1
40
1
10
349.10442
20
23.940364000000006
30
78.5
10
349.64904899999999
20
23.940364000000006
30
78.5
10
350.17137600000007
20
24.156714000000004
30
78.5
10
350.556488
20
24.541815000000003
30
78.5
0
SPLINE
5
239
100
AcDbEntity
8
0
100
AcDbSpline
70
1064
71
3
72
8
73
4
74
0
42
0.000000001
43
0.0000000001
44
0.0000000001
40
0
40
0
40
0
40
0
40
1
40
1
40
1
40
1
10
395.72940600000004
20
12.236150000000002
30
78.5
10
395.18477500000006
20
12.236150000000002
30
78.5
10
394.66245300000003
20
12.0198
30
78.5
10
394.27734100000004
20
11.634673000000003
30
78.5
0
SPLINE
5
240
100
AcDbEntity
8
0
100
AcDbSpline
70
1064
71
3
72
8
73
4
74
0
42
0.000000001
43
0.0000000001
44
0.0000000001
40
0
40
0
40
0
40
0
40
1
40
1
40
1
40
1
10
350.556488
20
24.541815000000003
30
78.5
10
350.941599
20
24.926943000000005
30
78.5
10
351.15795200000002
20
25.449257000000006
30
78.5
10
351.15795200000002
20
25.993901999999999
30
78.5
0
SPLINE
5
241
100
AcDbEntity
8
0
100
AcDbSpline
70
1064
71
3
72
8
73
4
74
0
42
0.000000001
43
0.0000000001
44
0.0000000001
40
0
40
0
40
0
40
0
40
1
40
1
40
1
40
1
10
397.18147399999998
20
8.7305530000000005
30
78.5
10
397.56658600000003
20
9.115654000000001
30
78.5
10
397.782938
20
9.6379680000000008
30
78.5
10
397.782938
20
10.182613
30
78.5
0
SPLINE
5
242
100
AcDbEntity
8
0
100
AcDbSpline
70
1064
71
3
72
8
73
4
74
0
42
0.000000001
43
0.0000000001
44
0.0000000001
40
0
40
0
40
0
40
0
40
1
40
1
40
1
40
1
10
445.46773899999999
20
90.33087900000001
30
78.5
10
445.46773400000001
20
110.96381000000002
30
78.5
10
428.74143700000002
20
127.69010100000003
30
78.5
10
408.10850899999997
20
127.69010100000003
30
78.5
0
SPLINE
5
243
100
AcDbEntity
8
0
100
AcDbSpline
70
1064
71
3
72
8
73
4
74
0
42
0.000000001
43
0.0000000001
44
0.0000000001
40
0
40
0
40
0
40
0
40
1
40
1
40
1
40
1
10
370.74927600000001
20
90.33087900000001
30
78.5
10
370.74927100000002
20
80.422591000000011
30
78.5
10
374.68532100000004
20
70.920119999999997
30
78.5
10
381.69153499999999
20
63.913899999999998
30
78.5
0
SPLINE
5
244
100
AcDbEntity
8
0
100
AcDbSpline
70
1064
71
3
72
8
73
4
74
0
42
0.000000001
43
0.0000000001
44
0.0000000001
40
0
40
0
40
0
40
0
40
1
40
1
40
1
40
1
10
393.67587700000001
20
10.182613
30
78.5
10
393.67587700000001
20
9.6379680000000008
30
78.5
10
393.89222899999999
20
9.115654000000001
30
78.5
10
394.27734100000004
20
8.7305530000000005
30
78.5
0
SPLINE
5
245
100
AcDbEntity
8
0
100
AcDbSpline
70
1064
71
3
72
8
73
4
74
0
42
0.000000001
43
0.0000000001
44
0.0000000001
40
0
40
0
40
0
40
0
40
1
40
1
40
1
40
1
10
370.84346000000005
20
53.191813999999994
30
78.5
10
371.22856899999999
20
52.806700000000006
30
78.5
10
371.75089300000002
20
52.590346999999994
30
78.5
10
372.29552500000005
20
52.590344999999999
30
78.5
0
SPLINE
5
246
100
AcDbEntity
8
0
100
AcDbSpline
70
1064
71
3
72
8
73
4
74
0
42
0.000000001
43
0.0000000001
44
0.0000000001
40
0
40
0
40
0
40
0
40
1
40
1
40
1
40
1
10
394.27734100000004
20
11.634673000000003
30
78.5
10
393.89222899999999
20
11.249572000000001
30
78.5
10
393.67587700000001
20
10.727232000000003
30
78.5
10
393.67587700000001
20
10.182613
30
78.5
0
SPLINE
5
247
100
AcDbEntity
8
0
100
AcDbSpline
70
1064
71
3
72
8
73
4
74
0
42
0.000000001
43
0.0000000001
44
0.0000000001
40
0
40
0
40
0
40
0
40
1
40
1
40
1
40
1
10
350.556488
20
27.445961000000004
30
78.5
10
350.17137600000007
20
27.831062000000003
30
78.5
10
349.64904899999999
20
28.047439000000004
30
78.5
10
349.10442
20
28.047439000000004
30
78.5
0
SPLINE
5
248
100
AcDbEntity
8
0
100
AcDbSpline
70
1064
71
3
72
8
73
4
74
0
42
0.000000001
43
0.0000000001
44
0.0000000001
40
0
40
0
40
0
40
0
40
1
40
1
40
1
40
1
10
501.90143799999998
20
124.85051400000002
30
78.5
10
501.51530500000001
20
125.23664900000001
30
78.5
10
500.99159700000001
20
125.45357600000003
30
78.5
10
500.44552100000004
20
125.45357600000003
30
78.5
0
SPLINE
5
249
100
AcDbEntity
8
0
100
AcDbSpline
70
1064
71
3
72
8
73
4
74
0
42
0.000000001
43
0.0000000001
44
0.0000000001
40
0
40
0
40
0
40
0
40
1
40
1
40
1
40
1
10
347.05088800000004
20
25.993901999999999
30
78.5
10
347.05088800000004
20
25.449257000000006
30
78.5
10
347.26724100000007
20
24.926943000000005
30
78.5
10
347.65235200000001
20
24.541815000000003
30
78.5
0
SPLINE
5
250
100
AcDbEntity
8
0
100
AcDbSpline
70
1064
71
3
72
8
73
4
74
0
42
0.000000001
43
0.0000000001
44
0.0000000001
40
0
40
0
40
0
40
0
40
1
40
1
40
1
40
1
10
347.65235200000001
20
27.445961000000004
30
78.5
10
347.26724100000007
20
27.060860000000005
30
78.5
10
347.05088800000004
20
26.538520000000002
30
78.5
10
347.05088800000004
20
25.993901999999999
30
78.5
0
SPLINE
5
251
100
AcDbEntity
8
0
100
AcDbSpline
70
1064
71
3
72
8
73
4
74
0
42
0.000000001
43
0.0000000001
44
0.0000000001
40
0
40
0
40
0
40
0
40
1
40
1
40
1
40
1
10
351.15795200000002
20
25.993901999999999
30
78.5
10
351.15795200000002
20
26.538520000000002
30
78.5
10
350.941599
20
27.060860000000005
30
78.5
10
350.556488
20
27.445961000000004
30
78.5
0
SPLINE
5
252
100
AcDbEntity
8
0
100
AcDbSpline
70
1064
71
3
72
8
73
4
74
0
42
0.000000001
43
0.0000000001
44
0.0000000001
40
0
40
0
40
0
40
0
40
1
40
1
40
1
40
1
10
397.782938
20
10.182613
30
78.5
10
397.782938
20
10.727232000000003
30
78.5
10
397.56658600000003
20
11.249572000000001
30
78.5
10
397.18147399999998
20
11.634673000000003
30
78.5
0
SPLINE
5
253
100
AcDbEntity
8
0
100
AcDbSpline
70
1064
71
3
72
8
73
4
74
0
42
0.000000001
43
0.0000000001
44
0.0000000001
40
0
40
0
40
0
40
0
40
1
40
1
40
1
40
1
10
347.65235200000001
20
24.541815000000003
30
78.5
10
348.037464
20
24.156714000000004
30
78.5
10
348.55978800000003
20
23.940364000000006
30
78.5
10
349.10442
20
23.940364000000006
30
78.5
0
SPLINE
5
254
100
AcDbEntity
8
0
100
AcDbSpline
70
1064
71
3
72
8
73
4
74
0
42
0.000000001
43
0.0000000001
44
0.0000000001
40
0
40
0
40
0
40
0
40
1
40
1
40
1
40
1
10
350.556488
20
48.665938999999995
30
78.5
10
350.17137600000007
20
49.05105300000001
30
78.5
10
349.64904899999999
20
49.267406000000008
30
78.5
10
349.10442
20
49.267406000000008
30
78.5
0
SPLINE
5
255
100
AcDbEntity
8
0
100
AcDbSpline
70
1064
71
3
72
8
73
4
74
0
42
0.000000001
43
0.0000000001
44
0.0000000001
40
0
40
0
40
0
40
0
40
1
40
1
40
1
40
1
10
347.65235200000001
20
48.665938999999995
30
78.5
10
347.26724100000007
20
48.280827000000016
30
78.5
10
347.05088800000004
20
47.758503000000005
30
78.5
10
347.05088800000004
20
47.213870999999997
30
78.5
0
SPLINE
5
256
100
AcDbEntity
8
0
100
AcDbSpline
70
1064
71
3
72
8
73
4
74
0
42
0.000000001
43
0.0000000001
44
0.0000000001
40
0
40
0
40
0
40
0
40
1
40
1
40
1
40
1
10
372.29552500000005
20
56.697414000000009
30
78.5
10
371.75089300000002
20
56.697414000000009
30
78.5
10
371.22856899999999
20
56.481058999999988
30
78.5
10
370.84346000000005
20
56.09594700000001
30
78.5
0
SPLINE
5
257
100
AcDbEntity
8
0
100
AcDbSpline
70
1064
71
3
72
8
73
4
74
0
42
0.000000001
43
0.0000000001
44
0.0000000001
40
0
40
0
40
0
40
0
40
1
40
1
40
1
40
1
10
445.24758700000001
20
124.69179500000003
30
78.5
10
445.632699
20
125.07691000000003
30
78.5
10
445.84905100000009
20
125.59923200000001
30
78.5
10
445.84905100000009
20
126.143863
30
78.5
0
SPLINE
5
258
100
AcDbEntity
8
0
100
AcDbSpline
70
1064
71
3
72
8
73
4
74
0
42
0.000000001
43
0.0000000001
44
0.0000000001
40
0
40
0
40
0
40
0
40
1
40
1
40
1
40
1
10
370.24199299999998
20
54.643878999999998
30
78.5
10
370.24199299999998
20
54.099248000000003
30
78.5
10
370.458348
20
53.576926
30
78.5
10
370.84346000000005
20
53.191813999999994
30
78.5
0
SPLINE
5
259
100
AcDbEntity
8
0
100
AcDbSpline
70
1064
71
3
72
8
73
4
74
0
42
0.000000001
43
0.0000000001
44
0.0000000001
40
0
40
0
40
0
40
0
40
1
40
1
40
1
40
1
10
373.74759299999999
20
56.09594700000001
30
78.5
10
373.36248100000006
20
56.481060999999997
30
78.5
10
372.84015600000004
20
56.697414000000009
30
78.5
10
372.29552500000005
20
56.697414000000009
30
78.5
0
SPLINE
5
260
100
AcDbEntity
8
0
100
AcDbSpline
70
1064
71
3
72
8
73
4
74
0
42
0.000000001
43
0.0000000001
44
0.0000000001
40
0
40
0
40
0
40
0
40
1
40
1
40
1
40
1
10
397.18147399999998
20
11.634673000000003
30
78.5
10
396.79636199999999
20
12.0198
30
78.5
10
396.27403800000002
20
12.236150000000002
30
78.5
10
395.72940600000004
20
12.236150000000002
30
78.5
0
SPLINE
5
261
100
AcDbEntity
8
0
100
AcDbSpline
70
1064
71
3
72
8
73
4
74
0
42
0.000000001
43
0.0000000001
44
0.0000000001
40
0
40
0
40
0
40
0
40
1
40
1
40
1
40
1
10
372.29552500000005
20
52.590344999999999
30
78.5
10
372.84015600000004
20
52.590344999999999
30
78.5
10
373.36248100000006
20
52.806700000000006
30
78.5
10
373.74759299999999
20
53.191811000000001
30
78.5
0
SPLINE
5
262
100
AcDbEntity
8
0
100
AcDbSpline
70
1064
71
3
72
8
73
4
74
0
42
0.000000001
43
0.0000000001
44
0.0000000001
40
0
40
0
40
0
40
0
40
1
40
1
40
1
40
1
10
415.49734000000001
20
11.634673000000003
30
78.5
10
415.11222800000007
20
11.249572000000001
30
78.5
10
414.89587300000005
20
10.727232000000003
30
78.5
10
414.89587300000005
20
10.182613
30
78.5
0
SPLINE
5
263
100
AcDbEntity
8
0
100
AcDbSpline
70
1064
71
3
72
8
73
4
74
0
42
0.000000001
43
0.0000000001
44
0.0000000001
40
0
40
0
40
0
40
0
40
1
40
1
40
1
40
1
10
502.50450000000001
20
123.39459600000001
30
78.5
10
502.50450000000001
20
123.94067000000001
30
78.5
10
502.28757100000001
20
124.46438100000002
30
78.5
10
501.90143799999998
20
124.85051400000002
30
78.5
0
SPLINE
5
264
100
AcDbEntity
8
0
100
AcDbSpline
70
1064
71
3
72
8
73
4
74
0
42
0.000000001
43
0.0000000001
44
0.0000000001
40
0
40
0
40
0
40
0
40
1
40
1
40
1
40
1
10
350.556488
20
45.761803000000008
30
78.5
10
350.941599
20
46.146915000000007
30
78.5
10
351.15795200000002
20
46.669240000000002
30
78.5
10
351.15795200000002
20
47.213870999999997
30
78.5
0
SPLINE
5
265
100
AcDbEntity
8
0
100
AcDbSpline
70
1064
71
3
72
8
73
4
74
0
42
0.000000001
43
0.0000000001
44
0.0000000001
40
0
40
0
40
0
40
0
40
1
40
1
40
1
40
1
10
373.74759299999999
20
53.191811000000001
30
78.5
10
374.13270399999999
20
53.576923000000001
30
78.5
10
374.34905900000001
20
54.099248000000003
30
78.5
10
374.34905900000001
20
54.643878999999998
30
78.5
0
SPLINE
5
266
100
AcDbEntity
8
0
100
AcDbSpline
70
1064
71
3
72
8
73
4
74
0
42
0.000000001
43
0.0000000001
44
0.0000000001
40
0
40
0
40
0
40
0
40
1
40
1
40
1
40
1
10
395.72940600000004
20
8.1290760000000013
30
78.5
10
396.27403800000002
20
8.1290760000000013
30
78.5
10
396.79636199999999
20
8.3454259999999998
30
78.5
10
397.18147399999998
20
8.7305530000000005
30
78.5
0
SPLINE
5
267
100
AcDbEntity
8
0
100
AcDbSpline
70
1064
71
3
72
8
73
4
74
0
42
0.000000001
43
0.0000000001
44
0.0000000001
40
0
40
0
40
0
40
0
40
1
40
1
40
1
40
1
10
394.27734100000004
20
8.7305530000000005
30
78.5
10
394.66245300000003
20
8.3454259999999998
30
78.5
10
395.18477500000006
20
8.1290760000000013
30
78.5
10
395.72940600000004
20
8.1290760000000013
30
78.5
0
SPLINE
5
268
100
AcDbEntity
8
0
100
AcDbSpline
70
1064
71
3
72
8
73
4
74
0
42
0.000000001
43
0.0000000001
44
0.0000000001
40
0
40
0
40
0
40
0
40
1
40
1
40
1
40
1
10
349.10442
20
28.047439000000004
30
78.5
10
348.55978800000003
20
28.047439000000004
30
78.5
10
348.037464
20
27.831062000000003
30
78.5
10
347.65235200000001
20
27.445961000000004
30
78.5
0
SPLINE
5
269
100
AcDbEntity
8
0
100
AcDbSpline
70
1064
71
3
72
8
73
4
74
0
42
0.000000001
43
0.0000000001
44
0.0000000001
40
0
40
0
40
0
40
0
40
1
40
1
40
1
40
1
10
370.84346000000005
20
56.09594700000001
30
78.5
10
370.458348
20
55.710835000000003
30
78.5
10
370.24199299999998
20
55.188511000000005
30
78.5
10
370.24199299999998
20
54.643878999999998
30
78.5
0
SPLINE
5
270
100
AcDbEntity
8
0
100
AcDbSpline
70
1064
71
3
72
8
73
4
74
0
42
0.000000001
43
0.0000000001
44
0.0000000001
40
0
40
0
40
0
40
0
40
1
40
1
40
1
40
1
10
445.24758700000001
20
127.59593100000004
30
78.5
10
444.86247600000007
20
127.981043
30
78.5
10
444.34015100000005
20
128.19739800000002
30
78.5
10
443.79552000000001
20
128.19739800000002
30
78.5
0
SPLINE
5
271
100
AcDbEntity
8
0
100
AcDbSpline
70
1064
71
3
72
8
73
4
74
0
42
0.000000001
43
0.0000000001
44
0.0000000001
40
0
40
0
40
0
40
0
40
1
40
1
40
1
40
1
10
415.49734000000001
20
8.7305270000000004
30
78.5
10
415.882451
20
8.3454259999999998
30
78.5
10
416.40477600000003
20
8.1290760000000013
30
78.5
10
416.94940800000006
20
8.1290760000000013
30
78.5
0
ENDSEC
0
SECTION
2
OBJECTS
0
DICTIONARY
5
C
100
AcDbDictionary
3
ACAD_GROUP
350
D
3
ACAD_MLINESTYLE
350
17
0
DICTIONARY
5
D
100
AcDbDictionary
0
DICTIONARY
5
1A
330
C
100
AcDbDictionary
0
DICTIONARY
5
17
100
AcDbDictionary
0
ENDSEC
0
EOF
