  0
SECTION
  2
HEADER
  9
$ACADVER
  1
AC1014
  9
$HANDSEED
  5
FFFF
  9
$MEASUREMENT
 70
     1
  0
ENDSEC
  0
SECTION
  2
TABLES
  0
TABLE
  2
VPORT
  5
8
330
0
100
AcDbSymbolTable
 70
     4
  0
VPORT
  5
2E
330
8
100
AcDbSymbolTableRecord
100
AcDbViewportTableRecord
  2
*ACTIVE
 70
     0
 10
0.0
 20
0.0
 11
1.0
 21
1.0
 12
210.0
 22
148.5
 13
0.0
 23
0.0
 14
10.0
 24
10.0
 15
10.0
 25
10.0
 16
0.0
 26
0.0
 36
1.0
 17
0.0
 27
0.0
 37
0.0
 40
341.0
 41
1.24
 42
50.0
 43
0.0
 44
0.0
 50
0.0
 51
0.0
 71
     0
 72
   100
 73
     1
 74
     3
 75
     0
 76
     0
 77
     0
 78
     0
  0
ENDTAB
  0
TABLE
  2
LTYPE
  5
5
330
0
100
AcDbSymbolTable
 70
     1
  0
LTYPE
  5
14
330
5
100
AcDbSymbolTableRecord
100
AcDbLinetypeTableRecord
  2
BYBLOCK
 70
     0
  3

 72
    65
 73
     0
 40
0.0
  0
LTYPE
  5
15
330
5
100
AcDbSymbolTableRecord
100
AcDbLinetypeTableRecord
  2
BYLAYER
 70
     0
  3

 72
    65
 73
     0
 40
0.0
  0
LTYPE
  5
16
330
5
100
AcDbSymbolTableRecord
100
AcDbLinetypeTableRecord
  2
CONTINUOUS
 70
     0
  3
Solid line
 72
    65
 73
     0
 40
0.0
  0
ENDTAB
  0
TABLE
  2
LAYER
  5
2
100
AcDbSymbolTable
 70
1
  0
LAYER
  5
50
100
AcDbSymbolTableRecord
100
AcDbLayerTableRecord
  2
0
 70
0
  6
CONTINUOUS
  0
ENDTAB
  0
TABLE
  2
STYLE
  5
3
330
0
100
AcDbSymbolTable
 70
     1
  0
STYLE
  5
11
330
3
100
AcDbSymbolTableRecord
100
AcDbTextStyleTableRecord
  2
STANDARD
 70
     0
 40
0.0
 41
1.0
 50
0.0
 71
     0
 42
2.5
  3
txt
  4

  0
ENDTAB
  0
TABLE
  2
VIEW
  5
6
330
0
100
AcDbSymbolTable
 70
     0
  0
ENDTAB
  0
TABLE
  2
UCS
  5
7
330
0
100
AcDbSymbolTable
 70
     0
  0
ENDTAB
  0
TABLE
  2
APPID
  5
9
330
0
100
AcDbSymbolTable
 70
     2
  0
APPID
  5
12
330
9
100
AcDbSymbolTableRecord
100
AcDbRegAppTableRecord
  2
ACAD
 70
     0
  0
ENDTAB
  0
TABLE
  2
DIMSTYLE
  5
A
330
0
100
AcDbSymbolTable
 70
     1
  0
DIMSTYLE
105
27
330
A
100
AcDbSymbolTableRecord
100
AcDbDimStyleTableRecord
  2
ISO-25
 70
     0
  3

  4

  5

  6

  7

 40
1.0
 41
2.5
 42
0.625
 43
3.75
 44
1.25
 45
0.0
 46
0.0
 47
0.0
 48
0.0
140
2.5
141
2.5
142
0.0
143
0.03937007874016
144
1.0
145
0.0
146
1.0
147
0.625
 71
     0
 72
     0
 73
     0
 74
     0
 75
     0
 76
     0
 77
     1
 78
     8
170
     0
171
     3
172
     1
173
     0
174
     0
175
     0
176
     0
177
     0
178
     0
270
     2
271
     2
272
     2
273
     2
274
     3
340
11
275
     0
280
     0
281
     0
282
     0
283
     0
284
     8
285
     0
286
     0
287
     3
288
     0
  0
ENDTAB
  0
TABLE
  2
BLOCK_RECORD
  5
1
330
0
100
AcDbSymbolTable
 70
     1
  0
BLOCK_RECORD
  5
1F
330
1
100
AcDbSymbolTableRecord
100
AcDbBlockTableRecord
  2
*MODEL_SPACE
  0
BLOCK_RECORD
  5
1B
330
1
100
AcDbSymbolTableRecord
100
AcDbBlockTableRecord
  2
*PAPER_SPACE
  0
ENDTAB
  0
ENDSEC
  0
SECTION
  2
BLOCKS
  0
BLOCK
  5
20
330
1F
100
AcDbEntity
  8
0
100
AcDbBlockBegin
  2
*MODEL_SPACE
 70
     0
 10
0.0
 20
0.0
 30
0.0
  3
*MODEL_SPACE
  1

  0
ENDBLK
  5
21
330
1F
100
AcDbEntity
  8
0
100
AcDbBlockEnd
  0
BLOCK
  5
1C
330
1B
100
AcDbEntity
 67
     1
  8
0
100
AcDbBlockBegin
  2
*PAPER_SPACE
  1

  0
ENDBLK
  5
1D
330
1B
100
AcDbEntity
 67
     1
  8
0
100
AcDbBlockEnd
  0
ENDSEC
  0
SECTION
  2
ENTITIES
  0
SPLINE
  5
100
100
AcDbEntity
  8
0
 62
7
100
AcDbSpline
 70
8
 71
3
 72
8
 73
4
 74
0
 40
0
 40
0
 40
0
 40
0
 40
1
 40
1
 40
1
 40
1
 10
69.027209
 20
379.143168
 30
0.0
 10
70.173537
 20
379.143168
 30
0.0
 10
71.086387
 20
378.230459
 30
0.0
 10
71.086387
 20
377.084041
 30
0.0
  0
SPLINE
  5
101
100
AcDbEntity
  8
0
 62
7
100
AcDbSpline
 70
8
 71
3
 72
8
 73
4
 74
0
 40
0
 40
0
 40
0
 40
0
 40
1
 40
1
 40
1
 40
1
 10
417.906647
 20
7.984033
 30
0.0
 10
417.906647
 20
9.130420
 30
0.0
 10
418.819486
 20
10.043179
 30
0.0
 10
419.965846
 20
10.043179
 30
0.0
  0
SPLINE
  5
102
100
AcDbEntity
  8
0
 62
7
100
AcDbSpline
 70
8
 71
3
 72
8
 73
4
 74
0
 40
0
 40
0
 40
0
 40
0
 40
1
 40
1
 40
1
 40
1
 10
92.277210
 20
6.124806
 30
0.0
 10
91.130863
 20
6.124806
 30
0.0
 10
90.218032
 20
7.037672
 30
0.0
 10
90.218032
 20
8.184032
 30
0.0
  0
SPLINE
  5
103
100
AcDbEntity
  8
0
 62
7
100
AcDbSpline
 70
8
 71
3
 72
8
 73
4
 74
0
 40
0
 40
0
 40
0
 40
0
 40
1
 40
1
 40
1
 40
1
 10
9.126974
 20
474.097809
 30
0.0
 10
9.126979
 20
474.986462
 30
0.0
 10
9.847376
 20
475.706856
 30
0.0
 10
10.736032
 20
475.706856
 30
0.0
  0
LWPOLYLINE
  5
104
100
AcDbEntity
  8
0
 62
7
100
AcDbPolyline
 90
2
 70
0
 10
413.641325
 20
25.828406
 30
0.0
 10
434.692448
 20
25.828406
 30
0.0
  0
SPLINE
  5
105
100
AcDbEntity
  8
0
 62
7
100
AcDbSpline
 70
8
 71
3
 72
8
 73
4
 74
0
 40
0
 40
0
 40
0
 40
0
 40
1
 40
1
 40
1
 40
1
 10
409.306180
 20
30.673668
 30
0.0
 10
409.306392
 20
33.349833
 30
0.0
 10
411.247296
 20
35.519125
 30
0.0
 10
413.641325
 20
35.518924
 30
0.0
  0
SPLINE
  5
106
100
AcDbEntity
  8
0
 62
7
100
AcDbSpline
 70
8
 71
3
 72
8
 73
4
 74
0
 40
0
 40
0
 40
0
 40
0
 40
1
 40
1
 40
1
 40
1
 10
6.637027
 20
8.184032
 30
0.0
 10
6.637027
 20
9.330418
 30
0.0
 10
7.549864
 20
10.243178
 30
0.0
 10
8.696211
 20
10.243178
 30
0.0
  0
SPLINE
  5
107
100
AcDbEntity
  8
0
 62
7
100
AcDbSpline
 70
8
 71
3
 72
8
 73
4
 74
0
 40
0
 40
0
 40
0
 40
0
 40
1
 40
1
 40
1
 40
1
 10
474.717424
 20
474.722625
 30
0.0
 10
474.415667
 20
475.024379
 30
0.0
 10
474.006383
 20
475.193901
 30
0.0
 10
473.579637
 20
475.193901
 30
0.0
  0
SPLINE
  5
108
100
AcDbEntity
  8
0
 62
7
100
AcDbSpline
 70
8
 71
3
 72
8
 73
4
 74
0
 40
0
 40
0
 40
0
 40
0
 40
1
 40
1
 40
1
 40
1
 10
473.579637
 20
475.193901
 30
0.0
 10
473.152890
 20
475.193901
 30
0.0
 10
472.743633
 20
475.024379
 30
0.0
 10
472.441875
 20
474.722625
 30
0.0
  0
SPLINE
  5
109
100
AcDbEntity
  8
0
 62
7
100
AcDbSpline
 70
8
 71
3
 72
8
 73
4
 74
0
 40
0
 40
0
 40
0
 40
0
 40
1
 40
1
 40
1
 40
1
 10
380.224000
 20
377.084041
 30
0.0
 10
380.224000
 20
375.937691
 30
0.0
 10
379.311161
 20
375.024847
 30
0.0
 10
378.164828
 20
375.024847
 30
0.0
  0
LWPOLYLINE
  5
10a
100
AcDbEntity
  8
0
 62
7
100
AcDbPolyline
 90
2
 70
0
 10
105.505996
 20
283.937292
 30
0.0
 10
365.757007
 20
283.943933
 30
0.0
  0
LWPOLYLINE
  5
10b
100
AcDbEntity
  8
0
 62
7
100
AcDbPolyline
 90
2
 70
0
 10
100.646902
 20
279.078201
 30
0.0
 10
100.636556
 20
0.132285
 30
0.0
  0
SPLINE
  5
10c
100
AcDbEntity
  8
0
 62
7
100
AcDbSpline
 70
8
 71
3
 72
8
 73
4
 74
0
 40
0
 40
0
 40
0
 40
0
 40
1
 40
1
 40
1
 40
1
 10
400.805012
 20
7.984033
 30
0.0
 10
400.805012
 20
6.837673
 30
0.0
 10
399.892173
 20
5.924808
 30
0.0
 10
398.745839
 20
5.924808
 30
0.0
  0
SPLINE
  5
10d
100
AcDbEntity
  8
0
 62
7
100
AcDbSpline
 70
8
 71
3
 72
8
 73
4
 74
0
 40
0
 40
0
 40
0
 40
0
 40
1
 40
1
 40
1
 40
1
 10
100.646902
 20
279.078201
 30
0.0
 10
100.646902
 20
281.761809
 30
0.0
 10
102.822396
 20
283.937292
 30
0.0
 10
105.505996
 20
283.937292
 30
0.0
  0
SPLINE
  5
10e
100
AcDbEntity
  8
0
 62
7
100
AcDbSpline
 70
8
 71
3
 72
8
 73
4
 74
0
 40
0
 40
0
 40
0
 40
0
 40
1
 40
1
 40
1
 40
1
 10
92.277210
 20
10.243178
 30
0.0
 10
93.423557
 20
10.243178
 30
0.0
 10
94.336393
 20
9.330418
 30
0.0
 10
94.336393
 20
8.184032
 30
0.0
  0
SPLINE
  5
10f
100
AcDbEntity
  8
0
 62
7
100
AcDbSpline
 70
8
 71
3
 72
8
 73
4
 74
0
 40
0
 40
0
 40
0
 40
0
 40
1
 40
1
 40
1
 40
1
 10
413.641325
 20
25.828406
 30
0.0
 10
411.247296
 20
25.828195
 30
0.0
 10
409.306392
 20
27.997513
 30
0.0
 10
409.306180
 20
30.673668
 30
0.0
  0
SPLINE
  5
110
100
AcDbEntity
  8
0
 62
7
100
AcDbSpline
 70
8
 71
3
 72
8
 73
4
 74
0
 40
0
 40
0
 40
0
 40
0
 40
1
 40
1
 40
1
 40
1
 10
40.986387
 20
377.084041
 30
0.0
 10
40.986387
 20
375.937691
 30
0.0
 10
40.073542
 20
375.024847
 30
0.0
 10
38.927209
 20
375.024847
 30
0.0
  0
SPLINE
  5
111
100
AcDbEntity
  8
0
 62
7
100
AcDbSpline
 70
8
 71
3
 72
8
 73
4
 74
0
 40
0
 40
0
 40
0
 40
0
 40
1
 40
1
 40
1
 40
1
 10
36.868028
 20
377.084041
 30
0.0
 10
36.868028
 20
378.230459
 30
0.0
 10
37.780848
 20
379.143168
 30
0.0
 10
38.927209
 20
379.143168
 30
0.0
  0
SPLINE
  5
112
100
AcDbEntity
  8
0
 62
7
100
AcDbSpline
 70
8
 71
3
 72
8
 73
4
 74
0
 40
0
 40
0
 40
0
 40
0
 40
1
 40
1
 40
1
 40
1
 10
66.968031
 20
377.084041
 30
0.0
 10
66.968031
 20
378.230459
 30
0.0
 10
67.880851
 20
379.143168
 30
0.0
 10
69.027209
 20
379.143168
 30
0.0
  0
SPLINE
  5
113
100
AcDbEntity
  8
0
 62
7
100
AcDbSpline
 70
8
 71
3
 72
8
 73
4
 74
0
 40
0
 40
0
 40
0
 40
0
 40
1
 40
1
 40
1
 40
1
 10
12.345082
 20
474.097809
 30
0.0
 10
12.345079
 20
473.209155
 30
0.0
 10
11.624685
 20
472.488761
 30
0.0
 10
10.736032
 20
472.488758
 30
0.0
  0
SPLINE
  5
114
100
AcDbEntity
  8
0
 62
7
100
AcDbSpline
 70
8
 71
3
 72
8
 73
4
 74
0
 40
0
 40
0
 40
0
 40
0
 40
1
 40
1
 40
1
 40
1
 10
0.132292
 20
459.863030
 30
0.0
 10
0.132292
 20
473.592275
 30
0.0
 10
11.262063
 20
484.721988
 30
0.0
 10
24.991303
 20
484.721988
 30
0.0
  0
LWPOLYLINE
  5
115
100
AcDbEntity
  8
0
 62
7
100
AcDbPolyline
 90
2
 70
0
 10
434.692448
 20
35.518924
 30
0.0
 10
413.641325
 20
35.518924
 30
0.0
  0
SPLINE
  5
116
100
AcDbEntity
  8
0
 62
7
100
AcDbSpline
 70
8
 71
3
 72
8
 73
4
 74
0
 40
0
 40
0
 40
0
 40
0
 40
1
 40
1
 40
1
 40
1
 10
410.324006
 20
377.084041
 30
0.0
 10
410.324006
 20
375.937691
 30
0.0
 10
409.411140
 20
375.024847
 30
0.0
 10
408.264833
 20
375.024847
 30
0.0
  0
SPLINE
  5
117
100
AcDbEntity
  8
0
 62
7
100
AcDbSpline
 70
8
 71
3
 72
8
 73
4
 74
0
 40
0
 40
0
 40
0
 40
0
 40
1
 40
1
 40
1
 40
1
 10
378.164828
 20
375.024847
 30
0.0
 10
377.018467
 20
375.024847
 30
0.0
 10
376.105655
 20
375.937691
 30
0.0
 10
376.105655
 20
377.084041
 30
0.0
  0
SPLINE
  5
118
100
AcDbEntity
  8
0
 62
7
100
AcDbSpline
 70
8
 71
3
 72
8
 73
4
 74
0
 40
0
 40
0
 40
0
 40
0
 40
1
 40
1
 40
1
 40
1
 10
365.757007
 20
283.943932
 30
0.0
 10
368.440596
 20
283.943932
 30
0.0
 10
370.616133
 20
281.768450
 30
0.0
 10
370.616133
 20
279.084844
 30
0.0
  0
SPLINE
  5
119
100
AcDbEntity
  8
0
 62
7
100
AcDbSpline
 70
8
 71
3
 72
8
 73
4
 74
0
 40
0
 40
0
 40
0
 40
0
 40
1
 40
1
 40
1
 40
1
 10
472.441875
 20
472.447079
 30
0.0
 10
472.743633
 20
472.145324
 30
0.0
 10
473.152890
 20
471.975800
 30
0.0
 10
473.579637
 20
471.975803
 30
0.0
  0
SPLINE
  5
11a
100
AcDbEntity
  8
0
 62
7
100
AcDbSpline
 70
8
 71
3
 72
8
 73
4
 74
0
 40
0
 40
0
 40
0
 40
0
 40
1
 40
1
 40
1
 40
1
 10
422.025018
 20
7.984033
 30
0.0
 10
422.025018
 20
6.837673
 30
0.0
 10
421.112153
 20
5.924808
 30
0.0
 10
419.965846
 20
5.924808
 30
0.0
  0
SPLINE
  5
11b
100
AcDbEntity
  8
0
 62
7
100
AcDbSpline
 70
8
 71
3
 72
8
 73
4
 74
0
 40
0
 40
0
 40
0
 40
0
 40
1
 40
1
 40
1
 40
1
 10
473.936004
 20
28.934033
 30
0.0
 10
473.936004
 20
27.787646
 30
0.0
 10
473.023165
 20
26.874807
 30
0.0
 10
471.876831
 20
26.874807
 30
0.0
  0
SPLINE
  5
11c
100
AcDbEntity
  8
0
 62
7
100
AcDbSpline
 70
8
 71
3
 72
8
 73
4
 74
0
 40
0
 40
0
 40
0
 40
0
 40
1
 40
1
 40
1
 40
1
 10
60.677213
 20
32.468813
 30
0.0
 10
59.530866
 20
32.468813
 30
0.0
 10
58.618035
 20
33.381676
 30
0.0
 10
58.618035
 20
34.528033
 30
0.0
  0
SPLINE
  5
11d
100
AcDbEntity
  8
0
 62
7
100
AcDbSpline
 70
8
 71
3
 72
8
 73
4
 74
0
 40
0
 40
0
 40
0
 40
0
 40
1
 40
1
 40
1
 40
1
 10
469.817658
 20
28.934033
 30
0.0
 10
469.817658
 20
30.080393
 30
0.0
 10
470.730471
 20
30.993179
 30
0.0
 10
471.876831
 20
30.993179
 30
0.0
  0
SPLINE
  5
11e
100
AcDbEntity
  8
0
 62
7
100
AcDbSpline
 70
8
 71
3
 72
8
 73
4
 74
0
 40
0
 40
0
 40
0
 40
0
 40
1
 40
1
 40
1
 40
1
 10
472.441875
 20
474.722625
 30
0.0
 10
472.140118
 20
474.420868
 30
0.0
 10
471.970573
 20
474.011599
 30
0.0
 10
471.970573
 20
473.584850
 30
0.0
  0
SPLINE
  5
11f
100
AcDbEntity
  8
0
 62
7
100
AcDbSpline
 70
8
 71
3
 72
8
 73
4
 74
0
 40
0
 40
0
 40
0
 40
0
 40
1
 40
1
 40
1
 40
1
 10
58.618035
 20
191.103013
 30
0.0
 10
58.618035
 20
192.249431
 30
0.0
 10
59.530866
 20
193.162207
 30
0.0
 10
60.677213
 20
193.162207
 30
0.0
  0
SPLINE
  5
120
100
AcDbEntity
  8
0
 62
7
100
AcDbSpline
 70
8
 71
3
 72
8
 73
4
 74
0
 40
0
 40
0
 40
0
 40
0
 40
1
 40
1
 40
1
 40
1
 10
376.105655
 20
377.084041
 30
0.0
 10
376.105655
 20
378.230459
 30
0.0
 10
377.018467
 20
379.143168
 30
0.0
 10
378.164828
 20
379.143168
 30
0.0
  0
SPLINE
  5
121
100
AcDbEntity
  8
0
 62
7
100
AcDbSpline
 70
8
 71
3
 72
8
 73
4
 74
0
 40
0
 40
0
 40
0
 40
0
 40
1
 40
1
 40
1
 40
1
 10
379.726848
 20
453.167164
 30
0.0
 10
380.873182
 20
453.167164
 30
0.0
 10
381.786021
 20
452.254452
 30
0.0
 10
381.786021
 20
451.108036
 30
0.0
  0
SPLINE
  5
122
100
AcDbEntity
  8
0
 62
7
100
AcDbSpline
 70
8
 71
3
 72
8
 73
4
 74
0
 40
0
 40
0
 40
0
 40
0
 40
1
 40
1
 40
1
 40
1
 10
9.436393
 20
110.918054
 30
0.0
 10
9.436393
 20
109.771692
 30
0.0
 10
8.523554
 20
108.858847
 30
0.0
 10
7.377213
 20
108.858847
 30
0.0
  0
SPLINE
  5
123
100
AcDbEntity
  8
0
 62
7
100
AcDbSpline
 70
8
 71
3
 72
8
 73
4
 74
0
 40
0
 40
0
 40
0
 40
0
 40
1
 40
1
 40
1
 40
1
 10
58.618035
 20
351.108019
 30
0.0
 10
58.618035
 20
352.254437
 30
0.0
 10
59.530866
 20
353.167213
 30
0.0
 10
60.677213
 20
353.167213
 30
0.0
  0
SPLINE
  5
124
100
AcDbEntity
  8
0
 62
7
100
AcDbSpline
 70
8
 71
3
 72
8
 73
4
 74
0
 40
0
 40
0
 40
0
 40
0
 40
1
 40
1
 40
1
 40
1
 10
479.236031
 20
110.918041
 30
0.0
 10
479.236031
 20
109.771684
 30
0.0
 10
478.323166
 20
108.858834
 30
0.0
 10
477.176859
 20
108.858834
 30
0.0
  0
LWPOLYLINE
  5
125
100
AcDbEntity
  8
0
 62
7
100
AcDbPolyline
 90
2
 70
0
 10
0.136586
 20
0.858010
 30
0.0
 10
0.132292
 20
459.863030
 30
0.0
  0
SPLINE
  5
126
100
AcDbEntity
  8
0
 62
7
100
AcDbSpline
 70
8
 71
3
 72
8
 73
4
 74
0
 40
0
 40
0
 40
0
 40
0
 40
1
 40
1
 40
1
 40
1
 10
381.786021
 20
451.108036
 30
0.0
 10
381.786021
 20
449.961684
 30
0.0
 10
380.873182
 20
449.048842
 30
0.0
 10
379.726848
 20
449.048842
 30
0.0
  0
SPLINE
  5
127
100
AcDbEntity
  8
0
 62
7
100
AcDbSpline
 70
8
 71
3
 72
8
 73
4
 74
0
 40
0
 40
0
 40
0
 40
0
 40
1
 40
1
 40
1
 40
1
 10
408.264833
 20
375.024847
 30
0.0
 10
407.118473
 20
375.024847
 30
0.0
 10
406.205634
 20
375.937691
 30
0.0
 10
406.205634
 20
377.084041
 30
0.0
  0
SPLINE
  5
128
100
AcDbEntity
  8
0
 62
7
100
AcDbSpline
 70
8
 71
3
 72
8
 73
4
 74
0
 40
0
 40
0
 40
0
 40
0
 40
1
 40
1
 40
1
 40
1
 10
473.579637
 20
471.975803
 30
0.0
 10
474.006383
 20
471.975800
 30
0.0
 10
474.415667
 20
472.145324
 30
0.0
 10
474.717424
 20
472.447079
 30
0.0
  0
SPLINE
  5
129
100
AcDbEntity
  8
0
 62
7
100
AcDbSpline
 70
8
 71
3
 72
8
 73
4
 74
0
 40
0
 40
0
 40
0
 40
0
 40
1
 40
1
 40
1
 40
1
 10
408.264833
 20
379.143168
 30
0.0
 10
409.411140
 20
379.143168
 30
0.0
 10
410.324006
 20
378.230459
 30
0.0
 10
410.324006
 20
377.084041
 30
0.0
  0
SPLINE
  5
12a
100
AcDbEntity
  8
0
 62
7
100
AcDbSpline
 70
8
 71
3
 72
8
 73
4
 74
0
 40
0
 40
0
 40
0
 40
0
 40
1
 40
1
 40
1
 40
1
 10
38.927209
 20
375.024847
 30
0.0
 10
37.780848
 20
375.024847
 30
0.0
 10
36.868028
 20
375.937691
 30
0.0
 10
36.868028
 20
377.084041
 30
0.0
  0
SPLINE
  5
12b
100
AcDbEntity
  8
0
 62
7
100
AcDbSpline
 70
8
 71
3
 72
8
 73
4
 74
0
 40
0
 40
0
 40
0
 40
0
 40
1
 40
1
 40
1
 40
1
 10
8.696211
 20
10.243178
 30
0.0
 10
9.842550
 20
10.243178
 30
0.0
 10
10.755394
 20
9.330418
 30
0.0
 10
10.755394
 20
8.184032
 30
0.0
  0
SPLINE
  5
12c
100
AcDbEntity
  8
0
 62
7
100
AcDbSpline
 70
8
 71
3
 72
8
 73
4
 74
0
 40
0
 40
0
 40
0
 40
0
 40
1
 40
1
 40
1
 40
1
 10
68.998033
 20
8.184032
 30
0.0
 10
68.998033
 20
9.330418
 30
0.0
 10
69.910859
 20
10.243178
 30
0.0
 10
71.057211
 20
10.243178
 30
0.0
  0
LWPOLYLINE
  5
12d
100
AcDbEntity
  8
0
 62
7
100
AcDbPolyline
 90
2
 70
0
 10
24.991303
 20
484.721988
 30
0.0
 10
459.710655
 20
484.011638
 30
0.0
  0
SPLINE
  5
12e
100
AcDbEntity
  8
0
 62
7
100
AcDbSpline
 70
8
 71
3
 72
8
 73
4
 74
0
 40
0
 40
0
 40
0
 40
0
 40
1
 40
1
 40
1
 40
1
 10
459.710655
 20
484.011638
 30
0.0
 10
473.439910
 20
484.011638
 30
0.0
 10
484.569661
 20
472.881858
 30
0.0
 10
484.569661
 20
459.152613
 30
0.0
  0
SPLINE
  5
12f
100
AcDbEntity
  8
0
 62
7
100
AcDbSpline
 70
8
 71
3
 72
8
 73
4
 74
0
 40
0
 40
0
 40
0
 40
0
 40
1
 40
1
 40
1
 40
1
 10
10.736032
 20
475.706856
 30
0.0
 10
11.624685
 20
475.706854
 30
0.0
 10
12.345079
 20
474.986459
 30
0.0
 10
12.345082
 20
474.097809
 30
0.0
  0
SPLINE
  5
130
100
AcDbEntity
  8
0
 62
7
100
AcDbSpline
 70
8
 71
3
 72
8
 73
4
 74
0
 40
0
 40
0
 40
0
 40
0
 40
1
 40
1
 40
1
 40
1
 10
90.218032
 20
8.184032
 30
0.0
 10
90.218032
 20
9.330418
 30
0.0
 10
91.130863
 20
10.243178
 30
0.0
 10
92.277210
 20
10.243178
 30
0.0
  0
SPLINE
  5
131
100
AcDbEntity
  8
0
 62
7
100
AcDbSpline
 70
8
 71
3
 72
8
 73
4
 74
0
 40
0
 40
0
 40
0
 40
0
 40
1
 40
1
 40
1
 40
1
 10
406.205634
 20
377.084041
 30
0.0
 10
406.205634
 20
378.230459
 30
0.0
 10
407.118473
 20
379.143168
 30
0.0
 10
408.264833
 20
379.143168
 30
0.0
  0
SPLINE
  5
132
100
AcDbEntity
  8
0
 62
7
100
AcDbSpline
 70
8
 71
3
 72
8
 73
4
 74
0
 40
0
 40
0
 40
0
 40
0
 40
1
 40
1
 40
1
 40
1
 10
471.970573
 20
473.584850
 30
0.0
 10
471.970573
 20
473.158104
 30
0.0
 10
472.140118
 20
472.748833
 30
0.0
 10
472.441875
 20
472.447079
 30
0.0
  0
SPLINE
  5
133
100
AcDbEntity
  8
0
 62
7
100
AcDbSpline
 70
8
 71
3
 72
8
 73
4
 74
0
 40
0
 40
0
 40
0
 40
0
 40
1
 40
1
 40
1
 40
1
 10
69.027209
 20
375.024847
 30
0.0
 10
67.880851
 20
375.024847
 30
0.0
 10
66.968031
 20
375.937691
 30
0.0
 10
66.968031
 20
377.084041
 30
0.0
  0
SPLINE
  5
134
100
AcDbEntity
  8
0
 62
7
100
AcDbSpline
 70
8
 71
3
 72
8
 73
4
 74
0
 40
0
 40
0
 40
0
 40
0
 40
1
 40
1
 40
1
 40
1
 10
73.116389
 20
8.184032
 30
0.0
 10
73.116389
 20
7.037672
 30
0.0
 10
72.203550
 20
6.124806
 30
0.0
 10
71.057211
 20
6.124806
 30
0.0
  0
LWPOLYLINE
  5
135
100
AcDbEntity
  8
0
 62
7
100
AcDbPolyline
 90
2
 70
0
 10
484.373949
 20
0.857878
 30
0.0
 10
484.569661
 20
459.152613
 30
0.0
  0
SPLINE
  5
136
100
AcDbEntity
  8
0
 62
7
100
AcDbSpline
 70
8
 71
3
 72
8
 73
4
 74
0
 40
0
 40
0
 40
0
 40
0
 40
1
 40
1
 40
1
 40
1
 10
94.336393
 20
8.184032
 30
0.0
 10
94.336393
 20
7.037672
 30
0.0
 10
93.423557
 20
6.124806
 30
0.0
 10
92.277210
 20
6.124806
 30
0.0
  0
SPLINE
  5
137
100
AcDbEntity
  8
0
 62
7
100
AcDbSpline
 70
8
 71
3
 72
8
 73
4
 74
0
 40
0
 40
0
 40
0
 40
0
 40
1
 40
1
 40
1
 40
1
 10
475.188700
 20
473.584850
 30
0.0
 10
475.188700
 20
474.011599
 30
0.0
 10
475.019182
 20
474.420868
 30
0.0
 10
474.717424
 20
474.722625
 30
0.0
  0
SPLINE
  5
138
100
AcDbEntity
  8
0
 62
7
100
AcDbSpline
 70
8
 71
3
 72
8
 73
4
 74
0
 40
0
 40
0
 40
0
 40
0
 40
1
 40
1
 40
1
 40
1
 10
71.086387
 20
377.084041
 30
0.0
 10
71.086387
 20
375.937691
 30
0.0
 10
70.173537
 20
375.024847
 30
0.0
 10
69.027209
 20
375.024847
 30
0.0
  0
SPLINE
  5
139
100
AcDbEntity
  8
0
 62
7
100
AcDbSpline
 70
8
 71
3
 72
8
 73
4
 74
0
 40
0
 40
0
 40
0
 40
0
 40
1
 40
1
 40
1
 40
1
 10
398.745839
 20
5.924808
 30
0.0
 10
397.599479
 20
5.924808
 30
0.0
 10
396.686666
 20
6.837673
 30
0.0
 10
396.686666
 20
7.984033
 30
0.0
  0
SPLINE
  5
13a
100
AcDbEntity
  8
0
 62
7
100
AcDbSpline
 70
8
 71
3
 72
8
 73
4
 74
0
 40
0
 40
0
 40
0
 40
0
 40
1
 40
1
 40
1
 40
1
 10
378.164828
 20
379.143168
 30
0.0
 10
379.311161
 20
379.143168
 30
0.0
 10
380.224000
 20
378.230459
 30
0.0
 10
380.224000
 20
377.084041
 30
0.0
  0
SPLINE
  5
13b
100
AcDbEntity
  8
0
 62
7
100
AcDbSpline
 70
8
 71
3
 72
8
 73
4
 74
0
 40
0
 40
0
 40
0
 40
0
 40
1
 40
1
 40
1
 40
1
 10
419.965846
 20
10.043179
 30
0.0
 10
421.112153
 20
10.043179
 30
0.0
 10
422.025018
 20
9.130420
 30
0.0
 10
422.025018
 20
7.984033
 30
0.0
  0
SPLINE
  5
13c
100
AcDbEntity
  8
0
 62
7
100
AcDbSpline
 70
8
 71
3
 72
8
 73
4
 74
0
 40
0
 40
0
 40
0
 40
0
 40
1
 40
1
 40
1
 40
1
 10
71.057211
 20
10.243178
 30
0.0
 10
72.203550
 20
10.243178
 30
0.0
 10
73.116389
 20
9.330418
 30
0.0
 10
73.116389
 20
8.184032
 30
0.0
  0
SPLINE
  5
13d
100
AcDbEntity
  8
0
 62
7
100
AcDbSpline
 70
8
 71
3
 72
8
 73
4
 74
0
 40
0
 40
0
 40
0
 40
0
 40
1
 40
1
 40
1
 40
1
 10
14.556753
 20
68.798481
 30
0.0
 10
15.693990
 20
68.798396
 30
0.0
 10
16.615838
 20
67.876416
 30
0.0
 10
16.615751
 20
66.739170
 30
0.0
  0
SPLINE
  5
13e
100
AcDbEntity
  8
0
 62
7
100
AcDbSpline
 70
8
 71
3
 72
8
 73
4
 74
0
 40
0
 40
0
 40
0
 40
0
 40
1
 40
1
 40
1
 40
1
 10
142.368031
 20
291.065838
 30
0.0
 10
142.368031
 20
292.212254
 30
0.0
 10
143.280862
 20
293.125031
 30
0.0
 10
144.427209
 20
293.125031
 30
0.0
  0
LWPOLYLINE
  5
13f
100
AcDbEntity
  8
0
 62
7
100
AcDbPolyline
 90
2
 70
0
 10
12.497752
 20
56.739169
 30
0.0
 10
12.497752
 20
66.739170
 30
0.0
  0
SPLINE
  5
140
100
AcDbEntity
  8
0
 62
7
100
AcDbSpline
 70
8
 71
3
 72
8
 73
4
 74
0
 40
0
 40
0
 40
0
 40
0
 40
1
 40
1
 40
1
 40
1
 10
62.736396
 20
451.108036
 30
0.0
 10
62.736396
 20
449.961684
 30
0.0
 10
61.823552
 20
449.048842
 30
0.0
 10
60.677213
 20
449.048842
 30
0.0
  0
SPLINE
  5
141
100
AcDbEntity
  8
0
 62
7
100
AcDbSpline
 70
8
 71
3
 72
8
 73
4
 74
0
 40
0
 40
0
 40
0
 40
0
 40
1
 40
1
 40
1
 40
1
 10
242.468029
 20
291.165873
 30
0.0
 10
242.468029
 20
292.312223
 30
0.0
 10
243.380868
 20
293.225001
 30
0.0
 10
244.527202
 20
293.225001
 30
0.0
  0
SPLINE
  5
142
100
AcDbEntity
  8
0
 62
7
100
AcDbSpline
 70
8
 71
3
 72
8
 73
4
 74
0
 40
0
 40
0
 40
0
 40
0
 40
1
 40
1
 40
1
 40
1
 10
62.736396
 20
351.108019
 30
0.0
 10
62.736396
 20
349.961669
 30
0.0
 10
61.823557
 20
349.048825
 30
0.0
 10
60.677213
 20
349.048825
 30
0.0
  0
SPLINE
  5
143
100
AcDbEntity
  8
0
 62
7
100
AcDbSpline
 70
8
 71
3
 72
8
 73
4
 74
0
 40
0
 40
0
 40
0
 40
0
 40
1
 40
1
 40
1
 40
1
 10
7.377210
 20
312.977200
 30
0.0
 10
8.523554
 20
312.977200
 30
0.0
 10
9.436393
 20
312.064423
 30
0.0
 10
9.436393
 20
310.918007
 30
0.0
  0
SPLINE
  5
144
100
AcDbEntity
  8
0
 62
7
100
AcDbSpline
 70
8
 71
3
 72
8
 73
4
 74
0
 40
0
 40
0
 40
0
 40
0
 40
1
 40
1
 40
1
 40
1
 10
395.549752
 20
68.798155
 30
0.0
 10
396.687010
 20
68.798068
 30
0.0
 10
397.608845
 20
67.876085
 30
0.0
 10
397.608766
 20
66.738845
 30
0.0
  0
SPLINE
  5
145
100
AcDbEntity
  8
0
 62
7
100
AcDbSpline
 70
8
 71
3
 72
8
 73
4
 74
0
 40
0
 40
0
 40
0
 40
0
 40
1
 40
1
 40
1
 40
1
 10
60.677213
 20
189.043819
 30
0.0
 10
59.530866
 20
189.043819
 30
0.0
 10
58.618035
 20
189.956663
 30
0.0
 10
58.618035
 20
191.103013
 30
0.0
  0
SPLINE
  5
146
100
AcDbEntity
  8
0
 62
7
100
AcDbSpline
 70
8
 71
3
 72
8
 73
4
 74
0
 40
0
 40
0
 40
0
 40
0
 40
1
 40
1
 40
1
 40
1
 10
397.608766
 20
56.738852
 30
0.0
 10
397.608845
 20
55.601606
 30
0.0
 10
396.687010
 20
54.679621
 30
0.0
 10
395.549752
 20
54.679536
 30
0.0
  0
LWPOLYLINE
  5
147
100
AcDbEntity
  8
0
 62
7
100
AcDbPolyline
 90
2
 70
0
 10
42.607454
 20
56.739508
 30
0.0
 10
42.607454
 20
66.739504
 30
0.0
  0
LWPOLYLINE
  5
148
100
AcDbEntity
  8
0
 62
7
100
AcDbPolyline
 90
2
 70
0
 10
397.608766
 20
66.738845
 30
0.0
 10
397.608766
 20
56.738852
 30
0.0
  0
SPLINE
  5
149
100
AcDbEntity
  8
0
 62
7
100
AcDbSpline
 70
8
 71
3
 72
8
 73
4
 74
0
 40
0
 40
0
 40
0
 40
0
 40
1
 40
1
 40
1
 40
1
 10
144.427209
 20
293.125031
 30
0.0
 10
145.573556
 20
293.125031
 30
0.0
 10
146.486395
 20
292.212254
 30
0.0
 10
146.486395
 20
291.065838
 30
0.0
  0
SPLINE
  5
14a
100
AcDbEntity
  8
0
 62
7
100
AcDbSpline
 70
8
 71
3
 72
8
 73
4
 74
0
 40
0
 40
0
 40
0
 40
0
 40
1
 40
1
 40
1
 40
1
 10
346.586383
 20
291.065856
 30
0.0
 10
346.586383
 20
289.919505
 30
0.0
 10
345.673545
 20
289.006661
 30
0.0
 10
344.527211
 20
289.006661
 30
0.0
  0
SPLINE
  5
14b
100
AcDbEntity
  8
0
 62
7
100
AcDbSpline
 70
8
 71
3
 72
8
 73
4
 74
0
 40
0
 40
0
 40
0
 40
0
 40
1
 40
1
 40
1
 40
1
 10
60.677213
 20
349.048825
 30
0.0
 10
59.530866
 20
349.048825
 30
0.0
 10
58.618035
 20
349.961669
 30
0.0
 10
58.618035
 20
351.108019
 30
0.0
  0
SPLINE
  5
14c
100
AcDbEntity
  8
0
 62
7
100
AcDbSpline
 70
8
 71
3
 72
8
 73
4
 74
0
 40
0
 40
0
 40
0
 40
0
 40
1
 40
1
 40
1
 40
1
 10
427.718481
 20
56.739182
 30
0.0
 10
427.718561
 20
55.601942
 30
0.0
 10
426.796700
 20
54.679962
 30
0.0
 10
425.659467
 20
54.679877
 30
0.0
  0
SPLINE
  5
14d
100
AcDbEntity
  8
0
 62
7
100
AcDbSpline
 70
8
 71
3
 72
8
 73
4
 74
0
 40
0
 40
0
 40
0
 40
0
 40
1
 40
1
 40
1
 40
1
 10
244.527202
 20
293.225001
 30
0.0
 10
245.673562
 20
293.225001
 30
0.0
 10
246.586401
 20
292.312223
 30
0.0
 10
246.586401
 20
291.165873
 30
0.0
  0
SPLINE
  5
14e
100
AcDbEntity
  8
0
 62
7
100
AcDbSpline
 70
8
 71
3
 72
8
 73
4
 74
0
 40
0
 40
0
 40
0
 40
0
 40
1
 40
1
 40
1
 40
1
 10
425.659467
 20
68.798494
 30
0.0
 10
426.796700
 20
68.798407
 30
0.0
 10
427.718561
 20
67.876424
 30
0.0
 10
427.718481
 20
66.739184
 30
0.0
  0
SPLINE
  5
14f
100
AcDbEntity
  8
0
 62
7
100
AcDbSpline
 70
8
 71
3
 72
8
 73
4
 74
0
 40
0
 40
0
 40
0
 40
0
 40
1
 40
1
 40
1
 40
1
 10
58.618035
 20
34.528033
 30
0.0
 10
58.618035
 20
35.674417
 30
0.0
 10
59.530866
 20
36.587180
 30
0.0
 10
60.677213
 20
36.587180
 30
0.0
  0
SPLINE
  5
150
100
AcDbEntity
  8
0
 62
7
100
AcDbSpline
 70
8
 71
3
 72
8
 73
4
 74
0
 40
0
 40
0
 40
0
 40
0
 40
1
 40
1
 40
1
 40
1
 10
393.490764
 20
66.738845
 30
0.0
 10
393.490685
 20
67.876085
 30
0.0
 10
394.412520
 20
68.798068
 30
0.0
 10
395.549752
 20
68.798155
 30
0.0
  0
LWPOLYLINE
  5
151
100
AcDbEntity
  8
0
 62
7
100
AcDbPolyline
 90
2
 70
0
 10
423.600480
 20
66.739184
 30
0.0
 10
423.600480
 20
56.739182
 30
0.0
  0
SPLINE
  5
152
100
AcDbEntity
  8
0
 62
7
100
AcDbSpline
 70
8
 71
3
 72
8
 73
4
 74
0
 40
0
 40
0
 40
0
 40
0
 40
1
 40
1
 40
1
 40
1
 10
395.549752
 20
54.679536
 30
0.0
 10
394.412520
 20
54.679621
 30
0.0
 10
393.490685
 20
55.601606
 30
0.0
 10
393.490764
 20
56.738852
 30
0.0
  0
SPLINE
  5
153
100
AcDbEntity
  8
0
 62
7
100
AcDbSpline
 70
8
 71
3
 72
8
 73
4
 74
0
 40
0
 40
0
 40
0
 40
0
 40
1
 40
1
 40
1
 40
1
 10
342.468038
 20
291.065856
 30
0.0
 10
342.468038
 20
292.212205
 30
0.0
 10
343.380851
 20
293.124982
 30
0.0
 10
344.527211
 20
293.124982
 30
0.0
  0
SPLINE
  5
154
100
AcDbEntity
  8
0
 62
7
100
AcDbSpline
 70
8
 71
3
 72
8
 73
4
 74
0
 40
0
 40
0
 40
0
 40
0
 40
1
 40
1
 40
1
 40
1
 10
9.436393
 20
310.918007
 30
0.0
 10
9.436393
 20
309.771655
 30
0.0
 10
8.523554
 20
308.858812
 30
0.0
 10
7.377210
 20
308.858812
 30
0.0
  0
SPLINE
  5
155
100
AcDbEntity
  8
0
 62
7
100
AcDbSpline
 70
8
 71
3
 72
8
 73
4
 74
0
 40
0
 40
0
 40
0
 40
0
 40
1
 40
1
 40
1
 40
1
 10
344.527211
 20
289.006661
 30
0.0
 10
343.380851
 20
289.006661
 30
0.0
 10
342.468038
 20
289.919505
 30
0.0
 10
342.468038
 20
291.065856
 30
0.0
  0
LWPOLYLINE
  5
156
100
AcDbEntity
  8
0
 62
7
100
AcDbPolyline
 90
2
 70
0
 10
393.490764
 20
56.738852
 30
0.0
 10
393.490764
 20
66.738845
 30
0.0
  0
SPLINE
  5
157
100
AcDbEntity
  8
0
 62
7
100
AcDbSpline
 70
8
 71
3
 72
8
 73
4
 74
0
 40
0
 40
0
 40
0
 40
0
 40
1
 40
1
 40
1
 40
1
 10
60.677213
 20
36.587180
 30
0.0
 10
61.823552
 20
36.587180
 30
0.0
 10
62.736396
 20
35.674417
 30
0.0
 10
62.736396
 20
34.528033
 30
0.0
  0
SPLINE
  5
158
100
AcDbEntity
  8
0
 62
7
100
AcDbSpline
 70
8
 71
3
 72
8
 73
4
 74
0
 40
0
 40
0
 40
0
 40
0
 40
1
 40
1
 40
1
 40
1
 10
44.666452
 20
54.680203
 30
0.0
 10
43.529212
 20
54.680287
 30
0.0
 10
42.607364
 20
55.602270
 30
0.0
 10
42.607454
 20
56.739508
 30
0.0
  0
LWPOLYLINE
  5
159
100
AcDbEntity
  8
0
 62
7
100
AcDbPolyline
 90
2
 70
0
 10
370.616133
 20
279.084844
 30
0.0
 10
370.635977
 20
0.857931
 30
0.0
  0
LWPOLYLINE
  5
15a
100
AcDbEntity
  8
0
 62
7
100
AcDbPolyline
 90
2
 70
0
 10
0.136586
 20
0.858010
 30
0.0
 10
100.636556
 20
0.132285
 30
0.0
  0
LWPOLYLINE
  5
15b
100
AcDbEntity
  8
0
 62
7
100
AcDbPolyline
 90
2
 70
0
 10
46.725456
 20
56.739508
 30
0.0
 10
46.725456
 20
66.739504
 30
0.0
  0
LWPOLYLINE
  5
15c
100
AcDbEntity
  8
0
 62
7
100
AcDbPolyline
 90
2
 70
0
 10
427.718481
 20
66.739184
 30
0.0
 10
427.718481
 20
56.739182
 30
0.0
  0
SPLINE
  5
15d
100
AcDbEntity
  8
0
 62
7
100
AcDbSpline
 70
8
 71
3
 72
8
 73
4
 74
0
 40
0
 40
0
 40
0
 40
0
 40
1
 40
1
 40
1
 40
1
 10
379.726875
 20
193.165196
 30
0.0
 10
380.873208
 20
193.165196
 30
0.0
 10
381.786047
 20
192.252418
 30
0.0
 10
381.786047
 20
191.106069
 30
0.0
  0
SPLINE
  5
15e
100
AcDbEntity
  8
0
 62
7
100
AcDbSpline
 70
8
 71
3
 72
8
 73
4
 74
0
 40
0
 40
0
 40
0
 40
0
 40
1
 40
1
 40
1
 40
1
 10
16.615751
 20
56.739169
 30
0.0
 10
16.615835
 20
55.601932
 30
0.0
 10
15.693987
 20
54.679949
 30
0.0
 10
14.556747
 20
54.679864
 30
0.0
  0
SPLINE
  5
15f
100
AcDbEntity
  8
0
 62
7
100
AcDbSpline
 70
8
 71
3
 72
8
 73
4
 74
0
 40
0
 40
0
 40
0
 40
0
 40
1
 40
1
 40
1
 40
1
 10
423.600480
 20
66.739184
 30
0.0
 10
423.600374
 20
67.876424
 30
0.0
 10
424.522235
 20
68.798407
 30
0.0
 10
425.659467
 20
68.798494
 30
0.0
  0
SPLINE
  5
160
100
AcDbEntity
  8
0
 62
7
100
AcDbSpline
 70
8
 71
3
 72
8
 73
4
 74
0
 40
0
 40
0
 40
0
 40
0
 40
1
 40
1
 40
1
 40
1
 10
60.677213
 20
353.167213
 30
0.0
 10
61.823557
 20
353.167213
 30
0.0
 10
62.736396
 20
352.254437
 30
0.0
 10
62.736396
 20
351.108019
 30
0.0
  0
SPLINE
  5
161
100
AcDbEntity
  8
0
 62
7
100
AcDbSpline
 70
8
 71
3
 72
8
 73
4
 74
0
 40
0
 40
0
 40
0
 40
0
 40
1
 40
1
 40
1
 40
1
 10
12.497752
 20
66.739170
 30
0.0
 10
12.497667
 20
67.876416
 30
0.0
 10
13.419513
 20
68.798396
 30
0.0
 10
14.556753
 20
68.798481
 30
0.0
  0
SPLINE
  5
162
100
AcDbEntity
  8
0
 62
7
100
AcDbSpline
 70
8
 71
3
 72
8
 73
4
 74
0
 40
0
 40
0
 40
0
 40
0
 40
1
 40
1
 40
1
 40
1
 10
379.726848
 20
349.048825
 30
0.0
 10
378.580488
 20
349.048825
 30
0.0
 10
377.667676
 20
349.961669
 30
0.0
 10
377.667676
 20
351.108019
 30
0.0
  0
SPLINE
  5
163
100
AcDbEntity
  8
0
 62
7
100
AcDbSpline
 70
8
 71
3
 72
8
 73
4
 74
0
 40
0
 40
0
 40
0
 40
0
 40
1
 40
1
 40
1
 40
1
 10
246.586401
 20
291.165873
 30
0.0
 10
246.586401
 20
290.019522
 30
0.0
 10
245.673562
 20
289.106612
 30
0.0
 10
244.527202
 20
289.106612
 30
0.0
  0
SPLINE
  5
164
100
AcDbEntity
  8
0
 62
7
100
AcDbSpline
 70
8
 71
3
 72
8
 73
4
 74
0
 40
0
 40
0
 40
0
 40
0
 40
1
 40
1
 40
1
 40
1
 10
44.666455
 20
68.798811
 30
0.0
 10
45.803692
 20
68.798727
 30
0.0
 10
46.725540
 20
67.876741
 30
0.0
 10
46.725456
 20
66.739504
 30
0.0
  0
LWPOLYLINE
  5
165
100
AcDbEntity
  8
0
 62
7
100
AcDbPolyline
 90
2
 70
0
 10
370.635924
 20
0.857931
 30
0.0
 10
484.373949
 20
0.857878
 30
0.0
  0
SPLINE
  5
166
100
AcDbEntity
  8
0
 62
7
100
AcDbSpline
 70
8
 71
3
 72
8
 73
4
 74
0
 40
0
 40
0
 40
0
 40
0
 40
1
 40
1
 40
1
 40
1
 10
62.736396
 20
34.528033
 30
0.0
 10
62.736396
 20
33.381676
 30
0.0
 10
61.823552
 20
32.468813
 30
0.0
 10
60.677213
 20
32.468813
 30
0.0
  0
SPLINE
  5
167
100
AcDbEntity
  8
0
 62
7
100
AcDbSpline
 70
8
 71
3
 72
8
 73
4
 74
0
 40
0
 40
0
 40
0
 40
0
 40
1
 40
1
 40
1
 40
1
 10
14.556747
 20
54.679864
 30
0.0
 10
13.419510
 20
54.679949
 30
0.0
 10
12.497662
 20
55.601932
 30
0.0
 10
12.497752
 20
56.739169
 30
0.0
  0
SPLINE
  5
168
100
AcDbEntity
  8
0
 62
7
100
AcDbSpline
 70
8
 71
3
 72
8
 73
4
 74
0
 40
0
 40
0
 40
0
 40
0
 40
1
 40
1
 40
1
 40
1
 10
42.607454
 20
66.739504
 30
0.0
 10
42.607370
 20
67.876741
 30
0.0
 10
43.529215
 20
68.798727
 30
0.0
 10
44.666455
 20
68.798811
 30
0.0
  0
SPLINE
  5
169
100
AcDbEntity
  8
0
 62
7
100
AcDbSpline
 70
8
 71
3
 72
8
 73
4
 74
0
 40
0
 40
0
 40
0
 40
0
 40
1
 40
1
 40
1
 40
1
 10
10.755394
 20
8.184032
 30
0.0
 10
10.755394
 20
7.037672
 30
0.0
 10
9.842550
 20
6.124806
 30
0.0
 10
8.696211
 20
6.124806
 30
0.0
  0
SPLINE
  5
16a
100
AcDbEntity
  8
0
 62
7
100
AcDbSpline
 70
8
 71
3
 72
8
 73
4
 74
0
 40
0
 40
0
 40
0
 40
0
 40
1
 40
1
 40
1
 40
1
 10
377.667676
 20
34.528033
 30
0.0
 10
377.667676
 20
35.674417
 30
0.0
 10
378.580515
 20
36.587180
 30
0.0
 10
379.726848
 20
36.587180
 30
0.0
  0
SPLINE
  5
16b
100
AcDbEntity
  8
0
 62
7
100
AcDbSpline
 70
8
 71
3
 72
8
 73
4
 74
0
 40
0
 40
0
 40
0
 40
0
 40
1
 40
1
 40
1
 40
1
 10
377.667676
 20
191.106069
 30
0.0
 10
377.667676
 20
192.252418
 30
0.0
 10
378.580515
 20
193.165196
 30
0.0
 10
379.726875
 20
193.165196
 30
0.0
  0
SPLINE
  5
16c
100
AcDbEntity
  8
0
 62
7
100
AcDbSpline
 70
8
 71
3
 72
8
 73
4
 74
0
 40
0
 40
0
 40
0
 40
0
 40
1
 40
1
 40
1
 40
1
 10
379.726848
 20
353.167213
 30
0.0
 10
380.873182
 20
353.167213
 30
0.0
 10
381.786021
 20
352.254437
 30
0.0
 10
381.786021
 20
351.108019
 30
0.0
  0
SPLINE
  5
16d
100
AcDbEntity
  8
0
 62
7
100
AcDbSpline
 70
8
 71
3
 72
8
 73
4
 74
0
 40
0
 40
0
 40
0
 40
0
 40
1
 40
1
 40
1
 40
1
 10
475.117660
 20
110.918041
 30
0.0
 10
475.117660
 20
112.064425
 30
0.0
 10
476.030498
 20
112.977187
 30
0.0
 10
477.176859
 20
112.977187
 30
0.0
  0
SPLINE
  5
16e
100
AcDbEntity
  8
0
 62
7
100
AcDbSpline
 70
8
 71
3
 72
8
 73
4
 74
0
 40
0
 40
0
 40
0
 40
0
 40
1
 40
1
 40
1
 40
1
 10
456.735018
 20
8.184032
 30
0.0
 10
456.735018
 20
7.037672
 30
0.0
 10
455.822179
 20
6.124806
 30
0.0
 10
454.675845
 20
6.124806
 30
0.0
  0
SPLINE
  5
16f
100
AcDbEntity
  8
0
 62
7
100
AcDbSpline
 70
8
 71
3
 72
8
 73
4
 74
0
 40
0
 40
0
 40
0
 40
0
 40
1
 40
1
 40
1
 40
1
 10
58.618035
 20
451.108036
 30
0.0
 10
58.618035
 20
452.254452
 30
0.0
 10
59.530866
 20
453.167164
 30
0.0
 10
60.677213
 20
453.167164
 30
0.0
  0
SPLINE
  5
170
100
AcDbEntity
  8
0
 62
7
100
AcDbSpline
 70
8
 71
3
 72
8
 73
4
 74
0
 40
0
 40
0
 40
0
 40
0
 40
1
 40
1
 40
1
 40
1
 10
144.427209
 20
289.006643
 30
0.0
 10
143.280862
 20
289.006643
 30
0.0
 10
142.368031
 20
289.919487
 30
0.0
 10
142.368031
 20
291.065838
 30
0.0
  0
SPLINE
  5
171
100
AcDbEntity
  8
0
 62
7
100
AcDbSpline
 70
8
 71
3
 72
8
 73
4
 74
0
 40
0
 40
0
 40
0
 40
0
 40
1
 40
1
 40
1
 40
1
 10
477.176859
 20
312.627163
 30
0.0
 10
478.323166
 20
312.627163
 30
0.0
 10
479.236031
 20
311.714451
 30
0.0
 10
479.236031
 20
310.568035
 30
0.0
  0
SPLINE
  5
172
100
AcDbEntity
  8
0
 62
7
100
AcDbSpline
 70
8
 71
3
 72
8
 73
4
 74
0
 40
0
 40
0
 40
0
 40
0
 40
1
 40
1
 40
1
 40
1
 10
344.527211
 20
293.124982
 30
0.0
 10
345.673545
 20
293.124982
 30
0.0
 10
346.586383
 20
292.212205
 30
0.0
 10
346.586383
 20
291.065856
 30
0.0
  0
SPLINE
  5
173
100
AcDbEntity
  8
0
 62
7
100
AcDbSpline
 70
8
 71
3
 72
8
 73
4
 74
0
 40
0
 40
0
 40
0
 40
0
 40
1
 40
1
 40
1
 40
1
 10
146.486395
 20
291.065838
 30
0.0
 10
146.486395
 20
289.919487
 30
0.0
 10
145.573556
 20
289.006643
 30
0.0
 10
144.427209
 20
289.006643
 30
0.0
  0
SPLINE
  5
174
100
AcDbEntity
  8
0
 62
7
100
AcDbSpline
 70
8
 71
3
 72
8
 73
4
 74
0
 40
0
 40
0
 40
0
 40
0
 40
1
 40
1
 40
1
 40
1
 10
475.117660
 20
310.568035
 30
0.0
 10
475.117660
 20
311.714451
 30
0.0
 10
476.030498
 20
312.627163
 30
0.0
 10
477.176859
 20
312.627163
 30
0.0
  0
SPLINE
  5
175
100
AcDbEntity
  8
0
 62
7
100
AcDbSpline
 70
8
 71
3
 72
8
 73
4
 74
0
 40
0
 40
0
 40
0
 40
0
 40
1
 40
1
 40
1
 40
1
 10
379.726848
 20
32.468813
 30
0.0
 10
378.580515
 20
32.468813
 30
0.0
 10
377.667676
 20
33.381676
 30
0.0
 10
377.667676
 20
34.528033
 30
0.0
  0
SPLINE
  5
176
100
AcDbEntity
  8
0
 62
7
100
AcDbSpline
 70
8
 71
3
 72
8
 73
4
 74
0
 40
0
 40
0
 40
0
 40
0
 40
1
 40
1
 40
1
 40
1
 10
454.675845
 20
10.243178
 30
0.0
 10
455.822179
 20
10.243178
 30
0.0
 10
456.735018
 20
9.330418
 30
0.0
 10
456.735018
 20
8.184032
 30
0.0
  0
SPLINE
  5
177
100
AcDbEntity
  8
0
 62
7
100
AcDbSpline
 70
8
 71
3
 72
8
 73
4
 74
0
 40
0
 40
0
 40
0
 40
0
 40
1
 40
1
 40
1
 40
1
 10
7.377210
 20
308.858812
 30
0.0
 10
6.230863
 20
308.858812
 30
0.0
 10
5.318029
 20
309.771655
 30
0.0
 10
5.318029
 20
310.918007
 30
0.0
  0
SPLINE
  5
178
100
AcDbEntity
  8
0
 62
7
100
AcDbSpline
 70
8
 71
3
 72
8
 73
4
 74
0
 40
0
 40
0
 40
0
 40
0
 40
1
 40
1
 40
1
 40
1
 10
60.677213
 20
453.167164
 30
0.0
 10
61.823552
 20
453.167164
 30
0.0
 10
62.736396
 20
452.254452
 30
0.0
 10
62.736396
 20
451.108036
 30
0.0
  0
SPLINE
  5
179
100
AcDbEntity
  8
0
 62
7
100
AcDbSpline
 70
8
 71
3
 72
8
 73
4
 74
0
 40
0
 40
0
 40
0
 40
0
 40
1
 40
1
 40
1
 40
1
 10
60.677213
 20
449.048842
 30
0.0
 10
59.530866
 20
449.048842
 30
0.0
 10
58.618035
 20
449.961684
 30
0.0
 10
58.618035
 20
451.108036
 30
0.0
  0
SPLINE
  5
17a
100
AcDbEntity
  8
0
 62
7
100
AcDbSpline
 70
8
 71
3
 72
8
 73
4
 74
0
 40
0
 40
0
 40
0
 40
0
 40
1
 40
1
 40
1
 40
1
 10
379.726875
 20
189.046875
 30
0.0
 10
378.580515
 20
189.046875
 30
0.0
 10
377.667676
 20
189.959716
 30
0.0
 10
377.667676
 20
191.106069
 30
0.0
  0
SPLINE
  5
17b
100
AcDbEntity
  8
0
 62
7
100
AcDbSpline
 70
8
 71
3
 72
8
 73
4
 74
0
 40
0
 40
0
 40
0
 40
0
 40
1
 40
1
 40
1
 40
1
 10
434.692448
 20
35.518924
 30
0.0
 10
437.086478
 20
35.519128
 30
0.0
 10
439.027382
 20
33.349830
 30
0.0
 10
439.027620
 20
30.673668
 30
0.0
  0
SPLINE
  5
17c
100
AcDbEntity
  8
0
 62
7
100
AcDbSpline
 70
8
 71
3
 72
8
 73
4
 74
0
 40
0
 40
0
 40
0
 40
0
 40
1
 40
1
 40
1
 40
1
 10
8.696211
 20
6.124806
 30
0.0
 10
7.549864
 20
6.124806
 30
0.0
 10
6.637027
 20
7.037672
 30
0.0
 10
6.637027
 20
8.184032
 30
0.0
  0
SPLINE
  5
17d
100
AcDbEntity
  8
0
 62
7
100
AcDbSpline
 70
8
 71
3
 72
8
 73
4
 74
0
 40
0
 40
0
 40
0
 40
0
 40
1
 40
1
 40
1
 40
1
 10
29.916204
 20
6.124806
 30
0.0
 10
28.769865
 20
6.124806
 30
0.0
 10
27.857031
 20
7.037672
 30
0.0
 10
27.857031
 20
8.184032
 30
0.0
  0
SPLINE
  5
17e
100
AcDbEntity
  8
0
 62
7
100
AcDbSpline
 70
8
 71
3
 72
8
 73
4
 74
0
 40
0
 40
0
 40
0
 40
0
 40
1
 40
1
 40
1
 40
1
 10
477.176859
 20
112.977187
 30
0.0
 10
478.323166
 20
112.977187
 30
0.0
 10
479.236031
 20
112.064425
 30
0.0
 10
479.236031
 20
110.918041
 30
0.0
  0
SPLINE
  5
17f
100
AcDbEntity
  8
0
 62
7
100
AcDbSpline
 70
8
 71
3
 72
8
 73
4
 74
0
 40
0
 40
0
 40
0
 40
0
 40
1
 40
1
 40
1
 40
1
 10
5.318029
 20
310.918007
 30
0.0
 10
5.318029
 20
312.064423
 30
0.0
 10
6.230863
 20
312.977200
 30
0.0
 10
7.377210
 20
312.977200
 30
0.0
  0
SPLINE
  5
180
100
AcDbEntity
  8
0
 62
7
100
AcDbSpline
 70
8
 71
3
 72
8
 73
4
 74
0
 40
0
 40
0
 40
0
 40
0
 40
1
 40
1
 40
1
 40
1
 10
38.927209
 20
379.143168
 30
0.0
 10
40.073542
 20
379.143168
 30
0.0
 10
40.986387
 20
378.230459
 30
0.0
 10
40.986387
 20
377.084041
 30
0.0
  0
SPLINE
  5
181
100
AcDbEntity
  8
0
 62
7
100
AcDbSpline
 70
8
 71
3
 72
8
 73
4
 74
0
 40
0
 40
0
 40
0
 40
0
 40
1
 40
1
 40
1
 40
1
 10
379.726848
 20
36.587180
 30
0.0
 10
380.873208
 20
36.587180
 30
0.0
 10
381.786047
 20
35.674417
 30
0.0
 10
381.786047
 20
34.528033
 30
0.0
  0
SPLINE
  5
182
100
AcDbEntity
  8
0
 62
7
100
AcDbSpline
 70
8
 71
3
 72
8
 73
4
 74
0
 40
0
 40
0
 40
0
 40
0
 40
1
 40
1
 40
1
 40
1
 10
475.895852
 20
6.124806
 30
0.0
 10
474.749492
 20
6.124806
 30
0.0
 10
473.836653
 20
7.037672
 30
0.0
 10
473.836653
 20
8.184032
 30
0.0
  0
SPLINE
  5
183
100
AcDbEntity
  8
0
 62
7
100
AcDbSpline
 70
8
 71
3
 72
8
 73
4
 74
0
 40
0
 40
0
 40
0
 40
0
 40
1
 40
1
 40
1
 40
1
 10
7.377213
 20
108.858847
 30
0.0
 10
6.230863
 20
108.858847
 30
0.0
 10
5.318029
 20
109.771692
 30
0.0
 10
5.318029
 20
110.918054
 30
0.0
  0
SPLINE
  5
184
100
AcDbEntity
  8
0
 62
7
100
AcDbSpline
 70
8
 71
3
 72
8
 73
4
 74
0
 40
0
 40
0
 40
0
 40
0
 40
1
 40
1
 40
1
 40
1
 10
46.725456
 20
56.739508
 30
0.0
 10
46.725546
 20
55.602270
 30
0.0
 10
45.803698
 20
54.680287
 30
0.0
 10
44.666452
 20
54.680203
 30
0.0
  0
SPLINE
  5
185
100
AcDbEntity
  8
0
 62
7
100
AcDbSpline
 70
8
 71
3
 72
8
 73
4
 74
0
 40
0
 40
0
 40
0
 40
0
 40
1
 40
1
 40
1
 40
1
 10
62.736396
 20
191.103013
 30
0.0
 10
62.736396
 20
189.956663
 30
0.0
 10
61.823557
 20
189.043819
 30
0.0
 10
60.677213
 20
189.043819
 30
0.0
  0
SPLINE
  5
186
100
AcDbEntity
  8
0
 62
7
100
AcDbSpline
 70
8
 71
3
 72
8
 73
4
 74
0
 40
0
 40
0
 40
0
 40
0
 40
1
 40
1
 40
1
 40
1
 10
379.726848
 20
449.048842
 30
0.0
 10
378.580488
 20
449.048842
 30
0.0
 10
377.667676
 20
449.961684
 30
0.0
 10
377.667676
 20
451.108036
 30
0.0
  0
SPLINE
  5
187
100
AcDbEntity
  8
0
 62
7
100
AcDbSpline
 70
8
 71
3
 72
8
 73
4
 74
0
 40
0
 40
0
 40
0
 40
0
 40
1
 40
1
 40
1
 40
1
 10
477.176859
 20
308.508840
 30
0.0
 10
476.030498
 20
308.508840
 30
0.0
 10
475.117660
 20
309.421684
 30
0.0
 10
475.117660
 20
310.568035
 30
0.0
  0
SPLINE
  5
188
100
AcDbEntity
  8
0
 62
7
100
AcDbSpline
 70
8
 71
3
 72
8
 73
4
 74
0
 40
0
 40
0
 40
0
 40
0
 40
1
 40
1
 40
1
 40
1
 10
10.736032
 20
472.488758
 30
0.0
 10
9.847376
 20
472.488758
 30
0.0
 10
9.126979
 20
473.209153
 30
0.0
 10
9.126974
 20
474.097809
 30
0.0
  0
SPLINE
  5
189
100
AcDbEntity
  8
0
 62
7
100
AcDbSpline
 70
8
 71
3
 72
8
 73
4
 74
0
 40
0
 40
0
 40
0
 40
0
 40
1
 40
1
 40
1
 40
1
 10
377.667676
 20
351.108019
 30
0.0
 10
377.667676
 20
352.254437
 30
0.0
 10
378.580488
 20
353.167213
 30
0.0
 10
379.726848
 20
353.167213
 30
0.0
  0
SPLINE
  5
18a
100
AcDbEntity
  8
0
 62
7
100
AcDbSpline
 70
8
 71
3
 72
8
 73
4
 74
0
 40
0
 40
0
 40
0
 40
0
 40
1
 40
1
 40
1
 40
1
 10
474.717424
 20
472.447079
 30
0.0
 10
475.019182
 20
472.748833
 30
0.0
 10
475.188700
 20
473.158104
 30
0.0
 10
475.188700
 20
473.584850
 30
0.0
  0
SPLINE
  5
18b
100
AcDbEntity
  8
0
 62
7
100
AcDbSpline
 70
8
 71
3
 72
8
 73
4
 74
0
 40
0
 40
0
 40
0
 40
0
 40
1
 40
1
 40
1
 40
1
 10
381.786021
 20
351.108019
 30
0.0
 10
381.786021
 20
349.961669
 30
0.0
 10
380.873182
 20
349.048825
 30
0.0
 10
379.726848
 20
349.048825
 30
0.0
  0
SPLINE
  5
18c
100
AcDbEntity
  8
0
 62
7
100
AcDbSpline
 70
8
 71
3
 72
8
 73
4
 74
0
 40
0
 40
0
 40
0
 40
0
 40
1
 40
1
 40
1
 40
1
 10
471.876831
 20
30.993179
 30
0.0
 10
473.023165
 20
30.993179
 30
0.0
 10
473.936004
 20
30.080393
 30
0.0
 10
473.936004
 20
28.934033
 30
0.0
  0
SPLINE
  5
18d
100
AcDbEntity
  8
0
 62
7
100
AcDbSpline
 70
8
 71
3
 72
8
 73
4
 74
0
 40
0
 40
0
 40
0
 40
0
 40
1
 40
1
 40
1
 40
1
 10
479.236031
 20
310.568035
 30
0.0
 10
479.236031
 20
309.421684
 30
0.0
 10
478.323166
 20
308.508840
 30
0.0
 10
477.176859
 20
308.508840
 30
0.0
  0
SPLINE
  5
18e
100
AcDbEntity
  8
0
 62
7
100
AcDbSpline
 70
8
 71
3
 72
8
 73
4
 74
0
 40
0
 40
0
 40
0
 40
0
 40
1
 40
1
 40
1
 40
1
 10
477.176859
 20
108.858834
 30
0.0
 10
476.030498
 20
108.858834
 30
0.0
 10
475.117660
 20
109.771684
 30
0.0
 10
475.117660
 20
110.918041
 30
0.0
  0
SPLINE
  5
18f
100
AcDbEntity
  8
0
 62
7
100
AcDbSpline
 70
8
 71
3
 72
8
 73
4
 74
0
 40
0
 40
0
 40
0
 40
0
 40
1
 40
1
 40
1
 40
1
 10
71.057211
 20
6.124806
 30
0.0
 10
69.910859
 20
6.124806
 30
0.0
 10
68.998033
 20
7.037672
 30
0.0
 10
68.998033
 20
8.184032
 30
0.0
  0
SPLINE
  5
190
100
AcDbEntity
  8
0
 62
7
100
AcDbSpline
 70
8
 71
3
 72
8
 73
4
 74
0
 40
0
 40
0
 40
0
 40
0
 40
1
 40
1
 40
1
 40
1
 10
381.786047
 20
191.106069
 30
0.0
 10
381.786047
 20
189.959716
 30
0.0
 10
380.873208
 20
189.046875
 30
0.0
 10
379.726875
 20
189.046875
 30
0.0
  0
SPLINE
  5
191
100
AcDbEntity
  8
0
 62
7
100
AcDbSpline
 70
8
 71
3
 72
8
 73
4
 74
0
 40
0
 40
0
 40
0
 40
0
 40
1
 40
1
 40
1
 40
1
 10
396.686666
 20
7.984033
 30
0.0
 10
396.686666
 20
9.130420
 30
0.0
 10
397.599479
 20
10.043179
 30
0.0
 10
398.745839
 20
10.043179
 30
0.0
  0
SPLINE
  5
192
100
AcDbEntity
  8
0
 62
7
100
AcDbSpline
 70
8
 71
3
 72
8
 73
4
 74
0
 40
0
 40
0
 40
0
 40
0
 40
1
 40
1
 40
1
 40
1
 10
477.955025
 20
8.184032
 30
0.0
 10
477.955025
 20
7.037672
 30
0.0
 10
477.042186
 20
6.124806
 30
0.0
 10
475.895852
 20
6.124806
 30
0.0
  0
SPLINE
  5
193
100
AcDbEntity
  8
0
 62
7
100
AcDbSpline
 70
8
 71
3
 72
8
 73
4
 74
0
 40
0
 40
0
 40
0
 40
0
 40
1
 40
1
 40
1
 40
1
 10
5.318029
 20
110.918054
 30
0.0
 10
5.318029
 20
112.064438
 30
0.0
 10
6.230863
 20
112.977201
 30
0.0
 10
7.377213
 20
112.977201
 30
0.0
  0
SPLINE
  5
194
100
AcDbEntity
  8
0
 62
7
100
AcDbSpline
 70
8
 71
3
 72
8
 73
4
 74
0
 40
0
 40
0
 40
0
 40
0
 40
1
 40
1
 40
1
 40
1
 10
244.527202
 20
289.106612
 30
0.0
 10
243.380868
 20
289.106612
 30
0.0
 10
242.468029
 20
290.019522
 30
0.0
 10
242.468029
 20
291.165873
 30
0.0
  0
SPLINE
  5
195
100
AcDbEntity
  8
0
 62
7
100
AcDbSpline
 70
8
 71
3
 72
8
 73
4
 74
0
 40
0
 40
0
 40
0
 40
0
 40
1
 40
1
 40
1
 40
1
 10
425.659467
 20
54.679877
 30
0.0
 10
424.522235
 20
54.679962
 30
0.0
 10
423.600374
 20
55.601942
 30
0.0
 10
423.600480
 20
56.739182
 30
0.0
  0
SPLINE
  5
196
100
AcDbEntity
  8
0
 62
7
100
AcDbSpline
 70
8
 71
3
 72
8
 73
4
 74
0
 40
0
 40
0
 40
0
 40
0
 40
1
 40
1
 40
1
 40
1
 10
60.677213
 20
193.162207
 30
0.0
 10
61.823557
 20
193.162207
 30
0.0
 10
62.736396
 20
192.249431
 30
0.0
 10
62.736396
 20
191.103013
 30
0.0
  0
SPLINE
  5
197
100
AcDbEntity
  8
0
 62
7
100
AcDbSpline
 70
8
 71
3
 72
8
 73
4
 74
0
 40
0
 40
0
 40
0
 40
0
 40
1
 40
1
 40
1
 40
1
 10
439.027620
 20
30.673668
 30
0.0
 10
439.027382
 20
27.997487
 30
0.0
 10
437.086478
 20
25.828195
 30
0.0
 10
434.692448
 20
25.828406
 30
0.0
  0
SPLINE
  5
198
100
AcDbEntity
  8
0
 62
7
100
AcDbSpline
 70
8
 71
3
 72
8
 73
4
 74
0
 40
0
 40
0
 40
0
 40
0
 40
1
 40
1
 40
1
 40
1
 10
27.857031
 20
8.184032
 30
0.0
 10
27.857031
 20
9.330418
 30
0.0
 10
28.769865
 20
10.243178
 30
0.0
 10
29.916204
 20
10.243178
 30
0.0
  0
SPLINE
  5
199
100
AcDbEntity
  8
0
 62
7
100
AcDbSpline
 70
8
 71
3
 72
8
 73
4
 74
0
 40
0
 40
0
 40
0
 40
0
 40
1
 40
1
 40
1
 40
1
 10
454.675845
 20
6.124806
 30
0.0
 10
453.529485
 20
6.124806
 30
0.0
 10
452.616673
 20
7.037672
 30
0.0
 10
452.616673
 20
8.184032
 30
0.0
  0
SPLINE
  5
19a
100
AcDbEntity
  8
0
 62
7
100
AcDbSpline
 70
8
 71
3
 72
8
 73
4
 74
0
 40
0
 40
0
 40
0
 40
0
 40
1
 40
1
 40
1
 40
1
 10
419.965846
 20
5.924808
 30
0.0
 10
418.819486
 20
5.924808
 30
0.0
 10
417.906647
 20
6.837673
 30
0.0
 10
417.906647
 20
7.984033
 30
0.0
  0
SPLINE
  5
19b
100
AcDbEntity
  8
0
 62
7
100
AcDbSpline
 70
8
 71
3
 72
8
 73
4
 74
0
 40
0
 40
0
 40
0
 40
0
 40
1
 40
1
 40
1
 40
1
 10
377.667676
 20
451.108036
 30
0.0
 10
377.667676
 20
452.254452
 30
0.0
 10
378.580488
 20
453.167164
 30
0.0
 10
379.726848
 20
453.167164
 30
0.0
  0
SPLINE
  5
19c
100
AcDbEntity
  8
0
 62
7
100
AcDbSpline
 70
8
 71
3
 72
8
 73
4
 74
0
 40
0
 40
0
 40
0
 40
0
 40
1
 40
1
 40
1
 40
1
 10
471.876831
 20
26.874807
 30
0.0
 10
470.730471
 20
26.874807
 30
0.0
 10
469.817658
 20
27.787646
 30
0.0
 10
469.817658
 20
28.934033
 30
0.0
  0
SPLINE
  5
19d
100
AcDbEntity
  8
0
 62
7
100
AcDbSpline
 70
8
 71
3
 72
8
 73
4
 74
0
 40
0
 40
0
 40
0
 40
0
 40
1
 40
1
 40
1
 40
1
 10
381.786047
 20
34.528033
 30
0.0
 10
381.786047
 20
33.381676
 30
0.0
 10
380.873208
 20
32.468813
 30
0.0
 10
379.726848
 20
32.468813
 30
0.0
  0
SPLINE
  5
19e
100
AcDbEntity
  8
0
 62
7
100
AcDbSpline
 70
8
 71
3
 72
8
 73
4
 74
0
 40
0
 40
0
 40
0
 40
0
 40
1
 40
1
 40
1
 40
1
 10
7.377213
 20
112.977201
 30
0.0
 10
8.523554
 20
112.977201
 30
0.0
 10
9.436393
 20
112.064438
 30
0.0
 10
9.436393
 20
110.918054
 30
0.0
  0
SPLINE
  5
19f
100
AcDbEntity
  8
0
 62
7
100
AcDbSpline
 70
8
 71
3
 72
8
 73
4
 74
0
 40
0
 40
0
 40
0
 40
0
 40
1
 40
1
 40
1
 40
1
 10
29.916204
 20
10.243178
 30
0.0
 10
31.062556
 20
10.243178
 30
0.0
 10
31.975393
 20
9.330418
 30
0.0
 10
31.975393
 20
8.184032
 30
0.0
  0
SPLINE
  5
1a0
100
AcDbEntity
  8
0
 62
7
100
AcDbSpline
 70
8
 71
3
 72
8
 73
4
 74
0
 40
0
 40
0
 40
0
 40
0
 40
1
 40
1
 40
1
 40
1
 10
473.836653
 20
8.184032
 30
0.0
 10
473.836653
 20
9.330418
 30
0.0
 10
474.749492
 20
10.243178
 30
0.0
 10
475.895852
 20
10.243178
 30
0.0
  0
SPLINE
  5
1a1
100
AcDbEntity
  8
0
 62
7
100
AcDbSpline
 70
8
 71
3
 72
8
 73
4
 74
0
 40
0
 40
0
 40
0
 40
0
 40
1
 40
1
 40
1
 40
1
 10
398.745839
 20
10.043179
 30
0.0
 10
399.892173
 20
10.043179
 30
0.0
 10
400.805012
 20
9.130420
 30
0.0
 10
400.805012
 20
7.984033
 30
0.0
  0
SPLINE
  5
1a2
100
AcDbEntity
  8
0
 62
7
100
AcDbSpline
 70
8
 71
3
 72
8
 73
4
 74
0
 40
0
 40
0
 40
0
 40
0
 40
1
 40
1
 40
1
 40
1
 10
31.975393
 20
8.184032
 30
0.0
 10
31.975393
 20
7.037672
 30
0.0
 10
31.062556
 20
6.124806
 30
0.0
 10
29.916204
 20
6.124806
 30
0.0
  0
SPLINE
  5
1a3
100
AcDbEntity
  8
0
 62
7
100
AcDbSpline
 70
8
 71
3
 72
8
 73
4
 74
0
 40
0
 40
0
 40
0
 40
0
 40
1
 40
1
 40
1
 40
1
 10
475.895852
 20
10.243178
 30
0.0
 10
477.042186
 20
10.243178
 30
0.0
 10
477.955025
 20
9.330418
 30
0.0
 10
477.955025
 20
8.184032
 30
0.0
  0
SPLINE
  5
1a4
100
AcDbEntity
  8
0
 62
7
100
AcDbSpline
 70
8
 71
3
 72
8
 73
4
 74
0
 40
0
 40
0
 40
0
 40
0
 40
1
 40
1
 40
1
 40
1
 10
452.616673
 20
8.184032
 30
0.0
 10
452.616673
 20
9.330418
 30
0.0
 10
453.529485
 20
10.243178
 30
0.0
 10
454.675845
 20
10.243178
 30
0.0
  0
LWPOLYLINE
  5
1a5
100
AcDbEntity
  8
0
 62
7
100
AcDbPolyline
 90
2
 70
0
 10
16.615751
 20
56.739169
 30
0.0
 10
16.615751
 20
66.739170
 30
0.0
  0
ENDSEC
  0
SECTION
  2
OBJECTS
  0
DICTIONARY
  5
C
330
0
100
AcDbDictionary
  3
ACAD_GROUP
350
D
  3
ACAD_MLINESTYLE
350
17
  0
DICTIONARY
  5
D
330
C
100
AcDbDictionary
  0
DICTIONARY
  5
1A
330
C
100
AcDbDictionary
  0
DICTIONARY
  5
17
330
C
100
AcDbDictionary
  3
STANDARD
350
18
  0
DICTIONARY
  5
19
330
C
100
AcDbDictionary
  0
ENDSEC
  0
EOF
