  0
SECTION
  2
HEADER
  9
$ACADVER
  1
AC1014
  9
$HANDSEED
  5
FFFF
  9
$MEASUREMENT
 70
     1
  0
ENDSEC
  0
SECTION
  2
TABLES
  0
TABLE
  2
VPORT
  5
8
330
0
100
AcDbSymbolTable
 70
     4
  0
VPORT
  5
2E
330
8
100
AcDbSymbolTableRecord
100
AcDbViewportTableRecord
  2
*ACTIVE
 70
     0
 10
0.0
 20
0.0
 11
1.0
 21
1.0
 12
210.0
 22
148.5
 13
0.0
 23
0.0
 14
10.0
 24
10.0
 15
10.0
 25
10.0
 16
0.0
 26
0.0
 36
1.0
 17
0.0
 27
0.0
 37
0.0
 40
341.0
 41
1.24
 42
50.0
 43
0.0
 44
0.0
 50
0.0
 51
0.0
 71
     0
 72
   100
 73
     1
 74
     3
 75
     0
 76
     0
 77
     0
 78
     0
  0
ENDTAB
  0
TABLE
  2
LTYPE
  5
5
330
0
100
AcDbSymbolTable
 70
     1
  0
LTYPE
  5
14
330
5
100
AcDbSymbolTableRecord
100
AcDbLinetypeTableRecord
  2
BYBLOCK
 70
     0
  3

 72
    65
 73
     0
 40
0.0
  0
LTYPE
  5
15
330
5
100
AcDbSymbolTableRecord
100
AcDbLinetypeTableRecord
  2
BYLAYER
 70
     0
  3

 72
    65
 73
     0
 40
0.0
  0
LTYPE
  5
16
330
5
100
AcDbSymbolTableRecord
100
AcDbLinetypeTableRecord
  2
CONTINUOUS
 70
     0
  3
Solid line
 72
    65
 73
     0
 40
0.0
  0
ENDTAB
  0
TABLE
  2
LAYER
  5
2
100
AcDbSymbolTable
 70
1
  0
LAYER
  5
50
100
AcDbSymbolTableRecord
100
AcDbLayerTableRecord
  2
0
 70
0
  6
CONTINUOUS
  0
ENDTAB
  0
TABLE
  2
STYLE
  5
3
330
0
100
AcDbSymbolTable
 70
     1
  0
STYLE
  5
11
330
3
100
AcDbSymbolTableRecord
100
AcDbTextStyleTableRecord
  2
STANDARD
 70
     0
 40
0.0
 41
1.0
 50
0.0
 71
     0
 42
2.5
  3
txt
  4

  0
ENDTAB
  0
TABLE
  2
VIEW
  5
6
330
0
100
AcDbSymbolTable
 70
     0
  0
ENDTAB
  0
TABLE
  2
UCS
  5
7
330
0
100
AcDbSymbolTable
 70
     0
  0
ENDTAB
  0
TABLE
  2
APPID
  5
9
330
0
100
AcDbSymbolTable
 70
     2
  0
APPID
  5
12
330
9
100
AcDbSymbolTableRecord
100
AcDbRegAppTableRecord
  2
ACAD
 70
     0
  0
ENDTAB
  0
TABLE
  2
DIMSTYLE
  5
A
330
0
100
AcDbSymbolTable
 70
     1
  0
DIMSTYLE
105
27
330
A
100
AcDbSymbolTableRecord
100
AcDbDimStyleTableRecord
  2
ISO-25
 70
     0
  3

  4

  5

  6

  7

 40
1.0
 41
2.5
 42
0.625
 43
3.75
 44
1.25
 45
0.0
 46
0.0
 47
0.0
 48
0.0
140
2.5
141
2.5
142
0.0
143
0.03937007874016
144
1.0
145
0.0
146
1.0
147
0.625
 71
     0
 72
     0
 73
     0
 74
     0
 75
     0
 76
     0
 77
     1
 78
     8
170
     0
171
     3
172
     1
173
     0
174
     0
175
     0
176
     0
177
     0
178
     0
270
     2
271
     2
272
     2
273
     2
274
     3
340
11
275
     0
280
     0
281
     0
282
     0
283
     0
284
     8
285
     0
286
     0
287
     3
288
     0
  0
ENDTAB
  0
TABLE
  2
BLOCK_RECORD
  5
1
330
0
100
AcDbSymbolTable
 70
     1
  0
BLOCK_RECORD
  5
1F
330
1
100
AcDbSymbolTableRecord
100
AcDbBlockTableRecord
  2
*MODEL_SPACE
  0
BLOCK_RECORD
  5
1B
330
1
100
AcDbSymbolTableRecord
100
AcDbBlockTableRecord
  2
*PAPER_SPACE
  0
ENDTAB
  0
ENDSEC
  0
SECTION
  2
BLOCKS
  0
BLOCK
  5
20
330
1F
100
AcDbEntity
  8
0
100
AcDbBlockBegin
  2
*MODEL_SPACE
 70
     0
 10
0.0
 20
0.0
 30
0.0
  3
*MODEL_SPACE
  1

  0
ENDBLK
  5
21
330
1F
100
AcDbEntity
  8
0
100
AcDbBlockEnd
  0
BLOCK
  5
1C
330
1B
100
AcDbEntity
 67
     1
  8
0
100
AcDbBlockBegin
  2
*PAPER_SPACE
  1

  0
ENDBLK
  5
1D
330
1B
100
AcDbEntity
 67
     1
  8
0
100
AcDbBlockEnd
  0
ENDSEC
  0
SECTION
  2
ENTITIES
  0
SPLINE
  5
100
100
AcDbEntity
  8
0
 62
7
100
AcDbSpline
 70
8
 71
3
 72
8
 73
4
 74
0
 40
0
 40
0
 40
0
 40
0
 40
1
 40
1
 40
1
 40
1
 10
133.291474
 20
476.525476
 30
0.0
 10
133.291474
 20
475.388363
 30
0.0
 10
134.213282
 20
474.466552
 30
0.0
 10
135.350409
 20
474.466552
 30
0.0
  0
SPLINE
  5
101
100
AcDbEntity
  8
0
 62
7
100
AcDbSpline
 70
8
 71
3
 72
8
 73
4
 74
0
 40
0
 40
0
 40
0
 40
0
 40
1
 40
1
 40
1
 40
1
 10
7.369201
 20
458.859337
 30
0.0
 10
7.913846
 20
458.859337
 30
0.0
 10
8.436160
 20
459.075692
 30
0.0
 10
8.821288
 20
459.460804
 30
0.0
  0
SPLINE
  5
102
100
AcDbEntity
  8
0
 62
7
100
AcDbSpline
 70
8
 71
3
 72
8
 73
4
 74
0
 40
0
 40
0
 40
0
 40
0
 40
1
 40
1
 40
1
 40
1
 10
8.821288
 20
441.144938
 30
0.0
 10
8.436160
 20
441.530049
 30
0.0
 10
7.913846
 20
441.746402
 30
0.0
 10
7.369201
 20
441.746402
 30
0.0
  0
SPLINE
  5
103
100
AcDbEntity
  8
0
 62
7
100
AcDbSpline
 70
8
 71
3
 72
8
 73
4
 74
0
 40
0
 40
0
 40
0
 40
0
 40
1
 40
1
 40
1
 40
1
 10
135.350409
 20
474.466552
 30
0.0
 10
136.487509
 20
474.466552
 30
0.0
 10
137.409343
 20
475.388363
 30
0.0
 10
137.409343
 20
476.525476
 30
0.0
  0
LWPOLYLINE
  5
104
100
AcDbEntity
  8
0
 62
7
100
AcDbPolyline
 90
2
 70
0
 10
0.132292
 20
0.132294
 30
0.0
 10
0.132292
 20
484.132295
 30
0.0
  0
SPLINE
  5
105
100
AcDbEntity
  8
0
 62
7
100
AcDbSpline
 70
8
 71
3
 72
8
 73
4
 74
0
 40
0
 40
0
 40
0
 40
0
 40
1
 40
1
 40
1
 40
1
 10
5.917142
 20
462.364937
 30
0.0
 10
5.532041
 20
461.979825
 30
0.0
 10
5.315664
 20
461.457500
 30
0.0
 10
5.315664
 20
460.912869
 30
0.0
  0
SPLINE
  5
106
100
AcDbEntity
  8
0
 62
7
100
AcDbSpline
 70
8
 71
3
 72
8
 73
4
 74
0
 40
0
 40
0
 40
0
 40
0
 40
1
 40
1
 40
1
 40
1
 10
135.350409
 20
478.584400
 30
0.0
 10
134.213282
 20
478.584398
 30
0.0
 10
133.291474
 20
477.662587
 30
0.0
 10
133.291474
 20
476.525476
 30
0.0
  0
SPLINE
  5
107
100
AcDbEntity
  8
0
 62
7
100
AcDbSpline
 70
8
 71
3
 72
8
 73
4
 74
0
 40
0
 40
0
 40
0
 40
0
 40
1
 40
1
 40
1
 40
1
 10
5.917142
 20
438.240802
 30
0.0
 10
6.302243
 20
437.855691
 30
0.0
 10
6.824583
 20
437.639336
 30
0.0
 10
7.369201
 20
437.639338
 30
0.0
  0
SPLINE
  5
108
100
AcDbEntity
  8
0
 62
7
100
AcDbSpline
 70
8
 71
3
 72
8
 73
4
 74
0
 40
0
 40
0
 40
0
 40
0
 40
1
 40
1
 40
1
 40
1
 10
5.315664
 20
439.692870
 30
0.0
 10
5.315664
 20
439.148239
 30
0.0
 10
5.532041
 20
438.625917
 30
0.0
 10
5.917142
 20
438.240802
 30
0.0
  0
SPLINE
  5
109
100
AcDbEntity
  8
0
 62
7
100
AcDbSpline
 70
8
 71
3
 72
8
 73
4
 74
0
 40
0
 40
0
 40
0
 40
0
 40
1
 40
1
 40
1
 40
1
 10
7.369201
 20
441.746402
 30
0.0
 10
6.824583
 20
441.746402
 30
0.0
 10
6.302243
 20
441.530049
 30
0.0
 10
5.917142
 20
441.144938
 30
0.0
  0
SPLINE
  5
10a
100
AcDbEntity
  8
0
 62
7
100
AcDbSpline
 70
8
 71
3
 72
8
 73
4
 74
0
 40
0
 40
0
 40
0
 40
0
 40
1
 40
1
 40
1
 40
1
 10
110.730400
 20
478.584400
 30
0.0
 10
109.593301
 20
478.584398
 30
0.0
 10
108.671466
 20
477.662587
 30
0.0
 10
108.671466
 20
476.525476
 30
0.0
  0
SPLINE
  5
10b
100
AcDbEntity
  8
0
 62
7
100
AcDbSpline
 70
8
 71
3
 72
8
 73
4
 74
0
 40
0
 40
0
 40
0
 40
0
 40
1
 40
1
 40
1
 40
1
 10
9.422739
 20
460.912869
 30
0.0
 10
9.422739
 20
461.457500
 30
0.0
 10
9.206389
 20
461.979825
 30
0.0
 10
8.821288
 20
462.364937
 30
0.0
  0
SPLINE
  5
10c
100
AcDbEntity
  8
0
 62
7
100
AcDbSpline
 70
8
 71
3
 72
8
 73
4
 74
0
 40
0
 40
0
 40
0
 40
0
 40
1
 40
1
 40
1
 40
1
 10
137.409343
 20
476.525476
 30
0.0
 10
137.409343
 20
477.662587
 30
0.0
 10
136.487509
 20
478.584398
 30
0.0
 10
135.350409
 20
478.584400
 30
0.0
  0
SPLINE
  5
10d
100
AcDbEntity
  8
0
 62
7
100
AcDbSpline
 70
8
 71
3
 72
8
 73
4
 74
0
 40
0
 40
0
 40
0
 40
0
 40
1
 40
1
 40
1
 40
1
 10
7.369201
 20
462.966401
 30
0.0
 10
6.824583
 20
462.966401
 30
0.0
 10
6.302243
 20
462.750046
 30
0.0
 10
5.917142
 20
462.364937
 30
0.0
  0
SPLINE
  5
10e
100
AcDbEntity
  8
0
 62
7
100
AcDbSpline
 70
8
 71
3
 72
8
 73
4
 74
0
 40
0
 40
0
 40
0
 40
0
 40
1
 40
1
 40
1
 40
1
 10
9.422739
 20
439.692870
 30
0.0
 10
9.422739
 20
440.237502
 30
0.0
 10
9.206389
 20
440.759826
 30
0.0
 10
8.821288
 20
441.144938
 30
0.0
  0
SPLINE
  5
10f
100
AcDbEntity
  8
0
 62
7
100
AcDbSpline
 70
8
 71
3
 72
8
 73
4
 74
0
 40
0
 40
0
 40
0
 40
0
 40
1
 40
1
 40
1
 40
1
 10
8.821288
 20
459.460804
 30
0.0
 10
9.206389
 20
459.845915
 30
0.0
 10
9.422739
 20
460.368240
 30
0.0
 10
9.422739
 20
460.912869
 30
0.0
  0
LWPOLYLINE
  5
110
100
AcDbEntity
  8
0
 62
7
100
AcDbPolyline
 90
2
 70
0
 10
166.168202
 20
459.133980
 30
0.0
 10
166.168202
 20
0.135020
 30
0.0
  0
SPLINE
  5
111
100
AcDbEntity
  8
0
 62
7
100
AcDbSpline
 70
8
 71
3
 72
8
 73
4
 74
0
 40
0
 40
0
 40
0
 40
0
 40
1
 40
1
 40
1
 40
1
 10
104.112748
 20
51.843879
 30
0.0
 10
104.112748
 20
52.388511
 30
0.0
 10
103.896398
 20
52.910835
 30
0.0
 10
103.511271
 20
53.295947
 30
0.0
  0
SPLINE
  5
112
100
AcDbEntity
  8
0
 62
7
100
AcDbSpline
 70
8
 71
3
 72
8
 73
4
 74
0
 40
0
 40
0
 40
0
 40
0
 40
1
 40
1
 40
1
 40
1
 10
66.372211
 20
50.171628
 30
0.0
 10
76.280486
 20
50.171628
 30
0.0
 10
85.782944
 20
54.107683
 30
0.0
 10
92.789163
 20
61.113903
 30
0.0
  0
SPLINE
  5
113
100
AcDbEntity
  8
0
 62
7
100
AcDbSpline
 70
8
 71
3
 72
8
 73
4
 74
0
 40
0
 40
0
 40
0
 40
0
 40
1
 40
1
 40
1
 40
1
 10
156.262017
 20
8.834678
 30
0.0
 10
155.876916
 20
8.449577
 30
0.0
 10
155.660566
 20
7.927237
 30
0.0
 10
155.660566
 20
7.382618
 30
0.0
  0
SPLINE
  5
114
100
AcDbEntity
  8
0
 62
7
100
AcDbSpline
 70
8
 71
3
 72
8
 73
4
 74
0
 40
0
 40
0
 40
0
 40
0
 40
1
 40
1
 40
1
 40
1
 10
155.660566
 20
7.382618
 30
0.0
 10
155.660566
 20
6.837974
 30
0.0
 10
155.876916
 20
6.315660
 30
0.0
 10
156.262017
 20
5.930559
 30
0.0
  0
SPLINE
  5
115
100
AcDbEntity
  8
0
 62
7
100
AcDbSpline
 70
8
 71
3
 72
8
 73
4
 74
0
 40
0
 40
0
 40
0
 40
0
 40
1
 40
1
 40
1
 40
1
 10
100.607151
 20
53.295947
 30
0.0
 10
100.222024
 20
52.910835
 30
0.0
 10
100.005674
 20
52.388511
 30
0.0
 10
100.005674
 20
51.843879
 30
0.0
  0
SPLINE
  5
116
100
AcDbEntity
  8
0
 62
7
100
AcDbSpline
 70
8
 71
3
 72
8
 73
4
 74
0
 40
0
 40
0
 40
0
 40
0
 40
1
 40
1
 40
1
 40
1
 10
136.494097
 20
5.329081
 30
0.0
 10
137.038715
 20
5.329081
 30
0.0
 10
137.561055
 20
5.545431
 30
0.0
 10
137.946156
 20
5.930532
 30
0.0
  0
SPLINE
  5
117
100
AcDbEntity
  8
0
 62
7
100
AcDbSpline
 70
8
 71
3
 72
8
 73
4
 74
0
 40
0
 40
0
 40
0
 40
0
 40
1
 40
1
 40
1
 40
1
 10
157.714103
 20
5.329081
 30
0.0
 10
158.258722
 20
5.329081
 30
0.0
 10
158.781062
 20
5.545431
 30
0.0
 10
159.166163
 20
5.930559
 30
0.0
  0
SPLINE
  5
118
100
AcDbEntity
  8
0
 62
7
100
AcDbSpline
 70
8
 71
3
 72
8
 73
4
 74
0
 40
0
 40
0
 40
0
 40
0
 40
1
 40
1
 40
1
 40
1
 10
100.607151
 20
50.391811
 30
0.0
 10
100.992252
 20
50.006700
 30
0.0
 10
101.514566
 20
49.790345
 30
0.0
 10
102.059211
 20
49.790345
 30
0.0
  0
SPLINE
  5
119
100
AcDbEntity
  8
0
 62
7
100
AcDbSpline
 70
8
 71
3
 72
8
 73
4
 74
0
 40
0
 40
0
 40
0
 40
0
 40
1
 40
1
 40
1
 40
1
 10
156.262017
 20
5.930559
 30
0.0
 10
156.647145
 20
5.545431
 30
0.0
 10
157.169459
 20
5.329081
 30
0.0
 10
157.714103
 20
5.329081
 30
0.0
  0
SPLINE
  5
11a
100
AcDbEntity
  8
0
 62
7
100
AcDbSpline
 70
8
 71
3
 72
8
 73
4
 74
0
 40
0
 40
0
 40
0
 40
0
 40
1
 40
1
 40
1
 40
1
 10
76.665164
 20
5.930559
 30
0.0
 10
77.050265
 20
6.315660
 30
0.0
 10
77.266641
 20
6.837974
 30
0.0
 10
77.266641
 20
7.382618
 30
0.0
  0
SPLINE
  5
11b
100
AcDbEntity
  8
0
 62
7
100
AcDbSpline
 70
8
 71
3
 72
8
 73
4
 74
0
 40
0
 40
0
 40
0
 40
0
 40
1
 40
1
 40
1
 40
1
 10
102.059211
 20
49.790345
 30
0.0
 10
102.603829
 20
49.790347
 30
0.0
 10
103.126170
 20
50.006700
 30
0.0
 10
103.511271
 20
50.391814
 30
0.0
  0
SPLINE
  5
11c
100
AcDbEntity
  8
0
 62
7
100
AcDbSpline
 70
8
 71
3
 72
8
 73
4
 74
0
 40
0
 40
0
 40
0
 40
0
 40
1
 40
1
 40
1
 40
1
 10
159.166163
 20
8.834678
 30
0.0
 10
158.781062
 20
9.219806
 30
0.0
 10
158.258722
 20
9.436156
 30
0.0
 10
157.714103
 20
9.436156
 30
0.0
  0
SPLINE
  5
11d
100
AcDbEntity
  8
0
 62
7
100
AcDbSpline
 70
8
 71
3
 72
8
 73
4
 74
0
 40
0
 40
0
 40
0
 40
0
 40
1
 40
1
 40
1
 40
1
 10
138.547634
 20
7.382618
 30
0.0
 10
138.547634
 20
7.927237
 30
0.0
 10
138.331284
 20
8.449577
 30
0.0
 10
137.946156
 20
8.834678
 30
0.0
  0
SPLINE
  5
11e
100
AcDbEntity
  8
0
 62
7
100
AcDbSpline
 70
8
 71
3
 72
8
 73
4
 74
0
 40
0
 40
0
 40
0
 40
0
 40
1
 40
1
 40
1
 40
1
 10
136.494097
 20
9.436156
 30
0.0
 10
135.949452
 20
9.436156
 30
0.0
 10
135.427138
 20
9.219806
 30
0.0
 10
135.042037
 20
8.834678
 30
0.0
  0
SPLINE
  5
11f
100
AcDbEntity
  8
0
 62
7
100
AcDbSpline
 70
8
 71
3
 72
8
 73
4
 74
0
 40
0
 40
0
 40
0
 40
0
 40
1
 40
1
 40
1
 40
1
 10
73.159567
 20
7.382618
 30
0.0
 10
73.159567
 20
6.837974
 30
0.0
 10
73.375917
 20
6.315660
 30
0.0
 10
73.761018
 20
5.930532
 30
0.0
  0
SPLINE
  5
120
100
AcDbEntity
  8
0
 62
7
100
AcDbSpline
 70
8
 71
3
 72
8
 73
4
 74
0
 40
0
 40
0
 40
0
 40
0
 40
1
 40
1
 40
1
 40
1
 10
77.266641
 20
7.382618
 30
0.0
 10
77.266641
 20
7.927237
 30
0.0
 10
77.050265
 20
8.449577
 30
0.0
 10
76.665164
 20
8.834678
 30
0.0
  0
SPLINE
  5
121
100
AcDbEntity
  8
0
 62
7
100
AcDbSpline
 70
8
 71
3
 72
8
 73
4
 74
0
 40
0
 40
0
 40
0
 40
0
 40
1
 40
1
 40
1
 40
1
 10
102.059211
 20
53.897414
 30
0.0
 10
101.514566
 20
53.897414
 30
0.0
 10
100.992252
 20
53.681061
 30
0.0
 10
100.607151
 20
53.295947
 30
0.0
  0
SPLINE
  5
122
100
AcDbEntity
  8
0
 62
7
100
AcDbSpline
 70
8
 71
3
 72
8
 73
4
 74
0
 40
0
 40
0
 40
0
 40
0
 40
1
 40
1
 40
1
 40
1
 10
159.767614
 20
7.382618
 30
0.0
 10
159.767614
 20
7.927237
 30
0.0
 10
159.551264
 20
8.449577
 30
0.0
 10
159.166163
 20
8.834678
 30
0.0
  0
SPLINE
  5
123
100
AcDbEntity
  8
0
 62
7
100
AcDbSpline
 70
8
 71
3
 72
8
 73
4
 74
0
 40
0
 40
0
 40
0
 40
0
 40
1
 40
1
 40
1
 40
1
 10
157.714103
 20
9.436156
 30
0.0
 10
157.169459
 20
9.436156
 30
0.0
 10
156.647145
 20
9.219806
 30
0.0
 10
156.262017
 20
8.834678
 30
0.0
  0
SPLINE
  5
124
100
AcDbEntity
  8
0
 62
7
100
AcDbSpline
 70
8
 71
3
 72
8
 73
4
 74
0
 40
0
 40
0
 40
0
 40
0
 40
1
 40
1
 40
1
 40
1
 10
135.042037
 20
5.930559
 30
0.0
 10
135.427138
 20
5.545431
 30
0.0
 10
135.949452
 20
5.329081
 30
0.0
 10
136.494097
 20
5.329081
 30
0.0
  0
SPLINE
  5
125
100
AcDbEntity
  8
0
 62
7
100
AcDbSpline
 70
8
 71
3
 72
8
 73
4
 74
0
 40
0
 40
0
 40
0
 40
0
 40
1
 40
1
 40
1
 40
1
 10
76.665164
 20
8.834678
 30
0.0
 10
76.280063
 20
9.219806
 30
0.0
 10
75.757723
 20
9.436156
 30
0.0
 10
75.213104
 20
9.436156
 30
0.0
  0
SPLINE
  5
126
100
AcDbEntity
  8
0
 62
7
100
AcDbSpline
 70
8
 71
3
 72
8
 73
4
 74
0
 40
0
 40
0
 40
0
 40
0
 40
1
 40
1
 40
1
 40
1
 10
75.213104
 20
5.329081
 30
0.0
 10
75.757722
 20
5.329081
 30
0.0
 10
76.280063
 20
5.545431
 30
0.0
 10
76.665164
 20
5.930559
 30
0.0
  0
SPLINE
  5
127
100
AcDbEntity
  8
0
 62
7
100
AcDbSpline
 70
8
 71
3
 72
8
 73
4
 74
0
 40
0
 40
0
 40
0
 40
0
 40
1
 40
1
 40
1
 40
1
 10
137.946156
 20
8.834678
 30
0.0
 10
137.561055
 20
9.219806
 30
0.0
 10
137.038715
 20
9.436156
 30
0.0
 10
136.494097
 20
9.436156
 30
0.0
  0
SPLINE
  5
128
100
AcDbEntity
  8
0
 62
7
100
AcDbSpline
 70
8
 71
3
 72
8
 73
4
 74
0
 40
0
 40
0
 40
0
 40
0
 40
1
 40
1
 40
1
 40
1
 10
103.511271
 20
50.391814
 30
0.0
 10
103.896398
 20
50.776926
 30
0.0
 10
104.112748
 20
51.299248
 30
0.0
 10
104.112748
 20
51.843879
 30
0.0
  0
SPLINE
  5
129
100
AcDbEntity
  8
0
 62
7
100
AcDbSpline
 70
8
 71
3
 72
8
 73
4
 74
0
 40
0
 40
0
 40
0
 40
0
 40
1
 40
1
 40
1
 40
1
 10
135.042037
 20
8.834678
 30
0.0
 10
134.656909
 20
8.449577
 30
0.0
 10
134.440560
 20
7.927237
 30
0.0
 10
134.440560
 20
7.382618
 30
0.0
  0
SPLINE
  5
12a
100
AcDbEntity
  8
0
 62
7
100
AcDbSpline
 70
8
 71
3
 72
8
 73
4
 74
0
 40
0
 40
0
 40
0
 40
0
 40
1
 40
1
 40
1
 40
1
 10
100.005674
 20
51.843879
 30
0.0
 10
100.005674
 20
51.299248
 30
0.0
 10
100.222024
 20
50.776923
 30
0.0
 10
100.607151
 20
50.391811
 30
0.0
  0
SPLINE
  5
12b
100
AcDbEntity
  8
0
 62
7
100
AcDbSpline
 70
8
 71
3
 72
8
 73
4
 74
0
 40
0
 40
0
 40
0
 40
0
 40
1
 40
1
 40
1
 40
1
 10
134.440560
 20
7.382618
 30
0.0
 10
134.440560
 20
6.837974
 30
0.0
 10
134.656909
 20
6.315660
 30
0.0
 10
135.042037
 20
5.930559
 30
0.0
  0
SPLINE
  5
12c
100
AcDbEntity
  8
0
 62
7
100
AcDbSpline
 70
8
 71
3
 72
8
 73
4
 74
0
 40
0
 40
0
 40
0
 40
0
 40
1
 40
1
 40
1
 40
1
 10
103.511271
 20
53.295947
 30
0.0
 10
103.126170
 20
53.681059
 30
0.0
 10
102.603829
 20
53.897414
 30
0.0
 10
102.059211
 20
53.897414
 30
0.0
  0
SPLINE
  5
12d
100
AcDbEntity
  8
0
 62
7
100
AcDbSpline
 70
8
 71
3
 72
8
 73
4
 74
0
 40
0
 40
0
 40
0
 40
0
 40
1
 40
1
 40
1
 40
1
 10
92.789163
 20
61.113903
 30
0.0
 10
99.795383
 20
68.120120
 30
0.0
 10
103.731430
 20
77.622593
 30
0.0
 10
103.731430
 20
87.530879
 30
0.0
  0
SPLINE
  5
12e
100
AcDbEntity
  8
0
 62
7
100
AcDbSpline
 70
8
 71
3
 72
8
 73
4
 74
0
 40
0
 40
0
 40
0
 40
0
 40
1
 40
1
 40
1
 40
1
 10
137.946156
 20
5.930532
 30
0.0
 10
138.331284
 20
6.315660
 30
0.0
 10
138.547634
 20
6.837974
 30
0.0
 10
138.547634
 20
7.382618
 30
0.0
  0
SPLINE
  5
12f
100
AcDbEntity
  8
0
 62
7
100
AcDbSpline
 70
8
 71
3
 72
8
 73
4
 74
0
 40
0
 40
0
 40
0
 40
0
 40
1
 40
1
 40
1
 40
1
 10
75.213104
 20
9.436156
 30
0.0
 10
74.668459
 20
9.436156
 30
0.0
 10
74.146145
 20
9.219806
 30
0.0
 10
73.761018
 20
8.834678
 30
0.0
  0
SPLINE
  5
130
100
AcDbEntity
  8
0
 62
7
100
AcDbSpline
 70
8
 71
3
 72
8
 73
4
 74
0
 40
0
 40
0
 40
0
 40
0
 40
1
 40
1
 40
1
 40
1
 10
159.166163
 20
5.930559
 30
0.0
 10
159.551264
 20
6.315660
 30
0.0
 10
159.767614
 20
6.837974
 30
0.0
 10
159.767614
 20
7.382618
 30
0.0
  0
SPLINE
  5
131
100
AcDbEntity
  8
0
 62
7
100
AcDbSpline
 70
8
 71
3
 72
8
 73
4
 74
0
 40
0
 40
0
 40
0
 40
0
 40
1
 40
1
 40
1
 40
1
 10
7.368090
 20
337.720337
 30
0.0
 10
7.912709
 20
337.720337
 30
0.0
 10
8.435049
 20
337.936692
 30
0.0
 10
8.820150
 20
338.321803
 30
0.0
  0
SPLINE
  5
132
100
AcDbEntity
  8
0
 62
7
100
AcDbSpline
 70
8
 71
3
 72
8
 73
4
 74
0
 40
0
 40
0
 40
0
 40
0
 40
1
 40
1
 40
1
 40
1
 10
42.614215
 20
292.136523
 30
0.0
 10
42.228082
 20
292.522655
 30
0.0
 10
41.704366
 20
292.739583
 30
0.0
 10
41.158292
 20
292.739583
 30
0.0
  0
SPLINE
  5
133
100
AcDbEntity
  8
0
 62
7
100
AcDbSpline
 70
8
 71
3
 72
8
 73
4
 74
0
 40
0
 40
0
 40
0
 40
0
 40
1
 40
1
 40
1
 40
1
 10
5.314553
 20
360.993870
 30
0.0
 10
5.314553
 20
360.449238
 30
0.0
 10
5.530903
 20
359.926914
 30
0.0
 10
5.916004
 20
359.541802
 30
0.0
  0
SPLINE
  5
134
100
AcDbEntity
  8
0
 62
7
100
AcDbSpline
 70
8
 71
3
 72
8
 73
4
 74
0
 40
0
 40
0
 40
0
 40
0
 40
1
 40
1
 40
1
 40
1
 10
5.916004
 20
362.445935
 30
0.0
 10
5.530903
 20
362.060823
 30
0.0
 10
5.314553
 20
361.538499
 30
0.0
 10
5.314553
 20
360.993870
 30
0.0
  0
SPLINE
  5
135
100
AcDbEntity
  8
0
 62
7
100
AcDbSpline
 70
8
 71
3
 72
8
 73
4
 74
0
 40
0
 40
0
 40
0
 40
0
 40
1
 40
1
 40
1
 40
1
 10
139.930240
 20
290.676601
 30
0.0
 10
139.930240
 20
290.130526
 30
0.0
 10
140.147172
 20
289.606816
 30
0.0
 10
140.533305
 20
289.220684
 30
0.0
  0
SPLINE
  5
136
100
AcDbEntity
  8
0
 62
7
100
AcDbSpline
 70
8
 71
3
 72
8
 73
4
 74
0
 40
0
 40
0
 40
0
 40
0
 40
1
 40
1
 40
1
 40
1
 10
39.702396
 20
289.224689
 30
0.0
 10
40.088529
 20
288.838555
 30
0.0
 10
40.612219
 20
288.621628
 30
0.0
 10
41.158292
 20
288.621628
 30
0.0
  0
SPLINE
  5
137
100
AcDbEntity
  8
0
 62
7
100
AcDbSpline
 70
8
 71
3
 72
8
 73
4
 74
0
 40
0
 40
0
 40
0
 40
0
 40
1
 40
1
 40
1
 40
1
 10
7.368090
 20
363.047399
 30
0.0
 10
6.823445
 20
363.047402
 30
0.0
 10
6.301131
 20
362.831047
 30
0.0
 10
5.916004
 20
362.445935
 30
0.0
  0
SPLINE
  5
138
100
AcDbEntity
  8
0
 62
7
100
AcDbSpline
 70
8
 71
3
 72
8
 73
4
 74
0
 40
0
 40
0
 40
0
 40
0
 40
1
 40
1
 40
1
 40
1
 10
9.421601
 20
339.773871
 30
0.0
 10
9.421601
 20
340.318503
 30
0.0
 10
9.205251
 20
340.840825
 30
0.0
 10
8.820150
 20
341.225939
 30
0.0
  0
SPLINE
  5
139
100
AcDbEntity
  8
0
 62
7
100
AcDbSpline
 70
8
 71
3
 72
8
 73
4
 74
0
 40
0
 40
0
 40
0
 40
0
 40
1
 40
1
 40
1
 40
1
 10
41.158292
 20
292.739583
 30
0.0
 10
40.612219
 20
292.739583
 30
0.0
 10
40.088529
 20
292.522655
 30
0.0
 10
39.702396
 20
292.136523
 30
0.0
  0
SPLINE
  5
13a
100
AcDbEntity
  8
0
 62
7
100
AcDbSpline
 70
8
 71
3
 72
8
 73
4
 74
0
 40
0
 40
0
 40
0
 40
0
 40
1
 40
1
 40
1
 40
1
 10
8.820150
 20
338.321803
 30
0.0
 10
9.205251
 20
338.706915
 30
0.0
 10
9.421627
 20
339.229240
 30
0.0
 10
9.421601
 20
339.773871
 30
0.0
  0
SPLINE
  5
13b
100
AcDbEntity
  8
0
 62
7
100
AcDbSpline
 70
8
 71
3
 72
8
 73
4
 74
0
 40
0
 40
0
 40
0
 40
0
 40
1
 40
1
 40
1
 40
1
 10
43.217280
 20
290.680606
 30
0.0
 10
43.217280
 20
291.226681
 30
0.0
 10
43.000348
 20
291.750390
 30
0.0
 10
42.614215
 20
292.136523
 30
0.0
  0
SPLINE
  5
13c
100
AcDbEntity
  8
0
 62
7
100
AcDbSpline
 70
8
 71
3
 72
8
 73
4
 74
0
 40
0
 40
0
 40
0
 40
0
 40
1
 40
1
 40
1
 40
1
 10
42.614215
 20
289.224689
 30
0.0
 10
43.000348
 20
289.610821
 30
0.0
 10
43.217280
 20
290.134531
 30
0.0
 10
43.217280
 20
290.680606
 30
0.0
  0
SPLINE
  5
13d
100
AcDbEntity
  8
0
 62
7
100
AcDbSpline
 70
8
 71
3
 72
8
 73
4
 74
0
 40
0
 40
0
 40
0
 40
0
 40
1
 40
1
 40
1
 40
1
 10
5.916004
 20
338.321803
 30
0.0
 10
6.301131
 20
337.936692
 30
0.0
 10
6.823445
 20
337.720337
 30
0.0
 10
7.368090
 20
337.720337
 30
0.0
  0
SPLINE
  5
13e
100
AcDbEntity
  8
0
 62
7
100
AcDbSpline
 70
8
 71
3
 72
8
 73
4
 74
0
 40
0
 40
0
 40
0
 40
0
 40
1
 40
1
 40
1
 40
1
 10
7.368090
 20
358.940338
 30
0.0
 10
7.912709
 20
358.940338
 30
0.0
 10
8.435023
 20
359.156691
 30
0.0
 10
8.820150
 20
359.541802
 30
0.0
  0
SPLINE
  5
13f
100
AcDbEntity
  8
0
 62
7
100
AcDbSpline
 70
8
 71
3
 72
8
 73
4
 74
0
 40
0
 40
0
 40
0
 40
0
 40
1
 40
1
 40
1
 40
1
 10
143.445124
 20
289.220684
 30
0.0
 10
143.831257
 20
289.606816
 30
0.0
 10
144.048189
 20
290.130526
 30
0.0
 10
144.048189
 20
290.676601
 30
0.0
  0
SPLINE
  5
140
100
AcDbEntity
  8
0
 62
7
100
AcDbSpline
 70
8
 71
3
 72
8
 73
4
 74
0
 40
0
 40
0
 40
0
 40
0
 40
1
 40
1
 40
1
 40
1
 10
8.820150
 20
362.445935
 30
0.0
 10
8.435023
 20
362.831047
 30
0.0
 10
7.912709
 20
363.047402
 30
0.0
 10
7.368090
 20
363.047399
 30
0.0
  0
SPLINE
  5
141
100
AcDbEntity
  8
0
 62
7
100
AcDbSpline
 70
8
 71
3
 72
8
 73
4
 74
0
 40
0
 40
0
 40
0
 40
0
 40
1
 40
1
 40
1
 40
1
 10
5.916004
 20
341.225939
 30
0.0
 10
5.530903
 20
340.840825
 30
0.0
 10
5.314553
 20
340.318503
 30
0.0
 10
5.314553
 20
339.773871
 30
0.0
  0
SPLINE
  5
142
100
AcDbEntity
  8
0
 62
7
100
AcDbSpline
 70
8
 71
3
 72
8
 73
4
 74
0
 40
0
 40
0
 40
0
 40
0
 40
1
 40
1
 40
1
 40
1
 10
39.702396
 20
292.136523
 30
0.0
 10
39.316263
 20
291.750390
 30
0.0
 10
39.099331
 20
291.226681
 30
0.0
 10
39.099331
 20
290.680606
 30
0.0
  0
SPLINE
  5
143
100
AcDbEntity
  8
0
 62
7
100
AcDbSpline
 70
8
 71
3
 72
8
 73
4
 74
0
 40
0
 40
0
 40
0
 40
0
 40
1
 40
1
 40
1
 40
1
 10
5.314553
 20
339.773871
 30
0.0
 10
5.314553
 20
339.229240
 30
0.0
 10
5.530903
 20
338.706915
 30
0.0
 10
5.916004
 20
338.321803
 30
0.0
  0
SPLINE
  5
144
100
AcDbEntity
  8
0
 62
7
100
AcDbSpline
 70
8
 71
3
 72
8
 73
4
 74
0
 40
0
 40
0
 40
0
 40
0
 40
1
 40
1
 40
1
 40
1
 10
7.368090
 20
341.827400
 30
0.0
 10
6.823445
 20
341.827403
 30
0.0
 10
6.301131
 20
341.611048
 30
0.0
 10
5.916004
 20
341.225939
 30
0.0
  0
SPLINE
  5
145
100
AcDbEntity
  8
0
 62
7
100
AcDbSpline
 70
8
 71
3
 72
8
 73
4
 74
0
 40
0
 40
0
 40
0
 40
0
 40
1
 40
1
 40
1
 40
1
 10
9.421601
 20
360.993870
 30
0.0
 10
9.421601
 20
361.538499
 30
0.0
 10
9.205251
 20
362.060823
 30
0.0
 10
8.820150
 20
362.445935
 30
0.0
  0
SPLINE
  5
146
100
AcDbEntity
  8
0
 62
7
100
AcDbSpline
 70
8
 71
3
 72
8
 73
4
 74
0
 40
0
 40
0
 40
0
 40
0
 40
1
 40
1
 40
1
 40
1
 10
141.989201
 20
292.735575
 30
0.0
 10
140.852075
 20
292.735575
 30
0.0
 10
139.930240
 20
291.813741
 30
0.0
 10
139.930240
 20
290.676601
 30
0.0
  0
SPLINE
  5
147
100
AcDbEntity
  8
0
 62
7
100
AcDbSpline
 70
8
 71
3
 72
8
 73
4
 74
0
 40
0
 40
0
 40
0
 40
0
 40
1
 40
1
 40
1
 40
1
 10
141.989201
 20
288.617623
 30
0.0
 10
142.535275
 20
288.617623
 30
0.0
 10
143.058991
 20
288.834551
 30
0.0
 10
143.445124
 20
289.220684
 30
0.0
  0
SPLINE
  5
148
100
AcDbEntity
  8
0
 62
7
100
AcDbSpline
 70
8
 71
3
 72
8
 73
4
 74
0
 40
0
 40
0
 40
0
 40
0
 40
1
 40
1
 40
1
 40
1
 10
41.158292
 20
288.621628
 30
0.0
 10
41.704366
 20
288.621628
 30
0.0
 10
42.228082
 20
288.838555
 30
0.0
 10
42.614215
 20
289.224689
 30
0.0
  0
SPLINE
  5
149
100
AcDbEntity
  8
0
 62
7
100
AcDbSpline
 70
8
 71
3
 72
8
 73
4
 74
0
 40
0
 40
0
 40
0
 40
0
 40
1
 40
1
 40
1
 40
1
 10
5.916004
 20
359.541802
 30
0.0
 10
6.301131
 20
359.156691
 30
0.0
 10
6.823445
 20
358.940338
 30
0.0
 10
7.368090
 20
358.940338
 30
0.0
  0
SPLINE
  5
14a
100
AcDbEntity
  8
0
 62
7
100
AcDbSpline
 70
8
 71
3
 72
8
 73
4
 74
0
 40
0
 40
0
 40
0
 40
0
 40
1
 40
1
 40
1
 40
1
 10
39.099331
 20
290.680606
 30
0.0
 10
39.099331
 20
290.134531
 30
0.0
 10
39.316263
 20
289.610821
 30
0.0
 10
39.702396
 20
289.224689
 30
0.0
  0
SPLINE
  5
14b
100
AcDbEntity
  8
0
 62
7
100
AcDbSpline
 70
8
 71
3
 72
8
 73
4
 74
0
 40
0
 40
0
 40
0
 40
0
 40
1
 40
1
 40
1
 40
1
 10
5.917142
 20
441.144938
 30
0.0
 10
5.532041
 20
440.759826
 30
0.0
 10
5.315664
 20
440.237502
 30
0.0
 10
5.315664
 20
439.692870
 30
0.0
  0
SPLINE
  5
14c
100
AcDbEntity
  8
0
 62
7
100
AcDbSpline
 70
8
 71
3
 72
8
 73
4
 74
0
 40
0
 40
0
 40
0
 40
0
 40
1
 40
1
 40
1
 40
1
 10
5.315664
 20
460.912869
 30
0.0
 10
5.315664
 20
460.368240
 30
0.0
 10
5.532041
 20
459.845915
 30
0.0
 10
5.917142
 20
459.460804
 30
0.0
  0
LWPOLYLINE
  5
14d
100
AcDbEntity
  8
0
 62
7
100
AcDbPolyline
 90
2
 70
0
 10
0.132292
 20
0.132294
 30
0.0
 10
166.167911
 20
0.134940
 30
0.0
  0
SPLINE
  5
14e
100
AcDbEntity
  8
0
 62
7
100
AcDbSpline
 70
8
 71
3
 72
8
 73
4
 74
0
 40
0
 40
0
 40
0
 40
0
 40
1
 40
1
 40
1
 40
1
 10
140.533305
 20
289.220684
 30
0.0
 10
140.919438
 20
288.834551
 30
0.0
 10
141.443128
 20
288.617623
 30
0.0
 10
141.989201
 20
288.617623
 30
0.0
  0
SPLINE
  5
14f
100
AcDbEntity
  8
0
 62
7
100
AcDbSpline
 70
8
 71
3
 72
8
 73
4
 74
0
 40
0
 40
0
 40
0
 40
0
 40
1
 40
1
 40
1
 40
1
 10
8.821288
 20
462.364937
 30
0.0
 10
8.436160
 20
462.750046
 30
0.0
 10
7.913846
 20
462.966401
 30
0.0
 10
7.369201
 20
462.966401
 30
0.0
  0
SPLINE
  5
150
100
AcDbEntity
  8
0
 62
7
100
AcDbSpline
 70
8
 71
3
 72
8
 73
4
 74
0
 40
0
 40
0
 40
0
 40
0
 40
1
 40
1
 40
1
 40
1
 10
7.369201
 20
437.639338
 30
0.0
 10
7.913846
 20
437.639336
 30
0.0
 10
8.436160
 20
437.855691
 30
0.0
 10
8.821288
 20
438.240802
 30
0.0
  0
SPLINE
  5
151
100
AcDbEntity
  8
0
 62
7
100
AcDbSpline
 70
8
 71
3
 72
8
 73
4
 74
0
 40
0
 40
0
 40
0
 40
0
 40
1
 40
1
 40
1
 40
1
 10
8.820150
 20
341.225939
 30
0.0
 10
8.435023
 20
341.611048
 30
0.0
 10
7.912709
 20
341.827403
 30
0.0
 10
7.368090
 20
341.827400
 30
0.0
  0
SPLINE
  5
152
100
AcDbEntity
  8
0
 62
7
100
AcDbSpline
 70
8
 71
3
 72
8
 73
4
 74
0
 40
0
 40
0
 40
0
 40
0
 40
1
 40
1
 40
1
 40
1
 10
112.789335
 20
476.525476
 30
0.0
 10
112.789335
 20
477.662587
 30
0.0
 10
111.867500
 20
478.584398
 30
0.0
 10
110.730400
 20
478.584400
 30
0.0
  0
SPLINE
  5
153
100
AcDbEntity
  8
0
 62
7
100
AcDbSpline
 70
8
 71
3
 72
8
 73
4
 74
0
 40
0
 40
0
 40
0
 40
0
 40
1
 40
1
 40
1
 40
1
 10
5.917142
 20
459.460804
 30
0.0
 10
6.302243
 20
459.075692
 30
0.0
 10
6.824583
 20
458.859337
 30
0.0
 10
7.369201
 20
458.859337
 30
0.0
  0
SPLINE
  5
154
100
AcDbEntity
  8
0
 62
7
100
AcDbSpline
 70
8
 71
3
 72
8
 73
4
 74
0
 40
0
 40
0
 40
0
 40
0
 40
1
 40
1
 40
1
 40
1
 10
166.168202
 20
459.133980
 30
0.0
 10
166.246281
 20
472.863021
 30
0.0
 10
155.179977
 20
484.055875
 30
0.0
 10
141.450960
 20
484.133951
 30
0.0
  0
SPLINE
  5
155
100
AcDbEntity
  8
0
 62
7
100
AcDbSpline
 70
8
 71
3
 72
8
 73
4
 74
0
 40
0
 40
0
 40
0
 40
0
 40
1
 40
1
 40
1
 40
1
 10
144.048189
 20
290.676601
 30
0.0
 10
144.048189
 20
291.813741
 30
0.0
 10
143.126354
 20
292.735575
 30
0.0
 10
141.989201
 20
292.735575
 30
0.0
  0
SPLINE
  5
156
100
AcDbEntity
  8
0
 62
7
100
AcDbSpline
 70
8
 71
3
 72
8
 73
4
 74
0
 40
0
 40
0
 40
0
 40
0
 40
1
 40
1
 40
1
 40
1
 10
8.820150
 20
359.541802
 30
0.0
 10
9.205251
 20
359.926914
 30
0.0
 10
9.421601
 20
360.449238
 30
0.0
 10
9.421601
 20
360.993870
 30
0.0
  0
SPLINE
  5
157
100
AcDbEntity
  8
0
 62
7
100
AcDbSpline
 70
8
 71
3
 72
8
 73
4
 74
0
 40
0
 40
0
 40
0
 40
0
 40
1
 40
1
 40
1
 40
1
 10
8.821288
 20
438.240802
 30
0.0
 10
9.206389
 20
438.625917
 30
0.0
 10
9.422739
 20
439.148239
 30
0.0
 10
9.422739
 20
439.692870
 30
0.0
  0
SPLINE
  5
158
100
AcDbEntity
  8
0
 62
7
100
AcDbSpline
 70
8
 71
3
 72
8
 73
4
 74
0
 40
0
 40
0
 40
0
 40
0
 40
1
 40
1
 40
1
 40
1
 10
108.671466
 20
476.525476
 30
0.0
 10
108.671466
 20
475.388363
 30
0.0
 10
109.593301
 20
474.466552
 30
0.0
 10
110.730400
 20
474.466552
 30
0.0
  0
SPLINE
  5
159
100
AcDbEntity
  8
0
 62
7
100
AcDbSpline
 70
8
 71
3
 72
8
 73
4
 74
0
 40
0
 40
0
 40
0
 40
0
 40
1
 40
1
 40
1
 40
1
 10
110.730400
 20
474.466552
 30
0.0
 10
111.867500
 20
474.466552
 30
0.0
 10
112.789335
 20
475.388363
 30
0.0
 10
112.789335
 20
476.525476
 30
0.0
  0
SPLINE
  5
15a
100
AcDbEntity
  8
0
 62
7
100
AcDbSpline
 70
8
 71
3
 72
8
 73
4
 74
0
 40
0
 40
0
 40
0
 40
0
 40
1
 40
1
 40
1
 40
1
 10
157.253305
 20
122.050514
 30
0.0
 10
156.867172
 20
121.664381
 30
0.0
 10
156.650240
 20
121.140670
 30
0.0
 10
156.650240
 20
120.594596
 30
0.0
  0
SPLINE
  5
15b
100
AcDbEntity
  8
0
 62
7
100
AcDbSpline
 70
8
 71
3
 72
8
 73
4
 74
0
 40
0
 40
0
 40
0
 40
0
 40
1
 40
1
 40
1
 40
1
 10
5.921005
 20
199.540781
 30
0.0
 10
6.306132
 20
199.155669
 30
0.0
 10
6.828446
 20
198.939314
 30
0.0
 10
7.373064
 20
198.939317
 30
0.0
  0
SPLINE
  5
15c
100
AcDbEntity
  8
0
 62
7
100
AcDbSpline
 70
8
 71
3
 72
8
 73
4
 74
0
 40
0
 40
0
 40
0
 40
0
 40
1
 40
1
 40
1
 40
1
 10
8.825151
 20
202.444919
 30
0.0
 10
8.440023
 20
202.830033
 30
0.0
 10
7.917709
 20
203.046386
 30
0.0
 10
7.373064
 20
203.046386
 30
0.0
  0
SPLINE
  5
15d
100
AcDbEntity
  8
0
 62
7
100
AcDbSpline
 70
8
 71
3
 72
8
 73
4
 74
0
 40
0
 40
0
 40
0
 40
0
 40
1
 40
1
 40
1
 40
1
 10
158.709201
 20
122.653576
 30
0.0
 10
158.163128
 20
122.653576
 30
0.0
 10
157.639438
 20
122.436649
 30
0.0
 10
157.253305
 20
122.050514
 30
0.0
  0
SPLINE
  5
15e
100
AcDbEntity
  8
0
 62
7
100
AcDbSpline
 70
8
 71
3
 72
8
 73
4
 74
0
 40
0
 40
0
 40
0
 40
0
 40
1
 40
1
 40
1
 40
1
 10
29.107156
 20
121.891795
 30
0.0
 10
29.492258
 20
121.506684
 30
0.0
 10
30.014571
 20
121.290331
 30
0.0
 10
30.559216
 20
121.290329
 30
0.0
  0
SPLINE
  5
15f
100
AcDbEntity
  8
0
 62
7
100
AcDbSpline
 70
8
 71
3
 72
8
 73
4
 74
0
 40
0
 40
0
 40
0
 40
0
 40
1
 40
1
 40
1
 40
1
 10
100.607151
 20
124.795931
 30
0.0
 10
100.222024
 20
124.410819
 30
0.0
 10
100.005674
 20
123.888495
 30
0.0
 10
100.005674
 20
123.343863
 30
0.0
  0
SPLINE
  5
160
100
AcDbEntity
  8
0
 62
7
100
AcDbSpline
 70
8
 71
3
 72
8
 73
4
 74
0
 40
0
 40
0
 40
0
 40
0
 40
1
 40
1
 40
1
 40
1
 10
102.059211
 20
125.397398
 30
0.0
 10
101.514566
 20
125.397398
 30
0.0
 10
100.992252
 20
125.181045
 30
0.0
 10
100.607151
 20
124.795931
 30
0.0
  0
SPLINE
  5
161
100
AcDbEntity
  8
0
 62
7
100
AcDbSpline
 70
8
 71
3
 72
8
 73
4
 74
0
 40
0
 40
0
 40
0
 40
0
 40
1
 40
1
 40
1
 40
1
 10
157.253305
 20
119.138676
 30
0.0
 10
157.639438
 20
118.752543
 30
0.0
 10
158.163128
 20
118.535617
 30
0.0
 10
158.709201
 20
118.535617
 30
0.0
  0
SPLINE
  5
162
100
AcDbEntity
  8
0
 62
7
100
AcDbSpline
 70
8
 71
3
 72
8
 73
4
 74
0
 40
0
 40
0
 40
0
 40
0
 40
1
 40
1
 40
1
 40
1
 10
5.921005
 20
202.444919
 30
0.0
 10
5.535904
 20
202.059805
 30
0.0
 10
5.319554
 20
201.537480
 30
0.0
 10
5.319554
 20
200.992848
 30
0.0
  0
SPLINE
  5
163
100
AcDbEntity
  8
0
 62
7
100
AcDbSpline
 70
8
 71
3
 72
8
 73
4
 74
0
 40
0
 40
0
 40
0
 40
0
 40
1
 40
1
 40
1
 40
1
 10
7.373064
 20
198.939317
 30
0.0
 10
7.917709
 20
198.939314
 30
0.0
 10
8.440023
 20
199.155669
 30
0.0
 10
8.825151
 20
199.540781
 30
0.0
  0
SPLINE
  5
164
100
AcDbEntity
  8
0
 62
7
100
AcDbSpline
 70
8
 71
3
 72
8
 73
4
 74
0
 40
0
 40
0
 40
0
 40
0
 40
1
 40
1
 40
1
 40
1
 10
7.373064
 20
203.046386
 30
0.0
 10
6.828446
 20
203.046386
 30
0.0
 10
6.306132
 20
202.830033
 30
0.0
 10
5.921005
 20
202.444919
 30
0.0
  0
SPLINE
  5
165
100
AcDbEntity
  8
0
 62
7
100
AcDbSpline
 70
8
 71
3
 72
8
 73
4
 74
0
 40
0
 40
0
 40
0
 40
0
 40
1
 40
1
 40
1
 40
1
 10
66.372211
 20
124.890101
 30
0.0
 10
45.739262
 20
124.890101
 30
0.0
 10
29.012965
 20
108.163810
 30
0.0
 10
29.012965
 20
87.530879
 30
0.0
  0
SPLINE
  5
166
100
AcDbEntity
  8
0
 62
7
100
AcDbSpline
 70
8
 71
3
 72
8
 73
4
 74
0
 40
0
 40
0
 40
0
 40
0
 40
1
 40
1
 40
1
 40
1
 10
8.825151
 20
199.540781
 30
0.0
 10
9.210252
 20
199.925892
 30
0.0
 10
9.426601
 20
200.448217
 30
0.0
 10
9.426601
 20
200.992848
 30
0.0
  0
SPLINE
  5
167
100
AcDbEntity
  8
0
 62
7
100
AcDbSpline
 70
8
 71
3
 72
8
 73
4
 74
0
 40
0
 40
0
 40
0
 40
0
 40
1
 40
1
 40
1
 40
1
 10
32.011276
 20
121.891795
 30
0.0
 10
32.396404
 20
122.276907
 30
0.0
 10
32.612753
 20
122.799232
 30
0.0
 10
32.612753
 20
123.343863
 30
0.0
  0
SPLINE
  5
168
100
AcDbEntity
  8
0
 62
7
100
AcDbSpline
 70
8
 71
3
 72
8
 73
4
 74
0
 40
0
 40
0
 40
0
 40
0
 40
1
 40
1
 40
1
 40
1
 10
7.373064
 20
177.719336
 30
0.0
 10
8.507201
 20
177.719336
 30
0.0
 10
9.426601
 20
178.638719
 30
0.0
 10
9.426601
 20
179.772842
 30
0.0
  0
SPLINE
  5
169
100
AcDbEntity
  8
0
 62
7
100
AcDbSpline
 70
8
 71
3
 72
8
 73
4
 74
0
 40
0
 40
0
 40
0
 40
0
 40
1
 40
1
 40
1
 40
1
 10
102.059211
 20
121.290329
 30
0.0
 10
102.603829
 20
121.290331
 30
0.0
 10
103.126170
 20
121.506684
 30
0.0
 10
103.511271
 20
121.891795
 30
0.0
  0
SPLINE
  5
16a
100
AcDbEntity
  8
0
 62
7
100
AcDbSpline
 70
8
 71
3
 72
8
 73
4
 74
0
 40
0
 40
0
 40
0
 40
0
 40
1
 40
1
 40
1
 40
1
 10
5.319554
 20
179.772842
 30
0.0
 10
5.319554
 20
178.638719
 30
0.0
 10
6.238954
 20
177.719336
 30
0.0
 10
7.373064
 20
177.719336
 30
0.0
  0
SPLINE
  5
16b
100
AcDbEntity
  8
0
 62
7
100
AcDbSpline
 70
8
 71
3
 72
8
 73
4
 74
0
 40
0
 40
0
 40
0
 40
0
 40
1
 40
1
 40
1
 40
1
 10
7.373064
 20
181.826376
 30
0.0
 10
6.828446
 20
181.826376
 30
0.0
 10
6.306132
 20
181.610024
 30
0.0
 10
5.921005
 20
181.224910
 30
0.0
  0
SPLINE
  5
16c
100
AcDbEntity
  8
0
 62
7
100
AcDbSpline
 70
8
 71
3
 72
8
 73
4
 74
0
 40
0
 40
0
 40
0
 40
0
 40
1
 40
1
 40
1
 40
1
 10
100.607151
 20
121.891795
 30
0.0
 10
100.992252
 20
121.506684
 30
0.0
 10
101.514566
 20
121.290329
 30
0.0
 10
102.059211
 20
121.290329
 30
0.0
  0
SPLINE
  5
16d
100
AcDbEntity
  8
0
 62
7
100
AcDbSpline
 70
8
 71
3
 72
8
 73
4
 74
0
 40
0
 40
0
 40
0
 40
0
 40
1
 40
1
 40
1
 40
1
 10
5.319554
 20
200.992848
 30
0.0
 10
5.319554
 20
200.448217
 30
0.0
 10
5.535904
 20
199.925892
 30
0.0
 10
5.921005
 20
199.540781
 30
0.0
  0
SPLINE
  5
16e
100
AcDbEntity
  8
0
 62
7
100
AcDbSpline
 70
8
 71
3
 72
8
 73
4
 74
0
 40
0
 40
0
 40
0
 40
0
 40
1
 40
1
 40
1
 40
1
 10
30.559216
 20
121.290329
 30
0.0
 10
31.103835
 20
121.290329
 30
0.0
 10
31.626175
 20
121.506684
 30
0.0
 10
32.011276
 20
121.891795
 30
0.0
  0
SPLINE
  5
16f
100
AcDbEntity
  8
0
 62
7
100
AcDbSpline
 70
8
 71
3
 72
8
 73
4
 74
0
 40
0
 40
0
 40
0
 40
0
 40
1
 40
1
 40
1
 40
1
 10
5.921005
 20
181.224910
 30
0.0
 10
5.535904
 20
180.839798
 30
0.0
 10
5.319554
 20
180.317473
 30
0.0
 10
5.319554
 20
179.772842
 30
0.0
  0
SPLINE
  5
170
100
AcDbEntity
  8
0
 62
7
100
AcDbSpline
 70
8
 71
3
 72
8
 73
4
 74
0
 40
0
 40
0
 40
0
 40
0
 40
1
 40
1
 40
1
 40
1
 10
9.426601
 20
200.992848
 30
0.0
 10
9.426601
 20
201.537480
 30
0.0
 10
9.210252
 20
202.059805
 30
0.0
 10
8.825151
 20
202.444919
 30
0.0
  0
SPLINE
  5
171
100
AcDbEntity
  8
0
 62
7
100
AcDbSpline
 70
8
 71
3
 72
8
 73
4
 74
0
 40
0
 40
0
 40
0
 40
0
 40
1
 40
1
 40
1
 40
1
 10
32.011276
 20
124.795931
 30
0.0
 10
31.626175
 20
125.181045
 30
0.0
 10
31.103835
 20
125.397398
 30
0.0
 10
30.559216
 20
125.397398
 30
0.0
  0
SPLINE
  5
172
100
AcDbEntity
  8
0
 62
7
100
AcDbSpline
 70
8
 71
3
 72
8
 73
4
 74
0
 40
0
 40
0
 40
0
 40
0
 40
1
 40
1
 40
1
 40
1
 10
28.505679
 20
123.343863
 30
0.0
 10
28.505679
 20
122.799232
 30
0.0
 10
28.722029
 20
122.276910
 30
0.0
 10
29.107156
 20
121.891795
 30
0.0
  0
SPLINE
  5
173
100
AcDbEntity
  8
0
 62
7
100
AcDbSpline
 70
8
 71
3
 72
8
 73
4
 74
0
 40
0
 40
0
 40
0
 40
0
 40
1
 40
1
 40
1
 40
1
 10
9.426601
 20
179.772842
 30
0.0
 10
9.426601
 20
180.317473
 30
0.0
 10
9.210252
 20
180.839798
 30
0.0
 10
8.825151
 20
181.224910
 30
0.0
  0
SPLINE
  5
174
100
AcDbEntity
  8
0
 62
7
100
AcDbSpline
 70
8
 71
3
 72
8
 73
4
 74
0
 40
0
 40
0
 40
0
 40
0
 40
1
 40
1
 40
1
 40
1
 10
156.650240
 20
120.594596
 30
0.0
 10
156.650240
 20
120.048520
 30
0.0
 10
156.867172
 20
119.524812
 30
0.0
 10
157.253305
 20
119.138676
 30
0.0
  0
SPLINE
  5
175
100
AcDbEntity
  8
0
 62
7
100
AcDbSpline
 70
8
 71
3
 72
8
 73
4
 74
0
 40
0
 40
0
 40
0
 40
0
 40
1
 40
1
 40
1
 40
1
 10
30.559216
 20
125.397398
 30
0.0
 10
30.014571
 20
125.397398
 30
0.0
 10
29.492258
 20
125.181043
 30
0.0
 10
29.107156
 20
124.795931
 30
0.0
  0
SPLINE
  5
176
100
AcDbEntity
  8
0
 62
7
100
AcDbSpline
 70
8
 71
3
 72
8
 73
4
 74
0
 40
0
 40
0
 40
0
 40
0
 40
1
 40
1
 40
1
 40
1
 10
29.107156
 20
124.795931
 30
0.0
 10
28.722029
 20
124.410819
 30
0.0
 10
28.505679
 20
123.888495
 30
0.0
 10
28.505679
 20
123.343863
 30
0.0
  0
SPLINE
  5
177
100
AcDbEntity
  8
0
 62
7
100
AcDbSpline
 70
8
 71
3
 72
8
 73
4
 74
0
 40
0
 40
0
 40
0
 40
0
 40
1
 40
1
 40
1
 40
1
 10
100.005674
 20
123.343863
 30
0.0
 10
100.005674
 20
122.799232
 30
0.0
 10
100.222024
 20
122.276907
 30
0.0
 10
100.607151
 20
121.891795
 30
0.0
  0
SPLINE
  5
178
100
AcDbEntity
  8
0
 62
7
100
AcDbSpline
 70
8
 71
3
 72
8
 73
4
 74
0
 40
0
 40
0
 40
0
 40
0
 40
1
 40
1
 40
1
 40
1
 10
158.709201
 20
118.535617
 30
0.0
 10
159.255275
 20
118.535617
 30
0.0
 10
159.778991
 20
118.752543
 30
0.0
 10
160.165124
 20
119.138676
 30
0.0
  0
SPLINE
  5
179
100
AcDbEntity
  8
0
 62
7
100
AcDbSpline
 70
8
 71
3
 72
8
 73
4
 74
0
 40
0
 40
0
 40
0
 40
0
 40
1
 40
1
 40
1
 40
1
 10
8.825151
 20
181.224910
 30
0.0
 10
8.440023
 20
181.610024
 30
0.0
 10
7.917709
 20
181.826376
 30
0.0
 10
7.373064
 20
181.826376
 30
0.0
  0
SPLINE
  5
17a
100
AcDbEntity
  8
0
 62
7
100
AcDbSpline
 70
8
 71
3
 72
8
 73
4
 74
0
 40
0
 40
0
 40
0
 40
0
 40
1
 40
1
 40
1
 40
1
 10
160.165124
 20
119.138676
 30
0.0
 10
160.551257
 20
119.524812
 30
0.0
 10
160.768189
 20
120.048520
 30
0.0
 10
160.768189
 20
120.594596
 30
0.0
  0
SPLINE
  5
17b
100
AcDbEntity
  8
0
 62
7
100
AcDbSpline
 70
8
 71
3
 72
8
 73
4
 74
0
 40
0
 40
0
 40
0
 40
0
 40
1
 40
1
 40
1
 40
1
 10
32.612753
 20
123.343863
 30
0.0
 10
32.612753
 20
123.888495
 30
0.0
 10
32.396404
 20
124.410819
 30
0.0
 10
32.011276
 20
124.795931
 30
0.0
  0
SPLINE
  5
17c
100
AcDbEntity
  8
0
 62
7
100
AcDbSpline
 70
8
 71
3
 72
8
 73
4
 74
0
 40
0
 40
0
 40
0
 40
0
 40
1
 40
1
 40
1
 40
1
 10
7.368117
 20
42.360337
 30
0.0
 10
7.912735
 20
42.360337
 30
0.0
 10
8.435075
 20
42.576692
 30
0.0
 10
8.820176
 20
42.961803
 30
0.0
  0
SPLINE
  5
17d
100
AcDbEntity
  8
0
 62
7
100
AcDbSpline
 70
8
 71
3
 72
8
 73
4
 74
0
 40
0
 40
0
 40
0
 40
0
 40
1
 40
1
 40
1
 40
1
 10
39.955232
 20
61.113900
 30
0.0
 10
46.961451
 20
54.107681
 30
0.0
 10
56.463909
 20
50.171628
 30
0.0
 10
66.372211
 20
50.171628
 30
0.0
  0
SPLINE
  5
17e
100
AcDbEntity
  8
0
 62
7
100
AcDbSpline
 70
8
 71
3
 72
8
 73
4
 74
0
 40
0
 40
0
 40
0
 40
0
 40
1
 40
1
 40
1
 40
1
 10
104.112748
 20
123.343863
 30
0.0
 10
104.112748
 20
123.888495
 30
0.0
 10
103.896398
 20
124.410819
 30
0.0
 10
103.511271
 20
124.795931
 30
0.0
  0
SPLINE
  5
17f
100
AcDbEntity
  8
0
 62
7
100
AcDbSpline
 70
8
 71
3
 72
8
 73
4
 74
0
 40
0
 40
0
 40
0
 40
0
 40
1
 40
1
 40
1
 40
1
 10
32.612753
 20
51.843879
 30
0.0
 10
32.612753
 20
52.388511
 30
0.0
 10
32.396404
 20
52.910835
 30
0.0
 10
32.011276
 20
53.295947
 30
0.0
  0
SPLINE
  5
180
100
AcDbEntity
  8
0
 62
7
100
AcDbSpline
 70
8
 71
3
 72
8
 73
4
 74
0
 40
0
 40
0
 40
0
 40
0
 40
1
 40
1
 40
1
 40
1
 10
7.368117
 20
46.467406
 30
0.0
 10
6.823472
 20
46.467406
 30
0.0
 10
6.301158
 20
46.251051
 30
0.0
 10
5.916030
 20
45.865939
 30
0.0
  0
SPLINE
  5
181
100
AcDbEntity
  8
0
 62
7
100
AcDbSpline
 70
8
 71
3
 72
8
 73
4
 74
0
 40
0
 40
0
 40
0
 40
0
 40
1
 40
1
 40
1
 40
1
 10
5.916030
 20
42.961803
 30
0.0
 10
6.301158
 20
42.576692
 30
0.0
 10
6.823472
 20
42.360339
 30
0.0
 10
7.368117
 20
42.360337
 30
0.0
  0
SPLINE
  5
182
100
AcDbEntity
  8
0
 62
7
100
AcDbSpline
 70
8
 71
3
 72
8
 73
4
 74
0
 40
0
 40
0
 40
0
 40
0
 40
1
 40
1
 40
1
 40
1
 10
9.421654
 20
44.413871
 30
0.0
 10
9.421654
 20
44.958503
 30
0.0
 10
9.205278
 20
45.480827
 30
0.0
 10
8.820176
 20
45.865939
 30
0.0
  0
SPLINE
  5
183
100
AcDbEntity
  8
0
 62
7
100
AcDbSpline
 70
8
 71
3
 72
8
 73
4
 74
0
 40
0
 40
0
 40
0
 40
0
 40
1
 40
1
 40
1
 40
1
 10
5.314580
 20
44.413871
 30
0.0
 10
5.314580
 20
43.869240
 30
0.0
 10
5.530929
 20
43.346918
 30
0.0
 10
5.916030
 20
42.961803
 30
0.0
  0
SPLINE
  5
184
100
AcDbEntity
  8
0
 62
7
100
AcDbSpline
 70
8
 71
3
 72
8
 73
4
 74
0
 40
0
 40
0
 40
0
 40
0
 40
1
 40
1
 40
1
 40
1
 10
7.368117
 20
21.140370
 30
0.0
 10
7.912735
 20
21.140370
 30
0.0
 10
8.435075
 20
21.356720
 30
0.0
 10
8.820176
 20
21.741821
 30
0.0
  0
SPLINE
  5
185
100
AcDbEntity
  8
0
 62
7
100
AcDbSpline
 70
8
 71
3
 72
8
 73
4
 74
0
 40
0
 40
0
 40
0
 40
0
 40
1
 40
1
 40
1
 40
1
 10
53.993098
 20
9.436156
 30
0.0
 10
53.448453
 20
9.436156
 30
0.0
 10
52.926139
 20
9.219806
 30
0.0
 10
52.541038
 20
8.834678
 30
0.0
  0
SPLINE
  5
186
100
AcDbEntity
  8
0
 62
7
100
AcDbSpline
 70
8
 71
3
 72
8
 73
4
 74
0
 40
0
 40
0
 40
0
 40
0
 40
1
 40
1
 40
1
 40
1
 10
8.820176
 20
21.741821
 30
0.0
 10
9.205278
 20
22.126948
 30
0.0
 10
9.421654
 20
22.649262
 30
0.0
 10
9.421654
 20
23.193907
 30
0.0
  0
SPLINE
  5
187
100
AcDbEntity
  8
0
 62
7
100
AcDbSpline
 70
8
 71
3
 72
8
 73
4
 74
0
 40
0
 40
0
 40
0
 40
0
 40
1
 40
1
 40
1
 40
1
 10
55.445157
 20
5.930559
 30
0.0
 10
55.830285
 20
6.315660
 30
0.0
 10
56.046635
 20
6.837974
 30
0.0
 10
56.046635
 20
7.382618
 30
0.0
  0
SPLINE
  5
188
100
AcDbEntity
  8
0
 62
7
100
AcDbSpline
 70
8
 71
3
 72
8
 73
4
 74
0
 40
0
 40
0
 40
0
 40
0
 40
1
 40
1
 40
1
 40
1
 10
103.731430
 20
87.530879
 30
0.0
 10
103.731430
 20
108.163810
 30
0.0
 10
87.005134
 20
124.890101
 30
0.0
 10
66.372211
 20
124.890101
 30
0.0
  0
SPLINE
  5
189
100
AcDbEntity
  8
0
 62
7
100
AcDbSpline
 70
8
 71
3
 72
8
 73
4
 74
0
 40
0
 40
0
 40
0
 40
0
 40
1
 40
1
 40
1
 40
1
 10
29.012965
 20
87.530879
 30
0.0
 10
29.012965
 20
77.622591
 30
0.0
 10
32.949012
 20
68.120120
 30
0.0
 10
39.955232
 20
61.113900
 30
0.0
  0
SPLINE
  5
18a
100
AcDbEntity
  8
0
 62
7
100
AcDbSpline
 70
8
 71
3
 72
8
 73
4
 74
0
 40
0
 40
0
 40
0
 40
0
 40
1
 40
1
 40
1
 40
1
 10
51.939560
 20
7.382618
 30
0.0
 10
51.939560
 20
6.837974
 30
0.0
 10
52.155910
 20
6.315660
 30
0.0
 10
52.541038
 20
5.930559
 30
0.0
  0
SPLINE
  5
18b
100
AcDbEntity
  8
0
 62
7
100
AcDbSpline
 70
8
 71
3
 72
8
 73
4
 74
0
 40
0
 40
0
 40
0
 40
0
 40
1
 40
1
 40
1
 40
1
 10
29.107156
 20
50.391814
 30
0.0
 10
29.492258
 20
50.006700
 30
0.0
 10
30.014571
 20
49.790347
 30
0.0
 10
30.559216
 20
49.790345
 30
0.0
  0
SPLINE
  5
18c
100
AcDbEntity
  8
0
 62
7
100
AcDbSpline
 70
8
 71
3
 72
8
 73
4
 74
0
 40
0
 40
0
 40
0
 40
0
 40
1
 40
1
 40
1
 40
1
 10
52.541038
 20
8.834678
 30
0.0
 10
52.155910
 20
8.449577
 30
0.0
 10
51.939560
 20
7.927237
 30
0.0
 10
51.939560
 20
7.382618
 30
0.0
  0
SPLINE
  5
18d
100
AcDbEntity
  8
0
 62
7
100
AcDbSpline
 70
8
 71
3
 72
8
 73
4
 74
0
 40
0
 40
0
 40
0
 40
0
 40
1
 40
1
 40
1
 40
1
 10
8.820176
 20
24.645967
 30
0.0
 10
8.435075
 20
25.031068
 30
0.0
 10
7.912735
 20
25.247444
 30
0.0
 10
7.368117
 20
25.247444
 30
0.0
  0
SPLINE
  5
18e
100
AcDbEntity
  8
0
 62
7
100
AcDbSpline
 70
8
 71
3
 72
8
 73
4
 74
0
 40
0
 40
0
 40
0
 40
0
 40
1
 40
1
 40
1
 40
1
 10
160.165124
 20
122.050514
 30
0.0
 10
159.778991
 20
122.436649
 30
0.0
 10
159.255275
 20
122.653576
 30
0.0
 10
158.709201
 20
122.653576
 30
0.0
  0
SPLINE
  5
18f
100
AcDbEntity
  8
0
 62
7
100
AcDbSpline
 70
8
 71
3
 72
8
 73
4
 74
0
 40
0
 40
0
 40
0
 40
0
 40
1
 40
1
 40
1
 40
1
 10
5.314580
 20
23.193907
 30
0.0
 10
5.314580
 20
22.649262
 30
0.0
 10
5.530929
 20
22.126948
 30
0.0
 10
5.916030
 20
21.741821
 30
0.0
  0
SPLINE
  5
190
100
AcDbEntity
  8
0
 62
7
100
AcDbSpline
 70
8
 71
3
 72
8
 73
4
 74
0
 40
0
 40
0
 40
0
 40
0
 40
1
 40
1
 40
1
 40
1
 10
5.916030
 20
24.645967
 30
0.0
 10
5.530929
 20
24.260866
 30
0.0
 10
5.314580
 20
23.738525
 30
0.0
 10
5.314580
 20
23.193907
 30
0.0
  0
SPLINE
  5
191
100
AcDbEntity
  8
0
 62
7
100
AcDbSpline
 70
8
 71
3
 72
8
 73
4
 74
0
 40
0
 40
0
 40
0
 40
0
 40
1
 40
1
 40
1
 40
1
 10
9.421654
 20
23.193907
 30
0.0
 10
9.421654
 20
23.738525
 30
0.0
 10
9.205278
 20
24.260866
 30
0.0
 10
8.820176
 20
24.645967
 30
0.0
  0
SPLINE
  5
192
100
AcDbEntity
  8
0
 62
7
100
AcDbSpline
 70
8
 71
3
 72
8
 73
4
 74
0
 40
0
 40
0
 40
0
 40
0
 40
1
 40
1
 40
1
 40
1
 10
56.046635
 20
7.382618
 30
0.0
 10
56.046635
 20
7.927237
 30
0.0
 10
55.830285
 20
8.449577
 30
0.0
 10
55.445157
 20
8.834678
 30
0.0
  0
SPLINE
  5
193
100
AcDbEntity
  8
0
 62
7
100
AcDbSpline
 70
8
 71
3
 72
8
 73
4
 74
0
 40
0
 40
0
 40
0
 40
0
 40
1
 40
1
 40
1
 40
1
 10
5.916030
 20
21.741821
 30
0.0
 10
6.301158
 20
21.356720
 30
0.0
 10
6.823472
 20
21.140370
 30
0.0
 10
7.368117
 20
21.140370
 30
0.0
  0
SPLINE
  5
194
100
AcDbEntity
  8
0
 62
7
100
AcDbSpline
 70
8
 71
3
 72
8
 73
4
 74
0
 40
0
 40
0
 40
0
 40
0
 40
1
 40
1
 40
1
 40
1
 10
8.820176
 20
45.865939
 30
0.0
 10
8.435075
 20
46.251053
 30
0.0
 10
7.912735
 20
46.467406
 30
0.0
 10
7.368117
 20
46.467406
 30
0.0
  0
SPLINE
  5
195
100
AcDbEntity
  8
0
 62
7
100
AcDbSpline
 70
8
 71
3
 72
8
 73
4
 74
0
 40
0
 40
0
 40
0
 40
0
 40
1
 40
1
 40
1
 40
1
 10
5.916030
 20
45.865939
 30
0.0
 10
5.530929
 20
45.480827
 30
0.0
 10
5.314580
 20
44.958503
 30
0.0
 10
5.314580
 20
44.413871
 30
0.0
  0
SPLINE
  5
196
100
AcDbEntity
  8
0
 62
7
100
AcDbSpline
 70
8
 71
3
 72
8
 73
4
 74
0
 40
0
 40
0
 40
0
 40
0
 40
1
 40
1
 40
1
 40
1
 10
30.559216
 20
53.897414
 30
0.0
 10
30.014571
 20
53.897414
 30
0.0
 10
29.492258
 20
53.681059
 30
0.0
 10
29.107156
 20
53.295947
 30
0.0
  0
SPLINE
  5
197
100
AcDbEntity
  8
0
 62
7
100
AcDbSpline
 70
8
 71
3
 72
8
 73
4
 74
0
 40
0
 40
0
 40
0
 40
0
 40
1
 40
1
 40
1
 40
1
 10
103.511271
 20
121.891795
 30
0.0
 10
103.896398
 20
122.276910
 30
0.0
 10
104.112748
 20
122.799232
 30
0.0
 10
104.112748
 20
123.343863
 30
0.0
  0
SPLINE
  5
198
100
AcDbEntity
  8
0
 62
7
100
AcDbSpline
 70
8
 71
3
 72
8
 73
4
 74
0
 40
0
 40
0
 40
0
 40
0
 40
1
 40
1
 40
1
 40
1
 10
28.505679
 20
51.843879
 30
0.0
 10
28.505679
 20
51.299248
 30
0.0
 10
28.722029
 20
50.776926
 30
0.0
 10
29.107156
 20
50.391814
 30
0.0
  0
SPLINE
  5
199
100
AcDbEntity
  8
0
 62
7
100
AcDbSpline
 70
8
 71
3
 72
8
 73
4
 74
0
 40
0
 40
0
 40
0
 40
0
 40
1
 40
1
 40
1
 40
1
 10
32.011276
 20
53.295947
 30
0.0
 10
31.626175
 20
53.681061
 30
0.0
 10
31.103835
 20
53.897414
 30
0.0
 10
30.559216
 20
53.897414
 30
0.0
  0
SPLINE
  5
19a
100
AcDbEntity
  8
0
 62
7
100
AcDbSpline
 70
8
 71
3
 72
8
 73
4
 74
0
 40
0
 40
0
 40
0
 40
0
 40
1
 40
1
 40
1
 40
1
 10
55.445157
 20
8.834678
 30
0.0
 10
55.060056
 20
9.219806
 30
0.0
 10
54.537716
 20
9.436156
 30
0.0
 10
53.993098
 20
9.436156
 30
0.0
  0
SPLINE
  5
19b
100
AcDbEntity
  8
0
 62
7
100
AcDbSpline
 70
8
 71
3
 72
8
 73
4
 74
0
 40
0
 40
0
 40
0
 40
0
 40
1
 40
1
 40
1
 40
1
 10
30.559216
 20
49.790345
 30
0.0
 10
31.103835
 20
49.790345
 30
0.0
 10
31.626175
 20
50.006700
 30
0.0
 10
32.011276
 20
50.391811
 30
0.0
  0
SPLINE
  5
19c
100
AcDbEntity
  8
0
 62
7
100
AcDbSpline
 70
8
 71
3
 72
8
 73
4
 74
0
 40
0
 40
0
 40
0
 40
0
 40
1
 40
1
 40
1
 40
1
 10
73.761018
 20
8.834678
 30
0.0
 10
73.375917
 20
8.449577
 30
0.0
 10
73.159567
 20
7.927237
 30
0.0
 10
73.159567
 20
7.382618
 30
0.0
  0
SPLINE
  5
19d
100
AcDbEntity
  8
0
 62
7
100
AcDbSpline
 70
8
 71
3
 72
8
 73
4
 74
0
 40
0
 40
0
 40
0
 40
0
 40
1
 40
1
 40
1
 40
1
 10
160.768189
 20
120.594596
 30
0.0
 10
160.768189
 20
121.140670
 30
0.0
 10
160.551257
 20
121.664381
 30
0.0
 10
160.165124
 20
122.050514
 30
0.0
  0
SPLINE
  5
19e
100
AcDbEntity
  8
0
 62
7
100
AcDbSpline
 70
8
 71
3
 72
8
 73
4
 74
0
 40
0
 40
0
 40
0
 40
0
 40
1
 40
1
 40
1
 40
1
 10
8.820176
 20
42.961803
 30
0.0
 10
9.205278
 20
43.346915
 30
0.0
 10
9.421654
 20
43.869240
 30
0.0
 10
9.421654
 20
44.413871
 30
0.0
  0
SPLINE
  5
19f
100
AcDbEntity
  8
0
 62
7
100
AcDbSpline
 70
8
 71
3
 72
8
 73
4
 74
0
 40
0
 40
0
 40
0
 40
0
 40
1
 40
1
 40
1
 40
1
 10
32.011276
 20
50.391811
 30
0.0
 10
32.396404
 20
50.776923
 30
0.0
 10
32.612753
 20
51.299248
 30
0.0
 10
32.612753
 20
51.843879
 30
0.0
  0
SPLINE
  5
1a0
100
AcDbEntity
  8
0
 62
7
100
AcDbSpline
 70
8
 71
3
 72
8
 73
4
 74
0
 40
0
 40
0
 40
0
 40
0
 40
1
 40
1
 40
1
 40
1
 10
53.993098
 20
5.329081
 30
0.0
 10
54.537716
 20
5.329081
 30
0.0
 10
55.060056
 20
5.545431
 30
0.0
 10
55.445157
 20
5.930559
 30
0.0
  0
SPLINE
  5
1a1
100
AcDbEntity
  8
0
 62
7
100
AcDbSpline
 70
8
 71
3
 72
8
 73
4
 74
0
 40
0
 40
0
 40
0
 40
0
 40
1
 40
1
 40
1
 40
1
 10
52.541038
 20
5.930559
 30
0.0
 10
52.926139
 20
5.545431
 30
0.0
 10
53.448453
 20
5.329081
 30
0.0
 10
53.993098
 20
5.329081
 30
0.0
  0
SPLINE
  5
1a2
100
AcDbEntity
  8
0
 62
7
100
AcDbSpline
 70
8
 71
3
 72
8
 73
4
 74
0
 40
0
 40
0
 40
0
 40
0
 40
1
 40
1
 40
1
 40
1
 10
7.368117
 20
25.247444
 30
0.0
 10
6.823472
 20
25.247444
 30
0.0
 10
6.301158
 20
25.031068
 30
0.0
 10
5.916030
 20
24.645967
 30
0.0
  0
SPLINE
  5
1a3
100
AcDbEntity
  8
0
 62
7
100
AcDbSpline
 70
8
 71
3
 72
8
 73
4
 74
0
 40
0
 40
0
 40
0
 40
0
 40
1
 40
1
 40
1
 40
1
 10
29.107156
 20
53.295947
 30
0.0
 10
28.722029
 20
52.910835
 30
0.0
 10
28.505679
 20
52.388511
 30
0.0
 10
28.505679
 20
51.843879
 30
0.0
  0
SPLINE
  5
1a4
100
AcDbEntity
  8
0
 62
7
100
AcDbSpline
 70
8
 71
3
 72
8
 73
4
 74
0
 40
0
 40
0
 40
0
 40
0
 40
1
 40
1
 40
1
 40
1
 10
103.511271
 20
124.795931
 30
0.0
 10
103.126170
 20
125.181043
 30
0.0
 10
102.603829
 20
125.397398
 30
0.0
 10
102.059211
 20
125.397398
 30
0.0
  0
SPLINE
  5
1a5
100
AcDbEntity
  8
0
 62
7
100
AcDbSpline
 70
8
 71
3
 72
8
 73
4
 74
0
 40
0
 40
0
 40
0
 40
0
 40
1
 40
1
 40
1
 40
1
 10
73.761018
 20
5.930532
 30
0.0
 10
74.146145
 20
5.545431
 30
0.0
 10
74.668459
 20
5.329081
 30
0.0
 10
75.213104
 20
5.329081
 30
0.0
  0
LWPOLYLINE
  5
1a6
100
AcDbEntity
  8
0
 62
7
100
AcDbPolyline
 90
2
 70
0
 10
0.132292
 20
484.132295
 30
0.0
 10
141.450960
 20
484.133882
 30
0.0
  0
ENDSEC
  0
SECTION
  2
OBJECTS
  0
DICTIONARY
  5
C
330
0
100
AcDbDictionary
  3
ACAD_GROUP
350
D
  3
ACAD_MLINESTYLE
350
17
  0
DICTIONARY
  5
D
330
C
100
AcDbDictionary
  0
DICTIONARY
  5
1A
330
C
100
AcDbDictionary
  0
DICTIONARY
  5
17
330
C
100
AcDbDictionary
  3
STANDARD
350
18
  0
DICTIONARY
  5
19
330
C
100
AcDbDictionary
  0
ENDSEC
  0
EOF
