  0
SECTION
  2
HEADER
  9
$ACADVER
  1
AC1014
  9
$HANDSEED
  5
FFFF
  9
$MEASUREMENT
 70
     1
  0
ENDSEC
  0
SECTION
  2
TABLES
  0
TABLE
  2
VPORT
  5
8
330
0
100
AcDbSymbolTable
 70
     4
  0
VPORT
  5
2E
330
8
100
AcDbSymbolTableRecord
100
AcDbViewportTableRecord
  2
*ACTIVE
 70
     0
 10
0.0
 20
0.0
 11
1.0
 21
1.0
 12
210.0
 22
148.5
 13
0.0
 23
0.0
 14
10.0
 24
10.0
 15
10.0
 25
10.0
 16
0.0
 26
0.0
 36
1.0
 17
0.0
 27
0.0
 37
0.0
 40
341.0
 41
1.24
 42
50.0
 43
0.0
 44
0.0
 50
0.0
 51
0.0
 71
     0
 72
   100
 73
     1
 74
     3
 75
     0
 76
     0
 77
     0
 78
     0
  0
ENDTAB
  0
TABLE
  2
LTYPE
  5
5
330
0
100
AcDbSymbolTable
 70
     1
  0
LTYPE
  5
14
330
5
100
AcDbSymbolTableRecord
100
AcDbLinetypeTableRecord
  2
BYBLOCK
 70
     0
  3

 72
    65
 73
     0
 40
0.0
  0
LTYPE
  5
15
330
5
100
AcDbSymbolTableRecord
100
AcDbLinetypeTableRecord
  2
BYLAYER
 70
     0
  3

 72
    65
 73
     0
 40
0.0
  0
LTYPE
  5
16
330
5
100
AcDbSymbolTableRecord
100
AcDbLinetypeTableRecord
  2
CONTINUOUS
 70
     0
  3
Solid line
 72
    65
 73
     0
 40
0.0
  0
ENDTAB
  0
TABLE
  2
LAYER
  5
2
100
AcDbSymbolTable
 70
1
  0
LAYER
  5
50
100
AcDbSymbolTableRecord
100
AcDbLayerTableRecord
  2
0
 70
0
  6
CONTINUOUS
  0
ENDTAB
  0
TABLE
  2
STYLE
  5
3
330
0
100
AcDbSymbolTable
 70
     1
  0
STYLE
  5
11
330
3
100
AcDbSymbolTableRecord
100
AcDbTextStyleTableRecord
  2
STANDARD
 70
     0
 40
0.0
 41
1.0
 50
0.0
 71
     0
 42
2.5
  3
txt
  4

  0
ENDTAB
  0
TABLE
  2
VIEW
  5
6
330
0
100
AcDbSymbolTable
 70
     0
  0
ENDTAB
  0
TABLE
  2
UCS
  5
7
330
0
100
AcDbSymbolTable
 70
     0
  0
ENDTAB
  0
TABLE
  2
APPID
  5
9
330
0
100
AcDbSymbolTable
 70
     2
  0
APPID
  5
12
330
9
100
AcDbSymbolTableRecord
100
AcDbRegAppTableRecord
  2
ACAD
 70
     0
  0
ENDTAB
  0
TABLE
  2
DIMSTYLE
  5
A
330
0
100
AcDbSymbolTable
 70
     1
  0
DIMSTYLE
105
27
330
A
100
AcDbSymbolTableRecord
100
AcDbDimStyleTableRecord
  2
ISO-25
 70
     0
  3

  4

  5

  6

  7

 40
1.0
 41
2.5
 42
0.625
 43
3.75
 44
1.25
 45
0.0
 46
0.0
 47
0.0
 48
0.0
140
2.5
141
2.5
142
0.0
143
0.03937007874016
144
1.0
145
0.0
146
1.0
147
0.625
 71
     0
 72
     0
 73
     0
 74
     0
 75
     0
 76
     0
 77
     1
 78
     8
170
     0
171
     3
172
     1
173
     0
174
     0
175
     0
176
     0
177
     0
178
     0
270
     2
271
     2
272
     2
273
     2
274
     3
340
11
275
     0
280
     0
281
     0
282
     0
283
     0
284
     8
285
     0
286
     0
287
     3
288
     0
  0
ENDTAB
  0
TABLE
  2
BLOCK_RECORD
  5
1
330
0
100
AcDbSymbolTable
 70
     1
  0
BLOCK_RECORD
  5
1F
330
1
100
AcDbSymbolTableRecord
100
AcDbBlockTableRecord
  2
*MODEL_SPACE
  0
BLOCK_RECORD
  5
1B
330
1
100
AcDbSymbolTableRecord
100
AcDbBlockTableRecord
  2
*PAPER_SPACE
  0
ENDTAB
  0
ENDSEC
  0
SECTION
  2
BLOCKS
  0
BLOCK
  5
20
330
1F
100
AcDbEntity
  8
0
100
AcDbBlockBegin
  2
*MODEL_SPACE
 70
     0
 10
0.0
 20
0.0
 30
0.0
  3
*MODEL_SPACE
  1

  0
ENDBLK
  5
21
330
1F
100
AcDbEntity
  8
0
100
AcDbBlockEnd
  0
BLOCK
  5
1C
330
1B
100
AcDbEntity
 67
     1
  8
0
100
AcDbBlockBegin
  2
*PAPER_SPACE
  1

  0
ENDBLK
  5
1D
330
1B
100
AcDbEntity
 67
     1
  8
0
100
AcDbBlockEnd
  0
ENDSEC
  0
SECTION
  2
ENTITIES
  0
SPLINE
  5
100
100
AcDbEntity
  8
0
 62
7
100
AcDbSpline
 70
8
 71
3
 72
8
 73
4
 74
0
 40
0
 40
0
 40
0
 40
0
 40
1
 40
1
 40
1
 40
1
 10
379.728256
 20
461.883429
 30
0.0
 10
379.182182
 20
461.883429
 30
0.0
 10
378.658439
 20
462.100361
 30
0.0
 10
378.272306
 20
462.486499
 30
0.0
  0
SPLINE
  5
101
100
AcDbEntity
  8
0
 62
7
100
AcDbSpline
 70
8
 71
3
 72
8
 73
4
 74
0
 40
0
 40
0
 40
0
 40
0
 40
1
 40
1
 40
1
 40
1
 10
333.056920
 20
327.798252
 30
0.0
 10
332.696531
 20
327.798252
 30
0.0
 10
332.350879
 20
327.941418
 30
0.0
 10
332.096059
 20
328.196257
 30
0.0
  0
SPLINE
  5
102
100
AcDbEntity
  8
0
 62
7
100
AcDbSpline
 70
8
 71
3
 72
8
 73
4
 74
0
 40
0
 40
0
 40
0
 40
0
 40
1
 40
1
 40
1
 40
1
 10
377.669242
 20
463.942461
 30
0.0
 10
377.669242
 20
464.488548
 30
0.0
 10
377.886174
 20
465.012272
 30
0.0
 10
378.272306
 20
465.398416
 30
0.0
  0
SPLINE
  5
103
100
AcDbEntity
  8
0
 62
7
100
AcDbSpline
 70
8
 71
3
 72
8
 73
4
 74
0
 40
0
 40
0
 40
0
 40
0
 40
1
 40
1
 40
1
 40
1
 10
472.278262
 20
342.002430
 30
0.0
 10
471.732189
 20
342.002427
 30
0.0
 10
471.208472
 20
342.219359
 30
0.0
 10
470.822313
 20
342.605505
 30
0.0
  0
SPLINE
  5
104
100
AcDbEntity
  8
0
 62
7
100
AcDbSpline
 70
8
 71
3
 72
8
 73
4
 74
0
 40
0
 40
0
 40
0
 40
0
 40
1
 40
1
 40
1
 40
1
 10
332.096059
 20
328.196257
 30
0.0
 10
331.841212
 20
328.451088
 30
0.0
 10
331.698046
 20
328.796726
 30
0.0
 10
331.698046
 20
329.157118
 30
0.0
  0
SPLINE
  5
105
100
AcDbEntity
  8
0
 62
7
100
AcDbSpline
 70
8
 71
3
 72
8
 73
4
 74
0
 40
0
 40
0
 40
0
 40
0
 40
1
 40
1
 40
1
 40
1
 10
333.056920
 20
330.515989
 30
0.0
 10
333.807410
 20
330.515989
 30
0.0
 10
334.415793
 20
329.907603
 30
0.0
 10
334.415793
 20
329.157118
 30
0.0
  0
SPLINE
  5
106
100
AcDbEntity
  8
0
 62
7
100
AcDbSpline
 70
8
 71
3
 72
8
 73
4
 74
0
 40
0
 40
0
 40
0
 40
0
 40
1
 40
1
 40
1
 40
1
 10
474.337302
 20
344.061457
 30
0.0
 10
474.337302
 20
343.515365
 30
0.0
 10
474.120371
 20
342.991643
 30
0.0
 10
473.734238
 20
342.605505
 30
0.0
  0
SPLINE
  5
107
100
AcDbEntity
  8
0
 62
7
100
AcDbSpline
 70
8
 71
3
 72
8
 73
4
 74
0
 40
0
 40
0
 40
0
 40
0
 40
1
 40
1
 40
1
 40
1
 10
339.817791
 20
251.397206
 30
0.0
 10
340.072638
 20
251.142367
 30
0.0
 10
340.215804
 20
250.796733
 30
0.0
 10
340.215804
 20
250.436338
 30
0.0
  0
SPLINE
  5
108
100
AcDbEntity
  8
0
 62
7
100
AcDbSpline
 70
8
 71
3
 72
8
 73
4
 74
0
 40
0
 40
0
 40
0
 40
0
 40
1
 40
1
 40
1
 40
1
 10
126.046994
 20
9.811194
 30
0.0
 10
126.593067
 20
9.811194
 30
0.0
 10
127.116776
 20
9.594262
 30
0.0
 10
127.502909
 20
9.208129
 30
0.0
  0
SPLINE
  5
109
100
AcDbEntity
  8
0
 62
7
100
AcDbSpline
 70
8
 71
3
 72
8
 73
4
 74
0
 40
0
 40
0
 40
0
 40
0
 40
1
 40
1
 40
1
 40
1
 10
338.856930
 20
249.077466
 30
0.0
 10
338.496541
 20
249.077465
 30
0.0
 10
338.150890
 20
249.220633
 30
0.0
 10
337.896070
 20
249.475470
 30
0.0
  0
SPLINE
  5
10a
100
AcDbEntity
  8
0
 62
7
100
AcDbSpline
 70
8
 71
3
 72
8
 73
4
 74
0
 40
0
 40
0
 40
0
 40
0
 40
1
 40
1
 40
1
 40
1
 10
340.215804
 20
250.436338
 30
0.0
 10
340.215804
 20
250.075943
 30
0.0
 10
340.072638
 20
249.730309
 30
0.0
 10
339.817791
 20
249.475470
 30
0.0
  0
SPLINE
  5
10b
100
AcDbEntity
  8
0
 62
7
100
AcDbSpline
 70
8
 71
3
 72
8
 73
4
 74
0
 40
0
 40
0
 40
0
 40
0
 40
1
 40
1
 40
1
 40
1
 10
472.278262
 20
346.120490
 30
0.0
 10
472.824362
 20
346.120490
 30
0.0
 10
473.348078
 20
345.903555
 30
0.0
 10
473.734238
 20
345.517414
 30
0.0
  0
SPLINE
  5
10c
100
AcDbEntity
  8
0
 62
7
100
AcDbSpline
 70
8
 71
3
 72
8
 73
4
 74
0
 40
0
 40
0
 40
0
 40
0
 40
1
 40
1
 40
1
 40
1
 10
333.056920
 20
251.768991
 30
0.0
 10
333.807410
 20
251.768991
 30
0.0
 10
334.415793
 20
251.160605
 30
0.0
 10
334.415793
 20
250.410122
 30
0.0
  0
SPLINE
  5
10d
100
AcDbEntity
  8
0
 62
7
100
AcDbSpline
 70
8
 71
3
 72
8
 73
4
 74
0
 40
0
 40
0
 40
0
 40
0
 40
1
 40
1
 40
1
 40
1
 10
350.038910
 20
325.542219
 30
0.0
 10
350.399299
 20
325.542219
 30
0.0
 10
350.744951
 20
325.399053
 30
0.0
 10
350.999771
 20
325.144214
 30
0.0
  0
SPLINE
  5
10e
100
AcDbEntity
  8
0
 62
7
100
AcDbSpline
 70
8
 71
3
 72
8
 73
4
 74
0
 40
0
 40
0
 40
0
 40
0
 40
1
 40
1
 40
1
 40
1
 10
332.096059
 20
92.499188
 30
0.0
 10
331.841212
 20
92.754024
 30
0.0
 10
331.698046
 20
93.099657
 30
0.0
 10
331.698046
 20
93.460051
 30
0.0
  0
SPLINE
  5
10f
100
AcDbEntity
  8
0
 62
7
100
AcDbSpline
 70
8
 71
3
 72
8
 73
4
 74
0
 40
0
 40
0
 40
0
 40
0
 40
1
 40
1
 40
1
 40
1
 10
334.017781
 20
328.196257
 30
0.0
 10
333.762960
 20
327.941418
 30
0.0
 10
333.417309
 20
327.798252
 30
0.0
 10
333.056920
 20
327.798252
 30
0.0
  0
SPLINE
  5
110
100
AcDbEntity
  8
0
 62
7
100
AcDbSpline
 70
8
 71
3
 72
8
 73
4
 74
0
 40
0
 40
0
 40
0
 40
0
 40
1
 40
1
 40
1
 40
1
 10
343.278039
 20
89.420956
 30
0.0
 10
343.532885
 20
89.675798
 30
0.0
 10
343.878510
 20
89.818961
 30
0.0
 10
344.238899
 20
89.818961
 30
0.0
  0
SPLINE
  5
111
100
AcDbEntity
  8
0
 62
7
100
AcDbSpline
 70
8
 71
3
 72
8
 73
4
 74
0
 40
0
 40
0
 40
0
 40
0
 40
1
 40
1
 40
1
 40
1
 10
338.856930
 20
170.602447
 30
0.0
 10
338.496541
 20
170.602447
 30
0.0
 10
338.150890
 20
170.745613
 30
0.0
 10
337.896070
 20
171.000454
 30
0.0
  0
SPLINE
  5
112
100
AcDbEntity
  8
0
 62
7
100
AcDbSpline
 70
8
 71
3
 72
8
 73
4
 74
0
 40
0
 40
0
 40
0
 40
0
 40
1
 40
1
 40
1
 40
1
 10
343.278039
 20
165.974244
 30
0.0
 10
343.023192
 20
166.229083
 30
0.0
 10
342.880026
 20
166.574713
 30
0.0
 10
342.880026
 20
166.935110
 30
0.0
  0
SPLINE
  5
113
100
AcDbEntity
  8
0
 62
7
100
AcDbSpline
 70
8
 71
3
 72
8
 73
4
 74
0
 40
0
 40
0
 40
0
 40
0
 40
1
 40
1
 40
1
 40
1
 10
331.698046
 20
329.157118
 30
0.0
 10
331.698046
 20
329.907603
 30
0.0
 10
332.306429
 20
330.515989
 30
0.0
 10
333.056920
 20
330.515989
 30
0.0
  0
SPLINE
  5
114
100
AcDbEntity
  8
0
 62
7
100
AcDbSpline
 70
8
 71
3
 72
8
 73
4
 74
0
 40
0
 40
0
 40
0
 40
0
 40
1
 40
1
 40
1
 40
1
 10
378.272306
 20
462.486499
 30
0.0
 10
377.886174
 20
462.872645
 30
0.0
 10
377.669242
 20
463.396369
 30
0.0
 10
377.669242
 20
463.942461
 30
0.0
  0
SPLINE
  5
115
100
AcDbEntity
  8
0
 62
7
100
AcDbSpline
 70
8
 71
3
 72
8
 73
4
 74
0
 40
0
 40
0
 40
0
 40
0
 40
1
 40
1
 40
1
 40
1
 10
25.029051
 20
5.586333
 30
0.0
 10
24.602333
 20
5.586333
 30
0.0
 10
24.193092
 20
5.755851
 30
0.0
 10
23.891358
 20
6.057609
 30
0.0
  0
SPLINE
  5
116
100
AcDbEntity
  8
0
 62
7
100
AcDbSpline
 70
8
 71
3
 72
8
 73
4
 74
0
 40
0
 40
0
 40
0
 40
0
 40
1
 40
1
 40
1
 40
1
 10
334.017781
 20
249.449254
 30
0.0
 10
333.762960
 20
249.194417
 30
0.0
 10
333.417309
 20
249.051250
 30
0.0
 10
333.056920
 20
249.051250
 30
0.0
  0
SPLINE
  5
117
100
AcDbEntity
  8
0
 62
7
100
AcDbSpline
 70
8
 71
3
 72
8
 73
4
 74
0
 40
0
 40
0
 40
0
 40
0
 40
1
 40
1
 40
1
 40
1
 10
461.030983
 20
7.095305
 30
0.0
 10
461.030983
 20
6.206728
 30
0.0
 10
460.310629
 20
5.486400
 30
0.0
 10
459.422052
 20
5.486373
 30
0.0
  0
SPLINE
  5
118
100
AcDbEntity
  8
0
 62
7
100
AcDbSpline
 70
8
 71
3
 72
8
 73
4
 74
0
 40
0
 40
0
 40
0
 40
0
 40
1
 40
1
 40
1
 40
1
 10
381.184231
 20
462.486499
 30
0.0
 10
380.798072
 20
462.100361
 30
0.0
 10
380.274356
 20
461.883429
 30
0.0
 10
379.728256
 20
461.883429
 30
0.0
  0
SPLINE
  5
119
100
AcDbEntity
  8
0
 62
7
100
AcDbSpline
 70
8
 71
3
 72
8
 73
4
 74
0
 40
0
 40
0
 40
0
 40
0
 40
1
 40
1
 40
1
 40
1
 10
334.415793
 20
329.157118
 30
0.0
 10
334.415793
 20
328.796726
 30
0.0
 10
334.272627
 20
328.451088
 30
0.0
 10
334.017781
 20
328.196257
 30
0.0
  0
SPLINE
  5
11a
100
AcDbEntity
  8
0
 62
7
100
AcDbSpline
 70
8
 71
3
 72
8
 73
4
 74
0
 40
0
 40
0
 40
0
 40
0
 40
1
 40
1
 40
1
 40
1
 10
337.896070
 20
330.144204
 30
0.0
 10
338.150890
 20
330.399043
 30
0.0
 10
338.496541
 20
330.542209
 30
0.0
 10
338.856930
 20
330.542209
 30
0.0
  0
SPLINE
  5
11b
100
AcDbEntity
  8
0
 62
7
100
AcDbSpline
 70
8
 71
3
 72
8
 73
4
 74
0
 40
0
 40
0
 40
0
 40
0
 40
1
 40
1
 40
1
 40
1
 10
339.817791
 20
249.475470
 30
0.0
 10
339.562945
 20
249.220633
 30
0.0
 10
339.217319
 20
249.077465
 30
0.0
 10
338.856930
 20
249.077466
 30
0.0
  0
SPLINE
  5
11c
100
AcDbEntity
  8
0
 62
7
100
AcDbSpline
 70
8
 71
3
 72
8
 73
4
 74
0
 40
0
 40
0
 40
0
 40
0
 40
1
 40
1
 40
1
 40
1
 10
337.896070
 20
249.475470
 30
0.0
 10
337.641223
 20
249.730309
 30
0.0
 10
337.498057
 20
250.075943
 30
0.0
 10
337.498057
 20
250.436338
 30
0.0
  0
SPLINE
  5
11d
100
AcDbEntity
  8
0
 62
7
100
AcDbSpline
 70
8
 71
3
 72
8
 73
4
 74
0
 40
0
 40
0
 40
0
 40
0
 40
1
 40
1
 40
1
 40
1
 10
337.896070
 20
251.397206
 30
0.0
 10
338.150890
 20
251.652044
 30
0.0
 10
338.496541
 20
251.795210
 30
0.0
 10
338.856930
 20
251.795210
 30
0.0
  0
SPLINE
  5
11e
100
AcDbEntity
  8
0
 62
7
100
AcDbSpline
 70
8
 71
3
 72
8
 73
4
 74
0
 40
0
 40
0
 40
0
 40
0
 40
1
 40
1
 40
1
 40
1
 10
337.498057
 20
250.436338
 30
0.0
 10
337.498057
 20
250.796733
 30
0.0
 10
337.641223
 20
251.142367
 30
0.0
 10
337.896070
 20
251.397206
 30
0.0
  0
SPLINE
  5
11f
100
AcDbEntity
  8
0
 62
7
100
AcDbSpline
 70
8
 71
3
 72
8
 73
4
 74
0
 40
0
 40
0
 40
0
 40
0
 40
1
 40
1
 40
1
 40
1
 10
124.591084
 20
9.208124
 30
0.0
 10
124.977215
 20
9.594262
 30
0.0
 10
125.500920
 20
9.811194
 30
0.0
 10
126.046994
 20
9.811194
 30
0.0
  0
SPLINE
  5
120
100
AcDbEntity
  8
0
 62
7
100
AcDbSpline
 70
8
 71
3
 72
8
 73
4
 74
0
 40
0
 40
0
 40
0
 40
0
 40
1
 40
1
 40
1
 40
1
 10
470.822313
 20
345.517414
 30
0.0
 10
471.208472
 20
345.903555
 30
0.0
 10
471.732189
 20
346.120490
 30
0.0
 10
472.278262
 20
346.120490
 30
0.0
  0
SPLINE
  5
121
100
AcDbEntity
  8
0
 62
7
100
AcDbSpline
 70
8
 71
3
 72
8
 73
4
 74
0
 40
0
 40
0
 40
0
 40
0
 40
1
 40
1
 40
1
 40
1
 10
349.078049
 20
89.447206
 30
0.0
 10
349.332869
 20
89.702039
 30
0.0
 10
349.678521
 20
89.845210
 30
0.0
 10
350.038910
 20
89.845210
 30
0.0
  0
SPLINE
  5
122
100
AcDbEntity
  8
0
 62
7
100
AcDbSpline
 70
8
 71
3
 72
8
 73
4
 74
0
 40
0
 40
0
 40
0
 40
0
 40
1
 40
1
 40
1
 40
1
 10
342.880026
 20
245.410132
 30
0.0
 10
342.880026
 20
246.160615
 30
0.0
 10
343.488409
 20
246.769001
 30
0.0
 10
344.238899
 20
246.769001
 30
0.0
  0
SPLINE
  5
123
100
AcDbEntity
  8
0
 62
7
100
AcDbSpline
 70
8
 71
3
 72
8
 73
4
 74
0
 40
0
 40
0
 40
0
 40
0
 40
1
 40
1
 40
1
 40
1
 10
473.734238
 20
342.605505
 30
0.0
 10
473.348078
 20
342.219359
 30
0.0
 10
472.824362
 20
342.002427
 30
0.0
 10
472.278262
 20
342.002430
 30
0.0
  0
SPLINE
  5
124
100
AcDbEntity
  8
0
 62
7
100
AcDbSpline
 70
8
 71
3
 72
8
 73
4
 74
0
 40
0
 40
0
 40
0
 40
0
 40
1
 40
1
 40
1
 40
1
 10
127.502909
 20
9.208129
 30
0.0
 10
127.889036
 20
8.821994
 30
0.0
 10
128.105960
 20
8.298283
 30
0.0
 10
128.105955
 20
7.752209
 30
0.0
  0
SPLINE
  5
125
100
AcDbEntity
  8
0
 62
7
100
AcDbSpline
 70
8
 71
3
 72
8
 73
4
 74
0
 40
0
 40
0
 40
0
 40
0
 40
1
 40
1
 40
1
 40
1
 10
470.822313
 20
342.605505
 30
0.0
 10
470.436180
 20
342.991643
 30
0.0
 10
470.219248
 20
343.515365
 30
0.0
 10
470.219248
 20
344.061457
 30
0.0
  0
SPLINE
  5
126
100
AcDbEntity
  8
0
 62
7
100
AcDbSpline
 70
8
 71
3
 72
8
 73
4
 74
0
 40
0
 40
0
 40
0
 40
0
 40
1
 40
1
 40
1
 40
1
 10
334.415793
 20
250.410122
 30
0.0
 10
334.415793
 20
250.049727
 30
0.0
 10
334.272627
 20
249.704092
 30
0.0
 10
334.017781
 20
249.449254
 30
0.0
  0
SPLINE
  5
127
100
AcDbEntity
  8
0
 62
7
100
AcDbSpline
 70
8
 71
3
 72
8
 73
4
 74
0
 40
0
 40
0
 40
0
 40
0
 40
1
 40
1
 40
1
 40
1
 10
338.856930
 20
251.795210
 30
0.0
 10
339.217319
 20
251.795210
 30
0.0
 10
339.562945
 20
251.652044
 30
0.0
 10
339.817791
 20
251.397206
 30
0.0
  0
SPLINE
  5
128
100
AcDbEntity
  8
0
 62
7
100
AcDbSpline
 70
8
 71
3
 72
8
 73
4
 74
0
 40
0
 40
0
 40
0
 40
0
 40
1
 40
1
 40
1
 40
1
 10
333.056920
 20
249.051250
 30
0.0
 10
332.696531
 20
249.051250
 30
0.0
 10
332.350879
 20
249.194417
 30
0.0
 10
332.096059
 20
249.449254
 30
0.0
  0
SPLINE
  5
129
100
AcDbEntity
  8
0
 62
7
100
AcDbSpline
 70
8
 71
3
 72
8
 73
4
 74
0
 40
0
 40
0
 40
0
 40
0
 40
1
 40
1
 40
1
 40
1
 10
470.219248
 20
344.061457
 30
0.0
 10
470.219248
 20
344.607546
 30
0.0
 10
470.436180
 20
345.131268
 30
0.0
 10
470.822313
 20
345.517414
 30
0.0
  0
SPLINE
  5
12a
100
AcDbEntity
  8
0
 62
7
100
AcDbSpline
 70
8
 71
3
 72
8
 73
4
 74
0
 40
0
 40
0
 40
0
 40
0
 40
1
 40
1
 40
1
 40
1
 10
343.278039
 20
244.449261
 30
0.0
 10
343.023192
 20
244.704102
 30
0.0
 10
342.880026
 20
245.049738
 30
0.0
 10
342.880026
 20
245.410132
 30
0.0
  0
SPLINE
  5
12b
100
AcDbEntity
  8
0
 62
7
100
AcDbSpline
 70
8
 71
3
 72
8
 73
4
 74
0
 40
0
 40
0
 40
0
 40
0
 40
1
 40
1
 40
1
 40
1
 10
234.966028
 20
367.047486
 30
0.0
 10
234.711189
 20
367.302327
 30
0.0
 10
234.568023
 20
367.647963
 30
0.0
 10
234.568023
 20
368.008357
 30
0.0
  0
SPLINE
  5
12c
100
AcDbEntity
  8
0
 62
7
100
AcDbSpline
 70
8
 71
3
 72
8
 73
4
 74
0
 40
0
 40
0
 40
0
 40
0
 40
1
 40
1
 40
1
 40
1
 10
89.068081
 20
343.843247
 30
0.0
 10
88.707687
 20
343.843242
 30
0.0
 10
88.362054
 20
343.986413
 30
0.0
 10
88.107215
 20
344.241249
 30
0.0
  0
SPLINE
  5
12d
100
AcDbEntity
  8
0
 62
7
100
AcDbSpline
 70
8
 71
3
 72
8
 73
4
 74
0
 40
0
 40
0
 40
0
 40
0
 40
1
 40
1
 40
1
 40
1
 10
287.683021
 20
290.902125
 30
0.0
 10
287.683021
 20
291.262520
 30
0.0
 10
287.826187
 20
291.608155
 30
0.0
 10
288.081007
 20
291.862993
 30
0.0
  0
SPLINE
  5
12e
100
AcDbEntity
  8
0
 62
7
100
AcDbSpline
 70
8
 71
3
 72
8
 73
4
 74
0
 40
0
 40
0
 40
0
 40
0
 40
1
 40
1
 40
1
 40
1
 10
235.926894
 20
366.649484
 30
0.0
 10
235.566500
 20
366.649484
 30
0.0
 10
235.220866
 20
366.792650
 30
0.0
 10
234.966028
 20
367.047486
 30
0.0
  0
SPLINE
  5
12f
100
AcDbEntity
  8
0
 62
7
100
AcDbSpline
 70
8
 71
3
 72
8
 73
4
 74
0
 40
0
 40
0
 40
0
 40
0
 40
1
 40
1
 40
1
 40
1
 10
190.400804
 20
290.902122
 30
0.0
 10
190.400804
 20
290.151638
 30
0.0
 10
189.792405
 20
289.543252
 30
0.0
 10
189.041915
 20
289.543251
 30
0.0
  0
SPLINE
  5
130
100
AcDbEntity
  8
0
 62
7
100
AcDbSpline
 70
8
 71
3
 72
8
 73
4
 74
0
 40
0
 40
0
 40
0
 40
0
 40
1
 40
1
 40
1
 40
1
 10
187.683023
 20
290.902122
 30
0.0
 10
187.683023
 20
291.262518
 30
0.0
 10
187.826191
 20
291.608151
 30
0.0
 10
188.081033
 20
291.862989
 30
0.0
  0
SPLINE
  5
131
100
AcDbEntity
  8
0
 62
7
100
AcDbSpline
 70
8
 71
3
 72
8
 73
4
 74
0
 40
0
 40
0
 40
0
 40
0
 40
1
 40
1
 40
1
 40
1
 10
188.081033
 20
291.862989
 30
0.0
 10
188.335874
 20
292.117828
 30
0.0
 10
188.681515
 20
292.260994
 30
0.0
 10
189.041915
 20
292.260994
 30
0.0
  0
SPLINE
  5
132
100
AcDbEntity
  8
0
 62
7
100
AcDbSpline
 70
8
 71
3
 72
8
 73
4
 74
0
 40
0
 40
0
 40
0
 40
0
 40
1
 40
1
 40
1
 40
1
 10
187.682996
 20
351.002123
 30
0.0
 10
187.682996
 20
351.362518
 30
0.0
 10
187.826162
 20
351.708151
 30
0.0
 10
188.080998
 20
351.962987
 30
0.0
  0
SPLINE
  5
133
100
AcDbEntity
  8
0
 62
7
100
AcDbSpline
 70
8
 71
3
 72
8
 73
4
 74
0
 40
0
 40
0
 40
0
 40
0
 40
1
 40
1
 40
1
 40
1
 10
187.709243
 20
285.102120
 30
0.0
 10
187.709240
 20
285.852602
 30
0.0
 10
188.317636
 20
286.460990
 30
0.0
 10
189.068132
 20
286.460991
 30
0.0
  0
SPLINE
  5
134
100
AcDbEntity
  8
0
 62
7
100
AcDbSpline
 70
8
 71
3
 72
8
 73
4
 74
0
 40
0
 40
0
 40
0
 40
0
 40
1
 40
1
 40
1
 40
1
 10
289.041895
 20
289.543253
 30
0.0
 10
288.681479
 20
289.543253
 30
0.0
 10
288.335854
 20
289.686419
 30
0.0
 10
288.081007
 20
289.941257
 30
0.0
  0
SPLINE
  5
135
100
AcDbEntity
  8
0
 62
7
100
AcDbSpline
 70
8
 71
3
 72
8
 73
4
 74
0
 40
0
 40
0
 40
0
 40
0
 40
1
 40
1
 40
1
 40
1
 10
337.896070
 20
94.447169
 30
0.0
 10
338.150890
 20
94.702003
 30
0.0
 10
338.496541
 20
94.845169
 30
0.0
 10
338.856930
 20
94.845169
 30
0.0
  0
SPLINE
  5
136
100
AcDbEntity
  8
0
 62
7
100
AcDbSpline
 70
8
 71
3
 72
8
 73
4
 74
0
 40
0
 40
0
 40
0
 40
0
 40
1
 40
1
 40
1
 40
1
 10
189.068132
 20
286.460991
 30
0.0
 10
189.428532
 20
286.460991
 30
0.0
 10
189.774170
 20
286.317825
 30
0.0
 10
190.029012
 20
286.062987
 30
0.0
  0
SPLINE
  5
137
100
AcDbEntity
  8
0
 62
7
100
AcDbSpline
 70
8
 71
3
 72
8
 73
4
 74
0
 40
0
 40
0
 40
0
 40
0
 40
1
 40
1
 40
1
 40
1
 10
189.041915
 20
292.260994
 30
0.0
 10
189.792405
 20
292.260994
 30
0.0
 10
190.400804
 20
291.652605
 30
0.0
 10
190.400804
 20
290.902122
 30
0.0
  0
SPLINE
  5
138
100
AcDbEntity
  8
0
 62
7
100
AcDbSpline
 70
8
 71
3
 72
8
 73
4
 74
0
 40
0
 40
0
 40
0
 40
0
 40
1
 40
1
 40
1
 40
1
 10
90.029040
 20
284.141252
 30
0.0
 10
89.774198
 20
283.886414
 30
0.0
 10
89.428560
 20
283.743248
 30
0.0
 10
89.068158
 20
283.743248
 30
0.0
  0
SPLINE
  5
139
100
AcDbEntity
  8
0
 62
7
100
AcDbSpline
 70
8
 71
3
 72
8
 73
4
 74
0
 40
0
 40
0
 40
0
 40
0
 40
1
 40
1
 40
1
 40
1
 10
190.427022
 20
285.102120
 30
0.0
 10
190.427022
 20
284.741724
 30
0.0
 10
190.283850
 20
284.396089
 30
0.0
 10
190.029012
 20
284.141252
 30
0.0
  0
SPLINE
  5
13a
100
AcDbEntity
  8
0
 62
7
100
AcDbSpline
 70
8
 71
3
 72
8
 73
4
 74
0
 40
0
 40
0
 40
0
 40
0
 40
1
 40
1
 40
1
 40
1
 10
87.709210
 20
345.202118
 30
0.0
 10
87.709210
 20
345.562512
 30
0.0
 10
87.852376
 20
345.908148
 30
0.0
 10
88.107215
 20
346.162987
 30
0.0
  0
SPLINE
  5
13b
100
AcDbEntity
  8
0
 62
7
100
AcDbSpline
 70
8
 71
3
 72
8
 73
4
 74
0
 40
0
 40
0
 40
0
 40
0
 40
1
 40
1
 40
1
 40
1
 10
189.041915
 20
289.543251
 30
0.0
 10
188.681515
 20
289.543249
 30
0.0
 10
188.335874
 20
289.686417
 30
0.0
 10
188.081033
 20
289.941254
 30
0.0
  0
SPLINE
  5
13c
100
AcDbEntity
  8
0
 62
7
100
AcDbSpline
 70
8
 71
3
 72
8
 73
4
 74
0
 40
0
 40
0
 40
0
 40
0
 40
1
 40
1
 40
1
 40
1
 10
290.400742
 20
290.902125
 30
0.0
 10
290.400742
 20
290.541730
 30
0.0
 10
290.257576
 20
290.196096
 30
0.0
 10
290.002756
 20
289.941257
 30
0.0
  0
SPLINE
  5
13d
100
AcDbEntity
  8
0
 62
7
100
AcDbSpline
 70
8
 71
3
 72
8
 73
4
 74
0
 40
0
 40
0
 40
0
 40
0
 40
1
 40
1
 40
1
 40
1
 10
295.047249
 20
394.076433
 30
0.0
 10
294.501175
 20
394.076433
 30
0.0
 10
293.977459
 20
394.293368
 30
0.0
 10
293.591299
 20
394.679508
 30
0.0
  0
SPLINE
  5
13e
100
AcDbEntity
  8
0
 62
7
100
AcDbSpline
 70
8
 71
3
 72
8
 73
4
 74
0
 40
0
 40
0
 40
0
 40
0
 40
1
 40
1
 40
1
 40
1
 10
289.068141
 20
286.460991
 30
0.0
 10
289.428530
 20
286.460991
 30
0.0
 10
289.774156
 20
286.317825
 30
0.0
 10
290.029002
 20
286.062987
 30
0.0
  0
SPLINE
  5
13f
100
AcDbEntity
  8
0
 62
7
100
AcDbSpline
 70
8
 71
3
 72
8
 73
4
 74
0
 40
0
 40
0
 40
0
 40
0
 40
1
 40
1
 40
1
 40
1
 10
89.068158
 20
286.460991
 30
0.0
 10
89.428560
 20
286.460991
 30
0.0
 10
89.774198
 20
286.317825
 30
0.0
 10
90.029040
 20
286.062987
 30
0.0
  0
SPLINE
  5
140
100
AcDbEntity
  8
0
 62
7
100
AcDbSpline
 70
8
 71
3
 72
8
 73
4
 74
0
 40
0
 40
0
 40
0
 40
0
 40
1
 40
1
 40
1
 40
1
 10
89.068158
 20
283.743248
 30
0.0
 10
88.317665
 20
283.743249
 30
0.0
 10
87.709268
 20
284.351637
 30
0.0
 10
87.709271
 20
285.102120
 30
0.0
  0
SPLINE
  5
141
100
AcDbEntity
  8
0
 62
7
100
AcDbSpline
 70
8
 71
3
 72
8
 73
4
 74
0
 40
0
 40
0
 40
0
 40
0
 40
1
 40
1
 40
1
 40
1
 10
90.029040
 20
286.062987
 30
0.0
 10
90.283881
 20
285.808150
 30
0.0
 10
90.427050
 20
285.462515
 30
0.0
 10
90.427050
 20
285.102120
 30
0.0
  0
SPLINE
  5
142
100
AcDbEntity
  8
0
 62
7
100
AcDbSpline
 70
8
 71
3
 72
8
 73
4
 74
0
 40
0
 40
0
 40
0
 40
0
 40
1
 40
1
 40
1
 40
1
 10
290.426989
 20
285.102120
 30
0.0
 10
290.426989
 20
284.741724
 30
0.0
 10
290.283822
 20
284.396089
 30
0.0
 10
290.029002
 20
284.141252
 30
0.0
  0
SPLINE
  5
143
100
AcDbEntity
  8
0
 62
7
100
AcDbSpline
 70
8
 71
3
 72
8
 73
4
 74
0
 40
0
 40
0
 40
0
 40
0
 40
1
 40
1
 40
1
 40
1
 10
5.435118
 20
25.202422
 30
0.0
 10
5.435126
 20
26.091001
 30
0.0
 10
6.155467
 20
26.811330
 30
0.0
 10
7.044052
 20
26.811330
 30
0.0
  0
SPLINE
  5
144
100
AcDbEntity
  8
0
 62
7
100
AcDbSpline
 70
8
 71
3
 72
8
 73
4
 74
0
 40
0
 40
0
 40
0
 40
0
 40
1
 40
1
 40
1
 40
1
 10
188.081033
 20
289.941254
 30
0.0
 10
187.826191
 20
290.196092
 30
0.0
 10
187.683023
 20
290.541727
 30
0.0
 10
187.683023
 20
290.902122
 30
0.0
  0
SPLINE
  5
145
100
AcDbEntity
  8
0
 62
7
100
AcDbSpline
 70
8
 71
3
 72
8
 73
4
 74
0
 40
0
 40
0
 40
0
 40
0
 40
1
 40
1
 40
1
 40
1
 10
8.652983
 20
25.202422
 30
0.0
 10
8.652988
 20
24.775702
 30
0.0
 10
8.483477
 20
24.366447
 30
0.0
 10
8.181744
 20
24.064716
 30
0.0
  0
SPLINE
  5
146
100
AcDbEntity
  8
0
 62
7
100
AcDbSpline
 70
8
 71
3
 72
8
 73
4
 74
0
 40
0
 40
0
 40
0
 40
0
 40
1
 40
1
 40
1
 40
1
 10
8.181744
 20
24.064716
 30
0.0
 10
7.880011
 20
23.762986
 30
0.0
 10
7.470769
 20
23.593464
 30
0.0
 10
7.044052
 20
23.593464
 30
0.0
  0
SPLINE
  5
147
100
AcDbEntity
  8
0
 62
7
100
AcDbSpline
 70
8
 71
3
 72
8
 73
4
 74
0
 40
0
 40
0
 40
0
 40
0
 40
1
 40
1
 40
1
 40
1
 10
333.056920
 20
94.818925
 30
0.0
 10
333.417309
 20
94.818925
 30
0.0
 10
333.762960
 20
94.675756
 30
0.0
 10
334.017781
 20
94.420920
 30
0.0
  0
SPLINE
  5
148
100
AcDbEntity
  8
0
 62
7
100
AcDbSpline
 70
8
 71
3
 72
8
 73
4
 74
0
 40
0
 40
0
 40
0
 40
0
 40
1
 40
1
 40
1
 40
1
 10
344.238899
 20
89.818961
 30
0.0
 10
344.599288
 20
89.818961
 30
0.0
 10
344.944940
 20
89.675798
 30
0.0
 10
345.199760
 20
89.420956
 30
0.0
  0
SPLINE
  5
149
100
AcDbEntity
  8
0
 62
7
100
AcDbSpline
 70
8
 71
3
 72
8
 73
4
 74
0
 40
0
 40
0
 40
0
 40
0
 40
1
 40
1
 40
1
 40
1
 10
190.029012
 20
286.062987
 30
0.0
 10
190.283850
 20
285.808150
 30
0.0
 10
190.427022
 20
285.462515
 30
0.0
 10
190.427022
 20
285.102120
 30
0.0
  0
SPLINE
  5
14a
100
AcDbEntity
  8
0
 62
7
100
AcDbSpline
 70
8
 71
3
 72
8
 73
4
 74
0
 40
0
 40
0
 40
0
 40
0
 40
1
 40
1
 40
1
 40
1
 10
90.427050
 20
285.102120
 30
0.0
 10
90.427050
 20
284.741724
 30
0.0
 10
90.283881
 20
284.396089
 30
0.0
 10
90.029040
 20
284.141252
 30
0.0
  0
SPLINE
  5
14b
100
AcDbEntity
  8
0
 62
7
100
AcDbSpline
 70
8
 71
3
 72
8
 73
4
 74
0
 40
0
 40
0
 40
0
 40
0
 40
1
 40
1
 40
1
 40
1
 10
288.081007
 20
289.941257
 30
0.0
 10
287.826187
 20
290.196096
 30
0.0
 10
287.683021
 20
290.541730
 30
0.0
 10
287.683021
 20
290.902125
 30
0.0
  0
SPLINE
  5
14c
100
AcDbEntity
  8
0
 62
7
100
AcDbSpline
 70
8
 71
3
 72
8
 73
4
 74
0
 40
0
 40
0
 40
0
 40
0
 40
1
 40
1
 40
1
 40
1
 10
190.029012
 20
284.141252
 30
0.0
 10
189.774170
 20
283.886414
 30
0.0
 10
189.428532
 20
283.743248
 30
0.0
 10
189.068132
 20
283.743248
 30
0.0
  0
SPLINE
  5
14d
100
AcDbEntity
  8
0
 62
7
100
AcDbSpline
 70
8
 71
3
 72
8
 73
4
 74
0
 40
0
 40
0
 40
0
 40
0
 40
1
 40
1
 40
1
 40
1
 10
87.709271
 20
285.102120
 30
0.0
 10
87.709268
 20
285.852602
 30
0.0
 10
88.317665
 20
286.460990
 30
0.0
 10
89.068158
 20
286.460991
 30
0.0
  0
SPLINE
  5
14e
100
AcDbEntity
  8
0
 62
7
100
AcDbSpline
 70
8
 71
3
 72
8
 73
4
 74
0
 40
0
 40
0
 40
0
 40
0
 40
1
 40
1
 40
1
 40
1
 10
90.400832
 20
290.902122
 30
0.0
 10
90.400832
 20
290.151638
 30
0.0
 10
89.792433
 20
289.543252
 30
0.0
 10
89.041943
 20
289.543251
 30
0.0
  0
SPLINE
  5
14f
100
AcDbEntity
  8
0
 62
7
100
AcDbSpline
 70
8
 71
3
 72
8
 73
4
 74
0
 40
0
 40
0
 40
0
 40
0
 40
1
 40
1
 40
1
 40
1
 10
88.081061
 20
289.941254
 30
0.0
 10
87.826219
 20
290.196092
 30
0.0
 10
87.683051
 20
290.541727
 30
0.0
 10
87.683051
 20
290.902122
 30
0.0
  0
SPLINE
  5
150
100
AcDbEntity
  8
0
 62
7
100
AcDbSpline
 70
8
 71
3
 72
8
 73
4
 74
0
 40
0
 40
0
 40
0
 40
0
 40
1
 40
1
 40
1
 40
1
 10
87.683051
 20
290.902122
 30
0.0
 10
87.683051
 20
291.262518
 30
0.0
 10
87.826219
 20
291.608151
 30
0.0
 10
88.081061
 20
291.862989
 30
0.0
  0
SPLINE
  5
151
100
AcDbEntity
  8
0
 62
7
100
AcDbSpline
 70
8
 71
3
 72
8
 73
4
 74
0
 40
0
 40
0
 40
0
 40
0
 40
1
 40
1
 40
1
 40
1
 10
188.080998
 20
350.041252
 30
0.0
 10
187.826162
 20
350.296093
 30
0.0
 10
187.682996
 20
350.641729
 30
0.0
 10
187.682996
 20
351.002123
 30
0.0
  0
SPLINE
  5
152
100
AcDbEntity
  8
0
 62
7
100
AcDbSpline
 70
8
 71
3
 72
8
 73
4
 74
0
 40
0
 40
0
 40
0
 40
0
 40
1
 40
1
 40
1
 40
1
 10
345.199760
 20
89.420956
 30
0.0
 10
345.454607
 20
89.166115
 30
0.0
 10
345.597773
 20
88.820487
 30
0.0
 10
345.597773
 20
88.460090
 30
0.0
  0
SPLINE
  5
153
100
AcDbEntity
  8
0
 62
7
100
AcDbSpline
 70
8
 71
3
 72
8
 73
4
 74
0
 40
0
 40
0
 40
0
 40
0
 40
1
 40
1
 40
1
 40
1
 10
339.817791
 20
94.447169
 30
0.0
 10
340.072638
 20
94.192330
 30
0.0
 10
340.215804
 20
93.846695
 30
0.0
 10
340.215804
 20
93.486300
 30
0.0
  0
SPLINE
  5
154
100
AcDbEntity
  8
0
 62
7
100
AcDbSpline
 70
8
 71
3
 72
8
 73
4
 74
0
 40
0
 40
0
 40
0
 40
0
 40
1
 40
1
 40
1
 40
1
 10
23.420119
 20
7.195291
 30
0.0
 10
23.420125
 20
8.083854
 30
0.0
 10
24.140466
 20
8.804211
 30
0.0
 10
25.029051
 20
8.804211
 30
0.0
  0
SPLINE
  5
155
100
AcDbEntity
  8
0
 62
7
100
AcDbSpline
 70
8
 71
3
 72
8
 73
4
 74
0
 40
0
 40
0
 40
0
 40
0
 40
1
 40
1
 40
1
 40
1
 10
290.002756
 20
291.862993
 30
0.0
 10
290.257576
 20
291.608155
 30
0.0
 10
290.400742
 20
291.262520
 30
0.0
 10
290.400742
 20
290.902125
 30
0.0
  0
SPLINE
  5
156
100
AcDbEntity
  8
0
 62
7
100
AcDbSpline
 70
8
 71
3
 72
8
 73
4
 74
0
 40
0
 40
0
 40
0
 40
0
 40
1
 40
1
 40
1
 40
1
 10
345.597773
 20
88.460090
 30
0.0
 10
345.597773
 20
87.709615
 30
0.0
 10
344.989390
 20
87.101248
 30
0.0
 10
344.238899
 20
87.101248
 30
0.0
  0
SPLINE
  5
157
100
AcDbEntity
  8
0
 62
7
100
AcDbSpline
 70
8
 71
3
 72
8
 73
4
 74
0
 40
0
 40
0
 40
0
 40
0
 40
1
 40
1
 40
1
 40
1
 10
89.068081
 20
346.560989
 30
0.0
 10
89.428478
 20
346.560989
 30
0.0
 10
89.774108
 20
346.417823
 30
0.0
 10
90.028950
 20
346.162987
 30
0.0
  0
SPLINE
  5
158
100
AcDbEntity
  8
0
 62
7
100
AcDbSpline
 70
8
 71
3
 72
8
 73
4
 74
0
 40
0
 40
0
 40
0
 40
0
 40
1
 40
1
 40
1
 40
1
 10
189.068132
 20
283.743248
 30
0.0
 10
188.317636
 20
283.743249
 30
0.0
 10
187.709240
 20
284.351637
 30
0.0
 10
187.709243
 20
285.102120
 30
0.0
  0
SPLINE
  5
159
100
AcDbEntity
  8
0
 62
7
100
AcDbSpline
 70
8
 71
3
 72
8
 73
4
 74
0
 40
0
 40
0
 40
0
 40
0
 40
1
 40
1
 40
1
 40
1
 10
338.856930
 20
94.845169
 30
0.0
 10
339.217319
 20
94.845169
 30
0.0
 10
339.562945
 20
94.702003
 30
0.0
 10
339.817791
 20
94.447169
 30
0.0
  0
SPLINE
  5
15a
100
AcDbEntity
  8
0
 62
7
100
AcDbSpline
 70
8
 71
3
 72
8
 73
4
 74
0
 40
0
 40
0
 40
0
 40
0
 40
1
 40
1
 40
1
 40
1
 10
237.285767
 20
368.008357
 30
0.0
 10
237.285767
 20
367.647963
 30
0.0
 10
237.142601
 20
367.302327
 30
0.0
 10
236.887763
 20
367.047486
 30
0.0
  0
SPLINE
  5
15b
100
AcDbEntity
  8
0
 62
7
100
AcDbSpline
 70
8
 71
3
 72
8
 73
4
 74
0
 40
0
 40
0
 40
0
 40
0
 40
1
 40
1
 40
1
 40
1
 10
26.166743
 20
6.057609
 30
0.0
 10
25.865010
 20
5.755851
 30
0.0
 10
25.455771
 20
5.586333
 30
0.0
 10
25.029051
 20
5.586333
 30
0.0
  0
SPLINE
  5
15c
100
AcDbEntity
  8
0
 62
7
100
AcDbSpline
 70
8
 71
3
 72
8
 73
4
 74
0
 40
0
 40
0
 40
0
 40
0
 40
1
 40
1
 40
1
 40
1
 10
458.284370
 20
8.232973
 30
0.0
 10
458.586101
 20
8.534707
 30
0.0
 10
458.995332
 20
8.704225
 30
0.0
 10
459.422052
 20
8.704225
 30
0.0
  0
SPLINE
  5
15d
100
AcDbEntity
  8
0
 62
7
100
AcDbSpline
 70
8
 71
3
 72
8
 73
4
 74
0
 40
0
 40
0
 40
0
 40
0
 40
1
 40
1
 40
1
 40
1
 10
5.906356
 20
24.064716
 30
0.0
 10
5.604623
 20
24.366447
 30
0.0
 10
5.435115
 20
24.775702
 30
0.0
 10
5.435118
 20
25.202422
 30
0.0
  0
SPLINE
  5
15e
100
AcDbEntity
  8
0
 62
7
100
AcDbSpline
 70
8
 71
3
 72
8
 73
4
 74
0
 40
0
 40
0
 40
0
 40
0
 40
1
 40
1
 40
1
 40
1
 10
348.680036
 20
88.486340
 30
0.0
 10
348.680036
 20
88.846731
 30
0.0
 10
348.823202
 20
89.192370
 30
0.0
 10
349.078049
 20
89.447206
 30
0.0
  0
SPLINE
  5
15f
100
AcDbEntity
  8
0
 62
7
100
AcDbSpline
 70
8
 71
3
 72
8
 73
4
 74
0
 40
0
 40
0
 40
0
 40
0
 40
1
 40
1
 40
1
 40
1
 10
90.028950
 20
344.241249
 30
0.0
 10
89.774108
 20
343.986413
 30
0.0
 10
89.428478
 20
343.843242
 30
0.0
 10
89.068081
 20
343.843247
 30
0.0
  0
SPLINE
  5
160
100
AcDbEntity
  8
0
 62
7
100
AcDbSpline
 70
8
 71
3
 72
8
 73
4
 74
0
 40
0
 40
0
 40
0
 40
0
 40
1
 40
1
 40
1
 40
1
 10
7.044052
 20
23.593464
 30
0.0
 10
6.617332
 20
23.593464
 30
0.0
 10
6.208093
 20
23.762986
 30
0.0
 10
5.906356
 20
24.064716
 30
0.0
  0
SPLINE
  5
161
100
AcDbEntity
  8
0
 62
7
100
AcDbSpline
 70
8
 71
3
 72
8
 73
4
 74
0
 40
0
 40
0
 40
0
 40
0
 40
1
 40
1
 40
1
 40
1
 10
342.880026
 20
88.460090
 30
0.0
 10
342.880026
 20
88.820487
 30
0.0
 10
343.023192
 20
89.166115
 30
0.0
 10
343.278039
 20
89.420956
 30
0.0
  0
SPLINE
  5
162
100
AcDbEntity
  8
0
 62
7
100
AcDbSpline
 70
8
 71
3
 72
8
 73
4
 74
0
 40
0
 40
0
 40
0
 40
0
 40
1
 40
1
 40
1
 40
1
 10
477.418084
 20
23.482369
 30
0.0
 10
476.991364
 20
23.482339
 30
0.0
 10
476.582107
 20
23.651858
 30
0.0
 10
476.280376
 20
23.953591
 30
0.0
  0
SPLINE
  5
163
100
AcDbEntity
  8
0
 62
7
100
AcDbSpline
 70
8
 71
3
 72
8
 73
4
 74
0
 40
0
 40
0
 40
0
 40
0
 40
1
 40
1
 40
1
 40
1
 10
288.107254
 20
284.141252
 30
0.0
 10
287.852434
 20
284.396089
 30
0.0
 10
287.709268
 20
284.741724
 30
0.0
 10
287.709268
 20
285.102120
 30
0.0
  0
SPLINE
  5
164
100
AcDbEntity
  8
0
 62
7
100
AcDbSpline
 70
8
 71
3
 72
8
 73
4
 74
0
 40
0
 40
0
 40
0
 40
0
 40
1
 40
1
 40
1
 40
1
 10
154.088025
 20
7.752209
 30
0.0
 10
154.088014
 20
8.298283
 30
0.0
 10
154.304941
 20
8.821994
 30
0.0
 10
154.691071
 20
9.208129
 30
0.0
  0
SPLINE
  5
165
100
AcDbEntity
  8
0
 62
7
100
AcDbSpline
 70
8
 71
3
 72
8
 73
4
 74
0
 40
0
 40
0
 40
0
 40
0
 40
1
 40
1
 40
1
 40
1
 10
476.280376
 20
23.953591
 30
0.0
 10
475.978645
 20
24.255346
 30
0.0
 10
475.809127
 20
24.664577
 30
0.0
 10
475.809127
 20
25.091297
 30
0.0
  0
SPLINE
  5
166
100
AcDbEntity
  8
0
 62
7
100
AcDbSpline
 70
8
 71
3
 72
8
 73
4
 74
0
 40
0
 40
0
 40
0
 40
0
 40
1
 40
1
 40
1
 40
1
 10
158.206275
 20
476.752496
 30
0.0
 10
158.206275
 20
476.206410
 30
0.0
 10
157.989343
 20
475.682688
 30
0.0
 10
157.603200
 20
475.296545
 30
0.0
  0
SPLINE
  5
167
100
AcDbEntity
  8
0
 62
7
100
AcDbSpline
 70
8
 71
3
 72
8
 73
4
 74
0
 40
0
 40
0
 40
0
 40
0
 40
1
 40
1
 40
1
 40
1
 10
194.111922
 20
473.913602
 30
0.0
 10
195.249162
 20
473.913517
 30
0.0
 10
196.171004
 20
472.991537
 30
0.0
 10
196.170920
 20
471.854297
 30
0.0
  0
SPLINE
  5
168
100
AcDbEntity
  8
0
 62
7
100
AcDbSpline
 70
8
 71
3
 72
8
 73
4
 74
0
 40
0
 40
0
 40
0
 40
0
 40
1
 40
1
 40
1
 40
1
 10
326.603203
 20
394.679508
 30
0.0
 10
326.217070
 20
394.293368
 30
0.0
 10
325.693327
 20
394.076433
 30
0.0
 10
325.147254
 20
394.076433
 30
0.0
  0
SPLINE
  5
169
100
AcDbEntity
  8
0
 62
7
100
AcDbSpline
 70
8
 71
3
 72
8
 73
4
 74
0
 40
0
 40
0
 40
0
 40
0
 40
1
 40
1
 40
1
 40
1
 10
350.038910
 20
89.845210
 30
0.0
 10
350.399299
 20
89.845210
 30
0.0
 10
350.744951
 20
89.702039
 30
0.0
 10
350.999771
 20
89.447206
 30
0.0
  0
SPLINE
  5
16a
100
AcDbEntity
  8
0
 62
7
100
AcDbSpline
 70
8
 71
3
 72
8
 73
4
 74
0
 40
0
 40
0
 40
0
 40
0
 40
1
 40
1
 40
1
 40
1
 10
157.602896
 20
9.208124
 30
0.0
 10
157.989026
 20
8.821994
 30
0.0
 10
158.205947
 20
8.298283
 30
0.0
 10
158.205942
 20
7.752209
 30
0.0
  0
SPLINE
  5
16b
100
AcDbEntity
  8
0
 62
7
100
AcDbSpline
 70
8
 71
3
 72
8
 73
4
 74
0
 40
0
 40
0
 40
0
 40
0
 40
1
 40
1
 40
1
 40
1
 10
25.029051
 20
8.804211
 30
0.0
 10
25.917635
 20
8.804211
 30
0.0
 10
26.637979
 20
8.083854
 30
0.0
 10
26.637985
 20
7.195291
 30
0.0
  0
SPLINE
  5
16c
100
AcDbEntity
  8
0
 62
7
100
AcDbSpline
 70
8
 71
3
 72
8
 73
4
 74
0
 40
0
 40
0
 40
0
 40
0
 40
1
 40
1
 40
1
 40
1
 10
157.603200
 20
475.296545
 30
0.0
 10
157.217056
 20
474.910404
 30
0.0
 10
156.693335
 20
474.693469
 30
0.0
 10
156.147248
 20
474.693469
 30
0.0
  0
SPLINE
  5
16d
100
AcDbEntity
  8
0
 62
7
100
AcDbSpline
 70
8
 71
3
 72
8
 73
4
 74
0
 40
0
 40
0
 40
0
 40
0
 40
1
 40
1
 40
1
 40
1
 10
88.107215
 20
346.162987
 30
0.0
 10
88.362054
 20
346.417823
 30
0.0
 10
88.707687
 20
346.560989
 30
0.0
 10
89.068081
 20
346.560989
 30
0.0
  0
SPLINE
  5
16e
100
AcDbEntity
  8
0
 62
7
100
AcDbSpline
 70
8
 71
3
 72
8
 73
4
 74
0
 40
0
 40
0
 40
0
 40
0
 40
1
 40
1
 40
1
 40
1
 10
188.080998
 20
351.962987
 30
0.0
 10
188.335837
 20
352.217828
 30
0.0
 10
188.681473
 20
352.360997
 30
0.0
 10
189.041867
 20
352.360997
 30
0.0
  0
SPLINE
  5
16f
100
AcDbEntity
  8
0
 62
7
100
AcDbSpline
 70
8
 71
3
 72
8
 73
4
 74
0
 40
0
 40
0
 40
0
 40
0
 40
1
 40
1
 40
1
 40
1
 10
89.041943
 20
292.260994
 30
0.0
 10
89.792433
 20
292.260994
 30
0.0
 10
90.400832
 20
291.652605
 30
0.0
 10
90.400832
 20
290.902122
 30
0.0
  0
SPLINE
  5
170
100
AcDbEntity
  8
0
 62
7
100
AcDbSpline
 70
8
 71
3
 72
8
 73
4
 74
0
 40
0
 40
0
 40
0
 40
0
 40
1
 40
1
 40
1
 40
1
 10
295.047249
 20
398.194490
 30
0.0
 10
296.184428
 20
398.194482
 30
0.0
 10
297.106262
 20
397.272626
 30
0.0
 10
297.106262
 20
396.135468
 30
0.0
  0
SPLINE
  5
171
100
AcDbEntity
  8
0
 62
7
100
AcDbSpline
 70
8
 71
3
 72
8
 73
4
 74
0
 40
0
 40
0
 40
0
 40
0
 40
1
 40
1
 40
1
 40
1
 10
128.105955
 20
7.752209
 30
0.0
 10
128.105952
 20
6.615086
 30
0.0
 10
127.184125
 20
5.693251
 30
0.0
 10
126.046994
 20
5.693251
 30
0.0
  0
SPLINE
  5
172
100
AcDbEntity
  8
0
 62
7
100
AcDbSpline
 70
8
 71
3
 72
8
 73
4
 74
0
 40
0
 40
0
 40
0
 40
0
 40
1
 40
1
 40
1
 40
1
 10
476.280376
 20
26.228982
 30
0.0
 10
476.582107
 20
26.530712
 30
0.0
 10
476.991364
 20
26.700228
 30
0.0
 10
477.418084
 20
26.700228
 30
0.0
  0
SPLINE
  5
173
100
AcDbEntity
  8
0
 62
7
100
AcDbSpline
 70
8
 71
3
 72
8
 73
4
 74
0
 40
0
 40
0
 40
0
 40
0
 40
1
 40
1
 40
1
 40
1
 10
236.887763
 20
368.969226
 30
0.0
 10
237.142601
 20
368.714387
 30
0.0
 10
237.285767
 20
368.368752
 30
0.0
 10
237.285767
 20
368.008357
 30
0.0
  0
SPLINE
  5
174
100
AcDbEntity
  8
0
 62
7
100
AcDbSpline
 70
8
 71
3
 72
8
 73
4
 74
0
 40
0
 40
0
 40
0
 40
0
 40
1
 40
1
 40
1
 40
1
 10
292.988235
 20
396.135468
 30
0.0
 10
292.988235
 20
396.681558
 30
0.0
 10
293.205166
 20
397.205279
 30
0.0
 10
293.591299
 20
397.591420
 30
0.0
  0
SPLINE
  5
175
100
AcDbEntity
  8
0
 62
7
100
AcDbSpline
 70
8
 71
3
 72
8
 73
4
 74
0
 40
0
 40
0
 40
0
 40
0
 40
1
 40
1
 40
1
 40
1
 10
89.041943
 20
289.543251
 30
0.0
 10
88.681543
 20
289.543249
 30
0.0
 10
88.335902
 20
289.686417
 30
0.0
 10
88.081061
 20
289.941254
 30
0.0
  0
SPLINE
  5
176
100
AcDbEntity
  8
0
 62
7
100
AcDbSpline
 70
8
 71
3
 72
8
 73
4
 74
0
 40
0
 40
0
 40
0
 40
0
 40
1
 40
1
 40
1
 40
1
 10
351.397784
 20
88.486340
 30
0.0
 10
351.397784
 20
88.125940
 30
0.0
 10
351.254617
 20
87.780310
 30
0.0
 10
350.999771
 20
87.525468
 30
0.0
  0
SPLINE
  5
177
100
AcDbEntity
  8
0
 62
7
100
AcDbSpline
 70
8
 71
3
 72
8
 73
4
 74
0
 40
0
 40
0
 40
0
 40
0
 40
1
 40
1
 40
1
 40
1
 10
327.206294
 20
396.135468
 30
0.0
 10
327.206294
 20
395.589376
 30
0.0
 10
326.989362
 20
395.065655
 30
0.0
 10
326.603203
 20
394.679508
 30
0.0
  0
SPLINE
  5
178
100
AcDbEntity
  8
0
 62
7
100
AcDbSpline
 70
8
 71
3
 72
8
 73
4
 74
0
 40
0
 40
0
 40
0
 40
0
 40
1
 40
1
 40
1
 40
1
 10
479.026989
 20
25.091297
 30
0.0
 10
479.026989
 20
24.664577
 30
0.0
 10
478.857497
 20
24.255346
 30
0.0
 10
478.555766
 20
23.953615
 30
0.0
  0
SPLINE
  5
179
100
AcDbEntity
  8
0
 62
7
100
AcDbSpline
 70
8
 71
3
 72
8
 73
4
 74
0
 40
0
 40
0
 40
0
 40
0
 40
1
 40
1
 40
1
 40
1
 10
458.284370
 20
5.957623
 30
0.0
 10
457.982639
 20
6.259353
 30
0.0
 10
457.813121
 20
6.668585
 30
0.0
 10
457.813121
 20
7.095305
 30
0.0
  0
SPLINE
  5
17a
100
AcDbEntity
  8
0
 62
7
100
AcDbSpline
 70
8
 71
3
 72
8
 73
4
 74
0
 40
0
 40
0
 40
0
 40
0
 40
1
 40
1
 40
1
 40
1
 10
459.422052
 20
5.486373
 30
0.0
 10
458.995332
 20
5.486373
 30
0.0
 10
458.586101
 20
5.655892
 30
0.0
 10
458.284370
 20
5.957623
 30
0.0
  0
SPLINE
  5
17b
100
AcDbEntity
  8
0
 62
7
100
AcDbSpline
 70
8
 71
3
 72
8
 73
4
 74
0
 40
0
 40
0
 40
0
 40
0
 40
1
 40
1
 40
1
 40
1
 10
459.422052
 20
8.704225
 30
0.0
 10
460.310629
 20
8.704199
 30
0.0
 10
461.030983
 20
7.983871
 30
0.0
 10
461.030983
 20
7.095305
 30
0.0
  0
SPLINE
  5
17c
100
AcDbEntity
  8
0
 62
7
100
AcDbSpline
 70
8
 71
3
 72
8
 73
4
 74
0
 40
0
 40
0
 40
0
 40
0
 40
1
 40
1
 40
1
 40
1
 10
26.637985
 20
7.195291
 30
0.0
 10
26.637990
 20
6.768571
 30
0.0
 10
26.468479
 20
6.359340
 30
0.0
 10
26.166743
 20
6.057609
 30
0.0
  0
SPLINE
  5
17d
100
AcDbEntity
  8
0
 62
7
100
AcDbSpline
 70
8
 71
3
 72
8
 73
4
 74
0
 40
0
 40
0
 40
0
 40
0
 40
1
 40
1
 40
1
 40
1
 10
249.851864
 20
407.083249
 30
0.0
 10
249.491475
 20
407.083249
 30
0.0
 10
249.145850
 20
407.226420
 30
0.0
 10
248.891004
 20
407.481257
 30
0.0
  0
SPLINE
  5
17e
100
AcDbEntity
  8
0
 62
7
100
AcDbSpline
 70
8
 71
3
 72
8
 73
4
 74
0
 40
0
 40
0
 40
0
 40
0
 40
1
 40
1
 40
1
 40
1
 10
325.147254
 20
398.194490
 30
0.0
 10
325.693327
 20
398.194495
 30
0.0
 10
326.217070
 20
397.977563
 30
0.0
 10
326.603203
 20
397.591420
 30
0.0
  0
SPLINE
  5
17f
100
AcDbEntity
  8
0
 62
7
100
AcDbSpline
 70
8
 71
3
 72
8
 73
4
 74
0
 40
0
 40
0
 40
0
 40
0
 40
1
 40
1
 40
1
 40
1
 10
350.038910
 20
87.127469
 30
0.0
 10
349.678521
 20
87.127463
 30
0.0
 10
349.332869
 20
87.270629
 30
0.0
 10
349.078049
 20
87.525468
 30
0.0
  0
SPLINE
  5
180
100
AcDbEntity
  8
0
 62
7
100
AcDbSpline
 70
8
 71
3
 72
8
 73
4
 74
0
 40
0
 40
0
 40
0
 40
0
 40
1
 40
1
 40
1
 40
1
 10
350.999771
 20
87.525468
 30
0.0
 10
350.744951
 20
87.270629
 30
0.0
 10
350.399299
 20
87.127463
 30
0.0
 10
350.038910
 20
87.127469
 30
0.0
  0
SPLINE
  5
181
100
AcDbEntity
  8
0
 62
7
100
AcDbSpline
 70
8
 71
3
 72
8
 73
4
 74
0
 40
0
 40
0
 40
0
 40
0
 40
1
 40
1
 40
1
 40
1
 10
457.813121
 20
7.095305
 30
0.0
 10
457.813121
 20
7.522011
 30
0.0
 10
457.982639
 20
7.931242
 30
0.0
 10
458.284370
 20
8.232973
 30
0.0
  0
SPLINE
  5
182
100
AcDbEntity
  8
0
 62
7
100
AcDbSpline
 70
8
 71
3
 72
8
 73
4
 74
0
 40
0
 40
0
 40
0
 40
0
 40
1
 40
1
 40
1
 40
1
 10
156.146986
 20
9.811194
 30
0.0
 10
156.693060
 20
9.811194
 30
0.0
 10
157.216765
 20
9.594262
 30
0.0
 10
157.602896
 20
9.208124
 30
0.0
  0
SPLINE
  5
183
100
AcDbEntity
  8
0
 62
7
100
AcDbSpline
 70
8
 71
3
 72
8
 73
4
 74
0
 40
0
 40
0
 40
0
 40
0
 40
1
 40
1
 40
1
 40
1
 10
478.555766
 20
23.953615
 30
0.0
 10
478.254035
 20
23.651884
 30
0.0
 10
477.844778
 20
23.482369
 30
0.0
 10
477.418084
 20
23.482369
 30
0.0
  0
SPLINE
  5
184
100
AcDbEntity
  8
0
 62
7
100
AcDbSpline
 70
8
 71
3
 72
8
 73
4
 74
0
 40
0
 40
0
 40
0
 40
0
 40
1
 40
1
 40
1
 40
1
 10
477.418084
 20
26.700228
 30
0.0
 10
478.306661
 20
26.700228
 30
0.0
 10
479.026989
 20
25.979876
 30
0.0
 10
479.026989
 20
25.091297
 30
0.0
  0
SPLINE
  5
185
100
AcDbEntity
  8
0
 62
7
100
AcDbSpline
 70
8
 71
3
 72
8
 73
4
 74
0
 40
0
 40
0
 40
0
 40
0
 40
1
 40
1
 40
1
 40
1
 10
88.081061
 20
291.862989
 30
0.0
 10
88.335902
 20
292.117828
 30
0.0
 10
88.681543
 20
292.260994
 30
0.0
 10
89.041943
 20
292.260994
 30
0.0
  0
SPLINE
  5
186
100
AcDbEntity
  8
0
 62
7
100
AcDbSpline
 70
8
 71
3
 72
8
 73
4
 74
0
 40
0
 40
0
 40
0
 40
0
 40
1
 40
1
 40
1
 40
1
 10
293.591299
 20
394.679508
 30
0.0
 10
293.205166
 20
395.065655
 30
0.0
 10
292.988235
 20
395.589376
 30
0.0
 10
292.988235
 20
396.135468
 30
0.0
  0
SPLINE
  5
187
100
AcDbEntity
  8
0
 62
7
100
AcDbSpline
 70
8
 71
3
 72
8
 73
4
 74
0
 40
0
 40
0
 40
0
 40
0
 40
1
 40
1
 40
1
 40
1
 10
250.838945
 20
403.602986
 30
0.0
 10
251.093792
 20
403.348147
 30
0.0
 10
251.236958
 20
403.002514
 30
0.0
 10
251.236958
 20
402.642123
 30
0.0
  0
SPLINE
  5
188
100
AcDbEntity
  8
0
 62
7
100
AcDbSpline
 70
8
 71
3
 72
8
 73
4
 74
0
 40
0
 40
0
 40
0
 40
0
 40
1
 40
1
 40
1
 40
1
 10
126.046994
 20
5.693251
 30
0.0
 10
124.909865
 20
5.693251
 30
0.0
 10
123.988041
 20
6.615086
 30
0.0
 10
123.988035
 20
7.752209
 30
0.0
  0
SPLINE
  5
189
100
AcDbEntity
  8
0
 62
7
100
AcDbSpline
 70
8
 71
3
 72
8
 73
4
 74
0
 40
0
 40
0
 40
0
 40
0
 40
1
 40
1
 40
1
 40
1
 10
326.603203
 20
397.591420
 30
0.0
 10
326.989362
 20
397.205279
 30
0.0
 10
327.206294
 20
396.681558
 30
0.0
 10
327.206294
 20
396.135468
 30
0.0
  0
SPLINE
  5
18a
100
AcDbEntity
  8
0
 62
7
100
AcDbSpline
 70
8
 71
3
 72
8
 73
4
 74
0
 40
0
 40
0
 40
0
 40
0
 40
1
 40
1
 40
1
 40
1
 10
7.044052
 20
26.811330
 30
0.0
 10
7.932634
 20
26.811330
 30
0.0
 10
8.652978
 20
26.091001
 30
0.0
 10
8.652983
 20
25.202422
 30
0.0
  0
SPLINE
  5
18b
100
AcDbEntity
  8
0
 62
7
100
AcDbSpline
 70
8
 71
3
 72
8
 73
4
 74
0
 40
0
 40
0
 40
0
 40
0
 40
1
 40
1
 40
1
 40
1
 10
290.029002
 20
284.141252
 30
0.0
 10
289.774156
 20
283.886414
 30
0.0
 10
289.428530
 20
283.743248
 30
0.0
 10
289.068141
 20
283.743248
 30
0.0
  0
SPLINE
  5
18c
100
AcDbEntity
  8
0
 62
7
100
AcDbSpline
 70
8
 71
3
 72
8
 73
4
 74
0
 40
0
 40
0
 40
0
 40
0
 40
1
 40
1
 40
1
 40
1
 10
287.709268
 20
285.102120
 30
0.0
 10
287.709268
 20
285.462515
 30
0.0
 10
287.852434
 20
285.808150
 30
0.0
 10
288.107254
 20
286.062987
 30
0.0
  0
SPLINE
  5
18d
100
AcDbEntity
  8
0
 62
7
100
AcDbSpline
 70
8
 71
3
 72
8
 73
4
 74
0
 40
0
 40
0
 40
0
 40
0
 40
1
 40
1
 40
1
 40
1
 10
349.078049
 20
87.525468
 30
0.0
 10
348.823202
 20
87.780310
 30
0.0
 10
348.680036
 20
88.125940
 30
0.0
 10
348.680036
 20
88.486340
 30
0.0
  0
SPLINE
  5
18e
100
AcDbEntity
  8
0
 62
7
100
AcDbSpline
 70
8
 71
3
 72
8
 73
4
 74
0
 40
0
 40
0
 40
0
 40
0
 40
1
 40
1
 40
1
 40
1
 10
89.041863
 20
349.643250
 30
0.0
 10
88.681472
 20
349.643250
 30
0.0
 10
88.335836
 20
349.786419
 30
0.0
 10
88.081000
 20
350.041252
 30
0.0
  0
SPLINE
  5
18f
100
AcDbEntity
  8
0
 62
7
100
AcDbSpline
 70
8
 71
3
 72
8
 73
4
 74
0
 40
0
 40
0
 40
0
 40
0
 40
1
 40
1
 40
1
 40
1
 10
90.400737
 20
351.002123
 30
0.0
 10
90.400737
 20
350.251638
 30
0.0
 10
89.792351
 20
349.643250
 30
0.0
 10
89.041863
 20
349.643250
 30
0.0
  0
SPLINE
  5
190
100
AcDbEntity
  8
0
 62
7
100
AcDbSpline
 70
8
 71
3
 72
8
 73
4
 74
0
 40
0
 40
0
 40
0
 40
0
 40
1
 40
1
 40
1
 40
1
 10
288.107254
 20
286.062987
 30
0.0
 10
288.362101
 20
286.317825
 30
0.0
 10
288.707726
 20
286.460991
 30
0.0
 10
289.068141
 20
286.460991
 30
0.0
  0
SPLINE
  5
191
100
AcDbEntity
  8
0
 62
7
100
AcDbSpline
 70
8
 71
3
 72
8
 73
4
 74
0
 40
0
 40
0
 40
0
 40
0
 40
1
 40
1
 40
1
 40
1
 10
154.691071
 20
9.208129
 30
0.0
 10
155.077204
 20
9.594262
 30
0.0
 10
155.600912
 20
9.811194
 30
0.0
 10
156.146986
 20
9.811194
 30
0.0
  0
SPLINE
  5
192
100
AcDbEntity
  8
0
 62
7
100
AcDbSpline
 70
8
 71
3
 72
8
 73
4
 74
0
 40
0
 40
0
 40
0
 40
0
 40
1
 40
1
 40
1
 40
1
 10
288.081007
 20
291.862993
 30
0.0
 10
288.335854
 20
292.117830
 30
0.0
 10
288.681479
 20
292.260997
 30
0.0
 10
289.041895
 20
292.260997
 30
0.0
  0
SPLINE
  5
193
100
AcDbEntity
  8
0
 62
7
100
AcDbSpline
 70
8
 71
3
 72
8
 73
4
 74
0
 40
0
 40
0
 40
0
 40
0
 40
1
 40
1
 40
1
 40
1
 10
344.238899
 20
87.101248
 30
0.0
 10
343.488435
 20
87.101248
 30
0.0
 10
342.880052
 20
87.709615
 30
0.0
 10
342.880026
 20
88.460090
 30
0.0
  0
SPLINE
  5
194
100
AcDbEntity
  8
0
 62
7
100
AcDbSpline
 70
8
 71
3
 72
8
 73
4
 74
0
 40
0
 40
0
 40
0
 40
0
 40
1
 40
1
 40
1
 40
1
 10
340.215804
 20
93.486300
 30
0.0
 10
340.215804
 20
93.125906
 30
0.0
 10
340.072638
 20
92.780265
 30
0.0
 10
339.817791
 20
92.525432
 30
0.0
  0
SPLINE
  5
195
100
AcDbEntity
  8
0
 62
7
100
AcDbSpline
 70
8
 71
3
 72
8
 73
4
 74
0
 40
0
 40
0
 40
0
 40
0
 40
1
 40
1
 40
1
 40
1
 10
212.586985
 20
9.761156
 30
0.0
 10
213.724113
 20
9.761156
 30
0.0
 10
214.645940
 20
8.839329
 30
0.0
 10
214.645946
 20
7.702200
 30
0.0
  0
SPLINE
  5
196
100
AcDbEntity
  8
0
 62
7
100
AcDbSpline
 70
8
 71
3
 72
8
 73
4
 74
0
 40
0
 40
0
 40
0
 40
0
 40
1
 40
1
 40
1
 40
1
 10
289.068141
 20
283.743248
 30
0.0
 10
288.707726
 20
283.743248
 30
0.0
 10
288.362101
 20
283.886414
 30
0.0
 10
288.107254
 20
284.141252
 30
0.0
  0
SPLINE
  5
197
100
AcDbEntity
  8
0
 62
7
100
AcDbSpline
 70
8
 71
3
 72
8
 73
4
 74
0
 40
0
 40
0
 40
0
 40
0
 40
1
 40
1
 40
1
 40
1
 10
323.088240
 20
396.135468
 30
0.0
 10
323.088240
 20
397.272626
 30
0.0
 10
324.010075
 20
398.194482
 30
0.0
 10
325.147254
 20
398.194490
 30
0.0
  0
SPLINE
  5
198
100
AcDbEntity
  8
0
 62
7
100
AcDbSpline
 70
8
 71
3
 72
8
 73
4
 74
0
 40
0
 40
0
 40
0
 40
0
 40
1
 40
1
 40
1
 40
1
 10
87.682995
 20
351.002123
 30
0.0
 10
87.682995
 20
351.362518
 30
0.0
 10
87.826161
 20
351.708151
 30
0.0
 10
88.081000
 20
351.962987
 30
0.0
  0
SPLINE
  5
199
100
AcDbEntity
  8
0
 62
7
100
AcDbSpline
 70
8
 71
3
 72
8
 73
4
 74
0
 40
0
 40
0
 40
0
 40
0
 40
1
 40
1
 40
1
 40
1
 10
249.851864
 20
409.800996
 30
0.0
 10
250.602355
 20
409.800996
 30
0.0
 10
251.210738
 20
409.192605
 30
0.0
 10
251.210738
 20
408.442123
 30
0.0
  0
SPLINE
  5
19a
100
AcDbEntity
  8
0
 62
7
100
AcDbSpline
 70
8
 71
3
 72
8
 73
4
 74
0
 40
0
 40
0
 40
0
 40
0
 40
1
 40
1
 40
1
 40
1
 10
156.146986
 20
5.693251
 30
0.0
 10
155.009854
 20
5.693251
 30
0.0
 10
154.088028
 20
6.615086
 30
0.0
 10
154.088025
 20
7.752209
 30
0.0
  0
SPLINE
  5
19b
100
AcDbEntity
  8
0
 62
7
100
AcDbSpline
 70
8
 71
3
 72
8
 73
4
 74
0
 40
0
 40
0
 40
0
 40
0
 40
1
 40
1
 40
1
 40
1
 10
325.147254
 20
394.076433
 30
0.0
 10
324.010075
 20
394.076452
 30
0.0
 10
323.088240
 20
394.998302
 30
0.0
 10
323.088240
 20
396.135468
 30
0.0
  0
SPLINE
  5
19c
100
AcDbEntity
  8
0
 62
7
100
AcDbSpline
 70
8
 71
3
 72
8
 73
4
 74
0
 40
0
 40
0
 40
0
 40
0
 40
1
 40
1
 40
1
 40
1
 10
297.106262
 20
396.135468
 30
0.0
 10
297.106262
 20
394.998302
 30
0.0
 10
296.184428
 20
394.076452
 30
0.0
 10
295.047249
 20
394.076433
 30
0.0
  0
SPLINE
  5
19d
100
AcDbEntity
  8
0
 62
7
100
AcDbSpline
 70
8
 71
3
 72
8
 73
4
 74
0
 40
0
 40
0
 40
0
 40
0
 40
1
 40
1
 40
1
 40
1
 10
350.999771
 20
89.447206
 30
0.0
 10
351.254617
 20
89.192370
 30
0.0
 10
351.397784
 20
88.846731
 30
0.0
 10
351.397784
 20
88.486340
 30
0.0
  0
SPLINE
  5
19e
100
AcDbEntity
  8
0
 62
7
100
AcDbSpline
 70
8
 71
3
 72
8
 73
4
 74
0
 40
0
 40
0
 40
0
 40
0
 40
1
 40
1
 40
1
 40
1
 10
23.891358
 20
6.057609
 30
0.0
 10
23.589625
 20
6.359340
 30
0.0
 10
23.420114
 20
6.768571
 30
0.0
 10
23.420119
 20
7.195291
 30
0.0
  0
SPLINE
  5
19f
100
AcDbEntity
  8
0
 62
7
100
AcDbSpline
 70
8
 71
3
 72
8
 73
4
 74
0
 40
0
 40
0
 40
0
 40
0
 40
1
 40
1
 40
1
 40
1
 10
475.809127
 20
25.091297
 30
0.0
 10
475.809127
 20
25.518017
 30
0.0
 10
475.978645
 20
25.927248
 30
0.0
 10
476.280376
 20
26.228982
 30
0.0
  0
SPLINE
  5
1a0
100
AcDbEntity
  8
0
 62
7
100
AcDbSpline
 70
8
 71
3
 72
8
 73
4
 74
0
 40
0
 40
0
 40
0
 40
0
 40
1
 40
1
 40
1
 40
1
 10
293.591299
 20
397.591420
 30
0.0
 10
293.977459
 20
397.977563
 30
0.0
 10
294.501175
 20
398.194495
 30
0.0
 10
295.047249
 20
398.194490
 30
0.0
  0
SPLINE
  5
1a1
100
AcDbEntity
  8
0
 62
7
100
AcDbSpline
 70
8
 71
3
 72
8
 73
4
 74
0
 40
0
 40
0
 40
0
 40
0
 40
1
 40
1
 40
1
 40
1
 10
329.791882
 20
409.800996
 30
0.0
 10
330.152297
 20
409.800996
 30
0.0
 10
330.497923
 20
409.657830
 30
0.0
 10
330.752769
 20
409.402991
 30
0.0
  0
SPLINE
  5
1a2
100
AcDbEntity
  8
0
 62
7
100
AcDbSpline
 70
8
 71
3
 72
8
 73
4
 74
0
 40
0
 40
0
 40
0
 40
0
 40
1
 40
1
 40
1
 40
1
 10
236.887763
 20
367.047486
 30
0.0
 10
236.632924
 20
366.792650
 30
0.0
 10
236.287291
 20
366.649484
 30
0.0
 10
235.926894
 20
366.649484
 30
0.0
  0
SPLINE
  5
1a3
100
AcDbEntity
  8
0
 62
7
100
AcDbSpline
 70
8
 71
3
 72
8
 73
4
 74
0
 40
0
 40
0
 40
0
 40
0
 40
1
 40
1
 40
1
 40
1
 10
126.047258
 20
474.693469
 30
0.0
 10
125.501172
 20
474.693469
 30
0.0
 10
124.977447
 20
474.910404
 30
0.0
 10
124.591307
 20
475.296545
 30
0.0
  0
SPLINE
  5
1a4
100
AcDbEntity
  8
0
 62
7
100
AcDbSpline
 70
8
 71
3
 72
8
 73
4
 74
0
 40
0
 40
0
 40
0
 40
0
 40
1
 40
1
 40
1
 40
1
 10
328.459255
 20
402.642123
 30
0.0
 10
328.459255
 20
403.002514
 30
0.0
 10
328.602421
 20
403.348147
 30
0.0
 10
328.857268
 20
403.602986
 30
0.0
  0
SPLINE
  5
1a5
100
AcDbEntity
  8
0
 62
7
100
AcDbSpline
 70
8
 71
3
 72
8
 73
4
 74
0
 40
0
 40
0
 40
0
 40
0
 40
1
 40
1
 40
1
 40
1
 10
329.818129
 20
404.000991
 30
0.0
 10
330.178544
 20
404.000991
 30
0.0
 10
330.524169
 20
403.857827
 30
0.0
 10
330.779016
 20
403.602986
 30
0.0
  0
SPLINE
  5
1a6
100
AcDbEntity
  8
0
 62
7
100
AcDbSpline
 70
8
 71
3
 72
8
 73
4
 74
0
 40
0
 40
0
 40
0
 40
0
 40
1
 40
1
 40
1
 40
1
 10
328.857268
 20
403.602986
 30
0.0
 10
329.112115
 20
403.857827
 30
0.0
 10
329.457740
 20
404.000991
 30
0.0
 10
329.818129
 20
404.000991
 30
0.0
  0
SPLINE
  5
1a7
100
AcDbEntity
  8
0
 62
7
100
AcDbSpline
 70
8
 71
3
 72
8
 73
4
 74
0
 40
0
 40
0
 40
0
 40
0
 40
1
 40
1
 40
1
 40
1
 10
290.002756
 20
289.941257
 30
0.0
 10
289.747909
 20
289.686419
 30
0.0
 10
289.402284
 20
289.543253
 30
0.0
 10
289.041895
 20
289.543253
 30
0.0
  0
SPLINE
  5
1a8
100
AcDbEntity
  8
0
 62
7
100
AcDbSpline
 70
8
 71
3
 72
8
 73
4
 74
0
 40
0
 40
0
 40
0
 40
0
 40
1
 40
1
 40
1
 40
1
 10
336.150746
 20
422.420113
 30
0.0
 10
336.150746
 20
422.059724
 30
0.0
 10
336.007580
 20
421.714086
 30
0.0
 10
335.752759
 20
421.459252
 30
0.0
  0
SPLINE
  5
1a9
100
AcDbEntity
  8
0
 62
7
100
AcDbSpline
 70
8
 71
3
 72
8
 73
4
 74
0
 40
0
 40
0
 40
0
 40
0
 40
1
 40
1
 40
1
 40
1
 10
333.831011
 20
421.459252
 30
0.0
 10
333.576165
 20
421.714086
 30
0.0
 10
333.432999
 20
422.059724
 30
0.0
 10
333.432999
 20
422.420113
 30
0.0
  0
SPLINE
  5
1aa
100
AcDbEntity
  8
0
 62
7
100
AcDbSpline
 70
8
 71
3
 72
8
 73
4
 74
0
 40
0
 40
0
 40
0
 40
0
 40
1
 40
1
 40
1
 40
1
 10
334.791872
 20
423.778987
 30
0.0
 10
335.152287
 20
423.778989
 30
0.0
 10
335.497913
 20
423.635823
 30
0.0
 10
335.752759
 20
423.380987
 30
0.0
  0
SPLINE
  5
1ab
100
AcDbEntity
  8
0
 62
7
100
AcDbSpline
 70
8
 71
3
 72
8
 73
4
 74
0
 40
0
 40
0
 40
0
 40
0
 40
1
 40
1
 40
1
 40
1
 10
250.838945
 20
401.681251
 30
0.0
 10
250.584125
 20
401.426412
 30
0.0
 10
250.238474
 20
401.283246
 30
0.0
 10
249.878085
 20
401.283246
 30
0.0
  0
SPLINE
  5
1ac
100
AcDbEntity
  8
0
 62
7
100
AcDbSpline
 70
8
 71
3
 72
8
 73
4
 74
0
 40
0
 40
0
 40
0
 40
0
 40
1
 40
1
 40
1
 40
1
 10
335.752759
 20
421.459252
 30
0.0
 10
335.497913
 20
421.204411
 30
0.0
 10
335.152287
 20
421.061247
 30
0.0
 10
334.791872
 20
421.061247
 30
0.0
  0
SPLINE
  5
1ad
100
AcDbEntity
  8
0
 62
7
100
AcDbSpline
 70
8
 71
3
 72
8
 73
4
 74
0
 40
0
 40
0
 40
0
 40
0
 40
1
 40
1
 40
1
 40
1
 10
249.878085
 20
401.283246
 30
0.0
 10
249.517696
 20
401.283246
 30
0.0
 10
249.172070
 20
401.426412
 30
0.0
 10
248.917224
 20
401.681251
 30
0.0
  0
SPLINE
  5
1ae
100
AcDbEntity
  8
0
 62
7
100
AcDbSpline
 70
8
 71
3
 72
8
 73
4
 74
0
 40
0
 40
0
 40
0
 40
0
 40
1
 40
1
 40
1
 40
1
 10
333.831011
 20
423.380987
 30
0.0
 10
334.085858
 20
423.635823
 30
0.0
 10
334.431483
 20
423.778989
 30
0.0
 10
334.791872
 20
423.778987
 30
0.0
  0
SPLINE
  5
1af
100
AcDbEntity
  8
0
 62
7
100
AcDbSpline
 70
8
 71
3
 72
8
 73
4
 74
0
 40
0
 40
0
 40
0
 40
0
 40
1
 40
1
 40
1
 40
1
 10
248.917224
 20
401.681251
 30
0.0
 10
248.662377
 20
401.936090
 30
0.0
 10
248.519211
 20
402.281723
 30
0.0
 10
248.519211
 20
402.642123
 30
0.0
  0
SPLINE
  5
1b0
100
AcDbEntity
  8
0
 62
7
100
AcDbSpline
 70
8
 71
3
 72
8
 73
4
 74
0
 40
0
 40
0
 40
0
 40
0
 40
1
 40
1
 40
1
 40
1
 10
333.831011
 20
412.859254
 30
0.0
 10
333.576165
 20
413.114098
 30
0.0
 10
333.432999
 20
413.459726
 30
0.0
 10
333.432999
 20
413.820123
 30
0.0
  0
SPLINE
  5
1b1
100
AcDbEntity
  8
0
 62
7
100
AcDbSpline
 70
8
 71
3
 72
8
 73
4
 74
0
 40
0
 40
0
 40
0
 40
0
 40
1
 40
1
 40
1
 40
1
 10
339.817791
 20
92.525432
 30
0.0
 10
339.562945
 20
92.270596
 30
0.0
 10
339.217319
 20
92.127427
 30
0.0
 10
338.856930
 20
92.127427
 30
0.0
  0
SPLINE
  5
1b2
100
AcDbEntity
  8
0
 62
7
100
AcDbSpline
 70
8
 71
3
 72
8
 73
4
 74
0
 40
0
 40
0
 40
0
 40
0
 40
1
 40
1
 40
1
 40
1
 10
156.147248
 20
474.693469
 30
0.0
 10
155.601159
 20
474.693469
 30
0.0
 10
155.077437
 20
474.910404
 30
0.0
 10
154.691294
 20
475.296545
 30
0.0
  0
SPLINE
  5
1b3
100
AcDbEntity
  8
0
 62
7
100
AcDbSpline
 70
8
 71
3
 72
8
 73
4
 74
0
 40
0
 40
0
 40
0
 40
0
 40
1
 40
1
 40
1
 40
1
 10
289.041895
 20
292.260997
 30
0.0
 10
289.402284
 20
292.260997
 30
0.0
 10
289.747909
 20
292.117830
 30
0.0
 10
290.002756
 20
291.862993
 30
0.0
  0
SPLINE
  5
1b4
100
AcDbEntity
  8
0
 62
7
100
AcDbSpline
 70
8
 71
3
 72
8
 73
4
 74
0
 40
0
 40
0
 40
0
 40
0
 40
1
 40
1
 40
1
 40
1
 10
290.029002
 20
286.062987
 30
0.0
 10
290.283822
 20
285.808150
 30
0.0
 10
290.426989
 20
285.462515
 30
0.0
 10
290.426989
 20
285.102120
 30
0.0
  0
SPLINE
  5
1b5
100
AcDbEntity
  8
0
 62
7
100
AcDbSpline
 70
8
 71
3
 72
8
 73
4
 74
0
 40
0
 40
0
 40
0
 40
0
 40
1
 40
1
 40
1
 40
1
 10
328.831021
 20
407.481257
 30
0.0
 10
328.576175
 20
407.736093
 30
0.0
 10
328.433009
 20
408.081728
 30
0.0
 10
328.433009
 20
408.442123
 30
0.0
  0
SPLINE
  5
1b6
100
AcDbEntity
  8
0
 62
7
100
AcDbSpline
 70
8
 71
3
 72
8
 73
4
 74
0
 40
0
 40
0
 40
0
 40
0
 40
1
 40
1
 40
1
 40
1
 10
328.857268
 20
401.681251
 30
0.0
 10
328.602421
 20
401.936090
 30
0.0
 10
328.459255
 20
402.281723
 30
0.0
 10
328.459255
 20
402.642123
 30
0.0
  0
SPLINE
  5
1b7
100
AcDbEntity
  8
0
 62
7
100
AcDbSpline
 70
8
 71
3
 72
8
 73
4
 74
0
 40
0
 40
0
 40
0
 40
0
 40
1
 40
1
 40
1
 40
1
 10
127.503213
 20
478.208453
 30
0.0
 10
127.889356
 20
477.822307
 30
0.0
 10
128.106288
 20
477.298588
 30
0.0
 10
128.106288
 20
476.752496
 30
0.0
  0
SPLINE
  5
1b8
100
AcDbEntity
  8
0
 62
7
100
AcDbSpline
 70
8
 71
3
 72
8
 73
4
 74
0
 40
0
 40
0
 40
0
 40
0
 40
1
 40
1
 40
1
 40
1
 10
123.988231
 20
476.752496
 30
0.0
 10
123.988231
 20
477.298588
 30
0.0
 10
124.205163
 20
477.822307
 30
0.0
 10
124.591307
 20
478.208453
 30
0.0
  0
SPLINE
  5
1b9
100
AcDbEntity
  8
0
 62
7
100
AcDbSpline
 70
8
 71
3
 72
8
 73
4
 74
0
 40
0
 40
0
 40
0
 40
0
 40
1
 40
1
 40
1
 40
1
 10
154.691294
 20
475.296545
 30
0.0
 10
154.305150
 20
475.682688
 30
0.0
 10
154.088215
 20
476.206410
 30
0.0
 10
154.088215
 20
476.752496
 30
0.0
  0
SPLINE
  5
1ba
100
AcDbEntity
  8
0
 62
7
100
AcDbSpline
 70
8
 71
3
 72
8
 73
4
 74
0
 40
0
 40
0
 40
0
 40
0
 40
1
 40
1
 40
1
 40
1
 10
331.177002
 20
402.642123
 30
0.0
 10
331.177002
 20
402.281723
 30
0.0
 10
331.033836
 20
401.936090
 30
0.0
 10
330.779016
 20
401.681251
 30
0.0
  0
SPLINE
  5
1bb
100
AcDbEntity
  8
0
 62
7
100
AcDbSpline
 70
8
 71
3
 72
8
 73
4
 74
0
 40
0
 40
0
 40
0
 40
0
 40
1
 40
1
 40
1
 40
1
 10
331.150756
 20
408.442123
 30
0.0
 10
331.150756
 20
408.081728
 30
0.0
 10
331.007590
 20
407.736093
 30
0.0
 10
330.752769
 20
407.481257
 30
0.0
  0
SPLINE
  5
1bc
100
AcDbEntity
  8
0
 62
7
100
AcDbSpline
 70
8
 71
3
 72
8
 73
4
 74
0
 40
0
 40
0
 40
0
 40
0
 40
1
 40
1
 40
1
 40
1
 10
157.603200
 20
478.208453
 30
0.0
 10
157.989343
 20
477.822307
 30
0.0
 10
158.206275
 20
477.298588
 30
0.0
 10
158.206275
 20
476.752496
 30
0.0
  0
SPLINE
  5
1bd
100
AcDbEntity
  8
0
 62
7
100
AcDbSpline
 70
8
 71
3
 72
8
 73
4
 74
0
 40
0
 40
0
 40
0
 40
0
 40
1
 40
1
 40
1
 40
1
 10
329.791882
 20
407.083249
 30
0.0
 10
329.431493
 20
407.083249
 30
0.0
 10
329.085868
 20
407.226420
 30
0.0
 10
328.831021
 20
407.481257
 30
0.0
  0
SPLINE
  5
1be
100
AcDbEntity
  8
0
 62
7
100
AcDbSpline
 70
8
 71
3
 72
8
 73
4
 74
0
 40
0
 40
0
 40
0
 40
0
 40
1
 40
1
 40
1
 40
1
 10
126.047258
 20
478.811526
 30
0.0
 10
126.593348
 20
478.811526
 30
0.0
 10
127.117069
 20
478.594592
 30
0.0
 10
127.503213
 20
478.208453
 30
0.0
  0
SPLINE
  5
1bf
100
AcDbEntity
  8
0
 62
7
100
AcDbSpline
 70
8
 71
3
 72
8
 73
4
 74
0
 40
0
 40
0
 40
0
 40
0
 40
1
 40
1
 40
1
 40
1
 10
154.088215
 20
476.752496
 30
0.0
 10
154.088215
 20
477.298588
 30
0.0
 10
154.305150
 20
477.822307
 30
0.0
 10
154.691294
 20
478.208453
 30
0.0
  0
SPLINE
  5
1c0
100
AcDbEntity
  8
0
 62
7
100
AcDbSpline
 70
8
 71
3
 72
8
 73
4
 74
0
 40
0
 40
0
 40
0
 40
0
 40
1
 40
1
 40
1
 40
1
 10
88.081000
 20
351.962987
 30
0.0
 10
88.335836
 20
352.217828
 30
0.0
 10
88.681472
 20
352.360997
 30
0.0
 10
89.041863
 20
352.360997
 30
0.0
  0
SPLINE
  5
1c1
100
AcDbEntity
  8
0
 62
7
100
AcDbSpline
 70
8
 71
3
 72
8
 73
4
 74
0
 40
0
 40
0
 40
0
 40
0
 40
1
 40
1
 40
1
 40
1
 10
156.147248
 20
478.811526
 30
0.0
 10
156.693335
 20
478.811526
 30
0.0
 10
157.217056
 20
478.594592
 30
0.0
 10
157.603200
 20
478.208453
 30
0.0
  0
SPLINE
  5
1c2
100
AcDbEntity
  8
0
 62
7
100
AcDbSpline
 70
8
 71
3
 72
8
 73
4
 74
0
 40
0
 40
0
 40
0
 40
0
 40
1
 40
1
 40
1
 40
1
 10
333.432999
 20
422.420113
 30
0.0
 10
333.432999
 20
422.780510
 30
0.0
 10
333.576165
 20
423.126143
 30
0.0
 10
333.831011
 20
423.380987
 30
0.0
  0
SPLINE
  5
1c3
100
AcDbEntity
  8
0
 62
7
100
AcDbSpline
 70
8
 71
3
 72
8
 73
4
 74
0
 40
0
 40
0
 40
0
 40
0
 40
1
 40
1
 40
1
 40
1
 10
335.752759
 20
423.380987
 30
0.0
 10
336.007580
 20
423.126143
 30
0.0
 10
336.150746
 20
422.780510
 30
0.0
 10
336.150746
 20
422.420113
 30
0.0
  0
SPLINE
  5
1c4
100
AcDbEntity
  8
0
 62
7
100
AcDbSpline
 70
8
 71
3
 72
8
 73
4
 74
0
 40
0
 40
0
 40
0
 40
0
 40
1
 40
1
 40
1
 40
1
 10
251.236958
 20
402.642123
 30
0.0
 10
251.236958
 20
402.281723
 30
0.0
 10
251.093792
 20
401.936090
 30
0.0
 10
250.838945
 20
401.681251
 30
0.0
  0
SPLINE
  5
1c5
100
AcDbEntity
  8
0
 62
7
100
AcDbSpline
 70
8
 71
3
 72
8
 73
4
 74
0
 40
0
 40
0
 40
0
 40
0
 40
1
 40
1
 40
1
 40
1
 10
124.591307
 20
478.208453
 30
0.0
 10
124.977447
 20
478.594592
 30
0.0
 10
125.501172
 20
478.811526
 30
0.0
 10
126.047258
 20
478.811526
 30
0.0
  0
SPLINE
  5
1c6
100
AcDbEntity
  8
0
 62
7
100
AcDbSpline
 70
8
 71
3
 72
8
 73
4
 74
0
 40
0
 40
0
 40
0
 40
0
 40
1
 40
1
 40
1
 40
1
 10
333.432999
 20
413.820123
 30
0.0
 10
333.433025
 20
414.570608
 30
0.0
 10
334.041408
 20
415.178991
 30
0.0
 10
334.791872
 20
415.178991
 30
0.0
  0
SPLINE
  5
1c7
100
AcDbEntity
  8
0
 62
7
100
AcDbSpline
 70
8
 71
3
 72
8
 73
4
 74
0
 40
0
 40
0
 40
0
 40
0
 40
1
 40
1
 40
1
 40
1
 10
335.752759
 20
412.859254
 30
0.0
 10
335.497913
 20
412.604418
 30
0.0
 10
335.152287
 20
412.461255
 30
0.0
 10
334.791872
 20
412.461255
 30
0.0
  0
SPLINE
  5
1c8
100
AcDbEntity
  8
0
 62
7
100
AcDbSpline
 70
8
 71
3
 72
8
 73
4
 74
0
 40
0
 40
0
 40
0
 40
0
 40
1
 40
1
 40
1
 40
1
 10
88.107215
 20
344.241249
 30
0.0
 10
87.852376
 20
344.496088
 30
0.0
 10
87.709210
 20
344.841727
 30
0.0
 10
87.709210
 20
345.202118
 30
0.0
  0
SPLINE
  5
1c9
100
AcDbEntity
  8
0
 62
7
100
AcDbSpline
 70
8
 71
3
 72
8
 73
4
 74
0
 40
0
 40
0
 40
0
 40
0
 40
1
 40
1
 40
1
 40
1
 10
124.591307
 20
475.296545
 30
0.0
 10
124.205163
 20
475.682688
 30
0.0
 10
123.988231
 20
476.206410
 30
0.0
 10
123.988231
 20
476.752496
 30
0.0
  0
SPLINE
  5
1ca
100
AcDbEntity
  8
0
 62
7
100
AcDbSpline
 70
8
 71
3
 72
8
 73
4
 74
0
 40
0
 40
0
 40
0
 40
0
 40
1
 40
1
 40
1
 40
1
 10
336.150746
 20
413.820123
 30
0.0
 10
336.150746
 20
413.459726
 30
0.0
 10
336.007580
 20
413.114098
 30
0.0
 10
335.752759
 20
412.859254
 30
0.0
  0
SPLINE
  5
1cb
100
AcDbEntity
  8
0
 62
7
100
AcDbSpline
 70
8
 71
3
 72
8
 73
4
 74
0
 40
0
 40
0
 40
0
 40
0
 40
1
 40
1
 40
1
 40
1
 10
330.752769
 20
407.481257
 30
0.0
 10
330.497923
 20
407.226420
 30
0.0
 10
330.152297
 20
407.083249
 30
0.0
 10
329.791882
 20
407.083249
 30
0.0
  0
SPLINE
  5
1cc
100
AcDbEntity
  8
0
 62
7
100
AcDbSpline
 70
8
 71
3
 72
8
 73
4
 74
0
 40
0
 40
0
 40
0
 40
0
 40
1
 40
1
 40
1
 40
1
 10
89.041863
 20
352.360997
 30
0.0
 10
89.792351
 20
352.360994
 30
0.0
 10
90.400737
 20
351.752606
 30
0.0
 10
90.400737
 20
351.002123
 30
0.0
  0
SPLINE
  5
1cd
100
AcDbEntity
  8
0
 62
7
100
AcDbSpline
 70
8
 71
3
 72
8
 73
4
 74
0
 40
0
 40
0
 40
0
 40
0
 40
1
 40
1
 40
1
 40
1
 10
328.433009
 20
408.442123
 30
0.0
 10
328.433009
 20
408.802522
 30
0.0
 10
328.576175
 20
409.148153
 30
0.0
 10
328.831021
 20
409.402991
 30
0.0
  0
SPLINE
  5
1ce
100
AcDbEntity
  8
0
 62
7
100
AcDbSpline
 70
8
 71
3
 72
8
 73
4
 74
0
 40
0
 40
0
 40
0
 40
0
 40
1
 40
1
 40
1
 40
1
 10
128.106288
 20
476.752496
 30
0.0
 10
128.106288
 20
476.206410
 30
0.0
 10
127.889356
 20
475.682688
 30
0.0
 10
127.503213
 20
475.296545
 30
0.0
  0
SPLINE
  5
1cf
100
AcDbEntity
  8
0
 62
7
100
AcDbSpline
 70
8
 71
3
 72
8
 73
4
 74
0
 40
0
 40
0
 40
0
 40
0
 40
1
 40
1
 40
1
 40
1
 10
334.791872
 20
415.178991
 30
0.0
 10
335.542363
 20
415.178991
 30
0.0
 10
336.150746
 20
414.570608
 30
0.0
 10
336.150746
 20
413.820123
 30
0.0
  0
SPLINE
  5
1d0
100
AcDbEntity
  8
0
 62
7
100
AcDbSpline
 70
8
 71
3
 72
8
 73
4
 74
0
 40
0
 40
0
 40
0
 40
0
 40
1
 40
1
 40
1
 40
1
 10
334.791872
 20
421.061247
 30
0.0
 10
334.431483
 20
421.061247
 30
0.0
 10
334.085858
 20
421.204411
 30
0.0
 10
333.831011
 20
421.459252
 30
0.0
  0
SPLINE
  5
1d1
100
AcDbEntity
  8
0
 62
7
100
AcDbSpline
 70
8
 71
3
 72
8
 73
4
 74
0
 40
0
 40
0
 40
0
 40
0
 40
1
 40
1
 40
1
 40
1
 10
90.028950
 20
346.162987
 30
0.0
 10
90.283789
 20
345.908148
 30
0.0
 10
90.426955
 20
345.562512
 30
0.0
 10
90.426955
 20
345.202118
 30
0.0
  0
SPLINE
  5
1d2
100
AcDbEntity
  8
0
 62
7
100
AcDbSpline
 70
8
 71
3
 72
8
 73
4
 74
0
 40
0
 40
0
 40
0
 40
0
 40
1
 40
1
 40
1
 40
1
 10
88.081000
 20
350.041252
 30
0.0
 10
87.826161
 20
350.296093
 30
0.0
 10
87.682995
 20
350.641729
 30
0.0
 10
87.682995
 20
351.002123
 30
0.0
  0
SPLINE
  5
1d3
100
AcDbEntity
  8
0
 62
7
100
AcDbSpline
 70
8
 71
3
 72
8
 73
4
 74
0
 40
0
 40
0
 40
0
 40
0
 40
1
 40
1
 40
1
 40
1
 10
330.779016
 20
403.602986
 30
0.0
 10
331.033836
 20
403.348147
 30
0.0
 10
331.177002
 20
403.002514
 30
0.0
 10
331.177002
 20
402.642123
 30
0.0
  0
SPLINE
  5
1d4
100
AcDbEntity
  8
0
 62
7
100
AcDbSpline
 70
8
 71
3
 72
8
 73
4
 74
0
 40
0
 40
0
 40
0
 40
0
 40
1
 40
1
 40
1
 40
1
 10
330.752769
 20
409.402991
 30
0.0
 10
331.007590
 20
409.148153
 30
0.0
 10
331.150756
 20
408.802522
 30
0.0
 10
331.150756
 20
408.442123
 30
0.0
  0
SPLINE
  5
1d5
100
AcDbEntity
  8
0
 62
7
100
AcDbSpline
 70
8
 71
3
 72
8
 73
4
 74
0
 40
0
 40
0
 40
0
 40
0
 40
1
 40
1
 40
1
 40
1
 10
189.041867
 20
352.360997
 30
0.0
 10
189.792350
 20
352.360994
 30
0.0
 10
190.400735
 20
351.752606
 30
0.0
 10
190.400735
 20
351.002123
 30
0.0
  0
SPLINE
  5
1d6
100
AcDbEntity
  8
0
 62
7
100
AcDbSpline
 70
8
 71
3
 72
8
 73
4
 74
0
 40
0
 40
0
 40
0
 40
0
 40
1
 40
1
 40
1
 40
1
 10
328.831021
 20
409.402991
 30
0.0
 10
329.085868
 20
409.657830
 30
0.0
 10
329.431493
 20
409.800996
 30
0.0
 10
329.791882
 20
409.800996
 30
0.0
  0
SPLINE
  5
1d7
100
AcDbEntity
  8
0
 62
7
100
AcDbSpline
 70
8
 71
3
 72
8
 73
4
 74
0
 40
0
 40
0
 40
0
 40
0
 40
1
 40
1
 40
1
 40
1
 10
90.426955
 20
345.202118
 30
0.0
 10
90.426955
 20
344.841727
 30
0.0
 10
90.283789
 20
344.496088
 30
0.0
 10
90.028950
 20
344.241249
 30
0.0
  0
SPLINE
  5
1d8
100
AcDbEntity
  8
0
 62
7
100
AcDbSpline
 70
8
 71
3
 72
8
 73
4
 74
0
 40
0
 40
0
 40
0
 40
0
 40
1
 40
1
 40
1
 40
1
 10
154.691294
 20
478.208453
 30
0.0
 10
155.077437
 20
478.594592
 30
0.0
 10
155.601159
 20
478.811526
 30
0.0
 10
156.147248
 20
478.811526
 30
0.0
  0
SPLINE
  5
1d9
100
AcDbEntity
  8
0
 62
7
100
AcDbSpline
 70
8
 71
3
 72
8
 73
4
 74
0
 40
0
 40
0
 40
0
 40
0
 40
1
 40
1
 40
1
 40
1
 10
334.791872
 20
412.461255
 30
0.0
 10
334.431483
 20
412.461255
 30
0.0
 10
334.085858
 20
412.604418
 30
0.0
 10
333.831011
 20
412.859254
 30
0.0
  0
SPLINE
  5
1da
100
AcDbEntity
  8
0
 62
7
100
AcDbSpline
 70
8
 71
3
 72
8
 73
4
 74
0
 40
0
 40
0
 40
0
 40
0
 40
1
 40
1
 40
1
 40
1
 10
330.779016
 20
401.681251
 30
0.0
 10
330.524169
 20
401.426412
 30
0.0
 10
330.178544
 20
401.283246
 30
0.0
 10
329.818129
 20
401.283246
 30
0.0
  0
SPLINE
  5
1db
100
AcDbEntity
  8
0
 62
7
100
AcDbSpline
 70
8
 71
3
 72
8
 73
4
 74
0
 40
0
 40
0
 40
0
 40
0
 40
1
 40
1
 40
1
 40
1
 10
466.824221
 20
325.767417
 30
0.0
 10
467.210354
 20
325.381273
 30
0.0
 10
467.427285
 20
324.857549
 30
0.0
 10
467.427285
 20
324.311457
 30
0.0
  0
SPLINE
  5
1dc
100
AcDbEntity
  8
0
 62
7
100
AcDbSpline
 70
8
 71
3
 72
8
 73
4
 74
0
 40
0
 40
0
 40
0
 40
0
 40
1
 40
1
 40
1
 40
1
 10
59.218295
 20
379.985510
 30
0.0
 10
58.832157
 20
380.371651
 30
0.0
 10
58.615225
 20
380.895376
 30
0.0
 10
58.615225
 20
381.441460
 30
0.0
  0
SPLINE
  5
1dd
100
AcDbEntity
  8
0
 62
7
100
AcDbSpline
 70
8
 71
3
 72
8
 73
4
 74
0
 40
0
 40
0
 40
0
 40
0
 40
1
 40
1
 40
1
 40
1
 10
465.368245
 20
326.370484
 30
0.0
 10
465.914345
 20
326.370489
 30
0.0
 10
466.438061
 20
326.153557
 30
0.0
 10
466.824221
 20
325.767417
 30
0.0
  0
SPLINE
  5
1de
100
AcDbEntity
  8
0
 62
7
100
AcDbSpline
 70
8
 71
3
 72
8
 73
4
 74
0
 40
0
 40
0
 40
0
 40
0
 40
1
 40
1
 40
1
 40
1
 10
381.787296
 20
381.441460
 30
0.0
 10
381.787296
 20
380.895370
 30
0.0
 10
381.570364
 20
380.371646
 30
0.0
 10
381.184231
 20
379.985505
 30
0.0
  0
SPLINE
  5
1df
100
AcDbEntity
  8
0
 62
7
100
AcDbSpline
 70
8
 71
3
 72
8
 73
4
 74
0
 40
0
 40
0
 40
0
 40
0
 40
1
 40
1
 40
1
 40
1
 10
248.917224
 20
403.602986
 30
0.0
 10
249.172070
 20
403.857827
 30
0.0
 10
249.517696
 20
404.000991
 30
0.0
 10
249.878085
 20
404.000991
 30
0.0
  0
SPLINE
  5
1e0
100
AcDbEntity
  8
0
 62
7
100
AcDbSpline
 70
8
 71
3
 72
8
 73
4
 74
0
 40
0
 40
0
 40
0
 40
0
 40
1
 40
1
 40
1
 40
1
 10
466.824221
 20
322.855502
 30
0.0
 10
466.438061
 20
322.469359
 30
0.0
 10
465.914345
 20
322.252427
 30
0.0
 10
465.368245
 20
322.252427
 30
0.0
  0
SPLINE
  5
1e1
100
AcDbEntity
  8
0
 62
7
100
AcDbSpline
 70
8
 71
3
 72
8
 73
4
 74
0
 40
0
 40
0
 40
0
 40
0
 40
1
 40
1
 40
1
 40
1
 10
58.615225
 20
381.441460
 30
0.0
 10
58.615225
 20
381.987549
 30
0.0
 10
58.832157
 20
382.511273
 30
0.0
 10
59.218295
 20
382.897414
 30
0.0
  0
SPLINE
  5
1e2
100
AcDbEntity
  8
0
 62
7
100
AcDbSpline
 70
8
 71
3
 72
8
 73
4
 74
0
 40
0
 40
0
 40
0
 40
0
 40
1
 40
1
 40
1
 40
1
 10
407.982316
 20
322.855502
 30
0.0
 10
407.596157
 20
323.241646
 30
0.0
 10
407.379225
 20
323.765370
 30
0.0
 10
407.379225
 20
324.311457
 30
0.0
  0
SPLINE
  5
1e3
100
AcDbEntity
  8
0
 62
7
100
AcDbSpline
 70
8
 71
3
 72
8
 73
4
 74
0
 40
0
 40
0
 40
0
 40
0
 40
1
 40
1
 40
1
 40
1
 10
338.856930
 20
92.127427
 30
0.0
 10
338.496541
 20
92.127427
 30
0.0
 10
338.150890
 20
92.270596
 30
0.0
 10
337.896070
 20
92.525432
 30
0.0
  0
SPLINE
  5
1e4
100
AcDbEntity
  8
0
 62
7
100
AcDbSpline
 70
8
 71
3
 72
8
 73
4
 74
0
 40
0
 40
0
 40
0
 40
0
 40
1
 40
1
 40
1
 40
1
 10
249.878085
 20
404.000991
 30
0.0
 10
250.238474
 20
404.000991
 30
0.0
 10
250.584125
 20
403.857827
 30
0.0
 10
250.838945
 20
403.602986
 30
0.0
  0
SPLINE
  5
1e5
100
AcDbEntity
  8
0
 62
7
100
AcDbSpline
 70
8
 71
3
 72
8
 73
4
 74
0
 40
0
 40
0
 40
0
 40
0
 40
1
 40
1
 40
1
 40
1
 10
248.519211
 20
402.642123
 30
0.0
 10
248.519211
 20
403.002514
 30
0.0
 10
248.662377
 20
403.348147
 30
0.0
 10
248.917224
 20
403.602986
 30
0.0
  0
SPLINE
  5
1e6
100
AcDbEntity
  8
0
 62
7
100
AcDbSpline
 70
8
 71
3
 72
8
 73
4
 74
0
 40
0
 40
0
 40
0
 40
0
 40
1
 40
1
 40
1
 40
1
 10
248.891004
 20
407.481257
 30
0.0
 10
248.636157
 20
407.736093
 30
0.0
 10
248.492991
 20
408.081728
 30
0.0
 10
248.492991
 20
408.442123
 30
0.0
  0
SPLINE
  5
1e7
100
AcDbEntity
  8
0
 62
7
100
AcDbSpline
 70
8
 71
3
 72
8
 73
4
 74
0
 40
0
 40
0
 40
0
 40
0
 40
1
 40
1
 40
1
 40
1
 10
248.492991
 20
408.442123
 30
0.0
 10
248.492991
 20
408.802522
 30
0.0
 10
248.636157
 20
409.148153
 30
0.0
 10
248.891004
 20
409.402991
 30
0.0
  0
SPLINE
  5
1e8
100
AcDbEntity
  8
0
 62
7
100
AcDbSpline
 70
8
 71
3
 72
8
 73
4
 74
0
 40
0
 40
0
 40
0
 40
0
 40
1
 40
1
 40
1
 40
1
 10
337.896070
 20
92.525432
 30
0.0
 10
337.641223
 20
92.780265
 30
0.0
 10
337.498057
 20
93.125906
 30
0.0
 10
337.498057
 20
93.486300
 30
0.0
  0
SPLINE
  5
1e9
100
AcDbEntity
  8
0
 62
7
100
AcDbSpline
 70
8
 71
3
 72
8
 73
4
 74
0
 40
0
 40
0
 40
0
 40
0
 40
1
 40
1
 40
1
 40
1
 10
337.498057
 20
93.486300
 30
0.0
 10
337.498057
 20
93.846695
 30
0.0
 10
337.641223
 20
94.192330
 30
0.0
 10
337.896070
 20
94.447169
 30
0.0
  0
SPLINE
  5
1ea
100
AcDbEntity
  8
0
 62
7
100
AcDbSpline
 70
8
 71
3
 72
8
 73
4
 74
0
 40
0
 40
0
 40
0
 40
0
 40
1
 40
1
 40
1
 40
1
 10
248.891004
 20
409.402991
 30
0.0
 10
249.145850
 20
409.657830
 30
0.0
 10
249.491475
 20
409.800996
 30
0.0
 10
249.851864
 20
409.800996
 30
0.0
  0
SPLINE
  5
1eb
100
AcDbEntity
  8
0
 62
7
100
AcDbSpline
 70
8
 71
3
 72
8
 73
4
 74
0
 40
0
 40
0
 40
0
 40
0
 40
1
 40
1
 40
1
 40
1
 10
60.674252
 20
379.382432
 30
0.0
 10
60.128162
 20
379.382432
 30
0.0
 10
59.604441
 20
379.599364
 30
0.0
 10
59.218295
 20
379.985510
 30
0.0
  0
SPLINE
  5
1ec
100
AcDbEntity
  8
0
 62
7
100
AcDbSpline
 70
8
 71
3
 72
8
 73
4
 74
0
 40
0
 40
0
 40
0
 40
0
 40
1
 40
1
 40
1
 40
1
 10
411.497306
 20
324.311457
 30
0.0
 10
411.497306
 20
323.765370
 30
0.0
 10
411.280374
 20
323.241646
 30
0.0
 10
410.894214
 20
322.855502
 30
0.0
  0
SPLINE
  5
1ed
100
AcDbEntity
  8
0
 62
7
100
AcDbSpline
 70
8
 71
3
 72
8
 73
4
 74
0
 40
0
 40
0
 40
0
 40
0
 40
1
 40
1
 40
1
 40
1
 10
83.723278
 20
324.311457
 30
0.0
 10
83.723278
 20
323.765370
 30
0.0
 10
83.506346
 20
323.241646
 30
0.0
 10
83.120203
 20
322.855508
 30
0.0
  0
SPLINE
  5
1ee
100
AcDbEntity
  8
0
 62
7
100
AcDbSpline
 70
8
 71
3
 72
8
 73
4
 74
0
 40
0
 40
0
 40
0
 40
0
 40
1
 40
1
 40
1
 40
1
 10
463.912296
 20
322.855502
 30
0.0
 10
463.526136
 20
323.241646
 30
0.0
 10
463.309205
 20
323.765370
 30
0.0
 10
463.309205
 20
324.311457
 30
0.0
  0
SPLINE
  5
1ef
100
AcDbEntity
  8
0
 62
7
100
AcDbSpline
 70
8
 71
3
 72
8
 73
4
 74
0
 40
0
 40
0
 40
0
 40
0
 40
1
 40
1
 40
1
 40
1
 10
473.734238
 20
345.517414
 30
0.0
 10
474.120371
 20
345.131268
 30
0.0
 10
474.337302
 20
344.607546
 30
0.0
 10
474.337302
 20
344.061457
 30
0.0
  0
SPLINE
  5
1f0
100
AcDbEntity
  8
0
 62
7
100
AcDbSpline
 70
8
 71
3
 72
8
 73
4
 74
0
 40
0
 40
0
 40
0
 40
0
 40
1
 40
1
 40
1
 40
1
 10
158.205942
 20
7.752209
 30
0.0
 10
158.205936
 20
6.615086
 30
0.0
 10
157.284112
 20
5.693251
 30
0.0
 10
156.146986
 20
5.693251
 30
0.0
  0
SPLINE
  5
1f1
100
AcDbEntity
  8
0
 62
7
100
AcDbSpline
 70
8
 71
3
 72
8
 73
4
 74
0
 40
0
 40
0
 40
0
 40
0
 40
1
 40
1
 40
1
 40
1
 10
467.427285
 20
324.311457
 30
0.0
 10
467.427285
 20
323.765370
 30
0.0
 10
467.210354
 20
323.241646
 30
0.0
 10
466.824221
 20
322.855502
 30
0.0
  0
SPLINE
  5
1f2
100
AcDbEntity
  8
0
 62
7
100
AcDbSpline
 70
8
 71
3
 72
8
 73
4
 74
0
 40
0
 40
0
 40
0
 40
0
 40
1
 40
1
 40
1
 40
1
 10
410.894214
 20
325.767417
 30
0.0
 10
411.280374
 20
325.381273
 30
0.0
 10
411.497306
 20
324.857549
 30
0.0
 10
411.497306
 20
324.311457
 30
0.0
  0
SPLINE
  5
1f3
100
AcDbEntity
  8
0
 62
7
100
AcDbSpline
 70
8
 71
3
 72
8
 73
4
 74
0
 40
0
 40
0
 40
0
 40
0
 40
1
 40
1
 40
1
 40
1
 10
409.438265
 20
322.252427
 30
0.0
 10
408.892192
 20
322.252427
 30
0.0
 10
408.368449
 20
322.469359
 30
0.0
 10
407.982316
 20
322.855502
 30
0.0
  0
SPLINE
  5
1f4
100
AcDbEntity
  8
0
 62
7
100
AcDbSpline
 70
8
 71
3
 72
8
 73
4
 74
0
 40
0
 40
0
 40
0
 40
0
 40
1
 40
1
 40
1
 40
1
 10
409.438265
 20
326.370484
 30
0.0
 10
409.984365
 20
326.370489
 30
0.0
 10
410.508081
 20
326.153557
 30
0.0
 10
410.894214
 20
325.767417
 30
0.0
  0
SPLINE
  5
1f5
100
AcDbEntity
  8
0
 62
7
100
AcDbSpline
 70
8
 71
3
 72
8
 73
4
 74
0
 40
0
 40
0
 40
0
 40
0
 40
1
 40
1
 40
1
 40
1
 10
59.218295
 20
382.897414
 30
0.0
 10
59.604441
 20
383.283560
 30
0.0
 10
60.128162
 20
383.500489
 30
0.0
 10
60.674252
 20
383.500489
 30
0.0
  0
SPLINE
  5
1f6
100
AcDbEntity
  8
0
 62
7
100
AcDbSpline
 70
8
 71
3
 72
8
 73
4
 74
0
 40
0
 40
0
 40
0
 40
0
 40
1
 40
1
 40
1
 40
1
 10
465.368245
 20
322.252427
 30
0.0
 10
464.822171
 20
322.252427
 30
0.0
 10
464.298429
 20
322.469359
 30
0.0
 10
463.912296
 20
322.855502
 30
0.0
  0
SPLINE
  5
1f7
100
AcDbEntity
  8
0
 62
7
100
AcDbSpline
 70
8
 71
3
 72
8
 73
4
 74
0
 40
0
 40
0
 40
0
 40
0
 40
1
 40
1
 40
1
 40
1
 10
62.130204
 20
382.897414
 30
0.0
 10
62.516347
 20
382.511273
 30
0.0
 10
62.733282
 20
381.987549
 30
0.0
 10
62.733282
 20
381.441460
 30
0.0
  0
SPLINE
  5
1f8
100
AcDbEntity
  8
0
 62
7
100
AcDbSpline
 70
8
 71
3
 72
8
 73
4
 74
0
 40
0
 40
0
 40
0
 40
0
 40
1
 40
1
 40
1
 40
1
 10
344.238899
 20
244.051264
 30
0.0
 10
343.878510
 20
244.051264
 30
0.0
 10
343.532885
 20
244.194430
 30
0.0
 10
343.278039
 20
244.449261
 30
0.0
  0
SPLINE
  5
1f9
100
AcDbEntity
  8
0
 62
7
100
AcDbSpline
 70
8
 71
3
 72
8
 73
4
 74
0
 40
0
 40
0
 40
0
 40
0
 40
1
 40
1
 40
1
 40
1
 10
407.379225
 20
324.311457
 30
0.0
 10
407.379225
 20
324.857549
 30
0.0
 10
407.596157
 20
325.381273
 30
0.0
 10
407.982316
 20
325.767417
 30
0.0
  0
SPLINE
  5
1fa
100
AcDbEntity
  8
0
 62
7
100
AcDbSpline
 70
8
 71
3
 72
8
 73
4
 74
0
 40
0
 40
0
 40
0
 40
0
 40
1
 40
1
 40
1
 40
1
 10
251.210738
 20
408.442123
 30
0.0
 10
251.210738
 20
407.691643
 30
0.0
 10
250.602355
 20
407.083249
 30
0.0
 10
249.851864
 20
407.083249
 30
0.0
  0
SPLINE
  5
1fb
100
AcDbEntity
  8
0
 62
7
100
AcDbSpline
 70
8
 71
3
 72
8
 73
4
 74
0
 40
0
 40
0
 40
0
 40
0
 40
1
 40
1
 40
1
 40
1
 10
289.068089
 20
346.560989
 30
0.0
 10
289.428504
 20
346.560989
 30
0.0
 10
289.774129
 20
346.417823
 30
0.0
 10
290.028976
 20
346.162987
 30
0.0
  0
SPLINE
  5
1fc
100
AcDbEntity
  8
0
 62
7
100
AcDbSpline
 70
8
 71
3
 72
8
 73
4
 74
0
 40
0
 40
0
 40
0
 40
0
 40
1
 40
1
 40
1
 40
1
 10
288.080981
 20
350.041252
 30
0.0
 10
287.826161
 20
350.296093
 30
0.0
 10
287.682995
 20
350.641729
 30
0.0
 10
287.682995
 20
351.002123
 30
0.0
  0
SPLINE
  5
1fd
100
AcDbEntity
  8
0
 62
7
100
AcDbSpline
 70
8
 71
3
 72
8
 73
4
 74
0
 40
0
 40
0
 40
0
 40
0
 40
1
 40
1
 40
1
 40
1
 10
287.682995
 20
351.002123
 30
0.0
 10
287.682995
 20
351.362518
 30
0.0
 10
287.826161
 20
351.708151
 30
0.0
 10
288.080981
 20
351.962987
 30
0.0
  0
SPLINE
  5
1fe
100
AcDbEntity
  8
0
 62
7
100
AcDbSpline
 70
8
 71
3
 72
8
 73
4
 74
0
 40
0
 40
0
 40
0
 40
0
 40
1
 40
1
 40
1
 40
1
 10
217.109764
 20
373.942996
 30
0.0
 10
217.364603
 20
373.688160
 30
0.0
 10
217.507769
 20
373.342524
 30
0.0
 10
217.507769
 20
372.982133
 30
0.0
  0
SPLINE
  5
1ff
100
AcDbEntity
  8
0
 62
7
100
AcDbSpline
 70
8
 71
3
 72
8
 73
4
 74
0
 40
0
 40
0
 40
0
 40
0
 40
1
 40
1
 40
1
 40
1
 10
288.080981
 20
351.962987
 30
0.0
 10
288.335828
 20
352.217828
 30
0.0
 10
288.681453
 20
352.360997
 30
0.0
 10
289.041842
 20
352.360997
 30
0.0
  0
SPLINE
  5
200
100
AcDbEntity
  8
0
 62
7
100
AcDbSpline
 70
8
 71
3
 72
8
 73
4
 74
0
 40
0
 40
0
 40
0
 40
0
 40
1
 40
1
 40
1
 40
1
 10
289.041842
 20
352.360997
 30
0.0
 10
289.402257
 20
352.360997
 30
0.0
 10
289.747882
 20
352.217828
 30
0.0
 10
290.002729
 20
351.962987
 30
0.0
  0
SPLINE
  5
201
100
AcDbEntity
  8
0
 62
7
100
AcDbSpline
 70
8
 71
3
 72
8
 73
4
 74
0
 40
0
 40
0
 40
0
 40
0
 40
1
 40
1
 40
1
 40
1
 10
189.068079
 20
343.843247
 30
0.0
 10
188.707688
 20
343.843242
 30
0.0
 10
188.362049
 20
343.986413
 30
0.0
 10
188.107216
 20
344.241249
 30
0.0
  0
SPLINE
  5
202
100
AcDbEntity
  8
0
 62
7
100
AcDbSpline
 70
8
 71
3
 72
8
 73
4
 74
0
 40
0
 40
0
 40
0
 40
0
 40
1
 40
1
 40
1
 40
1
 10
190.028951
 20
344.241249
 30
0.0
 10
189.774112
 20
343.986413
 30
0.0
 10
189.428479
 20
343.843242
 30
0.0
 10
189.068079
 20
343.843247
 30
0.0
  0
SPLINE
  5
203
100
AcDbEntity
  8
0
 62
7
100
AcDbSpline
 70
8
 71
3
 72
8
 73
4
 74
0
 40
0
 40
0
 40
0
 40
0
 40
1
 40
1
 40
1
 40
1
 10
288.107228
 20
346.162987
 30
0.0
 10
288.362074
 20
346.417823
 30
0.0
 10
288.707700
 20
346.560989
 30
0.0
 10
289.068089
 20
346.560989
 30
0.0
  0
SPLINE
  5
204
100
AcDbEntity
  8
0
 62
7
100
AcDbSpline
 70
8
 71
3
 72
8
 73
4
 74
0
 40
0
 40
0
 40
0
 40
0
 40
1
 40
1
 40
1
 40
1
 10
290.002729
 20
350.041252
 30
0.0
 10
289.747882
 20
349.786419
 30
0.0
 10
289.402257
 20
349.643250
 30
0.0
 10
289.041842
 20
349.643250
 30
0.0
  0
SPLINE
  5
205
100
AcDbEntity
  8
0
 62
7
100
AcDbSpline
 70
8
 71
3
 72
8
 73
4
 74
0
 40
0
 40
0
 40
0
 40
0
 40
1
 40
1
 40
1
 40
1
 10
288.107228
 20
344.241249
 30
0.0
 10
287.852407
 20
344.496088
 30
0.0
 10
287.709241
 20
344.841727
 30
0.0
 10
287.709241
 20
345.202118
 30
0.0
  0
SPLINE
  5
206
100
AcDbEntity
  8
0
 62
7
100
AcDbSpline
 70
8
 71
3
 72
8
 73
4
 74
0
 40
0
 40
0
 40
0
 40
0
 40
1
 40
1
 40
1
 40
1
 10
289.041842
 20
349.643250
 30
0.0
 10
288.681453
 20
349.643250
 30
0.0
 10
288.335828
 20
349.786419
 30
0.0
 10
288.080981
 20
350.041252
 30
0.0
  0
SPLINE
  5
207
100
AcDbEntity
  8
0
 62
7
100
AcDbSpline
 70
8
 71
3
 72
8
 73
4
 74
0
 40
0
 40
0
 40
0
 40
0
 40
1
 40
1
 40
1
 40
1
 10
290.400715
 20
351.002123
 30
0.0
 10
290.400715
 20
350.641729
 30
0.0
 10
290.257549
 20
350.296093
 30
0.0
 10
290.002729
 20
350.041252
 30
0.0
  0
SPLINE
  5
208
100
AcDbEntity
  8
0
 62
7
100
AcDbSpline
 70
8
 71
3
 72
8
 73
4
 74
0
 40
0
 40
0
 40
0
 40
0
 40
1
 40
1
 40
1
 40
1
 10
290.002729
 20
351.962987
 30
0.0
 10
290.257549
 20
351.708151
 30
0.0
 10
290.400715
 20
351.362518
 30
0.0
 10
290.400715
 20
351.002123
 30
0.0
  0
SPLINE
  5
209
100
AcDbEntity
  8
0
 62
7
100
AcDbSpline
 70
8
 71
3
 72
8
 73
4
 74
0
 40
0
 40
0
 40
0
 40
0
 40
1
 40
1
 40
1
 40
1
 10
290.028976
 20
346.162987
 30
0.0
 10
290.283796
 20
345.908148
 30
0.0
 10
290.426962
 20
345.562512
 30
0.0
 10
290.426962
 20
345.202118
 30
0.0
  0
SPLINE
  5
20a
100
AcDbEntity
  8
0
 62
7
100
AcDbSpline
 70
8
 71
3
 72
8
 73
4
 74
0
 40
0
 40
0
 40
0
 40
0
 40
1
 40
1
 40
1
 40
1
 10
228.768018
 20
367.982140
 30
0.0
 10
228.768020
 20
368.732625
 30
0.0
 10
229.376406
 20
369.341008
 30
0.0
 10
230.126888
 20
369.341008
 30
0.0
  0
SPLINE
  5
20b
100
AcDbEntity
  8
0
 62
7
100
AcDbSpline
 70
8
 71
3
 72
8
 73
4
 74
0
 40
0
 40
0
 40
0
 40
0
 40
1
 40
1
 40
1
 40
1
 10
254.851854
 20
415.178991
 30
0.0
 10
255.602345
 20
415.178991
 30
0.0
 10
256.210728
 20
414.570608
 30
0.0
 10
256.210728
 20
413.820123
 30
0.0
  0
SPLINE
  5
20c
100
AcDbEntity
  8
0
 62
7
100
AcDbSpline
 70
8
 71
3
 72
8
 73
4
 74
0
 40
0
 40
0
 40
0
 40
0
 40
1
 40
1
 40
1
 40
1
 10
0.183520
 20
457.976975
 30
0.0
 10
0.183611
 20
471.706241
 30
0.0
 10
11.313458
 20
482.835913
 30
0.0
 10
25.042693
 20
482.835820
 30
0.0
  0
SPLINE
  5
20d
100
AcDbEntity
  8
0
 62
7
100
AcDbSpline
 70
8
 71
3
 72
8
 73
4
 74
0
 40
0
 40
0
 40
0
 40
0
 40
1
 40
1
 40
1
 40
1
 10
255.812742
 20
412.859254
 30
0.0
 10
255.557895
 20
412.604418
 30
0.0
 10
255.212270
 20
412.461255
 30
0.0
 10
254.851854
 20
412.461255
 30
0.0
  0
SPLINE
  5
20e
100
AcDbEntity
  8
0
 62
7
100
AcDbSpline
 70
8
 71
3
 72
8
 73
4
 74
0
 40
0
 40
0
 40
0
 40
0
 40
1
 40
1
 40
1
 40
1
 10
253.890994
 20
412.859254
 30
0.0
 10
253.636147
 20
413.114098
 30
0.0
 10
253.492981
 20
413.459726
 30
0.0
 10
253.492981
 20
413.820123
 30
0.0
  0
SPLINE
  5
20f
100
AcDbEntity
  8
0
 62
7
100
AcDbSpline
 70
8
 71
3
 72
8
 73
4
 74
0
 40
0
 40
0
 40
0
 40
0
 40
1
 40
1
 40
1
 40
1
 10
253.492981
 20
413.820123
 30
0.0
 10
253.493007
 20
414.570608
 30
0.0
 10
254.101390
 20
415.178991
 30
0.0
 10
254.851854
 20
415.178991
 30
0.0
  0
LWPOLYLINE
  5
210
100
AcDbEntity
  8
0
 62
7
100
AcDbPolyline
 90
2
 70
0
 10
192.052918
 20
471.854297
 30
0.0
 10
192.052918
 20
461.854293
 30
0.0
  0
SPLINE
  5
211
100
AcDbEntity
  8
0
 62
7
100
AcDbSpline
 70
8
 71
3
 72
8
 73
4
 74
0
 40
0
 40
0
 40
0
 40
0
 40
1
 40
1
 40
1
 40
1
 10
24.992956
 20
0.132291
 30
0.0
 10
11.263693
 20
0.132291
 30
0.0
 10
0.133208
 20
11.260402
 30
0.0
 10
0.132292
 20
24.989631
 30
0.0
  0
LWPOLYLINE
  5
212
100
AcDbEntity
  8
0
 62
7
100
AcDbPolyline
 90
2
 70
0
 10
24.992956
 20
0.132291
 30
0.0
 10
459.501983
 20
0.132291
 30
0.0
  0
SPLINE
  5
213
100
AcDbEntity
  8
0
 62
7
100
AcDbSpline
 70
8
 71
3
 72
8
 73
4
 74
0
 40
0
 40
0
 40
0
 40
0
 40
1
 40
1
 40
1
 40
1
 10
292.988023
 20
75.752216
 30
0.0
 10
292.988023
 20
76.889345
 30
0.0
 10
293.909858
 20
77.811167
 30
0.0
 10
295.046984
 20
77.811167
 30
0.0
  0
SPLINE
  5
214
100
AcDbEntity
  8
0
 62
7
100
AcDbSpline
 70
8
 71
3
 72
8
 73
4
 74
0
 40
0
 40
0
 40
0
 40
0
 40
1
 40
1
 40
1
 40
1
 10
189.041867
 20
349.643250
 30
0.0
 10
188.681473
 20
349.643250
 30
0.0
 10
188.335837
 20
349.786419
 30
0.0
 10
188.080998
 20
350.041252
 30
0.0
  0
SPLINE
  5
215
100
AcDbEntity
  8
0
 62
7
100
AcDbSpline
 70
8
 71
3
 72
8
 73
4
 74
0
 40
0
 40
0
 40
0
 40
0
 40
1
 40
1
 40
1
 40
1
 10
192.052918
 20
471.854297
 30
0.0
 10
192.052833
 20
472.991537
 30
0.0
 10
192.974682
 20
473.913517
 30
0.0
 10
194.111922
 20
473.913602
 30
0.0
  0
SPLINE
  5
216
100
AcDbEntity
  8
0
 62
7
100
AcDbSpline
 70
8
 71
3
 72
8
 73
4
 74
0
 40
0
 40
0
 40
0
 40
0
 40
1
 40
1
 40
1
 40
1
 10
244.645949
 20
68.802213
 30
0.0
 10
244.645949
 20
67.665081
 30
0.0
 10
243.724114
 20
66.743262
 30
0.0
 10
242.586988
 20
66.743262
 30
0.0
  0
SPLINE
  5
217
100
AcDbEntity
  8
0
 62
7
100
AcDbSpline
 70
8
 71
3
 72
8
 73
4
 74
0
 40
0
 40
0
 40
0
 40
0
 40
1
 40
1
 40
1
 40
1
 10
295.046984
 20
77.811167
 30
0.0
 10
295.593057
 20
77.811175
 30
0.0
 10
296.116747
 20
77.594251
 30
0.0
 10
296.502907
 20
77.208123
 30
0.0
  0
SPLINE
  5
218
100
AcDbEntity
  8
0
 62
7
100
AcDbSpline
 70
8
 71
3
 72
8
 73
4
 74
0
 40
0
 40
0
 40
0
 40
0
 40
1
 40
1
 40
1
 40
1
 10
190.426956
 20
345.202118
 30
0.0
 10
190.426956
 20
344.841727
 30
0.0
 10
190.283790
 20
344.496088
 30
0.0
 10
190.028951
 20
344.241249
 30
0.0
  0
SPLINE
  5
219
100
AcDbEntity
  8
0
 62
7
100
AcDbSpline
 70
8
 71
3
 72
8
 73
4
 74
0
 40
0
 40
0
 40
0
 40
0
 40
1
 40
1
 40
1
 40
1
 10
190.400735
 20
351.002123
 30
0.0
 10
190.400735
 20
350.251638
 30
0.0
 10
189.792350
 20
349.643250
 30
0.0
 10
189.041867
 20
349.643250
 30
0.0
  0
SPLINE
  5
21a
100
AcDbEntity
  8
0
 62
7
100
AcDbSpline
 70
8
 71
3
 72
8
 73
4
 74
0
 40
0
 40
0
 40
0
 40
0
 40
1
 40
1
 40
1
 40
1
 10
459.134582
 20
482.850616
 30
0.0
 10
472.863838
 20
482.855246
 30
0.0
 10
483.997346
 20
471.729218
 30
0.0
 10
484.001976
 20
457.999981
 30
0.0
  0
SPLINE
  5
21b
100
AcDbEntity
  8
0
 62
7
100
AcDbSpline
 70
8
 71
3
 72
8
 73
4
 74
0
 40
0
 40
0
 40
0
 40
0
 40
1
 40
1
 40
1
 40
1
 10
255.812742
 20
423.380987
 30
0.0
 10
256.067562
 20
423.126143
 30
0.0
 10
256.210728
 20
422.780510
 30
0.0
 10
256.210728
 20
422.420113
 30
0.0
  0
SPLINE
  5
21c
100
AcDbEntity
  8
0
 62
7
100
AcDbSpline
 70
8
 71
3
 72
8
 73
4
 74
0
 40
0
 40
0
 40
0
 40
0
 40
1
 40
1
 40
1
 40
1
 10
484.360989
 20
24.991129
 30
0.0
 10
484.360910
 20
11.261870
 30
0.0
 10
473.231053
 20
0.132212
 30
0.0
 10
459.501824
 20
0.132291
 30
0.0
  0
SPLINE
  5
21d
100
AcDbEntity
  8
0
 62
7
100
AcDbSpline
 70
8
 71
3
 72
8
 73
4
 74
0
 40
0
 40
0
 40
0
 40
0
 40
1
 40
1
 40
1
 40
1
 10
190.028951
 20
346.162987
 30
0.0
 10
190.283790
 20
345.908148
 30
0.0
 10
190.426956
 20
345.562512
 30
0.0
 10
190.426956
 20
345.202118
 30
0.0
  0
SPLINE
  5
21e
100
AcDbEntity
  8
0
 62
7
100
AcDbSpline
 70
8
 71
3
 72
8
 73
4
 74
0
 40
0
 40
0
 40
0
 40
0
 40
1
 40
1
 40
1
 40
1
 10
256.210728
 20
422.420113
 30
0.0
 10
256.210728
 20
422.059724
 30
0.0
 10
256.067562
 20
421.714086
 30
0.0
 10
255.812742
 20
421.459252
 30
0.0
  0
SPLINE
  5
21f
100
AcDbEntity
  8
0
 62
7
100
AcDbSpline
 70
8
 71
3
 72
8
 73
4
 74
0
 40
0
 40
0
 40
0
 40
0
 40
1
 40
1
 40
1
 40
1
 10
254.851854
 20
423.778987
 30
0.0
 10
255.212270
 20
423.778989
 30
0.0
 10
255.557895
 20
423.635823
 30
0.0
 10
255.812742
 20
423.380987
 30
0.0
  0
SPLINE
  5
220
100
AcDbEntity
  8
0
 62
7
100
AcDbSpline
 70
8
 71
3
 72
8
 73
4
 74
0
 40
0
 40
0
 40
0
 40
0
 40
1
 40
1
 40
1
 40
1
 10
253.890994
 20
421.459252
 30
0.0
 10
253.636147
 20
421.714086
 30
0.0
 10
253.492981
 20
422.059724
 30
0.0
 10
253.492981
 20
422.420113
 30
0.0
  0
SPLINE
  5
221
100
AcDbEntity
  8
0
 62
7
100
AcDbSpline
 70
8
 71
3
 72
8
 73
4
 74
0
 40
0
 40
0
 40
0
 40
0
 40
1
 40
1
 40
1
 40
1
 10
293.591061
 20
74.296301
 30
0.0
 10
293.204955
 20
74.682434
 30
0.0
 10
292.988023
 20
75.206140
 30
0.0
 10
292.988023
 20
75.752216
 30
0.0
  0
SPLINE
  5
222
100
AcDbEntity
  8
0
 62
7
100
AcDbSpline
 70
8
 71
3
 72
8
 73
4
 74
0
 40
0
 40
0
 40
0
 40
0
 40
1
 40
1
 40
1
 40
1
 10
296.502907
 20
77.208123
 30
0.0
 10
296.889040
 20
76.821995
 30
0.0
 10
297.105945
 20
76.298287
 30
0.0
 10
297.105971
 20
75.752216
 30
0.0
  0
SPLINE
  5
223
100
AcDbEntity
  8
0
 62
7
100
AcDbSpline
 70
8
 71
3
 72
8
 73
4
 74
0
 40
0
 40
0
 40
0
 40
0
 40
1
 40
1
 40
1
 40
1
 10
240.528027
 20
68.802213
 30
0.0
 10
240.528027
 20
69.939342
 30
0.0
 10
241.449862
 20
70.861163
 30
0.0
 10
242.586988
 20
70.861163
 30
0.0
  0
SPLINE
  5
224
100
AcDbEntity
  8
0
 62
7
100
AcDbSpline
 70
8
 71
3
 72
8
 73
4
 74
0
 40
0
 40
0
 40
0
 40
0
 40
1
 40
1
 40
1
 40
1
 10
254.851854
 20
421.061247
 30
0.0
 10
254.491465
 20
421.061247
 30
0.0
 10
254.145840
 20
421.204411
 30
0.0
 10
253.890994
 20
421.459252
 30
0.0
  0
SPLINE
  5
225
100
AcDbEntity
  8
0
 62
7
100
AcDbSpline
 70
8
 71
3
 72
8
 73
4
 74
0
 40
0
 40
0
 40
0
 40
0
 40
1
 40
1
 40
1
 40
1
 10
256.210728
 20
413.820123
 30
0.0
 10
256.210728
 20
413.459726
 30
0.0
 10
256.067562
 20
413.114098
 30
0.0
 10
255.812742
 20
412.859254
 30
0.0
  0
SPLINE
  5
226
100
AcDbEntity
  8
0
 62
7
100
AcDbSpline
 70
8
 71
3
 72
8
 73
4
 74
0
 40
0
 40
0
 40
0
 40
0
 40
1
 40
1
 40
1
 40
1
 10
214.645946
 20
68.802213
 30
0.0
 10
214.645940
 20
67.665081
 30
0.0
 10
213.724113
 20
66.743260
 30
0.0
 10
212.586985
 20
66.743262
 30
0.0
  0
SPLINE
  5
227
100
AcDbEntity
  8
0
 62
7
100
AcDbSpline
 70
8
 71
3
 72
8
 73
4
 74
0
 40
0
 40
0
 40
0
 40
0
 40
1
 40
1
 40
1
 40
1
 10
189.068079
 20
346.560989
 30
0.0
 10
189.428479
 20
346.560989
 30
0.0
 10
189.774112
 20
346.417823
 30
0.0
 10
190.028951
 20
346.162987
 30
0.0
  0
SPLINE
  5
228
100
AcDbEntity
  8
0
 62
7
100
AcDbSpline
 70
8
 71
3
 72
8
 73
4
 74
0
 40
0
 40
0
 40
0
 40
0
 40
1
 40
1
 40
1
 40
1
 10
188.107216
 20
346.162987
 30
0.0
 10
188.362049
 20
346.417823
 30
0.0
 10
188.707688
 20
346.560989
 30
0.0
 10
189.068079
 20
346.560989
 30
0.0
  0
SPLINE
  5
229
100
AcDbEntity
  8
0
 62
7
100
AcDbSpline
 70
8
 71
3
 72
8
 73
4
 74
0
 40
0
 40
0
 40
0
 40
0
 40
1
 40
1
 40
1
 40
1
 10
187.709211
 20
345.202118
 30
0.0
 10
187.709211
 20
345.562512
 30
0.0
 10
187.852377
 20
345.908148
 30
0.0
 10
188.107216
 20
346.162987
 30
0.0
  0
SPLINE
  5
22a
100
AcDbEntity
  8
0
 62
7
100
AcDbSpline
 70
8
 71
3
 72
8
 73
4
 74
0
 40
0
 40
0
 40
0
 40
0
 40
1
 40
1
 40
1
 40
1
 10
188.107216
 20
344.241249
 30
0.0
 10
187.852377
 20
344.496088
 30
0.0
 10
187.709211
 20
344.841727
 30
0.0
 10
187.709211
 20
345.202118
 30
0.0
  0
SPLINE
  5
22b
100
AcDbEntity
  8
0
 62
7
100
AcDbSpline
 70
8
 71
3
 72
8
 73
4
 74
0
 40
0
 40
0
 40
0
 40
0
 40
1
 40
1
 40
1
 40
1
 10
329.818129
 20
401.283246
 30
0.0
 10
329.457740
 20
401.283246
 30
0.0
 10
329.112115
 20
401.426412
 30
0.0
 10
328.857268
 20
401.681251
 30
0.0
  0
SPLINE
  5
22c
100
AcDbEntity
  8
0
 62
7
100
AcDbSpline
 70
8
 71
3
 72
8
 73
4
 74
0
 40
0
 40
0
 40
0
 40
0
 40
1
 40
1
 40
1
 40
1
 10
242.586988
 20
66.743262
 30
0.0
 10
241.449862
 20
66.743260
 30
0.0
 10
240.528027
 20
67.665081
 30
0.0
 10
240.528027
 20
68.802213
 30
0.0
  0
SPLINE
  5
22d
100
AcDbEntity
  8
0
 62
7
100
AcDbSpline
 70
8
 71
3
 72
8
 73
4
 74
0
 40
0
 40
0
 40
0
 40
0
 40
1
 40
1
 40
1
 40
1
 10
254.851854
 20
412.461255
 30
0.0
 10
254.491465
 20
412.461255
 30
0.0
 10
254.145840
 20
412.604418
 30
0.0
 10
253.890994
 20
412.859254
 30
0.0
  0
SPLINE
  5
22e
100
AcDbEntity
  8
0
 62
7
100
AcDbSpline
 70
8
 71
3
 72
8
 73
4
 74
0
 40
0
 40
0
 40
0
 40
0
 40
1
 40
1
 40
1
 40
1
 10
253.492981
 20
422.420113
 30
0.0
 10
253.492981
 20
422.780510
 30
0.0
 10
253.636147
 20
423.126143
 30
0.0
 10
253.890994
 20
423.380987
 30
0.0
  0
LWPOLYLINE
  5
22f
100
AcDbEntity
  8
0
 62
7
100
AcDbPolyline
 90
2
 70
0
 10
196.170920
 20
461.854293
 30
0.0
 10
196.170920
 20
471.854297
 30
0.0
  0
SPLINE
  5
230
100
AcDbEntity
  8
0
 62
7
100
AcDbSpline
 70
8
 71
3
 72
8
 73
4
 74
0
 40
0
 40
0
 40
0
 40
0
 40
1
 40
1
 40
1
 40
1
 10
235.926894
 20
369.367231
 30
0.0
 10
236.287291
 20
369.367231
 30
0.0
 10
236.632924
 20
369.224062
 30
0.0
 10
236.887763
 20
368.969226
 30
0.0
  0
SPLINE
  5
231
100
AcDbEntity
  8
0
 62
7
100
AcDbSpline
 70
8
 71
3
 72
8
 73
4
 74
0
 40
0
 40
0
 40
0
 40
0
 40
1
 40
1
 40
1
 40
1
 10
255.812742
 20
421.459252
 30
0.0
 10
255.557895
 20
421.204411
 30
0.0
 10
255.212270
 20
421.061247
 30
0.0
 10
254.851854
 20
421.061247
 30
0.0
  0
LWPOLYLINE
  5
232
100
AcDbEntity
  8
0
 62
7
100
AcDbPolyline
 90
2
 70
0
 10
484.360989
 20
24.990988
 30
0.0
 10
484.001976
 20
457.999981
 30
0.0
  0
SPLINE
  5
233
100
AcDbEntity
  8
0
 62
7
100
AcDbSpline
 70
8
 71
3
 72
8
 73
4
 74
0
 40
0
 40
0
 40
0
 40
0
 40
1
 40
1
 40
1
 40
1
 10
253.890994
 20
423.380987
 30
0.0
 10
254.145840
 20
423.635823
 30
0.0
 10
254.491465
 20
423.778989
 30
0.0
 10
254.851854
 20
423.778987
 30
0.0
  0
SPLINE
  5
234
100
AcDbEntity
  8
0
 62
7
100
AcDbSpline
 70
8
 71
3
 72
8
 73
4
 74
0
 40
0
 40
0
 40
0
 40
0
 40
1
 40
1
 40
1
 40
1
 10
296.502907
 20
74.296294
 30
0.0
 10
296.116774
 20
73.910155
 30
0.0
 10
295.593057
 20
73.693229
 30
0.0
 10
295.046984
 20
73.693237
 30
0.0
  0
SPLINE
  5
235
100
AcDbEntity
  8
0
 62
7
100
AcDbSpline
 70
8
 71
3
 72
8
 73
4
 74
0
 40
0
 40
0
 40
0
 40
0
 40
1
 40
1
 40
1
 40
1
 10
20.740205
 20
322.855508
 30
0.0
 10
20.354062
 20
322.469364
 30
0.0
 10
19.830340
 20
322.252427
 30
0.0
 10
19.284251
 20
322.252427
 30
0.0
  0
SPLINE
  5
236
100
AcDbEntity
  8
0
 62
7
100
AcDbSpline
 70
8
 71
3
 72
8
 73
4
 74
0
 40
0
 40
0
 40
0
 40
0
 40
1
 40
1
 40
1
 40
1
 10
17.225224
 20
324.311457
 30
0.0
 10
17.225224
 20
324.857549
 30
0.0
 10
17.442158
 20
325.381270
 30
0.0
 10
17.828299
 20
325.767411
 30
0.0
  0
SPLINE
  5
237
100
AcDbEntity
  8
0
 62
7
100
AcDbSpline
 70
8
 71
3
 72
8
 73
4
 74
0
 40
0
 40
0
 40
0
 40
0
 40
1
 40
1
 40
1
 40
1
 10
20.740205
 20
325.767411
 30
0.0
 10
21.126346
 20
325.381270
 30
0.0
 10
21.343281
 20
324.857549
 30
0.0
 10
21.343281
 20
324.311457
 30
0.0
  0
SPLINE
  5
238
100
AcDbEntity
  8
0
 62
7
100
AcDbSpline
 70
8
 71
3
 72
8
 73
4
 74
0
 40
0
 40
0
 40
0
 40
0
 40
1
 40
1
 40
1
 40
1
 10
379.728256
 20
466.001486
 30
0.0
 10
380.274356
 20
466.001486
 30
0.0
 10
380.798072
 20
465.784554
 30
0.0
 10
381.184231
 20
465.398416
 30
0.0
  0
SPLINE
  5
239
100
AcDbEntity
  8
0
 62
7
100
AcDbSpline
 70
8
 71
3
 72
8
 73
4
 74
0
 40
0
 40
0
 40
0
 40
0
 40
1
 40
1
 40
1
 40
1
 10
337.498057
 20
171.961320
 30
0.0
 10
337.498057
 20
172.321717
 30
0.0
 10
337.641223
 20
172.667348
 30
0.0
 10
337.896070
 20
172.922186
 30
0.0
  0
SPLINE
  5
23a
100
AcDbEntity
  8
0
 62
7
100
AcDbSpline
 70
8
 71
3
 72
8
 73
4
 74
0
 40
0
 40
0
 40
0
 40
0
 40
1
 40
1
 40
1
 40
1
 10
313.081010
 20
62.541213
 30
0.0
 10
312.826190
 20
62.796047
 30
0.0
 10
312.683024
 20
63.141682
 30
0.0
 10
312.683024
 20
63.502077
 30
0.0
  0
SPLINE
  5
23b
100
AcDbEntity
  8
0
 62
7
100
AcDbSpline
 70
8
 71
3
 72
8
 73
4
 74
0
 40
0
 40
0
 40
0
 40
0
 40
1
 40
1
 40
1
 40
1
 10
334.415793
 20
171.935076
 30
0.0
 10
334.415793
 20
171.574677
 30
0.0
 10
334.272627
 20
171.229046
 30
0.0
 10
334.017781
 20
170.974207
 30
0.0
  0
SPLINE
  5
23c
100
AcDbEntity
  8
0
 62
7
100
AcDbSpline
 70
8
 71
3
 72
8
 73
4
 74
0
 40
0
 40
0
 40
0
 40
0
 40
1
 40
1
 40
1
 40
1
 10
331.698046
 20
171.935076
 30
0.0
 10
331.698046
 20
172.295470
 30
0.0
 10
331.841212
 20
172.641106
 30
0.0
 10
332.096059
 20
172.895937
 30
0.0
  0
SPLINE
  5
23d
100
AcDbEntity
  8
0
 62
7
100
AcDbSpline
 70
8
 71
3
 72
8
 73
4
 74
0
 40
0
 40
0
 40
0
 40
0
 40
1
 40
1
 40
1
 40
1
 10
312.683024
 20
63.502077
 30
0.0
 10
312.683024
 20
63.862476
 30
0.0
 10
312.826190
 20
64.208107
 30
0.0
 10
313.081010
 20
64.462948
 30
0.0
  0
SPLINE
  5
23e
100
AcDbEntity
  8
0
 62
7
100
AcDbSpline
 70
8
 71
3
 72
8
 73
4
 74
0
 40
0
 40
0
 40
0
 40
0
 40
1
 40
1
 40
1
 40
1
 10
62.733282
 20
381.441460
 30
0.0
 10
62.733282
 20
380.895376
 30
0.0
 10
62.516347
 20
380.371651
 30
0.0
 10
62.130204
 20
379.985510
 30
0.0
  0
SPLINE
  5
23f
100
AcDbEntity
  8
0
 62
7
100
AcDbSpline
 70
8
 71
3
 72
8
 73
4
 74
0
 40
0
 40
0
 40
0
 40
0
 40
1
 40
1
 40
1
 40
1
 10
333.056920
 20
173.293947
 30
0.0
 10
333.417309
 20
173.293947
 30
0.0
 10
333.762960
 20
173.150778
 30
0.0
 10
334.017781
 20
172.895937
 30
0.0
  0
SPLINE
  5
240
100
AcDbEntity
  8
0
 62
7
100
AcDbSpline
 70
8
 71
3
 72
8
 73
4
 74
0
 40
0
 40
0
 40
0
 40
0
 40
1
 40
1
 40
1
 40
1
 10
58.615225
 20
463.942461
 30
0.0
 10
58.615225
 20
464.488548
 30
0.0
 10
58.832157
 20
465.012267
 30
0.0
 10
59.218295
 20
465.398408
 30
0.0
  0
SPLINE
  5
241
100
AcDbEntity
  8
0
 62
7
100
AcDbSpline
 70
8
 71
3
 72
8
 73
4
 74
0
 40
0
 40
0
 40
0
 40
0
 40
1
 40
1
 40
1
 40
1
 10
62.733282
 20
463.942461
 30
0.0
 10
62.733282
 20
463.396372
 30
0.0
 10
62.516347
 20
462.872651
 30
0.0
 10
62.130204
 20
462.486504
 30
0.0
  0
SPLINE
  5
242
100
AcDbEntity
  8
0
 62
7
100
AcDbSpline
 70
8
 71
3
 72
8
 73
4
 74
0
 40
0
 40
0
 40
0
 40
0
 40
1
 40
1
 40
1
 40
1
 10
334.017781
 20
172.895937
 30
0.0
 10
334.272627
 20
172.641106
 30
0.0
 10
334.415793
 20
172.295470
 30
0.0
 10
334.415793
 20
171.935076
 30
0.0
  0
SPLINE
  5
243
100
AcDbEntity
  8
0
 62
7
100
AcDbSpline
 70
8
 71
3
 72
8
 73
4
 74
0
 40
0
 40
0
 40
0
 40
0
 40
1
 40
1
 40
1
 40
1
 10
244.645949
 20
7.702200
 30
0.0
 10
244.645949
 20
6.565080
 30
0.0
 10
243.724114
 20
5.643245
 30
0.0
 10
242.586988
 20
5.643245
 30
0.0
  0
SPLINE
  5
244
100
AcDbEntity
  8
0
 62
7
100
AcDbSpline
 70
8
 71
3
 72
8
 73
4
 74
0
 40
0
 40
0
 40
0
 40
0
 40
1
 40
1
 40
1
 40
1
 10
127.503213
 20
475.296545
 30
0.0
 10
127.117069
 20
474.910404
 30
0.0
 10
126.593348
 20
474.693469
 30
0.0
 10
126.047258
 20
474.693469
 30
0.0
  0
SPLINE
  5
245
100
AcDbEntity
  8
0
 62
7
100
AcDbSpline
 70
8
 71
3
 72
8
 73
4
 74
0
 40
0
 40
0
 40
0
 40
0
 40
1
 40
1
 40
1
 40
1
 10
242.586988
 20
70.861163
 30
0.0
 10
243.724114
 20
70.861163
 30
0.0
 10
244.645949
 20
69.939342
 30
0.0
 10
244.645949
 20
68.802213
 30
0.0
  0
SPLINE
  5
246
100
AcDbEntity
  8
0
 62
7
100
AcDbSpline
 70
8
 71
3
 72
8
 73
4
 74
0
 40
0
 40
0
 40
0
 40
0
 40
1
 40
1
 40
1
 40
1
 10
60.674252
 20
461.883429
 30
0.0
 10
60.128162
 20
461.883429
 30
0.0
 10
59.604441
 20
462.100361
 30
0.0
 10
59.218295
 20
462.486504
 30
0.0
  0
SPLINE
  5
247
100
AcDbEntity
  8
0
 62
7
100
AcDbSpline
 70
8
 71
3
 72
8
 73
4
 74
0
 40
0
 40
0
 40
0
 40
0
 40
1
 40
1
 40
1
 40
1
 10
212.586985
 20
5.643245
 30
0.0
 10
211.449856
 20
5.643245
 30
0.0
 10
210.528029
 20
6.565080
 30
0.0
 10
210.528026
 20
7.702200
 30
0.0
  0
SPLINE
  5
248
100
AcDbEntity
  8
0
 62
7
100
AcDbSpline
 70
8
 71
3
 72
8
 73
4
 74
0
 40
0
 40
0
 40
0
 40
0
 40
1
 40
1
 40
1
 40
1
 10
214.645946
 20
7.702200
 30
0.0
 10
214.645940
 20
6.565080
 30
0.0
 10
213.724113
 20
5.643245
 30
0.0
 10
212.586985
 20
5.643245
 30
0.0
  0
SPLINE
  5
249
100
AcDbEntity
  8
0
 62
7
100
AcDbSpline
 70
8
 71
3
 72
8
 73
4
 74
0
 40
0
 40
0
 40
0
 40
0
 40
1
 40
1
 40
1
 40
1
 10
381.184231
 20
465.398416
 30
0.0
 10
381.570364
 20
465.012272
 30
0.0
 10
381.787296
 20
464.488548
 30
0.0
 10
381.787296
 20
463.942461
 30
0.0
  0
SPLINE
  5
24a
100
AcDbEntity
  8
0
 62
7
100
AcDbSpline
 70
8
 71
3
 72
8
 73
4
 74
0
 40
0
 40
0
 40
0
 40
0
 40
1
 40
1
 40
1
 40
1
 10
19.284251
 20
322.252427
 30
0.0
 10
18.738164
 20
322.252427
 30
0.0
 10
18.214440
 20
322.469364
 30
0.0
 10
17.828299
 20
322.855508
 30
0.0
  0
SPLINE
  5
24b
100
AcDbEntity
  8
0
 62
7
100
AcDbSpline
 70
8
 71
3
 72
8
 73
4
 74
0
 40
0
 40
0
 40
0
 40
0
 40
1
 40
1
 40
1
 40
1
 10
80.208296
 20
325.767417
 30
0.0
 10
80.594440
 20
326.153557
 30
0.0
 10
81.118162
 20
326.370484
 30
0.0
 10
81.664251
 20
326.370484
 30
0.0
  0
SPLINE
  5
24c
100
AcDbEntity
  8
0
 62
7
100
AcDbSpline
 70
8
 71
3
 72
8
 73
4
 74
0
 40
0
 40
0
 40
0
 40
0
 40
1
 40
1
 40
1
 40
1
 10
60.674252
 20
466.001486
 30
0.0
 10
61.220341
 20
466.001486
 30
0.0
 10
61.744063
 20
465.784554
 30
0.0
 10
62.130204
 20
465.398408
 30
0.0
  0
SPLINE
  5
24d
100
AcDbEntity
  8
0
 62
7
100
AcDbSpline
 70
8
 71
3
 72
8
 73
4
 74
0
 40
0
 40
0
 40
0
 40
0
 40
1
 40
1
 40
1
 40
1
 10
337.896070
 20
172.922186
 30
0.0
 10
338.150890
 20
173.177028
 30
0.0
 10
338.496541
 20
173.320191
 30
0.0
 10
338.856930
 20
173.320191
 30
0.0
  0
SPLINE
  5
24e
100
AcDbEntity
  8
0
 62
7
100
AcDbSpline
 70
8
 71
3
 72
8
 73
4
 74
0
 40
0
 40
0
 40
0
 40
0
 40
1
 40
1
 40
1
 40
1
 10
242.586988
 20
9.761156
 30
0.0
 10
243.724114
 20
9.761151
 30
0.0
 10
244.645949
 20
8.839329
 30
0.0
 10
244.645949
 20
7.702200
 30
0.0
  0
SPLINE
  5
24f
100
AcDbEntity
  8
0
 62
7
100
AcDbSpline
 70
8
 71
3
 72
8
 73
4
 74
0
 40
0
 40
0
 40
0
 40
0
 40
1
 40
1
 40
1
 40
1
 10
210.528026
 20
68.802213
 30
0.0
 10
210.528029
 20
69.939342
 30
0.0
 10
211.449856
 20
70.861163
 30
0.0
 10
212.586985
 20
70.861163
 30
0.0
  0
SPLINE
  5
250
100
AcDbEntity
  8
0
 62
7
100
AcDbSpline
 70
8
 71
3
 72
8
 73
4
 74
0
 40
0
 40
0
 40
0
 40
0
 40
1
 40
1
 40
1
 40
1
 10
79.605221
 20
324.311457
 30
0.0
 10
79.605221
 20
324.857549
 30
0.0
 10
79.822156
 20
325.381270
 30
0.0
 10
80.208296
 20
325.767417
 30
0.0
  0
SPLINE
  5
251
100
AcDbEntity
  8
0
 62
7
100
AcDbSpline
 70
8
 71
3
 72
8
 73
4
 74
0
 40
0
 40
0
 40
0
 40
0
 40
1
 40
1
 40
1
 40
1
 10
83.120203
 20
325.767417
 30
0.0
 10
83.506346
 20
325.381270
 30
0.0
 10
83.723278
 20
324.857549
 30
0.0
 10
83.723278
 20
324.311457
 30
0.0
  0
SPLINE
  5
252
100
AcDbEntity
  8
0
 62
7
100
AcDbSpline
 70
8
 71
3
 72
8
 73
4
 74
0
 40
0
 40
0
 40
0
 40
0
 40
1
 40
1
 40
1
 40
1
 10
17.828299
 20
322.855508
 30
0.0
 10
17.442158
 20
323.241646
 30
0.0
 10
17.225224
 20
323.765370
 30
0.0
 10
17.225224
 20
324.311457
 30
0.0
  0
SPLINE
  5
253
100
AcDbEntity
  8
0
 62
7
100
AcDbSpline
 70
8
 71
3
 72
8
 73
4
 74
0
 40
0
 40
0
 40
0
 40
0
 40
1
 40
1
 40
1
 40
1
 10
210.528026
 20
7.702200
 30
0.0
 10
210.528029
 20
8.839329
 30
0.0
 10
211.449856
 20
9.761151
 30
0.0
 10
212.586985
 20
9.761156
 30
0.0
  0
SPLINE
  5
254
100
AcDbEntity
  8
0
 62
7
100
AcDbSpline
 70
8
 71
3
 72
8
 73
4
 74
0
 40
0
 40
0
 40
0
 40
0
 40
1
 40
1
 40
1
 40
1
 10
240.528027
 20
7.702200
 30
0.0
 10
240.528027
 20
8.839329
 30
0.0
 10
241.449862
 20
9.761156
 30
0.0
 10
242.586988
 20
9.761156
 30
0.0
  0
SPLINE
  5
255
100
AcDbEntity
  8
0
 62
7
100
AcDbSpline
 70
8
 71
3
 72
8
 73
4
 74
0
 40
0
 40
0
 40
0
 40
0
 40
1
 40
1
 40
1
 40
1
 10
81.664251
 20
326.370484
 30
0.0
 10
82.210338
 20
326.370484
 30
0.0
 10
82.734062
 20
326.153557
 30
0.0
 10
83.120203
 20
325.767417
 30
0.0
  0
SPLINE
  5
256
100
AcDbEntity
  8
0
 62
7
100
AcDbSpline
 70
8
 71
3
 72
8
 73
4
 74
0
 40
0
 40
0
 40
0
 40
0
 40
1
 40
1
 40
1
 40
1
 10
21.343281
 20
324.311457
 30
0.0
 10
21.343281
 20
323.765370
 30
0.0
 10
21.126346
 20
323.241646
 30
0.0
 10
20.740205
 20
322.855508
 30
0.0
  0
SPLINE
  5
257
100
AcDbEntity
  8
0
 62
7
100
AcDbSpline
 70
8
 71
3
 72
8
 73
4
 74
0
 40
0
 40
0
 40
0
 40
0
 40
1
 40
1
 40
1
 40
1
 10
263.107225
 20
56.741176
 30
0.0
 10
262.852378
 20
56.996018
 30
0.0
 10
262.709212
 20
57.341651
 30
0.0
 10
262.709212
 20
57.702048
 30
0.0
  0
SPLINE
  5
258
100
AcDbEntity
  8
0
 62
7
100
AcDbSpline
 70
8
 71
3
 72
8
 73
4
 74
0
 40
0
 40
0
 40
0
 40
0
 40
1
 40
1
 40
1
 40
1
 10
378.272306
 20
465.398416
 30
0.0
 10
378.658439
 20
465.784554
 30
0.0
 10
379.182182
 20
466.001486
 30
0.0
 10
379.728256
 20
466.001486
 30
0.0
  0
SPLINE
  5
259
100
AcDbEntity
  8
0
 62
7
100
AcDbSpline
 70
8
 71
3
 72
8
 73
4
 74
0
 40
0
 40
0
 40
0
 40
0
 40
1
 40
1
 40
1
 40
1
 10
17.828299
 20
325.767411
 30
0.0
 10
18.214440
 20
326.153557
 30
0.0
 10
18.738164
 20
326.370484
 30
0.0
 10
19.284251
 20
326.370484
 30
0.0
  0
SPLINE
  5
25a
100
AcDbEntity
  8
0
 62
7
100
AcDbSpline
 70
8
 71
3
 72
8
 73
4
 74
0
 40
0
 40
0
 40
0
 40
0
 40
1
 40
1
 40
1
 40
1
 10
123.988035
 20
7.752209
 30
0.0
 10
123.988030
 20
8.298283
 30
0.0
 10
124.204951
 20
8.821994
 30
0.0
 10
124.591084
 20
9.208124
 30
0.0
  0
SPLINE
  5
25b
100
AcDbEntity
  8
0
 62
7
100
AcDbSpline
 70
8
 71
3
 72
8
 73
4
 74
0
 40
0
 40
0
 40
0
 40
0
 40
1
 40
1
 40
1
 40
1
 10
62.130204
 20
379.985510
 30
0.0
 10
61.744063
 20
379.599364
 30
0.0
 10
61.220341
 20
379.382432
 30
0.0
 10
60.674252
 20
379.382432
 30
0.0
  0
SPLINE
  5
25c
100
AcDbEntity
  8
0
 62
7
100
AcDbSpline
 70
8
 71
3
 72
8
 73
4
 74
0
 40
0
 40
0
 40
0
 40
0
 40
1
 40
1
 40
1
 40
1
 10
59.218295
 20
465.398408
 30
0.0
 10
59.604441
 20
465.784554
 30
0.0
 10
60.128162
 20
466.001486
 30
0.0
 10
60.674252
 20
466.001486
 30
0.0
  0
SPLINE
  5
25d
100
AcDbEntity
  8
0
 62
7
100
AcDbSpline
 70
8
 71
3
 72
8
 73
4
 74
0
 40
0
 40
0
 40
0
 40
0
 40
1
 40
1
 40
1
 40
1
 10
242.586988
 20
5.643245
 30
0.0
 10
241.449862
 20
5.643245
 30
0.0
 10
240.528027
 20
6.565080
 30
0.0
 10
240.528027
 20
7.702200
 30
0.0
  0
SPLINE
  5
25e
100
AcDbEntity
  8
0
 62
7
100
AcDbSpline
 70
8
 71
3
 72
8
 73
4
 74
0
 40
0
 40
0
 40
0
 40
0
 40
1
 40
1
 40
1
 40
1
 10
19.284251
 20
326.370484
 30
0.0
 10
19.830340
 20
326.370484
 30
0.0
 10
20.354062
 20
326.153557
 30
0.0
 10
20.740205
 20
325.767411
 30
0.0
  0
SPLINE
  5
25f
100
AcDbEntity
  8
0
 62
7
100
AcDbSpline
 70
8
 71
3
 72
8
 73
4
 74
0
 40
0
 40
0
 40
0
 40
0
 40
1
 40
1
 40
1
 40
1
 10
350.999771
 20
167.922228
 30
0.0
 10
351.254617
 20
167.667387
 30
0.0
 10
351.397784
 20
167.321756
 30
0.0
 10
351.397784
 20
166.961357
 30
0.0
  0
SPLINE
  5
260
100
AcDbEntity
  8
0
 62
7
100
AcDbSpline
 70
8
 71
3
 72
8
 73
4
 74
0
 40
0
 40
0
 40
0
 40
0
 40
1
 40
1
 40
1
 40
1
 10
323.088055
 20
75.752216
 30
0.0
 10
323.088055
 20
76.889345
 30
0.0
 10
324.009863
 20
77.811167
 30
0.0
 10
325.146989
 20
77.811167
 30
0.0
  0
SPLINE
  5
261
100
AcDbEntity
  8
0
 62
7
100
AcDbSpline
 70
8
 71
3
 72
8
 73
4
 74
0
 40
0
 40
0
 40
0
 40
0
 40
1
 40
1
 40
1
 40
1
 10
315.002759
 20
62.541213
 30
0.0
 10
314.747912
 20
62.286374
 30
0.0
 10
314.402287
 20
62.143208
 30
0.0
 10
314.041898
 20
62.143208
 30
0.0
  0
SPLINE
  5
262
100
AcDbEntity
  8
0
 62
7
100
AcDbSpline
 70
8
 71
3
 72
8
 73
4
 74
0
 40
0
 40
0
 40
0
 40
0
 40
1
 40
1
 40
1
 40
1
 10
314.041898
 20
64.860950
 30
0.0
 10
314.402287
 20
64.860950
 30
0.0
 10
314.747912
 20
64.717784
 30
0.0
 10
315.002759
 20
64.462948
 30
0.0
  0
SPLINE
  5
263
100
AcDbEntity
  8
0
 62
7
100
AcDbSpline
 70
8
 71
3
 72
8
 73
4
 74
0
 40
0
 40
0
 40
0
 40
0
 40
1
 40
1
 40
1
 40
1
 10
265.028973
 20
56.741176
 30
0.0
 10
264.774126
 20
56.486343
 30
0.0
 10
264.428501
 20
56.343171
 30
0.0
 10
264.068086
 20
56.343174
 30
0.0
  0
SPLINE
  5
264
100
AcDbEntity
  8
0
 62
7
100
AcDbSpline
 70
8
 71
3
 72
8
 73
4
 74
0
 40
0
 40
0
 40
0
 40
0
 40
1
 40
1
 40
1
 40
1
 10
333.056920
 20
170.576200
 30
0.0
 10
332.696531
 20
170.576200
 30
0.0
 10
332.350879
 20
170.719369
 30
0.0
 10
332.096059
 20
170.974207
 30
0.0
  0
SPLINE
  5
265
100
AcDbEntity
  8
0
 62
7
100
AcDbSpline
 70
8
 71
3
 72
8
 73
4
 74
0
 40
0
 40
0
 40
0
 40
0
 40
1
 40
1
 40
1
 40
1
 10
265.028973
 20
58.662911
 30
0.0
 10
265.283793
 20
58.408075
 30
0.0
 10
265.426959
 20
58.062439
 30
0.0
 10
265.426959
 20
57.702048
 30
0.0
  0
SPLINE
  5
266
100
AcDbEntity
  8
0
 62
7
100
AcDbSpline
 70
8
 71
3
 72
8
 73
4
 74
0
 40
0
 40
0
 40
0
 40
0
 40
1
 40
1
 40
1
 40
1
 10
348.680036
 20
166.961357
 30
0.0
 10
348.680036
 20
167.321756
 30
0.0
 10
348.823202
 20
167.667387
 30
0.0
 10
349.078049
 20
167.922228
 30
0.0
  0
SPLINE
  5
267
100
AcDbEntity
  8
0
 62
7
100
AcDbSpline
 70
8
 71
3
 72
8
 73
4
 74
0
 40
0
 40
0
 40
0
 40
0
 40
1
 40
1
 40
1
 40
1
 10
338.856930
 20
173.320191
 30
0.0
 10
339.217319
 20
173.320191
 30
0.0
 10
339.562945
 20
173.177028
 30
0.0
 10
339.817791
 20
172.922186
 30
0.0
  0
SPLINE
  5
268
100
AcDbEntity
  8
0
 62
7
100
AcDbSpline
 70
8
 71
3
 72
8
 73
4
 74
0
 40
0
 40
0
 40
0
 40
0
 40
1
 40
1
 40
1
 40
1
 10
349.078049
 20
167.922228
 30
0.0
 10
349.332869
 20
168.177062
 30
0.0
 10
349.678521
 20
168.320230
 30
0.0
 10
350.038910
 20
168.320230
 30
0.0
  0
SPLINE
  5
269
100
AcDbEntity
  8
0
 62
7
100
AcDbSpline
 70
8
 71
3
 72
8
 73
4
 74
0
 40
0
 40
0
 40
0
 40
0
 40
1
 40
1
 40
1
 40
1
 10
339.817791
 20
172.922186
 30
0.0
 10
340.072638
 20
172.667348
 30
0.0
 10
340.215804
 20
172.321717
 30
0.0
 10
340.215804
 20
171.961320
 30
0.0
  0
SPLINE
  5
26a
100
AcDbEntity
  8
0
 62
7
100
AcDbSpline
 70
8
 71
3
 72
8
 73
4
 74
0
 40
0
 40
0
 40
0
 40
0
 40
1
 40
1
 40
1
 40
1
 10
349.078049
 20
166.000493
 30
0.0
 10
348.823202
 20
166.255327
 30
0.0
 10
348.680036
 20
166.600962
 30
0.0
 10
348.680036
 20
166.961357
 30
0.0
  0
SPLINE
  5
26b
100
AcDbEntity
  8
0
 62
7
100
AcDbSpline
 70
8
 71
3
 72
8
 73
4
 74
0
 40
0
 40
0
 40
0
 40
0
 40
1
 40
1
 40
1
 40
1
 10
314.068144
 20
56.343203
 30
0.0
 10
313.707729
 20
56.343203
 30
0.0
 10
313.362104
 20
56.486369
 30
0.0
 10
313.107257
 20
56.741205
 30
0.0
  0
SPLINE
  5
26c
100
AcDbEntity
  8
0
 62
7
100
AcDbSpline
 70
8
 71
3
 72
8
 73
4
 74
0
 40
0
 40
0
 40
0
 40
0
 40
1
 40
1
 40
1
 40
1
 10
265.426959
 20
57.702048
 30
0.0
 10
265.426959
 20
57.341651
 30
0.0
 10
265.283793
 20
56.996018
 30
0.0
 10
265.028973
 20
56.741176
 30
0.0
  0
SPLINE
  5
26d
100
AcDbEntity
  8
0
 62
7
100
AcDbSpline
 70
8
 71
3
 72
8
 73
4
 74
0
 40
0
 40
0
 40
0
 40
0
 40
1
 40
1
 40
1
 40
1
 10
263.107225
 20
58.662911
 30
0.0
 10
263.362071
 20
58.917747
 30
0.0
 10
263.707697
 20
59.060918
 30
0.0
 10
264.068086
 20
59.060918
 30
0.0
  0
SPLINE
  5
26e
100
AcDbEntity
  8
0
 62
7
100
AcDbSpline
 70
8
 71
3
 72
8
 73
4
 74
0
 40
0
 40
0
 40
0
 40
0
 40
1
 40
1
 40
1
 40
1
 10
315.002759
 20
64.462948
 30
0.0
 10
315.257605
 20
64.208107
 30
0.0
 10
315.400771
 20
63.862476
 30
0.0
 10
315.400771
 20
63.502077
 30
0.0
  0
SPLINE
  5
26f
100
AcDbEntity
  8
0
 62
7
100
AcDbSpline
 70
8
 71
3
 72
8
 73
4
 74
0
 40
0
 40
0
 40
0
 40
0
 40
1
 40
1
 40
1
 40
1
 10
265.002726
 20
64.462916
 30
0.0
 10
265.257546
 20
64.208078
 30
0.0
 10
265.400712
 20
63.862444
 30
0.0
 10
265.400712
 20
63.502050
 30
0.0
  0
SPLINE
  5
270
100
AcDbEntity
  8
0
 62
7
100
AcDbSpline
 70
8
 71
3
 72
8
 73
4
 74
0
 40
0
 40
0
 40
0
 40
0
 40
1
 40
1
 40
1
 40
1
 10
263.080978
 20
64.462916
 30
0.0
 10
263.335825
 20
64.717758
 30
0.0
 10
263.681450
 20
64.860921
 30
0.0
 10
264.041839
 20
64.860921
 30
0.0
  0
SPLINE
  5
271
100
AcDbEntity
  8
0
 62
7
100
AcDbSpline
 70
8
 71
3
 72
8
 73
4
 74
0
 40
0
 40
0
 40
0
 40
0
 40
1
 40
1
 40
1
 40
1
 10
264.041839
 20
64.860921
 30
0.0
 10
264.402254
 20
64.860921
 30
0.0
 10
264.747880
 20
64.717758
 30
0.0
 10
265.002726
 20
64.462916
 30
0.0
  0
SPLINE
  5
272
100
AcDbEntity
  8
0
 62
7
100
AcDbSpline
 70
8
 71
3
 72
8
 73
4
 74
0
 40
0
 40
0
 40
0
 40
0
 40
1
 40
1
 40
1
 40
1
 10
334.017781
 20
170.974207
 30
0.0
 10
333.762960
 20
170.719369
 30
0.0
 10
333.417309
 20
170.576200
 30
0.0
 10
333.056920
 20
170.576200
 30
0.0
  0
SPLINE
  5
273
100
AcDbEntity
  8
0
 62
7
100
AcDbSpline
 70
8
 71
3
 72
8
 73
4
 74
0
 40
0
 40
0
 40
0
 40
0
 40
1
 40
1
 40
1
 40
1
 10
315.400771
 20
63.502077
 30
0.0
 10
315.400771
 20
63.141682
 30
0.0
 10
315.257605
 20
62.796047
 30
0.0
 10
315.002759
 20
62.541213
 30
0.0
  0
SPLINE
  5
274
100
AcDbEntity
  8
0
 62
7
100
AcDbSpline
 70
8
 71
3
 72
8
 73
4
 74
0
 40
0
 40
0
 40
0
 40
0
 40
1
 40
1
 40
1
 40
1
 10
262.682965
 20
63.502050
 30
0.0
 10
262.682965
 20
63.862444
 30
0.0
 10
262.826131
 20
64.208078
 30
0.0
 10
263.080978
 20
64.462916
 30
0.0
  0
SPLINE
  5
275
100
AcDbEntity
  8
0
 62
7
100
AcDbSpline
 70
8
 71
3
 72
8
 73
4
 74
0
 40
0
 40
0
 40
0
 40
0
 40
1
 40
1
 40
1
 40
1
 10
297.105971
 20
75.752216
 30
0.0
 10
297.105971
 20
75.206137
 30
0.0
 10
296.889040
 20
74.682426
 30
0.0
 10
296.502907
 20
74.296294
 30
0.0
  0
SPLINE
  5
276
100
AcDbEntity
  8
0
 62
7
100
AcDbSpline
 70
8
 71
3
 72
8
 73
4
 74
0
 40
0
 40
0
 40
0
 40
0
 40
1
 40
1
 40
1
 40
1
 10
345.199760
 20
167.895981
 30
0.0
 10
345.454607
 20
167.641143
 30
0.0
 10
345.597773
 20
167.295510
 30
0.0
 10
345.597773
 20
166.935110
 30
0.0
  0
SPLINE
  5
277
100
AcDbEntity
  8
0
 62
7
100
AcDbSpline
 70
8
 71
3
 72
8
 73
4
 74
0
 40
0
 40
0
 40
0
 40
0
 40
1
 40
1
 40
1
 40
1
 10
264.041839
 20
62.143177
 30
0.0
 10
263.681450
 20
62.143177
 30
0.0
 10
263.335825
 20
62.286340
 30
0.0
 10
263.080978
 20
62.541184
 30
0.0
  0
SPLINE
  5
278
100
AcDbEntity
  8
0
 62
7
100
AcDbSpline
 70
8
 71
3
 72
8
 73
4
 74
0
 40
0
 40
0
 40
0
 40
0
 40
1
 40
1
 40
1
 40
1
 10
313.107257
 20
58.662940
 30
0.0
 10
313.362104
 20
58.917782
 30
0.0
 10
313.707729
 20
59.060945
 30
0.0
 10
314.068144
 20
59.060945
 30
0.0
  0
SPLINE
  5
279
100
AcDbEntity
  8
0
 62
7
100
AcDbSpline
 70
8
 71
3
 72
8
 73
4
 74
0
 40
0
 40
0
 40
0
 40
0
 40
1
 40
1
 40
1
 40
1
 10
315.029005
 20
58.662940
 30
0.0
 10
315.283852
 20
58.408101
 30
0.0
 10
315.427018
 20
58.062468
 30
0.0
 10
315.427018
 20
57.702071
 30
0.0
  0
SPLINE
  5
27a
100
AcDbEntity
  8
0
 62
7
100
AcDbSpline
 70
8
 71
3
 72
8
 73
4
 74
0
 40
0
 40
0
 40
0
 40
0
 40
1
 40
1
 40
1
 40
1
 10
264.068086
 20
59.060918
 30
0.0
 10
264.428501
 20
59.060918
 30
0.0
 10
264.774126
 20
58.917747
 30
0.0
 10
265.028973
 20
58.662911
 30
0.0
  0
SPLINE
  5
27b
100
AcDbEntity
  8
0
 62
7
100
AcDbSpline
 70
8
 71
3
 72
8
 73
4
 74
0
 40
0
 40
0
 40
0
 40
0
 40
1
 40
1
 40
1
 40
1
 10
265.002726
 20
62.541184
 30
0.0
 10
264.747880
 20
62.286340
 30
0.0
 10
264.402254
 20
62.143177
 30
0.0
 10
264.041839
 20
62.143177
 30
0.0
  0
SPLINE
  5
27c
100
AcDbEntity
  8
0
 62
7
100
AcDbSpline
 70
8
 71
3
 72
8
 73
4
 74
0
 40
0
 40
0
 40
0
 40
0
 40
1
 40
1
 40
1
 40
1
 10
332.096059
 20
249.449254
 30
0.0
 10
331.841212
 20
249.704092
 30
0.0
 10
331.698046
 20
250.049727
 30
0.0
 10
331.698046
 20
250.410122
 30
0.0
  0
SPLINE
  5
27d
100
AcDbEntity
  8
0
 62
7
100
AcDbSpline
 70
8
 71
3
 72
8
 73
4
 74
0
 40
0
 40
0
 40
0
 40
0
 40
1
 40
1
 40
1
 40
1
 10
345.597773
 20
166.935110
 30
0.0
 10
345.597773
 20
166.574713
 30
0.0
 10
345.454607
 20
166.229083
 30
0.0
 10
345.199760
 20
165.974244
 30
0.0
  0
SPLINE
  5
27e
100
AcDbEntity
  8
0
 62
7
100
AcDbSpline
 70
8
 71
3
 72
8
 73
4
 74
0
 40
0
 40
0
 40
0
 40
0
 40
1
 40
1
 40
1
 40
1
 10
314.041898
 20
62.143208
 30
0.0
 10
313.681482
 20
62.143208
 30
0.0
 10
313.335857
 20
62.286374
 30
0.0
 10
313.081010
 20
62.541213
 30
0.0
  0
SPLINE
  5
27f
100
AcDbEntity
  8
0
 62
7
100
AcDbSpline
 70
8
 71
3
 72
8
 73
4
 74
0
 40
0
 40
0
 40
0
 40
0
 40
1
 40
1
 40
1
 40
1
 10
264.068086
 20
56.343174
 30
0.0
 10
263.707697
 20
56.343171
 30
0.0
 10
263.362071
 20
56.486343
 30
0.0
 10
263.107225
 20
56.741176
 30
0.0
  0
SPLINE
  5
280
100
AcDbEntity
  8
0
 62
7
100
AcDbSpline
 70
8
 71
3
 72
8
 73
4
 74
0
 40
0
 40
0
 40
0
 40
0
 40
1
 40
1
 40
1
 40
1
 10
263.080978
 20
62.541184
 30
0.0
 10
262.826131
 20
62.796020
 30
0.0
 10
262.682965
 20
63.141653
 30
0.0
 10
262.682965
 20
63.502050
 30
0.0
  0
SPLINE
  5
281
100
AcDbEntity
  8
0
 62
7
100
AcDbSpline
 70
8
 71
3
 72
8
 73
4
 74
0
 40
0
 40
0
 40
0
 40
0
 40
1
 40
1
 40
1
 40
1
 10
323.691093
 20
74.296301
 30
0.0
 10
323.304960
 20
74.682434
 30
0.0
 10
323.088028
 20
75.206140
 30
0.0
 10
323.088055
 20
75.752216
 30
0.0
  0
SPLINE
  5
282
100
AcDbEntity
  8
0
 62
7
100
AcDbSpline
 70
8
 71
3
 72
8
 73
4
 74
0
 40
0
 40
0
 40
0
 40
0
 40
1
 40
1
 40
1
 40
1
 10
312.709271
 20
57.702071
 30
0.0
 10
312.709271
 20
58.062468
 30
0.0
 10
312.852437
 20
58.408101
 30
0.0
 10
313.107257
 20
58.662940
 30
0.0
  0
SPLINE
  5
283
100
AcDbEntity
  8
0
 62
7
100
AcDbSpline
 70
8
 71
3
 72
8
 73
4
 74
0
 40
0
 40
0
 40
0
 40
0
 40
1
 40
1
 40
1
 40
1
 10
332.096059
 20
172.895937
 30
0.0
 10
332.350879
 20
173.150778
 30
0.0
 10
332.696531
 20
173.293947
 30
0.0
 10
333.056920
 20
173.293947
 30
0.0
  0
SPLINE
  5
284
100
AcDbEntity
  8
0
 62
7
100
AcDbSpline
 70
8
 71
3
 72
8
 73
4
 74
0
 40
0
 40
0
 40
0
 40
0
 40
1
 40
1
 40
1
 40
1
 10
315.427018
 20
57.702071
 30
0.0
 10
315.427018
 20
57.341677
 30
0.0
 10
315.283852
 20
56.996044
 30
0.0
 10
315.029005
 20
56.741205
 30
0.0
  0
SPLINE
  5
285
100
AcDbEntity
  8
0
 62
7
100
AcDbSpline
 70
8
 71
3
 72
8
 73
4
 74
0
 40
0
 40
0
 40
0
 40
0
 40
1
 40
1
 40
1
 40
1
 10
315.029005
 20
56.741205
 30
0.0
 10
314.774159
 20
56.486369
 30
0.0
 10
314.428533
 20
56.343203
 30
0.0
 10
314.068144
 20
56.343203
 30
0.0
  0
SPLINE
  5
286
100
AcDbEntity
  8
0
 62
7
100
AcDbSpline
 70
8
 71
3
 72
8
 73
4
 74
0
 40
0
 40
0
 40
0
 40
0
 40
1
 40
1
 40
1
 40
1
 10
332.096059
 20
170.974207
 30
0.0
 10
331.841212
 20
171.229046
 30
0.0
 10
331.698046
 20
171.574677
 30
0.0
 10
331.698046
 20
171.935076
 30
0.0
  0
SPLINE
  5
287
100
AcDbEntity
  8
0
 62
7
100
AcDbSpline
 70
8
 71
3
 72
8
 73
4
 74
0
 40
0
 40
0
 40
0
 40
0
 40
1
 40
1
 40
1
 40
1
 10
325.146989
 20
77.811167
 30
0.0
 10
326.284116
 20
77.811167
 30
0.0
 10
327.205950
 20
76.889345
 30
0.0
 10
327.205950
 20
75.752216
 30
0.0
  0
SPLINE
  5
288
100
AcDbEntity
  8
0
 62
7
100
AcDbSpline
 70
8
 71
3
 72
8
 73
4
 74
0
 40
0
 40
0
 40
0
 40
0
 40
1
 40
1
 40
1
 40
1
 10
314.068144
 20
59.060945
 30
0.0
 10
314.428533
 20
59.060945
 30
0.0
 10
314.774159
 20
58.917782
 30
0.0
 10
315.029005
 20
58.662940
 30
0.0
  0
SPLINE
  5
289
100
AcDbEntity
  8
0
 62
7
100
AcDbSpline
 70
8
 71
3
 72
8
 73
4
 74
0
 40
0
 40
0
 40
0
 40
0
 40
1
 40
1
 40
1
 40
1
 10
262.709212
 20
57.702048
 30
0.0
 10
262.709212
 20
58.062439
 30
0.0
 10
262.852378
 20
58.408075
 30
0.0
 10
263.107225
 20
58.662911
 30
0.0
  0
SPLINE
  5
28a
100
AcDbEntity
  8
0
 62
7
100
AcDbSpline
 70
8
 71
3
 72
8
 73
4
 74
0
 40
0
 40
0
 40
0
 40
0
 40
1
 40
1
 40
1
 40
1
 10
313.081010
 20
64.462948
 30
0.0
 10
313.335857
 20
64.717784
 30
0.0
 10
313.681482
 20
64.860950
 30
0.0
 10
314.041898
 20
64.860950
 30
0.0
  0
SPLINE
  5
28b
100
AcDbEntity
  8
0
 62
7
100
AcDbSpline
 70
8
 71
3
 72
8
 73
4
 74
0
 40
0
 40
0
 40
0
 40
0
 40
1
 40
1
 40
1
 40
1
 10
327.205950
 20
75.752216
 30
0.0
 10
327.205950
 20
75.206140
 30
0.0
 10
326.989019
 20
74.682434
 30
0.0
 10
326.602912
 20
74.296301
 30
0.0
  0
SPLINE
  5
28c
100
AcDbEntity
  8
0
 62
7
100
AcDbSpline
 70
8
 71
3
 72
8
 73
4
 74
0
 40
0
 40
0
 40
0
 40
0
 40
1
 40
1
 40
1
 40
1
 10
325.146989
 20
73.693237
 30
0.0
 10
324.600916
 20
73.693237
 30
0.0
 10
324.077226
 20
73.910169
 30
0.0
 10
323.691093
 20
74.296301
 30
0.0
  0
SPLINE
  5
28d
100
AcDbEntity
  8
0
 62
7
100
AcDbSpline
 70
8
 71
3
 72
8
 73
4
 74
0
 40
0
 40
0
 40
0
 40
0
 40
1
 40
1
 40
1
 40
1
 10
295.046984
 20
73.693237
 30
0.0
 10
294.500910
 20
73.693237
 30
0.0
 10
293.977194
 20
73.910169
 30
0.0
 10
293.591061
 20
74.296301
 30
0.0
  0
SPLINE
  5
28e
100
AcDbEntity
  8
0
 62
7
100
AcDbSpline
 70
8
 71
3
 72
8
 73
4
 74
0
 40
0
 40
0
 40
0
 40
0
 40
1
 40
1
 40
1
 40
1
 10
350.038910
 20
168.320230
 30
0.0
 10
350.399299
 20
168.320230
 30
0.0
 10
350.744951
 20
168.177062
 30
0.0
 10
350.999771
 20
167.922228
 30
0.0
  0
SPLINE
  5
28f
100
AcDbEntity
  8
0
 62
7
100
AcDbSpline
 70
8
 71
3
 72
8
 73
4
 74
0
 40
0
 40
0
 40
0
 40
0
 40
1
 40
1
 40
1
 40
1
 10
351.397784
 20
166.961357
 30
0.0
 10
351.397784
 20
166.600962
 30
0.0
 10
351.254617
 20
166.255327
 30
0.0
 10
350.999771
 20
166.000493
 30
0.0
  0
SPLINE
  5
290
100
AcDbEntity
  8
0
 62
7
100
AcDbSpline
 70
8
 71
3
 72
8
 73
4
 74
0
 40
0
 40
0
 40
0
 40
0
 40
1
 40
1
 40
1
 40
1
 10
350.999771
 20
166.000493
 30
0.0
 10
350.744951
 20
165.745654
 30
0.0
 10
350.399299
 20
165.602488
 30
0.0
 10
350.038910
 20
165.602488
 30
0.0
  0
SPLINE
  5
291
100
AcDbEntity
  8
0
 62
7
100
AcDbSpline
 70
8
 71
3
 72
8
 73
4
 74
0
 40
0
 40
0
 40
0
 40
0
 40
1
 40
1
 40
1
 40
1
 10
331.698046
 20
250.410122
 30
0.0
 10
331.698046
 20
251.160605
 30
0.0
 10
332.306429
 20
251.768991
 30
0.0
 10
333.056920
 20
251.768991
 30
0.0
  0
SPLINE
  5
292
100
AcDbEntity
  8
0
 62
7
100
AcDbSpline
 70
8
 71
3
 72
8
 73
4
 74
0
 40
0
 40
0
 40
0
 40
0
 40
1
 40
1
 40
1
 40
1
 10
342.880026
 20
166.935110
 30
0.0
 10
342.880026
 20
167.295510
 30
0.0
 10
343.023192
 20
167.641143
 30
0.0
 10
343.278039
 20
167.895981
 30
0.0
  0
SPLINE
  5
293
100
AcDbEntity
  8
0
 62
7
100
AcDbSpline
 70
8
 71
3
 72
8
 73
4
 74
0
 40
0
 40
0
 40
0
 40
0
 40
1
 40
1
 40
1
 40
1
 10
343.278039
 20
167.895981
 30
0.0
 10
343.532885
 20
168.150820
 30
0.0
 10
343.878510
 20
168.293984
 30
0.0
 10
344.238899
 20
168.293984
 30
0.0
  0
SPLINE
  5
294
100
AcDbEntity
  8
0
 62
7
100
AcDbSpline
 70
8
 71
3
 72
8
 73
4
 74
0
 40
0
 40
0
 40
0
 40
0
 40
1
 40
1
 40
1
 40
1
 10
265.400712
 20
63.502050
 30
0.0
 10
265.400712
 20
63.141653
 30
0.0
 10
265.257546
 20
62.796020
 30
0.0
 10
265.002726
 20
62.541184
 30
0.0
  0
SPLINE
  5
295
100
AcDbEntity
  8
0
 62
7
100
AcDbSpline
 70
8
 71
3
 72
8
 73
4
 74
0
 40
0
 40
0
 40
0
 40
0
 40
1
 40
1
 40
1
 40
1
 10
326.602912
 20
74.296301
 30
0.0
 10
326.216779
 20
73.910169
 30
0.0
 10
325.693063
 20
73.693237
 30
0.0
 10
325.146989
 20
73.693237
 30
0.0
  0
SPLINE
  5
296
100
AcDbEntity
  8
0
 62
7
100
AcDbSpline
 70
8
 71
3
 72
8
 73
4
 74
0
 40
0
 40
0
 40
0
 40
0
 40
1
 40
1
 40
1
 40
1
 10
313.107257
 20
56.741205
 30
0.0
 10
312.852437
 20
56.996044
 30
0.0
 10
312.709271
 20
57.341677
 30
0.0
 10
312.709271
 20
57.702071
 30
0.0
  0
SPLINE
  5
297
100
AcDbEntity
  8
0
 62
7
100
AcDbSpline
 70
8
 71
3
 72
8
 73
4
 74
0
 40
0
 40
0
 40
0
 40
0
 40
1
 40
1
 40
1
 40
1
 10
350.999771
 20
325.144214
 30
0.0
 10
351.254617
 20
324.889373
 30
0.0
 10
351.397784
 20
324.543743
 30
0.0
 10
351.397784
 20
324.183343
 30
0.0
  0
SPLINE
  5
298
100
AcDbEntity
  8
0
 62
7
100
AcDbSpline
 70
8
 71
3
 72
8
 73
4
 74
0
 40
0
 40
0
 40
0
 40
0
 40
1
 40
1
 40
1
 40
1
 10
344.238899
 20
322.798262
 30
0.0
 10
343.878510
 20
322.798262
 30
0.0
 10
343.532885
 20
322.941428
 30
0.0
 10
343.278039
 20
323.196262
 30
0.0
  0
SPLINE
  5
299
100
AcDbEntity
  8
0
 62
7
100
AcDbSpline
 70
8
 71
3
 72
8
 73
4
 74
0
 40
0
 40
0
 40
0
 40
0
 40
1
 40
1
 40
1
 40
1
 10
339.817791
 20
328.222469
 30
0.0
 10
339.562945
 20
327.967628
 30
0.0
 10
339.217319
 20
327.824462
 30
0.0
 10
338.856930
 20
327.824462
 30
0.0
  0
SPLINE
  5
29a
100
AcDbEntity
  8
0
 62
7
100
AcDbSpline
 70
8
 71
3
 72
8
 73
4
 74
0
 40
0
 40
0
 40
0
 40
0
 40
1
 40
1
 40
1
 40
1
 10
338.856930
 20
330.542209
 30
0.0
 10
339.217319
 20
330.542209
 30
0.0
 10
339.562945
 20
330.399043
 30
0.0
 10
339.817791
 20
330.144204
 30
0.0
  0
SPLINE
  5
29b
100
AcDbEntity
  8
0
 62
7
100
AcDbSpline
 70
8
 71
3
 72
8
 73
4
 74
0
 40
0
 40
0
 40
0
 40
0
 40
1
 40
1
 40
1
 40
1
 10
337.896070
 20
171.000454
 30
0.0
 10
337.641223
 20
171.255290
 30
0.0
 10
337.498057
 20
171.600923
 30
0.0
 10
337.498057
 20
171.961320
 30
0.0
  0
SPLINE
  5
29c
100
AcDbEntity
  8
0
 62
7
100
AcDbSpline
 70
8
 71
3
 72
8
 73
4
 74
0
 40
0
 40
0
 40
0
 40
0
 40
1
 40
1
 40
1
 40
1
 10
351.397784
 20
324.183343
 30
0.0
 10
351.397784
 20
323.822951
 30
0.0
 10
351.254617
 20
323.477318
 30
0.0
 10
350.999771
 20
323.222479
 30
0.0
  0
SPLINE
  5
29d
100
AcDbEntity
  8
0
 62
7
100
AcDbSpline
 70
8
 71
3
 72
8
 73
4
 74
0
 40
0
 40
0
 40
0
 40
0
 40
1
 40
1
 40
1
 40
1
 10
337.498057
 20
329.183333
 30
0.0
 10
337.498057
 20
329.543730
 30
0.0
 10
337.641223
 20
329.889363
 30
0.0
 10
337.896070
 20
330.144204
 30
0.0
  0
SPLINE
  5
29e
100
AcDbEntity
  8
0
 62
7
100
AcDbSpline
 70
8
 71
3
 72
8
 73
4
 74
0
 40
0
 40
0
 40
0
 40
0
 40
1
 40
1
 40
1
 40
1
 10
338.856930
 20
327.824462
 30
0.0
 10
338.496541
 20
327.824462
 30
0.0
 10
338.150890
 20
327.967628
 30
0.0
 10
337.896070
 20
328.222469
 30
0.0
  0
SPLINE
  5
29f
100
AcDbEntity
  8
0
 62
7
100
AcDbSpline
 70
8
 71
3
 72
8
 73
4
 74
0
 40
0
 40
0
 40
0
 40
0
 40
1
 40
1
 40
1
 40
1
 10
350.038910
 20
165.602488
 30
0.0
 10
349.678521
 20
165.602488
 30
0.0
 10
349.332869
 20
165.745654
 30
0.0
 10
349.078049
 20
166.000493
 30
0.0
  0
SPLINE
  5
2a0
100
AcDbEntity
  8
0
 62
7
100
AcDbSpline
 70
8
 71
3
 72
8
 73
4
 74
0
 40
0
 40
0
 40
0
 40
0
 40
1
 40
1
 40
1
 40
1
 10
334.017781
 20
92.499188
 30
0.0
 10
333.762960
 20
92.244346
 30
0.0
 10
333.417309
 20
92.101180
 30
0.0
 10
333.056920
 20
92.101180
 30
0.0
  0
SPLINE
  5
2a1
100
AcDbEntity
  8
0
 62
7
100
AcDbSpline
 70
8
 71
3
 72
8
 73
4
 74
0
 40
0
 40
0
 40
0
 40
0
 40
1
 40
1
 40
1
 40
1
 10
349.078049
 20
323.222479
 30
0.0
 10
348.823202
 20
323.477318
 30
0.0
 10
348.680036
 20
323.822951
 30
0.0
 10
348.680036
 20
324.183343
 30
0.0
  0
SPLINE
  5
2a2
100
AcDbEntity
  8
0
 62
7
100
AcDbSpline
 70
8
 71
3
 72
8
 73
4
 74
0
 40
0
 40
0
 40
0
 40
0
 40
1
 40
1
 40
1
 40
1
 10
345.199760
 20
165.974244
 30
0.0
 10
344.944940
 20
165.719405
 30
0.0
 10
344.599288
 20
165.576239
 30
0.0
 10
344.238899
 20
165.576239
 30
0.0
  0
SPLINE
  5
2a3
100
AcDbEntity
  8
0
 62
7
100
AcDbSpline
 70
8
 71
3
 72
8
 73
4
 74
0
 40
0
 40
0
 40
0
 40
0
 40
1
 40
1
 40
1
 40
1
 10
350.038910
 20
322.824472
 30
0.0
 10
349.678521
 20
322.824472
 30
0.0
 10
349.332869
 20
322.967638
 30
0.0
 10
349.078049
 20
323.222479
 30
0.0
  0
SPLINE
  5
2a4
100
AcDbEntity
  8
0
 62
7
100
AcDbSpline
 70
8
 71
3
 72
8
 73
4
 74
0
 40
0
 40
0
 40
0
 40
0
 40
1
 40
1
 40
1
 40
1
 10
345.597773
 20
324.157128
 30
0.0
 10
345.597773
 20
323.796736
 30
0.0
 10
345.454607
 20
323.451098
 30
0.0
 10
345.199760
 20
323.196262
 30
0.0
  0
SPLINE
  5
2a5
100
AcDbEntity
  8
0
 62
7
100
AcDbSpline
 70
8
 71
3
 72
8
 73
4
 74
0
 40
0
 40
0
 40
0
 40
0
 40
1
 40
1
 40
1
 40
1
 10
332.096059
 20
94.420920
 30
0.0
 10
332.350879
 20
94.675756
 30
0.0
 10
332.696531
 20
94.818925
 30
0.0
 10
333.056920
 20
94.818925
 30
0.0
  0
SPLINE
  5
2a6
100
AcDbEntity
  8
0
 62
7
100
AcDbSpline
 70
8
 71
3
 72
8
 73
4
 74
0
 40
0
 40
0
 40
0
 40
0
 40
1
 40
1
 40
1
 40
1
 10
331.698046
 20
93.460051
 30
0.0
 10
331.698046
 20
93.820448
 30
0.0
 10
331.841212
 20
94.166081
 30
0.0
 10
332.096059
 20
94.420920
 30
0.0
  0
SPLINE
  5
2a7
100
AcDbEntity
  8
0
 62
7
100
AcDbSpline
 70
8
 71
3
 72
8
 73
4
 74
0
 40
0
 40
0
 40
0
 40
0
 40
1
 40
1
 40
1
 40
1
 10
333.056920
 20
92.101180
 30
0.0
 10
332.696531
 20
92.101180
 30
0.0
 10
332.350879
 20
92.244346
 30
0.0
 10
332.096059
 20
92.499188
 30
0.0
  0
SPLINE
  5
2a8
100
AcDbEntity
  8
0
 62
7
100
AcDbSpline
 70
8
 71
3
 72
8
 73
4
 74
0
 40
0
 40
0
 40
0
 40
0
 40
1
 40
1
 40
1
 40
1
 10
345.199760
 20
323.196262
 30
0.0
 10
344.944940
 20
322.941428
 30
0.0
 10
344.599288
 20
322.798262
 30
0.0
 10
344.238899
 20
322.798262
 30
0.0
  0
SPLINE
  5
2a9
100
AcDbEntity
  8
0
 62
7
100
AcDbSpline
 70
8
 71
3
 72
8
 73
4
 74
0
 40
0
 40
0
 40
0
 40
0
 40
1
 40
1
 40
1
 40
1
 10
342.880026
 20
324.157128
 30
0.0
 10
342.880026
 20
324.907613
 30
0.0
 10
343.488409
 20
325.515999
 30
0.0
 10
344.238899
 20
325.515999
 30
0.0
  0
SPLINE
  5
2aa
100
AcDbEntity
  8
0
 62
7
100
AcDbSpline
 70
8
 71
3
 72
8
 73
4
 74
0
 40
0
 40
0
 40
0
 40
0
 40
1
 40
1
 40
1
 40
1
 10
349.078049
 20
325.144214
 30
0.0
 10
349.332869
 20
325.399053
 30
0.0
 10
349.678521
 20
325.542219
 30
0.0
 10
350.038910
 20
325.542219
 30
0.0
  0
SPLINE
  5
2ab
100
AcDbEntity
  8
0
 62
7
100
AcDbSpline
 70
8
 71
3
 72
8
 73
4
 74
0
 40
0
 40
0
 40
0
 40
0
 40
1
 40
1
 40
1
 40
1
 10
343.278039
 20
323.196262
 30
0.0
 10
343.023192
 20
323.451098
 30
0.0
 10
342.880026
 20
323.796736
 30
0.0
 10
342.880026
 20
324.157128
 30
0.0
  0
SPLINE
  5
2ac
100
AcDbEntity
  8
0
 62
7
100
AcDbSpline
 70
8
 71
3
 72
8
 73
4
 74
0
 40
0
 40
0
 40
0
 40
0
 40
1
 40
1
 40
1
 40
1
 10
340.215804
 20
329.183333
 30
0.0
 10
340.215804
 20
328.822941
 30
0.0
 10
340.072638
 20
328.477308
 30
0.0
 10
339.817791
 20
328.222469
 30
0.0
  0
SPLINE
  5
2ad
100
AcDbEntity
  8
0
 62
7
100
AcDbSpline
 70
8
 71
3
 72
8
 73
4
 74
0
 40
0
 40
0
 40
0
 40
0
 40
1
 40
1
 40
1
 40
1
 10
337.896070
 20
328.222469
 30
0.0
 10
337.641223
 20
328.477308
 30
0.0
 10
337.498057
 20
328.822941
 30
0.0
 10
337.498057
 20
329.183333
 30
0.0
  0
SPLINE
  5
2ae
100
AcDbEntity
  8
0
 62
7
100
AcDbSpline
 70
8
 71
3
 72
8
 73
4
 74
0
 40
0
 40
0
 40
0
 40
0
 40
1
 40
1
 40
1
 40
1
 10
344.238899
 20
168.293984
 30
0.0
 10
344.599288
 20
168.293984
 30
0.0
 10
344.944940
 20
168.150820
 30
0.0
 10
345.199760
 20
167.895981
 30
0.0
  0
SPLINE
  5
2af
100
AcDbEntity
  8
0
 62
7
100
AcDbSpline
 70
8
 71
3
 72
8
 73
4
 74
0
 40
0
 40
0
 40
0
 40
0
 40
1
 40
1
 40
1
 40
1
 10
334.415793
 20
93.460051
 30
0.0
 10
334.415793
 20
93.099657
 30
0.0
 10
334.272627
 20
92.754024
 30
0.0
 10
334.017781
 20
92.499188
 30
0.0
  0
SPLINE
  5
2b0
100
AcDbEntity
  8
0
 62
7
100
AcDbSpline
 70
8
 71
3
 72
8
 73
4
 74
0
 40
0
 40
0
 40
0
 40
0
 40
1
 40
1
 40
1
 40
1
 10
340.215804
 20
171.961320
 30
0.0
 10
340.215804
 20
171.600923
 30
0.0
 10
340.072638
 20
171.255290
 30
0.0
 10
339.817791
 20
171.000454
 30
0.0
  0
SPLINE
  5
2b1
100
AcDbEntity
  8
0
 62
7
100
AcDbSpline
 70
8
 71
3
 72
8
 73
4
 74
0
 40
0
 40
0
 40
0
 40
0
 40
1
 40
1
 40
1
 40
1
 10
339.817791
 20
171.000454
 30
0.0
 10
339.562945
 20
170.745613
 30
0.0
 10
339.217319
 20
170.602447
 30
0.0
 10
338.856930
 20
170.602447
 30
0.0
  0
SPLINE
  5
2b2
100
AcDbEntity
  8
0
 62
7
100
AcDbSpline
 70
8
 71
3
 72
8
 73
4
 74
0
 40
0
 40
0
 40
0
 40
0
 40
1
 40
1
 40
1
 40
1
 10
344.238899
 20
165.576239
 30
0.0
 10
343.878510
 20
165.576239
 30
0.0
 10
343.532885
 20
165.719405
 30
0.0
 10
343.278039
 20
165.974244
 30
0.0
  0
SPLINE
  5
2b3
100
AcDbEntity
  8
0
 62
7
100
AcDbSpline
 70
8
 71
3
 72
8
 73
4
 74
0
 40
0
 40
0
 40
0
 40
0
 40
1
 40
1
 40
1
 40
1
 10
334.017781
 20
94.420920
 30
0.0
 10
334.272627
 20
94.166081
 30
0.0
 10
334.415793
 20
93.820448
 30
0.0
 10
334.415793
 20
93.460051
 30
0.0
  0
SPLINE
  5
2b4
100
AcDbEntity
  8
0
 62
7
100
AcDbSpline
 70
8
 71
3
 72
8
 73
4
 74
0
 40
0
 40
0
 40
0
 40
0
 40
1
 40
1
 40
1
 40
1
 10
344.238899
 20
325.515999
 30
0.0
 10
344.989390
 20
325.515999
 30
0.0
 10
345.597773
 20
324.907613
 30
0.0
 10
345.597773
 20
324.157128
 30
0.0
  0
SPLINE
  5
2b5
100
AcDbEntity
  8
0
 62
7
100
AcDbSpline
 70
8
 71
3
 72
8
 73
4
 74
0
 40
0
 40
0
 40
0
 40
0
 40
1
 40
1
 40
1
 40
1
 10
350.999771
 20
323.222479
 30
0.0
 10
350.744951
 20
322.967638
 30
0.0
 10
350.399299
 20
322.824472
 30
0.0
 10
350.038910
 20
322.824472
 30
0.0
  0
SPLINE
  5
2b6
100
AcDbEntity
  8
0
 62
7
100
AcDbSpline
 70
8
 71
3
 72
8
 73
4
 74
0
 40
0
 40
0
 40
0
 40
0
 40
1
 40
1
 40
1
 40
1
 10
339.817791
 20
330.144204
 30
0.0
 10
340.072638
 20
329.889363
 30
0.0
 10
340.215804
 20
329.543730
 30
0.0
 10
340.215804
 20
329.183333
 30
0.0
  0
SPLINE
  5
2b7
100
AcDbEntity
  8
0
 62
7
100
AcDbSpline
 70
8
 71
3
 72
8
 73
4
 74
0
 40
0
 40
0
 40
0
 40
0
 40
1
 40
1
 40
1
 40
1
 10
348.680036
 20
324.183343
 30
0.0
 10
348.680036
 20
324.543743
 30
0.0
 10
348.823202
 20
324.889373
 30
0.0
 10
349.078049
 20
325.144214
 30
0.0
  0
SPLINE
  5
2b8
100
AcDbEntity
  8
0
 62
7
100
AcDbSpline
 70
8
 71
3
 72
8
 73
4
 74
0
 40
0
 40
0
 40
0
 40
0
 40
1
 40
1
 40
1
 40
1
 10
410.894214
 20
322.855502
 30
0.0
 10
410.508081
 20
322.469359
 30
0.0
 10
409.984365
 20
322.252427
 30
0.0
 10
409.438265
 20
322.252427
 30
0.0
  0
SPLINE
  5
2b9
100
AcDbEntity
  8
0
 62
7
100
AcDbSpline
 70
8
 71
3
 72
8
 73
4
 74
0
 40
0
 40
0
 40
0
 40
0
 40
1
 40
1
 40
1
 40
1
 10
379.728256
 20
379.382432
 30
0.0
 10
379.182182
 20
379.382432
 30
0.0
 10
378.658439
 20
379.599359
 30
0.0
 10
378.272306
 20
379.985505
 30
0.0
  0
SPLINE
  5
2ba
100
AcDbEntity
  8
0
 62
7
100
AcDbSpline
 70
8
 71
3
 72
8
 73
4
 74
0
 40
0
 40
0
 40
0
 40
0
 40
1
 40
1
 40
1
 40
1
 10
379.728256
 20
383.500489
 30
0.0
 10
380.274356
 20
383.500492
 30
0.0
 10
380.798072
 20
383.283560
 30
0.0
 10
381.184231
 20
382.897414
 30
0.0
  0
SPLINE
  5
2bb
100
AcDbEntity
  8
0
 62
7
100
AcDbSpline
 70
8
 71
3
 72
8
 73
4
 74
0
 40
0
 40
0
 40
0
 40
0
 40
1
 40
1
 40
1
 40
1
 10
60.674252
 20
383.500489
 30
0.0
 10
61.220341
 20
383.500489
 30
0.0
 10
61.744063
 20
383.283560
 30
0.0
 10
62.130204
 20
382.897414
 30
0.0
  0
SPLINE
  5
2bc
100
AcDbEntity
  8
0
 62
7
100
AcDbSpline
 70
8
 71
3
 72
8
 73
4
 74
0
 40
0
 40
0
 40
0
 40
0
 40
1
 40
1
 40
1
 40
1
 10
377.669242
 20
381.441460
 30
0.0
 10
377.669242
 20
381.987549
 30
0.0
 10
377.886174
 20
382.511273
 30
0.0
 10
378.272306
 20
382.897414
 30
0.0
  0
LWPOLYLINE
  5
2bd
100
AcDbEntity
  8
0
 62
7
100
AcDbPolyline
 90
2
 70
0
 10
25.042693
 20
482.835820
 30
0.0
 10
459.134582
 20
482.850610
 30
0.0
  0
SPLINE
  5
2be
100
AcDbEntity
  8
0
 62
7
100
AcDbSpline
 70
8
 71
3
 72
8
 73
4
 74
0
 40
0
 40
0
 40
0
 40
0
 40
1
 40
1
 40
1
 40
1
 10
378.272306
 20
382.897414
 30
0.0
 10
378.658439
 20
383.283560
 30
0.0
 10
379.182182
 20
383.500492
 30
0.0
 10
379.728256
 20
383.500489
 30
0.0
  0
SPLINE
  5
2bf
100
AcDbEntity
  8
0
 62
7
100
AcDbSpline
 70
8
 71
3
 72
8
 73
4
 74
0
 40
0
 40
0
 40
0
 40
0
 40
1
 40
1
 40
1
 40
1
 10
234.966028
 20
368.969226
 30
0.0
 10
235.220866
 20
369.224062
 30
0.0
 10
235.566500
 20
369.367231
 30
0.0
 10
235.926894
 20
369.367231
 30
0.0
  0
SPLINE
  5
2c0
100
AcDbEntity
  8
0
 62
7
100
AcDbSpline
 70
8
 71
3
 72
8
 73
4
 74
0
 40
0
 40
0
 40
0
 40
0
 40
1
 40
1
 40
1
 40
1
 10
381.184231
 20
379.985505
 30
0.0
 10
380.798072
 20
379.599359
 30
0.0
 10
380.274356
 20
379.382432
 30
0.0
 10
379.728256
 20
379.382432
 30
0.0
  0
SPLINE
  5
2c1
100
AcDbEntity
  8
0
 62
7
100
AcDbSpline
 70
8
 71
3
 72
8
 73
4
 74
0
 40
0
 40
0
 40
0
 40
0
 40
1
 40
1
 40
1
 40
1
 10
381.787296
 20
463.942461
 30
0.0
 10
381.787296
 20
463.396369
 30
0.0
 10
381.570364
 20
462.872645
 30
0.0
 10
381.184231
 20
462.486499
 30
0.0
  0
SPLINE
  5
2c2
100
AcDbEntity
  8
0
 62
7
100
AcDbSpline
 70
8
 71
3
 72
8
 73
4
 74
0
 40
0
 40
0
 40
0
 40
0
 40
1
 40
1
 40
1
 40
1
 10
381.184231
 20
382.897414
 30
0.0
 10
381.570364
 20
382.511273
 30
0.0
 10
381.787296
 20
381.987549
 30
0.0
 10
381.787296
 20
381.441460
 30
0.0
  0
SPLINE
  5
2c3
100
AcDbEntity
  8
0
 62
7
100
AcDbSpline
 70
8
 71
3
 72
8
 73
4
 74
0
 40
0
 40
0
 40
0
 40
0
 40
1
 40
1
 40
1
 40
1
 10
194.111919
 20
459.794988
 30
0.0
 10
192.974679
 20
459.795070
 30
0.0
 10
192.052831
 20
460.717053
 30
0.0
 10
192.052918
 20
461.854293
 30
0.0
  0
SPLINE
  5
2c4
100
AcDbEntity
  8
0
 62
7
100
AcDbSpline
 70
8
 71
3
 72
8
 73
4
 74
0
 40
0
 40
0
 40
0
 40
0
 40
1
 40
1
 40
1
 40
1
 10
378.272306
 20
379.985505
 30
0.0
 10
377.886174
 20
380.371646
 30
0.0
 10
377.669242
 20
380.895370
 30
0.0
 10
377.669242
 20
381.441460
 30
0.0
  0
SPLINE
  5
2c5
100
AcDbEntity
  8
0
 62
7
100
AcDbSpline
 70
8
 71
3
 72
8
 73
4
 74
0
 40
0
 40
0
 40
0
 40
0
 40
1
 40
1
 40
1
 40
1
 10
463.309205
 20
324.311457
 30
0.0
 10
463.309205
 20
324.857549
 30
0.0
 10
463.526136
 20
325.381273
 30
0.0
 10
463.912296
 20
325.767417
 30
0.0
  0
SPLINE
  5
2c6
100
AcDbEntity
  8
0
 62
7
100
AcDbSpline
 70
8
 71
3
 72
8
 73
4
 74
0
 40
0
 40
0
 40
0
 40
0
 40
1
 40
1
 40
1
 40
1
 10
463.912296
 20
325.767417
 30
0.0
 10
464.298429
 20
326.153557
 30
0.0
 10
464.822171
 20
326.370489
 30
0.0
 10
465.368245
 20
326.370484
 30
0.0
  0
SPLINE
  5
2c7
100
AcDbEntity
  8
0
 62
7
100
AcDbSpline
 70
8
 71
3
 72
8
 73
4
 74
0
 40
0
 40
0
 40
0
 40
0
 40
1
 40
1
 40
1
 40
1
 10
407.982316
 20
325.767417
 30
0.0
 10
408.368449
 20
326.153557
 30
0.0
 10
408.892192
 20
326.370489
 30
0.0
 10
409.438265
 20
326.370484
 30
0.0
  0
SPLINE
  5
2c8
100
AcDbEntity
  8
0
 62
7
100
AcDbSpline
 70
8
 71
3
 72
8
 73
4
 74
0
 40
0
 40
0
 40
0
 40
0
 40
1
 40
1
 40
1
 40
1
 10
225.709757
 20
373.942996
 30
0.0
 10
225.964590
 20
373.688160
 30
0.0
 10
226.107756
 20
373.342524
 30
0.0
 10
226.107756
 20
372.982133
 30
0.0
  0
SPLINE
  5
2c9
100
AcDbEntity
  8
0
 62
7
100
AcDbSpline
 70
8
 71
3
 72
8
 73
4
 74
0
 40
0
 40
0
 40
0
 40
0
 40
1
 40
1
 40
1
 40
1
 10
223.390020
 20
372.982133
 30
0.0
 10
223.390020
 20
373.732615
 30
0.0
 10
223.998406
 20
374.341003
 30
0.0
 10
224.748888
 20
374.341003
 30
0.0
  0
SPLINE
  5
2ca
100
AcDbEntity
  8
0
 62
7
100
AcDbSpline
 70
8
 71
3
 72
8
 73
4
 74
0
 40
0
 40
0
 40
0
 40
0
 40
1
 40
1
 40
1
 40
1
 10
349.078049
 20
244.475481
 30
0.0
 10
348.823202
 20
244.730320
 30
0.0
 10
348.680036
 20
245.075953
 30
0.0
 10
348.680036
 20
245.436347
 30
0.0
  0
SPLINE
  5
2cb
100
AcDbEntity
  8
0
 62
7
100
AcDbSpline
 70
8
 71
3
 72
8
 73
4
 74
0
 40
0
 40
0
 40
0
 40
0
 40
1
 40
1
 40
1
 40
1
 10
62.130204
 20
465.398408
 30
0.0
 10
62.516347
 20
465.012267
 30
0.0
 10
62.733282
 20
464.488548
 30
0.0
 10
62.733282
 20
463.942461
 30
0.0
  0
SPLINE
  5
2cc
100
AcDbEntity
  8
0
 62
7
100
AcDbSpline
 70
8
 71
3
 72
8
 73
4
 74
0
 40
0
 40
0
 40
0
 40
0
 40
1
 40
1
 40
1
 40
1
 10
212.586985
 20
66.743262
 30
0.0
 10
211.449856
 20
66.743262
 30
0.0
 10
210.528029
 20
67.665081
 30
0.0
 10
210.528026
 20
68.802213
 30
0.0
  0
SPLINE
  5
2cd
100
AcDbEntity
  8
0
 62
7
100
AcDbSpline
 70
8
 71
3
 72
8
 73
4
 74
0
 40
0
 40
0
 40
0
 40
0
 40
1
 40
1
 40
1
 40
1
 10
350.999771
 20
244.475481
 30
0.0
 10
350.744951
 20
244.220645
 30
0.0
 10
350.399299
 20
244.077479
 30
0.0
 10
350.038910
 20
244.077479
 30
0.0
  0
SPLINE
  5
2ce
100
AcDbEntity
  8
0
 62
7
100
AcDbSpline
 70
8
 71
3
 72
8
 73
4
 74
0
 40
0
 40
0
 40
0
 40
0
 40
1
 40
1
 40
1
 40
1
 10
345.199760
 20
244.449261
 30
0.0
 10
344.944940
 20
244.194430
 30
0.0
 10
344.599288
 20
244.051264
 30
0.0
 10
344.238899
 20
244.051264
 30
0.0
  0
SPLINE
  5
2cf
100
AcDbEntity
  8
0
 62
7
100
AcDbSpline
 70
8
 71
3
 72
8
 73
4
 74
0
 40
0
 40
0
 40
0
 40
0
 40
1
 40
1
 40
1
 40
1
 10
81.664251
 20
322.252427
 30
0.0
 10
81.118162
 20
322.252427
 30
0.0
 10
80.594440
 20
322.469364
 30
0.0
 10
80.208296
 20
322.855508
 30
0.0
  0
SPLINE
  5
2d0
100
AcDbEntity
  8
0
 62
7
100
AcDbSpline
 70
8
 71
3
 72
8
 73
4
 74
0
 40
0
 40
0
 40
0
 40
0
 40
1
 40
1
 40
1
 40
1
 10
59.218295
 20
462.486504
 30
0.0
 10
58.832157
 20
462.872651
 30
0.0
 10
58.615225
 20
463.396372
 30
0.0
 10
58.615225
 20
463.942461
 30
0.0
  0
SPLINE
  5
2d1
100
AcDbEntity
  8
0
 62
7
100
AcDbSpline
 70
8
 71
3
 72
8
 73
4
 74
0
 40
0
 40
0
 40
0
 40
0
 40
1
 40
1
 40
1
 40
1
 10
231.485762
 20
367.982140
 30
0.0
 10
231.485762
 20
367.621746
 30
0.0
 10
231.342596
 20
367.276112
 30
0.0
 10
231.087757
 20
367.021271
 30
0.0
  0
SPLINE
  5
2d2
100
AcDbEntity
  8
0
 62
7
100
AcDbSpline
 70
8
 71
3
 72
8
 73
4
 74
0
 40
0
 40
0
 40
0
 40
0
 40
1
 40
1
 40
1
 40
1
 10
344.238899
 20
246.769001
 30
0.0
 10
344.989390
 20
246.769001
 30
0.0
 10
345.597773
 20
246.160615
 30
0.0
 10
345.597773
 20
245.410132
 30
0.0
  0
SPLINE
  5
2d3
100
AcDbEntity
  8
0
 62
7
100
AcDbSpline
 70
8
 71
3
 72
8
 73
4
 74
0
 40
0
 40
0
 40
0
 40
0
 40
1
 40
1
 40
1
 40
1
 10
350.999771
 20
246.397216
 30
0.0
 10
351.254617
 20
246.142377
 30
0.0
 10
351.397784
 20
245.796743
 30
0.0
 10
351.397784
 20
245.436347
 30
0.0
  0
SPLINE
  5
2d4
100
AcDbEntity
  8
0
 62
7
100
AcDbSpline
 70
8
 71
3
 72
8
 73
4
 74
0
 40
0
 40
0
 40
0
 40
0
 40
1
 40
1
 40
1
 40
1
 10
350.038910
 20
246.795220
 30
0.0
 10
350.399299
 20
246.795220
 30
0.0
 10
350.744951
 20
246.652054
 30
0.0
 10
350.999771
 20
246.397216
 30
0.0
  0
SPLINE
  5
2d5
100
AcDbEntity
  8
0
 62
7
100
AcDbSpline
 70
8
 71
3
 72
8
 73
4
 74
0
 40
0
 40
0
 40
0
 40
0
 40
1
 40
1
 40
1
 40
1
 10
215.188029
 20
372.021261
 30
0.0
 10
214.933191
 20
372.276105
 30
0.0
 10
214.790024
 20
372.621733
 30
0.0
 10
214.790024
 20
372.982133
 30
0.0
  0
SPLINE
  5
2d6
100
AcDbEntity
  8
0
 62
7
100
AcDbSpline
 70
8
 71
3
 72
8
 73
4
 74
0
 40
0
 40
0
 40
0
 40
0
 40
1
 40
1
 40
1
 40
1
 10
348.680036
 20
245.436347
 30
0.0
 10
348.680036
 20
245.796743
 30
0.0
 10
348.823202
 20
246.142377
 30
0.0
 10
349.078049
 20
246.397216
 30
0.0
  0
SPLINE
  5
2d7
100
AcDbEntity
  8
0
 62
7
100
AcDbSpline
 70
8
 71
3
 72
8
 73
4
 74
0
 40
0
 40
0
 40
0
 40
0
 40
1
 40
1
 40
1
 40
1
 10
290.426962
 20
345.202118
 30
0.0
 10
290.426962
 20
344.841727
 30
0.0
 10
290.283796
 20
344.496088
 30
0.0
 10
290.028976
 20
344.241249
 30
0.0
  0
SPLINE
  5
2d8
100
AcDbEntity
  8
0
 62
7
100
AcDbSpline
 70
8
 71
3
 72
8
 73
4
 74
0
 40
0
 40
0
 40
0
 40
0
 40
1
 40
1
 40
1
 40
1
 10
289.068089
 20
343.843247
 30
0.0
 10
288.707700
 20
343.843242
 30
0.0
 10
288.362074
 20
343.986413
 30
0.0
 10
288.107228
 20
344.241249
 30
0.0
  0
SPLINE
  5
2d9
100
AcDbEntity
  8
0
 62
7
100
AcDbSpline
 70
8
 71
3
 72
8
 73
4
 74
0
 40
0
 40
0
 40
0
 40
0
 40
1
 40
1
 40
1
 40
1
 10
350.038910
 20
244.077479
 30
0.0
 10
349.678521
 20
244.077479
 30
0.0
 10
349.332869
 20
244.220645
 30
0.0
 10
349.078049
 20
244.475481
 30
0.0
  0
SPLINE
  5
2da
100
AcDbEntity
  8
0
 62
7
100
AcDbSpline
 70
8
 71
3
 72
8
 73
4
 74
0
 40
0
 40
0
 40
0
 40
0
 40
1
 40
1
 40
1
 40
1
 10
216.148898
 20
371.623259
 30
0.0
 10
215.788501
 20
371.623259
 30
0.0
 10
215.442868
 20
371.766428
 30
0.0
 10
215.188029
 20
372.021261
 30
0.0
  0
SPLINE
  5
2db
100
AcDbEntity
  8
0
 62
7
100
AcDbSpline
 70
8
 71
3
 72
8
 73
4
 74
0
 40
0
 40
0
 40
0
 40
0
 40
1
 40
1
 40
1
 40
1
 10
229.166022
 20
367.021271
 30
0.0
 10
228.911184
 20
367.276112
 30
0.0
 10
228.768018
 20
367.621746
 30
0.0
 10
228.768018
 20
367.982140
 30
0.0
  0
SPLINE
  5
2dc
100
AcDbEntity
  8
0
 62
7
100
AcDbSpline
 70
8
 71
3
 72
8
 73
4
 74
0
 40
0
 40
0
 40
0
 40
0
 40
1
 40
1
 40
1
 40
1
 10
345.597773
 20
245.410132
 30
0.0
 10
345.597773
 20
245.049738
 30
0.0
 10
345.454607
 20
244.704102
 30
0.0
 10
345.199760
 20
244.449261
 30
0.0
  0
SPLINE
  5
2dd
100
AcDbEntity
  8
0
 62
7
100
AcDbSpline
 70
8
 71
3
 72
8
 73
4
 74
0
 40
0
 40
0
 40
0
 40
0
 40
1
 40
1
 40
1
 40
1
 10
62.130204
 20
462.486504
 30
0.0
 10
61.744063
 20
462.100361
 30
0.0
 10
61.220341
 20
461.883429
 30
0.0
 10
60.674252
 20
461.883429
 30
0.0
  0
SPLINE
  5
2de
100
AcDbEntity
  8
0
 62
7
100
AcDbSpline
 70
8
 71
3
 72
8
 73
4
 74
0
 40
0
 40
0
 40
0
 40
0
 40
1
 40
1
 40
1
 40
1
 10
216.148898
 20
374.341003
 30
0.0
 10
216.509292
 20
374.341003
 30
0.0
 10
216.854925
 20
374.197837
 30
0.0
 10
217.109764
 20
373.942996
 30
0.0
  0
SPLINE
  5
2df
100
AcDbEntity
  8
0
 62
7
100
AcDbSpline
 70
8
 71
3
 72
8
 73
4
 74
0
 40
0
 40
0
 40
0
 40
0
 40
1
 40
1
 40
1
 40
1
 10
349.078049
 20
246.397216
 30
0.0
 10
349.332869
 20
246.652054
 30
0.0
 10
349.678521
 20
246.795220
 30
0.0
 10
350.038910
 20
246.795220
 30
0.0
  0
SPLINE
  5
2e0
100
AcDbEntity
  8
0
 62
7
100
AcDbSpline
 70
8
 71
3
 72
8
 73
4
 74
0
 40
0
 40
0
 40
0
 40
0
 40
1
 40
1
 40
1
 40
1
 10
212.586985
 20
70.861163
 30
0.0
 10
213.724113
 20
70.861163
 30
0.0
 10
214.645940
 20
69.939342
 30
0.0
 10
214.645946
 20
68.802213
 30
0.0
  0
SPLINE
  5
2e1
100
AcDbEntity
  8
0
 62
7
100
AcDbSpline
 70
8
 71
3
 72
8
 73
4
 74
0
 40
0
 40
0
 40
0
 40
0
 40
1
 40
1
 40
1
 40
1
 10
290.028976
 20
344.241249
 30
0.0
 10
289.774129
 20
343.986413
 30
0.0
 10
289.428504
 20
343.843242
 30
0.0
 10
289.068089
 20
343.843247
 30
0.0
  0
SPLINE
  5
2e2
100
AcDbEntity
  8
0
 62
7
100
AcDbSpline
 70
8
 71
3
 72
8
 73
4
 74
0
 40
0
 40
0
 40
0
 40
0
 40
1
 40
1
 40
1
 40
1
 10
224.748888
 20
371.623259
 30
0.0
 10
223.998406
 20
371.623259
 30
0.0
 10
223.390020
 20
372.231652
 30
0.0
 10
223.390020
 20
372.982133
 30
0.0
  0
SPLINE
  5
2e3
100
AcDbEntity
  8
0
 62
7
100
AcDbSpline
 70
8
 71
3
 72
8
 73
4
 74
0
 40
0
 40
0
 40
0
 40
0
 40
1
 40
1
 40
1
 40
1
 10
224.748888
 20
374.341003
 30
0.0
 10
225.109282
 20
374.341003
 30
0.0
 10
225.454918
 20
374.197837
 30
0.0
 10
225.709757
 20
373.942996
 30
0.0
  0
SPLINE
  5
2e4
100
AcDbEntity
  8
0
 62
7
100
AcDbSpline
 70
8
 71
3
 72
8
 73
4
 74
0
 40
0
 40
0
 40
0
 40
0
 40
1
 40
1
 40
1
 40
1
 10
215.188029
 20
373.942996
 30
0.0
 10
215.442868
 20
374.197837
 30
0.0
 10
215.788501
 20
374.341003
 30
0.0
 10
216.148898
 20
374.341003
 30
0.0
  0
SPLINE
  5
2e5
100
AcDbEntity
  8
0
 62
7
100
AcDbSpline
 70
8
 71
3
 72
8
 73
4
 74
0
 40
0
 40
0
 40
0
 40
0
 40
1
 40
1
 40
1
 40
1
 10
214.790024
 20
372.982133
 30
0.0
 10
214.790024
 20
373.342524
 30
0.0
 10
214.933191
 20
373.688160
 30
0.0
 10
215.188029
 20
373.942996
 30
0.0
  0
SPLINE
  5
2e6
100
AcDbEntity
  8
0
 62
7
100
AcDbSpline
 70
8
 71
3
 72
8
 73
4
 74
0
 40
0
 40
0
 40
0
 40
0
 40
1
 40
1
 40
1
 40
1
 10
234.568023
 20
368.008357
 30
0.0
 10
234.568023
 20
368.368752
 30
0.0
 10
234.711189
 20
368.714387
 30
0.0
 10
234.966028
 20
368.969226
 30
0.0
  0
SPLINE
  5
2e7
100
AcDbEntity
  8
0
 62
7
100
AcDbSpline
 70
8
 71
3
 72
8
 73
4
 74
0
 40
0
 40
0
 40
0
 40
0
 40
1
 40
1
 40
1
 40
1
 10
217.109764
 20
372.021261
 30
0.0
 10
216.854925
 20
371.766428
 30
0.0
 10
216.509292
 20
371.623259
 30
0.0
 10
216.148898
 20
371.623259
 30
0.0
  0
SPLINE
  5
2e8
100
AcDbEntity
  8
0
 62
7
100
AcDbSpline
 70
8
 71
3
 72
8
 73
4
 74
0
 40
0
 40
0
 40
0
 40
0
 40
1
 40
1
 40
1
 40
1
 10
351.397784
 20
245.436347
 30
0.0
 10
351.397784
 20
245.075953
 30
0.0
 10
351.254617
 20
244.730320
 30
0.0
 10
350.999771
 20
244.475481
 30
0.0
  0
SPLINE
  5
2e9
100
AcDbEntity
  8
0
 62
7
100
AcDbSpline
 70
8
 71
3
 72
8
 73
4
 74
0
 40
0
 40
0
 40
0
 40
0
 40
1
 40
1
 40
1
 40
1
 10
80.208296
 20
322.855508
 30
0.0
 10
79.822156
 20
323.241646
 30
0.0
 10
79.605221
 20
323.765370
 30
0.0
 10
79.605221
 20
324.311457
 30
0.0
  0
SPLINE
  5
2ea
100
AcDbEntity
  8
0
 62
7
100
AcDbSpline
 70
8
 71
3
 72
8
 73
4
 74
0
 40
0
 40
0
 40
0
 40
0
 40
1
 40
1
 40
1
 40
1
 10
83.120203
 20
322.855508
 30
0.0
 10
82.734062
 20
322.469364
 30
0.0
 10
82.210338
 20
322.252427
 30
0.0
 10
81.664251
 20
322.252427
 30
0.0
  0
SPLINE
  5
2eb
100
AcDbEntity
  8
0
 62
7
100
AcDbSpline
 70
8
 71
3
 72
8
 73
4
 74
0
 40
0
 40
0
 40
0
 40
0
 40
1
 40
1
 40
1
 40
1
 10
231.087757
 20
367.021271
 30
0.0
 10
230.832918
 20
366.766438
 30
0.0
 10
230.487285
 20
366.623269
 30
0.0
 10
230.126888
 20
366.623269
 30
0.0
  0
SPLINE
  5
2ec
100
AcDbEntity
  8
0
 62
7
100
AcDbSpline
 70
8
 71
3
 72
8
 73
4
 74
0
 40
0
 40
0
 40
0
 40
0
 40
1
 40
1
 40
1
 40
1
 10
225.709757
 20
372.021261
 30
0.0
 10
225.454918
 20
371.766428
 30
0.0
 10
225.109282
 20
371.623259
 30
0.0
 10
224.748888
 20
371.623259
 30
0.0
  0
SPLINE
  5
2ed
100
AcDbEntity
  8
0
 62
7
100
AcDbSpline
 70
8
 71
3
 72
8
 73
4
 74
0
 40
0
 40
0
 40
0
 40
0
 40
1
 40
1
 40
1
 40
1
 10
287.709241
 20
345.202118
 30
0.0
 10
287.709241
 20
345.562512
 30
0.0
 10
287.852407
 20
345.908148
 30
0.0
 10
288.107228
 20
346.162987
 30
0.0
  0
SPLINE
  5
2ee
100
AcDbEntity
  8
0
 62
7
100
AcDbSpline
 70
8
 71
3
 72
8
 73
4
 74
0
 40
0
 40
0
 40
0
 40
0
 40
1
 40
1
 40
1
 40
1
 10
196.170920
 20
461.854293
 30
0.0
 10
196.171007
 20
460.717053
 30
0.0
 10
195.249159
 20
459.795070
 30
0.0
 10
194.111919
 20
459.794988
 30
0.0
  0
SPLINE
  5
2ef
100
AcDbEntity
  8
0
 62
7
100
AcDbSpline
 70
8
 71
3
 72
8
 73
4
 74
0
 40
0
 40
0
 40
0
 40
0
 40
1
 40
1
 40
1
 40
1
 10
217.507769
 20
372.982133
 30
0.0
 10
217.507769
 20
372.621733
 30
0.0
 10
217.364603
 20
372.276105
 30
0.0
 10
217.109764
 20
372.021261
 30
0.0
  0
SPLINE
  5
2f0
100
AcDbEntity
  8
0
 62
7
100
AcDbSpline
 70
8
 71
3
 72
8
 73
4
 74
0
 40
0
 40
0
 40
0
 40
0
 40
1
 40
1
 40
1
 40
1
 10
230.126888
 20
369.341008
 30
0.0
 10
230.877368
 20
369.341008
 30
0.0
 10
231.485759
 20
368.732625
 30
0.0
 10
231.485762
 20
367.982140
 30
0.0
  0
SPLINE
  5
2f1
100
AcDbEntity
  8
0
 62
7
100
AcDbSpline
 70
8
 71
3
 72
8
 73
4
 74
0
 40
0
 40
0
 40
0
 40
0
 40
1
 40
1
 40
1
 40
1
 10
230.126888
 20
366.623269
 30
0.0
 10
229.766494
 20
366.623269
 30
0.0
 10
229.420858
 20
366.766438
 30
0.0
 10
229.166022
 20
367.021271
 30
0.0
  0
SPLINE
  5
2f2
100
AcDbEntity
  8
0
 62
7
100
AcDbSpline
 70
8
 71
3
 72
8
 73
4
 74
0
 40
0
 40
0
 40
0
 40
0
 40
1
 40
1
 40
1
 40
1
 10
226.107756
 20
372.982133
 30
0.0
 10
226.107756
 20
372.621733
 30
0.0
 10
225.964590
 20
372.276105
 30
0.0
 10
225.709757
 20
372.021261
 30
0.0
  0
LWPOLYLINE
  5
2f3
100
AcDbEntity
  8
0
 62
7
100
AcDbPolyline
 90
2
 70
0
 10
0.132292
 20
24.989631
 30
0.0
 10
0.183520
 20
457.976975
 30
0.0
  0
ENDSEC
  0
SECTION
  2
OBJECTS
  0
DICTIONARY
  5
C
330
0
100
AcDbDictionary
  3
ACAD_GROUP
350
D
  3
ACAD_MLINESTYLE
350
17
  0
DICTIONARY
  5
D
330
C
100
AcDbDictionary
  0
DICTIONARY
  5
1A
330
C
100
AcDbDictionary
  0
DICTIONARY
  5
17
330
C
100
AcDbDictionary
  3
STANDARD
350
18
  0
DICTIONARY
  5
19
330
C
100
AcDbDictionary
  0
ENDSEC
  0
EOF
