0
SECTION
2
HEADER
9
$INSUNITS
70
4
9
$ACADVER
1
AC1014
9
$HANDSEED
5
FFFF
0
ENDSEC
0
SECTION
2
TABLES
0
TABLE
2
VPORT
5
8
100
AcDbSymbolTable
0
ENDTAB
0
TABLE
2
LTYPE
5
5
100
AcDbSymbolTable
0
LTYPE
5
14
100
AcDbSymbolTableRecord
100
AcDbLinetypeTableRecord
2
BYBLOCK
70
0
0
LTYPE
5
15
100
AcDbSymbolTableRecord
100
AcDbLinetypeTableRecord
2
BYLAYER
70
0
0
ENDTAB
0
TABLE
2
LAYER
5
2
100
AcDbSymbolTable
70
2
0
LAYER
5
50
100
AcDbSymbolTableRecord
100
AcDbLayerTableRecord
2
0
70
0
6
CONTINUOUS
0
ENDTAB
0
TABLE
2
STYLE
5
3
100
AcDbSymbolTable
70
1
0
STYLE
5
11
100
AcDbSymbolTableRecord
100
AcDbTextStyleTableRecord
2
STANDARD
70
0
0
ENDTAB
0
TABLE
2
VIEW
5
6
100
AcDbSymbolTable
70
0
0
ENDTAB
0
TABLE
2
UCS
5
7
100
AcDbSymbolTable
70
0
0
ENDTAB
0
TABLE
2
APPID
5
9
100
AcDbSymbolTable
70
2
0
APPID
5
12
100
AcDbSymbolTableRecord
100
AcDbRegAppTableRecord
2
ACAD
70
0
0
ENDTAB
0
TABLE
2
DIMSTYLE
5
A
100
AcDbSymbolTable
70
1
0
ENDTAB
0
TABLE
2
BLOCK_RECORD
5
1
100
AcDbSymbolTable
70
1
0
BLOCK_RECORD
5
1F
100
AcDbSymbolTableRecord
100
AcDbBlockTableRecord
2
*MODEL_SPACE
0
BLOCK_RECORD
5
1B
100
AcDbSymbolTableRecord
100
AcDbBlockTableRecord
2
*PAPER_SPACE
0
ENDTAB
0
ENDSEC
0
SECTION
2
BLOCKS
0
BLOCK
5
20
100
AcDbEntity
100
AcDbBlockBegin
2
*MODEL_SPACE
0
ENDBLK
5
21
100
AcDbEntity
100
AcDbBlockEnd
0
BLOCK
5
1C
100
AcDbEntity
100
AcDbBlockBegin
2
*PAPER_SPACE
0
ENDBLK
5
1D
100
AcDbEntity
100
AcDbBlockEnd
0
ENDSEC
0
SECTION
2
ENTITIES
0
SPLINE
5
100
100
AcDbEntity
8
0
100
AcDbSpline
70
1064
71
3
72
8
73
4
74
0
42
0.000000001
43
0.0000000001
44
0.0000000001
40
0
40
0
40
0
40
0
40
1
40
1
40
1
40
1
10
44.027208999999999
20
378.41757800000005
30
-317.00000000000006
10
45.173537000000003
20
378.41757800000005
30
-317.00000000000006
10
46.086387000000002
20
377.50486899999999
30
-317.00000000000006
10
46.086387000000002
20
376.35845100000006
30
-317.00000000000006
0
SPLINE
5
101
100
AcDbEntity
8
0
100
AcDbSpline
70
1064
71
3
72
8
73
4
74
0
42
0.000000001
43
0.0000000001
44
0.0000000001
40
0
40
0
40
0
40
0
40
1
40
1
40
1
40
1
10
392.90664900000002
20
7.2584509999999991
30
-317.00000000000006
10
392.90664900000002
20
8.4048379999999998
30
-317.00000000000006
10
393.81948800000004
20
9.3175969999999992
30
-317.00000000000006
10
394.96584800000005
20
9.3175969999999992
30
-317.00000000000006
0
SPLINE
5
102
100
AcDbEntity
8
0
100
AcDbSpline
70
1064
71
3
72
8
73
4
74
0
42
0.000000001
43
0.0000000001
44
0.0000000001
40
0
40
0
40
0
40
0
40
1
40
1
40
1
40
1
10
67.277210000000011
20
5.3992239999999994
30
-317.00000000000006
10
66.130863000000005
20
5.3992239999999994
30
-317.00000000000006
10
65.218031999999994
20
6.3120890000000003
30
-317.00000000000006
10
65.218031999999994
20
7.4584500000000009
30
-317.00000000000006
0
LINE
5
103
100
AcDbEntity
8
0
100
AcDbLine
10
388.64132799999999
20
25.102823999999998
30
-317.00000000000006
11
409.69245100000001
21
25.102823999999998
31
-317.00000000000006
0
SPLINE
5
104
100
AcDbEntity
8
0
100
AcDbSpline
70
1064
71
3
72
8
73
4
74
0
42
0.000000001
43
0.0000000001
44
0.0000000001
40
0
40
0
40
0
40
0
40
1
40
1
40
1
40
1
10
-15.873025999999999
20
473.37221900000003
30
-317.00000000000006
10
-15.873021000000001
20
474.26087199999995
30
-317.00000000000006
10
-15.152624000000001
20
474.98126600000006
30
-317.00000000000006
10
-14.263967999999998
20
474.98126600000006
30
-317.00000000000006
0
LINE
5
105
100
AcDbEntity
8
0
100
AcDbLine
10
80.505995999999996
20
283.211702
30
-317.00000000000006
11
340.75701000000004
21
283.21834200000001
31
-317.00000000000006
0
SPLINE
5
106
100
AcDbEntity
8
0
100
AcDbSpline
70
1064
71
3
72
8
73
4
74
0
42
0.000000001
43
0.0000000001
44
0.0000000001
40
0
40
0
40
0
40
0
40
1
40
1
40
1
40
1
10
384.30618300000003
20
29.948086000000004
30
-317.00000000000006
10
384.30639400000007
20
32.624243
30
-317.00000000000006
10
386.24729800000006
20
34.793535000000006
30
-317.00000000000006
10
388.64132799999999
20
34.793334000000002
30
-317.00000000000006
0
SPLINE
5
107
100
AcDbEntity
8
0
100
AcDbSpline
70
1064
71
3
72
8
73
4
74
0
42
0.000000001
43
0.0000000001
44
0.0000000001
40
0
40
0
40
0
40
0
40
1
40
1
40
1
40
1
10
-18.362973
20
7.4584500000000009
30
-317.00000000000006
10
-18.362973
20
8.6048360000000006
30
-317.00000000000006
10
-17.450136000000001
20
9.5175960000000011
30
-317.00000000000006
10
-16.303788999999998
20
9.5175960000000011
30
-317.00000000000006
0
SPLINE
5
108
100
AcDbEntity
8
0
100
AcDbSpline
70
1064
71
3
72
8
73
4
74
0
42
0.000000001
43
0.0000000001
44
0.0000000001
40
0
40
0
40
0
40
0
40
1
40
1
40
1
40
1
10
449.71742699999993
20
473.99703499999998
30
-317.00000000000006
10
449.41567000000009
20
474.298789
30
-317.00000000000006
10
449.00638600000008
20
474.46831100000003
30
-317.00000000000006
10
448.57963900000004
20
474.46831100000003
30
-317.00000000000006
0
SPLINE
5
109
100
AcDbEntity
8
0
100
AcDbSpline
70
1064
71
3
72
8
73
4
74
0
42
0.000000001
43
0.0000000001
44
0.0000000001
40
0
40
0
40
0
40
0
40
1
40
1
40
1
40
1
10
448.57963900000004
20
474.46831100000003
30
-317.00000000000006
10
448.15289299999995
20
474.46831100000003
30
-317.00000000000006
10
447.74363499999998
20
474.298789
30
-317.00000000000006
10
447.44187800000009
20
473.99703499999998
30
-317.00000000000006
0
SPLINE
5
110
100
AcDbEntity
8
0
100
AcDbSpline
70
1064
71
3
72
8
73
4
74
0
42
0.000000001
43
0.0000000001
44
0.0000000001
40
0
40
0
40
0
40
0
40
1
40
1
40
1
40
1
10
355.22400300000004
20
376.35845100000006
30
-317.00000000000006
10
355.22400300000004
20
375.21210099999996
30
-317.00000000000006
10
354.31116400000002
20
374.29925700000007
30
-317.00000000000006
10
353.16482999999999
20
374.29925700000007
30
-317.00000000000006
0
LINE
5
111
100
AcDbEntity
8
0
100
AcDbLine
10
75.646902000000011
20
278.35261099999997
30
-317.00000000000006
11
75.636556083128013
21
-0.59330288967580525
31
-317.00000000000006
0
LINE
5
112
100
AcDbEntity
8
0
100
AcDbLine
10
409.69245100000001
20
34.793334000000002
30
-317.00000000000006
11
388.64132799999999
21
34.793334000000002
31
-317.00000000000006
0
SPLINE
5
113
100
AcDbEntity
8
0
100
AcDbSpline
70
1064
71
3
72
8
73
4
74
0
42
0.000000001
43
0.0000000001
44
0.0000000001
40
0
40
0
40
0
40
0
40
1
40
1
40
1
40
1
10
375.80501400000003
20
7.2584509999999991
30
-317.00000000000006
10
375.80501400000003
20
6.1120910000000004
30
-317.00000000000006
10
374.89217599999995
20
5.1992250000000002
30
-317.00000000000006
10
373.74584200000004
20
5.1992250000000002
30
-317.00000000000006
0
SPLINE
5
114
100
AcDbEntity
8
0
100
AcDbSpline
70
1064
71
3
72
8
73
4
74
0
42
0.000000001
43
0.0000000001
44
0.0000000001
40
0
40
0
40
0
40
0
40
1
40
1
40
1
40
1
10
75.646902000000011
20
278.35261099999997
30
-317.00000000000006
10
75.646902000000011
20
281.03621900000002
30
-317.00000000000006
10
77.822395999999998
20
283.211702
30
-317.00000000000006
10
80.505995999999996
20
283.211702
30
-317.00000000000006
0
LINE
5
115
100
AcDbEntity
8
0
100
AcDbLine
10
409.69245100000001
20
25.102823999999998
30
-317.00000000000006
11
388.64132799999999
21
25.102823999999998
31
-317.00000000000006
0
SPLINE
5
116
100
AcDbEntity
8
0
100
AcDbSpline
70
1064
71
3
72
8
73
4
74
0
42
0.000000001
43
0.0000000001
44
0.0000000001
40
0
40
0
40
0
40
0
40
1
40
1
40
1
40
1
10
67.277210000000011
20
9.5175960000000011
30
-317.00000000000006
10
68.423556999999988
20
9.5175960000000011
30
-317.00000000000006
10
69.336393000000015
20
8.6048360000000006
30
-317.00000000000006
10
69.336393000000015
20
7.4584500000000009
30
-317.00000000000006
0
SPLINE
5
117
100
AcDbEntity
8
0
100
AcDbSpline
70
1064
71
3
72
8
73
4
74
0
42
0.000000001
43
0.0000000001
44
0.0000000001
40
0
40
0
40
0
40
0
40
1
40
1
40
1
40
1
10
388.64132799999999
20
25.102823999999998
30
-317.00000000000006
10
386.24729800000006
20
25.102613000000002
30
-317.00000000000006
10
384.30639400000007
20
27.271931000000002
30
-317.00000000000006
10
384.30618300000003
20
29.948086000000004
30
-317.00000000000006
0
SPLINE
5
118
100
AcDbEntity
8
0
100
AcDbSpline
70
1064
71
3
72
8
73
4
74
0
42
0.000000001
43
0.0000000001
44
0.0000000001
40
0
40
0
40
0
40
0
40
1
40
1
40
1
40
1
10
15.986387000000004
20
376.35845100000006
30
-317.00000000000006
10
15.986387000000004
20
375.21210099999996
30
-317.00000000000006
10
15.073542
20
374.29925700000007
30
-317.00000000000006
10
13.927209000000005
20
374.29925700000007
30
-317.00000000000006
0
SPLINE
5
119
100
AcDbEntity
8
0
100
AcDbSpline
70
1064
71
3
72
8
73
4
74
0
42
0.000000001
43
0.0000000001
44
0.0000000001
40
0
40
0
40
0
40
0
40
1
40
1
40
1
40
1
10
11.868028000000006
20
376.35845100000006
30
-317.00000000000006
10
11.868028000000006
20
377.50486899999999
30
-317.00000000000006
10
12.780848000000002
20
378.41757800000005
30
-317.00000000000006
10
13.927209000000005
20
378.41757800000005
30
-317.00000000000006
0
SPLINE
5
120
100
AcDbEntity
8
0
100
AcDbSpline
70
1064
71
3
72
8
73
4
74
0
42
0.000000001
43
0.0000000001
44
0.0000000001
40
0
40
0
40
0
40
0
40
1
40
1
40
1
40
1
10
41.968031000000011
20
376.35845100000006
30
-317.00000000000006
10
41.968031000000011
20
377.50486899999999
30
-317.00000000000006
10
42.880851000000007
20
378.41757800000005
30
-317.00000000000006
10
44.027208999999999
20
378.41757800000005
30
-317.00000000000006
0
SPLINE
5
121
100
AcDbEntity
8
0
100
AcDbSpline
70
1064
71
3
72
8
73
4
74
0
42
0.000000001
43
0.0000000001
44
0.0000000001
40
0
40
0
40
0
40
0
40
1
40
1
40
1
40
1
10
-12.654917999999997
20
473.37221900000003
30
-317.00000000000006
10
-12.654920999999998
20
472.48356500000006
30
-317.00000000000006
10
-13.375314999999999
20
471.76317100000006
30
-317.00000000000006
10
-14.263967999999998
20
471.76316799999995
30
-317.00000000000006
0
SPLINE
5
122
100
AcDbEntity
8
0
100
AcDbSpline
70
1064
71
3
72
8
73
4
74
0
42
0.000000001
43
0.0000000001
44
0.0000000001
40
0
40
0
40
0
40
0
40
1
40
1
40
1
40
1
10
-24.867708
20
459.13744000000008
30
-317.00000000000006
10
-24.867708
20
472.86668499999996
30
-317.00000000000006
10
-13.737936999999999
20
483.99639800000011
30
-317.00000000000006
10
-0.0086969999999997327
20
483.99639800000011
30
-317.00000000000006
0
LINE
5
123
100
AcDbEntity
8
0
100
AcDbLine
10
-24.863414000000002
20
0.13242800000000443
30
-317.00000000000006
11
-24.867708
21
459.13744000000008
31
-317.00000000000006
0
SPLINE
5
124
100
AcDbEntity
8
0
100
AcDbSpline
70
1064
71
3
72
8
73
4
74
0
42
0.000000001
43
0.0000000001
44
0.0000000001
40
0
40
0
40
0
40
0
40
1
40
1
40
1
40
1
10
385.32400800000005
20
376.35845100000006
30
-317.00000000000006
10
385.32400800000005
20
375.21210099999996
30
-317.00000000000006
10
384.4111430000001
20
374.29925700000007
30
-317.00000000000006
10
383.26483600000006
20
374.29925700000007
30
-317.00000000000006
0
SPLINE
5
125
100
AcDbEntity
8
0
100
AcDbSpline
70
1064
71
3
72
8
73
4
74
0
42
0.000000001
43
0.0000000001
44
0.0000000001
40
0
40
0
40
0
40
0
40
1
40
1
40
1
40
1
10
353.16482999999999
20
374.29925700000007
30
-317.00000000000006
10
352.01847000000009
20
374.29925700000007
30
-317.00000000000006
10
351.10565800000006
20
375.21210099999996
30
-317.00000000000006
10
351.10565800000006
20
376.35845100000006
30
-317.00000000000006
0
SPLINE
5
126
100
AcDbEntity
8
0
100
AcDbSpline
70
1064
71
3
72
8
73
4
74
0
42
0.000000001
43
0.0000000001
44
0.0000000001
40
0
40
0
40
0
40
0
40
1
40
1
40
1
40
1
10
340.75701000000004
20
283.21834200000001
30
-317.00000000000006
10
343.44059900000002
20
283.21834200000001
30
-317.00000000000006
10
345.61613599999998
20
281.04286000000002
30
-317.00000000000006
10
345.61613599999998
20
278.35925400000002
30
-317.00000000000006
0
SPLINE
5
127
100
AcDbEntity
8
0
100
AcDbSpline
70
1064
71
3
72
8
73
4
74
0
42
0.000000001
43
0.0000000001
44
0.0000000001
40
0
40
0
40
0
40
0
40
1
40
1
40
1
40
1
10
447.44187800000009
20
471.72148899999996
30
-317.00000000000006
10
447.74363499999998
20
471.41973400000006
30
-317.00000000000006
10
448.15289299999995
20
471.25021000000004
30
-317.00000000000006
10
448.57963900000004
20
471.25021300000003
30
-317.00000000000006
0
SPLINE
5
128
100
AcDbEntity
8
0
100
AcDbSpline
70
1064
71
3
72
8
73
4
74
0
42
0.000000001
43
0.0000000001
44
0.0000000001
40
0
40
0
40
0
40
0
40
1
40
1
40
1
40
1
10
397.02502100000004
20
7.2584509999999991
30
-317.00000000000006
10
397.02502100000004
20
6.1120910000000004
30
-317.00000000000006
10
396.11215600000003
20
5.1992250000000002
30
-317.00000000000006
10
394.96584800000005
20
5.1992250000000002
30
-317.00000000000006
0
SPLINE
5
129
100
AcDbEntity
8
0
100
AcDbSpline
70
1064
71
3
72
8
73
4
74
0
42
0.000000001
43
0.0000000001
44
0.0000000001
40
0
40
0
40
0
40
0
40
1
40
1
40
1
40
1
10
448.93600700000007
20
28.208450000000003
30
-317.00000000000006
10
448.93600700000007
20
27.062064000000007
30
-317.00000000000006
10
448.023168
20
26.149225000000005
30
-317.00000000000006
10
446.87683399999997
20
26.149225000000005
30
-317.00000000000006
0
SPLINE
5
130
100
AcDbEntity
8
0
100
AcDbSpline
70
1064
71
3
72
8
73
4
74
0
42
0.000000001
43
0.0000000001
44
0.0000000001
40
0
40
0
40
0
40
0
40
1
40
1
40
1
40
1
10
35.677213000000009
20
31.743231000000005
30
-317.00000000000006
10
34.530866000000003
20
31.743231000000005
30
-317.00000000000006
10
33.618035000000006
20
32.656086000000002
30
-317.00000000000006
10
33.618035000000006
20
33.802442999999997
30
-317.00000000000006
0
SPLINE
5
131
100
AcDbEntity
8
0
100
AcDbSpline
70
1064
71
3
72
8
73
4
74
0
42
0.000000001
43
0.0000000001
44
0.0000000001
40
0
40
0
40
0
40
0
40
1
40
1
40
1
40
1
10
444.8176610000001
20
28.208450000000003
30
-317.00000000000006
10
444.8176610000001
20
29.354811000000002
30
-317.00000000000006
10
445.73047400000007
20
30.267596999999999
30
-317.00000000000006
10
446.87683399999997
20
30.267596999999999
30
-317.00000000000006
0
SPLINE
5
132
100
AcDbEntity
8
0
100
AcDbSpline
70
1064
71
3
72
8
73
4
74
0
42
0.000000001
43
0.0000000001
44
0.0000000001
40
0
40
0
40
0
40
0
40
1
40
1
40
1
40
1
10
447.44187800000009
20
473.99703499999998
30
-317.00000000000006
10
447.14012100000002
20
473.69527800000009
30
-317.00000000000006
10
446.97057599999999
20
473.28600899999998
30
-317.00000000000006
10
446.97057599999999
20
472.85925999999995
30
-317.00000000000006
0
SPLINE
5
133
100
AcDbEntity
8
0
100
AcDbSpline
70
1064
71
3
72
8
73
4
74
0
42
0.000000001
43
0.0000000001
44
0.0000000001
40
0
40
0
40
0
40
0
40
1
40
1
40
1
40
1
10
33.618035000000006
20
190.37742300000002
30
-317.00000000000006
10
33.618035000000006
20
191.52384100000003
30
-317.00000000000006
10
34.530866000000003
20
192.43661700000001
30
-317.00000000000006
10
35.677213000000009
20
192.43661700000001
30
-317.00000000000006
0
SPLINE
5
134
100
AcDbEntity
8
0
100
AcDbSpline
70
1064
71
3
72
8
73
4
74
0
42
0.000000001
43
0.0000000001
44
0.0000000001
40
0
40
0
40
0
40
0
40
1
40
1
40
1
40
1
10
351.10565800000006
20
376.35845100000006
30
-317.00000000000006
10
351.10565800000006
20
377.50486899999999
30
-317.00000000000006
10
352.01847000000009
20
378.41757800000005
30
-317.00000000000006
10
353.16482999999999
20
378.41757800000005
30
-317.00000000000006
0
SPLINE
5
135
100
AcDbEntity
8
0
100
AcDbSpline
70
1064
71
3
72
8
73
4
74
0
42
0.000000001
43
0.0000000001
44
0.0000000001
40
0
40
0
40
0
40
0
40
1
40
1
40
1
40
1
10
354.72685100000001
20
452.44157400000006
30
-317.00000000000006
10
355.87318500000003
20
452.44157400000006
30
-317.00000000000006
10
356.786024
20
451.52886200000006
30
-317.00000000000006
10
356.786024
20
450.38244600000007
30
-317.00000000000006
0
SPLINE
5
136
100
AcDbEntity
8
0
100
AcDbSpline
70
1064
71
3
72
8
73
4
74
0
42
0.000000001
43
0.0000000001
44
0.0000000001
40
0
40
0
40
0
40
0
40
1
40
1
40
1
40
1
10
-15.563606999999999
20
110.192464
30
-317.00000000000006
10
-15.563606999999999
20
109.046102
30
-317.00000000000006
10
-16.476445999999999
20
108.133257
30
-317.00000000000006
10
-17.622786999999999
20
108.133257
30
-317.00000000000006
0
SPLINE
5
137
100
AcDbEntity
8
0
100
AcDbSpline
70
1064
71
3
72
8
73
4
74
0
42
0.000000001
43
0.0000000001
44
0.0000000001
40
0
40
0
40
0
40
0
40
1
40
1
40
1
40
1
10
33.618035000000006
20
350.382429
30
-317.00000000000006
10
33.618035000000006
20
351.5288470000001
30
-317.00000000000006
10
34.530866000000003
20
352.44162299999999
30
-317.00000000000006
10
35.677213000000009
20
352.44162299999999
30
-317.00000000000006
0
SPLINE
5
138
100
AcDbEntity
8
0
100
AcDbSpline
70
1064
71
3
72
8
73
4
74
0
42
0.000000001
43
0.0000000001
44
0.0000000001
40
0
40
0
40
0
40
0
40
1
40
1
40
1
40
1
10
454.23603399999996
20
110.19245100000001
30
-317.00000000000006
10
454.23603399999996
20
109.046094
30
-317.00000000000006
10
453.32316900000012
20
108.13324399999999
30
-317.00000000000006
10
452.17686100000009
20
108.13324399999999
30
-317.00000000000006
0
LINE
5
139
100
AcDbEntity
8
0
100
AcDbLine
10
-0.0086969999999997327
20
483.99639800000011
30
-317.00000000000006
11
434.71065700000003
21
483.28604800000005
31
-317.00000000000006
0
SPLINE
5
140
100
AcDbEntity
8
0
100
AcDbSpline
70
1064
71
3
72
8
73
4
74
0
42
0.000000001
43
0.0000000001
44
0.0000000001
40
0
40
0
40
0
40
0
40
1
40
1
40
1
40
1
10
356.786024
20
450.38244600000007
30
-317.00000000000006
10
356.786024
20
449.23609400000004
30
-317.00000000000006
10
355.87318500000003
20
448.32325200000002
30
-317.00000000000006
10
354.72685100000001
20
448.32325200000002
30
-317.00000000000006
0
SPLINE
5
141
100
AcDbEntity
8
0
100
AcDbSpline
70
1064
71
3
72
8
73
4
74
0
42
0.000000001
43
0.0000000001
44
0.0000000001
40
0
40
0
40
0
40
0
40
1
40
1
40
1
40
1
10
383.26483600000006
20
374.29925700000007
30
-317.00000000000006
10
382.11847599999999
20
374.29925700000007
30
-317.00000000000006
10
381.20563700000002
20
375.21210099999996
30
-317.00000000000006
10
381.20563700000002
20
376.35845100000006
30
-317.00000000000006
0
LINE
5
142
100
AcDbEntity
8
0
100
AcDbLine
10
388.64132799999999
20
34.793334000000002
30
-317.00000000000006
11
409.69245100000001
21
34.793334000000002
31
-317.00000000000006
0
SPLINE
5
143
100
AcDbEntity
8
0
100
AcDbSpline
70
1064
71
3
72
8
73
4
74
0
42
0.000000001
43
0.0000000001
44
0.0000000001
40
0
40
0
40
0
40
0
40
1
40
1
40
1
40
1
10
448.57963900000004
20
471.25021300000003
30
-317.00000000000006
10
449.00638600000008
20
471.25021000000004
30
-317.00000000000006
10
449.41567000000009
20
471.41973400000006
30
-317.00000000000006
10
449.71742699999993
20
471.72148899999996
30
-317.00000000000006
0
SPLINE
5
144
100
AcDbEntity
8
0
100
AcDbSpline
70
1064
71
3
72
8
73
4
74
0
42
0.000000001
43
0.0000000001
44
0.0000000001
40
0
40
0
40
0
40
0
40
1
40
1
40
1
40
1
10
383.26483600000006
20
378.41757800000005
30
-317.00000000000006
10
384.4111430000001
20
378.41757800000005
30
-317.00000000000006
10
385.32400800000005
20
377.50486899999999
30
-317.00000000000006
10
385.32400800000005
20
376.35845100000006
30
-317.00000000000006
0
SPLINE
5
145
100
AcDbEntity
8
0
100
AcDbSpline
70
1064
71
3
72
8
73
4
74
0
42
0.000000001
43
0.0000000001
44
0.0000000001
40
0
40
0
40
0
40
0
40
1
40
1
40
1
40
1
10
13.927209000000005
20
374.29925700000007
30
-317.00000000000006
10
12.780848000000002
20
374.29925700000007
30
-317.00000000000006
10
11.868028000000006
20
375.21210099999996
30
-317.00000000000006
10
11.868028000000006
20
376.35845100000006
30
-317.00000000000006
0
SPLINE
5
146
100
AcDbEntity
8
0
100
AcDbSpline
70
1064
71
3
72
8
73
4
74
0
42
0.000000001
43
0.0000000001
44
0.0000000001
40
0
40
0
40
0
40
0
40
1
40
1
40
1
40
1
10
-16.303788999999998
20
9.5175960000000011
30
-317.00000000000006
10
-15.157449999999999
20
9.5175960000000011
30
-317.00000000000006
10
-14.244605999999999
20
8.6048360000000006
30
-317.00000000000006
10
-14.244605999999999
20
7.4584500000000009
30
-317.00000000000006
0
SPLINE
5
147
100
AcDbEntity
8
0
100
AcDbSpline
70
1064
71
3
72
8
73
4
74
0
42
0.000000001
43
0.0000000001
44
0.0000000001
40
0
40
0
40
0
40
0
40
1
40
1
40
1
40
1
10
43.998032999999992
20
7.4584500000000009
30
-317.00000000000006
10
43.998032999999992
20
8.6048360000000006
30
-317.00000000000006
10
44.910859000000009
20
9.5175960000000011
30
-317.00000000000006
10
46.057211000000002
20
9.5175960000000011
30
-317.00000000000006
0
LINE
5
148
100
AcDbEntity
8
0
100
AcDbLine
10
459.37395100000003
20
0.13229600000000002
30
-317.00000000000006
11
459.56966399999999
21
458.42702300000008
31
-317.00000000000006
0
SPLINE
5
149
100
AcDbEntity
8
0
100
AcDbSpline
70
1064
71
3
72
8
73
4
74
0
42
0.000000001
43
0.0000000001
44
0.0000000001
40
0
40
0
40
0
40
0
40
1
40
1
40
1
40
1
10
434.71065700000003
20
483.28604800000005
30
-317.00000000000006
10
448.43991299999999
20
483.28604800000005
30
-317.00000000000006
10
459.56966399999999
20
472.15626799999995
30
-317.00000000000006
10
459.56966399999999
20
458.42702300000008
30
-317.00000000000006
0
SPLINE
5
150
100
AcDbEntity
8
0
100
AcDbSpline
70
1064
71
3
72
8
73
4
74
0
42
0.000000001
43
0.0000000001
44
0.0000000001
40
0
40
0
40
0
40
0
40
1
40
1
40
1
40
1
10
-14.263967999999998
20
474.98126600000006
30
-317.00000000000006
10
-13.375314999999999
20
474.98126399999995
30
-317.00000000000006
10
-12.654920999999998
20
474.26086900000001
30
-317.00000000000006
10
-12.654917999999997
20
473.37221900000003
30
-317.00000000000006
0
SPLINE
5
151
100
AcDbEntity
8
0
100
AcDbSpline
70
1064
71
3
72
8
73
4
74
0
42
0.000000001
43
0.0000000001
44
0.0000000001
40
0
40
0
40
0
40
0
40
1
40
1
40
1
40
1
10
65.218031999999994
20
7.4584500000000009
30
-317.00000000000006
10
65.218031999999994
20
8.6048360000000006
30
-317.00000000000006
10
66.130863000000005
20
9.5175960000000011
30
-317.00000000000006
10
67.277210000000011
20
9.5175960000000011
30
-317.00000000000006
0
SPLINE
5
152
100
AcDbEntity
8
0
100
AcDbSpline
70
1064
71
3
72
8
73
4
74
0
42
0.000000001
43
0.0000000001
44
0.0000000001
40
0
40
0
40
0
40
0
40
1
40
1
40
1
40
1
10
381.20563700000002
20
376.35845100000006
30
-317.00000000000006
10
381.20563700000002
20
377.50486899999999
30
-317.00000000000006
10
382.11847599999999
20
378.41757800000005
30
-317.00000000000006
10
383.26483600000006
20
378.41757800000005
30
-317.00000000000006
0
SPLINE
5
153
100
AcDbEntity
8
0
100
AcDbSpline
70
1064
71
3
72
8
73
4
74
0
42
0.000000001
43
0.0000000001
44
0.0000000001
40
0
40
0
40
0
40
0
40
1
40
1
40
1
40
1
10
446.97057599999999
20
472.85925999999995
30
-317.00000000000006
10
446.97057599999999
20
472.43251399999997
30
-317.00000000000006
10
447.14012100000002
20
472.02324299999998
30
-317.00000000000006
10
447.44187800000009
20
471.72148899999996
30
-317.00000000000006
0
SPLINE
5
154
100
AcDbEntity
8
0
100
AcDbSpline
70
1064
71
3
72
8
73
4
74
0
42
0.000000001
43
0.0000000001
44
0.0000000001
40
0
40
0
40
0
40
0
40
1
40
1
40
1
40
1
10
44.027208999999999
20
374.29925700000007
30
-317.00000000000006
10
42.880851000000007
20
374.29925700000007
30
-317.00000000000006
10
41.968031000000011
20
375.21210099999996
30
-317.00000000000006
10
41.968031000000011
20
376.35845100000006
30
-317.00000000000006
0
SPLINE
5
155
100
AcDbEntity
8
0
100
AcDbSpline
70
1064
71
3
72
8
73
4
74
0
42
0.000000001
43
0.0000000001
44
0.0000000001
40
0
40
0
40
0
40
0
40
1
40
1
40
1
40
1
10
48.116388999999998
20
7.4584500000000009
30
-317.00000000000006
10
48.116388999999998
20
6.3120890000000003
30
-317.00000000000006
10
47.203550000000014
20
5.3992239999999994
30
-317.00000000000006
10
46.057211000000002
20
5.3992239999999994
30
-317.00000000000006
0
LINE
5
156
100
AcDbEntity
8
0
100
AcDbLine
10
-12.502247999999998
20
56.013579000000007
30
-317.00000000000006
11
-12.502247999999998
21
66.013580000000019
31
-317.00000000000006
0
SPLINE
5
157
100
AcDbEntity
8
0
100
AcDbSpline
70
1064
71
3
72
8
73
4
74
0
42
0.000000001
43
0.0000000001
44
0.0000000001
40
0
40
0
40
0
40
0
40
1
40
1
40
1
40
1
10
69.336393000000015
20
7.4584500000000009
30
-317.00000000000006
10
69.336393000000015
20
6.3120890000000003
30
-317.00000000000006
10
68.423556999999988
20
5.3992239999999994
30
-317.00000000000006
10
67.277210000000011
20
5.3992239999999994
30
-317.00000000000006
0
SPLINE
5
158
100
AcDbEntity
8
0
100
AcDbSpline
70
1064
71
3
72
8
73
4
74
0
42
0.000000001
43
0.0000000001
44
0.0000000001
40
0
40
0
40
0
40
0
40
1
40
1
40
1
40
1
10
450.18870300000003
20
472.85925999999995
30
-317.00000000000006
10
450.18870300000003
20
473.28600899999998
30
-317.00000000000006
10
450.019184
20
473.69527800000009
30
-317.00000000000006
10
449.71742699999993
20
473.99703499999998
30
-317.00000000000006
0
SPLINE
5
159
100
AcDbEntity
8
0
100
AcDbSpline
70
1064
71
3
72
8
73
4
74
0
42
0.000000001
43
0.0000000001
44
0.0000000001
40
0
40
0
40
0
40
0
40
1
40
1
40
1
40
1
10
46.086387000000002
20
376.35845100000006
30
-317.00000000000006
10
46.086387000000002
20
375.21210099999996
30
-317.00000000000006
10
45.173537000000003
20
374.29925700000007
30
-317.00000000000006
10
44.027208999999999
20
374.29925700000007
30
-317.00000000000006
0
SPLINE
5
160
100
AcDbEntity
8
0
100
AcDbSpline
70
1064
71
3
72
8
73
4
74
0
42
0.000000001
43
0.0000000001
44
0.0000000001
40
0
40
0
40
0
40
0
40
1
40
1
40
1
40
1
10
373.74584200000004
20
5.1992250000000002
30
-317.00000000000006
10
372.59948199999997
20
5.1992250000000002
30
-317.00000000000006
10
371.68666900000005
20
6.1120910000000004
30
-317.00000000000006
10
371.68666900000005
20
7.2584509999999991
30
-317.00000000000006
0
SPLINE
5
161
100
AcDbEntity
8
0
100
AcDbSpline
70
1064
71
3
72
8
73
4
74
0
42
0.000000001
43
0.0000000001
44
0.0000000001
40
0
40
0
40
0
40
0
40
1
40
1
40
1
40
1
10
353.16482999999999
20
378.41757800000005
30
-317.00000000000006
10
354.31116400000002
20
378.41757800000005
30
-317.00000000000006
10
355.22400300000004
20
377.50486899999999
30
-317.00000000000006
10
355.22400300000004
20
376.35845100000006
30
-317.00000000000006
0
SPLINE
5
162
100
AcDbEntity
8
0
100
AcDbSpline
70
1064
71
3
72
8
73
4
74
0
42
0.000000001
43
0.0000000001
44
0.0000000001
40
0
40
0
40
0
40
0
40
1
40
1
40
1
40
1
10
394.96584800000005
20
9.3175969999999992
30
-317.00000000000006
10
396.11215600000003
20
9.3175969999999992
30
-317.00000000000006
10
397.02502100000004
20
8.4048379999999998
30
-317.00000000000006
10
397.02502100000004
20
7.2584509999999991
30
-317.00000000000006
0
SPLINE
5
163
100
AcDbEntity
8
0
100
AcDbSpline
70
1064
71
3
72
8
73
4
74
0
42
0.000000001
43
0.0000000001
44
0.0000000001
40
0
40
0
40
0
40
0
40
1
40
1
40
1
40
1
10
46.057211000000002
20
9.5175960000000011
30
-317.00000000000006
10
47.203550000000014
20
9.5175960000000011
30
-317.00000000000006
10
48.116388999999998
20
8.6048360000000006
30
-317.00000000000006
10
48.116388999999998
20
7.4584500000000009
30
-317.00000000000006
0
SPLINE
5
164
100
AcDbEntity
8
0
100
AcDbSpline
70
1064
71
3
72
8
73
4
74
0
42
0.000000001
43
0.0000000001
44
0.0000000001
40
0
40
0
40
0
40
0
40
1
40
1
40
1
40
1
10
-10.443246999999998
20
68.072890999999998
30
-317.00000000000006
10
-9.3060100000000006
20
68.072806
30
-317.00000000000006
10
-8.3841619999999999
20
67.150825999999995
30
-317.00000000000006
10
-8.3842489999999987
20
66.013580000000019
30
-317.00000000000006
0
SPLINE
5
165
100
AcDbEntity
8
0
100
AcDbSpline
70
1064
71
3
72
8
73
4
74
0
42
0.000000001
43
0.0000000001
44
0.0000000001
40
0
40
0
40
0
40
0
40
1
40
1
40
1
40
1
10
117.36803100000002
20
290.34024799999997
30
-317.00000000000006
10
117.36803100000002
20
291.48666400000002
30
-317.00000000000006
10
118.28086200000001
20
292.39944100000002
30
-317.00000000000006
10
119.427209
20
292.39944100000002
30
-317.00000000000006
0
LINE
5
166
100
AcDbEntity
8
0
100
AcDbLine
10
17.607454000000004
20
56.013918000000011
30
-317.00000000000006
11
17.607454000000004
21
66.013914
31
-317.00000000000006
0
SPLINE
5
167
100
AcDbEntity
8
0
100
AcDbSpline
70
1064
71
3
72
8
73
4
74
0
42
0.000000001
43
0.0000000001
44
0.0000000001
40
0
40
0
40
0
40
0
40
1
40
1
40
1
40
1
10
37.736395999999999
20
450.38244600000007
30
-317.00000000000006
10
37.736395999999999
20
449.23609400000004
30
-317.00000000000006
10
36.823551999999999
20
448.32325200000002
30
-317.00000000000006
10
35.677213000000009
20
448.32325200000002
30
-317.00000000000006
0
SPLINE
5
168
100
AcDbEntity
8
0
100
AcDbSpline
70
1064
71
3
72
8
73
4
74
0
42
0.000000001
43
0.0000000001
44
0.0000000001
40
0
40
0
40
0
40
0
40
1
40
1
40
1
40
1
10
217.46802900000003
20
290.44028300000002
30
-317.00000000000006
10
217.46802900000003
20
291.58663300000001
30
-317.00000000000006
10
218.38086800000002
20
292.49941100000001
30
-317.00000000000006
10
219.52720200000002
20
292.49941100000001
30
-317.00000000000006
0
SPLINE
5
169
100
AcDbEntity
8
0
100
AcDbSpline
70
1064
71
3
72
8
73
4
74
0
42
0.000000001
43
0.0000000001
44
0.0000000001
40
0
40
0
40
0
40
0
40
1
40
1
40
1
40
1
10
37.736395999999999
20
350.382429
30
-317.00000000000006
10
37.736395999999999
20
349.23607900000002
30
-317.00000000000006
10
36.823556999999994
20
348.32323500000001
30
-317.00000000000006
10
35.677213000000009
20
348.32323500000001
30
-317.00000000000006
0
SPLINE
5
170
100
AcDbEntity
8
0
100
AcDbSpline
70
1064
71
3
72
8
73
4
74
0
42
0.000000001
43
0.0000000001
44
0.0000000001
40
0
40
0
40
0
40
0
40
1
40
1
40
1
40
1
10
-17.622789999999998
20
312.25161000000003
30
-317.00000000000006
10
-16.476445999999999
20
312.25161000000003
30
-317.00000000000006
10
-15.563606999999999
20
311.33883300000002
30
-317.00000000000006
10
-15.563606999999999
20
310.19241699999998
30
-317.00000000000006
0
SPLINE
5
171
100
AcDbEntity
8
0
100
AcDbSpline
70
1064
71
3
72
8
73
4
74
0
42
0.000000001
43
0.0000000001
44
0.0000000001
40
0
40
0
40
0
40
0
40
1
40
1
40
1
40
1
10
370.54975400000001
20
68.072564999999997
30
-317.00000000000006
10
371.68701300000004
20
68.072478000000004
30
-317.00000000000006
10
372.60884800000008
20
67.150494999999992
30
-317.00000000000006
10
372.60876800000005
20
66.013255000000001
30
-317.00000000000006
0
SPLINE
5
172
100
AcDbEntity
8
0
100
AcDbSpline
70
1064
71
3
72
8
73
4
74
0
42
0.000000001
43
0.0000000001
44
0.0000000001
40
0
40
0
40
0
40
0
40
1
40
1
40
1
40
1
10
35.677213000000009
20
188.31822900000003
30
-317.00000000000006
10
34.530866000000003
20
188.31822900000003
30
-317.00000000000006
10
33.618035000000006
20
189.23107300000001
30
-317.00000000000006
10
33.618035000000006
20
190.37742300000002
30
-317.00000000000006
0
SPLINE
5
173
100
AcDbEntity
8
0
100
AcDbSpline
70
1064
71
3
72
8
73
4
74
0
42
0.000000001
43
0.0000000001
44
0.0000000001
40
0
40
0
40
0
40
0
40
1
40
1
40
1
40
1
10
372.60876800000005
20
56.013261999999997
30
-317.00000000000006
10
372.60884800000008
20
54.876016000000007
30
-317.00000000000006
10
371.68701300000004
20
53.954031000000015
30
-317.00000000000006
10
370.54975400000001
20
53.953945999999995
30
-317.00000000000006
0
LINE
5
174
100
AcDbEntity
8
0
100
AcDbLine
10
372.60876800000005
20
66.013255000000001
30
-317.00000000000006
11
372.60876800000005
21
56.013261999999997
31
-317.00000000000006
0
LINE
5
175
100
AcDbEntity
8
0
100
AcDbLine
10
398.60048300000005
20
66.013593999999998
30
-317.00000000000006
11
398.60048300000005
21
56.01359200000001
31
-317.00000000000006
0
SPLINE
5
176
100
AcDbEntity
8
0
100
AcDbSpline
70
1064
71
3
72
8
73
4
74
0
42
0.000000001
43
0.0000000001
44
0.0000000001
40
0
40
0
40
0
40
0
40
1
40
1
40
1
40
1
10
119.427209
20
292.39944100000002
30
-317.00000000000006
10
120.57355600000001
20
292.39944100000002
30
-317.00000000000006
10
121.486395
20
291.48666400000002
30
-317.00000000000006
10
121.486395
20
290.34024799999997
30
-317.00000000000006
0
SPLINE
5
177
100
AcDbEntity
8
0
100
AcDbSpline
70
1064
71
3
72
8
73
4
74
0
42
0.000000001
43
0.0000000001
44
0.0000000001
40
0
40
0
40
0
40
0
40
1
40
1
40
1
40
1
10
321.58638600000006
20
290.34026600000004
30
-317.00000000000006
10
321.58638600000006
20
289.19391500000006
30
-317.00000000000006
10
320.67354700000004
20
288.281071
30
-317.00000000000006
10
319.52721300000002
20
288.281071
30
-317.00000000000006
0
SPLINE
5
178
100
AcDbEntity
8
0
100
AcDbSpline
70
1064
71
3
72
8
73
4
74
0
42
0.000000001
43
0.0000000001
44
0.0000000001
40
0
40
0
40
0
40
0
40
1
40
1
40
1
40
1
10
35.677213000000009
20
348.32323500000001
30
-317.00000000000006
10
34.530866000000003
20
348.32323500000001
30
-317.00000000000006
10
33.618035000000006
20
349.23607900000002
30
-317.00000000000006
10
33.618035000000006
20
350.382429
30
-317.00000000000006
0
SPLINE
5
179
100
AcDbEntity
8
0
100
AcDbSpline
70
1064
71
3
72
8
73
4
74
0
42
0.000000001
43
0.0000000001
44
0.0000000001
40
0
40
0
40
0
40
0
40
1
40
1
40
1
40
1
10
402.71848400000005
20
56.01359200000001
30
-317.00000000000006
10
402.71856299999996
20
54.876352000000004
30
-317.00000000000006
10
401.79670200000004
20
53.954371999999999
30
-317.00000000000006
10
400.65947
20
53.954287000000001
30
-317.00000000000006
0
SPLINE
5
180
100
AcDbEntity
8
0
100
AcDbSpline
70
1064
71
3
72
8
73
4
74
0
42
0.000000001
43
0.0000000001
44
0.0000000001
40
0
40
0
40
0
40
0
40
1
40
1
40
1
40
1
10
219.52720200000002
20
292.49941100000001
30
-317.00000000000006
10
220.67356200000003
20
292.49941100000001
30
-317.00000000000006
10
221.586401
20
291.58663300000001
30
-317.00000000000006
10
221.586401
20
290.44028300000002
30
-317.00000000000006
0
LINE
5
181
100
AcDbEntity
8
0
100
AcDbLine
10
398.60048300000005
20
56.01359200000001
30
-317.00000000000006
11
398.60048300000005
21
66.013593999999998
31
-317.00000000000006
0
SPLINE
5
182
100
AcDbEntity
8
0
100
AcDbSpline
70
1064
71
3
72
8
73
4
74
0
42
0.000000001
43
0.0000000001
44
0.0000000001
40
0
40
0
40
0
40
0
40
1
40
1
40
1
40
1
10
400.65947
20
68.072904000000008
30
-317.00000000000006
10
401.79670200000004
20
68.072817000000015
30
-317.00000000000006
10
402.71856299999996
20
67.150834000000003
30
-317.00000000000006
10
402.71848400000005
20
66.013593999999998
30
-317.00000000000006
0
SPLINE
5
183
100
AcDbEntity
8
0
100
AcDbSpline
70
1064
71
3
72
8
73
4
74
0
42
0.000000001
43
0.0000000001
44
0.0000000001
40
0
40
0
40
0
40
0
40
1
40
1
40
1
40
1
10
33.618035000000006
20
33.802442999999997
30
-317.00000000000006
10
33.618035000000006
20
34.948827000000001
30
-317.00000000000006
10
34.530866000000003
20
35.861590000000007
30
-317.00000000000006
10
35.677213000000009
20
35.861590000000007
30
-317.00000000000006
0
SPLINE
5
184
100
AcDbEntity
8
0
100
AcDbSpline
70
1064
71
3
72
8
73
4
74
0
42
0.000000001
43
0.0000000001
44
0.0000000001
40
0
40
0
40
0
40
0
40
1
40
1
40
1
40
1
10
368.49076700000006
20
66.013255000000001
30
-317.00000000000006
10
368.49068799999998
20
67.150494999999992
30
-317.00000000000006
10
369.41252200000008
20
68.072478000000004
30
-317.00000000000006
10
370.54975400000001
20
68.072564999999997
30
-317.00000000000006
0
LINE
5
185
100
AcDbEntity
8
0
100
AcDbLine
10
368.49076700000006
20
56.013261999999997
30
-317.00000000000006
11
368.49076700000006
21
66.013255000000001
31
-317.00000000000006
0
SPLINE
5
186
100
AcDbEntity
8
0
100
AcDbSpline
70
1064
71
3
72
8
73
4
74
0
42
0.000000001
43
0.0000000001
44
0.0000000001
40
0
40
0
40
0
40
0
40
1
40
1
40
1
40
1
10
370.54975400000001
20
53.953945999999995
30
-317.00000000000006
10
369.41252200000008
20
53.954031000000015
30
-317.00000000000006
10
368.49068799999998
20
54.876016000000007
30
-317.00000000000006
10
368.49076700000006
20
56.013261999999997
30
-317.00000000000006
0
SPLINE
5
187
100
AcDbEntity
8
0
100
AcDbSpline
70
1064
71
3
72
8
73
4
74
0
42
0.000000001
43
0.0000000001
44
0.0000000001
40
0
40
0
40
0
40
0
40
1
40
1
40
1
40
1
10
317.46804100000008
20
290.34026600000004
30
-317.00000000000006
10
317.46804100000008
20
291.48661499999997
30
-317.00000000000006
10
318.380853
20
292.39939199999998
30
-317.00000000000006
10
319.52721300000002
20
292.39939199999998
30
-317.00000000000006
0
LINE
5
188
100
AcDbEntity
8
0
100
AcDbLine
10
-24.867708
20
459.13744000000008
30
-317.00000000000006
11
-24.863414000000002
21
0.13242800000000443
31
-317.00000000000006
0
LINE
5
189
100
AcDbEntity
8
0
100
AcDbLine
10
372.60876800000005
20
56.013261999999997
30
-317.00000000000006
11
372.60876800000005
21
66.013255000000001
31
-317.00000000000006
0
LINE
5
190
100
AcDbEntity
8
0
100
AcDbLine
10
17.607454000000004
20
66.013914
30
-317.00000000000006
11
17.607454000000004
21
56.013918000000011
31
-317.00000000000006
0
SPLINE
5
191
100
AcDbEntity
8
0
100
AcDbSpline
70
1064
71
3
72
8
73
4
74
0
42
0.000000001
43
0.0000000001
44
0.0000000001
40
0
40
0
40
0
40
0
40
1
40
1
40
1
40
1
10
-15.563606999999999
20
310.19241699999998
30
-317.00000000000006
10
-15.563606999999999
20
309.046065
30
-317.00000000000006
10
-16.476445999999999
20
308.13322200000005
30
-317.00000000000006
10
-17.622789999999998
20
308.13322200000005
30
-317.00000000000006
0
SPLINE
5
192
100
AcDbEntity
8
0
100
AcDbSpline
70
1064
71
3
72
8
73
4
74
0
42
0.000000001
43
0.0000000001
44
0.0000000001
40
0
40
0
40
0
40
0
40
1
40
1
40
1
40
1
10
319.52721300000002
20
288.281071
30
-317.00000000000006
10
318.380853
20
288.281071
30
-317.00000000000006
10
317.46804100000008
20
289.19391500000006
30
-317.00000000000006
10
317.46804100000008
20
290.34026600000004
30
-317.00000000000006
0
LINE
5
193
100
AcDbEntity
8
0
100
AcDbLine
10
345.61613599999998
20
278.35925400000002
30
-317.00000000000006
11
345.63597900000002
21
0.13234900000000493
31
-317.00000000000006
0
SPLINE
5
194
100
AcDbEntity
8
0
100
AcDbSpline
70
1064
71
3
72
8
73
4
74
0
42
0.000000001
43
0.0000000001
44
0.0000000001
40
0
40
0
40
0
40
0
40
1
40
1
40
1
40
1
10
35.677213000000009
20
35.861590000000007
30
-317.00000000000006
10
36.823551999999999
20
35.861590000000007
30
-317.00000000000006
10
37.736395999999999
20
34.948827000000001
30
-317.00000000000006
10
37.736395999999999
20
33.802442999999997
30
-317.00000000000006
0
SPLINE
5
195
100
AcDbEntity
8
0
100
AcDbSpline
70
1064
71
3
72
8
73
4
74
0
42
0.000000001
43
0.0000000001
44
0.0000000001
40
0
40
0
40
0
40
0
40
1
40
1
40
1
40
1
10
19.666452000000003
20
53.954613000000009
30
-317.00000000000006
10
18.529212000000001
20
53.954696999999996
30
-317.00000000000006
10
17.607364000000008
20
54.876680000000007
30
-317.00000000000006
10
17.607454000000004
20
56.013918000000011
30
-317.00000000000006
0
LINE
5
196
100
AcDbEntity
8
0
100
AcDbLine
10
-24.863414000000002
20
0.13242800000000443
30
-317.00000000000006
11
75.636556083128013
21
-0.59330288967580525
31
-317.00000000000006
0
LINE
5
197
100
AcDbEntity
8
0
100
AcDbLine
10
21.725456000000001
20
56.013918000000011
30
-317.00000000000006
11
21.725456000000001
21
66.013914
31
-317.00000000000006
0
LINE
5
198
100
AcDbEntity
8
0
100
AcDbLine
10
402.71848400000005
20
66.013593999999998
30
-317.00000000000006
11
402.71848400000005
21
56.01359200000001
31
-317.00000000000006
0
LINE
5
199
100
AcDbEntity
8
0
100
AcDbLine
10
345.63592599999998
20
0.13234899999999999
30
-317.00000000000006
11
459.37395100000003
21
0.13229600000000002
31
-317.00000000000006
0
SPLINE
5
200
100
AcDbEntity
8
0
100
AcDbSpline
70
1064
71
3
72
8
73
4
74
0
42
0.000000001
43
0.0000000001
44
0.0000000001
40
0
40
0
40
0
40
0
40
1
40
1
40
1
40
1
10
354.726877
20
192.43960600000003
30
-317.00000000000006
10
355.87321099999997
20
192.43960600000003
30
-317.00000000000006
10
356.78604999999999
20
191.52682800000002
30
-317.00000000000006
10
356.78604999999999
20
190.38047900000004
30
-317.00000000000006
0
SPLINE
5
201
100
AcDbEntity
8
0
100
AcDbSpline
70
1064
71
3
72
8
73
4
74
0
42
0.000000001
43
0.0000000001
44
0.0000000001
40
0
40
0
40
0
40
0
40
1
40
1
40
1
40
1
10
-8.3842489999999987
20
56.013579000000007
30
-317.00000000000006
10
-8.3841649999999994
20
54.876342000000008
30
-317.00000000000006
10
-9.3060130000000001
20
53.954358999999997
30
-317.00000000000006
10
-10.443252999999999
20
53.954273999999998
30
-317.00000000000006
0
LINE
5
202
100
AcDbEntity
8
0
100
AcDbLine
10
-12.502247999999998
20
66.013580000000019
30
-317.00000000000006
11
-12.502247999999998
21
56.013579000000007
31
-317.00000000000006
0
SPLINE
5
203
100
AcDbEntity
8
0
100
AcDbSpline
70
1064
71
3
72
8
73
4
74
0
42
0.000000001
43
0.0000000001
44
0.0000000001
40
0
40
0
40
0
40
0
40
1
40
1
40
1
40
1
10
398.60048300000005
20
66.013593999999998
30
-317.00000000000006
10
398.60037699999998
20
67.150834000000003
30
-317.00000000000006
10
399.52223800000007
20
68.072817000000015
30
-317.00000000000006
10
400.65947
20
68.072904000000008
30
-317.00000000000006
0
SPLINE
5
204
100
AcDbEntity
8
0
100
AcDbSpline
70
1064
71
3
72
8
73
4
74
0
42
0.000000001
43
0.0000000001
44
0.0000000001
40
0
40
0
40
0
40
0
40
1
40
1
40
1
40
1
10
35.677213000000009
20
352.44162299999999
30
-317.00000000000006
10
36.823556999999994
20
352.44162299999999
30
-317.00000000000006
10
37.736395999999999
20
351.5288470000001
30
-317.00000000000006
10
37.736395999999999
20
350.382429
30
-317.00000000000006
0
SPLINE
5
205
100
AcDbEntity
8
0
100
AcDbSpline
70
1064
71
3
72
8
73
4
74
0
42
0.000000001
43
0.0000000001
44
0.0000000001
40
0
40
0
40
0
40
0
40
1
40
1
40
1
40
1
10
-12.502247999999998
20
66.013580000000019
30
-317.00000000000006
10
-12.502332999999998
20
67.150825999999995
30
-317.00000000000006
10
-11.580487
20
68.072806
30
-317.00000000000006
10
-10.443246999999998
20
68.072890999999998
30
-317.00000000000006
0
LINE
5
206
100
AcDbEntity
8
0
100
AcDbLine
10
75.636556083128013
20
-0.59330288967580525
30
-317.00000000000006
11
-24.863414000000002
21
0.13242800000000443
31
-317.00000000000006
0
LINE
5
207
100
AcDbEntity
8
0
100
AcDbLine
10
21.725456000000001
20
66.013914
30
-317.00000000000006
11
21.725456000000001
21
56.013918000000011
31
-317.00000000000006
0
LINE
5
208
100
AcDbEntity
8
0
100
AcDbLine
10
368.49076700000006
20
66.013255000000001
30
-317.00000000000006
11
368.49076700000006
21
56.013261999999997
31
-317.00000000000006
0
SPLINE
5
209
100
AcDbEntity
8
0
100
AcDbSpline
70
1064
71
3
72
8
73
4
74
0
42
0.000000001
43
0.0000000001
44
0.0000000001
40
0
40
0
40
0
40
0
40
1
40
1
40
1
40
1
10
354.72685100000001
20
348.32323500000001
30
-317.00000000000006
10
353.58049100000005
20
348.32323500000001
30
-317.00000000000006
10
352.66767799999997
20
349.23607900000002
30
-317.00000000000006
10
352.66767799999997
20
350.382429
30
-317.00000000000006
0
SPLINE
5
210
100
AcDbEntity
8
0
100
AcDbSpline
70
1064
71
3
72
8
73
4
74
0
42
0.000000001
43
0.0000000001
44
0.0000000001
40
0
40
0
40
0
40
0
40
1
40
1
40
1
40
1
10
221.586401
20
290.44028300000002
30
-317.00000000000006
10
221.586401
20
289.29393199999998
30
-317.00000000000006
10
220.67356200000003
20
288.38102200000003
30
-317.00000000000006
10
219.52720200000002
20
288.38102200000003
30
-317.00000000000006
0
SPLINE
5
211
100
AcDbEntity
8
0
100
AcDbSpline
70
1064
71
3
72
8
73
4
74
0
42
0.000000001
43
0.0000000001
44
0.0000000001
40
0
40
0
40
0
40
0
40
1
40
1
40
1
40
1
10
19.666455000000003
20
68.07322099999999
30
-317.00000000000006
10
20.803691999999998
20
68.073137000000003
30
-317.00000000000006
10
21.725540000000009
20
67.151150999999999
30
-317.00000000000006
10
21.725456000000001
20
66.013914
30
-317.00000000000006
0
LINE
5
212
100
AcDbEntity
8
0
100
AcDbLine
10
-8.3842489999999987
20
56.013579000000007
30
-317.00000000000006
11
-8.3842489999999987
21
66.013580000000019
31
-317.00000000000006
0
SPLINE
5
213
100
AcDbEntity
8
0
100
AcDbSpline
70
1064
71
3
72
8
73
4
74
0
42
0.000000001
43
0.0000000001
44
0.0000000001
40
0
40
0
40
0
40
0
40
1
40
1
40
1
40
1
10
37.736395999999999
20
33.802442999999997
30
-317.00000000000006
10
37.736395999999999
20
32.656086000000002
30
-317.00000000000006
10
36.823551999999999
20
31.743231000000005
30
-317.00000000000006
10
35.677213000000009
20
31.743231000000005
30
-317.00000000000006
0
LINE
5
214
100
AcDbEntity
8
0
100
AcDbLine
10
-8.3842489999999987
20
66.013580000000019
30
-317.00000000000006
11
-8.3842489999999987
21
56.013579000000007
31
-317.00000000000006
0
SPLINE
5
215
100
AcDbEntity
8
0
100
AcDbSpline
70
1064
71
3
72
8
73
4
74
0
42
0.000000001
43
0.0000000001
44
0.0000000001
40
0
40
0
40
0
40
0
40
1
40
1
40
1
40
1
10
-10.443252999999999
20
53.954273999999998
30
-317.00000000000006
10
-11.580489999999999
20
53.954358999999997
30
-317.00000000000006
10
-12.502338
20
54.876342000000008
30
-317.00000000000006
10
-12.502247999999998
20
56.013579000000007
30
-317.00000000000006
0
SPLINE
5
216
100
AcDbEntity
8
0
100
AcDbSpline
70
1064
71
3
72
8
73
4
74
0
42
0.000000001
43
0.0000000001
44
0.0000000001
40
0
40
0
40
0
40
0
40
1
40
1
40
1
40
1
10
17.607454000000004
20
66.013914
30
-317.00000000000006
10
17.607370000000007
20
67.151150999999999
30
-317.00000000000006
10
18.529215000000001
20
68.073137000000003
30
-317.00000000000006
10
19.666455000000003
20
68.07322099999999
30
-317.00000000000006
0
SPLINE
5
217
100
AcDbEntity
8
0
100
AcDbSpline
70
1064
71
3
72
8
73
4
74
0
42
0.000000001
43
0.0000000001
44
0.0000000001
40
0
40
0
40
0
40
0
40
1
40
1
40
1
40
1
10
-14.244605999999999
20
7.4584500000000009
30
-317.00000000000006
10
-14.244605999999999
20
6.3120890000000003
30
-317.00000000000006
10
-15.157449999999999
20
5.3992239999999994
30
-317.00000000000006
10
-16.303788999999998
20
5.3992239999999994
30
-317.00000000000006
0
SPLINE
5
218
100
AcDbEntity
8
0
100
AcDbSpline
70
1064
71
3
72
8
73
4
74
0
42
0.000000001
43
0.0000000001
44
0.0000000001
40
0
40
0
40
0
40
0
40
1
40
1
40
1
40
1
10
352.66767799999997
20
33.802442999999997
30
-317.00000000000006
10
352.66767799999997
20
34.948827000000001
30
-317.00000000000006
10
353.58051699999999
20
35.861590000000007
30
-317.00000000000006
10
354.72685100000001
20
35.861590000000007
30
-317.00000000000006
0
SPLINE
5
219
100
AcDbEntity
8
0
100
AcDbSpline
70
1064
71
3
72
8
73
4
74
0
42
0.000000001
43
0.0000000001
44
0.0000000001
40
0
40
0
40
0
40
0
40
1
40
1
40
1
40
1
10
352.66767799999997
20
190.38047900000004
30
-317.00000000000006
10
352.66767799999997
20
191.52682800000002
30
-317.00000000000006
10
353.58051699999999
20
192.43960600000003
30
-317.00000000000006
10
354.726877
20
192.43960600000003
30
-317.00000000000006
0
SPLINE
5
220
100
AcDbEntity
8
0
100
AcDbSpline
70
1064
71
3
72
8
73
4
74
0
42
0.000000001
43
0.0000000001
44
0.0000000001
40
0
40
0
40
0
40
0
40
1
40
1
40
1
40
1
10
354.72685100000001
20
352.44162299999999
30
-317.00000000000006
10
355.87318500000003
20
352.44162299999999
30
-317.00000000000006
10
356.786024
20
351.5288470000001
30
-317.00000000000006
10
356.786024
20
350.382429
30
-317.00000000000006
0
SPLINE
5
221
100
AcDbEntity
8
0
100
AcDbSpline
70
1064
71
3
72
8
73
4
74
0
42
0.000000001
43
0.0000000001
44
0.0000000001
40
0
40
0
40
0
40
0
40
1
40
1
40
1
40
1
10
450.11766200000005
20
110.19245100000001
30
-317.00000000000006
10
450.11766200000005
20
111.33883500000002
30
-317.00000000000006
10
451.03050099999996
20
112.251597
30
-317.00000000000006
10
452.17686100000009
20
112.251597
30
-317.00000000000006
0
SPLINE
5
222
100
AcDbEntity
8
0
100
AcDbSpline
70
1064
71
3
72
8
73
4
74
0
42
0.000000001
43
0.0000000001
44
0.0000000001
40
0
40
0
40
0
40
0
40
1
40
1
40
1
40
1
10
431.73502100000007
20
7.4584500000000009
30
-317.00000000000006
10
431.73502100000007
20
6.3120890000000003
30
-317.00000000000006
10
430.82218200000005
20
5.3992239999999994
30
-317.00000000000006
10
429.67584800000003
20
5.3992239999999994
30
-317.00000000000006
0
SPLINE
5
223
100
AcDbEntity
8
0
100
AcDbSpline
70
1064
71
3
72
8
73
4
74
0
42
0.000000001
43
0.0000000001
44
0.0000000001
40
0
40
0
40
0
40
0
40
1
40
1
40
1
40
1
10
33.618035000000006
20
450.38244600000007
30
-317.00000000000006
10
33.618035000000006
20
451.52886200000006
30
-317.00000000000006
10
34.530866000000003
20
452.44157400000006
30
-317.00000000000006
10
35.677213000000009
20
452.44157400000006
30
-317.00000000000006
0
SPLINE
5
224
100
AcDbEntity
8
0
100
AcDbSpline
70
1064
71
3
72
8
73
4
74
0
42
0.000000001
43
0.0000000001
44
0.0000000001
40
0
40
0
40
0
40
0
40
1
40
1
40
1
40
1
10
119.427209
20
288.28105299999999
30
-317.00000000000006
10
118.28086200000001
20
288.28105299999999
30
-317.00000000000006
10
117.36803100000002
20
289.19389699999999
30
-317.00000000000006
10
117.36803100000002
20
290.34024799999997
30
-317.00000000000006
0
SPLINE
5
225
100
AcDbEntity
8
0
100
AcDbSpline
70
1064
71
3
72
8
73
4
74
0
42
0.000000001
43
0.0000000001
44
0.0000000001
40
0
40
0
40
0
40
0
40
1
40
1
40
1
40
1
10
452.17686100000009
20
311.90157299999998
30
-317.00000000000006
10
453.32316900000012
20
311.90157299999998
30
-317.00000000000006
10
454.23603399999996
20
310.98886100000004
30
-317.00000000000006
10
454.23603399999996
20
309.842445
30
-317.00000000000006
0
SPLINE
5
226
100
AcDbEntity
8
0
100
AcDbSpline
70
1064
71
3
72
8
73
4
74
0
42
0.000000001
43
0.0000000001
44
0.0000000001
40
0
40
0
40
0
40
0
40
1
40
1
40
1
40
1
10
319.52721300000002
20
292.39939199999998
30
-317.00000000000006
10
320.67354700000004
20
292.39939199999998
30
-317.00000000000006
10
321.58638600000006
20
291.48661499999997
30
-317.00000000000006
10
321.58638600000006
20
290.34026600000004
30
-317.00000000000006
0
SPLINE
5
227
100
AcDbEntity
8
0
100
AcDbSpline
70
1064
71
3
72
8
73
4
74
0
42
0.000000001
43
0.0000000001
44
0.0000000001
40
0
40
0
40
0
40
0
40
1
40
1
40
1
40
1
10
121.486395
20
290.34024799999997
30
-317.00000000000006
10
121.486395
20
289.19389699999999
30
-317.00000000000006
10
120.57355600000001
20
288.28105299999999
30
-317.00000000000006
10
119.427209
20
288.28105299999999
30
-317.00000000000006
0
SPLINE
5
228
100
AcDbEntity
8
0
100
AcDbSpline
70
1064
71
3
72
8
73
4
74
0
42
0.000000001
43
0.0000000001
44
0.0000000001
40
0
40
0
40
0
40
0
40
1
40
1
40
1
40
1
10
450.11766200000005
20
309.842445
30
-317.00000000000006
10
450.11766200000005
20
310.98886100000004
30
-317.00000000000006
10
451.03050099999996
20
311.90157299999998
30
-317.00000000000006
10
452.17686100000009
20
311.90157299999998
30
-317.00000000000006
0
SPLINE
5
229
100
AcDbEntity
8
0
100
AcDbSpline
70
1064
71
3
72
8
73
4
74
0
42
0.000000001
43
0.0000000001
44
0.0000000001
40
0
40
0
40
0
40
0
40
1
40
1
40
1
40
1
10
354.72685100000001
20
31.743231000000005
30
-317.00000000000006
10
353.58051699999999
20
31.743231000000005
30
-317.00000000000006
10
352.66767799999997
20
32.656086000000002
30
-317.00000000000006
10
352.66767799999997
20
33.802442999999997
30
-317.00000000000006
0
SPLINE
5
230
100
AcDbEntity
8
0
100
AcDbSpline
70
1064
71
3
72
8
73
4
74
0
42
0.000000001
43
0.0000000001
44
0.0000000001
40
0
40
0
40
0
40
0
40
1
40
1
40
1
40
1
10
429.67584800000003
20
9.5175960000000011
30
-317.00000000000006
10
430.82218200000005
20
9.5175960000000011
30
-317.00000000000006
10
431.73502100000007
20
8.6048360000000006
30
-317.00000000000006
10
431.73502100000007
20
7.4584500000000009
30
-317.00000000000006
0
SPLINE
5
231
100
AcDbEntity
8
0
100
AcDbSpline
70
1064
71
3
72
8
73
4
74
0
42
0.000000001
43
0.0000000001
44
0.0000000001
40
0
40
0
40
0
40
0
40
1
40
1
40
1
40
1
10
-17.622789999999998
20
308.13322200000005
30
-317.00000000000006
10
-18.769137000000001
20
308.13322200000005
30
-317.00000000000006
10
-19.681970999999997
20
309.046065
30
-317.00000000000006
10
-19.681970999999997
20
310.19241699999998
30
-317.00000000000006
0
LINE
5
232
100
AcDbEntity
8
0
100
AcDbLine
10
459.37395100000003
20
0.13229600000000002
30
-317.00000000000006
11
345.63592599999998
21
0.13234899999999999
31
-317.00000000000006
0
LINE
5
233
100
AcDbEntity
8
0
100
AcDbLine
10
459.56966399999999
20
458.42702300000008
30
-317.00000000000006
11
459.37395100000003
21
0.13229600000000002
31
-317.00000000000006
0
SPLINE
5
234
100
AcDbEntity
8
0
100
AcDbSpline
70
1064
71
3
72
8
73
4
74
0
42
0.000000001
43
0.0000000001
44
0.0000000001
40
0
40
0
40
0
40
0
40
1
40
1
40
1
40
1
10
35.677213000000009
20
452.44157400000006
30
-317.00000000000006
10
36.823551999999999
20
452.44157400000006
30
-317.00000000000006
10
37.736395999999999
20
451.52886200000006
30
-317.00000000000006
10
37.736395999999999
20
450.38244600000007
30
-317.00000000000006
0
SPLINE
5
235
100
AcDbEntity
8
0
100
AcDbSpline
70
1064
71
3
72
8
73
4
74
0
42
0.000000001
43
0.0000000001
44
0.0000000001
40
0
40
0
40
0
40
0
40
1
40
1
40
1
40
1
10
35.677213000000009
20
448.32325200000002
30
-317.00000000000006
10
34.530866000000003
20
448.32325200000002
30
-317.00000000000006
10
33.618035000000006
20
449.23609400000004
30
-317.00000000000006
10
33.618035000000006
20
450.38244600000007
30
-317.00000000000006
0
SPLINE
5
236
100
AcDbEntity
8
0
100
AcDbSpline
70
1064
71
3
72
8
73
4
74
0
42
0.000000001
43
0.0000000001
44
0.0000000001
40
0
40
0
40
0
40
0
40
1
40
1
40
1
40
1
10
354.726877
20
188.32128500000005
30
-317.00000000000006
10
353.58051699999999
20
188.32128500000005
30
-317.00000000000006
10
352.66767799999997
20
189.23412600000003
30
-317.00000000000006
10
352.66767799999997
20
190.38047900000004
30
-317.00000000000006
0
SPLINE
5
237
100
AcDbEntity
8
0
100
AcDbSpline
70
1064
71
3
72
8
73
4
74
0
42
0.000000001
43
0.0000000001
44
0.0000000001
40
0
40
0
40
0
40
0
40
1
40
1
40
1
40
1
10
409.69245100000001
20
34.793334000000002
30
-317.00000000000006
10
412.08648000000005
20
34.793537999999998
30
-317.00000000000006
10
414.02738400000004
20
32.62424
30
-317.00000000000006
10
414.02762199999995
20
29.948086000000004
30
-317.00000000000006
0
SPLINE
5
238
100
AcDbEntity
8
0
100
AcDbSpline
70
1064
71
3
72
8
73
4
74
0
42
0.000000001
43
0.0000000001
44
0.0000000001
40
0
40
0
40
0
40
0
40
1
40
1
40
1
40
1
10
-16.303788999999998
20
5.3992239999999994
30
-317.00000000000006
10
-17.450136000000001
20
5.3992239999999994
30
-317.00000000000006
10
-18.362973
20
6.3120890000000003
30
-317.00000000000006
10
-18.362973
20
7.4584500000000009
30
-317.00000000000006
0
SPLINE
5
239
100
AcDbEntity
8
0
100
AcDbSpline
70
1064
71
3
72
8
73
4
74
0
42
0.000000001
43
0.0000000001
44
0.0000000001
40
0
40
0
40
0
40
0
40
1
40
1
40
1
40
1
10
4.9162039999999996
20
5.3992239999999994
30
-317.00000000000006
10
3.7698650000000056
20
5.3992239999999994
30
-317.00000000000006
10
2.857031000000001
20
6.3120890000000003
30
-317.00000000000006
10
2.857031000000001
20
7.4584500000000009
30
-317.00000000000006
0
SPLINE
5
240
100
AcDbEntity
8
0
100
AcDbSpline
70
1064
71
3
72
8
73
4
74
0
42
0.000000001
43
0.0000000001
44
0.0000000001
40
0
40
0
40
0
40
0
40
1
40
1
40
1
40
1
10
452.17686100000009
20
112.251597
30
-317.00000000000006
10
453.32316900000012
20
112.251597
30
-317.00000000000006
10
454.23603399999996
20
111.33883500000002
30
-317.00000000000006
10
454.23603399999996
20
110.19245100000001
30
-317.00000000000006
0
SPLINE
5
241
100
AcDbEntity
8
0
100
AcDbSpline
70
1064
71
3
72
8
73
4
74
0
42
0.000000001
43
0.0000000001
44
0.0000000001
40
0
40
0
40
0
40
0
40
1
40
1
40
1
40
1
10
-19.681970999999997
20
310.19241699999998
30
-317.00000000000006
10
-19.681970999999997
20
311.33883300000002
30
-317.00000000000006
10
-18.769137000000001
20
312.25161000000003
30
-317.00000000000006
10
-17.622789999999998
20
312.25161000000003
30
-317.00000000000006
0
SPLINE
5
242
100
AcDbEntity
8
0
100
AcDbSpline
70
1064
71
3
72
8
73
4
74
0
42
0.000000001
43
0.0000000001
44
0.0000000001
40
0
40
0
40
0
40
0
40
1
40
1
40
1
40
1
10
13.927209000000005
20
378.41757800000005
30
-317.00000000000006
10
15.073542
20
378.41757800000005
30
-317.00000000000006
10
15.986387000000004
20
377.50486899999999
30
-317.00000000000006
10
15.986387000000004
20
376.35845100000006
30
-317.00000000000006
0
SPLINE
5
243
100
AcDbEntity
8
0
100
AcDbSpline
70
1064
71
3
72
8
73
4
74
0
42
0.000000001
43
0.0000000001
44
0.0000000001
40
0
40
0
40
0
40
0
40
1
40
1
40
1
40
1
10
354.72685100000001
20
35.861590000000007
30
-317.00000000000006
10
355.87321099999997
20
35.861590000000007
30
-317.00000000000006
10
356.78604999999999
20
34.948827000000001
30
-317.00000000000006
10
356.78604999999999
20
33.802442999999997
30
-317.00000000000006
0
SPLINE
5
244
100
AcDbEntity
8
0
100
AcDbSpline
70
1064
71
3
72
8
73
4
74
0
42
0.000000001
43
0.0000000001
44
0.0000000001
40
0
40
0
40
0
40
0
40
1
40
1
40
1
40
1
10
450.89585499999998
20
5.3992239999999994
30
-317.00000000000006
10
449.74949400000008
20
5.3992239999999994
30
-317.00000000000006
10
448.836656
20
6.3120890000000003
30
-317.00000000000006
10
448.836656
20
7.4584500000000009
30
-317.00000000000006
0
SPLINE
5
245
100
AcDbEntity
8
0
100
AcDbSpline
70
1064
71
3
72
8
73
4
74
0
42
0.000000001
43
0.0000000001
44
0.0000000001
40
0
40
0
40
0
40
0
40
1
40
1
40
1
40
1
10
-17.622786999999999
20
108.133257
30
-317.00000000000006
10
-18.769137000000001
20
108.133257
30
-317.00000000000006
10
-19.681970999999997
20
109.046102
30
-317.00000000000006
10
-19.681970999999997
20
110.192464
30
-317.00000000000006
0
SPLINE
5
246
100
AcDbEntity
8
0
100
AcDbSpline
70
1064
71
3
72
8
73
4
74
0
42
0.000000001
43
0.0000000001
44
0.0000000001
40
0
40
0
40
0
40
0
40
1
40
1
40
1
40
1
10
21.725456000000001
20
56.013918000000011
30
-317.00000000000006
10
21.725546000000008
20
54.876680000000007
30
-317.00000000000006
10
20.803697999999997
20
53.954696999999996
30
-317.00000000000006
10
19.666452000000003
20
53.954613000000009
30
-317.00000000000006
0
SPLINE
5
247
100
AcDbEntity
8
0
100
AcDbSpline
70
1064
71
3
72
8
73
4
74
0
42
0.000000001
43
0.0000000001
44
0.0000000001
40
0
40
0
40
0
40
0
40
1
40
1
40
1
40
1
10
37.736395999999999
20
190.37742300000002
30
-317.00000000000006
10
37.736395999999999
20
189.23107300000001
30
-317.00000000000006
10
36.823556999999994
20
188.31822900000003
30
-317.00000000000006
10
35.677213000000009
20
188.31822900000003
30
-317.00000000000006
0
SPLINE
5
248
100
AcDbEntity
8
0
100
AcDbSpline
70
1064
71
3
72
8
73
4
74
0
42
0.000000001
43
0.0000000001
44
0.0000000001
40
0
40
0
40
0
40
0
40
1
40
1
40
1
40
1
10
354.72685100000001
20
448.32325200000002
30
-317.00000000000006
10
353.58049100000005
20
448.32325200000002
30
-317.00000000000006
10
352.66767799999997
20
449.23609400000004
30
-317.00000000000006
10
352.66767799999997
20
450.38244600000007
30
-317.00000000000006
0
SPLINE
5
249
100
AcDbEntity
8
0
100
AcDbSpline
70
1064
71
3
72
8
73
4
74
0
42
0.000000001
43
0.0000000001
44
0.0000000001
40
0
40
0
40
0
40
0
40
1
40
1
40
1
40
1
10
452.17686100000009
20
307.78325000000001
30
-317.00000000000006
10
451.03050099999996
20
307.78325000000001
30
-317.00000000000006
10
450.11766200000005
20
308.69609400000002
30
-317.00000000000006
10
450.11766200000005
20
309.842445
30
-317.00000000000006
0
SPLINE
5
250
100
AcDbEntity
8
0
100
AcDbSpline
70
1064
71
3
72
8
73
4
74
0
42
0.000000001
43
0.0000000001
44
0.0000000001
40
0
40
0
40
0
40
0
40
1
40
1
40
1
40
1
10
-14.263967999999998
20
471.76316799999995
30
-317.00000000000006
10
-15.152624000000001
20
471.76316799999995
30
-317.00000000000006
10
-15.873021000000001
20
472.48356300000006
30
-317.00000000000006
10
-15.873025999999999
20
473.37221900000003
30
-317.00000000000006
0
SPLINE
5
251
100
AcDbEntity
8
0
100
AcDbSpline
70
1064
71
3
72
8
73
4
74
0
42
0.000000001
43
0.0000000001
44
0.0000000001
40
0
40
0
40
0
40
0
40
1
40
1
40
1
40
1
10
352.66767799999997
20
350.382429
30
-317.00000000000006
10
352.66767799999997
20
351.5288470000001
30
-317.00000000000006
10
353.58049100000005
20
352.44162299999999
30
-317.00000000000006
10
354.72685100000001
20
352.44162299999999
30
-317.00000000000006
0
SPLINE
5
252
100
AcDbEntity
8
0
100
AcDbSpline
70
1064
71
3
72
8
73
4
74
0
42
0.000000001
43
0.0000000001
44
0.0000000001
40
0
40
0
40
0
40
0
40
1
40
1
40
1
40
1
10
449.71742699999993
20
471.72148899999996
30
-317.00000000000006
10
450.019184
20
472.02324299999998
30
-317.00000000000006
10
450.18870300000003
20
472.43251399999997
30
-317.00000000000006
10
450.18870300000003
20
472.85925999999995
30
-317.00000000000006
0
SPLINE
5
253
100
AcDbEntity
8
0
100
AcDbSpline
70
1064
71
3
72
8
73
4
74
0
42
0.000000001
43
0.0000000001
44
0.0000000001
40
0
40
0
40
0
40
0
40
1
40
1
40
1
40
1
10
356.786024
20
350.382429
30
-317.00000000000006
10
356.786024
20
349.23607900000002
30
-317.00000000000006
10
355.87318500000003
20
348.32323500000001
30
-317.00000000000006
10
354.72685100000001
20
348.32323500000001
30
-317.00000000000006
0
SPLINE
5
254
100
AcDbEntity
8
0
100
AcDbSpline
70
1064
71
3
72
8
73
4
74
0
42
0.000000001
43
0.0000000001
44
0.0000000001
40
0
40
0
40
0
40
0
40
1
40
1
40
1
40
1
10
446.87683399999997
20
30.267596999999999
30
-317.00000000000006
10
448.023168
20
30.267596999999999
30
-317.00000000000006
10
448.93600700000007
20
29.354811000000002
30
-317.00000000000006
10
448.93600700000007
20
28.208450000000003
30
-317.00000000000006
0
SPLINE
5
255
100
AcDbEntity
8
0
100
AcDbSpline
70
1064
71
3
72
8
73
4
74
0
42
0.000000001
43
0.0000000001
44
0.0000000001
40
0
40
0
40
0
40
0
40
1
40
1
40
1
40
1
10
454.23603399999996
20
309.842445
30
-317.00000000000006
10
454.23603399999996
20
308.69609400000002
30
-317.00000000000006
10
453.32316900000012
20
307.78325000000001
30
-317.00000000000006
10
452.17686100000009
20
307.78325000000001
30
-317.00000000000006
0
SPLINE
5
256
100
AcDbEntity
8
0
100
AcDbSpline
70
1064
71
3
72
8
73
4
74
0
42
0.000000001
43
0.0000000001
44
0.0000000001
40
0
40
0
40
0
40
0
40
1
40
1
40
1
40
1
10
452.17686100000009
20
108.13324399999999
30
-317.00000000000006
10
451.03050099999996
20
108.13324399999999
30
-317.00000000000006
10
450.11766200000005
20
109.046094
30
-317.00000000000006
10
450.11766200000005
20
110.19245100000001
30
-317.00000000000006
0
SPLINE
5
257
100
AcDbEntity
8
0
100
AcDbSpline
70
1064
71
3
72
8
73
4
74
0
42
0.000000001
43
0.0000000001
44
0.0000000001
40
0
40
0
40
0
40
0
40
1
40
1
40
1
40
1
10
46.057211000000002
20
5.3992239999999994
30
-317.00000000000006
10
44.910859000000009
20
5.3992239999999994
30
-317.00000000000006
10
43.998032999999992
20
6.3120890000000003
30
-317.00000000000006
10
43.998032999999992
20
7.4584500000000009
30
-317.00000000000006
0
SPLINE
5
258
100
AcDbEntity
8
0
100
AcDbSpline
70
1064
71
3
72
8
73
4
74
0
42
0.000000001
43
0.0000000001
44
0.0000000001
40
0
40
0
40
0
40
0
40
1
40
1
40
1
40
1
10
356.78604999999999
20
190.38047900000004
30
-317.00000000000006
10
356.78604999999999
20
189.23412600000003
30
-317.00000000000006
10
355.87321099999997
20
188.32128500000005
30
-317.00000000000006
10
354.726877
20
188.32128500000005
30
-317.00000000000006
0
SPLINE
5
259
100
AcDbEntity
8
0
100
AcDbSpline
70
1064
71
3
72
8
73
4
74
0
42
0.000000001
43
0.0000000001
44
0.0000000001
40
0
40
0
40
0
40
0
40
1
40
1
40
1
40
1
10
371.68666900000005
20
7.2584509999999991
30
-317.00000000000006
10
371.68666900000005
20
8.4048379999999998
30
-317.00000000000006
10
372.59948199999997
20
9.3175969999999992
30
-317.00000000000006
10
373.74584200000004
20
9.3175969999999992
30
-317.00000000000006
0
SPLINE
5
260
100
AcDbEntity
8
0
100
AcDbSpline
70
1064
71
3
72
8
73
4
74
0
42
0.000000001
43
0.0000000001
44
0.0000000001
40
0
40
0
40
0
40
0
40
1
40
1
40
1
40
1
10
452.95502699999997
20
7.4584500000000009
30
-317.00000000000006
10
452.95502699999997
20
6.3120890000000003
30
-317.00000000000006
10
452.04218800000007
20
5.3992239999999994
30
-317.00000000000006
10
450.89585499999998
20
5.3992239999999994
30
-317.00000000000006
0
SPLINE
5
261
100
AcDbEntity
8
0
100
AcDbSpline
70
1064
71
3
72
8
73
4
74
0
42
0.000000001
43
0.0000000001
44
0.0000000001
40
0
40
0
40
0
40
0
40
1
40
1
40
1
40
1
10
-19.681970999999997
20
110.192464
30
-317.00000000000006
10
-19.681970999999997
20
111.33884800000001
30
-317.00000000000006
10
-18.769137000000001
20
112.25161100000001
30
-317.00000000000006
10
-17.622786999999999
20
112.25161100000001
30
-317.00000000000006
0
SPLINE
5
262
100
AcDbEntity
8
0
100
AcDbSpline
70
1064
71
3
72
8
73
4
74
0
42
0.000000001
43
0.0000000001
44
0.0000000001
40
0
40
0
40
0
40
0
40
1
40
1
40
1
40
1
10
219.52720200000002
20
288.38102200000003
30
-317.00000000000006
10
218.38086800000002
20
288.38102200000003
30
-317.00000000000006
10
217.46802900000003
20
289.29393199999998
30
-317.00000000000006
10
217.46802900000003
20
290.44028300000002
30
-317.00000000000006
0
SPLINE
5
263
100
AcDbEntity
8
0
100
AcDbSpline
70
1064
71
3
72
8
73
4
74
0
42
0.000000001
43
0.0000000001
44
0.0000000001
40
0
40
0
40
0
40
0
40
1
40
1
40
1
40
1
10
400.65947
20
53.954287000000001
30
-317.00000000000006
10
399.52223800000007
20
53.954371999999999
30
-317.00000000000006
10
398.60037699999998
20
54.876352000000004
30
-317.00000000000006
10
398.60048300000005
20
56.01359200000001
30
-317.00000000000006
0
SPLINE
5
264
100
AcDbEntity
8
0
100
AcDbSpline
70
1064
71
3
72
8
73
4
74
0
42
0.000000001
43
0.0000000001
44
0.0000000001
40
0
40
0
40
0
40
0
40
1
40
1
40
1
40
1
10
35.677213000000009
20
192.43661700000001
30
-317.00000000000006
10
36.823556999999994
20
192.43661700000001
30
-317.00000000000006
10
37.736395999999999
20
191.52384100000003
30
-317.00000000000006
10
37.736395999999999
20
190.37742300000002
30
-317.00000000000006
0
SPLINE
5
265
100
AcDbEntity
8
0
100
AcDbSpline
70
1064
71
3
72
8
73
4
74
0
42
0.000000001
43
0.0000000001
44
0.0000000001
40
0
40
0
40
0
40
0
40
1
40
1
40
1
40
1
10
414.02762199999995
20
29.948086000000004
30
-317.00000000000006
10
414.02738400000004
20
27.271905000000004
30
-317.00000000000006
10
412.08648000000005
20
25.102613000000002
30
-317.00000000000006
10
409.69245100000001
20
25.102823999999998
30
-317.00000000000006
0
LINE
5
266
100
AcDbEntity
8
0
100
AcDbLine
10
402.71848400000005
20
56.01359200000001
30
-317.00000000000006
11
402.71848400000005
21
66.013593999999998
31
-317.00000000000006
0
SPLINE
5
267
100
AcDbEntity
8
0
100
AcDbSpline
70
1064
71
3
72
8
73
4
74
0
42
0.000000001
43
0.0000000001
44
0.0000000001
40
0
40
0
40
0
40
0
40
1
40
1
40
1
40
1
10
2.857031000000001
20
7.4584500000000009
30
-317.00000000000006
10
2.857031000000001
20
8.6048360000000006
30
-317.00000000000006
10
3.7698650000000056
20
9.5175960000000011
30
-317.00000000000006
10
4.9162039999999996
20
9.5175960000000011
30
-317.00000000000006
0
SPLINE
5
268
100
AcDbEntity
8
0
100
AcDbSpline
70
1064
71
3
72
8
73
4
74
0
42
0.000000001
43
0.0000000001
44
0.0000000001
40
0
40
0
40
0
40
0
40
1
40
1
40
1
40
1
10
429.67584800000003
20
5.3992239999999994
30
-317.00000000000006
10
428.52948800000007
20
5.3992239999999994
30
-317.00000000000006
10
427.61667499999999
20
6.3120890000000003
30
-317.00000000000006
10
427.61667499999999
20
7.4584500000000009
30
-317.00000000000006
0
SPLINE
5
269
100
AcDbEntity
8
0
100
AcDbSpline
70
1064
71
3
72
8
73
4
74
0
42
0.000000001
43
0.0000000001
44
0.0000000001
40
0
40
0
40
0
40
0
40
1
40
1
40
1
40
1
10
394.96584800000005
20
5.1992250000000002
30
-317.00000000000006
10
393.81948800000004
20
5.1992250000000002
30
-317.00000000000006
10
392.90664900000002
20
6.1120910000000004
30
-317.00000000000006
10
392.90664900000002
20
7.2584509999999991
30
-317.00000000000006
0
SPLINE
5
270
100
AcDbEntity
8
0
100
AcDbSpline
70
1064
71
3
72
8
73
4
74
0
42
0.000000001
43
0.0000000001
44
0.0000000001
40
0
40
0
40
0
40
0
40
1
40
1
40
1
40
1
10
352.66767799999997
20
450.38244600000007
30
-317.00000000000006
10
352.66767799999997
20
451.52886200000006
30
-317.00000000000006
10
353.58049100000005
20
452.44157400000006
30
-317.00000000000006
10
354.72685100000001
20
452.44157400000006
30
-317.00000000000006
0
SPLINE
5
271
100
AcDbEntity
8
0
100
AcDbSpline
70
1064
71
3
72
8
73
4
74
0
42
0.000000001
43
0.0000000001
44
0.0000000001
40
0
40
0
40
0
40
0
40
1
40
1
40
1
40
1
10
446.87683399999997
20
26.149225000000005
30
-317.00000000000006
10
445.73047400000007
20
26.149225000000005
30
-317.00000000000006
10
444.8176610000001
20
27.062064000000007
30
-317.00000000000006
10
444.8176610000001
20
28.208450000000003
30
-317.00000000000006
0
SPLINE
5
272
100
AcDbEntity
8
0
100
AcDbSpline
70
1064
71
3
72
8
73
4
74
0
42
0.000000001
43
0.0000000001
44
0.0000000001
40
0
40
0
40
0
40
0
40
1
40
1
40
1
40
1
10
356.78604999999999
20
33.802442999999997
30
-317.00000000000006
10
356.78604999999999
20
32.656086000000002
30
-317.00000000000006
10
355.87321099999997
20
31.743231000000005
30
-317.00000000000006
10
354.72685100000001
20
31.743231000000005
30
-317.00000000000006
0
SPLINE
5
273
100
AcDbEntity
8
0
100
AcDbSpline
70
1064
71
3
72
8
73
4
74
0
42
0.000000001
43
0.0000000001
44
0.0000000001
40
0
40
0
40
0
40
0
40
1
40
1
40
1
40
1
10
-17.622786999999999
20
112.25161100000001
30
-317.00000000000006
10
-16.476445999999999
20
112.25161100000001
30
-317.00000000000006
10
-15.563606999999999
20
111.33884800000001
30
-317.00000000000006
10
-15.563606999999999
20
110.192464
30
-317.00000000000006
0
SPLINE
5
274
100
AcDbEntity
8
0
100
AcDbSpline
70
1064
71
3
72
8
73
4
74
0
42
0.000000001
43
0.0000000001
44
0.0000000001
40
0
40
0
40
0
40
0
40
1
40
1
40
1
40
1
10
4.9162039999999996
20
9.5175960000000011
30
-317.00000000000006
10
6.0625560000000034
20
9.5175960000000011
30
-317.00000000000006
10
6.9753930000000031
20
8.6048360000000006
30
-317.00000000000006
10
6.9753930000000031
20
7.4584500000000009
30
-317.00000000000006
0
SPLINE
5
275
100
AcDbEntity
8
0
100
AcDbSpline
70
1064
71
3
72
8
73
4
74
0
42
0.000000001
43
0.0000000001
44
0.0000000001
40
0
40
0
40
0
40
0
40
1
40
1
40
1
40
1
10
448.836656
20
7.4584500000000009
30
-317.00000000000006
10
448.836656
20
8.6048360000000006
30
-317.00000000000006
10
449.74949400000008
20
9.5175960000000011
30
-317.00000000000006
10
450.89585499999998
20
9.5175960000000011
30
-317.00000000000006
0
SPLINE
5
276
100
AcDbEntity
8
0
100
AcDbSpline
70
1064
71
3
72
8
73
4
74
0
42
0.000000001
43
0.0000000001
44
0.0000000001
40
0
40
0
40
0
40
0
40
1
40
1
40
1
40
1
10
373.74584200000004
20
9.3175969999999992
30
-317.00000000000006
10
374.89217599999995
20
9.3175969999999992
30
-317.00000000000006
10
375.80501400000003
20
8.4048379999999998
30
-317.00000000000006
10
375.80501400000003
20
7.2584509999999991
30
-317.00000000000006
0
SPLINE
5
277
100
AcDbEntity
8
0
100
AcDbSpline
70
1064
71
3
72
8
73
4
74
0
42
0.000000001
43
0.0000000001
44
0.0000000001
40
0
40
0
40
0
40
0
40
1
40
1
40
1
40
1
10
6.9753930000000031
20
7.4584500000000009
30
-317.00000000000006
10
6.9753930000000031
20
6.3120890000000003
30
-317.00000000000006
10
6.0625560000000034
20
5.3992239999999994
30
-317.00000000000006
10
4.9162039999999996
20
5.3992239999999994
30
-317.00000000000006
0
SPLINE
5
278
100
AcDbEntity
8
0
100
AcDbSpline
70
1064
71
3
72
8
73
4
74
0
42
0.000000001
43
0.0000000001
44
0.0000000001
40
0
40
0
40
0
40
0
40
1
40
1
40
1
40
1
10
450.89585499999998
20
9.5175960000000011
30
-317.00000000000006
10
452.04218800000007
20
9.5175960000000011
30
-317.00000000000006
10
452.95502699999997
20
8.6048360000000006
30
-317.00000000000006
10
452.95502699999997
20
7.4584500000000009
30
-317.00000000000006
0
SPLINE
5
279
100
AcDbEntity
8
0
100
AcDbSpline
70
1064
71
3
72
8
73
4
74
0
42
0.000000001
43
0.0000000001
44
0.0000000001
40
0
40
0
40
0
40
0
40
1
40
1
40
1
40
1
10
427.61667499999999
20
7.4584500000000009
30
-317.00000000000006
10
427.61667499999999
20
8.6048360000000006
30
-317.00000000000006
10
428.52948800000007
20
9.5175960000000011
30
-317.00000000000006
10
429.67584800000003
20
9.5175960000000011
30
-317.00000000000006
0
ENDSEC
0
SECTION
2
OBJECTS
0
DICTIONARY
5
C
100
AcDbDictionary
3
ACAD_GROUP
350
D
3
ACAD_MLINESTYLE
350
17
0
DICTIONARY
5
D
100
AcDbDictionary
0
DICTIONARY
5
1A
330
C
100
AcDbDictionary
0
DICTIONARY
5
17
100
AcDbDictionary
0
ENDSEC
0
EOF
