0
SECTION
2
HEADER
9
$INSUNITS
70
4
9
$ACADVER
1
AC1014
9
$HANDSEED
5
FFFF
0
ENDSEC
0
SECTION
2
TABLES
0
TABLE
2
VPORT
5
8
100
AcDbSymbolTable
0
ENDTAB
0
TABLE
2
LTYPE
5
5
100
AcDbSymbolTable
0
LTYPE
5
14
100
AcDbSymbolTableRecord
100
AcDbLinetypeTableRecord
2
BYBLOCK
70
0
0
LTYPE
5
15
100
AcDbSymbolTableRecord
100
AcDbLinetypeTableRecord
2
BYLAYER
70
0
0
ENDTAB
0
TABLE
2
LAYER
5
2
100
AcDbSymbolTable
70
2
0
LAYER
5
50
100
AcDbSymbolTableRecord
100
AcDbLayerTableRecord
2
0
70
0
6
CONTINUOUS
0
ENDTAB
0
TABLE
2
STYLE
5
3
100
AcDbSymbolTable
70
1
0
STYLE
5
11
100
AcDbSymbolTableRecord
100
AcDbTextStyleTableRecord
2
STANDARD
70
0
0
ENDTAB
0
TABLE
2
VIEW
5
6
100
AcDbSymbolTable
70
0
0
ENDTAB
0
TABLE
2
UCS
5
7
100
AcDbSymbolTable
70
0
0
ENDTAB
0
TABLE
2
APPID
5
9
100
AcDbSymbolTable
70
2
0
APPID
5
12
100
AcDbSymbolTableRecord
100
AcDbRegAppTableRecord
2
ACAD
70
0
0
ENDTAB
0
TABLE
2
DIMSTYLE
5
A
100
AcDbSymbolTable
70
1
0
ENDTAB
0
TABLE
2
BLOCK_RECORD
5
1
100
AcDbSymbolTable
70
1
0
BLOCK_RECORD
5
1F
100
AcDbSymbolTableRecord
100
AcDbBlockTableRecord
2
*MODEL_SPACE
0
BLOCK_RECORD
5
1B
100
AcDbSymbolTableRecord
100
AcDbBlockTableRecord
2
*PAPER_SPACE
0
ENDTAB
0
ENDSEC
0
SECTION
2
BLOCKS
0
BLOCK
5
20
100
AcDbEntity
100
AcDbBlockBegin
2
*MODEL_SPACE
0
ENDBLK
5
21
100
AcDbEntity
100
AcDbBlockEnd
0
BLOCK
5
1C
100
AcDbEntity
100
AcDbBlockBegin
2
*PAPER_SPACE
0
ENDBLK
5
1D
100
AcDbEntity
100
AcDbBlockEnd
0
ENDSEC
0
SECTION
2
ENTITIES
0
SPLINE
5
100
100
AcDbEntity
8
0
100
AcDbSpline
70
1064
71
3
72
8
73
4
74
0
42
0.000000001
43
0.0000000001
44
0.0000000001
40
0
40
0
40
0
40
0
40
1
40
1
40
1
40
1
10
404.72629799999999
20
486.88345599999997
30
0
10
404.18022500000001
20
486.88345599999997
30
0
10
403.65648200000004
20
487.10038800000007
30
0
10
403.27034900000001
20
487.48652600000003
30
0
0
SPLINE
5
101
100
AcDbEntity
8
0
100
AcDbSpline
70
1064
71
3
72
8
73
4
74
0
42
0.000000001
43
0.0000000001
44
0.0000000001
40
0
40
0
40
0
40
0
40
1
40
1
40
1
40
1
10
358.05496300000004
20
352.79827699999998
30
0
10
357.6945740000001
20
352.79827699999998
30
0
10
357.34892200000002
20
352.94144299999999
30
0
10
357.09410200000002
20
353.19628200000005
30
0
0
SPLINE
5
102
100
AcDbEntity
8
0
100
AcDbSpline
70
1064
71
3
72
8
73
4
74
0
42
0.000000001
43
0.0000000001
44
0.0000000001
40
0
40
0
40
0
40
0
40
1
40
1
40
1
40
1
10
402.66728499999999
20
488.94248600000003
30
0
10
402.66728499999999
20
489.48857500000003
30
0
10
402.88421600000004
20
490.01229700000005
30
0
10
403.27034900000001
20
490.39844299999999
30
0
0
SPLINE
5
103
100
AcDbEntity
8
0
100
AcDbSpline
70
1064
71
3
72
8
73
4
74
0
42
0.000000001
43
0.0000000001
44
0.0000000001
40
0
40
0
40
0
40
0
40
1
40
1
40
1
40
1
10
497.27630500000004
20
367.00245700000005
30
0
10
496.73023099999995
20
367.002454
30
0
10
496.20651500000008
20
367.21938599999999
30
0
10
495.82035599999995
20
367.60553000000004
30
0
0
SPLINE
5
104
100
AcDbEntity
8
0
100
AcDbSpline
70
1064
71
3
72
8
73
4
74
0
42
0.000000001
43
0.0000000001
44
0.0000000001
40
0
40
0
40
0
40
0
40
1
40
1
40
1
40
1
10
357.09410200000002
20
353.19628200000005
30
0
10
356.83925499999998
20
353.45111500000002
30
0
10
356.69608900000009
20
353.79675099999997
30
0
10
356.69608900000009
20
354.15714500000001
30
0
0
SPLINE
5
105
100
AcDbEntity
8
0
100
AcDbSpline
70
1064
71
3
72
8
73
4
74
0
42
0.000000001
43
0.0000000001
44
0.0000000001
40
0
40
0
40
0
40
0
40
1
40
1
40
1
40
1
10
358.05496300000004
20
355.51601600000004
30
0
10
358.805453
20
355.51601600000004
30
0
10
359.413836
20
354.90762799999999
30
0
10
359.413836
20
354.15714500000001
30
0
0
SPLINE
5
106
100
AcDbEntity
8
0
100
AcDbSpline
70
1064
71
3
72
8
73
4
74
0
42
0.000000001
43
0.0000000001
44
0.0000000001
40
0
40
0
40
0
40
0
40
1
40
1
40
1
40
1
10
499.33534500000007
20
369.06148400000001
30
0
10
499.33534500000007
20
368.51539200000002
30
0
10
499.11841299999998
20
367.991668
30
0
10
498.732281
20
367.60553000000004
30
0
0
SPLINE
5
107
100
AcDbEntity
8
0
100
AcDbSpline
70
1064
71
3
72
8
73
4
74
0
42
0.000000001
43
0.0000000001
44
0.0000000001
40
0
40
0
40
0
40
0
40
1
40
1
40
1
40
1
10
364.815834
20
276.39723199999997
30
0
10
365.07068099999998
20
276.14239300000003
30
0
10
365.21384700000004
20
275.79675899999995
30
0
10
365.21384700000004
20
275.43636400000003
30
0
0
SPLINE
5
108
100
AcDbEntity
8
0
100
AcDbSpline
70
1064
71
3
72
8
73
4
74
0
42
0.000000001
43
0.0000000001
44
0.0000000001
40
0
40
0
40
0
40
0
40
1
40
1
40
1
40
1
10
151.04503700000004
20
34.811218999999994
30
0
10
151.59111000000001
20
34.811218999999994
30
0
10
152.11481900000001
20
34.594288999999996
30
0
10
152.50095100000001
20
34.208154
30
0
0
SPLINE
5
109
100
AcDbEntity
8
0
100
AcDbSpline
70
1064
71
3
72
8
73
4
74
0
42
0.000000001
43
0.0000000001
44
0.0000000001
40
0
40
0
40
0
40
0
40
1
40
1
40
1
40
1
10
363.85497299999997
20
274.07749200000001
30
0
10
363.49458399999997
20
274.07749100000001
30
0
10
363.148933
20
274.22065900000001
30
0
10
362.89411200000006
20
274.47549600000002
30
0
0
SPLINE
5
110
100
AcDbEntity
8
0
100
AcDbSpline
70
1064
71
3
72
8
73
4
74
0
42
0.000000001
43
0.0000000001
44
0.0000000001
40
0
40
0
40
0
40
0
40
1
40
1
40
1
40
1
10
365.21384700000004
20
275.43636400000003
30
0
10
365.21384700000004
20
275.07596899999999
30
0
10
365.07068099999998
20
274.73033499999997
30
0
10
364.815834
20
274.47549600000002
30
0
0
SPLINE
5
111
100
AcDbEntity
8
0
100
AcDbSpline
70
1064
71
3
72
8
73
4
74
0
42
0.000000001
43
0.0000000001
44
0.0000000001
40
0
40
0
40
0
40
0
40
1
40
1
40
1
40
1
10
497.27630500000004
20
371.12051400000007
30
0
10
497.822405
20
371.12051400000007
30
0
10
498.34612100000004
20
370.90358199999997
30
0
10
498.732281
20
370.51744100000002
30
0
0
SPLINE
5
112
100
AcDbEntity
8
0
100
AcDbSpline
70
1064
71
3
72
8
73
4
74
0
42
0.000000001
43
0.0000000001
44
0.0000000001
40
0
40
0
40
0
40
0
40
1
40
1
40
1
40
1
10
358.05496300000004
20
276.76901700000002
30
0
10
358.805453
20
276.76901700000002
30
0
10
359.413836
20
276.16063100000002
30
0
10
359.413836
20
275.41014799999999
30
0
0
SPLINE
5
113
100
AcDbEntity
8
0
100
AcDbSpline
70
1064
71
3
72
8
73
4
74
0
42
0.000000001
43
0.0000000001
44
0.0000000001
40
0
40
0
40
0
40
0
40
1
40
1
40
1
40
1
10
375.03695299999998
20
350.54224599999998
30
0
10
375.39734199999998
20
350.54224599999998
30
0
10
375.74299300000001
20
350.39907999999997
30
0
10
375.99781400000006
20
350.14423900000003
30
0
0
SPLINE
5
114
100
AcDbEntity
8
0
100
AcDbSpline
70
1064
71
3
72
8
73
4
74
0
42
0.000000001
43
0.0000000001
44
0.0000000001
40
0
40
0
40
0
40
0
40
1
40
1
40
1
40
1
10
357.09410200000002
20
117.49921200000001
30
0
10
356.83925499999998
20
117.75404800000001
30
0
10
356.69608900000009
20
118.09968400000001
30
0
10
356.69608900000009
20
118.46007800000001
30
0
0
SPLINE
5
115
100
AcDbEntity
8
0
100
AcDbSpline
70
1064
71
3
72
8
73
4
74
0
42
0.000000001
43
0.0000000001
44
0.0000000001
40
0
40
0
40
0
40
0
40
1
40
1
40
1
40
1
10
359.01582300000001
20
353.19628200000005
30
0
10
358.76100299999996
20
352.94144299999999
30
0
10
358.41535200000004
20
352.79827699999998
30
0
10
358.05496300000004
20
352.79827699999998
30
0
0
SPLINE
5
116
100
AcDbEntity
8
0
100
AcDbSpline
70
1064
71
3
72
8
73
4
74
0
42
0.000000001
43
0.0000000001
44
0.0000000001
40
0
40
0
40
0
40
0
40
1
40
1
40
1
40
1
10
368.27608100000009
20
114.42098299999999
30
0
10
368.53092800000002
20
114.67582200000001
30
0
10
368.876553
20
114.81898800000002
30
0
10
369.236942
20
114.81898800000002
30
0
0
SPLINE
5
117
100
AcDbEntity
8
0
100
AcDbSpline
70
1064
71
3
72
8
73
4
74
0
42
0.000000001
43
0.0000000001
44
0.0000000001
40
0
40
0
40
0
40
0
40
1
40
1
40
1
40
1
10
363.85497299999997
20
195.60247100000001
30
0
10
363.49458399999997
20
195.60247100000001
30
0
10
363.148933
20
195.74563700000002
30
0
10
362.89411200000006
20
196.00047900000004
30
0
0
SPLINE
5
118
100
AcDbEntity
8
0
100
AcDbSpline
70
1064
71
3
72
8
73
4
74
0
42
0.000000001
43
0.0000000001
44
0.0000000001
40
0
40
0
40
0
40
0
40
1
40
1
40
1
40
1
10
368.27608100000009
20
190.97427100000002
30
0
10
368.02123499999999
20
191.22910700000003
30
0
10
367.87806899999998
20
191.57474000000002
30
0
10
367.87806899999998
20
191.935137
30
0
0
SPLINE
5
119
100
AcDbEntity
8
0
100
AcDbSpline
70
1064
71
3
72
8
73
4
74
0
42
0.000000001
43
0.0000000001
44
0.0000000001
40
0
40
0
40
0
40
0
40
1
40
1
40
1
40
1
10
356.69608900000009
20
354.15714500000001
30
0
10
356.69608900000009
20
354.90762799999999
30
0
10
357.30447200000009
20
355.51601600000004
30
0
10
358.05496300000004
20
355.51601600000004
30
0
0
SPLINE
5
120
100
AcDbEntity
8
0
100
AcDbSpline
70
1064
71
3
72
8
73
4
74
0
42
0.000000001
43
0.0000000001
44
0.0000000001
40
0
40
0
40
0
40
0
40
1
40
1
40
1
40
1
10
403.27034900000001
20
487.48652600000003
30
0
10
402.88421600000004
20
487.87267200000002
30
0
10
402.66728499999999
20
488.3963940000001
30
0
10
402.66728499999999
20
488.94248600000003
30
0
0
SPLINE
5
121
100
AcDbEntity
8
0
100
AcDbSpline
70
1064
71
3
72
8
73
4
74
0
42
0.000000001
43
0.0000000001
44
0.0000000001
40
0
40
0
40
0
40
0
40
1
40
1
40
1
40
1
10
50.027094000000005
20
30.586348999999998
30
0
10
49.600375999999997
20
30.586348999999998
30
0
10
49.191135000000003
20
30.755868
30
0
10
48.889400999999999
20
31.057625000000002
30
0
0
SPLINE
5
122
100
AcDbEntity
8
0
100
AcDbSpline
70
1064
71
3
72
8
73
4
74
0
42
0.000000001
43
0.0000000001
44
0.0000000001
40
0
40
0
40
0
40
0
40
1
40
1
40
1
40
1
10
359.01582300000001
20
274.44927999999999
30
0
10
358.76100299999996
20
274.19444300000004
30
0
10
358.41535200000004
20
274.05127600000003
30
0
10
358.05496300000004
20
274.05127600000003
30
0
0
SPLINE
5
123
100
AcDbEntity
8
0
100
AcDbSpline
70
1064
71
3
72
8
73
4
74
0
42
0.000000001
43
0.0000000001
44
0.0000000001
40
0
40
0
40
0
40
0
40
1
40
1
40
1
40
1
10
486.02902599999999
20
32.095320999999998
30
0
10
486.02902599999999
20
31.206744
30
0
10
485.308672
20
30.486415999999998
30
0
10
484.42009500000006
20
30.48639
30
0
0
SPLINE
5
124
100
AcDbEntity
8
0
100
AcDbSpline
70
1064
71
3
72
8
73
4
74
0
42
0.000000001
43
0.0000000001
44
0.0000000001
40
0
40
0
40
0
40
0
40
1
40
1
40
1
40
1
10
406.18227400000001
20
487.48652600000003
30
0
10
405.79611499999999
20
487.10038800000007
30
0
10
405.27239800000007
20
486.88345599999997
30
0
10
404.72629799999999
20
486.88345599999997
30
0
0
SPLINE
5
125
100
AcDbEntity
8
0
100
AcDbSpline
70
1064
71
3
72
8
73
4
74
0
42
0.000000001
43
0.0000000001
44
0.0000000001
40
0
40
0
40
0
40
0
40
1
40
1
40
1
40
1
10
359.413836
20
354.15714500000001
30
0
10
359.413836
20
353.79675099999997
30
0
10
359.27067
20
353.45111500000002
30
0
10
359.01582300000001
20
353.19628200000005
30
0
0
SPLINE
5
126
100
AcDbEntity
8
0
100
AcDbSpline
70
1064
71
3
72
8
73
4
74
0
42
0.000000001
43
0.0000000001
44
0.0000000001
40
0
40
0
40
0
40
0
40
1
40
1
40
1
40
1
10
362.89411200000006
20
355.144229
30
0
10
363.148933
20
355.39906999999999
30
0
10
363.49458399999997
20
355.542236
30
0
10
363.85497299999997
20
355.542236
30
0
0
SPLINE
5
127
100
AcDbEntity
8
0
100
AcDbSpline
70
1064
71
3
72
8
73
4
74
0
42
0.000000001
43
0.0000000001
44
0.0000000001
40
0
40
0
40
0
40
0
40
1
40
1
40
1
40
1
10
364.815834
20
274.47549600000002
30
0
10
364.56098700000007
20
274.22065900000001
30
0
10
364.21536200000003
20
274.07749100000001
30
0
10
363.85497299999997
20
274.07749200000001
30
0
0
SPLINE
5
128
100
AcDbEntity
8
0
100
AcDbSpline
70
1064
71
3
72
8
73
4
74
0
42
0.000000001
43
0.0000000001
44
0.0000000001
40
0
40
0
40
0
40
0
40
1
40
1
40
1
40
1
10
362.89411200000006
20
274.47549600000002
30
0
10
362.63926600000002
20
274.73033499999997
30
0
10
362.49610000000007
20
275.07596899999999
30
0
10
362.49610000000007
20
275.43636400000003
30
0
0
SPLINE
5
129
100
AcDbEntity
8
0
100
AcDbSpline
70
1064
71
3
72
8
73
4
74
0
42
0.000000001
43
0.0000000001
44
0.0000000001
40
0
40
0
40
0
40
0
40
1
40
1
40
1
40
1
10
362.89411200000006
20
276.39723199999997
30
0
10
363.148933
20
276.65207000000004
30
0
10
363.49458399999997
20
276.79523599999999
30
0
10
363.85497299999997
20
276.79523599999999
30
0
0
SPLINE
5
130
100
AcDbEntity
8
0
100
AcDbSpline
70
1064
71
3
72
8
73
4
74
0
42
0.000000001
43
0.0000000001
44
0.0000000001
40
0
40
0
40
0
40
0
40
1
40
1
40
1
40
1
10
362.49610000000007
20
275.43636400000003
30
0
10
362.49610000000007
20
275.79675899999995
30
0
10
362.63926600000002
20
276.14239300000003
30
0
10
362.89411200000006
20
276.39723199999997
30
0
0
SPLINE
5
131
100
AcDbEntity
8
0
100
AcDbSpline
70
1064
71
3
72
8
73
4
74
0
42
0.000000001
43
0.0000000001
44
0.0000000001
40
0
40
0
40
0
40
0
40
1
40
1
40
1
40
1
10
149.58912700000002
20
34.208151000000001
30
0
10
149.97525800000003
20
34.594288999999996
30
0
10
150.498963
20
34.811218999999994
30
0
10
151.04503700000004
20
34.811218999999994
30
0
0
SPLINE
5
132
100
AcDbEntity
8
0
100
AcDbSpline
70
1064
71
3
72
8
73
4
74
0
42
0.000000001
43
0.0000000001
44
0.0000000001
40
0
40
0
40
0
40
0
40
1
40
1
40
1
40
1
10
495.82035599999995
20
370.51744100000002
30
0
10
496.20651500000008
20
370.90358199999997
30
0
10
496.73023099999995
20
371.12051400000007
30
0
10
497.27630500000004
20
371.12051400000007
30
0
0
SPLINE
5
133
100
AcDbEntity
8
0
100
AcDbSpline
70
1064
71
3
72
8
73
4
74
0
42
0.000000001
43
0.0000000001
44
0.0000000001
40
0
40
0
40
0
40
0
40
1
40
1
40
1
40
1
10
374.07609200000002
20
114.44723000000002
30
0
10
374.33091200000001
20
114.702066
30
0
10
374.67656400000004
20
114.845235
30
0
10
375.03695299999998
20
114.845235
30
0
0
SPLINE
5
134
100
AcDbEntity
8
0
100
AcDbSpline
70
1064
71
3
72
8
73
4
74
0
42
0.000000001
43
0.0000000001
44
0.0000000001
40
0
40
0
40
0
40
0
40
1
40
1
40
1
40
1
10
367.87806899999998
20
270.41015699999997
30
0
10
367.87806899999998
20
271.16064100000006
30
0
10
368.48645199999999
20
271.76902699999999
30
0
10
369.236942
20
271.76902699999999
30
0
0
SPLINE
5
135
100
AcDbEntity
8
0
100
AcDbSpline
70
1064
71
3
72
8
73
4
74
0
42
0.000000001
43
0.0000000001
44
0.0000000001
40
0
40
0
40
0
40
0
40
1
40
1
40
1
40
1
10
498.732281
20
367.60553000000004
30
0
10
498.34612100000004
20
367.21938599999999
30
0
10
497.822405
20
367.002454
30
0
10
497.27630500000004
20
367.00245700000005
30
0
0
SPLINE
5
136
100
AcDbEntity
8
0
100
AcDbSpline
70
1064
71
3
72
8
73
4
74
0
42
0.000000001
43
0.0000000001
44
0.0000000001
40
0
40
0
40
0
40
0
40
1
40
1
40
1
40
1
10
152.50095100000001
20
34.208154
30
0
10
152.887079
20
33.822020999999999
30
0
10
153.10400300000001
20
33.298310000000001
30
0
10
153.10399799999999
20
32.752235999999996
30
0
0
SPLINE
5
137
100
AcDbEntity
8
0
100
AcDbSpline
70
1064
71
3
72
8
73
4
74
0
42
0.000000001
43
0.0000000001
44
0.0000000001
40
0
40
0
40
0
40
0
40
1
40
1
40
1
40
1
10
495.82035599999995
20
367.60553000000004
30
0
10
495.43422300000003
20
367.991668
30
0
10
495.21729100000005
20
368.51539200000002
30
0
10
495.21729100000005
20
369.06148400000001
30
0
0
SPLINE
5
138
100
AcDbEntity
8
0
100
AcDbSpline
70
1064
71
3
72
8
73
4
74
0
42
0.000000001
43
0.0000000001
44
0.0000000001
40
0
40
0
40
0
40
0
40
1
40
1
40
1
40
1
10
359.413836
20
275.41014799999999
30
0
10
359.413836
20
275.04975300000001
30
0
10
359.27067
20
274.70411800000005
30
0
10
359.01582300000001
20
274.44927999999999
30
0
0
SPLINE
5
139
100
AcDbEntity
8
0
100
AcDbSpline
70
1064
71
3
72
8
73
4
74
0
42
0.000000001
43
0.0000000001
44
0.0000000001
40
0
40
0
40
0
40
0
40
1
40
1
40
1
40
1
10
363.85497299999997
20
276.79523599999999
30
0
10
364.21536200000003
20
276.79523599999999
30
0
10
364.56098700000007
20
276.65207000000004
30
0
10
364.815834
20
276.39723199999997
30
0
0
SPLINE
5
140
100
AcDbEntity
8
0
100
AcDbSpline
70
1064
71
3
72
8
73
4
74
0
42
0.000000001
43
0.0000000001
44
0.0000000001
40
0
40
0
40
0
40
0
40
1
40
1
40
1
40
1
10
358.05496300000004
20
274.05127600000003
30
0
10
357.6945740000001
20
274.05127600000003
30
0
10
357.34892200000002
20
274.19444300000004
30
0
10
357.09410200000002
20
274.44927999999999
30
0
0
SPLINE
5
141
100
AcDbEntity
8
0
100
AcDbSpline
70
1064
71
3
72
8
73
4
74
0
42
0.000000001
43
0.0000000001
44
0.0000000001
40
0
40
0
40
0
40
0
40
1
40
1
40
1
40
1
10
495.21729100000005
20
369.06148400000001
30
0
10
495.21729100000005
20
369.60757100000001
30
0
10
495.43422300000003
20
370.13129500000002
30
0
10
495.82035599999995
20
370.51744100000002
30
0
0
SPLINE
5
142
100
AcDbEntity
8
0
100
AcDbSpline
70
1064
71
3
72
8
73
4
74
0
42
0.000000001
43
0.0000000001
44
0.0000000001
40
0
40
0
40
0
40
0
40
1
40
1
40
1
40
1
10
368.27608100000009
20
269.44928800000002
30
0
10
368.02123499999999
20
269.70412700000003
30
0
10
367.87806899999998
20
270.04976499999998
30
0
10
367.87806899999998
20
270.41015699999997
30
0
0
SPLINE
5
143
100
AcDbEntity
8
0
100
AcDbSpline
70
1064
71
3
72
8
73
4
74
0
42
0.000000001
43
0.0000000001
44
0.0000000001
40
0
40
0
40
0
40
0
40
1
40
1
40
1
40
1
10
259.96407099999999
20
392.04751299999998
30
0
10
259.70923200000004
20
392.30235399999998
30
0
10
259.56606599999998
20
392.64799000000005
30
0
10
259.56606599999998
20
393.00838199999998
30
0
0
SPLINE
5
144
100
AcDbEntity
8
0
100
AcDbSpline
70
1064
71
3
72
8
73
4
74
0
42
0.000000001
43
0.0000000001
44
0.0000000001
40
0
40
0
40
0
40
0
40
1
40
1
40
1
40
1
10
114.066124
20
368.84327400000006
30
0
10
113.70573
20
368.84326900000008
30
0
10
113.360097
20
368.98644000000002
30
0
10
113.10525799999999
20
369.24127599999997
30
0
0
SPLINE
5
145
100
AcDbEntity
8
0
100
AcDbSpline
70
1064
71
3
72
8
73
4
74
0
42
0.000000001
43
0.0000000001
44
0.0000000001
40
0
40
0
40
0
40
0
40
1
40
1
40
1
40
1
10
312.68106399999999
20
315.902151
30
0
10
312.68106399999999
20
316.26254599999999
30
0
10
312.82423
20
316.608181
30
0
10
313.07905
20
316.86301900000001
30
0
0
SPLINE
5
146
100
AcDbEntity
8
0
100
AcDbSpline
70
1064
71
3
72
8
73
4
74
0
42
0.000000001
43
0.0000000001
44
0.0000000001
40
0
40
0
40
0
40
0
40
1
40
1
40
1
40
1
10
260.924937
20
391.64951099999996
30
0
10
260.56454200000002
20
391.64951099999996
30
0
10
260.21890900000005
20
391.79267700000003
30
0
10
259.96407099999999
20
392.04751299999998
30
0
0
SPLINE
5
147
100
AcDbEntity
8
0
100
AcDbSpline
70
1064
71
3
72
8
73
4
74
0
42
0.000000001
43
0.0000000001
44
0.0000000001
40
0
40
0
40
0
40
0
40
1
40
1
40
1
40
1
10
215.39884699999999
20
315.90214800000001
30
0
10
215.39884699999999
20
315.15166400000004
30
0
10
214.790448
20
314.54327799999999
30
0
10
214.03995800000001
20
314.54327699999999
30
0
0
SPLINE
5
148
100
AcDbEntity
8
0
100
AcDbSpline
70
1064
71
3
72
8
73
4
74
0
42
0.000000001
43
0.0000000001
44
0.0000000001
40
0
40
0
40
0
40
0
40
1
40
1
40
1
40
1
10
212.68106599999999
20
315.90214800000001
30
0
10
212.68106599999999
20
316.26254399999999
30
0
10
212.82423400000002
20
316.60817700000001
30
0
10
213.07907600000004
20
316.86301500000002
30
0
0
SPLINE
5
149
100
AcDbEntity
8
0
100
AcDbSpline
70
1064
71
3
72
8
73
4
74
0
42
0.000000001
43
0.0000000001
44
0.0000000001
40
0
40
0
40
0
40
0
40
1
40
1
40
1
40
1
10
213.07907600000004
20
316.86301500000002
30
0
10
213.33391699999999
20
317.11785400000002
30
0
10
213.67955800000001
20
317.26102000000003
30
0
10
214.03995800000001
20
317.26102000000003
30
0
0
SPLINE
5
150
100
AcDbEntity
8
0
100
AcDbSpline
70
1064
71
3
72
8
73
4
74
0
42
0.000000001
43
0.0000000001
44
0.0000000001
40
0
40
0
40
0
40
0
40
1
40
1
40
1
40
1
10
212.681039
20
376.00214799999998
30
0
10
212.681039
20
376.36254200000002
30
0
10
212.82420500000001
20
376.70817800000003
30
0
10
213.07904099999999
20
376.96301400000004
30
0
0
SPLINE
5
151
100
AcDbEntity
8
0
100
AcDbSpline
70
1064
71
3
72
8
73
4
74
0
42
0.000000001
43
0.0000000001
44
0.0000000001
40
0
40
0
40
0
40
0
40
1
40
1
40
1
40
1
10
212.70728600000001
20
310.102146
30
0
10
212.70728300000002
20
310.85262799999998
30
0
10
213.31567900000005
20
311.46101600000003
30
0
10
214.06617499999999
20
311.46101699999997
30
0
0
SPLINE
5
152
100
AcDbEntity
8
0
100
AcDbSpline
70
1064
71
3
72
8
73
4
74
0
42
0.000000001
43
0.0000000001
44
0.0000000001
40
0
40
0
40
0
40
0
40
1
40
1
40
1
40
1
10
314.03993800000001
20
314.54327899999998
30
0
10
313.67952200000002
20
314.54327899999998
30
0
10
313.33389700000004
20
314.68644499999999
30
0
10
313.07905
20
314.941283
30
0
0
SPLINE
5
153
100
AcDbEntity
8
0
100
AcDbSpline
70
1064
71
3
72
8
73
4
74
0
42
0.000000001
43
0.0000000001
44
0.0000000001
40
0
40
0
40
0
40
0
40
1
40
1
40
1
40
1
10
362.89411200000006
20
119.447194
30
0
10
363.148933
20
119.702027
30
0
10
363.49458399999997
20
119.84519300000001
30
0
10
363.85497299999997
20
119.84519300000001
30
0
0
SPLINE
5
154
100
AcDbEntity
8
0
100
AcDbSpline
70
1064
71
3
72
8
73
4
74
0
42
0.000000001
43
0.0000000001
44
0.0000000001
40
0
40
0
40
0
40
0
40
1
40
1
40
1
40
1
10
214.06617499999999
20
311.46101699999997
30
0
10
214.42657500000001
20
311.46101699999997
30
0
10
214.77221299999999
20
311.31785099999996
30
0
10
215.02705500000002
20
311.06301300000001
30
0
0
SPLINE
5
155
100
AcDbEntity
8
0
100
AcDbSpline
70
1064
71
3
72
8
73
4
74
0
42
0.000000001
43
0.0000000001
44
0.0000000001
40
0
40
0
40
0
40
0
40
1
40
1
40
1
40
1
10
214.03995800000001
20
317.26102000000003
30
0
10
214.790448
20
317.26102000000003
30
0
10
215.39884699999999
20
316.65263099999999
30
0
10
215.39884699999999
20
315.90214800000001
30
0
0
SPLINE
5
156
100
AcDbEntity
8
0
100
AcDbSpline
70
1064
71
3
72
8
73
4
74
0
42
0.000000001
43
0.0000000001
44
0.0000000001
40
0
40
0
40
0
40
0
40
1
40
1
40
1
40
1
10
115.027083
20
309.14127800000006
30
0
10
114.77224100000001
20
308.88643999999999
30
0
10
114.426603
20
308.74327400000004
30
0
10
114.06620100000001
20
308.74327400000004
30
0
0
SPLINE
5
157
100
AcDbEntity
8
0
100
AcDbSpline
70
1064
71
3
72
8
73
4
74
0
42
0.000000001
43
0.0000000001
44
0.0000000001
40
0
40
0
40
0
40
0
40
1
40
1
40
1
40
1
10
215.42506499999999
20
310.102146
30
0
10
215.42506499999999
20
309.74175000000002
30
0
10
215.28189300000003
20
309.39611500000001
30
0
10
215.02705500000002
20
309.14127800000006
30
0
0
SPLINE
5
158
100
AcDbEntity
8
0
100
AcDbSpline
70
1064
71
3
72
8
73
4
74
0
42
0.000000001
43
0.0000000001
44
0.0000000001
40
0
40
0
40
0
40
0
40
1
40
1
40
1
40
1
10
112.70725300000001
20
370.20214500000003
30
0
10
112.70725300000001
20
370.56253700000008
30
0
10
112.85041899999999
20
370.90817500000009
30
0
10
113.10525799999999
20
371.16301400000003
30
0
0
SPLINE
5
159
100
AcDbEntity
8
0
100
AcDbSpline
70
1064
71
3
72
8
73
4
74
0
42
0.000000001
43
0.0000000001
44
0.0000000001
40
0
40
0
40
0
40
0
40
1
40
1
40
1
40
1
10
214.03995800000001
20
314.54327699999999
30
0
10
213.67955800000001
20
314.54327499999999
30
0
10
213.33391699999999
20
314.686443
30
0
10
213.07907600000004
20
314.94128000000001
30
0
0
SPLINE
5
160
100
AcDbEntity
8
0
100
AcDbSpline
70
1064
71
3
72
8
73
4
74
0
42
0.000000001
43
0.0000000001
44
0.0000000001
40
0
40
0
40
0
40
0
40
1
40
1
40
1
40
1
10
315.39878500000003
20
315.902151
30
0
10
315.39878500000003
20
315.54175600000002
30
0
10
315.25561900000002
20
315.196122
30
0
10
315.00079799999997
20
314.941283
30
0
0
SPLINE
5
161
100
AcDbEntity
8
0
100
AcDbSpline
70
1064
71
3
72
8
73
4
74
0
42
0.000000001
43
0.0000000001
44
0.0000000001
40
0
40
0
40
0
40
0
40
1
40
1
40
1
40
1
10
320.04529100000002
20
419.07646
30
0
10
319.49921800000004
20
419.07646
30
0
10
318.97550200000001
20
419.29339200000004
30
0
10
318.58934199999999
20
419.67953300000005
30
0
0
SPLINE
5
162
100
AcDbEntity
8
0
100
AcDbSpline
70
1064
71
3
72
8
73
4
74
0
42
0.000000001
43
0.0000000001
44
0.0000000001
40
0
40
0
40
0
40
0
40
1
40
1
40
1
40
1
10
314.06618400000002
20
311.46101699999997
30
0
10
314.42657300000002
20
311.46101699999997
30
0
10
314.772198
20
311.31785099999996
30
0
10
315.02704500000004
20
311.06301300000001
30
0
0
SPLINE
5
163
100
AcDbEntity
8
0
100
AcDbSpline
70
1064
71
3
72
8
73
4
74
0
42
0.000000001
43
0.0000000001
44
0.0000000001
40
0
40
0
40
0
40
0
40
1
40
1
40
1
40
1
10
114.06620100000001
20
311.46101699999997
30
0
10
114.426603
20
311.46101699999997
30
0
10
114.77224100000001
20
311.31785099999996
30
0
10
115.027083
20
311.06301300000001
30
0
0
SPLINE
5
164
100
AcDbEntity
8
0
100
AcDbSpline
70
1064
71
3
72
8
73
4
74
0
42
0.000000001
43
0.0000000001
44
0.0000000001
40
0
40
0
40
0
40
0
40
1
40
1
40
1
40
1
10
114.06620100000001
20
308.74327400000004
30
0
10
113.31570699999999
20
308.74327499999998
30
0
10
112.707311
20
309.35166299999997
30
0
10
112.70731400000001
20
310.102146
30
0
0
SPLINE
5
165
100
AcDbEntity
8
0
100
AcDbSpline
70
1064
71
3
72
8
73
4
74
0
42
0.000000001
43
0.0000000001
44
0.0000000001
40
0
40
0
40
0
40
0
40
1
40
1
40
1
40
1
10
115.027083
20
311.06301300000001
30
0
10
115.281924
20
310.808176
30
0
10
115.425093
20
310.46254099999999
30
0
10
115.425093
20
310.102146
30
0
0
SPLINE
5
166
100
AcDbEntity
8
0
100
AcDbSpline
70
1064
71
3
72
8
73
4
74
0
42
0.000000001
43
0.0000000001
44
0.0000000001
40
0
40
0
40
0
40
0
40
1
40
1
40
1
40
1
10
315.42503099999999
20
310.102146
30
0
10
315.42503099999999
20
309.74175000000002
30
0
10
315.28186499999998
20
309.39611500000001
30
0
10
315.02704500000004
20
309.14127800000006
30
0
0
SPLINE
5
167
100
AcDbEntity
8
0
100
AcDbSpline
70
1064
71
3
72
8
73
4
74
0
42
0.000000001
43
0.0000000001
44
0.0000000001
40
0
40
0
40
0
40
0
40
1
40
1
40
1
40
1
10
30.433161000000002
20
50.202449000000001
30
0
10
30.433167999999998
20
51.091025999999999
30
0
10
31.153510000000001
20
51.811354000000009
30
0
10
32.042093999999999
20
51.811354000000009
30
0
0
SPLINE
5
168
100
AcDbEntity
8
0
100
AcDbSpline
70
1064
71
3
72
8
73
4
74
0
42
0.000000001
43
0.0000000001
44
0.0000000001
40
0
40
0
40
0
40
0
40
1
40
1
40
1
40
1
10
213.07907600000004
20
314.94128000000001
30
0
10
212.82423400000002
20
315.19611800000001
30
0
10
212.68106599999999
20
315.54175299999997
30
0
10
212.68106599999999
20
315.90214800000001
30
0
0
SPLINE
5
169
100
AcDbEntity
8
0
100
AcDbSpline
70
1064
71
3
72
8
73
4
74
0
42
0.000000001
43
0.0000000001
44
0.0000000001
40
0
40
0
40
0
40
0
40
1
40
1
40
1
40
1
10
33.651026000000002
20
50.202449000000001
30
0
10
33.651030999999996
20
49.775728999999998
30
0
10
33.481519999999996
20
49.366472000000002
30
0
10
33.179786999999997
20
49.064741000000005
30
0
0
SPLINE
5
170
100
AcDbEntity
8
0
100
AcDbSpline
70
1064
71
3
72
8
73
4
74
0
42
0.000000001
43
0.0000000001
44
0.0000000001
40
0
40
0
40
0
40
0
40
1
40
1
40
1
40
1
10
33.179786999999997
20
49.064741000000005
30
0
10
32.878053000000001
20
48.763009999999994
30
0
10
32.468812
20
48.593491
30
0
10
32.042093999999999
20
48.593491
30
0
0
SPLINE
5
171
100
AcDbEntity
8
0
100
AcDbSpline
70
1064
71
3
72
8
73
4
74
0
42
0.000000001
43
0.0000000001
44
0.0000000001
40
0
40
0
40
0
40
0
40
1
40
1
40
1
40
1
10
358.05496300000004
20
119.818949
30
0
10
358.41535200000004
20
119.818949
30
0
10
358.76100299999996
20
119.675783
30
0
10
359.01582300000001
20
119.420947
30
0
0
SPLINE
5
172
100
AcDbEntity
8
0
100
AcDbSpline
70
1064
71
3
72
8
73
4
74
0
42
0.000000001
43
0.0000000001
44
0.0000000001
40
0
40
0
40
0
40
0
40
1
40
1
40
1
40
1
10
369.236942
20
114.81898800000002
30
0
10
369.597331
20
114.81898800000002
30
0
10
369.94298300000003
20
114.67582200000001
30
0
10
370.19780300000002
20
114.42098299999999
30
0
0
SPLINE
5
173
100
AcDbEntity
8
0
100
AcDbSpline
70
1064
71
3
72
8
73
4
74
0
42
0.000000001
43
0.0000000001
44
0.0000000001
40
0
40
0
40
0
40
0
40
1
40
1
40
1
40
1
10
215.02705500000002
20
311.06301300000001
30
0
10
215.28189300000003
20
310.808176
30
0
10
215.42506499999999
20
310.46254099999999
30
0
10
215.42506499999999
20
310.102146
30
0
0
SPLINE
5
174
100
AcDbEntity
8
0
100
AcDbSpline
70
1064
71
3
72
8
73
4
74
0
42
0.000000001
43
0.0000000001
44
0.0000000001
40
0
40
0
40
0
40
0
40
1
40
1
40
1
40
1
10
115.425093
20
310.102146
30
0
10
115.425093
20
309.74175000000002
30
0
10
115.281924
20
309.39611500000001
30
0
10
115.027083
20
309.14127800000006
30
0
0
SPLINE
5
175
100
AcDbEntity
8
0
100
AcDbSpline
70
1064
71
3
72
8
73
4
74
0
42
0.000000001
43
0.0000000001
44
0.0000000001
40
0
40
0
40
0
40
0
40
1
40
1
40
1
40
1
10
313.07905
20
314.941283
30
0
10
312.82423
20
315.196122
30
0
10
312.68106399999999
20
315.54175600000002
30
0
10
312.68106399999999
20
315.902151
30
0
0
SPLINE
5
176
100
AcDbEntity
8
0
100
AcDbSpline
70
1064
71
3
72
8
73
4
74
0
42
0.000000001
43
0.0000000001
44
0.0000000001
40
0
40
0
40
0
40
0
40
1
40
1
40
1
40
1
10
215.02705500000002
20
309.14127800000006
30
0
10
214.77221299999999
20
308.88643999999999
30
0
10
214.42657500000001
20
308.74327400000004
30
0
10
214.06617499999999
20
308.74327400000004
30
0
0
SPLINE
5
177
100
AcDbEntity
8
0
100
AcDbSpline
70
1064
71
3
72
8
73
4
74
0
42
0.000000001
43
0.0000000001
44
0.0000000001
40
0
40
0
40
0
40
0
40
1
40
1
40
1
40
1
10
112.70731400000001
20
310.102146
30
0
10
112.707311
20
310.85262799999998
30
0
10
113.31570699999999
20
311.46101600000003
30
0
10
114.06620100000001
20
311.46101699999997
30
0
0
SPLINE
5
178
100
AcDbEntity
8
0
100
AcDbSpline
70
1064
71
3
72
8
73
4
74
0
42
0.000000001
43
0.0000000001
44
0.0000000001
40
0
40
0
40
0
40
0
40
1
40
1
40
1
40
1
10
115.398875
20
315.90214800000001
30
0
10
115.398875
20
315.15166400000004
30
0
10
114.790476
20
314.54327799999999
30
0
10
114.039986
20
314.54327699999999
30
0
0
SPLINE
5
179
100
AcDbEntity
8
0
100
AcDbSpline
70
1064
71
3
72
8
73
4
74
0
42
0.000000001
43
0.0000000001
44
0.0000000001
40
0
40
0
40
0
40
0
40
1
40
1
40
1
40
1
10
113.079104
20
314.94128000000001
30
0
10
112.82426200000002
20
315.19611800000001
30
0
10
112.68109399999999
20
315.54175299999997
30
0
10
112.68109399999999
20
315.90214800000001
30
0
0
SPLINE
5
180
100
AcDbEntity
8
0
100
AcDbSpline
70
1064
71
3
72
8
73
4
74
0
42
0.000000001
43
0.0000000001
44
0.0000000001
40
0
40
0
40
0
40
0
40
1
40
1
40
1
40
1
10
112.68109399999999
20
315.90214800000001
30
0
10
112.68109399999999
20
316.26254399999999
30
0
10
112.82426200000002
20
316.60817700000001
30
0
10
113.079104
20
316.86301500000002
30
0
0
SPLINE
5
181
100
AcDbEntity
8
0
100
AcDbSpline
70
1064
71
3
72
8
73
4
74
0
42
0.000000001
43
0.0000000001
44
0.0000000001
40
0
40
0
40
0
40
0
40
1
40
1
40
1
40
1
10
213.07904099999999
20
375.04127900000009
30
0
10
212.82420500000001
20
375.29612000000009
30
0
10
212.681039
20
375.64175599999999
30
0
10
212.681039
20
376.00214799999998
30
0
0
SPLINE
5
182
100
AcDbEntity
8
0
100
AcDbSpline
70
1064
71
3
72
8
73
4
74
0
42
0.000000001
43
0.0000000001
44
0.0000000001
40
0
40
0
40
0
40
0
40
1
40
1
40
1
40
1
10
370.19780300000002
20
114.42098299999999
30
0
10
370.45265000000001
20
114.16614200000001
30
0
10
370.59581600000001
20
113.82051199999999
30
0
10
370.59581600000001
20
113.46011700000003
30
0
0
SPLINE
5
183
100
AcDbEntity
8
0
100
AcDbSpline
70
1064
71
3
72
8
73
4
74
0
42
0.000000001
43
0.0000000001
44
0.0000000001
40
0
40
0
40
0
40
0
40
1
40
1
40
1
40
1
10
364.815834
20
119.447194
30
0
10
365.07068099999998
20
119.19235500000001
30
0
10
365.21384700000004
20
118.84671899999999
30
0
10
365.21384700000004
20
118.48632499999999
30
0
0
SPLINE
5
184
100
AcDbEntity
8
0
100
AcDbSpline
70
1064
71
3
72
8
73
4
74
0
42
0.000000001
43
0.0000000001
44
0.0000000001
40
0
40
0
40
0
40
0
40
1
40
1
40
1
40
1
10
48.418162000000002
20
32.195307
30
0
10
48.418168000000001
20
33.083881000000005
30
0
10
49.138508999999999
20
33.804235999999996
30
0
10
50.027094000000005
20
33.804235999999996
30
0
0
SPLINE
5
185
100
AcDbEntity
8
0
100
AcDbSpline
70
1064
71
3
72
8
73
4
74
0
42
0.000000001
43
0.0000000001
44
0.0000000001
40
0
40
0
40
0
40
0
40
1
40
1
40
1
40
1
10
315.00079799999997
20
316.86301900000001
30
0
10
315.25561900000002
20
316.608181
30
0
10
315.39878500000003
20
316.26254599999999
30
0
10
315.39878500000003
20
315.902151
30
0
0
SPLINE
5
186
100
AcDbEntity
8
0
100
AcDbSpline
70
1064
71
3
72
8
73
4
74
0
42
0.000000001
43
0.0000000001
44
0.0000000001
40
0
40
0
40
0
40
0
40
1
40
1
40
1
40
1
10
370.59581600000001
20
113.46011700000003
30
0
10
370.59581600000001
20
112.70964000000001
30
0
10
369.98743300000001
20
112.10127299999999
30
0
10
369.236942
20
112.10127299999999
30
0
0
SPLINE
5
187
100
AcDbEntity
8
0
100
AcDbSpline
70
1064
71
3
72
8
73
4
74
0
42
0.000000001
43
0.0000000001
44
0.0000000001
40
0
40
0
40
0
40
0
40
1
40
1
40
1
40
1
10
114.066124
20
371.561016
30
0
10
114.42652100000001
20
371.561016
30
0
10
114.77215100000001
20
371.41784999999999
30
0
10
115.02699300000002
20
371.16301400000003
30
0
0
SPLINE
5
188
100
AcDbEntity
8
0
100
AcDbSpline
70
1064
71
3
72
8
73
4
74
0
42
0.000000001
43
0.0000000001
44
0.0000000001
40
0
40
0
40
0
40
0
40
1
40
1
40
1
40
1
10
214.06617499999999
20
308.74327400000004
30
0
10
213.31567900000005
20
308.74327499999998
30
0
10
212.70728300000002
20
309.35166299999997
30
0
10
212.70728600000001
20
310.102146
30
0
0
SPLINE
5
189
100
AcDbEntity
8
0
100
AcDbSpline
70
1064
71
3
72
8
73
4
74
0
42
0.000000001
43
0.0000000001
44
0.0000000001
40
0
40
0
40
0
40
0
40
1
40
1
40
1
40
1
10
363.85497299999997
20
119.84519300000001
30
0
10
364.21536200000003
20
119.84519300000001
30
0
10
364.56098700000007
20
119.702027
30
0
10
364.815834
20
119.447194
30
0
0
SPLINE
5
190
100
AcDbEntity
8
0
100
AcDbSpline
70
1064
71
3
72
8
73
4
74
0
42
0.000000001
43
0.0000000001
44
0.0000000001
40
0
40
0
40
0
40
0
40
1
40
1
40
1
40
1
10
262.28381000000002
20
393.00838199999998
30
0
10
262.28381000000002
20
392.64799000000005
30
0
10
262.14064399999995
20
392.30235399999998
30
0
10
261.885805
20
392.04751299999998
30
0
0
SPLINE
5
191
100
AcDbEntity
8
0
100
AcDbSpline
70
1064
71
3
72
8
73
4
74
0
42
0.000000001
43
0.0000000001
44
0.0000000001
40
0
40
0
40
0
40
0
40
1
40
1
40
1
40
1
10
51.164786000000007
20
31.057625000000002
30
0
10
50.863053000000001
20
30.755868
30
0
10
50.453814000000001
20
30.586348999999998
30
0
10
50.027094000000005
20
30.586348999999998
30
0
0
SPLINE
5
192
100
AcDbEntity
8
0
100
AcDbSpline
70
1064
71
3
72
8
73
4
74
0
42
0.000000001
43
0.0000000001
44
0.0000000001
40
0
40
0
40
0
40
0
40
1
40
1
40
1
40
1
10
483.28241300000002
20
33.233000000000004
30
0
10
483.58414400000009
20
33.534731000000001
30
0
10
483.99337500000001
20
33.704250000000002
30
0
10
484.42009500000006
20
33.704250000000002
30
0
0
SPLINE
5
193
100
AcDbEntity
8
0
100
AcDbSpline
70
1064
71
3
72
8
73
4
74
0
42
0.000000001
43
0.0000000001
44
0.0000000001
40
0
40
0
40
0
40
0
40
1
40
1
40
1
40
1
10
30.904398999999998
20
49.064741000000005
30
0
10
30.602666000000003
20
49.366472000000002
30
0
10
30.433158000000002
20
49.775728999999998
30
0
10
30.433161000000002
20
50.202449000000001
30
0
0
SPLINE
5
194
100
AcDbEntity
8
0
100
AcDbSpline
70
1064
71
3
72
8
73
4
74
0
42
0.000000001
43
0.0000000001
44
0.0000000001
40
0
40
0
40
0
40
0
40
1
40
1
40
1
40
1
10
373.67807900000003
20
113.48636400000001
30
0
10
373.67807900000003
20
113.84675799999999
30
0
10
373.82124500000003
20
114.19239400000001
30
0
10
374.07609200000002
20
114.44723000000002
30
0
0
SPLINE
5
195
100
AcDbEntity
8
0
100
AcDbSpline
70
1064
71
3
72
8
73
4
74
0
42
0.000000001
43
0.0000000001
44
0.0000000001
40
0
40
0
40
0
40
0
40
1
40
1
40
1
40
1
10
115.02699300000002
20
369.24127599999997
30
0
10
114.77215100000001
20
368.98644000000002
30
0
10
114.42652100000001
20
368.84326900000008
30
0
10
114.066124
20
368.84327400000006
30
0
0
SPLINE
5
196
100
AcDbEntity
8
0
100
AcDbSpline
70
1064
71
3
72
8
73
4
74
0
42
0.000000001
43
0.0000000001
44
0.0000000001
40
0
40
0
40
0
40
0
40
1
40
1
40
1
40
1
10
32.042093999999999
20
48.593491
30
0
10
31.615374000000003
20
48.593491
30
0
10
31.206135000000003
20
48.763009999999994
30
0
10
30.904398999999998
20
49.064741000000005
30
0
0
SPLINE
5
197
100
AcDbEntity
8
0
100
AcDbSpline
70
1064
71
3
72
8
73
4
74
0
42
0.000000001
43
0.0000000001
44
0.0000000001
40
0
40
0
40
0
40
0
40
1
40
1
40
1
40
1
10
367.87806899999998
20
113.46011700000003
30
0
10
367.87806899999998
20
113.82051199999999
30
0
10
368.02123499999999
20
114.16614200000001
30
0
10
368.27608100000009
20
114.42098299999999
30
0
0
SPLINE
5
198
100
AcDbEntity
8
0
100
AcDbSpline
70
1064
71
3
72
8
73
4
74
0
42
0.000000001
43
0.0000000001
44
0.0000000001
40
0
40
0
40
0
40
0
40
1
40
1
40
1
40
1
10
502.41612699999996
20
48.482392999999995
30
0
10
501.98940700000009
20
48.482365999999999
30
0
10
501.58015000000006
20
48.651885000000007
30
0
10
501.2784190000001
20
48.953616000000004
30
0
0
SPLINE
5
199
100
AcDbEntity
8
0
100
AcDbSpline
70
1064
71
3
72
8
73
4
74
0
42
0.000000001
43
0.0000000001
44
0.0000000001
40
0
40
0
40
0
40
0
40
1
40
1
40
1
40
1
10
313.10529700000006
20
309.14127800000006
30
0
10
312.85047700000001
20
309.39611500000001
30
0
10
312.707311
20
309.74175000000002
30
0
10
312.707311
20
310.102146
30
0
0
SPLINE
5
200
100
AcDbEntity
8
0
100
AcDbSpline
70
1064
71
3
72
8
73
4
74
0
42
0.000000001
43
0.0000000001
44
0.0000000001
40
0
40
0
40
0
40
0
40
1
40
1
40
1
40
1
10
179.08606800000001
20
32.752235999999996
30
0
10
179.08605700000004
20
33.298310000000001
30
0
10
179.30298400000001
20
33.822020999999999
30
0
10
179.68911399999999
20
34.208154
30
0
0
LINE
5
201
100
AcDbEntity
8
0
100
AcDbLine
10
217.05096100000003
20
496.85432400000002
30
0
11
217.05096100000003
21
486.85432000000003
31
0
0
SPLINE
5
202
100
AcDbEntity
8
0
100
AcDbSpline
70
1064
71
3
72
8
73
4
74
0
42
0.000000001
43
0.0000000001
44
0.0000000001
40
0
40
0
40
0
40
0
40
1
40
1
40
1
40
1
10
501.2784190000001
20
48.953616000000004
30
0
10
500.97668800000002
20
49.255373000000006
30
0
10
500.80717000000004
20
49.664604000000011
30
0
10
500.80717000000004
20
50.091324
30
0
0
SPLINE
5
203
100
AcDbEntity
8
0
100
AcDbSpline
70
1064
71
3
72
8
73
4
74
0
42
0.000000001
43
0.0000000001
44
0.0000000001
40
0
40
0
40
0
40
0
40
1
40
1
40
1
40
1
10
183.204318
20
501.75252300000011
30
0
10
183.204318
20
501.20643400000006
30
0
10
182.98738600000001
20
500.68271500000009
30
0
10
182.60124300000001
20
500.29656900000009
30
0
0
SPLINE
5
204
100
AcDbEntity
8
0
100
AcDbSpline
70
1064
71
3
72
8
73
4
74
0
42
0.000000001
43
0.0000000001
44
0.0000000001
40
0
40
0
40
0
40
0
40
1
40
1
40
1
40
1
10
219.10996400000002
20
498.91362900000001
30
0
10
220.24720400000004
20
498.91354400000012
30
0
10
221.16904700000003
20
497.99156400000004
30
0
10
221.16896300000002
20
496.85432400000002
30
0
0
SPLINE
5
205
100
AcDbEntity
8
0
100
AcDbSpline
70
1064
71
3
72
8
73
4
74
0
42
0.000000001
43
0.0000000001
44
0.0000000001
40
0
40
0
40
0
40
0
40
1
40
1
40
1
40
1
10
351.60124600000006
20
419.67953300000005
30
0
10
351.21511300000003
20
419.29339200000004
30
0
10
350.69137000000006
20
419.07646
30
0
10
350.14529700000003
20
419.07646
30
0
0
SPLINE
5
206
100
AcDbEntity
8
0
100
AcDbSpline
70
1064
71
3
72
8
73
4
74
0
42
0.000000001
43
0.0000000001
44
0.0000000001
40
0
40
0
40
0
40
0
40
1
40
1
40
1
40
1
10
375.03695299999998
20
114.845235
30
0
10
375.39734199999998
20
114.845235
30
0
10
375.74299300000001
20
114.702066
30
0
10
375.99781400000006
20
114.44723000000002
30
0
0
SPLINE
5
207
100
AcDbEntity
8
0
100
AcDbSpline
70
1064
71
3
72
8
73
4
74
0
42
0.000000001
43
0.0000000001
44
0.0000000001
40
0
40
0
40
0
40
0
40
1
40
1
40
1
40
1
10
182.60093799999999
20
34.208151000000001
30
0
10
182.98706899999999
20
33.822020999999999
30
0
10
183.20399000000003
20
33.298310000000001
30
0
10
183.20398500000005
20
32.752235999999996
30
0
0
SPLINE
5
208
100
AcDbEntity
8
0
100
AcDbSpline
70
1064
71
3
72
8
73
4
74
0
42
0.000000001
43
0.0000000001
44
0.0000000001
40
0
40
0
40
0
40
0
40
1
40
1
40
1
40
1
10
50.027094000000005
20
33.804235999999996
30
0
10
50.915678
20
33.804235999999996
30
0
10
51.636021999999997
20
33.083881000000005
30
0
10
51.636026999999999
20
32.195307
30
0
0
SPLINE
5
209
100
AcDbEntity
8
0
100
AcDbSpline
70
1064
71
3
72
8
73
4
74
0
42
0.000000001
43
0.0000000001
44
0.0000000001
40
0
40
0
40
0
40
0
40
1
40
1
40
1
40
1
10
182.60124300000001
20
500.29656900000009
30
0
10
182.21509900000001
20
499.91042800000002
30
0
10
181.69137800000001
20
499.69349599999998
30
0
10
181.14529099999999
20
499.69349599999998
30
0
0
SPLINE
5
210
100
AcDbEntity
8
0
100
AcDbSpline
70
1064
71
3
72
8
73
4
74
0
42
0.000000001
43
0.0000000001
44
0.0000000001
40
0
40
0
40
0
40
0
40
1
40
1
40
1
40
1
10
113.10525799999999
20
371.16301400000003
30
0
10
113.360097
20
371.41784999999999
30
0
10
113.70573
20
371.561016
30
0
10
114.066124
20
371.561016
30
0
0
SPLINE
5
211
100
AcDbEntity
8
0
100
AcDbSpline
70
1064
71
3
72
8
73
4
74
0
42
0.000000001
43
0.0000000001
44
0.0000000001
40
0
40
0
40
0
40
0
40
1
40
1
40
1
40
1
10
213.07904099999999
20
376.96301400000004
30
0
10
213.33387999999999
20
377.21785500000004
30
0
10
213.67951599999998
20
377.36102400000004
30
0
10
214.03991000000002
20
377.36102400000004
30
0
0
SPLINE
5
212
100
AcDbEntity
8
0
100
AcDbSpline
70
1064
71
3
72
8
73
4
74
0
42
0.000000001
43
0.0000000001
44
0.0000000001
40
0
40
0
40
0
40
0
40
1
40
1
40
1
40
1
10
114.039986
20
317.26102000000003
30
0
10
114.790476
20
317.26102000000003
30
0
10
115.398875
20
316.65263099999999
30
0
10
115.398875
20
315.90214800000001
30
0
0
LINE
5
213
100
AcDbEntity
8
0
100
AcDbLine
10
217.05096100000003
20
486.85432000000003
30
0
11
217.05096100000003
21
496.85432400000002
31
0
0
SPLINE
5
214
100
AcDbEntity
8
0
100
AcDbSpline
70
1064
71
3
72
8
73
4
74
0
42
0.000000001
43
0.0000000001
44
0.0000000001
40
0
40
0
40
0
40
0
40
1
40
1
40
1
40
1
10
320.04529100000002
20
423.19451700000002
30
0
10
321.18247100000008
20
423.19450899999998
30
0
10
322.10430500000001
20
422.27265299999999
30
0
10
322.10430500000001
20
421.135493
30
0
0
SPLINE
5
215
100
AcDbEntity
8
0
100
AcDbSpline
70
1064
71
3
72
8
73
4
74
0
42
0.000000001
43
0.0000000001
44
0.0000000001
40
0
40
0
40
0
40
0
40
1
40
1
40
1
40
1
10
153.10399799999999
20
32.752235999999996
30
0
10
153.103995
20
31.615102
30
0
10
152.18216799999999
20
30.693266999999999
30
0
10
151.04503700000004
20
30.693266999999999
30
0
0
SPLINE
5
216
100
AcDbEntity
8
0
100
AcDbSpline
70
1064
71
3
72
8
73
4
74
0
42
0.000000001
43
0.0000000001
44
0.0000000001
40
0
40
0
40
0
40
0
40
1
40
1
40
1
40
1
10
501.2784190000001
20
51.229005999999998
30
0
10
501.58015000000006
20
51.530737000000002
30
0
10
501.98940700000009
20
51.700254999999999
30
0
10
502.41612699999996
20
51.700254999999999
30
0
0
SPLINE
5
217
100
AcDbEntity
8
0
100
AcDbSpline
70
1064
71
3
72
8
73
4
74
0
42
0.000000001
43
0.0000000001
44
0.0000000001
40
0
40
0
40
0
40
0
40
1
40
1
40
1
40
1
10
261.885805
20
393.96925299999998
30
0
10
262.14064399999995
20
393.71441200000004
30
0
10
262.28381000000002
20
393.36877600000003
30
0
10
262.28381000000002
20
393.00838199999998
30
0
0
SPLINE
5
218
100
AcDbEntity
8
0
100
AcDbSpline
70
1064
71
3
72
8
73
4
74
0
42
0.000000001
43
0.0000000001
44
0.0000000001
40
0
40
0
40
0
40
0
40
1
40
1
40
1
40
1
10
317.98627700000003
20
421.135493
30
0
10
317.98627700000003
20
421.68158199999999
30
0
10
318.20320900000002
20
422.20530600000006
30
0
10
318.58934199999999
20
422.59144700000007
30
0
0
SPLINE
5
219
100
AcDbEntity
8
0
100
AcDbSpline
70
1064
71
3
72
8
73
4
74
0
42
0.000000001
43
0.0000000001
44
0.0000000001
40
0
40
0
40
0
40
0
40
1
40
1
40
1
40
1
10
114.039986
20
314.54327699999999
30
0
10
113.679586
20
314.54327499999999
30
0
10
113.333945
20
314.686443
30
0
10
113.079104
20
314.94128000000001
30
0
0
SPLINE
5
220
100
AcDbEntity
8
0
100
AcDbSpline
70
1064
71
3
72
8
73
4
74
0
42
0.000000001
43
0.0000000001
44
0.0000000001
40
0
40
0
40
0
40
0
40
1
40
1
40
1
40
1
10
376.39582600000006
20
113.48636400000001
30
0
10
376.39582600000006
20
113.125967
30
0
10
376.25266000000005
20
112.780334
30
0
10
375.99781400000006
20
112.52549499999999
30
0
0
SPLINE
5
221
100
AcDbEntity
8
0
100
AcDbSpline
70
1064
71
3
72
8
73
4
74
0
42
0.000000001
43
0.0000000001
44
0.0000000001
40
0
40
0
40
0
40
0
40
1
40
1
40
1
40
1
10
352.20433700000001
20
421.135493
30
0
10
352.20433700000001
20
420.58940300000006
30
0
10
351.98740499999997
20
420.06567899999999
30
0
10
351.60124600000006
20
419.67953300000005
30
0
0
SPLINE
5
222
100
AcDbEntity
8
0
100
AcDbSpline
70
1064
71
3
72
8
73
4
74
0
42
0.000000001
43
0.0000000001
44
0.0000000001
40
0
40
0
40
0
40
0
40
1
40
1
40
1
40
1
10
504.02503200000007
20
50.091324
30
0
10
504.02503200000007
20
49.664604000000011
30
0
10
503.85554000000008
20
49.255373000000006
30
0
10
503.553809
20
48.953642000000002
30
0
0
SPLINE
5
223
100
AcDbEntity
8
0
100
AcDbSpline
70
1064
71
3
72
8
73
4
74
0
42
0.000000001
43
0.0000000001
44
0.0000000001
40
0
40
0
40
0
40
0
40
1
40
1
40
1
40
1
10
483.28241300000002
20
30.957639
30
0
10
482.980682
20
31.259370000000001
30
0
10
482.81116400000002
20
31.668601000000002
30
0
10
482.81116400000002
20
32.095320999999998
30
0
0
SPLINE
5
224
100
AcDbEntity
8
0
100
AcDbSpline
70
1064
71
3
72
8
73
4
74
0
42
0.000000001
43
0.0000000001
44
0.0000000001
40
0
40
0
40
0
40
0
40
1
40
1
40
1
40
1
10
484.42009500000006
20
30.48639
30
0
10
483.99337500000001
20
30.48639
30
0
10
483.58414400000009
20
30.655907999999997
30
0
10
483.28241300000002
20
30.957639
30
0
0
SPLINE
5
225
100
AcDbEntity
8
0
100
AcDbSpline
70
1064
71
3
72
8
73
4
74
0
42
0.000000001
43
0.0000000001
44
0.0000000001
40
0
40
0
40
0
40
0
40
1
40
1
40
1
40
1
10
484.42009500000006
20
33.704250000000002
30
0
10
485.308672
20
33.704222999999999
30
0
10
486.02902599999999
20
32.983894999999997
30
0
10
486.02902599999999
20
32.095320999999998
30
0
0
SPLINE
5
226
100
AcDbEntity
8
0
100
AcDbSpline
70
1064
71
3
72
8
73
4
74
0
42
0.000000001
43
0.0000000001
44
0.0000000001
40
0
40
0
40
0
40
0
40
1
40
1
40
1
40
1
10
51.636026999999999
20
32.195307
30
0
10
51.636032999999998
20
31.768587
30
0
10
51.466521999999998
20
31.359355999999998
30
0
10
51.164786000000007
20
31.057625000000002
30
0
0
SPLINE
5
227
100
AcDbEntity
8
0
100
AcDbSpline
70
1064
71
3
72
8
73
4
74
0
42
0.000000001
43
0.0000000001
44
0.0000000001
40
0
40
0
40
0
40
0
40
1
40
1
40
1
40
1
10
274.84990699999997
20
432.08327599999996
30
0
10
274.48951800000003
20
432.08327599999996
30
0
10
274.14389300000005
20
432.22644500000001
30
0
10
273.88904600000001
20
432.48128100000002
30
0
0
SPLINE
5
228
100
AcDbEntity
8
0
100
AcDbSpline
70
1064
71
3
72
8
73
4
74
0
42
0.000000001
43
0.0000000001
44
0.0000000001
40
0
40
0
40
0
40
0
40
1
40
1
40
1
40
1
10
350.14529700000003
20
423.19451700000002
30
0
10
350.69137000000006
20
423.19452200000001
30
0
10
351.21511300000003
20
422.97758799999997
30
0
10
351.60124600000006
20
422.59144700000007
30
0
0
SPLINE
5
229
100
AcDbEntity
8
0
100
AcDbSpline
70
1064
71
3
72
8
73
4
74
0
42
0.000000001
43
0.0000000001
44
0.0000000001
40
0
40
0
40
0
40
0
40
1
40
1
40
1
40
1
10
375.03695299999998
20
112.127493
30
0
10
374.67656400000004
20
112.12749000000001
30
0
10
374.33091200000001
20
112.27065600000002
30
0
10
374.07609200000002
20
112.52549499999999
30
0
0
SPLINE
5
230
100
AcDbEntity
8
0
100
AcDbSpline
70
1064
71
3
72
8
73
4
74
0
42
0.000000001
43
0.0000000001
44
0.0000000001
40
0
40
0
40
0
40
0
40
1
40
1
40
1
40
1
10
375.99781400000006
20
112.52549499999999
30
0
10
375.74299300000001
20
112.27065600000002
30
0
10
375.39734199999998
20
112.12749000000001
30
0
10
375.03695299999998
20
112.127493
30
0
0
SPLINE
5
231
100
AcDbEntity
8
0
100
AcDbSpline
70
1064
71
3
72
8
73
4
74
0
42
0.000000001
43
0.0000000001
44
0.0000000001
40
0
40
0
40
0
40
0
40
1
40
1
40
1
40
1
10
482.81116400000002
20
32.095320999999998
30
0
10
482.81116400000002
20
32.522038000000002
30
0
10
482.980682
20
32.931269
30
0
10
483.28241300000002
20
33.233000000000004
30
0
0
SPLINE
5
232
100
AcDbEntity
8
0
100
AcDbSpline
70
1064
71
3
72
8
73
4
74
0
42
0.000000001
43
0.0000000001
44
0.0000000001
40
0
40
0
40
0
40
0
40
1
40
1
40
1
40
1
10
181.14502899999997
20
34.811218999999994
30
0
10
181.691102
20
34.811218999999994
30
0
10
182.214808
20
34.594288999999996
30
0
10
182.60093799999999
20
34.208151000000001
30
0
0
SPLINE
5
233
100
AcDbEntity
8
0
100
AcDbSpline
70
1064
71
3
72
8
73
4
74
0
42
0.000000001
43
0.0000000001
44
0.0000000001
40
0
40
0
40
0
40
0
40
1
40
1
40
1
40
1
10
503.553809
20
48.953642000000002
30
0
10
503.2520780000001
20
48.651911000000005
30
0
10
502.84282100000007
20
48.482392999999995
30
0
10
502.41612699999996
20
48.482392999999995
30
0
0
SPLINE
5
234
100
AcDbEntity
8
0
100
AcDbSpline
70
1064
71
3
72
8
73
4
74
0
42
0.000000001
43
0.0000000001
44
0.0000000001
40
0
40
0
40
0
40
0
40
1
40
1
40
1
40
1
10
502.41612699999996
20
51.700254999999999
30
0
10
503.30470400000002
20
51.700254999999999
30
0
10
504.02503200000007
20
50.979901000000005
30
0
10
504.02503200000007
20
50.091324
30
0
0
SPLINE
5
235
100
AcDbEntity
8
0
100
AcDbSpline
70
1064
71
3
72
8
73
4
74
0
42
0.000000001
43
0.0000000001
44
0.0000000001
40
0
40
0
40
0
40
0
40
1
40
1
40
1
40
1
10
113.079104
20
316.86301500000002
30
0
10
113.333945
20
317.11785400000002
30
0
10
113.679586
20
317.26102000000003
30
0
10
114.039986
20
317.26102000000003
30
0
0
SPLINE
5
236
100
AcDbEntity
8
0
100
AcDbSpline
70
1064
71
3
72
8
73
4
74
0
42
0.000000001
43
0.0000000001
44
0.0000000001
40
0
40
0
40
0
40
0
40
1
40
1
40
1
40
1
10
318.58934199999999
20
419.67953300000005
30
0
10
318.20320900000002
20
420.06567899999999
30
0
10
317.98627700000003
20
420.58940300000006
30
0
10
317.98627700000003
20
421.135493
30
0
0
SPLINE
5
237
100
AcDbEntity
8
0
100
AcDbSpline
70
1064
71
3
72
8
73
4
74
0
42
0.000000001
43
0.0000000001
44
0.0000000001
40
0
40
0
40
0
40
0
40
1
40
1
40
1
40
1
10
275.83698800000002
20
428.60301300000003
30
0
10
276.091835
20
428.34817200000003
30
0
10
276.23500100000001
20
428.00254100000006
30
0
10
276.23500100000001
20
427.64214700000002
30
0
0
SPLINE
5
238
100
AcDbEntity
8
0
100
AcDbSpline
70
1064
71
3
72
8
73
4
74
0
42
0.000000001
43
0.0000000001
44
0.0000000001
40
0
40
0
40
0
40
0
40
1
40
1
40
1
40
1
10
151.04503700000004
20
30.693266999999999
30
0
10
149.90790800000002
20
30.693266999999999
30
0
10
148.98608400000001
20
31.615102
30
0
10
148.98607800000002
20
32.752235999999996
30
0
0
SPLINE
5
239
100
AcDbEntity
8
0
100
AcDbSpline
70
1064
71
3
72
8
73
4
74
0
42
0.000000001
43
0.0000000001
44
0.0000000001
40
0
40
0
40
0
40
0
40
1
40
1
40
1
40
1
10
351.60124600000006
20
422.59144700000007
30
0
10
351.98740499999997
20
422.20530600000006
30
0
10
352.20433700000001
20
421.68158199999999
30
0
10
352.20433700000001
20
421.135493
30
0
0
SPLINE
5
240
100
AcDbEntity
8
0
100
AcDbSpline
70
1064
71
3
72
8
73
4
74
0
42
0.000000001
43
0.0000000001
44
0.0000000001
40
0
40
0
40
0
40
0
40
1
40
1
40
1
40
1
10
32.042093999999999
20
51.811354000000009
30
0
10
32.930675999999998
20
51.811354000000009
30
0
10
33.651019999999995
20
51.091025999999999
30
0
10
33.651026000000002
20
50.202449000000001
30
0
0
SPLINE
5
241
100
AcDbEntity
8
0
100
AcDbSpline
70
1064
71
3
72
8
73
4
74
0
42
0.000000001
43
0.0000000001
44
0.0000000001
40
0
40
0
40
0
40
0
40
1
40
1
40
1
40
1
10
315.02704500000004
20
309.14127800000006
30
0
10
314.772198
20
308.88643999999999
30
0
10
314.42657300000002
20
308.74327400000004
30
0
10
314.06618400000002
20
308.74327400000004
30
0
0
SPLINE
5
242
100
AcDbEntity
8
0
100
AcDbSpline
70
1064
71
3
72
8
73
4
74
0
42
0.000000001
43
0.0000000001
44
0.0000000001
40
0
40
0
40
0
40
0
40
1
40
1
40
1
40
1
10
312.707311
20
310.102146
30
0
10
312.707311
20
310.46254099999999
30
0
10
312.85047700000001
20
310.808176
30
0
10
313.10529700000006
20
311.06301300000001
30
0
0
SPLINE
5
243
100
AcDbEntity
8
0
100
AcDbSpline
70
1064
71
3
72
8
73
4
74
0
42
0.000000001
43
0.0000000001
44
0.0000000001
40
0
40
0
40
0
40
0
40
1
40
1
40
1
40
1
10
374.07609200000002
20
112.52549499999999
30
0
10
373.82124500000003
20
112.780334
30
0
10
373.67807900000003
20
113.125967
30
0
10
373.67807900000003
20
113.48636400000001
30
0
0
SPLINE
5
244
100
AcDbEntity
8
0
100
AcDbSpline
70
1064
71
3
72
8
73
4
74
0
42
0.000000001
43
0.0000000001
44
0.0000000001
40
0
40
0
40
0
40
0
40
1
40
1
40
1
40
1
10
114.039906
20
374.64327700000007
30
0
10
113.67951500000002
20
374.64327700000007
30
0
10
113.33387900000002
20
374.78644300000008
30
0
10
113.07904300000001
20
375.04127900000009
30
0
0
SPLINE
5
245
100
AcDbEntity
8
0
100
AcDbSpline
70
1064
71
3
72
8
73
4
74
0
42
0.000000001
43
0.0000000001
44
0.0000000001
40
0
40
0
40
0
40
0
40
1
40
1
40
1
40
1
10
115.39878
20
376.00214799999998
30
0
10
115.39878
20
375.25166500000006
30
0
10
114.79039399999999
20
374.64327700000007
30
0
10
114.039906
20
374.64327700000007
30
0
0
SPLINE
5
246
100
AcDbEntity
8
0
100
AcDbSpline
70
1064
71
3
72
8
73
4
74
0
42
0.000000001
43
0.0000000001
44
0.0000000001
40
0
40
0
40
0
40
0
40
1
40
1
40
1
40
1
10
313.10529700000006
20
311.06301300000001
30
0
10
313.36014399999999
20
311.31785099999996
30
0
10
313.70576899999998
20
311.46101699999997
30
0
10
314.06618400000002
20
311.46101699999997
30
0
0
SPLINE
5
247
100
AcDbEntity
8
0
100
AcDbSpline
70
1064
71
3
72
8
73
4
74
0
42
0.000000001
43
0.0000000001
44
0.0000000001
40
0
40
0
40
0
40
0
40
1
40
1
40
1
40
1
10
179.68911399999999
20
34.208154
30
0
10
180.07524699999999
20
34.594288999999996
30
0
10
180.59895500000005
20
34.811218999999994
30
0
10
181.14502899999997
20
34.811218999999994
30
0
0
SPLINE
5
248
100
AcDbEntity
8
0
100
AcDbSpline
70
1064
71
3
72
8
73
4
74
0
42
0.000000001
43
0.0000000001
44
0.0000000001
40
0
40
0
40
0
40
0
40
1
40
1
40
1
40
1
10
313.07905
20
316.86301900000001
30
0
10
313.33389700000004
20
317.11785600000002
30
0
10
313.67952200000002
20
317.26102300000002
30
0
10
314.03993800000001
20
317.26102300000002
30
0
0
SPLINE
5
249
100
AcDbEntity
8
0
100
AcDbSpline
70
1064
71
3
72
8
73
4
74
0
42
0.000000001
43
0.0000000001
44
0.0000000001
40
0
40
0
40
0
40
0
40
1
40
1
40
1
40
1
10
369.236942
20
112.10127299999999
30
0
10
368.48647800000003
20
112.10127299999999
30
0
10
367.87809500000003
20
112.70964000000001
30
0
10
367.87806899999998
20
113.46011700000003
30
0
0
SPLINE
5
250
100
AcDbEntity
8
0
100
AcDbSpline
70
1064
71
3
72
8
73
4
74
0
42
0.000000001
43
0.0000000001
44
0.0000000001
40
0
40
0
40
0
40
0
40
1
40
1
40
1
40
1
10
365.21384700000004
20
118.48632499999999
30
0
10
365.21384700000004
20
118.12593100000001
30
0
10
365.07068099999998
20
117.780292
30
0
10
364.815834
20
117.52545600000002
30
0
0
SPLINE
5
251
100
AcDbEntity
8
0
100
AcDbSpline
70
1064
71
3
72
8
73
4
74
0
42
0.000000001
43
0.0000000001
44
0.0000000001
40
0
40
0
40
0
40
0
40
1
40
1
40
1
40
1
10
237.58502700000003
20
34.761181000000001
30
0
10
238.72215600000004
20
34.761181000000001
30
0
10
239.64398300000002
20
33.839356000000002
30
0
10
239.64398900000003
20
32.702224999999999
30
0
0
SPLINE
5
252
100
AcDbEntity
8
0
100
AcDbSpline
70
1064
71
3
72
8
73
4
74
0
42
0.000000001
43
0.0000000001
44
0.0000000001
40
0
40
0
40
0
40
0
40
1
40
1
40
1
40
1
10
314.06618400000002
20
308.74327400000004
30
0
10
313.70576899999998
20
308.74327400000004
30
0
10
313.36014399999999
20
308.88643999999999
30
0
10
313.10529700000006
20
309.14127800000006
30
0
0
SPLINE
5
253
100
AcDbEntity
8
0
100
AcDbSpline
70
1064
71
3
72
8
73
4
74
0
42
0.000000001
43
0.0000000001
44
0.0000000001
40
0
40
0
40
0
40
0
40
1
40
1
40
1
40
1
10
348.08628300000004
20
421.135493
30
0
10
348.08628300000004
20
422.27265299999999
30
0
10
349.00811800000008
20
423.19450899999998
30
0
10
350.14529700000003
20
423.19451700000002
30
0
0
SPLINE
5
254
100
AcDbEntity
8
0
100
AcDbSpline
70
1064
71
3
72
8
73
4
74
0
42
0.000000001
43
0.0000000001
44
0.0000000001
40
0
40
0
40
0
40
0
40
1
40
1
40
1
40
1
10
112.681038
20
376.00214799999998
30
0
10
112.681038
20
376.36254200000002
30
0
10
112.82420400000001
20
376.70817800000003
30
0
10
113.07904300000001
20
376.96301400000004
30
0
0
SPLINE
5
255
100
AcDbEntity
8
0
100
AcDbSpline
70
1064
71
3
72
8
73
4
74
0
42
0.000000001
43
0.0000000001
44
0.0000000001
40
0
40
0
40
0
40
0
40
1
40
1
40
1
40
1
10
274.84990699999997
20
434.80102299999999
30
0
10
275.60039799999998
20
434.80102299999999
30
0
10
276.20878100000004
20
434.192632
30
0
10
276.20878100000004
20
433.44214700000009
30
0
0
SPLINE
5
256
100
AcDbEntity
8
0
100
AcDbSpline
70
1064
71
3
72
8
73
4
74
0
42
0.000000001
43
0.0000000001
44
0.0000000001
40
0
40
0
40
0
40
0
40
1
40
1
40
1
40
1
10
181.14502899999997
20
30.693266999999999
30
0
10
180.00789699999999
20
30.693266999999999
30
0
10
179.086071
20
31.615102
30
0
10
179.08606800000001
20
32.752235999999996
30
0
0
SPLINE
5
257
100
AcDbEntity
8
0
100
AcDbSpline
70
1064
71
3
72
8
73
4
74
0
42
0.000000001
43
0.0000000001
44
0.0000000001
40
0
40
0
40
0
40
0
40
1
40
1
40
1
40
1
10
350.14529700000003
20
419.07646
30
0
10
349.00811800000008
20
419.07647599999996
30
0
10
348.08628300000004
20
419.99832900000001
30
0
10
348.08628300000004
20
421.135493
30
0
0
SPLINE
5
258
100
AcDbEntity
8
0
100
AcDbSpline
70
1064
71
3
72
8
73
4
74
0
42
0.000000001
43
0.0000000001
44
0.0000000001
40
0
40
0
40
0
40
0
40
1
40
1
40
1
40
1
10
322.10430500000001
20
421.135493
30
0
10
322.10430500000001
20
419.99832900000001
30
0
10
321.18247100000008
20
419.07647599999996
30
0
10
320.04529100000002
20
419.07646
30
0
0
SPLINE
5
259
100
AcDbEntity
8
0
100
AcDbSpline
70
1064
71
3
72
8
73
4
74
0
42
0.000000001
43
0.0000000001
44
0.0000000001
40
0
40
0
40
0
40
0
40
1
40
1
40
1
40
1
10
375.99781400000006
20
114.44723000000002
30
0
10
376.25266000000005
20
114.19239400000001
30
0
10
376.39582600000006
20
113.84675799999999
30
0
10
376.39582600000006
20
113.48636400000001
30
0
0
SPLINE
5
260
100
AcDbEntity
8
0
100
AcDbSpline
70
1064
71
3
72
8
73
4
74
0
42
0.000000001
43
0.0000000001
44
0.0000000001
40
0
40
0
40
0
40
0
40
1
40
1
40
1
40
1
10
48.889400999999999
20
31.057625000000002
30
0
10
48.587667999999994
20
31.359355999999998
30
0
10
48.418156999999994
20
31.768587
30
0
10
48.418162000000002
20
32.195307
30
0
0
SPLINE
5
261
100
AcDbEntity
8
0
100
AcDbSpline
70
1064
71
3
72
8
73
4
74
0
42
0.000000001
43
0.0000000001
44
0.0000000001
40
0
40
0
40
0
40
0
40
1
40
1
40
1
40
1
10
500.80717000000004
20
50.091324
30
0
10
500.80717000000004
20
50.518044000000003
30
0
10
500.97668800000002
20
50.927275000000009
30
0
10
501.2784190000001
20
51.229005999999998
30
0
0
SPLINE
5
262
100
AcDbEntity
8
0
100
AcDbSpline
70
1064
71
3
72
8
73
4
74
0
42
0.000000001
43
0.0000000001
44
0.0000000001
40
0
40
0
40
0
40
0
40
1
40
1
40
1
40
1
10
318.58934199999999
20
422.59144700000007
30
0
10
318.97550200000001
20
422.97758799999997
30
0
10
319.49921800000004
20
423.19452200000001
30
0
10
320.04529100000002
20
423.19451700000002
30
0
0
SPLINE
5
263
100
AcDbEntity
8
0
100
AcDbSpline
70
1064
71
3
72
8
73
4
74
0
42
0.000000001
43
0.0000000001
44
0.0000000001
40
0
40
0
40
0
40
0
40
1
40
1
40
1
40
1
10
354.78992499999998
20
434.80102299999999
30
0
10
355.15034000000003
20
434.80102299999999
30
0
10
355.49596600000001
20
434.65785699999998
30
0
10
355.750812
20
434.40301800000009
30
0
0
SPLINE
5
264
100
AcDbEntity
8
0
100
AcDbSpline
70
1064
71
3
72
8
73
4
74
0
42
0.000000001
43
0.0000000001
44
0.0000000001
40
0
40
0
40
0
40
0
40
1
40
1
40
1
40
1
10
261.885805
20
392.04751299999998
30
0
10
261.630967
20
391.79267700000003
30
0
10
261.28533399999998
20
391.64951099999996
30
0
10
260.924937
20
391.64951099999996
30
0
0
SPLINE
5
265
100
AcDbEntity
8
0
100
AcDbSpline
70
1064
71
3
72
8
73
4
74
0
42
0.000000001
43
0.0000000001
44
0.0000000001
40
0
40
0
40
0
40
0
40
1
40
1
40
1
40
1
10
151.04530099999999
20
499.69349599999998
30
0
10
150.49921499999999
20
499.69349599999998
30
0
10
149.97548999999998
20
499.91042800000002
30
0
10
149.589349
20
500.29656900000009
30
0
0
SPLINE
5
266
100
AcDbEntity
8
0
100
AcDbSpline
70
1064
71
3
72
8
73
4
74
0
42
0.000000001
43
0.0000000001
44
0.0000000001
40
0
40
0
40
0
40
0
40
1
40
1
40
1
40
1
10
353.45729800000004
20
427.64214700000002
30
0
10
353.45729800000004
20
428.00254100000006
30
0
10
353.60046399999999
20
428.34817200000003
30
0
10
353.85531100000003
20
428.60301300000003
30
0
0
SPLINE
5
267
100
AcDbEntity
8
0
100
AcDbSpline
70
1064
71
3
72
8
73
4
74
0
42
0.000000001
43
0.0000000001
44
0.0000000001
40
0
40
0
40
0
40
0
40
1
40
1
40
1
40
1
10
354.81617200000005
20
429.0010180000001
30
0
10
355.17658699999998
20
429.0010180000001
30
0
10
355.52221200000008
20
428.85785199999998
30
0
10
355.77705900000007
20
428.60301300000003
30
0
0
SPLINE
5
268
100
AcDbEntity
8
0
100
AcDbSpline
70
1064
71
3
72
8
73
4
74
0
42
0.000000001
43
0.0000000001
44
0.0000000001
40
0
40
0
40
0
40
0
40
1
40
1
40
1
40
1
10
353.85531100000003
20
428.60301300000003
30
0
10
354.11015700000002
20
428.85785199999998
30
0
10
354.455783
20
429.0010180000001
30
0
10
354.81617200000005
20
429.0010180000001
30
0
0
SPLINE
5
269
100
AcDbEntity
8
0
100
AcDbSpline
70
1064
71
3
72
8
73
4
74
0
42
0.000000001
43
0.0000000001
44
0.0000000001
40
0
40
0
40
0
40
0
40
1
40
1
40
1
40
1
10
315.00079799999997
20
314.941283
30
0
10
314.74595199999999
20
314.68644499999999
30
0
10
314.40032700000006
20
314.54327899999998
30
0
10
314.03993800000001
20
314.54327899999998
30
0
0
SPLINE
5
270
100
AcDbEntity
8
0
100
AcDbSpline
70
1064
71
3
72
8
73
4
74
0
42
0.000000001
43
0.0000000001
44
0.0000000001
40
0
40
0
40
0
40
0
40
1
40
1
40
1
40
1
10
361.14878799999997
20
447.42014000000012
30
0
10
361.14878799999997
20
447.05974900000001
30
0
10
361.00562200000007
20
446.71411000000001
30
0
10
360.75080200000002
20
446.45927699999993
30
0
0
SPLINE
5
271
100
AcDbEntity
8
0
100
AcDbSpline
70
1064
71
3
72
8
73
4
74
0
42
0.000000001
43
0.0000000001
44
0.0000000001
40
0
40
0
40
0
40
0
40
1
40
1
40
1
40
1
10
358.82905399999999
20
446.45927699999993
30
0
10
358.574207
20
446.71411000000001
30
0
10
358.43104099999999
20
447.05974900000001
30
0
10
358.43104099999999
20
447.42014000000012
30
0
0
SPLINE
5
272
100
AcDbEntity
8
0
100
AcDbSpline
70
1064
71
3
72
8
73
4
74
0
42
0.000000001
43
0.0000000001
44
0.0000000001
40
0
40
0
40
0
40
0
40
1
40
1
40
1
40
1
10
359.78991500000001
20
448.77901100000003
30
0
10
360.15033000000005
20
448.77901600000001
30
0
10
360.49595599999998
20
448.63584800000012
30
0
10
360.75080200000002
20
448.38101200000006
30
0
0
SPLINE
5
273
100
AcDbEntity
8
0
100
AcDbSpline
70
1064
71
3
72
8
73
4
74
0
42
0.000000001
43
0.0000000001
44
0.0000000001
40
0
40
0
40
0
40
0
40
1
40
1
40
1
40
1
10
275.83698800000002
20
426.68127800000002
30
0
10
275.58216800000002
20
426.42643700000008
30
0
10
275.23651600000005
20
426.28327100000007
30
0
10
274.876127
20
426.28327100000007
30
0
0
SPLINE
5
274
100
AcDbEntity
8
0
100
AcDbSpline
70
1064
71
3
72
8
73
4
74
0
42
0.000000001
43
0.0000000001
44
0.0000000001
40
0
40
0
40
0
40
0
40
1
40
1
40
1
40
1
10
360.75080200000002
20
446.45927699999993
30
0
10
360.49595599999998
20
446.20443800000004
30
0
10
360.15033000000005
20
446.06127200000003
30
0
10
359.78991500000001
20
446.06127200000003
30
0
0
SPLINE
5
275
100
AcDbEntity
8
0
100
AcDbSpline
70
1064
71
3
72
8
73
4
74
0
42
0.000000001
43
0.0000000001
44
0.0000000001
40
0
40
0
40
0
40
0
40
1
40
1
40
1
40
1
10
274.876127
20
426.28327100000007
30
0
10
274.515738
20
426.28327100000007
30
0
10
274.17011300000001
20
426.42643700000008
30
0
10
273.91526699999997
20
426.68127800000002
30
0
0
SPLINE
5
276
100
AcDbEntity
8
0
100
AcDbSpline
70
1064
71
3
72
8
73
4
74
0
42
0.000000001
43
0.0000000001
44
0.0000000001
40
0
40
0
40
0
40
0
40
1
40
1
40
1
40
1
10
358.82905399999999
20
448.38101200000006
30
0
10
359.08390099999997
20
448.63584800000012
30
0
10
359.42952600000001
20
448.77901600000001
30
0
10
359.78991500000001
20
448.77901100000003
30
0
0
SPLINE
5
277
100
AcDbEntity
8
0
100
AcDbSpline
70
1064
71
3
72
8
73
4
74
0
42
0.000000001
43
0.0000000001
44
0.0000000001
40
0
40
0
40
0
40
0
40
1
40
1
40
1
40
1
10
273.91526699999997
20
426.68127800000002
30
0
10
273.66042000000004
20
426.93611699999997
30
0
10
273.51725400000004
20
427.28174999999999
30
0
10
273.51725400000004
20
427.64214700000002
30
0
0
SPLINE
5
278
100
AcDbEntity
8
0
100
AcDbSpline
70
1064
71
3
72
8
73
4
74
0
42
0.000000001
43
0.0000000001
44
0.0000000001
40
0
40
0
40
0
40
0
40
1
40
1
40
1
40
1
10
358.82905399999999
20
437.85928100000007
30
0
10
358.574207
20
438.11412300000001
30
0
10
358.43104099999999
20
438.45975299999998
30
0
10
358.43104099999999
20
438.82015000000001
30
0
0
SPLINE
5
279
100
AcDbEntity
8
0
100
AcDbSpline
70
1064
71
3
72
8
73
4
74
0
42
0.000000001
43
0.0000000001
44
0.0000000001
40
0
40
0
40
0
40
0
40
1
40
1
40
1
40
1
10
364.815834
20
117.52545600000002
30
0
10
364.56098700000007
20
117.27062000000001
30
0
10
364.21536200000003
20
117.12745400000001
30
0
10
363.85497299999997
20
117.12745400000001
30
0
0
SPLINE
5
280
100
AcDbEntity
8
0
100
AcDbSpline
70
1064
71
3
72
8
73
4
74
0
42
0.000000001
43
0.0000000001
44
0.0000000001
40
0
40
0
40
0
40
0
40
1
40
1
40
1
40
1
10
181.14529099999999
20
499.69349599999998
30
0
10
180.59920099999999
20
499.69349599999998
30
0
10
180.07548
20
499.91042800000002
30
0
10
179.689336
20
500.29656900000009
30
0
0
SPLINE
5
281
100
AcDbEntity
8
0
100
AcDbSpline
70
1064
71
3
72
8
73
4
74
0
42
0.000000001
43
0.0000000001
44
0.0000000001
40
0
40
0
40
0
40
0
40
1
40
1
40
1
40
1
10
314.03993800000001
20
317.26102300000002
30
0
10
314.40032700000006
20
317.26102300000002
30
0
10
314.74595199999999
20
317.11785600000002
30
0
10
315.00079799999997
20
316.86301900000001
30
0
0
SPLINE
5
282
100
AcDbEntity
8
0
100
AcDbSpline
70
1064
71
3
72
8
73
4
74
0
42
0.000000001
43
0.0000000001
44
0.0000000001
40
0
40
0
40
0
40
0
40
1
40
1
40
1
40
1
10
315.02704500000004
20
311.06301300000001
30
0
10
315.28186499999998
20
310.808176
30
0
10
315.42503099999999
20
310.46254099999999
30
0
10
315.42503099999999
20
310.102146
30
0
0
SPLINE
5
283
100
AcDbEntity
8
0
100
AcDbSpline
70
1064
71
3
72
8
73
4
74
0
42
0.000000001
43
0.0000000001
44
0.0000000001
40
0
40
0
40
0
40
0
40
1
40
1
40
1
40
1
10
353.82906400000002
20
432.48128100000002
30
0
10
353.57421699999998
20
432.73611700000004
30
0
10
353.43105099999997
20
433.08175300000005
30
0
10
353.43105099999997
20
433.44214700000009
30
0
0
SPLINE
5
284
100
AcDbEntity
8
0
100
AcDbSpline
70
1064
71
3
72
8
73
4
74
0
42
0.000000001
43
0.0000000001
44
0.0000000001
40
0
40
0
40
0
40
0
40
1
40
1
40
1
40
1
10
353.85531100000003
20
426.68127800000002
30
0
10
353.60046399999999
20
426.93611699999997
30
0
10
353.45729800000004
20
427.28174999999999
30
0
10
353.45729800000004
20
427.64214700000002
30
0
0
SPLINE
5
285
100
AcDbEntity
8
0
100
AcDbSpline
70
1064
71
3
72
8
73
4
74
0
42
0.000000001
43
0.0000000001
44
0.0000000001
40
0
40
0
40
0
40
0
40
1
40
1
40
1
40
1
10
152.50125600000001
20
503.20847800000001
30
0
10
152.88739900000002
20
502.82233400000001
30
0
10
153.104331
20
502.29861300000005
30
0
10
153.104331
20
501.75252300000011
30
0
0
SPLINE
5
286
100
AcDbEntity
8
0
100
AcDbSpline
70
1064
71
3
72
8
73
4
74
0
42
0.000000001
43
0.0000000001
44
0.0000000001
40
0
40
0
40
0
40
0
40
1
40
1
40
1
40
1
10
148.98627400000001
20
501.75252300000011
30
0
10
148.98627400000001
20
502.29861300000005
30
0
10
149.20320600000002
20
502.82233400000001
30
0
10
149.589349
20
503.20847800000001
30
0
0
SPLINE
5
287
100
AcDbEntity
8
0
100
AcDbSpline
70
1064
71
3
72
8
73
4
74
0
42
0.000000001
43
0.0000000001
44
0.0000000001
40
0
40
0
40
0
40
0
40
1
40
1
40
1
40
1
10
179.689336
20
500.29656900000009
30
0
10
179.30319300000002
20
500.68271500000009
30
0
10
179.08625800000004
20
501.20643400000006
30
0
10
179.08625800000004
20
501.75252300000011
30
0
0
SPLINE
5
288
100
AcDbEntity
8
0
100
AcDbSpline
70
1064
71
3
72
8
73
4
74
0
42
0.000000001
43
0.0000000001
44
0.0000000001
40
0
40
0
40
0
40
0
40
1
40
1
40
1
40
1
10
356.17504500000001
20
427.64214700000002
30
0
10
356.17504500000001
20
427.28174999999999
30
0
10
356.031879
20
426.93611699999997
30
0
10
355.77705900000007
20
426.68127800000002
30
0
0
SPLINE
5
289
100
AcDbEntity
8
0
100
AcDbSpline
70
1064
71
3
72
8
73
4
74
0
42
0.000000001
43
0.0000000001
44
0.0000000001
40
0
40
0
40
0
40
0
40
1
40
1
40
1
40
1
10
356.14879800000006
20
433.44214700000009
30
0
10
356.14879800000006
20
433.08175300000005
30
0
10
356.00563200000005
20
432.73611700000004
30
0
10
355.750812
20
432.48128100000002
30
0
0
SPLINE
5
290
100
AcDbEntity
8
0
100
AcDbSpline
70
1064
71
3
72
8
73
4
74
0
42
0.000000001
43
0.0000000001
44
0.0000000001
40
0
40
0
40
0
40
0
40
1
40
1
40
1
40
1
10
182.60124300000001
20
503.20847800000001
30
0
10
182.98738600000001
20
502.82233400000001
30
0
10
183.204318
20
502.29861300000005
30
0
10
183.204318
20
501.75252300000011
30
0
0
SPLINE
5
291
100
AcDbEntity
8
0
100
AcDbSpline
70
1064
71
3
72
8
73
4
74
0
42
0.000000001
43
0.0000000001
44
0.0000000001
40
0
40
0
40
0
40
0
40
1
40
1
40
1
40
1
10
354.78992499999998
20
432.08327599999996
30
0
10
354.42953600000004
20
432.08327599999996
30
0
10
354.08391100000006
20
432.22644500000001
30
0
10
353.82906400000002
20
432.48128100000002
30
0
0
SPLINE
5
292
100
AcDbEntity
8
0
100
AcDbSpline
70
1064
71
3
72
8
73
4
74
0
42
0.000000001
43
0.0000000001
44
0.0000000001
40
0
40
0
40
0
40
0
40
1
40
1
40
1
40
1
10
151.04530099999999
20
503.811553
30
0
10
151.59139099999999
20
503.811553
30
0
10
152.11511200000001
20
503.59461600000003
30
0
10
152.50125600000001
20
503.20847800000001
30
0
0
SPLINE
5
293
100
AcDbEntity
8
0
100
AcDbSpline
70
1064
71
3
72
8
73
4
74
0
42
0.000000001
43
0.0000000001
44
0.0000000001
40
0
40
0
40
0
40
0
40
1
40
1
40
1
40
1
10
179.08625800000004
20
501.75252300000011
30
0
10
179.08625800000004
20
502.29861300000005
30
0
10
179.30319300000002
20
502.82233400000001
30
0
10
179.689336
20
503.20847800000001
30
0
0
SPLINE
5
294
100
AcDbEntity
8
0
100
AcDbSpline
70
1064
71
3
72
8
73
4
74
0
42
0.000000001
43
0.0000000001
44
0.0000000001
40
0
40
0
40
0
40
0
40
1
40
1
40
1
40
1
10
113.07904300000001
20
376.96301400000004
30
0
10
113.33387900000002
20
377.21785500000004
30
0
10
113.67951500000002
20
377.36102400000004
30
0
10
114.039906
20
377.36102400000004
30
0
0
SPLINE
5
295
100
AcDbEntity
8
0
100
AcDbSpline
70
1064
71
3
72
8
73
4
74
0
42
0.000000001
43
0.0000000001
44
0.0000000001
40
0
40
0
40
0
40
0
40
1
40
1
40
1
40
1
10
181.14529099999999
20
503.811553
30
0
10
181.69137800000001
20
503.811553
30
0
10
182.21509900000001
20
503.59461600000003
30
0
10
182.60124300000001
20
503.20847800000001
30
0
0
SPLINE
5
296
100
AcDbEntity
8
0
100
AcDbSpline
70
1064
71
3
72
8
73
4
74
0
42
0.000000001
43
0.0000000001
44
0.0000000001
40
0
40
0
40
0
40
0
40
1
40
1
40
1
40
1
10
358.43104099999999
20
447.42014000000012
30
0
10
358.43104099999999
20
447.78053700000009
30
0
10
358.574207
20
448.12617
30
0
10
358.82905399999999
20
448.38101200000006
30
0
0
SPLINE
5
297
100
AcDbEntity
8
0
100
AcDbSpline
70
1064
71
3
72
8
73
4
74
0
42
0.000000001
43
0.0000000001
44
0.0000000001
40
0
40
0
40
0
40
0
40
1
40
1
40
1
40
1
10
360.75080200000002
20
448.38101200000006
30
0
10
361.00562200000007
20
448.12617
30
0
10
361.14878799999997
20
447.78053700000009
30
0
10
361.14878799999997
20
447.42014000000012
30
0
0
SPLINE
5
298
100
AcDbEntity
8
0
100
AcDbSpline
70
1064
71
3
72
8
73
4
74
0
42
0.000000001
43
0.0000000001
44
0.0000000001
40
0
40
0
40
0
40
0
40
1
40
1
40
1
40
1
10
276.23500100000001
20
427.64214700000002
30
0
10
276.23500100000001
20
427.28174999999999
30
0
10
276.091835
20
426.93611699999997
30
0
10
275.83698800000002
20
426.68127800000002
30
0
0
SPLINE
5
299
100
AcDbEntity
8
0
100
AcDbSpline
70
1064
71
3
72
8
73
4
74
0
42
0.000000001
43
0.0000000001
44
0.0000000001
40
0
40
0
40
0
40
0
40
1
40
1
40
1
40
1
10
149.589349
20
503.20847800000001
30
0
10
149.97548999999998
20
503.59461600000003
30
0
10
150.49921499999999
20
503.811553
30
0
10
151.04530099999999
20
503.811553
30
0
0
SPLINE
5
300
100
AcDbEntity
8
0
100
AcDbSpline
70
1064
71
3
72
8
73
4
74
0
42
0.000000001
43
0.0000000001
44
0.0000000001
40
0
40
0
40
0
40
0
40
1
40
1
40
1
40
1
10
358.43104099999999
20
438.82015000000001
30
0
10
358.4310680000001
20
439.57063500000004
30
0
10
359.03945099999999
20
440.17901800000004
30
0
10
359.78991500000001
20
440.17901800000004
30
0
0
SPLINE
5
301
100
AcDbEntity
8
0
100
AcDbSpline
70
1064
71
3
72
8
73
4
74
0
42
0.000000001
43
0.0000000001
44
0.0000000001
40
0
40
0
40
0
40
0
40
1
40
1
40
1
40
1
10
360.75080200000002
20
437.85928100000007
30
0
10
360.49595599999998
20
437.60444500000006
30
0
10
360.15033000000005
20
437.46127900000005
30
0
10
359.78991500000001
20
437.46127900000005
30
0
0
SPLINE
5
302
100
AcDbEntity
8
0
100
AcDbSpline
70
1064
71
3
72
8
73
4
74
0
42
0.000000001
43
0.0000000001
44
0.0000000001
40
0
40
0
40
0
40
0
40
1
40
1
40
1
40
1
10
113.10525799999999
20
369.24127599999997
30
0
10
112.85041899999999
20
369.49611499999997
30
0
10
112.70725300000001
20
369.84175100000004
30
0
10
112.70725300000001
20
370.20214500000003
30
0
0
SPLINE
5
303
100
AcDbEntity
8
0
100
AcDbSpline
70
1064
71
3
72
8
73
4
74
0
42
0.000000001
43
0.0000000001
44
0.0000000001
40
0
40
0
40
0
40
0
40
1
40
1
40
1
40
1
10
149.589349
20
500.29656900000009
30
0
10
149.20320600000002
20
500.68271500000009
30
0
10
148.98627400000001
20
501.20643400000006
30
0
10
148.98627400000001
20
501.75252300000011
30
0
0
SPLINE
5
304
100
AcDbEntity
8
0
100
AcDbSpline
70
1064
71
3
72
8
73
4
74
0
42
0.000000001
43
0.0000000001
44
0.0000000001
40
0
40
0
40
0
40
0
40
1
40
1
40
1
40
1
10
361.14878799999997
20
438.82015000000001
30
0
10
361.14878799999997
20
438.45975299999998
30
0
10
361.00562200000007
20
438.11412300000001
30
0
10
360.75080200000002
20
437.85928100000007
30
0
0
SPLINE
5
305
100
AcDbEntity
8
0
100
AcDbSpline
70
1064
71
3
72
8
73
4
74
0
42
0.000000001
43
0.0000000001
44
0.0000000001
40
0
40
0
40
0
40
0
40
1
40
1
40
1
40
1
10
355.750812
20
432.48128100000002
30
0
10
355.49596600000001
20
432.22644500000001
30
0
10
355.15034000000003
20
432.08327599999996
30
0
10
354.78992499999998
20
432.08327599999996
30
0
0
SPLINE
5
306
100
AcDbEntity
8
0
100
AcDbSpline
70
1064
71
3
72
8
73
4
74
0
42
0.000000001
43
0.0000000001
44
0.0000000001
40
0
40
0
40
0
40
0
40
1
40
1
40
1
40
1
10
114.039906
20
377.36102400000004
30
0
10
114.79039399999999
20
377.36102100000005
30
0
10
115.39878
20
376.75263300000006
30
0
10
115.39878
20
376.00214799999998
30
0
0
SPLINE
5
307
100
AcDbEntity
8
0
100
AcDbSpline
70
1064
71
3
72
8
73
4
74
0
42
0.000000001
43
0.0000000001
44
0.0000000001
40
0
40
0
40
0
40
0
40
1
40
1
40
1
40
1
10
353.43105099999997
20
433.44214700000009
30
0
10
353.43105099999997
20
433.802547
30
0
10
353.57421699999998
20
434.14817700000003
30
0
10
353.82906400000002
20
434.40301800000009
30
0
0
SPLINE
5
308
100
AcDbEntity
8
0
100
AcDbSpline
70
1064
71
3
72
8
73
4
74
0
42
0.000000001
43
0.0000000001
44
0.0000000001
40
0
40
0
40
0
40
0
40
1
40
1
40
1
40
1
10
153.104331
20
501.75252300000011
30
0
10
153.104331
20
501.20643400000006
30
0
10
152.88739900000002
20
500.68271500000009
30
0
10
152.50125600000001
20
500.29656900000009
30
0
0
SPLINE
5
309
100
AcDbEntity
8
0
100
AcDbSpline
70
1064
71
3
72
8
73
4
74
0
42
0.000000001
43
0.0000000001
44
0.0000000001
40
0
40
0
40
0
40
0
40
1
40
1
40
1
40
1
10
359.78991500000001
20
440.17901800000004
30
0
10
360.54040600000002
20
440.17901800000004
30
0
10
361.14878799999997
20
439.57063500000004
30
0
10
361.14878799999997
20
438.82015000000001
30
0
0
SPLINE
5
310
100
AcDbEntity
8
0
100
AcDbSpline
70
1064
71
3
72
8
73
4
74
0
42
0.000000001
43
0.0000000001
44
0.0000000001
40
0
40
0
40
0
40
0
40
1
40
1
40
1
40
1
10
359.78991500000001
20
446.06127200000003
30
0
10
359.42952600000001
20
446.06127200000003
30
0
10
359.08390099999997
20
446.20443800000004
30
0
10
358.82905399999999
20
446.45927699999993
30
0
0
SPLINE
5
311
100
AcDbEntity
8
0
100
AcDbSpline
70
1064
71
3
72
8
73
4
74
0
42
0.000000001
43
0.0000000001
44
0.0000000001
40
0
40
0
40
0
40
0
40
1
40
1
40
1
40
1
10
115.02699300000002
20
371.16301400000003
30
0
10
115.28183100000001
20
370.90817500000009
30
0
10
115.42499699999999
20
370.56253700000008
30
0
10
115.42499699999999
20
370.20214500000003
30
0
0
SPLINE
5
312
100
AcDbEntity
8
0
100
AcDbSpline
70
1064
71
3
72
8
73
4
74
0
42
0.000000001
43
0.0000000001
44
0.0000000001
40
0
40
0
40
0
40
0
40
1
40
1
40
1
40
1
10
113.07904300000001
20
375.04127900000009
30
0
10
112.82420400000001
20
375.29612000000009
30
0
10
112.681038
20
375.64175599999999
30
0
10
112.681038
20
376.00214799999998
30
0
0
SPLINE
5
313
100
AcDbEntity
8
0
100
AcDbSpline
70
1064
71
3
72
8
73
4
74
0
42
0.000000001
43
0.0000000001
44
0.0000000001
40
0
40
0
40
0
40
0
40
1
40
1
40
1
40
1
10
355.77705900000007
20
428.60301300000003
30
0
10
356.031879
20
428.34817200000003
30
0
10
356.17504500000001
20
428.00254100000006
30
0
10
356.17504500000001
20
427.64214700000002
30
0
0
SPLINE
5
314
100
AcDbEntity
8
0
100
AcDbSpline
70
1064
71
3
72
8
73
4
74
0
42
0.000000001
43
0.0000000001
44
0.0000000001
40
0
40
0
40
0
40
0
40
1
40
1
40
1
40
1
10
355.750812
20
434.40301800000009
30
0
10
356.00563200000005
20
434.14817700000003
30
0
10
356.14879800000006
20
433.802547
30
0
10
356.14879800000006
20
433.44214700000009
30
0
0
SPLINE
5
315
100
AcDbEntity
8
0
100
AcDbSpline
70
1064
71
3
72
8
73
4
74
0
42
0.000000001
43
0.0000000001
44
0.0000000001
40
0
40
0
40
0
40
0
40
1
40
1
40
1
40
1
10
214.03991000000002
20
377.36102400000004
30
0
10
214.79039299999999
20
377.36102100000005
30
0
10
215.39877799999999
20
376.75263300000006
30
0
10
215.39877799999999
20
376.00214799999998
30
0
0
SPLINE
5
316
100
AcDbEntity
8
0
100
AcDbSpline
70
1064
71
3
72
8
73
4
74
0
42
0.000000001
43
0.0000000001
44
0.0000000001
40
0
40
0
40
0
40
0
40
1
40
1
40
1
40
1
10
353.82906400000002
20
434.40301800000009
30
0
10
354.08391100000006
20
434.65785699999998
30
0
10
354.42953600000004
20
434.80102299999999
30
0
10
354.78992499999998
20
434.80102299999999
30
0
0
SPLINE
5
317
100
AcDbEntity
8
0
100
AcDbSpline
70
1064
71
3
72
8
73
4
74
0
42
0.000000001
43
0.0000000001
44
0.0000000001
40
0
40
0
40
0
40
0
40
1
40
1
40
1
40
1
10
115.42499699999999
20
370.20214500000003
30
0
10
115.42499699999999
20
369.84175100000004
30
0
10
115.28183100000001
20
369.49611499999997
30
0
10
115.02699300000002
20
369.24127599999997
30
0
0
SPLINE
5
318
100
AcDbEntity
8
0
100
AcDbSpline
70
1064
71
3
72
8
73
4
74
0
42
0.000000001
43
0.0000000001
44
0.0000000001
40
0
40
0
40
0
40
0
40
1
40
1
40
1
40
1
10
179.689336
20
503.20847800000001
30
0
10
180.07548
20
503.59461600000003
30
0
10
180.59920099999999
20
503.811553
30
0
10
181.14529099999999
20
503.811553
30
0
0
SPLINE
5
319
100
AcDbEntity
8
0
100
AcDbSpline
70
1064
71
3
72
8
73
4
74
0
42
0.000000001
43
0.0000000001
44
0.0000000001
40
0
40
0
40
0
40
0
40
1
40
1
40
1
40
1
10
359.78991500000001
20
437.46127900000005
30
0
10
359.42952600000001
20
437.46127900000005
30
0
10
359.08390099999997
20
437.60444500000006
30
0
10
358.82905399999999
20
437.85928100000007
30
0
0
SPLINE
5
320
100
AcDbEntity
8
0
100
AcDbSpline
70
1064
71
3
72
8
73
4
74
0
42
0.000000001
43
0.0000000001
44
0.0000000001
40
0
40
0
40
0
40
0
40
1
40
1
40
1
40
1
10
355.77705900000007
20
426.68127800000002
30
0
10
355.52221200000008
20
426.42643700000008
30
0
10
355.17658699999998
20
426.28327100000007
30
0
10
354.81617200000005
20
426.28327100000007
30
0
0
SPLINE
5
321
100
AcDbEntity
8
0
100
AcDbSpline
70
1064
71
3
72
8
73
4
74
0
42
0.000000001
43
0.0000000001
44
0.0000000001
40
0
40
0
40
0
40
0
40
1
40
1
40
1
40
1
10
491.82226299999996
20
350.76744100000008
30
0
10
492.20839600000005
20
350.38130000000001
30
0
10
492.42532800000004
20
349.85757599999999
30
0
10
492.42532800000004
20
349.31148400000006
30
0
0
SPLINE
5
322
100
AcDbEntity
8
0
100
AcDbSpline
70
1064
71
3
72
8
73
4
74
0
42
0.000000001
43
0.0000000001
44
0.0000000001
40
0
40
0
40
0
40
0
40
1
40
1
40
1
40
1
10
84.216338000000007
20
404.98553500000008
30
0
10
83.830199000000007
20
405.37167799999997
30
0
10
83.613268000000005
20
405.8954
30
0
10
83.613268000000005
20
406.441484
30
0
0
SPLINE
5
323
100
AcDbEntity
8
0
100
AcDbSpline
70
1064
71
3
72
8
73
4
74
0
42
0.000000001
43
0.0000000001
44
0.0000000001
40
0
40
0
40
0
40
0
40
1
40
1
40
1
40
1
10
490.36628800000005
20
351.37051100000002
30
0
10
490.91238799999996
20
351.37051600000001
30
0
10
491.436104
20
351.15358199999997
30
0
10
491.82226299999996
20
350.76744100000008
30
0
0
SPLINE
5
324
100
AcDbEntity
8
0
100
AcDbSpline
70
1064
71
3
72
8
73
4
74
0
42
0.000000001
43
0.0000000001
44
0.0000000001
40
0
40
0
40
0
40
0
40
1
40
1
40
1
40
1
10
406.78533900000002
20
406.441484
30
0
10
406.78533900000002
20
405.895397
30
0
10
406.56840699999998
20
405.37167299999999
30
0
10
406.18227400000001
20
404.98553199999998
30
0
0
SPLINE
5
325
100
AcDbEntity
8
0
100
AcDbSpline
70
1064
71
3
72
8
73
4
74
0
42
0.000000001
43
0.0000000001
44
0.0000000001
40
0
40
0
40
0
40
0
40
1
40
1
40
1
40
1
10
273.91526699999997
20
428.60301300000003
30
0
10
274.17011300000001
20
428.85785199999998
30
0
10
274.515738
20
429.0010180000001
30
0
10
274.876127
20
429.0010180000001
30
0
0
SPLINE
5
326
100
AcDbEntity
8
0
100
AcDbSpline
70
1064
71
3
72
8
73
4
74
0
42
0.000000001
43
0.0000000001
44
0.0000000001
40
0
40
0
40
0
40
0
40
1
40
1
40
1
40
1
10
491.82226299999996
20
347.85552700000005
30
0
10
491.436104
20
347.46938599999999
30
0
10
490.91238799999996
20
347.252454
30
0
10
490.36628800000005
20
347.252454
30
0
0
SPLINE
5
327
100
AcDbEntity
8
0
100
AcDbSpline
70
1064
71
3
72
8
73
4
74
0
42
0.000000001
43
0.0000000001
44
0.0000000001
40
0
40
0
40
0
40
0
40
1
40
1
40
1
40
1
10
83.613268000000005
20
406.441484
30
0
10
83.613268000000005
20
406.98757599999999
30
0
10
83.830199000000007
20
407.51129800000001
30
0
10
84.216338000000007
20
407.89744100000001
30
0
0
SPLINE
5
328
100
AcDbEntity
8
0
100
AcDbSpline
70
1064
71
3
72
8
73
4
74
0
42
0.000000001
43
0.0000000001
44
0.0000000001
40
0
40
0
40
0
40
0
40
1
40
1
40
1
40
1
10
432.98035900000002
20
347.85552700000005
30
0
10
432.59420000000006
20
348.24167299999999
30
0
10
432.37726800000007
20
348.76539700000001
30
0
10
432.37726800000007
20
349.31148400000006
30
0
0
SPLINE
5
329
100
AcDbEntity
8
0
100
AcDbSpline
70
1064
71
3
72
8
73
4
74
0
42
0.000000001
43
0.0000000001
44
0.0000000001
40
0
40
0
40
0
40
0
40
1
40
1
40
1
40
1
10
363.85497299999997
20
117.12745400000001
30
0
10
363.49458399999997
20
117.12745400000001
30
0
10
363.148933
20
117.27062000000001
30
0
10
362.89411200000006
20
117.52545600000002
30
0
0
SPLINE
5
330
100
AcDbEntity
8
0
100
AcDbSpline
70
1064
71
3
72
8
73
4
74
0
42
0.000000001
43
0.0000000001
44
0.0000000001
40
0
40
0
40
0
40
0
40
1
40
1
40
1
40
1
10
274.876127
20
429.0010180000001
30
0
10
275.23651600000005
20
429.0010180000001
30
0
10
275.58216800000002
20
428.85785199999998
30
0
10
275.83698800000002
20
428.60301300000003
30
0
0
SPLINE
5
331
100
AcDbEntity
8
0
100
AcDbSpline
70
1064
71
3
72
8
73
4
74
0
42
0.000000001
43
0.0000000001
44
0.0000000001
40
0
40
0
40
0
40
0
40
1
40
1
40
1
40
1
10
273.51725400000004
20
427.64214700000002
30
0
10
273.51725400000004
20
428.00254100000006
30
0
10
273.66042000000004
20
428.34817200000003
30
0
10
273.91526699999997
20
428.60301300000003
30
0
0
SPLINE
5
332
100
AcDbEntity
8
0
100
AcDbSpline
70
1064
71
3
72
8
73
4
74
0
42
0.000000001
43
0.0000000001
44
0.0000000001
40
0
40
0
40
0
40
0
40
1
40
1
40
1
40
1
10
273.88904600000001
20
432.48128100000002
30
0
10
273.63420000000002
20
432.73611700000004
30
0
10
273.49103400000001
20
433.08175300000005
30
0
10
273.49103400000001
20
433.44214700000009
30
0
0
SPLINE
5
333
100
AcDbEntity
8
0
100
AcDbSpline
70
1064
71
3
72
8
73
4
74
0
42
0.000000001
43
0.0000000001
44
0.0000000001
40
0
40
0
40
0
40
0
40
1
40
1
40
1
40
1
10
273.49103400000001
20
433.44214700000009
30
0
10
273.49103400000001
20
433.802547
30
0
10
273.63420000000002
20
434.14817700000003
30
0
10
273.88904600000001
20
434.40301800000009
30
0
0
SPLINE
5
334
100
AcDbEntity
8
0
100
AcDbSpline
70
1064
71
3
72
8
73
4
74
0
42
0.000000001
43
0.0000000001
44
0.0000000001
40
0
40
0
40
0
40
0
40
1
40
1
40
1
40
1
10
362.89411200000006
20
117.52545600000002
30
0
10
362.63926600000002
20
117.780292
30
0
10
362.49610000000007
20
118.12593100000001
30
0
10
362.49610000000007
20
118.48632499999999
30
0
0
SPLINE
5
335
100
AcDbEntity
8
0
100
AcDbSpline
70
1064
71
3
72
8
73
4
74
0
42
0.000000001
43
0.0000000001
44
0.0000000001
40
0
40
0
40
0
40
0
40
1
40
1
40
1
40
1
10
362.49610000000007
20
118.48632499999999
30
0
10
362.49610000000007
20
118.84671899999999
30
0
10
362.63926600000002
20
119.19235500000001
30
0
10
362.89411200000006
20
119.447194
30
0
0
SPLINE
5
336
100
AcDbEntity
8
0
100
AcDbSpline
70
1064
71
3
72
8
73
4
74
0
42
0.000000001
43
0.0000000001
44
0.0000000001
40
0
40
0
40
0
40
0
40
1
40
1
40
1
40
1
10
273.88904600000001
20
434.40301800000009
30
0
10
274.14389300000005
20
434.65785699999998
30
0
10
274.48951800000003
20
434.80102299999999
30
0
10
274.84990699999997
20
434.80102299999999
30
0
0
SPLINE
5
337
100
AcDbEntity
8
0
100
AcDbSpline
70
1064
71
3
72
8
73
4
74
0
42
0.000000001
43
0.0000000001
44
0.0000000001
40
0
40
0
40
0
40
0
40
1
40
1
40
1
40
1
10
85.672294999999991
20
404.38245700000004
30
0
10
85.126204999999999
20
404.38245700000004
30
0
10
84.602484000000004
20
404.59939100000008
30
0
10
84.216338000000007
20
404.98553500000008
30
0
0
SPLINE
5
338
100
AcDbEntity
8
0
100
AcDbSpline
70
1064
71
3
72
8
73
4
74
0
42
0.000000001
43
0.0000000001
44
0.0000000001
40
0
40
0
40
0
40
0
40
1
40
1
40
1
40
1
10
436.49534799999998
20
349.31148400000006
30
0
10
436.49534799999998
20
348.76539700000001
30
0
10
436.27841700000005
20
348.24167299999999
30
0
10
435.89225699999997
20
347.85552700000005
30
0
0
SPLINE
5
339
100
AcDbEntity
8
0
100
AcDbSpline
70
1064
71
3
72
8
73
4
74
0
42
0.000000001
43
0.0000000001
44
0.0000000001
40
0
40
0
40
0
40
0
40
1
40
1
40
1
40
1
10
108.721321
20
349.31148400000006
30
0
10
108.721321
20
348.76539700000001
30
0
10
108.504389
20
348.24167299999999
30
0
10
108.118246
20
347.85553200000004
30
0
0
SPLINE
5
340
100
AcDbEntity
8
0
100
AcDbSpline
70
1064
71
3
72
8
73
4
74
0
42
0.000000001
43
0.0000000001
44
0.0000000001
40
0
40
0
40
0
40
0
40
1
40
1
40
1
40
1
10
488.91033899999996
20
347.85552700000005
30
0
10
488.52417900000006
20
348.24167299999999
30
0
10
488.30724699999996
20
348.76539700000001
30
0
10
488.30724699999996
20
349.31148400000006
30
0
0
SPLINE
5
341
100
AcDbEntity
8
0
100
AcDbSpline
70
1064
71
3
72
8
73
4
74
0
42
0.000000001
43
0.0000000001
44
0.0000000001
40
0
40
0
40
0
40
0
40
1
40
1
40
1
40
1
10
498.732281
20
370.51744100000002
30
0
10
499.11841299999998
20
370.13129500000002
30
0
10
499.33534500000007
20
369.60757100000001
30
0
10
499.33534500000007
20
369.06148400000001
30
0
0
SPLINE
5
342
100
AcDbEntity
8
0
100
AcDbSpline
70
1064
71
3
72
8
73
4
74
0
42
0.000000001
43
0.0000000001
44
0.0000000001
40
0
40
0
40
0
40
0
40
1
40
1
40
1
40
1
10
183.20398500000005
20
32.752235999999996
30
0
10
183.20397900000003
20
31.615102
30
0
10
182.28215500000005
20
30.693266999999999
30
0
10
181.14502899999997
20
30.693266999999999
30
0
0
SPLINE
5
343
100
AcDbEntity
8
0
100
AcDbSpline
70
1064
71
3
72
8
73
4
74
0
42
0.000000001
43
0.0000000001
44
0.0000000001
40
0
40
0
40
0
40
0
40
1
40
1
40
1
40
1
10
492.42532800000004
20
349.31148400000006
30
0
10
492.42532800000004
20
348.76539700000001
30
0
10
492.20839600000005
20
348.24167299999999
30
0
10
491.82226299999996
20
347.85552700000005
30
0
0
SPLINE
5
344
100
AcDbEntity
8
0
100
AcDbSpline
70
1064
71
3
72
8
73
4
74
0
42
0.000000001
43
0.0000000001
44
0.0000000001
40
0
40
0
40
0
40
0
40
1
40
1
40
1
40
1
10
435.89225699999997
20
350.76744100000008
30
0
10
436.27841700000005
20
350.38130000000001
30
0
10
436.49534799999998
20
349.85757599999999
30
0
10
436.49534799999998
20
349.31148400000006
30
0
0
SPLINE
5
345
100
AcDbEntity
8
0
100
AcDbSpline
70
1064
71
3
72
8
73
4
74
0
42
0.000000001
43
0.0000000001
44
0.0000000001
40
0
40
0
40
0
40
0
40
1
40
1
40
1
40
1
10
434.436308
20
347.252454
30
0
10
433.89023500000008
20
347.252454
30
0
10
433.36649200000005
20
347.46938599999999
30
0
10
432.98035900000002
20
347.85552700000005
30
0
0
SPLINE
5
346
100
AcDbEntity
8
0
100
AcDbSpline
70
1064
71
3
72
8
73
4
74
0
42
0.000000001
43
0.0000000001
44
0.0000000001
40
0
40
0
40
0
40
0
40
1
40
1
40
1
40
1
10
434.436308
20
351.37051100000002
30
0
10
434.98240800000008
20
351.37051600000001
30
0
10
435.50612400000006
20
351.15358199999997
30
0
10
435.89225699999997
20
350.76744100000008
30
0
0
SPLINE
5
347
100
AcDbEntity
8
0
100
AcDbSpline
70
1064
71
3
72
8
73
4
74
0
42
0.000000001
43
0.0000000001
44
0.0000000001
40
0
40
0
40
0
40
0
40
1
40
1
40
1
40
1
10
84.216338000000007
20
407.89744100000001
30
0
10
84.602484000000004
20
408.28358500000002
30
0
10
85.126204999999999
20
408.50051400000007
30
0
10
85.672294999999991
20
408.50051400000007
30
0
0
SPLINE
5
348
100
AcDbEntity
8
0
100
AcDbSpline
70
1064
71
3
72
8
73
4
74
0
42
0.000000001
43
0.0000000001
44
0.0000000001
40
0
40
0
40
0
40
0
40
1
40
1
40
1
40
1
10
490.36628800000005
20
347.252454
30
0
10
489.82021400000002
20
347.252454
30
0
10
489.29647200000005
20
347.46938599999999
30
0
10
488.91033899999996
20
347.85552700000005
30
0
0
SPLINE
5
349
100
AcDbEntity
8
0
100
AcDbSpline
70
1064
71
3
72
8
73
4
74
0
42
0.000000001
43
0.0000000001
44
0.0000000001
40
0
40
0
40
0
40
0
40
1
40
1
40
1
40
1
10
87.128246999999988
20
407.89744100000001
30
0
10
87.51439000000002
20
407.51129800000001
30
0
10
87.731324999999998
20
406.98757599999999
30
0
10
87.731324999999998
20
406.441484
30
0
0
SPLINE
5
350
100
AcDbEntity
8
0
100
AcDbSpline
70
1064
71
3
72
8
73
4
74
0
42
0.000000001
43
0.0000000001
44
0.0000000001
40
0
40
0
40
0
40
0
40
1
40
1
40
1
40
1
10
369.236942
20
269.05128900000005
30
0
10
368.876553
20
269.05128900000005
30
0
10
368.53092800000002
20
269.194455
30
0
10
368.27608100000009
20
269.44928800000002
30
0
0
SPLINE
5
351
100
AcDbEntity
8
0
100
AcDbSpline
70
1064
71
3
72
8
73
4
74
0
42
0.000000001
43
0.0000000001
44
0.0000000001
40
0
40
0
40
0
40
0
40
1
40
1
40
1
40
1
10
432.37726800000007
20
349.31148400000006
30
0
10
432.37726800000007
20
349.85757599999999
30
0
10
432.59420000000006
20
350.38130000000001
30
0
10
432.98035900000002
20
350.76744100000008
30
0
0
SPLINE
5
352
100
AcDbEntity
8
0
100
AcDbSpline
70
1064
71
3
72
8
73
4
74
0
42
0.000000001
43
0.0000000001
44
0.0000000001
40
0
40
0
40
0
40
0
40
1
40
1
40
1
40
1
10
276.20878100000004
20
433.44214700000009
30
0
10
276.20878100000004
20
432.691667
30
0
10
275.60039799999998
20
432.08327599999996
30
0
10
274.84990699999997
20
432.08327599999996
30
0
0
SPLINE
5
353
100
AcDbEntity
8
0
100
AcDbSpline
70
1064
71
3
72
8
73
4
74
0
42
0.000000001
43
0.0000000001
44
0.0000000001
40
0
40
0
40
0
40
0
40
1
40
1
40
1
40
1
10
314.06613100000004
20
371.561016
30
0
10
314.42654700000003
20
371.561016
30
0
10
314.77217200000001
20
371.41784999999999
30
0
10
315.027019
20
371.16301400000003
30
0
0
SPLINE
5
354
100
AcDbEntity
8
0
100
AcDbSpline
70
1064
71
3
72
8
73
4
74
0
42
0.000000001
43
0.0000000001
44
0.0000000001
40
0
40
0
40
0
40
0
40
1
40
1
40
1
40
1
10
313.079024
20
375.04127900000009
30
0
10
312.82420400000001
20
375.29612000000009
30
0
10
312.681038
20
375.64175599999999
30
0
10
312.681038
20
376.00214799999998
30
0
0
SPLINE
5
355
100
AcDbEntity
8
0
100
AcDbSpline
70
1064
71
3
72
8
73
4
74
0
42
0.000000001
43
0.0000000001
44
0.0000000001
40
0
40
0
40
0
40
0
40
1
40
1
40
1
40
1
10
312.681038
20
376.00214799999998
30
0
10
312.681038
20
376.36254200000002
30
0
10
312.82420400000001
20
376.70817800000003
30
0
10
313.079024
20
376.96301400000004
30
0
0
SPLINE
5
356
100
AcDbEntity
8
0
100
AcDbSpline
70
1064
71
3
72
8
73
4
74
0
42
0.000000001
43
0.0000000001
44
0.0000000001
40
0
40
0
40
0
40
0
40
1
40
1
40
1
40
1
10
242.10780700000001
20
398.94302299999998
30
0
10
242.36264599999998
20
398.68818700000008
30
0
10
242.50581200000002
20
398.34255100000001
30
0
10
242.50581200000002
20
397.98215700000003
30
0
0
SPLINE
5
357
100
AcDbEntity
8
0
100
AcDbSpline
70
1064
71
3
72
8
73
4
74
0
42
0.000000001
43
0.0000000001
44
0.0000000001
40
0
40
0
40
0
40
0
40
1
40
1
40
1
40
1
10
313.079024
20
376.96301400000004
30
0
10
313.33387099999999
20
377.21785500000004
30
0
10
313.67949599999997
20
377.36102400000004
30
0
10
314.03988500000003
20
377.36102400000004
30
0
0
SPLINE
5
358
100
AcDbEntity
8
0
100
AcDbSpline
70
1064
71
3
72
8
73
4
74
0
42
0.000000001
43
0.0000000001
44
0.0000000001
40
0
40
0
40
0
40
0
40
1
40
1
40
1
40
1
10
314.03988500000003
20
377.36102400000004
30
0
10
314.40030000000002
20
377.36102400000004
30
0
10
314.745925
20
377.21785500000004
30
0
10
315.0007720000001
20
376.96301400000004
30
0
0
SPLINE
5
359
100
AcDbEntity
8
0
100
AcDbSpline
70
1064
71
3
72
8
73
4
74
0
42
0.000000001
43
0.0000000001
44
0.0000000001
40
0
40
0
40
0
40
0
40
1
40
1
40
1
40
1
10
214.06612200000001
20
368.84327400000006
30
0
10
213.70573100000001
20
368.84326900000008
30
0
10
213.36009200000001
20
368.98644000000002
30
0
10
213.10525900000002
20
369.24127599999997
30
0
0
SPLINE
5
360
100
AcDbEntity
8
0
100
AcDbSpline
70
1064
71
3
72
8
73
4
74
0
42
0.000000001
43
0.0000000001
44
0.0000000001
40
0
40
0
40
0
40
0
40
1
40
1
40
1
40
1
10
215.026994
20
369.24127599999997
30
0
10
214.772155
20
368.98644000000002
30
0
10
214.42652200000001
20
368.84326900000008
30
0
10
214.06612200000001
20
368.84327400000006
30
0
0
SPLINE
5
361
100
AcDbEntity
8
0
100
AcDbSpline
70
1064
71
3
72
8
73
4
74
0
42
0.000000001
43
0.0000000001
44
0.0000000001
40
0
40
0
40
0
40
0
40
1
40
1
40
1
40
1
10
313.10527100000002
20
371.16301400000003
30
0
10
313.360117
20
371.41784999999999
30
0
10
313.70574199999999
20
371.561016
30
0
10
314.06613100000004
20
371.561016
30
0
0
SPLINE
5
362
100
AcDbEntity
8
0
100
AcDbSpline
70
1064
71
3
72
8
73
4
74
0
42
0.000000001
43
0.0000000001
44
0.0000000001
40
0
40
0
40
0
40
0
40
1
40
1
40
1
40
1
10
315.0007720000001
20
375.04127900000009
30
0
10
314.745925
20
374.78644300000008
30
0
10
314.40030000000002
20
374.64327700000007
30
0
10
314.03988500000003
20
374.64327700000007
30
0
0
SPLINE
5
363
100
AcDbEntity
8
0
100
AcDbSpline
70
1064
71
3
72
8
73
4
74
0
42
0.000000001
43
0.0000000001
44
0.0000000001
40
0
40
0
40
0
40
0
40
1
40
1
40
1
40
1
10
313.10527100000002
20
369.24127599999997
30
0
10
312.85045000000002
20
369.49611499999997
30
0
10
312.70728399999996
20
369.84175100000004
30
0
10
312.70728399999996
20
370.20214500000003
30
0
0
SPLINE
5
364
100
AcDbEntity
8
0
100
AcDbSpline
70
1064
71
3
72
8
73
4
74
0
42
0.000000001
43
0.0000000001
44
0.0000000001
40
0
40
0
40
0
40
0
40
1
40
1
40
1
40
1
10
314.03988500000003
20
374.64327700000007
30
0
10
313.67949599999997
20
374.64327700000007
30
0
10
313.33387099999999
20
374.78644300000008
30
0
10
313.079024
20
375.04127900000009
30
0
0
SPLINE
5
365
100
AcDbEntity
8
0
100
AcDbSpline
70
1064
71
3
72
8
73
4
74
0
42
0.000000001
43
0.0000000001
44
0.0000000001
40
0
40
0
40
0
40
0
40
1
40
1
40
1
40
1
10
315.39875799999999
20
376.00214799999998
30
0
10
315.39875799999999
20
375.64175599999999
30
0
10
315.25559199999998
20
375.29612000000009
30
0
10
315.0007720000001
20
375.04127900000009
30
0
0
SPLINE
5
366
100
AcDbEntity
8
0
100
AcDbSpline
70
1064
71
3
72
8
73
4
74
0
42
0.000000001
43
0.0000000001
44
0.0000000001
40
0
40
0
40
0
40
0
40
1
40
1
40
1
40
1
10
315.0007720000001
20
376.96301400000004
30
0
10
315.25559199999998
20
376.70817800000003
30
0
10
315.39875799999999
20
376.36254200000002
30
0
10
315.39875799999999
20
376.00214799999998
30
0
0
SPLINE
5
367
100
AcDbEntity
8
0
100
AcDbSpline
70
1064
71
3
72
8
73
4
74
0
42
0.000000001
43
0.0000000001
44
0.0000000001
40
0
40
0
40
0
40
0
40
1
40
1
40
1
40
1
10
315.027019
20
371.16301400000003
30
0
10
315.28183899999999
20
370.90817500000009
30
0
10
315.42500500000006
20
370.56253700000008
30
0
10
315.42500500000006
20
370.20214500000003
30
0
0
SPLINE
5
368
100
AcDbEntity
8
0
100
AcDbSpline
70
1064
71
3
72
8
73
4
74
0
42
0.000000001
43
0.0000000001
44
0.0000000001
40
0
40
0
40
0
40
0
40
1
40
1
40
1
40
1
10
253.76606000000004
20
392.98216700000006
30
0
10
253.76606300000003
20
393.73265200000003
30
0
10
254.37444900000003
20
394.34103500000003
30
0
10
255.124931
20
394.34103500000003
30
0
0
SPLINE
5
369
100
AcDbEntity
8
0
100
AcDbSpline
70
1064
71
3
72
8
73
4
74
0
42
0.000000001
43
0.0000000001
44
0.0000000001
40
0
40
0
40
0
40
0
40
1
40
1
40
1
40
1
10
279.84989700000006
20
440.17901800000004
30
0
10
280.60038800000001
20
440.17901800000004
30
0
10
281.20877100000001
20
439.57063500000004
30
0
10
281.20877100000001
20
438.82015000000001
30
0
0
SPLINE
5
370
100
AcDbEntity
8
0
100
AcDbSpline
70
1064
71
3
72
8
73
4
74
0
42
0.000000001
43
0.0000000001
44
0.0000000001
40
0
40
0
40
0
40
0
40
1
40
1
40
1
40
1
10
25.181563000000004
20
482.97700200000014
30
0
10
25.181654080695203
20
496.70626599969796
30
0
10
36.311500915799591
20
507.83593816392454
30
0
10
50.040735915497486
20
507.83584708342175
30
0
0
SPLINE
5
371
100
AcDbEntity
8
0
100
AcDbSpline
70
1064
71
3
72
8
73
4
74
0
42
0.000000001
43
0.0000000001
44
0.0000000001
40
0
40
0
40
0
40
0
40
1
40
1
40
1
40
1
10
280.81078500000001
20
437.85928100000007
30
0
10
280.55593800000003
20
437.60444500000006
30
0
10
280.21031299999999
20
437.46127900000005
30
0
10
279.84989700000006
20
437.46127900000005
30
0
0
SPLINE
5
372
100
AcDbEntity
8
0
100
AcDbSpline
70
1064
71
3
72
8
73
4
74
0
42
0.000000001
43
0.0000000001
44
0.0000000001
40
0
40
0
40
0
40
0
40
1
40
1
40
1
40
1
10
278.88903599999998
20
437.85928100000007
30
0
10
278.63418999999999
20
438.11412300000001
30
0
10
278.49102400000004
20
438.45975299999998
30
0
10
278.49102400000004
20
438.82015000000001
30
0
0
SPLINE
5
373
100
AcDbEntity
8
0
100
AcDbSpline
70
1064
71
3
72
8
73
4
74
0
42
0.000000001
43
0.0000000001
44
0.0000000001
40
0
40
0
40
0
40
0
40
1
40
1
40
1
40
1
10
278.49102400000004
20
438.82015000000001
30
0
10
278.49105000000003
20
439.57063500000004
30
0
10
279.09943300000003
20
440.17901800000004
30
0
10
279.84989700000006
20
440.17901800000004
30
0
0
LINE
5
374
100
AcDbEntity
8
0
100
AcDbLine
10
49.990999000000002
20
25.132308000000002
30
0
11
484.50002600000005
21
25.132308000000002
31
0
0
SPLINE
5
375
100
AcDbEntity
8
0
100
AcDbSpline
70
1064
71
3
72
8
73
4
74
0
42
0.000000001
43
0.0000000001
44
0.0000000001
40
0
40
0
40
0
40
0
40
1
40
1
40
1
40
1
10
49.990998999999988
20
25.132308000000002
30
0
10
36.261736031254983
20
25.131381207016261
30
0
10
25.131251628278996
20
36.260426757545659
30
0
10
25.130334837523527
20
49.989655726946111
30
0
0
LINE
5
376
100
AcDbEntity
8
0
100
AcDbLine
10
221.16896200000002
20
486.85432000000003
30
0
11
221.16896200000002
21
496.85432400000002
31
0
0
SPLINE
5
377
100
AcDbEntity
8
0
100
AcDbSpline
70
1064
71
3
72
8
73
4
74
0
42
0.000000001
43
0.0000000001
44
0.0000000001
40
0
40
0
40
0
40
0
40
1
40
1
40
1
40
1
10
317.98606599999999
20
100.75224300000002
30
0
10
317.98606599999999
20
101.88936999999999
30
0
10
318.90790099999998
20
102.81119100000001
30
0
10
320.045027
20
102.81119100000001
30
0
0
SPLINE
5
378
100
AcDbEntity
8
0
100
AcDbSpline
70
1064
71
3
72
8
73
4
74
0
42
0.000000001
43
0.0000000001
44
0.0000000001
40
0
40
0
40
0
40
0
40
1
40
1
40
1
40
1
10
214.03991000000002
20
374.64327700000007
30
0
10
213.67951599999998
20
374.64327700000007
30
0
10
213.33387999999999
20
374.78644300000008
30
0
10
213.07904099999999
20
375.04127900000009
30
0
0
SPLINE
5
379
100
AcDbEntity
8
0
100
AcDbSpline
70
1064
71
3
72
8
73
4
74
0
42
0.000000001
43
0.0000000001
44
0.0000000001
40
0
40
0
40
0
40
0
40
1
40
1
40
1
40
1
10
217.05096100000003
20
496.85432400000002
30
0
10
217.05087599999999
20
497.99156400000004
30
0
10
217.972724
20
498.91354400000012
30
0
10
219.10996400000002
20
498.91362900000001
30
0
0
SPLINE
5
380
100
AcDbEntity
8
0
100
AcDbSpline
70
1064
71
3
72
8
73
4
74
0
42
0.000000001
43
0.0000000001
44
0.0000000001
40
0
40
0
40
0
40
0
40
1
40
1
40
1
40
1
10
269.64399200000003
20
93.802237000000019
30
0
10
269.64399200000003
20
92.665107999999989
30
0
10
268.72215699999998
20
91.743287000000009
30
0
10
267.58503100000001
20
91.743287000000009
30
0
0
SPLINE
5
381
100
AcDbEntity
8
0
100
AcDbSpline
70
1064
71
3
72
8
73
4
74
0
42
0.000000001
43
0.0000000001
44
0.0000000001
40
0
40
0
40
0
40
0
40
1
40
1
40
1
40
1
10
320.045027
20
102.81119100000001
30
0
10
320.59110000000004
20
102.811199
30
0
10
321.11479000000003
20
102.59427500000001
30
0
10
321.50094999999999
20
102.20815000000002
30
0
0
SPLINE
5
382
100
AcDbEntity
8
0
100
AcDbSpline
70
1064
71
3
72
8
73
4
74
0
42
0.000000001
43
0.0000000001
44
0.0000000001
40
0
40
0
40
0
40
0
40
1
40
1
40
1
40
1
10
215.42499899999999
20
370.20214500000003
30
0
10
215.42499899999999
20
369.84175100000004
30
0
10
215.28183300000001
20
369.49611499999997
30
0
10
215.026994
20
369.24127599999997
30
0
0
SPLINE
5
383
100
AcDbEntity
8
0
100
AcDbSpline
70
1064
71
3
72
8
73
4
74
0
42
0.000000001
43
0.0000000001
44
0.0000000001
40
0
40
0
40
0
40
0
40
1
40
1
40
1
40
1
10
215.39877799999999
20
376.00214799999998
30
0
10
215.39877799999999
20
375.25166500000006
30
0
10
214.79039299999999
20
374.64327700000007
30
0
10
214.03991000000002
20
374.64327700000007
30
0
0
SPLINE
5
384
100
AcDbEntity
8
0
100
AcDbSpline
70
1064
71
3
72
8
73
4
74
0
42
0.000000001
43
0.0000000001
44
0.0000000001
40
0
40
0
40
0
40
0
40
1
40
1
40
1
40
1
10
484.13263654381643
20
507.85064033990892
30
0
10
497.86189076523317
20
507.85526481765874
30
0
10
508.99537911277173
20
496.72924441730675
30
0
10
509.00000758469105
20
483.0000071972608
30
0
0
SPLINE
5
385
100
AcDbEntity
8
0
100
AcDbSpline
70
1064
71
3
72
8
73
4
74
0
42
0.000000001
43
0.0000000001
44
0.0000000001
40
0
40
0
40
0
40
0
40
1
40
1
40
1
40
1
10
280.81078500000001
20
448.38101200000006
30
0
10
281.06560500000001
20
448.12617
30
0
10
281.20877100000001
20
447.78053700000009
30
0
10
281.20877100000001
20
447.42014000000012
30
0
0
SPLINE
5
386
100
AcDbEntity
8
0
100
AcDbSpline
70
1064
71
3
72
8
73
4
74
0
42
0.000000001
43
0.0000000001
44
0.0000000001
40
0
40
0
40
0
40
0
40
1
40
1
40
1
40
1
10
509.35903200000007
20
49.991152999999997
30
0
10
509.35895300000004
20
36.261897000000005
30
0
10
498.22909600000003
20
25.132227999999998
30
0
10
484.49986700000005
20
25.132308000000002
30
0
0
SPLINE
5
387
100
AcDbEntity
8
0
100
AcDbSpline
70
1064
71
3
72
8
73
4
74
0
42
0.000000001
43
0.0000000001
44
0.0000000001
40
0
40
0
40
0
40
0
40
1
40
1
40
1
40
1
10
215.026994
20
371.16301400000003
30
0
10
215.28183300000001
20
370.90817500000009
30
0
10
215.42499899999999
20
370.56253700000008
30
0
10
215.42499899999999
20
370.20214500000003
30
0
0
SPLINE
5
388
100
AcDbEntity
8
0
100
AcDbSpline
70
1064
71
3
72
8
73
4
74
0
42
0.000000001
43
0.0000000001
44
0.0000000001
40
0
40
0
40
0
40
0
40
1
40
1
40
1
40
1
10
281.20877100000001
20
447.42014000000012
30
0
10
281.20877100000001
20
447.05974900000001
30
0
10
281.06560500000001
20
446.71411000000001
30
0
10
280.81078500000001
20
446.45927699999993
30
0
0
SPLINE
5
389
100
AcDbEntity
8
0
100
AcDbSpline
70
1064
71
3
72
8
73
4
74
0
42
0.000000001
43
0.0000000001
44
0.0000000001
40
0
40
0
40
0
40
0
40
1
40
1
40
1
40
1
10
279.84989700000006
20
448.77901100000003
30
0
10
280.21031299999999
20
448.77901600000001
30
0
10
280.55593800000003
20
448.63584800000012
30
0
10
280.81078500000001
20
448.38101200000006
30
0
0
SPLINE
5
390
100
AcDbEntity
8
0
100
AcDbSpline
70
1064
71
3
72
8
73
4
74
0
42
0.000000001
43
0.0000000001
44
0.0000000001
40
0
40
0
40
0
40
0
40
1
40
1
40
1
40
1
10
278.88903599999998
20
446.45927699999993
30
0
10
278.63418999999999
20
446.71411000000001
30
0
10
278.49102400000004
20
447.05974900000001
30
0
10
278.49102400000004
20
447.42014000000012
30
0
0
SPLINE
5
391
100
AcDbEntity
8
0
100
AcDbSpline
70
1064
71
3
72
8
73
4
74
0
42
0.000000001
43
0.0000000001
44
0.0000000001
40
0
40
0
40
0
40
0
40
1
40
1
40
1
40
1
10
318.58910400000002
20
99.296326000000022
30
0
10
318.20299799999998
20
99.682458999999994
30
0
10
317.98606599999999
20
100.20616700000002
30
0
10
317.98606599999999
20
100.75224300000002
30
0
0
SPLINE
5
392
100
AcDbEntity
8
0
100
AcDbSpline
70
1064
71
3
72
8
73
4
74
0
42
0.000000001
43
0.0000000001
44
0.0000000001
40
0
40
0
40
0
40
0
40
1
40
1
40
1
40
1
10
321.50094999999999
20
102.20815000000002
30
0
10
321.88708199999996
20
101.82202000000001
30
0
10
322.10398800000007
20
101.298314
30
0
10
322.10401400000001
20
100.75224300000002
30
0
0
SPLINE
5
393
100
AcDbEntity
8
0
100
AcDbSpline
70
1064
71
3
72
8
73
4
74
0
42
0.000000001
43
0.0000000001
44
0.0000000001
40
0
40
0
40
0
40
0
40
1
40
1
40
1
40
1
10
265.52607000000006
20
93.802237000000019
30
0
10
265.52607000000006
20
94.939366000000007
30
0
10
266.44790499999999
20
95.861189999999993
30
0
10
267.58503100000001
20
95.861189999999993
30
0
0
SPLINE
5
394
100
AcDbEntity
8
0
100
AcDbSpline
70
1064
71
3
72
8
73
4
74
0
42
0.000000001
43
0.0000000001
44
0.0000000001
40
0
40
0
40
0
40
0
40
1
40
1
40
1
40
1
10
279.84989700000006
20
446.06127200000003
30
0
10
279.489508
20
446.06127200000003
30
0
10
279.14388300000002
20
446.20443800000004
30
0
10
278.88903599999998
20
446.45927699999993
30
0
0
SPLINE
5
395
100
AcDbEntity
8
0
100
AcDbSpline
70
1064
71
3
72
8
73
4
74
0
42
0.000000001
43
0.0000000001
44
0.0000000001
40
0
40
0
40
0
40
0
40
1
40
1
40
1
40
1
10
281.20877100000001
20
438.82015000000001
30
0
10
281.20877100000001
20
438.45975299999998
30
0
10
281.06560500000001
20
438.11412300000001
30
0
10
280.81078500000001
20
437.85928100000007
30
0
0
SPLINE
5
396
100
AcDbEntity
8
0
100
AcDbSpline
70
1064
71
3
72
8
73
4
74
0
42
0.000000001
43
0.0000000001
44
0.0000000001
40
0
40
0
40
0
40
0
40
1
40
1
40
1
40
1
10
239.64398900000003
20
93.802237000000019
30
0
10
239.64398300000002
20
92.665107999999989
30
0
10
238.72215600000004
20
91.743284000000003
30
0
10
237.58502700000003
20
91.743287000000009
30
0
0
SPLINE
5
397
100
AcDbEntity
8
0
100
AcDbSpline
70
1064
71
3
72
8
73
4
74
0
42
0.000000001
43
0.0000000001
44
0.0000000001
40
0
40
0
40
0
40
0
40
1
40
1
40
1
40
1
10
214.06612200000001
20
371.561016
30
0
10
214.42652200000001
20
371.561016
30
0
10
214.772155
20
371.41784999999999
30
0
10
215.026994
20
371.16301400000003
30
0
0
SPLINE
5
398
100
AcDbEntity
8
0
100
AcDbSpline
70
1064
71
3
72
8
73
4
74
0
42
0.000000001
43
0.0000000001
44
0.0000000001
40
0
40
0
40
0
40
0
40
1
40
1
40
1
40
1
10
213.10525900000002
20
371.16301400000003
30
0
10
213.36009200000001
20
371.41784999999999
30
0
10
213.70573100000001
20
371.561016
30
0
10
214.06612200000001
20
371.561016
30
0
0
SPLINE
5
399
100
AcDbEntity
8
0
100
AcDbSpline
70
1064
71
3
72
8
73
4
74
0
42
0.000000001
43
0.0000000001
44
0.0000000001
40
0
40
0
40
0
40
0
40
1
40
1
40
1
40
1
10
212.70725400000001
20
370.20214500000003
30
0
10
212.70725400000001
20
370.56253700000008
30
0
10
212.85042000000001
20
370.90817500000009
30
0
10
213.10525900000002
20
371.16301400000003
30
0
0
SPLINE
5
400
100
AcDbEntity
8
0
100
AcDbSpline
70
1064
71
3
72
8
73
4
74
0
42
0.000000001
43
0.0000000001
44
0.0000000001
40
0
40
0
40
0
40
0
40
1
40
1
40
1
40
1
10
213.10525900000002
20
369.24127599999997
30
0
10
212.85042000000001
20
369.49611499999997
30
0
10
212.70725400000001
20
369.84175100000004
30
0
10
212.70725400000001
20
370.20214500000003
30
0
0
SPLINE
5
401
100
AcDbEntity
8
0
100
AcDbSpline
70
1064
71
3
72
8
73
4
74
0
42
0.000000001
43
0.0000000001
44
0.0000000001
40
0
40
0
40
0
40
0
40
1
40
1
40
1
40
1
10
354.81617200000005
20
426.28327100000007
30
0
10
354.455783
20
426.28327100000007
30
0
10
354.11015700000002
20
426.42643700000008
30
0
10
353.85531100000003
20
426.68127800000002
30
0
0
SPLINE
5
402
100
AcDbEntity
8
0
100
AcDbSpline
70
1064
71
3
72
8
73
4
74
0
42
0.000000001
43
0.0000000001
44
0.0000000001
40
0
40
0
40
0
40
0
40
1
40
1
40
1
40
1
10
267.58503100000001
20
91.743287000000009
30
0
10
266.44790499999999
20
91.743284000000003
30
0
10
265.52607000000006
20
92.665107999999989
30
0
10
265.52607000000006
20
93.802237000000019
30
0
0
SPLINE
5
403
100
AcDbEntity
8
0
100
AcDbSpline
70
1064
71
3
72
8
73
4
74
0
42
0.000000001
43
0.0000000001
44
0.0000000001
40
0
40
0
40
0
40
0
40
1
40
1
40
1
40
1
10
279.84989700000006
20
437.46127900000005
30
0
10
279.489508
20
437.46127900000005
30
0
10
279.14388300000002
20
437.60444500000006
30
0
10
278.88903599999998
20
437.85928100000007
30
0
0
SPLINE
5
404
100
AcDbEntity
8
0
100
AcDbSpline
70
1064
71
3
72
8
73
4
74
0
42
0.000000001
43
0.0000000001
44
0.0000000001
40
0
40
0
40
0
40
0
40
1
40
1
40
1
40
1
10
278.49102400000004
20
447.42014000000012
30
0
10
278.49102400000004
20
447.78053700000009
30
0
10
278.63418999999999
20
448.12617
30
0
10
278.88903599999998
20
448.38101200000006
30
0
0
LINE
5
405
100
AcDbEntity
8
0
100
AcDbLine
10
509.35903200000007
20
49.991015000000004
30
0
11
509.00000758469105
21
483.00000719726086
31
0
0
SPLINE
5
406
100
AcDbEntity
8
0
100
AcDbSpline
70
1064
71
3
72
8
73
4
74
0
42
0.000000001
43
0.0000000001
44
0.0000000001
40
0
40
0
40
0
40
0
40
1
40
1
40
1
40
1
10
260.924937
20
394.36725799999999
30
0
10
261.28533399999998
20
394.36725799999999
30
0
10
261.630967
20
394.22408899999999
30
0
10
261.885805
20
393.96925299999998
30
0
0
LINE
5
407
100
AcDbEntity
8
0
100
AcDbLine
10
221.16896200000002
20
496.85432400000002
30
0
11
221.16896200000002
21
486.85432000000003
31
0
0
SPLINE
5
408
100
AcDbEntity
8
0
100
AcDbSpline
70
1064
71
3
72
8
73
4
74
0
42
0.000000001
43
0.0000000001
44
0.0000000001
40
0
40
0
40
0
40
0
40
1
40
1
40
1
40
1
10
280.81078500000001
20
446.45927699999993
30
0
10
280.55593800000003
20
446.20443800000004
30
0
10
280.21031299999999
20
446.06127200000003
30
0
10
279.84989700000006
20
446.06127200000003
30
0
0
LINE
5
409
100
AcDbEntity
8
0
100
AcDbLine
10
50.04073591549745
20
507.8358470834217
30
0
11
484.13263654381643
21
507.85064033990898
31
0
0
SPLINE
5
410
100
AcDbEntity
8
0
100
AcDbSpline
70
1064
71
3
72
8
73
4
74
0
42
0.000000001
43
0.0000000001
44
0.0000000001
40
0
40
0
40
0
40
0
40
1
40
1
40
1
40
1
10
278.88903599999998
20
448.38101200000006
30
0
10
279.14388300000002
20
448.63584800000012
30
0
10
279.489508
20
448.77901600000001
30
0
10
279.84989700000006
20
448.77901100000003
30
0
0
SPLINE
5
411
100
AcDbEntity
8
0
100
AcDbSpline
70
1064
71
3
72
8
73
4
74
0
42
0.000000001
43
0.0000000001
44
0.0000000001
40
0
40
0
40
0
40
0
40
1
40
1
40
1
40
1
10
321.50094999999999
20
99.296317999999985
30
0
10
321.11481700000002
20
98.910181999999992
30
0
10
320.59110000000004
20
98.693252999999999
30
0
10
320.045027
20
98.693260999999978
30
0
0
SPLINE
5
412
100
AcDbEntity
8
0
100
AcDbSpline
70
1064
71
3
72
8
73
4
74
0
42
0.000000001
43
0.0000000001
44
0.0000000001
40
0
40
0
40
0
40
0
40
1
40
1
40
1
40
1
10
45.738248000000006
20
347.85553200000004
30
0
10
45.352104999999995
20
347.46939100000009
30
0
10
44.828383000000002
20
347.252454
30
0
10
44.282294
20
347.252454
30
0
0
SPLINE
5
413
100
AcDbEntity
8
0
100
AcDbSpline
70
1064
71
3
72
8
73
4
74
0
42
0.000000001
43
0.0000000001
44
0.0000000001
40
0
40
0
40
0
40
0
40
1
40
1
40
1
40
1
10
42.223265999999995
20
349.31148400000006
30
0
10
42.223265999999995
20
349.85757599999999
30
0
10
42.440201000000002
20
350.38129500000002
30
0
10
42.826342000000004
20
350.76743799999997
30
0
0
SPLINE
5
414
100
AcDbEntity
8
0
100
AcDbSpline
70
1064
71
3
72
8
73
4
74
0
42
0.000000001
43
0.0000000001
44
0.0000000001
40
0
40
0
40
0
40
0
40
1
40
1
40
1
40
1
10
45.738248000000006
20
350.76743799999997
30
0
10
46.124389000000008
20
350.38129500000002
30
0
10
46.34132300000001
20
349.85757599999999
30
0
10
46.34132300000001
20
349.31148400000006
30
0
0
SPLINE
5
415
100
AcDbEntity
8
0
100
AcDbSpline
70
1064
71
3
72
8
73
4
74
0
42
0.000000001
43
0.0000000001
44
0.0000000001
40
0
40
0
40
0
40
0
40
1
40
1
40
1
40
1
10
404.72629799999999
20
491.00151299999999
30
0
10
405.27239800000007
20
491.00151299999999
30
0
10
405.79611499999999
20
490.784581
30
0
10
406.18227400000001
20
490.39844299999999
30
0
0
SPLINE
5
416
100
AcDbEntity
8
0
100
AcDbSpline
70
1064
71
3
72
8
73
4
74
0
42
0.000000001
43
0.0000000001
44
0.0000000001
40
0
40
0
40
0
40
0
40
1
40
1
40
1
40
1
10
362.49610000000007
20
196.96134699999999
30
0
10
362.49610000000007
20
197.321742
30
0
10
362.63926600000002
20
197.667372
30
0
10
362.89411200000006
20
197.922213
30
0
0
SPLINE
5
417
100
AcDbEntity
8
0
100
AcDbSpline
70
1064
71
3
72
8
73
4
74
0
42
0.000000001
43
0.0000000001
44
0.0000000001
40
0
40
0
40
0
40
0
40
1
40
1
40
1
40
1
10
338.07905300000004
20
87.541238000000007
30
0
10
337.82423300000005
20
87.796070999999998
30
0
10
337.68106700000004
20
88.141709000000006
30
0
10
337.68106700000004
20
88.50210100000001
30
0
0
SPLINE
5
418
100
AcDbEntity
8
0
100
AcDbSpline
70
1064
71
3
72
8
73
4
74
0
42
0.000000001
43
0.0000000001
44
0.0000000001
40
0
40
0
40
0
40
0
40
1
40
1
40
1
40
1
10
359.413836
20
196.935101
30
0
10
359.413836
20
196.574701
30
0
10
359.27067
20
196.22907100000003
30
0
10
359.01582300000001
20
195.97423200000003
30
0
0
SPLINE
5
419
100
AcDbEntity
8
0
100
AcDbSpline
70
1064
71
3
72
8
73
4
74
0
42
0.000000001
43
0.0000000001
44
0.0000000001
40
0
40
0
40
0
40
0
40
1
40
1
40
1
40
1
10
356.69608900000009
20
196.935101
30
0
10
356.69608900000009
20
197.29549500000002
30
0
10
356.83925499999998
20
197.641131
30
0
10
357.09410200000002
20
197.89596399999999
30
0
0
SPLINE
5
420
100
AcDbEntity
8
0
100
AcDbSpline
70
1064
71
3
72
8
73
4
74
0
42
0.000000001
43
0.0000000001
44
0.0000000001
40
0
40
0
40
0
40
0
40
1
40
1
40
1
40
1
10
337.68106700000004
20
88.50210100000001
30
0
10
337.68106700000004
20
88.862501000000009
30
0
10
337.82423300000005
20
89.208131000000009
30
0
10
338.07905300000004
20
89.462973000000005
30
0
0
SPLINE
5
421
100
AcDbEntity
8
0
100
AcDbSpline
70
1064
71
3
72
8
73
4
74
0
42
0.000000001
43
0.0000000001
44
0.0000000001
40
0
40
0
40
0
40
0
40
1
40
1
40
1
40
1
10
87.731324999999998
20
406.441484
30
0
10
87.731324999999998
20
405.8954
30
0
10
87.51439000000002
20
405.37167799999997
30
0
10
87.128246999999988
20
404.98553500000008
30
0
0
SPLINE
5
422
100
AcDbEntity
8
0
100
AcDbSpline
70
1064
71
3
72
8
73
4
74
0
42
0.000000001
43
0.0000000001
44
0.0000000001
40
0
40
0
40
0
40
0
40
1
40
1
40
1
40
1
10
358.05496300000004
20
198.293972
30
0
10
358.41535200000004
20
198.293972
30
0
10
358.76100299999996
20
198.15080499999999
30
0
10
359.01582300000001
20
197.89596399999999
30
0
0
SPLINE
5
423
100
AcDbEntity
8
0
100
AcDbSpline
70
1064
71
3
72
8
73
4
74
0
42
0.000000001
43
0.0000000001
44
0.0000000001
40
0
40
0
40
0
40
0
40
1
40
1
40
1
40
1
10
83.613268000000005
20
488.94248600000003
30
0
10
83.613268000000005
20
489.48857300000009
30
0
10
83.830199000000007
20
490.01229400000005
30
0
10
84.216338000000007
20
490.39843499999995
30
0
0
SPLINE
5
424
100
AcDbEntity
8
0
100
AcDbSpline
70
1064
71
3
72
8
73
4
74
0
42
0.000000001
43
0.0000000001
44
0.0000000001
40
0
40
0
40
0
40
0
40
1
40
1
40
1
40
1
10
87.731324999999998
20
488.94248600000003
30
0
10
87.731324999999998
20
488.39639900000009
30
0
10
87.51439000000002
20
487.87267500000007
30
0
10
87.128246999999988
20
487.48653100000001
30
0
0
SPLINE
5
425
100
AcDbEntity
8
0
100
AcDbSpline
70
1064
71
3
72
8
73
4
74
0
42
0.000000001
43
0.0000000001
44
0.0000000001
40
0
40
0
40
0
40
0
40
1
40
1
40
1
40
1
10
359.01582300000001
20
197.89596399999999
30
0
10
359.27067
20
197.641131
30
0
10
359.413836
20
197.29549500000002
30
0
10
359.413836
20
196.935101
30
0
0
SPLINE
5
426
100
AcDbEntity
8
0
100
AcDbSpline
70
1064
71
3
72
8
73
4
74
0
42
0.000000001
43
0.0000000001
44
0.0000000001
40
0
40
0
40
0
40
0
40
1
40
1
40
1
40
1
10
269.64399200000003
20
32.702224999999999
30
0
10
269.64399200000003
20
31.565096
30
0
10
268.72215699999998
20
30.643261000000003
30
0
10
267.58503100000001
20
30.643261000000003
30
0
0
SPLINE
5
427
100
AcDbEntity
8
0
100
AcDbSpline
70
1064
71
3
72
8
73
4
74
0
42
0.000000001
43
0.0000000001
44
0.0000000001
40
0
40
0
40
0
40
0
40
1
40
1
40
1
40
1
10
152.50125600000001
20
500.29656900000009
30
0
10
152.11511200000001
20
499.91042800000002
30
0
10
151.59139099999999
20
499.69349599999998
30
0
10
151.04530099999999
20
499.69349599999998
30
0
0
SPLINE
5
428
100
AcDbEntity
8
0
100
AcDbSpline
70
1064
71
3
72
8
73
4
74
0
42
0.000000001
43
0.0000000001
44
0.0000000001
40
0
40
0
40
0
40
0
40
1
40
1
40
1
40
1
10
267.58503100000001
20
95.861189999999993
30
0
10
268.72215699999998
20
95.861189999999993
30
0
10
269.64399200000003
20
94.939366000000007
30
0
10
269.64399200000003
20
93.802237000000019
30
0
0
SPLINE
5
429
100
AcDbEntity
8
0
100
AcDbSpline
70
1064
71
3
72
8
73
4
74
0
42
0.000000001
43
0.0000000001
44
0.0000000001
40
0
40
0
40
0
40
0
40
1
40
1
40
1
40
1
10
85.672294999999991
20
486.88345599999997
30
0
10
85.126204999999999
20
486.88345599999997
30
0
10
84.602484000000004
20
487.10038800000007
30
0
10
84.216338000000007
20
487.48653100000001
30
0
0
SPLINE
5
430
100
AcDbEntity
8
0
100
AcDbSpline
70
1064
71
3
72
8
73
4
74
0
42
0.000000001
43
0.0000000001
44
0.0000000001
40
0
40
0
40
0
40
0
40
1
40
1
40
1
40
1
10
237.58502700000003
20
30.643261000000003
30
0
10
236.44789900000006
20
30.643261000000003
30
0
10
235.52607200000006
20
31.565096
30
0
10
235.52606900000001
20
32.702224999999999
30
0
0
SPLINE
5
431
100
AcDbEntity
8
0
100
AcDbSpline
70
1064
71
3
72
8
73
4
74
0
42
0.000000001
43
0.0000000001
44
0.0000000001
40
0
40
0
40
0
40
0
40
1
40
1
40
1
40
1
10
239.64398900000003
20
32.702224999999999
30
0
10
239.64398300000002
20
31.565096
30
0
10
238.72215600000004
20
30.643261000000003
30
0
10
237.58502700000003
20
30.643261000000003
30
0
0
SPLINE
5
432
100
AcDbEntity
8
0
100
AcDbSpline
70
1064
71
3
72
8
73
4
74
0
42
0.000000001
43
0.0000000001
44
0.0000000001
40
0
40
0
40
0
40
0
40
1
40
1
40
1
40
1
10
406.18227400000001
20
490.39844299999999
30
0
10
406.56840699999998
20
490.01229700000005
30
0
10
406.78533900000002
20
489.48857500000003
30
0
10
406.78533900000002
20
488.94248600000003
30
0
0
SPLINE
5
433
100
AcDbEntity
8
0
100
AcDbSpline
70
1064
71
3
72
8
73
4
74
0
42
0.000000001
43
0.0000000001
44
0.0000000001
40
0
40
0
40
0
40
0
40
1
40
1
40
1
40
1
10
44.282294
20
347.252454
30
0
10
43.736207
20
347.252454
30
0
10
43.212482999999999
20
347.46939100000009
30
0
10
42.826342000000004
20
347.85553200000004
30
0
0
SPLINE
5
434
100
AcDbEntity
8
0
100
AcDbSpline
70
1064
71
3
72
8
73
4
74
0
42
0.000000001
43
0.0000000001
44
0.0000000001
40
0
40
0
40
0
40
0
40
1
40
1
40
1
40
1
10
105.206339
20
350.76744100000008
30
0
10
105.592483
20
351.15358199999997
30
0
10
106.11620400000001
20
351.37051100000002
30
0
10
106.66229399999999
20
351.37051100000002
30
0
0
SPLINE
5
435
100
AcDbEntity
8
0
100
AcDbSpline
70
1064
71
3
72
8
73
4
74
0
42
0.000000001
43
0.0000000001
44
0.0000000001
40
0
40
0
40
0
40
0
40
1
40
1
40
1
40
1
10
85.672294999999991
20
491.00151299999999
30
0
10
86.218384
20
491.00151299999999
30
0
10
86.742106000000021
20
490.784581
30
0
10
87.128246999999988
20
490.39843499999995
30
0
0
SPLINE
5
436
100
AcDbEntity
8
0
100
AcDbSpline
70
1064
71
3
72
8
73
4
74
0
42
0.000000001
43
0.0000000001
44
0.0000000001
40
0
40
0
40
0
40
0
40
1
40
1
40
1
40
1
10
362.89411200000006
20
197.922213
30
0
10
363.148933
20
198.17705200000003
30
0
10
363.49458399999997
20
198.32021800000001
30
0
10
363.85497299999997
20
198.32021800000001
30
0
0
SPLINE
5
437
100
AcDbEntity
8
0
100
AcDbSpline
70
1064
71
3
72
8
73
4
74
0
42
0.000000001
43
0.0000000001
44
0.0000000001
40
0
40
0
40
0
40
0
40
1
40
1
40
1
40
1
10
267.58503100000001
20
34.761181000000001
30
0
10
268.72215699999998
20
34.761178000000001
30
0
10
269.64399200000003
20
33.839356000000002
30
0
10
269.64399200000003
20
32.702224999999999
30
0
0
SPLINE
5
438
100
AcDbEntity
8
0
100
AcDbSpline
70
1064
71
3
72
8
73
4
74
0
42
0.000000001
43
0.0000000001
44
0.0000000001
40
0
40
0
40
0
40
0
40
1
40
1
40
1
40
1
10
235.52606900000001
20
93.802237000000019
30
0
10
235.52607200000006
20
94.939366000000007
30
0
10
236.44789900000006
20
95.861189999999993
30
0
10
237.58502700000003
20
95.861189999999993
30
0
0
SPLINE
5
439
100
AcDbEntity
8
0
100
AcDbSpline
70
1064
71
3
72
8
73
4
74
0
42
0.000000001
43
0.0000000001
44
0.0000000001
40
0
40
0
40
0
40
0
40
1
40
1
40
1
40
1
10
104.603264
20
349.31148400000006
30
0
10
104.603264
20
349.85757599999999
30
0
10
104.820198
20
350.38129500000002
30
0
10
105.206339
20
350.76744100000008
30
0
0
SPLINE
5
440
100
AcDbEntity
8
0
100
AcDbSpline
70
1064
71
3
72
8
73
4
74
0
42
0.000000001
43
0.0000000001
44
0.0000000001
40
0
40
0
40
0
40
0
40
1
40
1
40
1
40
1
10
108.118246
20
350.76744100000008
30
0
10
108.504389
20
350.38129500000002
30
0
10
108.721321
20
349.85757599999999
30
0
10
108.721321
20
349.31148400000006
30
0
0
SPLINE
5
441
100
AcDbEntity
8
0
100
AcDbSpline
70
1064
71
3
72
8
73
4
74
0
42
0.000000001
43
0.0000000001
44
0.0000000001
40
0
40
0
40
0
40
0
40
1
40
1
40
1
40
1
10
42.826342000000004
20
347.85553200000004
30
0
10
42.440201000000002
20
348.24167299999999
30
0
10
42.223265999999995
20
348.76539700000001
30
0
10
42.223265999999995
20
349.31148400000006
30
0
0
SPLINE
5
442
100
AcDbEntity
8
0
100
AcDbSpline
70
1064
71
3
72
8
73
4
74
0
42
0.000000001
43
0.0000000001
44
0.0000000001
40
0
40
0
40
0
40
0
40
1
40
1
40
1
40
1
10
235.52606900000001
20
32.702224999999999
30
0
10
235.52607200000006
20
33.839356000000002
30
0
10
236.44789900000006
20
34.761178000000001
30
0
10
237.58502700000003
20
34.761181000000001
30
0
0
SPLINE
5
443
100
AcDbEntity
8
0
100
AcDbSpline
70
1064
71
3
72
8
73
4
74
0
42
0.000000001
43
0.0000000001
44
0.0000000001
40
0
40
0
40
0
40
0
40
1
40
1
40
1
40
1
10
265.52607000000006
20
32.702224999999999
30
0
10
265.52607000000006
20
33.839356000000002
30
0
10
266.44790499999999
20
34.761181000000001
30
0
10
267.58503100000001
20
34.761181000000001
30
0
0
SPLINE
5
444
100
AcDbEntity
8
0
100
AcDbSpline
70
1064
71
3
72
8
73
4
74
0
42
0.000000001
43
0.0000000001
44
0.0000000001
40
0
40
0
40
0
40
0
40
1
40
1
40
1
40
1
10
106.66229399999999
20
351.37051100000002
30
0
10
107.208381
20
351.37051100000002
30
0
10
107.73210500000002
20
351.15358199999997
30
0
10
108.118246
20
350.76744100000008
30
0
0
SPLINE
5
445
100
AcDbEntity
8
0
100
AcDbSpline
70
1064
71
3
72
8
73
4
74
0
42
0.000000001
43
0.0000000001
44
0.0000000001
40
0
40
0
40
0
40
0
40
1
40
1
40
1
40
1
10
46.34132300000001
20
349.31148400000006
30
0
10
46.34132300000001
20
348.76539700000001
30
0
10
46.124389000000008
20
348.24167299999999
30
0
10
45.738248000000006
20
347.85553200000004
30
0
0
SPLINE
5
446
100
AcDbEntity
8
0
100
AcDbSpline
70
1064
71
3
72
8
73
4
74
0
42
0.000000001
43
0.0000000001
44
0.0000000001
40
0
40
0
40
0
40
0
40
1
40
1
40
1
40
1
10
288.10526800000002
20
81.741203000000013
30
0
10
287.85042099999998
20
81.996041999999989
30
0
10
287.70725499999998
20
82.341675000000009
30
0
10
287.70725499999998
20
82.702072000000001
30
0
0
SPLINE
5
447
100
AcDbEntity
8
0
100
AcDbSpline
70
1064
71
3
72
8
73
4
74
0
42
0.000000001
43
0.0000000001
44
0.0000000001
40
0
40
0
40
0
40
0
40
1
40
1
40
1
40
1
10
403.27034900000001
20
490.39844299999999
30
0
10
403.65648200000004
20
490.784581
30
0
10
404.18022500000001
20
491.00151299999999
30
0
10
404.72629799999999
20
491.00151299999999
30
0
0
SPLINE
5
448
100
AcDbEntity
8
0
100
AcDbSpline
70
1064
71
3
72
8
73
4
74
0
42
0.000000001
43
0.0000000001
44
0.0000000001
40
0
40
0
40
0
40
0
40
1
40
1
40
1
40
1
10
42.826342000000004
20
350.76743799999997
30
0
10
43.212482999999999
20
351.15358199999997
30
0
10
43.736207
20
351.37051100000002
30
0
10
44.282294
20
351.37051100000002
30
0
0
SPLINE
5
449
100
AcDbEntity
8
0
100
AcDbSpline
70
1064
71
3
72
8
73
4
74
0
42
0.000000001
43
0.0000000001
44
0.0000000001
40
0
40
0
40
0
40
0
40
1
40
1
40
1
40
1
10
148.98607800000002
20
32.752235999999996
30
0
10
148.98607300000003
20
33.298310000000001
30
0
10
149.20299399999999
20
33.822020999999999
30
0
10
149.58912700000002
20
34.208151000000001
30
0
0
SPLINE
5
450
100
AcDbEntity
8
0
100
AcDbSpline
70
1064
71
3
72
8
73
4
74
0
42
0.000000001
43
0.0000000001
44
0.0000000001
40
0
40
0
40
0
40
0
40
1
40
1
40
1
40
1
10
87.128246999999988
20
404.98553500000008
30
0
10
86.742106000000021
20
404.59939100000008
30
0
10
86.218384
20
404.38245700000004
30
0
10
85.672294999999991
20
404.38245700000004
30
0
0
SPLINE
5
451
100
AcDbEntity
8
0
100
AcDbSpline
70
1064
71
3
72
8
73
4
74
0
42
0.000000001
43
0.0000000001
44
0.0000000001
40
0
40
0
40
0
40
0
40
1
40
1
40
1
40
1
10
84.216338000000007
20
490.39843499999995
30
0
10
84.602484000000004
20
490.784581
30
0
10
85.126204999999999
20
491.00151299999999
30
0
10
85.672294999999991
20
491.00151299999999
30
0
0
SPLINE
5
452
100
AcDbEntity
8
0
100
AcDbSpline
70
1064
71
3
72
8
73
4
74
0
42
0.000000001
43
0.0000000001
44
0.0000000001
40
0
40
0
40
0
40
0
40
1
40
1
40
1
40
1
10
267.58503100000001
20
30.643261000000003
30
0
10
266.44790499999999
20
30.643261000000003
30
0
10
265.52607000000006
20
31.565096
30
0
10
265.52607000000006
20
32.702224999999999
30
0
0
SPLINE
5
453
100
AcDbEntity
8
0
100
AcDbSpline
70
1064
71
3
72
8
73
4
74
0
42
0.000000001
43
0.0000000001
44
0.0000000001
40
0
40
0
40
0
40
0
40
1
40
1
40
1
40
1
10
44.282294
20
351.37051100000002
30
0
10
44.828383000000002
20
351.37051100000002
30
0
10
45.352104999999995
20
351.15358199999997
30
0
10
45.738248000000006
20
350.76743799999997
30
0
0
SPLINE
5
454
100
AcDbEntity
8
0
100
AcDbSpline
70
1064
71
3
72
8
73
4
74
0
42
0.000000001
43
0.0000000001
44
0.0000000001
40
0
40
0
40
0
40
0
40
1
40
1
40
1
40
1
10
375.99781400000006
20
192.92225300000001
30
0
10
376.25266000000005
20
192.66741100000002
30
0
10
376.39582600000006
20
192.32178100000002
30
0
10
376.39582600000006
20
191.96138100000002
30
0
0
SPLINE
5
455
100
AcDbEntity
8
0
100
AcDbSpline
70
1064
71
3
72
8
73
4
74
0
42
0.000000001
43
0.0000000001
44
0.0000000001
40
0
40
0
40
0
40
0
40
1
40
1
40
1
40
1
10
348.08609799999999
20
100.75224300000002
30
0
10
348.08609799999999
20
101.88936999999999
30
0
10
349.00790599999999
20
102.81119100000001
30
0
10
350.14503200000001
20
102.81119100000001
30
0
0
SPLINE
5
456
100
AcDbEntity
8
0
100
AcDbSpline
70
1064
71
3
72
8
73
4
74
0
42
0.000000001
43
0.0000000001
44
0.0000000001
40
0
40
0
40
0
40
0
40
1
40
1
40
1
40
1
10
340.00080099999997
20
87.541238000000007
30
0
10
339.74595499999998
20
87.286399000000017
30
0
10
339.40033
20
87.143233000000009
30
0
10
339.03994100000006
20
87.143233000000009
30
0
0
SPLINE
5
457
100
AcDbEntity
8
0
100
AcDbSpline
70
1064
71
3
72
8
73
4
74
0
42
0.000000001
43
0.0000000001
44
0.0000000001
40
0
40
0
40
0
40
0
40
1
40
1
40
1
40
1
10
339.03994100000006
20
89.86097700000002
30
0
10
339.40033
20
89.86097700000002
30
0
10
339.74595499999998
20
89.717809000000003
30
0
10
340.00080099999997
20
89.462973000000005
30
0
0
SPLINE
5
458
100
AcDbEntity
8
0
100
AcDbSpline
70
1064
71
3
72
8
73
4
74
0
42
0.000000001
43
0.0000000001
44
0.0000000001
40
0
40
0
40
0
40
0
40
1
40
1
40
1
40
1
10
290.027016
20
81.741203000000013
30
0
10
289.77216900000002
20
81.486367000000001
30
0
10
289.42654399999998
20
81.343198000000001
30
0
10
289.06612799999999
20
81.343200999999993
30
0
0
SPLINE
5
459
100
AcDbEntity
8
0
100
AcDbSpline
70
1064
71
3
72
8
73
4
74
0
42
0.000000001
43
0.0000000001
44
0.0000000001
40
0
40
0
40
0
40
0
40
1
40
1
40
1
40
1
10
358.05496300000004
20
195.57622699999999
30
0
10
357.6945740000001
20
195.57622699999999
30
0
10
357.34892200000002
20
195.719393
30
0
10
357.09410200000002
20
195.97423200000003
30
0
0
SPLINE
5
460
100
AcDbEntity
8
0
100
AcDbSpline
70
1064
71
3
72
8
73
4
74
0
42
0.000000001
43
0.0000000001
44
0.0000000001
40
0
40
0
40
0
40
0
40
1
40
1
40
1
40
1
10
290.027016
20
83.662938000000011
30
0
10
290.281836
20
83.408102
30
0
10
290.42500200000001
20
83.062466000000015
30
0
10
290.42500200000001
20
82.702072000000001
30
0
0
SPLINE
5
461
100
AcDbEntity
8
0
100
AcDbSpline
70
1064
71
3
72
8
73
4
74
0
42
0.000000001
43
0.0000000001
44
0.0000000001
40
0
40
0
40
0
40
0
40
1
40
1
40
1
40
1
10
373.67807900000003
20
191.96138100000002
30
0
10
373.67807900000003
20
192.32178100000002
30
0
10
373.82124500000003
20
192.66741100000002
30
0
10
374.07609200000002
20
192.92225300000001
30
0
0
SPLINE
5
462
100
AcDbEntity
8
0
100
AcDbSpline
70
1064
71
3
72
8
73
4
74
0
42
0.000000001
43
0.0000000001
44
0.0000000001
40
0
40
0
40
0
40
0
40
1
40
1
40
1
40
1
10
363.85497299999997
20
198.32021800000001
30
0
10
364.21536200000003
20
198.32021800000001
30
0
10
364.56098700000007
20
198.17705200000003
30
0
10
364.815834
20
197.922213
30
0
0
SPLINE
5
463
100
AcDbEntity
8
0
100
AcDbSpline
70
1064
71
3
72
8
73
4
74
0
42
0.000000001
43
0.0000000001
44
0.0000000001
40
0
40
0
40
0
40
0
40
1
40
1
40
1
40
1
10
374.07609200000002
20
192.92225300000001
30
0
10
374.33091200000001
20
193.177086
30
0
10
374.67656400000004
20
193.320257
30
0
10
375.03695299999998
20
193.320257
30
0
0
SPLINE
5
464
100
AcDbEntity
8
0
100
AcDbSpline
70
1064
71
3
72
8
73
4
74
0
42
0.000000001
43
0.0000000001
44
0.0000000001
40
0
40
0
40
0
40
0
40
1
40
1
40
1
40
1
10
364.815834
20
197.922213
30
0
10
365.07068099999998
20
197.667372
30
0
10
365.21384700000004
20
197.321742
30
0
10
365.21384700000004
20
196.96134699999999
30
0
0
SPLINE
5
465
100
AcDbEntity
8
0
100
AcDbSpline
70
1064
71
3
72
8
73
4
74
0
42
0.000000001
43
0.0000000001
44
0.0000000001
40
0
40
0
40
0
40
0
40
1
40
1
40
1
40
1
10
374.07609200000002
20
191.000518
30
0
10
373.82124500000003
20
191.25535100000002
30
0
10
373.67807900000003
20
191.60098700000003
30
0
10
373.67807900000003
20
191.96138100000002
30
0
0
SPLINE
5
466
100
AcDbEntity
8
0
100
AcDbSpline
70
1064
71
3
72
8
73
4
74
0
42
0.000000001
43
0.0000000001
44
0.0000000001
40
0
40
0
40
0
40
0
40
1
40
1
40
1
40
1
10
339.06618700000001
20
81.343227999999996
30
0
10
338.70577200000002
20
81.343227999999996
30
0
10
338.3601470000001
20
81.486394000000004
30
0
10
338.1053
20
81.741231999999997
30
0
0
SPLINE
5
467
100
AcDbEntity
8
0
100
AcDbSpline
70
1064
71
3
72
8
73
4
74
0
42
0.000000001
43
0.0000000001
44
0.0000000001
40
0
40
0
40
0
40
0
40
1
40
1
40
1
40
1
10
290.42500200000001
20
82.702072000000001
30
0
10
290.42500200000001
20
82.341675000000009
30
0
10
290.281836
20
81.996041999999989
30
0
10
290.027016
20
81.741203000000013
30
0
0
SPLINE
5
468
100
AcDbEntity
8
0
100
AcDbSpline
70
1064
71
3
72
8
73
4
74
0
42
0.000000001
43
0.0000000001
44
0.0000000001
40
0
40
0
40
0
40
0
40
1
40
1
40
1
40
1
10
288.10526800000002
20
83.662938000000011
30
0
10
288.36011400000007
20
83.917774000000009
30
0
10
288.70573999999999
20
84.060942999999995
30
0
10
289.06612799999999
20
84.060942999999995
30
0
0
SPLINE
5
469
100
AcDbEntity
8
0
100
AcDbSpline
70
1064
71
3
72
8
73
4
74
0
42
0.000000001
43
0.0000000001
44
0.0000000001
40
0
40
0
40
0
40
0
40
1
40
1
40
1
40
1
10
340.00080099999997
20
89.462973000000005
30
0
10
340.25564799999995
20
89.208131000000009
30
0
10
340.39881400000002
20
88.862501000000009
30
0
10
340.39881400000002
20
88.50210100000001
30
0
0
SPLINE
5
470
100
AcDbEntity
8
0
100
AcDbSpline
70
1064
71
3
72
8
73
4
74
0
42
0.000000001
43
0.0000000001
44
0.0000000001
40
0
40
0
40
0
40
0
40
1
40
1
40
1
40
1
10
290.00076899999999
20
89.462943000000024
30
0
10
290.25558899999999
20
89.208101999999997
30
0
10
290.39875499999999
20
88.862469000000004
30
0
10
290.39875499999999
20
88.502077
30
0
0
SPLINE
5
471
100
AcDbEntity
8
0
100
AcDbSpline
70
1064
71
3
72
8
73
4
74
0
42
0.000000001
43
0.0000000001
44
0.0000000001
40
0
40
0
40
0
40
0
40
1
40
1
40
1
40
1
10
288.07902100000001
20
89.462943000000024
30
0
10
288.333868
20
89.717782
30
0
10
288.67949300000009
20
89.860948000000008
30
0
10
289.03988200000003
20
89.860948000000008
30
0
0
SPLINE
5
472
100
AcDbEntity
8
0
100
AcDbSpline
70
1064
71
3
72
8
73
4
74
0
42
0.000000001
43
0.0000000001
44
0.0000000001
40
0
40
0
40
0
40
0
40
1
40
1
40
1
40
1
10
289.03988200000003
20
89.860948000000008
30
0
10
289.40029700000002
20
89.860948000000008
30
0
10
289.74592200000006
20
89.717782
30
0
10
290.00076899999999
20
89.462943000000024
30
0
0
SPLINE
5
473
100
AcDbEntity
8
0
100
AcDbSpline
70
1064
71
3
72
8
73
4
74
0
42
0.000000001
43
0.0000000001
44
0.0000000001
40
0
40
0
40
0
40
0
40
1
40
1
40
1
40
1
10
359.01582300000001
20
195.97423200000003
30
0
10
358.76100299999996
20
195.719393
30
0
10
358.41535200000004
20
195.57622699999999
30
0
10
358.05496300000004
20
195.57622699999999
30
0
0
SPLINE
5
474
100
AcDbEntity
8
0
100
AcDbSpline
70
1064
71
3
72
8
73
4
74
0
42
0.000000001
43
0.0000000001
44
0.0000000001
40
0
40
0
40
0
40
0
40
1
40
1
40
1
40
1
10
340.39881400000002
20
88.50210100000001
30
0
10
340.39881400000002
20
88.141709000000006
30
0
10
340.25564799999995
20
87.796070999999998
30
0
10
340.00080099999997
20
87.541238000000007
30
0
0
SPLINE
5
475
100
AcDbEntity
8
0
100
AcDbSpline
70
1064
71
3
72
8
73
4
74
0
42
0.000000001
43
0.0000000001
44
0.0000000001
40
0
40
0
40
0
40
0
40
1
40
1
40
1
40
1
10
287.68100800000002
20
88.502077
30
0
10
287.68100800000002
20
88.862469000000004
30
0
10
287.82417400000003
20
89.208101999999997
30
0
10
288.07902100000001
20
89.462943000000024
30
0
0
SPLINE
5
476
100
AcDbEntity
8
0
100
AcDbSpline
70
1064
71
3
72
8
73
4
74
0
42
0.000000001
43
0.0000000001
44
0.0000000001
40
0
40
0
40
0
40
0
40
1
40
1
40
1
40
1
10
322.10401400000001
20
100.75224300000002
30
0
10
322.10401400000001
20
100.20616400000002
30
0
10
321.88708199999996
20
99.682451000000015
30
0
10
321.50094999999999
20
99.296317999999985
30
0
0
SPLINE
5
477
100
AcDbEntity
8
0
100
AcDbSpline
70
1064
71
3
72
8
73
4
74
0
42
0.000000001
43
0.0000000001
44
0.0000000001
40
0
40
0
40
0
40
0
40
1
40
1
40
1
40
1
10
370.19780300000002
20
192.896006
30
0
10
370.45265000000001
20
192.641167
30
0
10
370.59581600000001
20
192.295534
30
0
10
370.59581600000001
20
191.935137
30
0
0
SPLINE
5
478
100
AcDbEntity
8
0
100
AcDbSpline
70
1064
71
3
72
8
73
4
74
0
42
0.000000001
43
0.0000000001
44
0.0000000001
40
0
40
0
40
0
40
0
40
1
40
1
40
1
40
1
10
289.03988200000003
20
87.143201000000005
30
0
10
288.67949300000009
20
87.143201000000005
30
0
10
288.333868
20
87.286367000000013
30
0
10
288.07902100000001
20
87.541209000000009
30
0
0
SPLINE
5
479
100
AcDbEntity
8
0
100
AcDbSpline
70
1064
71
3
72
8
73
4
74
0
42
0.000000001
43
0.0000000001
44
0.0000000001
40
0
40
0
40
0
40
0
40
1
40
1
40
1
40
1
10
338.1053
20
83.662966999999995
30
0
10
338.3601470000001
20
83.917806000000013
30
0
10
338.70577200000002
20
84.060972000000021
30
0
10
339.06618700000001
20
84.060972000000021
30
0
0
SPLINE
5
480
100
AcDbEntity
8
0
100
AcDbSpline
70
1064
71
3
72
8
73
4
74
0
42
0.000000001
43
0.0000000001
44
0.0000000001
40
0
40
0
40
0
40
0
40
1
40
1
40
1
40
1
10
340.02704800000004
20
83.662966999999995
30
0
10
340.28189500000002
20
83.408128000000019
30
0
10
340.42506099999997
20
83.062494999999998
30
0
10
340.42506099999997
20
82.702098000000007
30
0
0
SPLINE
5
481
100
AcDbEntity
8
0
100
AcDbSpline
70
1064
71
3
72
8
73
4
74
0
42
0.000000001
43
0.0000000001
44
0.0000000001
40
0
40
0
40
0
40
0
40
1
40
1
40
1
40
1
10
289.06612799999999
20
84.060942999999995
30
0
10
289.42654399999998
20
84.060942999999995
30
0
10
289.77216900000002
20
83.917774000000009
30
0
10
290.027016
20
83.662938000000011
30
0
0
SPLINE
5
482
100
AcDbEntity
8
0
100
AcDbSpline
70
1064
71
3
72
8
73
4
74
0
42
0.000000001
43
0.0000000001
44
0.0000000001
40
0
40
0
40
0
40
0
40
1
40
1
40
1
40
1
10
290.00076899999999
20
87.541209000000009
30
0
10
289.74592200000006
20
87.286367000000013
30
0
10
289.40029700000002
20
87.143201000000005
30
0
10
289.03988200000003
20
87.143201000000005
30
0
0
SPLINE
5
483
100
AcDbEntity
8
0
100
AcDbSpline
70
1064
71
3
72
8
73
4
74
0
42
0.000000001
43
0.0000000001
44
0.0000000001
40
0
40
0
40
0
40
0
40
1
40
1
40
1
40
1
10
357.09410200000002
20
274.44927999999999
30
0
10
356.83925499999998
20
274.70411800000005
30
0
10
356.69608900000009
20
275.04975300000001
30
0
10
356.69608900000009
20
275.41014799999999
30
0
0
SPLINE
5
484
100
AcDbEntity
8
0
100
AcDbSpline
70
1064
71
3
72
8
73
4
74
0
42
0.000000001
43
0.0000000001
44
0.0000000001
40
0
40
0
40
0
40
0
40
1
40
1
40
1
40
1
10
370.59581600000001
20
191.935137
30
0
10
370.59581600000001
20
191.57474000000002
30
0
10
370.45265000000001
20
191.22910700000003
30
0
10
370.19780300000002
20
190.97427100000002
30
0
0
SPLINE
5
485
100
AcDbEntity
8
0
100
AcDbSpline
70
1064
71
3
72
8
73
4
74
0
42
0.000000001
43
0.0000000001
44
0.0000000001
40
0
40
0
40
0
40
0
40
1
40
1
40
1
40
1
10
339.03994100000006
20
87.143233000000009
30
0
10
338.67952500000001
20
87.143233000000009
30
0
10
338.33390000000009
20
87.286399000000017
30
0
10
338.07905300000004
20
87.541238000000007
30
0
0
SPLINE
5
486
100
AcDbEntity
8
0
100
AcDbSpline
70
1064
71
3
72
8
73
4
74
0
42
0.000000001
43
0.0000000001
44
0.0000000001
40
0
40
0
40
0
40
0
40
1
40
1
40
1
40
1
10
289.06612799999999
20
81.343200999999993
30
0
10
288.70573999999999
20
81.343198000000001
30
0
10
288.36011400000007
20
81.486367000000001
30
0
10
288.10526800000002
20
81.741203000000013
30
0
0
SPLINE
5
487
100
AcDbEntity
8
0
100
AcDbSpline
70
1064
71
3
72
8
73
4
74
0
42
0.000000001
43
0.0000000001
44
0.0000000001
40
0
40
0
40
0
40
0
40
1
40
1
40
1
40
1
10
288.07902100000001
20
87.541209000000009
30
0
10
287.82417400000003
20
87.796047000000002
30
0
10
287.68100800000002
20
88.141680000000022
30
0
10
287.68100800000002
20
88.502077
30
0
0
SPLINE
5
488
100
AcDbEntity
8
0
100
AcDbSpline
70
1064
71
3
72
8
73
4
74
0
42
0.000000001
43
0.0000000001
44
0.0000000001
40
0
40
0
40
0
40
0
40
1
40
1
40
1
40
1
10
348.68913599999996
20
99.296326000000022
30
0
10
348.30300299999999
20
99.682458999999994
30
0
10
348.08607100000006
20
100.20616700000002
30
0
10
348.08609799999999
20
100.75224300000002
30
0
0
SPLINE
5
489
100
AcDbEntity
8
0
100
AcDbSpline
70
1064
71
3
72
8
73
4
74
0
42
0.000000001
43
0.0000000001
44
0.0000000001
40
0
40
0
40
0
40
0
40
1
40
1
40
1
40
1
10
337.707314
20
82.702098000000007
30
0
10
337.707314
20
83.062494999999998
30
0
10
337.85048000000006
20
83.408128000000019
30
0
10
338.1053
20
83.662966999999995
30
0
0
SPLINE
5
490
100
AcDbEntity
8
0
100
AcDbSpline
70
1064
71
3
72
8
73
4
74
0
42
0.000000001
43
0.0000000001
44
0.0000000001
40
0
40
0
40
0
40
0
40
1
40
1
40
1
40
1
10
357.09410200000002
20
197.89596399999999
30
0
10
357.34892200000002
20
198.15080499999999
30
0
10
357.6945740000001
20
198.293972
30
0
10
358.05496300000004
20
198.293972
30
0
0
SPLINE
5
491
100
AcDbEntity
8
0
100
AcDbSpline
70
1064
71
3
72
8
73
4
74
0
42
0.000000001
43
0.0000000001
44
0.0000000001
40
0
40
0
40
0
40
0
40
1
40
1
40
1
40
1
10
340.42506099999997
20
82.702098000000007
30
0
10
340.42506099999997
20
82.341703999999993
30
0
10
340.28189500000002
20
81.996071000000001
30
0
10
340.02704800000004
20
81.741231999999997
30
0
0
SPLINE
5
492
100
AcDbEntity
8
0
100
AcDbSpline
70
1064
71
3
72
8
73
4
74
0
42
0.000000001
43
0.0000000001
44
0.0000000001
40
0
40
0
40
0
40
0
40
1
40
1
40
1
40
1
10
340.02704800000004
20
81.741231999999997
30
0
10
339.772201
20
81.486394000000004
30
0
10
339.42657599999995
20
81.343227999999996
30
0
10
339.06618700000001
20
81.343227999999996
30
0
0
SPLINE
5
493
100
AcDbEntity
8
0
100
AcDbSpline
70
1064
71
3
72
8
73
4
74
0
42
0.000000001
43
0.0000000001
44
0.0000000001
40
0
40
0
40
0
40
0
40
1
40
1
40
1
40
1
10
357.09410200000002
20
195.97423200000003
30
0
10
356.83925499999998
20
196.22907100000003
30
0
10
356.69608900000009
20
196.574701
30
0
10
356.69608900000009
20
196.935101
30
0
0
SPLINE
5
494
100
AcDbEntity
8
0
100
AcDbSpline
70
1064
71
3
72
8
73
4
74
0
42
0.000000001
43
0.0000000001
44
0.0000000001
40
0
40
0
40
0
40
0
40
1
40
1
40
1
40
1
10
350.14503200000001
20
102.81119100000001
30
0
10
351.28215799999998
20
102.81119100000001
30
0
10
352.20399300000003
20
101.88936999999999
30
0
10
352.20399300000003
20
100.75224300000002
30
0
0
SPLINE
5
495
100
AcDbEntity
8
0
100
AcDbSpline
70
1064
71
3
72
8
73
4
74
0
42
0.000000001
43
0.0000000001
44
0.0000000001
40
0
40
0
40
0
40
0
40
1
40
1
40
1
40
1
10
339.06618700000001
20
84.060972000000021
30
0
10
339.42657599999995
20
84.060972000000021
30
0
10
339.772201
20
83.917806000000013
30
0
10
340.02704800000004
20
83.662966999999995
30
0
0
SPLINE
5
496
100
AcDbEntity
8
0
100
AcDbSpline
70
1064
71
3
72
8
73
4
74
0
42
0.000000001
43
0.0000000001
44
0.0000000001
40
0
40
0
40
0
40
0
40
1
40
1
40
1
40
1
10
287.70725499999998
20
82.702072000000001
30
0
10
287.70725499999998
20
83.062466000000015
30
0
10
287.85042099999998
20
83.408102
30
0
10
288.10526800000002
20
83.662938000000011
30
0
0
SPLINE
5
497
100
AcDbEntity
8
0
100
AcDbSpline
70
1064
71
3
72
8
73
4
74
0
42
0.000000001
43
0.0000000001
44
0.0000000001
40
0
40
0
40
0
40
0
40
1
40
1
40
1
40
1
10
338.07905300000004
20
89.462973000000005
30
0
10
338.33390000000009
20
89.717809000000003
30
0
10
338.67952500000001
20
89.86097700000002
30
0
10
339.03994100000006
20
89.86097700000002
30
0
0
SPLINE
5
498
100
AcDbEntity
8
0
100
AcDbSpline
70
1064
71
3
72
8
73
4
74
0
42
0.000000001
43
0.0000000001
44
0.0000000001
40
0
40
0
40
0
40
0
40
1
40
1
40
1
40
1
10
352.20399300000003
20
100.75224300000002
30
0
10
352.20399300000003
20
100.20616700000002
30
0
10
351.98706100000004
20
99.682458999999994
30
0
10
351.60095500000006
20
99.296326000000022
30
0
0
SPLINE
5
499
100
AcDbEntity
8
0
100
AcDbSpline
70
1064
71
3
72
8
73
4
74
0
42
0.000000001
43
0.0000000001
44
0.0000000001
40
0
40
0
40
0
40
0
40
1
40
1
40
1
40
1
10
350.14503200000001
20
98.693260999999978
30
0
10
349.59895899999998
20
98.693260999999978
30
0
10
349.07526899999999
20
98.910192999999992
30
0
10
348.68913599999996
20
99.296326000000022
30
0
0
SPLINE
5
500
100
AcDbEntity
8
0
100
AcDbSpline
70
1064
71
3
72
8
73
4
74
0
42
0.000000001
43
0.0000000001
44
0.0000000001
40
0
40
0
40
0
40
0
40
1
40
1
40
1
40
1
10
320.045027
20
98.693260999999978
30
0
10
319.49895299999997
20
98.693260999999978
30
0
10
318.97523699999999
20
98.910192999999992
30
0
10
318.58910400000002
20
99.296326000000022
30
0
0
SPLINE
5
501
100
AcDbEntity
8
0
100
AcDbSpline
70
1064
71
3
72
8
73
4
74
0
42
0.000000001
43
0.0000000001
44
0.0000000001
40
0
40
0
40
0
40
0
40
1
40
1
40
1
40
1
10
375.03695299999998
20
193.320257
30
0
10
375.39734199999998
20
193.320257
30
0
10
375.74299300000001
20
193.177086
30
0
10
375.99781400000006
20
192.92225300000001
30
0
0
SPLINE
5
502
100
AcDbEntity
8
0
100
AcDbSpline
70
1064
71
3
72
8
73
4
74
0
42
0.000000001
43
0.0000000001
44
0.0000000001
40
0
40
0
40
0
40
0
40
1
40
1
40
1
40
1
10
376.39582600000006
20
191.96138100000002
30
0
10
376.39582600000006
20
191.60098700000003
30
0
10
376.25266000000005
20
191.25535100000002
30
0
10
375.99781400000006
20
191.000518
30
0
0
SPLINE
5
503
100
AcDbEntity
8
0
100
AcDbSpline
70
1064
71
3
72
8
73
4
74
0
42
0.000000001
43
0.0000000001
44
0.0000000001
40
0
40
0
40
0
40
0
40
1
40
1
40
1
40
1
10
375.99781400000006
20
191.000518
30
0
10
375.74299300000001
20
190.74567900000002
30
0
10
375.39734199999998
20
190.60251300000002
30
0
10
375.03695299999998
20
190.60251300000002
30
0
0
SPLINE
5
504
100
AcDbEntity
8
0
100
AcDbSpline
70
1064
71
3
72
8
73
4
74
0
42
0.000000001
43
0.0000000001
44
0.0000000001
40
0
40
0
40
0
40
0
40
1
40
1
40
1
40
1
10
356.69608900000009
20
275.41014799999999
30
0
10
356.69608900000009
20
276.16063100000002
30
0
10
357.30447200000009
20
276.76901700000002
30
0
10
358.05496300000004
20
276.76901700000002
30
0
0
SPLINE
5
505
100
AcDbEntity
8
0
100
AcDbSpline
70
1064
71
3
72
8
73
4
74
0
42
0.000000001
43
0.0000000001
44
0.0000000001
40
0
40
0
40
0
40
0
40
1
40
1
40
1
40
1
10
367.87806899999998
20
191.935137
30
0
10
367.87806899999998
20
192.295534
30
0
10
368.02123499999999
20
192.641167
30
0
10
368.27608100000009
20
192.896006
30
0
0
SPLINE
5
506
100
AcDbEntity
8
0
100
AcDbSpline
70
1064
71
3
72
8
73
4
74
0
42
0.000000001
43
0.0000000001
44
0.0000000001
40
0
40
0
40
0
40
0
40
1
40
1
40
1
40
1
10
368.27608100000009
20
192.896006
30
0
10
368.53092800000002
20
193.150845
30
0
10
368.876553
20
193.29400800000002
30
0
10
369.236942
20
193.29400800000002
30
0
0
SPLINE
5
507
100
AcDbEntity
8
0
100
AcDbSpline
70
1064
71
3
72
8
73
4
74
0
42
0.000000001
43
0.0000000001
44
0.0000000001
40
0
40
0
40
0
40
0
40
1
40
1
40
1
40
1
10
290.39875499999999
20
88.502077
30
0
10
290.39875499999999
20
88.141680000000022
30
0
10
290.25558899999999
20
87.796047000000002
30
0
10
290.00076899999999
20
87.541209000000009
30
0
0
SPLINE
5
508
100
AcDbEntity
8
0
100
AcDbSpline
70
1064
71
3
72
8
73
4
74
0
42
0.000000001
43
0.0000000001
44
0.0000000001
40
0
40
0
40
0
40
0
40
1
40
1
40
1
40
1
10
351.60095500000006
20
99.296326000000022
30
0
10
351.21482200000003
20
98.910192999999992
30
0
10
350.69110599999999
20
98.693260999999978
30
0
10
350.14503200000001
20
98.693260999999978
30
0
0
SPLINE
5
509
100
AcDbEntity
8
0
100
AcDbSpline
70
1064
71
3
72
8
73
4
74
0
42
0.000000001
43
0.0000000001
44
0.0000000001
40
0
40
0
40
0
40
0
40
1
40
1
40
1
40
1
10
338.1053
20
81.741231999999997
30
0
10
337.85048000000006
20
81.996071000000001
30
0
10
337.707314
20
82.341703999999993
30
0
10
337.707314
20
82.702098000000007
30
0
0
SPLINE
5
510
100
AcDbEntity
8
0
100
AcDbSpline
70
1064
71
3
72
8
73
4
74
0
42
0.000000001
43
0.0000000001
44
0.0000000001
40
0
40
0
40
0
40
0
40
1
40
1
40
1
40
1
10
375.99781400000006
20
350.14423900000003
30
0
10
376.25266000000005
20
349.88940000000008
30
0
10
376.39582600000006
20
349.54376700000006
30
0
10
376.39582600000006
20
349.18337000000002
30
0
0
SPLINE
5
511
100
AcDbEntity
8
0
100
AcDbSpline
70
1064
71
3
72
8
73
4
74
0
42
0.000000001
43
0.0000000001
44
0.0000000001
40
0
40
0
40
0
40
0
40
1
40
1
40
1
40
1
10
369.236942
20
347.79828700000002
30
0
10
368.876553
20
347.79828700000002
30
0
10
368.53092800000002
20
347.94145299999997
30
0
10
368.27608100000009
20
348.19628900000004
30
0
0
SPLINE
5
512
100
AcDbEntity
8
0
100
AcDbSpline
70
1064
71
3
72
8
73
4
74
0
42
0.000000001
43
0.0000000001
44
0.0000000001
40
0
40
0
40
0
40
0
40
1
40
1
40
1
40
1
10
364.815834
20
353.22249399999998
30
0
10
364.56098700000007
20
352.96765499999998
30
0
10
364.21536200000003
20
352.82448900000009
30
0
10
363.85497299999997
20
352.82448900000009
30
0
0
SPLINE
5
513
100
AcDbEntity
8
0
100
AcDbSpline
70
1064
71
3
72
8
73
4
74
0
42
0.000000001
43
0.0000000001
44
0.0000000001
40
0
40
0
40
0
40
0
40
1
40
1
40
1
40
1
10
363.85497299999997
20
355.542236
30
0
10
364.21536200000003
20
355.542236
30
0
10
364.56098700000007
20
355.39906999999999
30
0
10
364.815834
20
355.144229
30
0
0
SPLINE
5
514
100
AcDbEntity
8
0
100
AcDbSpline
70
1064
71
3
72
8
73
4
74
0
42
0.000000001
43
0.0000000001
44
0.0000000001
40
0
40
0
40
0
40
0
40
1
40
1
40
1
40
1
10
362.89411200000006
20
196.00047900000004
30
0
10
362.63926600000002
20
196.25531699999999
30
0
10
362.49610000000007
20
196.60095000000001
30
0
10
362.49610000000007
20
196.96134699999999
30
0
0
SPLINE
5
515
100
AcDbEntity
8
0
100
AcDbSpline
70
1064
71
3
72
8
73
4
74
0
42
0.000000001
43
0.0000000001
44
0.0000000001
40
0
40
0
40
0
40
0
40
1
40
1
40
1
40
1
10
376.39582600000006
20
349.18337000000002
30
0
10
376.39582600000006
20
348.82297799999998
30
0
10
376.25266000000005
20
348.47734500000001
30
0
10
375.99781400000006
20
348.22250400000001
30
0
0
SPLINE
5
516
100
AcDbEntity
8
0
100
AcDbSpline
70
1064
71
3
72
8
73
4
74
0
42
0.000000001
43
0.0000000001
44
0.0000000001
40
0
40
0
40
0
40
0
40
1
40
1
40
1
40
1
10
362.49610000000007
20
354.18336000000005
30
0
10
362.49610000000007
20
354.54375700000003
30
0
10
362.63926600000002
20
354.88939000000005
30
0
10
362.89411200000006
20
355.144229
30
0
0
SPLINE
5
517
100
AcDbEntity
8
0
100
AcDbSpline
70
1064
71
3
72
8
73
4
74
0
42
0.000000001
43
0.0000000001
44
0.0000000001
40
0
40
0
40
0
40
0
40
1
40
1
40
1
40
1
10
363.85497299999997
20
352.82448900000009
30
0
10
363.49458399999997
20
352.82448900000009
30
0
10
363.148933
20
352.96765499999998
30
0
10
362.89411200000006
20
353.22249399999998
30
0
0
SPLINE
5
518
100
AcDbEntity
8
0
100
AcDbSpline
70
1064
71
3
72
8
73
4
74
0
42
0.000000001
43
0.0000000001
44
0.0000000001
40
0
40
0
40
0
40
0
40
1
40
1
40
1
40
1
10
375.03695299999998
20
190.60251300000002
30
0
10
374.67656400000004
20
190.60251300000002
30
0
10
374.33091200000001
20
190.74567900000002
30
0
10
374.07609200000002
20
191.000518
30
0
0
SPLINE
5
519
100
AcDbEntity
8
0
100
AcDbSpline
70
1064
71
3
72
8
73
4
74
0
42
0.000000001
43
0.0000000001
44
0.0000000001
40
0
40
0
40
0
40
0
40
1
40
1
40
1
40
1
10
359.01582300000001
20
117.49921200000001
30
0
10
358.76100299999996
20
117.244373
30
0
10
358.41535200000004
20
117.10120699999999
30
0
10
358.05496300000004
20
117.10120699999999
30
0
0
SPLINE
5
520
100
AcDbEntity
8
0
100
AcDbSpline
70
1064
71
3
72
8
73
4
74
0
42
0.000000001
43
0.0000000001
44
0.0000000001
40
0
40
0
40
0
40
0
40
1
40
1
40
1
40
1
10
374.07609200000002
20
348.22250400000001
30
0
10
373.82124500000003
20
348.47734500000001
30
0
10
373.67807900000003
20
348.82297799999998
30
0
10
373.67807900000003
20
349.18337000000002
30
0
0
SPLINE
5
521
100
AcDbEntity
8
0
100
AcDbSpline
70
1064
71
3
72
8
73
4
74
0
42
0.000000001
43
0.0000000001
44
0.0000000001
40
0
40
0
40
0
40
0
40
1
40
1
40
1
40
1
10
370.19780300000002
20
190.97427100000002
30
0
10
369.94298300000003
20
190.71943200000004
30
0
10
369.597331
20
190.57626600000003
30
0
10
369.236942
20
190.57626600000003
30
0
0
SPLINE
5
522
100
AcDbEntity
8
0
100
AcDbSpline
70
1064
71
3
72
8
73
4
74
0
42
0.000000001
43
0.0000000001
44
0.0000000001
40
0
40
0
40
0
40
0
40
1
40
1
40
1
40
1
10
375.03695299999998
20
347.82449900000006
30
0
10
374.67656400000004
20
347.82449900000006
30
0
10
374.33091200000001
20
347.96766500000001
30
0
10
374.07609200000002
20
348.22250400000001
30
0
0
SPLINE
5
523
100
AcDbEntity
8
0
100
AcDbSpline
70
1064
71
3
72
8
73
4
74
0
42
0.000000001
43
0.0000000001
44
0.0000000001
40
0
40
0
40
0
40
0
40
1
40
1
40
1
40
1
10
370.59581600000001
20
349.15715499999999
30
0
10
370.59581600000001
20
348.79676100000006
30
0
10
370.45265000000001
20
348.45112499999999
30
0
10
370.19780300000002
20
348.19628900000004
30
0
0
SPLINE
5
524
100
AcDbEntity
8
0
100
AcDbSpline
70
1064
71
3
72
8
73
4
74
0
42
0.000000001
43
0.0000000001
44
0.0000000001
40
0
40
0
40
0
40
0
40
1
40
1
40
1
40
1
10
357.09410200000002
20
119.420947
30
0
10
357.34892200000002
20
119.675783
30
0
10
357.6945740000001
20
119.818949
30
0
10
358.05496300000004
20
119.818949
30
0
0
SPLINE
5
525
100
AcDbEntity
8
0
100
AcDbSpline
70
1064
71
3
72
8
73
4
74
0
42
0.000000001
43
0.0000000001
44
0.0000000001
40
0
40
0
40
0
40
0
40
1
40
1
40
1
40
1
10
356.69608900000009
20
118.46007800000001
30
0
10
356.69608900000009
20
118.820475
30
0
10
356.83925499999998
20
119.16610799999999
30
0
10
357.09410200000002
20
119.420947
30
0
0
SPLINE
5
526
100
AcDbEntity
8
0
100
AcDbSpline
70
1064
71
3
72
8
73
4
74
0
42
0.000000001
43
0.0000000001
44
0.0000000001
40
0
40
0
40
0
40
0
40
1
40
1
40
1
40
1
10
358.05496300000004
20
117.10120699999999
30
0
10
357.6945740000001
20
117.10120699999999
30
0
10
357.34892200000002
20
117.244373
30
0
10
357.09410200000002
20
117.49921200000001
30
0
0
SPLINE
5
527
100
AcDbEntity
8
0
100
AcDbSpline
70
1064
71
3
72
8
73
4
74
0
42
0.000000001
43
0.0000000001
44
0.0000000001
40
0
40
0
40
0
40
0
40
1
40
1
40
1
40
1
10
370.19780300000002
20
348.19628900000004
30
0
10
369.94298300000003
20
347.94145299999997
30
0
10
369.597331
20
347.79828700000002
30
0
10
369.236942
20
347.79828700000002
30
0
0
SPLINE
5
528
100
AcDbEntity
8
0
100
AcDbSpline
70
1064
71
3
72
8
73
4
74
0
42
0.000000001
43
0.0000000001
44
0.0000000001
40
0
40
0
40
0
40
0
40
1
40
1
40
1
40
1
10
367.87806899999998
20
349.15715499999999
30
0
10
367.87806899999998
20
349.90763799999996
30
0
10
368.48645199999999
20
350.51602599999995
30
0
10
369.236942
20
350.51602599999995
30
0
0
SPLINE
5
529
100
AcDbEntity
8
0
100
AcDbSpline
70
1064
71
3
72
8
73
4
74
0
42
0.000000001
43
0.0000000001
44
0.0000000001
40
0
40
0
40
0
40
0
40
1
40
1
40
1
40
1
10
374.07609200000002
20
350.14423900000003
30
0
10
374.33091200000001
20
350.39907999999997
30
0
10
374.67656400000004
20
350.54224599999998
30
0
10
375.03695299999998
20
350.54224599999998
30
0
0
SPLINE
5
530
100
AcDbEntity
8
0
100
AcDbSpline
70
1064
71
3
72
8
73
4
74
0
42
0.000000001
43
0.0000000001
44
0.0000000001
40
0
40
0
40
0
40
0
40
1
40
1
40
1
40
1
10
368.27608100000009
20
348.19628900000004
30
0
10
368.02123499999999
20
348.45112499999999
30
0
10
367.87806899999998
20
348.79676100000006
30
0
10
367.87806899999998
20
349.15715499999999
30
0
0
SPLINE
5
531
100
AcDbEntity
8
0
100
AcDbSpline
70
1064
71
3
72
8
73
4
74
0
42
0.000000001
43
0.0000000001
44
0.0000000001
40
0
40
0
40
0
40
0
40
1
40
1
40
1
40
1
10
365.21384700000004
20
354.18336000000005
30
0
10
365.21384700000004
20
353.822968
30
0
10
365.07068099999998
20
353.47733499999998
30
0
10
364.815834
20
353.22249399999998
30
0
0
SPLINE
5
532
100
AcDbEntity
8
0
100
AcDbSpline
70
1064
71
3
72
8
73
4
74
0
42
0.000000001
43
0.0000000001
44
0.0000000001
40
0
40
0
40
0
40
0
40
1
40
1
40
1
40
1
10
362.89411200000006
20
353.22249399999998
30
0
10
362.63926600000002
20
353.47733499999998
30
0
10
362.49610000000007
20
353.822968
30
0
10
362.49610000000007
20
354.18336000000005
30
0
0
SPLINE
5
533
100
AcDbEntity
8
0
100
AcDbSpline
70
1064
71
3
72
8
73
4
74
0
42
0.000000001
43
0.0000000001
44
0.0000000001
40
0
40
0
40
0
40
0
40
1
40
1
40
1
40
1
10
369.236942
20
193.29400800000002
30
0
10
369.597331
20
193.29400800000002
30
0
10
369.94298300000003
20
193.150845
30
0
10
370.19780300000002
20
192.896006
30
0
0
SPLINE
5
534
100
AcDbEntity
8
0
100
AcDbSpline
70
1064
71
3
72
8
73
4
74
0
42
0.000000001
43
0.0000000001
44
0.0000000001
40
0
40
0
40
0
40
0
40
1
40
1
40
1
40
1
10
359.413836
20
118.46007800000001
30
0
10
359.413836
20
118.09968400000001
30
0
10
359.27067
20
117.75404800000001
30
0
10
359.01582300000001
20
117.49921200000001
30
0
0
SPLINE
5
535
100
AcDbEntity
8
0
100
AcDbSpline
70
1064
71
3
72
8
73
4
74
0
42
0.000000001
43
0.0000000001
44
0.0000000001
40
0
40
0
40
0
40
0
40
1
40
1
40
1
40
1
10
365.21384700000004
20
196.96134699999999
30
0
10
365.21384700000004
20
196.60095000000001
30
0
10
365.07068099999998
20
196.25531699999999
30
0
10
364.815834
20
196.00047900000004
30
0
0
SPLINE
5
536
100
AcDbEntity
8
0
100
AcDbSpline
70
1064
71
3
72
8
73
4
74
0
42
0.000000001
43
0.0000000001
44
0.0000000001
40
0
40
0
40
0
40
0
40
1
40
1
40
1
40
1
10
364.815834
20
196.00047900000004
30
0
10
364.56098700000007
20
195.74563700000002
30
0
10
364.21536200000003
20
195.60247100000001
30
0
10
363.85497299999997
20
195.60247100000001
30
0
0
SPLINE
5
537
100
AcDbEntity
8
0
100
AcDbSpline
70
1064
71
3
72
8
73
4
74
0
42
0.000000001
43
0.0000000001
44
0.0000000001
40
0
40
0
40
0
40
0
40
1
40
1
40
1
40
1
10
369.236942
20
190.57626600000003
30
0
10
368.876553
20
190.57626600000003
30
0
10
368.53092800000002
20
190.71943200000004
30
0
10
368.27608100000009
20
190.97427100000002
30
0
0
SPLINE
5
538
100
AcDbEntity
8
0
100
AcDbSpline
70
1064
71
3
72
8
73
4
74
0
42
0.000000001
43
0.0000000001
44
0.0000000001
40
0
40
0
40
0
40
0
40
1
40
1
40
1
40
1
10
359.01582300000001
20
119.420947
30
0
10
359.27067
20
119.16610799999999
30
0
10
359.413836
20
118.820475
30
0
10
359.413836
20
118.46007800000001
30
0
0
SPLINE
5
539
100
AcDbEntity
8
0
100
AcDbSpline
70
1064
71
3
72
8
73
4
74
0
42
0.000000001
43
0.0000000001
44
0.0000000001
40
0
40
0
40
0
40
0
40
1
40
1
40
1
40
1
10
369.236942
20
350.51602599999995
30
0
10
369.98743300000001
20
350.51602599999995
30
0
10
370.59581600000001
20
349.90763799999996
30
0
10
370.59581600000001
20
349.15715499999999
30
0
0
SPLINE
5
540
100
AcDbEntity
8
0
100
AcDbSpline
70
1064
71
3
72
8
73
4
74
0
42
0.000000001
43
0.0000000001
44
0.0000000001
40
0
40
0
40
0
40
0
40
1
40
1
40
1
40
1
10
375.99781400000006
20
348.22250400000001
30
0
10
375.74299300000001
20
347.96766500000001
30
0
10
375.39734199999998
20
347.82449900000006
30
0
10
375.03695299999998
20
347.82449900000006
30
0
0
SPLINE
5
541
100
AcDbEntity
8
0
100
AcDbSpline
70
1064
71
3
72
8
73
4
74
0
42
0.000000001
43
0.0000000001
44
0.0000000001
40
0
40
0
40
0
40
0
40
1
40
1
40
1
40
1
10
364.815834
20
355.144229
30
0
10
365.07068099999998
20
354.88939000000005
30
0
10
365.21384700000004
20
354.54375700000003
30
0
10
365.21384700000004
20
354.18336000000005
30
0
0
SPLINE
5
542
100
AcDbEntity
8
0
100
AcDbSpline
70
1064
71
3
72
8
73
4
74
0
42
0.000000001
43
0.0000000001
44
0.0000000001
40
0
40
0
40
0
40
0
40
1
40
1
40
1
40
1
10
373.67807900000003
20
349.18337000000002
30
0
10
373.67807900000003
20
349.54376700000006
30
0
10
373.82124500000003
20
349.88940000000008
30
0
10
374.07609200000002
20
350.14423900000003
30
0
0
SPLINE
5
543
100
AcDbEntity
8
0
100
AcDbSpline
70
1064
71
3
72
8
73
4
74
0
42
0.000000001
43
0.0000000001
44
0.0000000001
40
0
40
0
40
0
40
0
40
1
40
1
40
1
40
1
10
435.89225699999997
20
347.85552700000005
30
0
10
435.50612400000006
20
347.46938599999999
30
0
10
434.98240800000008
20
347.252454
30
0
10
434.436308
20
347.252454
30
0
0
SPLINE
5
544
100
AcDbEntity
8
0
100
AcDbSpline
70
1064
71
3
72
8
73
4
74
0
42
0.000000001
43
0.0000000001
44
0.0000000001
40
0
40
0
40
0
40
0
40
1
40
1
40
1
40
1
10
404.72629799999999
20
404.38245700000004
30
0
10
404.18022500000001
20
404.38245700000004
30
0
10
403.65648200000004
20
404.59938599999998
30
0
10
403.27034900000001
20
404.98553199999998
30
0
0
SPLINE
5
545
100
AcDbEntity
8
0
100
AcDbSpline
70
1064
71
3
72
8
73
4
74
0
42
0.000000001
43
0.0000000001
44
0.0000000001
40
0
40
0
40
0
40
0
40
1
40
1
40
1
40
1
10
404.72629799999999
20
408.50051400000007
30
0
10
405.27239800000007
20
408.50051900000005
30
0
10
405.79611499999999
20
408.28358700000001
30
0
10
406.18227400000001
20
407.89744100000001
30
0
0
SPLINE
5
546
100
AcDbEntity
8
0
100
AcDbSpline
70
1064
71
3
72
8
73
4
74
0
42
0.000000001
43
0.0000000001
44
0.0000000001
40
0
40
0
40
0
40
0
40
1
40
1
40
1
40
1
10
85.672294999999991
20
408.50051400000007
30
0
10
86.218384
20
408.50051400000007
30
0
10
86.742106000000021
20
408.28358500000002
30
0
10
87.128246999999988
20
407.89744100000001
30
0
0
SPLINE
5
547
100
AcDbEntity
8
0
100
AcDbSpline
70
1064
71
3
72
8
73
4
74
0
42
0.000000001
43
0.0000000001
44
0.0000000001
40
0
40
0
40
0
40
0
40
1
40
1
40
1
40
1
10
402.66728499999999
20
406.441484
30
0
10
402.66728499999999
20
406.98757599999999
30
0
10
402.88421600000004
20
407.51130000000001
30
0
10
403.27034900000001
20
407.89744100000001
30
0
0
LINE
5
548
100
AcDbEntity
8
0
100
AcDbLine
10
25.130334837523534
20
49.98965572694609
30
0
11
25.181562999999997
21
482.97700199999997
31
0
0
SPLINE
5
549
100
AcDbEntity
8
0
100
AcDbSpline
70
1064
71
3
72
8
73
4
74
0
42
0.000000001
43
0.0000000001
44
0.0000000001
40
0
40
0
40
0
40
0
40
1
40
1
40
1
40
1
10
403.27034900000001
20
407.89744100000001
30
0
10
403.65648200000004
20
408.28358700000001
30
0
10
404.18022500000001
20
408.50051900000005
30
0
10
404.72629799999999
20
408.50051400000007
30
0
0
LINE
5
550
100
AcDbEntity
8
0
100
AcDbLine
10
25.181562999999997
20
482.97700199999997
30
0
11
25.130334837523534
21
49.98965572694609
31
0
0
SPLINE
5
551
100
AcDbEntity
8
0
100
AcDbSpline
70
1064
71
3
72
8
73
4
74
0
42
0.000000001
43
0.0000000001
44
0.0000000001
40
0
40
0
40
0
40
0
40
1
40
1
40
1
40
1
10
259.96407099999999
20
393.96925299999998
30
0
10
260.21890900000005
20
394.22408899999999
30
0
10
260.56454200000002
20
394.36725799999999
30
0
10
260.924937
20
394.36725799999999
30
0
0
SPLINE
5
552
100
AcDbEntity
8
0
100
AcDbSpline
70
1064
71
3
72
8
73
4
74
0
42
0.000000001
43
0.0000000001
44
0.0000000001
40
0
40
0
40
0
40
0
40
1
40
1
40
1
40
1
10
406.18227400000001
20
404.98553199999998
30
0
10
405.79611499999999
20
404.59938599999998
30
0
10
405.27239800000007
20
404.38245700000004
30
0
10
404.72629799999999
20
404.38245700000004
30
0
0
SPLINE
5
553
100
AcDbEntity
8
0
100
AcDbSpline
70
1064
71
3
72
8
73
4
74
0
42
0.000000001
43
0.0000000001
44
0.0000000001
40
0
40
0
40
0
40
0
40
1
40
1
40
1
40
1
10
406.78533900000002
20
488.94248600000003
30
0
10
406.78533900000002
20
488.3963940000001
30
0
10
406.56840699999998
20
487.87267200000002
30
0
10
406.18227400000001
20
487.48652600000003
30
0
0
SPLINE
5
554
100
AcDbEntity
8
0
100
AcDbSpline
70
1064
71
3
72
8
73
4
74
0
42
0.000000001
43
0.0000000001
44
0.0000000001
40
0
40
0
40
0
40
0
40
1
40
1
40
1
40
1
10
406.18227400000001
20
407.89744100000001
30
0
10
406.56840699999998
20
407.51130000000001
30
0
10
406.78533900000002
20
406.98757599999999
30
0
10
406.78533900000002
20
406.441484
30
0
0
SPLINE
5
555
100
AcDbEntity
8
0
100
AcDbSpline
70
1064
71
3
72
8
73
4
74
0
42
0.000000001
43
0.0000000001
44
0.0000000001
40
0
40
0
40
0
40
0
40
1
40
1
40
1
40
1
10
219.10996200000002
20
484.79501500000003
30
0
10
217.97272200000003
20
484.795097
30
0
10
217.05087399999999
20
485.71708000000001
30
0
10
217.05096100000003
20
486.85432000000003
30
0
0
SPLINE
5
556
100
AcDbEntity
8
0
100
AcDbSpline
70
1064
71
3
72
8
73
4
74
0
42
0.000000001
43
0.0000000001
44
0.0000000001
40
0
40
0
40
0
40
0
40
1
40
1
40
1
40
1
10
403.27034900000001
20
404.98553199999998
30
0
10
402.88421600000004
20
405.37167299999999
30
0
10
402.66728499999999
20
405.895397
30
0
10
402.66728499999999
20
406.441484
30
0
0
SPLINE
5
557
100
AcDbEntity
8
0
100
AcDbSpline
70
1064
71
3
72
8
73
4
74
0
42
0.000000001
43
0.0000000001
44
0.0000000001
40
0
40
0
40
0
40
0
40
1
40
1
40
1
40
1
10
488.30724699999996
20
349.31148400000006
30
0
10
488.30724699999996
20
349.85757599999999
30
0
10
488.52417900000006
20
350.38130000000001
30
0
10
488.91033899999996
20
350.76744100000008
30
0
0
SPLINE
5
558
100
AcDbEntity
8
0
100
AcDbSpline
70
1064
71
3
72
8
73
4
74
0
42
0.000000001
43
0.0000000001
44
0.0000000001
40
0
40
0
40
0
40
0
40
1
40
1
40
1
40
1
10
488.91033899999996
20
350.76744100000008
30
0
10
489.29647200000005
20
351.15358199999997
30
0
10
489.82021400000002
20
351.37051600000001
30
0
10
490.36628800000005
20
351.37051100000002
30
0
0
SPLINE
5
559
100
AcDbEntity
8
0
100
AcDbSpline
70
1064
71
3
72
8
73
4
74
0
42
0.000000001
43
0.0000000001
44
0.0000000001
40
0
40
0
40
0
40
0
40
1
40
1
40
1
40
1
10
432.98035900000002
20
350.76744100000008
30
0
10
433.36649200000005
20
351.15358199999997
30
0
10
433.89023500000008
20
351.37051600000001
30
0
10
434.436308
20
351.37051100000002
30
0
0
SPLINE
5
560
100
AcDbEntity
8
0
100
AcDbSpline
70
1064
71
3
72
8
73
4
74
0
42
0.000000001
43
0.0000000001
44
0.0000000001
40
0
40
0
40
0
40
0
40
1
40
1
40
1
40
1
10
250.70779999999999
20
398.94302299999998
30
0
10
250.96263300000004
20
398.68818700000008
30
0
10
251.10579900000005
20
398.34255100000001
30
0
10
251.10579900000005
20
397.98215700000003
30
0
0
SPLINE
5
561
100
AcDbEntity
8
0
100
AcDbSpline
70
1064
71
3
72
8
73
4
74
0
42
0.000000001
43
0.0000000001
44
0.0000000001
40
0
40
0
40
0
40
0
40
1
40
1
40
1
40
1
10
248.38806300000002
20
397.98215700000003
30
0
10
248.38806300000002
20
398.732642
30
0
10
248.99644800000002
20
399.34102799999999
30
0
10
249.74693100000002
20
399.34102799999999
30
0
0
SPLINE
5
562
100
AcDbEntity
8
0
100
AcDbSpline
70
1064
71
3
72
8
73
4
74
0
42
0.000000001
43
0.0000000001
44
0.0000000001
40
0
40
0
40
0
40
0
40
1
40
1
40
1
40
1
10
374.07609200000002
20
269.47550799999999
30
0
10
373.82124500000003
20
269.73034700000005
30
0
10
373.67807900000003
20
270.07598000000002
30
0
10
373.67807900000003
20
270.43637200000006
30
0
0
SPLINE
5
563
100
AcDbEntity
8
0
100
AcDbSpline
70
1064
71
3
72
8
73
4
74
0
42
0.000000001
43
0.0000000001
44
0.0000000001
40
0
40
0
40
0
40
0
40
1
40
1
40
1
40
1
10
87.128246999999988
20
490.39843499999995
30
0
10
87.51439000000002
20
490.01229400000005
30
0
10
87.731324999999998
20
489.48857300000009
30
0
10
87.731324999999998
20
488.94248600000003
30
0
0
SPLINE
5
564
100
AcDbEntity
8
0
100
AcDbSpline
70
1064
71
3
72
8
73
4
74
0
42
0.000000001
43
0.0000000001
44
0.0000000001
40
0
40
0
40
0
40
0
40
1
40
1
40
1
40
1
10
237.58502700000003
20
91.743287000000009
30
0
10
236.44789900000006
20
91.743287000000009
30
0
10
235.52607200000006
20
92.665107999999989
30
0
10
235.52606900000001
20
93.802237000000019
30
0
0
SPLINE
5
565
100
AcDbEntity
8
0
100
AcDbSpline
70
1064
71
3
72
8
73
4
74
0
42
0.000000001
43
0.0000000001
44
0.0000000001
40
0
40
0
40
0
40
0
40
1
40
1
40
1
40
1
10
375.99781400000006
20
269.47550799999999
30
0
10
375.74299300000001
20
269.22067000000004
30
0
10
375.39734199999998
20
269.07750400000003
30
0
10
375.03695299999998
20
269.07750400000003
30
0
0
SPLINE
5
566
100
AcDbEntity
8
0
100
AcDbSpline
70
1064
71
3
72
8
73
4
74
0
42
0.000000001
43
0.0000000001
44
0.0000000001
40
0
40
0
40
0
40
0
40
1
40
1
40
1
40
1
10
370.19780300000002
20
269.44928800000002
30
0
10
369.94298300000003
20
269.194455
30
0
10
369.597331
20
269.05128900000005
30
0
10
369.236942
20
269.05128900000005
30
0
0
SPLINE
5
567
100
AcDbEntity
8
0
100
AcDbSpline
70
1064
71
3
72
8
73
4
74
0
42
0.000000001
43
0.0000000001
44
0.0000000001
40
0
40
0
40
0
40
0
40
1
40
1
40
1
40
1
10
106.66229399999999
20
347.252454
30
0
10
106.11620400000001
20
347.252454
30
0
10
105.592483
20
347.46939100000009
30
0
10
105.206339
20
347.85553200000004
30
0
0
SPLINE
5
568
100
AcDbEntity
8
0
100
AcDbSpline
70
1064
71
3
72
8
73
4
74
0
42
0.000000001
43
0.0000000001
44
0.0000000001
40
0
40
0
40
0
40
0
40
1
40
1
40
1
40
1
10
84.216338000000007
20
487.48653100000001
30
0
10
83.830199000000007
20
487.87267500000007
30
0
10
83.613268000000005
20
488.39639900000009
30
0
10
83.613268000000005
20
488.94248600000003
30
0
0
SPLINE
5
569
100
AcDbEntity
8
0
100
AcDbSpline
70
1064
71
3
72
8
73
4
74
0
42
0.000000001
43
0.0000000001
44
0.0000000001
40
0
40
0
40
0
40
0
40
1
40
1
40
1
40
1
10
256.48380500000002
20
392.98216700000006
30
0
10
256.48380500000002
20
392.62177000000003
30
0
10
256.34063900000001
20
392.27613700000001
30
0
10
256.08580000000006
20
392.021298
30
0
0
SPLINE
5
570
100
AcDbEntity
8
0
100
AcDbSpline
70
1064
71
3
72
8
73
4
74
0
42
0.000000001
43
0.0000000001
44
0.0000000001
40
0
40
0
40
0
40
0
40
1
40
1
40
1
40
1
10
369.236942
20
271.76902699999999
30
0
10
369.98743300000001
20
271.76902699999999
30
0
10
370.59581600000001
20
271.16064100000006
30
0
10
370.59581600000001
20
270.41015699999997
30
0
0
SPLINE
5
571
100
AcDbEntity
8
0
100
AcDbSpline
70
1064
71
3
72
8
73
4
74
0
42
0.000000001
43
0.0000000001
44
0.0000000001
40
0
40
0
40
0
40
0
40
1
40
1
40
1
40
1
10
375.99781400000006
20
271.39724200000001
30
0
10
376.25266000000005
20
271.142403
30
0
10
376.39582600000006
20
270.79676899999998
30
0
10
376.39582600000006
20
270.43637200000006
30
0
0
SPLINE
5
572
100
AcDbEntity
8
0
100
AcDbSpline
70
1064
71
3
72
8
73
4
74
0
42
0.000000001
43
0.0000000001
44
0.0000000001
40
0
40
0
40
0
40
0
40
1
40
1
40
1
40
1
10
375.03695299999998
20
271.79524600000002
30
0
10
375.39734199999998
20
271.79524600000002
30
0
10
375.74299300000001
20
271.65208000000001
30
0
10
375.99781400000006
20
271.39724200000001
30
0
0
SPLINE
5
573
100
AcDbEntity
8
0
100
AcDbSpline
70
1064
71
3
72
8
73
4
74
0
42
0.000000001
43
0.0000000001
44
0.0000000001
40
0
40
0
40
0
40
0
40
1
40
1
40
1
40
1
10
240.18607200000005
20
397.02128799999997
30
0
10
239.93123300000005
20
397.27612999999997
30
0
10
239.78806700000001
20
397.62176000000005
30
0
10
239.78806700000001
20
397.98215700000003
30
0
0
SPLINE
5
574
100
AcDbEntity
8
0
100
AcDbSpline
70
1064
71
3
72
8
73
4
74
0
42
0.000000001
43
0.0000000001
44
0.0000000001
40
0
40
0
40
0
40
0
40
1
40
1
40
1
40
1
10
373.67807900000003
20
270.43637200000006
30
0
10
373.67807900000003
20
270.79676899999998
30
0
10
373.82124500000003
20
271.142403
30
0
10
374.07609200000002
20
271.39724200000001
30
0
0
SPLINE
5
575
100
AcDbEntity
8
0
100
AcDbSpline
70
1064
71
3
72
8
73
4
74
0
42
0.000000001
43
0.0000000001
44
0.0000000001
40
0
40
0
40
0
40
0
40
1
40
1
40
1
40
1
10
315.42500500000006
20
370.20214500000003
30
0
10
315.42500500000006
20
369.84175100000004
30
0
10
315.28183899999999
20
369.49611499999997
30
0
10
315.027019
20
369.24127599999997
30
0
0
SPLINE
5
576
100
AcDbEntity
8
0
100
AcDbSpline
70
1064
71
3
72
8
73
4
74
0
42
0.000000001
43
0.0000000001
44
0.0000000001
40
0
40
0
40
0
40
0
40
1
40
1
40
1
40
1
10
314.06613100000004
20
368.84327400000006
30
0
10
313.70574199999999
20
368.84326900000008
30
0
10
313.360117
20
368.98644000000002
30
0
10
313.10527100000002
20
369.24127599999997
30
0
0
SPLINE
5
577
100
AcDbEntity
8
0
100
AcDbSpline
70
1064
71
3
72
8
73
4
74
0
42
0.000000001
43
0.0000000001
44
0.0000000001
40
0
40
0
40
0
40
0
40
1
40
1
40
1
40
1
10
375.03695299999998
20
269.07750400000003
30
0
10
374.67656400000004
20
269.07750400000003
30
0
10
374.33091200000001
20
269.22067000000004
30
0
10
374.07609200000002
20
269.47550799999999
30
0
0
SPLINE
5
578
100
AcDbEntity
8
0
100
AcDbSpline
70
1064
71
3
72
8
73
4
74
0
42
0.000000001
43
0.0000000001
44
0.0000000001
40
0
40
0
40
0
40
0
40
1
40
1
40
1
40
1
10
241.14694100000006
20
396.62328600000001
30
0
10
240.78654400000002
20
396.62328600000001
30
0
10
240.44091100000003
20
396.76645200000002
30
0
10
240.18607200000005
20
397.02128799999997
30
0
0
SPLINE
5
579
100
AcDbEntity
8
0
100
AcDbSpline
70
1064
71
3
72
8
73
4
74
0
42
0.000000001
43
0.0000000001
44
0.0000000001
40
0
40
0
40
0
40
0
40
1
40
1
40
1
40
1
10
254.16406499999999
20
392.021298
30
0
10
253.90922599999999
20
392.27613700000001
30
0
10
253.76606000000004
20
392.62177000000003
30
0
10
253.76606000000004
20
392.98216700000006
30
0
0
SPLINE
5
580
100
AcDbEntity
8
0
100
AcDbSpline
70
1064
71
3
72
8
73
4
74
0
42
0.000000001
43
0.0000000001
44
0.0000000001
40
0
40
0
40
0
40
0
40
1
40
1
40
1
40
1
10
370.59581600000001
20
270.41015699999997
30
0
10
370.59581600000001
20
270.04976499999998
30
0
10
370.45265000000001
20
269.70412700000003
30
0
10
370.19780300000002
20
269.44928800000002
30
0
0
SPLINE
5
581
100
AcDbEntity
8
0
100
AcDbSpline
70
1064
71
3
72
8
73
4
74
0
42
0.000000001
43
0.0000000001
44
0.0000000001
40
0
40
0
40
0
40
0
40
1
40
1
40
1
40
1
10
87.128246999999988
20
487.48653100000001
30
0
10
86.742106000000021
20
487.10038800000007
30
0
10
86.218384
20
486.88345599999997
30
0
10
85.672294999999991
20
486.88345599999997
30
0
0
SPLINE
5
582
100
AcDbEntity
8
0
100
AcDbSpline
70
1064
71
3
72
8
73
4
74
0
42
0.000000001
43
0.0000000001
44
0.0000000001
40
0
40
0
40
0
40
0
40
1
40
1
40
1
40
1
10
241.14694100000006
20
399.34102799999999
30
0
10
241.50733500000001
20
399.34102799999999
30
0
10
241.85296800000003
20
399.19786199999999
30
0
10
242.10780700000001
20
398.94302299999998
30
0
0
SPLINE
5
583
100
AcDbEntity
8
0
100
AcDbSpline
70
1064
71
3
72
8
73
4
74
0
42
0.000000001
43
0.0000000001
44
0.0000000001
40
0
40
0
40
0
40
0
40
1
40
1
40
1
40
1
10
374.07609200000002
20
271.39724200000001
30
0
10
374.33091200000001
20
271.65208000000001
30
0
10
374.67656400000004
20
271.79524600000002
30
0
10
375.03695299999998
20
271.79524600000002
30
0
0
SPLINE
5
584
100
AcDbEntity
8
0
100
AcDbSpline
70
1064
71
3
72
8
73
4
74
0
42
0.000000001
43
0.0000000001
44
0.0000000001
40
0
40
0
40
0
40
0
40
1
40
1
40
1
40
1
10
237.58502700000003
20
95.861189999999993
30
0
10
238.72215600000004
20
95.861189999999993
30
0
10
239.64398300000002
20
94.939366000000007
30
0
10
239.64398900000003
20
93.802237000000019
30
0
0
SPLINE
5
585
100
AcDbEntity
8
0
100
AcDbSpline
70
1064
71
3
72
8
73
4
74
0
42
0.000000001
43
0.0000000001
44
0.0000000001
40
0
40
0
40
0
40
0
40
1
40
1
40
1
40
1
10
315.027019
20
369.24127599999997
30
0
10
314.77217200000001
20
368.98644000000002
30
0
10
314.42654700000003
20
368.84326900000008
30
0
10
314.06613100000004
20
368.84327400000006
30
0
0
SPLINE
5
586
100
AcDbEntity
8
0
100
AcDbSpline
70
1064
71
3
72
8
73
4
74
0
42
0.000000001
43
0.0000000001
44
0.0000000001
40
0
40
0
40
0
40
0
40
1
40
1
40
1
40
1
10
249.74693100000002
20
396.62328600000001
30
0
10
248.99644800000002
20
396.62328600000001
30
0
10
248.38806300000002
20
397.23167699999999
30
0
10
248.38806300000002
20
397.98215700000003
30
0
0
SPLINE
5
587
100
AcDbEntity
8
0
100
AcDbSpline
70
1064
71
3
72
8
73
4
74
0
42
0.000000001
43
0.0000000001
44
0.0000000001
40
0
40
0
40
0
40
0
40
1
40
1
40
1
40
1
10
249.74693100000002
20
399.34102799999999
30
0
10
250.10732500000003
20
399.34102799999999
30
0
10
250.45296100000002
20
399.19786199999999
30
0
10
250.70779999999999
20
398.94302299999998
30
0
0
SPLINE
5
588
100
AcDbEntity
8
0
100
AcDbSpline
70
1064
71
3
72
8
73
4
74
0
42
0.000000001
43
0.0000000001
44
0.0000000001
40
0
40
0
40
0
40
0
40
1
40
1
40
1
40
1
10
240.18607200000005
20
398.94302299999998
30
0
10
240.44091100000003
20
399.19786199999999
30
0
10
240.78654400000002
20
399.34102799999999
30
0
10
241.14694100000006
20
399.34102799999999
30
0
0
SPLINE
5
589
100
AcDbEntity
8
0
100
AcDbSpline
70
1064
71
3
72
8
73
4
74
0
42
0.000000001
43
0.0000000001
44
0.0000000001
40
0
40
0
40
0
40
0
40
1
40
1
40
1
40
1
10
239.78806700000001
20
397.98215700000003
30
0
10
239.78806700000001
20
398.34255100000001
30
0
10
239.93123300000005
20
398.68818700000008
30
0
10
240.18607200000005
20
398.94302299999998
30
0
0
SPLINE
5
590
100
AcDbEntity
8
0
100
AcDbSpline
70
1064
71
3
72
8
73
4
74
0
42
0.000000001
43
0.0000000001
44
0.0000000001
40
0
40
0
40
0
40
0
40
1
40
1
40
1
40
1
10
259.56606599999998
20
393.00838199999998
30
0
10
259.56606599999998
20
393.36877600000003
30
0
10
259.70923200000004
20
393.71441200000004
30
0
10
259.96407099999999
20
393.96925299999998
30
0
0
SPLINE
5
591
100
AcDbEntity
8
0
100
AcDbSpline
70
1064
71
3
72
8
73
4
74
0
42
0.000000001
43
0.0000000001
44
0.0000000001
40
0
40
0
40
0
40
0
40
1
40
1
40
1
40
1
10
242.10780700000001
20
397.02128799999997
30
0
10
241.85296800000003
20
396.76645200000002
30
0
10
241.50733500000001
20
396.62328600000001
30
0
10
241.14694100000006
20
396.62328600000001
30
0
0
SPLINE
5
592
100
AcDbEntity
8
0
100
AcDbSpline
70
1064
71
3
72
8
73
4
74
0
42
0.000000001
43
0.0000000001
44
0.0000000001
40
0
40
0
40
0
40
0
40
1
40
1
40
1
40
1
10
376.39582600000006
20
270.43637200000006
30
0
10
376.39582600000006
20
270.07598000000002
30
0
10
376.25266000000005
20
269.73034700000005
30
0
10
375.99781400000006
20
269.47550799999999
30
0
0
SPLINE
5
593
100
AcDbEntity
8
0
100
AcDbSpline
70
1064
71
3
72
8
73
4
74
0
42
0.000000001
43
0.0000000001
44
0.0000000001
40
0
40
0
40
0
40
0
40
1
40
1
40
1
40
1
10
105.206339
20
347.85553200000004
30
0
10
104.820199
20
348.24167299999999
30
0
10
104.603264
20
348.76539700000001
30
0
10
104.603264
20
349.31148400000006
30
0
0
SPLINE
5
594
100
AcDbEntity
8
0
100
AcDbSpline
70
1064
71
3
72
8
73
4
74
0
42
0.000000001
43
0.0000000001
44
0.0000000001
40
0
40
0
40
0
40
0
40
1
40
1
40
1
40
1
10
108.118246
20
347.85553200000004
30
0
10
107.73210500000002
20
347.46939100000009
30
0
10
107.208381
20
347.252454
30
0
10
106.66229399999999
20
347.252454
30
0
0
SPLINE
5
595
100
AcDbEntity
8
0
100
AcDbSpline
70
1064
71
3
72
8
73
4
74
0
42
0.000000001
43
0.0000000001
44
0.0000000001
40
0
40
0
40
0
40
0
40
1
40
1
40
1
40
1
10
256.08580000000006
20
392.021298
30
0
10
255.830961
20
391.76646199999999
30
0
10
255.48532800000001
20
391.62329599999998
30
0
10
255.124931
20
391.62329599999998
30
0
0
SPLINE
5
596
100
AcDbEntity
8
0
100
AcDbSpline
70
1064
71
3
72
8
73
4
74
0
42
0.000000001
43
0.0000000001
44
0.0000000001
40
0
40
0
40
0
40
0
40
1
40
1
40
1
40
1
10
250.70779999999999
20
397.02128799999997
30
0
10
250.45296100000002
20
396.76645200000002
30
0
10
250.10732500000003
20
396.62328600000001
30
0
10
249.74693100000002
20
396.62328600000001
30
0
0
SPLINE
5
597
100
AcDbEntity
8
0
100
AcDbSpline
70
1064
71
3
72
8
73
4
74
0
42
0.000000001
43
0.0000000001
44
0.0000000001
40
0
40
0
40
0
40
0
40
1
40
1
40
1
40
1
10
312.70728399999996
20
370.20214500000003
30
0
10
312.70728399999996
20
370.56253700000008
30
0
10
312.85045000000002
20
370.90817500000009
30
0
10
313.10527100000002
20
371.16301400000003
30
0
0
SPLINE
5
598
100
AcDbEntity
8
0
100
AcDbSpline
70
1064
71
3
72
8
73
4
74
0
42
0.000000001
43
0.0000000001
44
0.0000000001
40
0
40
0
40
0
40
0
40
1
40
1
40
1
40
1
10
221.16896200000002
20
486.85432000000003
30
0
10
221.16905000000003
20
485.71708000000001
30
0
10
220.24720200000004
20
484.795097
30
0
10
219.10996200000002
20
484.79501500000003
30
0
0
SPLINE
5
599
100
AcDbEntity
8
0
100
AcDbSpline
70
1064
71
3
72
8
73
4
74
0
42
0.000000001
43
0.0000000001
44
0.0000000001
40
0
40
0
40
0
40
0
40
1
40
1
40
1
40
1
10
242.50581200000002
20
397.98215700000003
30
0
10
242.50581200000002
20
397.62176000000005
30
0
10
242.36264599999998
20
397.27612999999997
30
0
10
242.10780700000001
20
397.02128799999997
30
0
0
SPLINE
5
600
100
AcDbEntity
8
0
100
AcDbSpline
70
1064
71
3
72
8
73
4
74
0
42
0.000000001
43
0.0000000001
44
0.0000000001
40
0
40
0
40
0
40
0
40
1
40
1
40
1
40
1
10
255.124931
20
394.34103500000003
30
0
10
255.87541099999999
20
394.34103500000003
30
0
10
256.48380200000003
20
393.73265200000003
30
0
10
256.48380500000002
20
392.98216700000006
30
0
0
SPLINE
5
601
100
AcDbEntity
8
0
100
AcDbSpline
70
1064
71
3
72
8
73
4
74
0
42
0.000000001
43
0.0000000001
44
0.0000000001
40
0
40
0
40
0
40
0
40
1
40
1
40
1
40
1
10
255.124931
20
391.62329599999998
30
0
10
254.76453700000005
20
391.62329599999998
30
0
10
254.41890099999998
20
391.76646199999999
30
0
10
254.16406499999999
20
392.021298
30
0
0
SPLINE
5
602
100
AcDbEntity
8
0
100
AcDbSpline
70
1064
71
3
72
8
73
4
74
0
42
0.000000001
43
0.0000000001
44
0.0000000001
40
0
40
0
40
0
40
0
40
1
40
1
40
1
40
1
10
251.10579900000005
20
397.98215700000003
30
0
10
251.10579900000005
20
397.62176000000005
30
0
10
250.96263300000004
20
397.27612999999997
30
0
10
250.70779999999999
20
397.02128799999997
30
0
0
ENDSEC
0
SECTION
2
OBJECTS
0
DICTIONARY
5
C
100
AcDbDictionary
3
ACAD_GROUP
350
D
3
ACAD_MLINESTYLE
350
17
0
DICTIONARY
5
D
100
AcDbDictionary
0
DICTIONARY
5
1A
330
C
100
AcDbDictionary
0
DICTIONARY
5
17
100
AcDbDictionary
0
ENDSEC
0
EOF
