  0
SECTION
  2
HEADER
  9
$ACADVER
  1
AC1014
  9
$HANDSEED
  5
FFFF
  9
$MEASUREMENT
 70
     1
  0
ENDSEC
  0
SECTION
  2
TABLES
  0
TABLE
  2
VPORT
  5
8
330
0
100
AcDbSymbolTable
 70
     4
  0
VPORT
  5
2E
330
8
100
AcDbSymbolTableRecord
100
AcDbViewportTableRecord
  2
*ACTIVE
 70
     0
 10
0.0
 20
0.0
 11
1.0
 21
1.0
 12
210.0
 22
148.5
 13
0.0
 23
0.0
 14
10.0
 24
10.0
 15
10.0
 25
10.0
 16
0.0
 26
0.0
 36
1.0
 17
0.0
 27
0.0
 37
0.0
 40
341.0
 41
1.24
 42
50.0
 43
0.0
 44
0.0
 50
0.0
 51
0.0
 71
     0
 72
   100
 73
     1
 74
     3
 75
     0
 76
     0
 77
     0
 78
     0
  0
ENDTAB
  0
TABLE
  2
LTYPE
  5
5
330
0
100
AcDbSymbolTable
 70
     1
  0
LTYPE
  5
14
330
5
100
AcDbSymbolTableRecord
100
AcDbLinetypeTableRecord
  2
BYBLOCK
 70
     0
  3

 72
    65
 73
     0
 40
0.0
  0
LTYPE
  5
15
330
5
100
AcDbSymbolTableRecord
100
AcDbLinetypeTableRecord
  2
BYLAYER
 70
     0
  3

 72
    65
 73
     0
 40
0.0
  0
LTYPE
  5
16
330
5
100
AcDbSymbolTableRecord
100
AcDbLinetypeTableRecord
  2
CONTINUOUS
 70
     0
  3
Solid line
 72
    65
 73
     0
 40
0.0
  0
ENDTAB
  0
TABLE
  2
LAYER
  5
2
100
AcDbSymbolTable
 70
2
  0
LAYER
  5
50
100
AcDbSymbolTableRecord
100
AcDbLayerTableRecord
  2
0
 70
0
  6
CONTINUOUS
  0
LAYER
  5
51
100
AcDbSymbolTableRecord
100
AcDbLayerTableRecord
  2
cleaned
 70
0
  6
CONTINUOUS
  0
ENDTAB
  0
TABLE
  2
STYLE
  5
3
330
0
100
AcDbSymbolTable
 70
     1
  0
STYLE
  5
11
330
3
100
AcDbSymbolTableRecord
100
AcDbTextStyleTableRecord
  2
STANDARD
 70
     0
 40
0.0
 41
1.0
 50
0.0
 71
     0
 42
2.5
  3
txt
  4

  0
ENDTAB
  0
TABLE
  2
VIEW
  5
6
330
0
100
AcDbSymbolTable
 70
     0
  0
ENDTAB
  0
TABLE
  2
UCS
  5
7
330
0
100
AcDbSymbolTable
 70
     0
  0
ENDTAB
  0
TABLE
  2
APPID
  5
9
330
0
100
AcDbSymbolTable
 70
     2
  0
APPID
  5
12
330
9
100
AcDbSymbolTableRecord
100
AcDbRegAppTableRecord
  2
ACAD
 70
     0
  0
ENDTAB
  0
TABLE
  2
DIMSTYLE
  5
A
330
0
100
AcDbSymbolTable
 70
     1
  0
DIMSTYLE
105
27
330
A
100
AcDbSymbolTableRecord
100
AcDbDimStyleTableRecord
  2
ISO-25
 70
     0
  3

  4

  5

  6

  7

 40
1.0
 41
2.5
 42
0.625
 43
3.75
 44
1.25
 45
0.0
 46
0.0
 47
0.0
 48
0.0
140
2.5
141
2.5
142
0.0
143
0.03937007874016
144
1.0
145
0.0
146
1.0
147
0.625
 71
     0
 72
     0
 73
     0
 74
     0
 75
     0
 76
     0
 77
     1
 78
     8
170
     0
171
     3
172
     1
173
     0
174
     0
175
     0
176
     0
177
     0
178
     0
270
     2
271
     2
272
     2
273
     2
274
     3
340
11
275
     0
280
     0
281
     0
282
     0
283
     0
284
     8
285
     0
286
     0
287
     3
288
     0
  0
ENDTAB
  0
TABLE
  2
BLOCK_RECORD
  5
1
330
0
100
AcDbSymbolTable
 70
     1
  0
BLOCK_RECORD
  5
1F
330
1
100
AcDbSymbolTableRecord
100
AcDbBlockTableRecord
  2
*MODEL_SPACE
  0
BLOCK_RECORD
  5
1B
330
1
100
AcDbSymbolTableRecord
100
AcDbBlockTableRecord
  2
*PAPER_SPACE
  0
ENDTAB
  0
ENDSEC
  0
SECTION
  2
BLOCKS
  0
BLOCK
  5
20
330
1F
100
AcDbEntity
  8
0
100
AcDbBlockBegin
  2
*MODEL_SPACE
 70
     0
 10
0.0
 20
0.0
 30
0.0
  3
*MODEL_SPACE
  1

  0
ENDBLK
  5
21
330
1F
100
AcDbEntity
  8
0
100
AcDbBlockEnd
  0
BLOCK
  5
1C
330
1B
100
AcDbEntity
 67
     1
  8
0
100
AcDbBlockBegin
  2
*PAPER_SPACE
  1

  0
ENDBLK
  5
1D
330
1B
100
AcDbEntity
 67
     1
  8
0
100
AcDbBlockEnd
  0
ENDSEC
  0
SECTION
  2
ENTITIES
  0
LWPOLYLINE
  5
100
100
AcDbEntity
  8
cleaned
 62
3
100
AcDbPolyline
 90
2
 70
0
 10
217.079000
 20
486.713035
 30
0.0
 10
217.079000
 20
496.713034
 30
0.0
  0
SPLINE
  5
101
100
AcDbEntity
  8
cleaned
 62
3
100
AcDbSpline
 70
8
 71
3
 72
8
 73
4
 74
0
 40
0
 40
0
 40
0
 40
0
 40
1
 40
1
 40
1
 40
1
 10
221.196716
 20
486.713001
 30
0.0
 10
221.196718
 20
485.575761
 30
0.0
 10
220.274803
 20
484.653845
 30
0.0
 10
219.137563
 20
484.653845
 30
0.0
  0
SPLINE
  5
102
100
AcDbEntity
  8
cleaned
 62
3
100
AcDbSpline
 70
8
 71
3
 72
8
 73
4
 74
0
 40
0
 40
0
 40
0
 40
0
 40
1
 40
1
 40
1
 40
1
 10
219.137563
 20
484.653845
 30
0.0
 10
218.000323
 20
484.653845
 30
0.0
 10
217.078407
 20
485.575761
 30
0.0
 10
217.078410
 20
486.713001
 30
0.0
  0
SPLINE
  5
103
100
AcDbEntity
  8
cleaned
 62
3
100
AcDbSpline
 70
8
 71
3
 72
8
 73
4
 74
0
 40
0
 40
0
 40
0
 40
0
 40
1
 40
1
 40
1
 40
1
 10
217.078839
 20
496.703941
 30
0.0
 10
217.078839
 20
497.841181
 30
0.0
 10
218.000755
 20
498.763094
 30
0.0
 10
219.137995
 20
498.763094
 30
0.0
  0
SPLINE
  5
104
100
AcDbEntity
  8
cleaned
 62
3
100
AcDbSpline
 70
8
 71
3
 72
8
 73
4
 74
0
 40
0
 40
0
 40
0
 40
0
 40
1
 40
1
 40
1
 40
1
 10
219.137995
 20
498.763094
 30
0.0
 10
220.275235
 20
498.763094
 30
0.0
 10
221.197147
 20
497.841181
 30
0.0
 10
221.197147
 20
496.703941
 30
0.0
  0
LWPOLYLINE
  5
105
100
AcDbEntity
  8
cleaned
 62
3
100
AcDbPolyline
 90
2
 70
0
 10
221.197001
 20
486.713035
 30
0.0
 10
221.197001
 20
496.713034
 30
0.0
  0
LWPOLYLINE
  5
106
100
AcDbEntity
  8
cleaned
 62
7
100
AcDbPolyline
 90
19
 70
0
 10
25.163169
 20
533.153178
 30
0.0
 10
22.984168
 20
533.058180
 30
0.0
 10
20.822168
 20
532.773177
 30
0.0
 10
18.693168
 20
532.301175
 30
0.0
 10
16.612169
 20
531.645178
 30
0.0
 10
14.598169
 20
530.811177
 30
0.0
 10
12.663169
 20
529.804177
 30
0.0
 10
10.824169
 20
528.632176
 30
0.0
 10
9.093167
 20
527.304179
 30
0.0
 10
7.485167
 20
525.831177
 30
0.0
 10
6.012167
 20
524.223179
 30
0.0
 10
4.684168
 20
522.492177
 30
0.0
 10
3.512167
 20
520.653175
 30
0.0
 10
2.505167
 20
518.718175
 30
0.0
 10
1.671169
 20
516.704175
 30
0.0
 10
1.015169
 20
514.623178
 30
0.0
 10
0.543169
 20
512.494176
 30
0.0
 10
0.258167
 20
510.332179
 30
0.0
 10
0.163168
 20
508.153178
 30
0.0
  0
LWPOLYLINE
  5
107
100
AcDbEntity
  8
cleaned
 62
7
100
AcDbPolyline
 90
2
 70
0
 10
0.161317
 20
24.846039
 30
0.0
 10
0.161317
 20
507.838040
 30
0.0
  0
LWPOLYLINE
  5
108
100
AcDbEntity
  8
cleaned
 62
7
100
AcDbPolyline
 90
2
 70
0
 10
509.626184
 20
533.157609
 30
0.0
 10
25.167191
 20
533.157609
 30
0.0
  0
LWPOLYLINE
  5
109
100
AcDbEntity
  8
cleaned
 62
7
100
AcDbPolyline
 90
2
 70
0
 10
534.664967
 20
24.846039
 30
0.0
 10
534.664967
 20
507.838040
 30
0.0
  0
LWPOLYLINE
  5
10a
100
AcDbEntity
  8
cleaned
 62
7
100
AcDbPolyline
 90
18
 70
0
 10
534.663415
 20
508.153178
 30
0.0
 10
534.568419
 20
510.332179
 30
0.0
 10
534.283431
 20
512.494176
 30
0.0
 10
533.811414
 20
514.623178
 30
0.0
 10
533.155417
 20
516.704175
 30
0.0
 10
532.321422
 20
518.718175
 30
0.0
 10
531.314425
 20
520.653175
 30
0.0
 10
530.142441
 20
522.492177
 30
0.0
 10
528.814416
 20
524.223179
 30
0.0
 10
527.341442
 20
525.831177
 30
0.0
 10
525.733424
 20
527.304179
 30
0.0
 10
524.002414
 20
528.632176
 30
0.0
 10
522.163426
 20
529.804177
 30
0.0
 10
520.228426
 20
530.811177
 30
0.0
 10
518.214432
 20
531.645178
 30
0.0
 10
516.133438
 20
532.301175
 30
0.0
 10
514.004438
 20
532.773177
 30
0.0
 10
511.842418
 20
533.058180
 30
0.0
  0
LWPOLYLINE
  5
10b
100
AcDbEntity
  8
cleaned
 62
7
100
AcDbPolyline
 90
2
 70
0
 10
509.672186
 20
0.152469
 30
0.0
 10
25.166191
 20
0.152469
 30
0.0
  0
LWPOLYLINE
  5
10c
100
AcDbEntity
  8
cleaned
 62
7
100
AcDbPolyline
 90
2
 70
0
 10
511.833359
 20
533.062805
 30
0.0
 10
509.654378
 20
533.157804
 30
0.0
  0
LWPOLYLINE
  5
10d
100
AcDbEntity
  8
cleaned
 62
7
100
AcDbPolyline
 90
19
 70
0
 10
0.163168
 20
25.153125
 30
0.0
 10
0.258167
 20
22.974143
 30
0.0
 10
0.543169
 20
20.812124
 30
0.0
 10
1.015169
 20
18.683124
 30
0.0
 10
1.671169
 20
16.602130
 30
0.0
 10
2.505167
 20
14.588136
 30
0.0
 10
3.512167
 20
12.653136
 30
0.0
 10
4.684168
 20
10.814147
 30
0.0
 10
6.012167
 20
9.083137
 30
0.0
 10
7.485167
 20
7.475148
 30
0.0
 10
9.093167
 20
6.002146
 30
0.0
 10
10.824169
 20
4.674149
 30
0.0
 10
12.663169
 20
3.502136
 30
0.0
 10
14.598169
 20
2.495139
 30
0.0
 10
16.612169
 20
1.661144
 30
0.0
 10
18.693168
 20
1.005147
 30
0.0
 10
20.822168
 20
0.533159
 30
0.0
 10
22.984168
 20
0.248142
 30
0.0
 10
25.163169
 20
0.153146
 30
0.0
  0
LWPOLYLINE
  5
10e
100
AcDbEntity
  8
cleaned
 62
7
100
AcDbPolyline
 90
19
 70
0
 10
534.676905
 20
25.147057
 30
0.0
 10
534.581909
 20
22.968076
 30
0.0
 10
534.296893
 20
20.806056
 30
0.0
 10
533.824905
 20
18.677056
 30
0.0
 10
533.168907
 20
16.596062
 30
0.0
 10
532.334912
 20
14.582040
 30
0.0
 10
531.327887
 20
12.647040
 30
0.0
 10
530.155903
 20
10.808051
 30
0.0
 10
528.827906
 20
9.077041
 30
0.0
 10
527.354904
 20
7.469052
 30
0.0
 10
525.746914
 20
5.996050
 30
0.0
 10
524.015904
 20
4.668053
 30
0.0
 10
522.176888
 20
3.496069
 30
0.0
 10
520.241888
 20
2.489072
 30
0.0
 10
518.227894
 20
1.655077
 30
0.0
 10
516.146900
 20
0.999079
 30
0.0
 10
514.017900
 20
0.527063
 30
0.0
 10
511.855908
 20
0.242075
 30
0.0
 10
509.676899
 20
0.147079
 30
0.0
  0
LWPOLYLINE
  5
10f
100
AcDbEntity
  8
cleaned
 62
1
100
AcDbPolyline
 90
2
 70
0
 10
-0.018697
 20
342.102664
 30
0.0
 10
100.746320
 20
342.102664
 30
0.0
  0
LWPOLYLINE
  5
110
100
AcDbEntity
  8
cleaned
 62
1
100
AcDbPolyline
 90
2
 70
0
 10
420.622673
 20
342.111108
 30
0.0
 10
534.622671
 20
342.111108
 30
0.0
  0
LWPOLYLINE
  5
111
100
AcDbEntity
  8
cleaned
 62
1
100
AcDbPolyline
 90
2
 70
0
 10
53.651364
 20
533.015663
 30
0.0
 10
53.651364
 20
342.015664
 30
0.0
  0
LWPOLYLINE
  5
112
100
AcDbEntity
  8
cleaned
 62
1
100
AcDbPolyline
 90
2
 70
0
 10
437.121667
 20
434.142291
 30
0.0
 10
437.121667
 20
441.256887
 30
0.0
  0
LWPOLYLINE
  5
113
100
AcDbEntity
  8
cleaned
 62
1
100
AcDbPolyline
 90
2
 70
0
 10
437.121667
 20
448.256901
 30
0.0
 10
437.121667
 20
533.256915
 30
0.0
  0
LWPOLYLINE
  5
114
100
AcDbEntity
  8
cleaned
 62
1
100
AcDbPolyline
 90
2
 70
0
 10
437.101319
 20
381.659786
 30
0.0
 10
437.101319
 20
430.314787
 30
0.0
  0
LWPOLYLINE
  5
115
100
AcDbEntity
  8
cleaned
 62
1
100
AcDbPolyline
 90
2
 70
0
 10
437.121667
 20
342.256888
 30
0.0
 10
437.121667
 20
356.656881
 30
0.0
  0
ENDSEC
  0
SECTION
  2
OBJECTS
  0
DICTIONARY
  5
C
330
0
100
AcDbDictionary
  3
ACAD_GROUP
350
D
  3
ACAD_MLINESTYLE
350
17
  0
DICTIONARY
  5
D
330
C
100
AcDbDictionary
  0
DICTIONARY
  5
1A
330
C
100
AcDbDictionary
  0
DICTIONARY
  5
17
330
C
100
AcDbDictionary
  3
STANDARD
350
18
  0
DICTIONARY
  5
19
330
C
100
AcDbDictionary
  0
ENDSEC
  0
EOF
