  0
SECTION
  2
HEADER
  9
$ACADVER
  1
AC1014
  9
$HANDSEED
  5
FFFF
  9
$MEASUREMENT
 70
     1
  0
ENDSEC
  0
SECTION
  2
TABLES
  0
TABLE
  2
VPORT
  5
8
330
0
100
AcDbSymbolTable
 70
     4
  0
VPORT
  5
2E
330
8
100
AcDbSymbolTableRecord
100
AcDbViewportTableRecord
  2
*ACTIVE
 70
     0
 10
0.0
 20
0.0
 11
1.0
 21
1.0
 12
210.0
 22
148.5
 13
0.0
 23
0.0
 14
10.0
 24
10.0
 15
10.0
 25
10.0
 16
0.0
 26
0.0
 36
1.0
 17
0.0
 27
0.0
 37
0.0
 40
341.0
 41
1.24
 42
50.0
 43
0.0
 44
0.0
 50
0.0
 51
0.0
 71
     0
 72
   100
 73
     1
 74
     3
 75
     0
 76
     0
 77
     0
 78
     0
  0
ENDTAB
  0
TABLE
  2
LTYPE
  5
5
330
0
100
AcDbSymbolTable
 70
     1
  0
LTYPE
  5
14
330
5
100
AcDbSymbolTableRecord
100
AcDbLinetypeTableRecord
  2
BYBLOCK
 70
     0
  3

 72
    65
 73
     0
 40
0.0
  0
LTYPE
  5
15
330
5
100
AcDbSymbolTableRecord
100
AcDbLinetypeTableRecord
  2
BYLAYER
 70
     0
  3

 72
    65
 73
     0
 40
0.0
  0
LTYPE
  5
16
330
5
100
AcDbSymbolTableRecord
100
AcDbLinetypeTableRecord
  2
CONTINUOUS
 70
     0
  3
Solid line
 72
    65
 73
     0
 40
0.0
  0
ENDTAB
  0
TABLE
  2
LAYER
  5
2
100
AcDbSymbolTable
 70
3
  0
LAYER
  5
50
100
AcDbSymbolTableRecord
100
AcDbLayerTableRecord
  2
0
 70
0
  6
CONTINUOUS
  0
LAYER
  5
51
100
AcDbSymbolTableRecord
100
AcDbLayerTableRecord
  2
tvrrug
 70
0
  6
CONTINUOUS
  0
LAYER
  5
52
100
AcDbSymbolTableRecord
100
AcDbLayerTableRecord
  2
cleaned
 70
0
  6
CONTINUOUS
  0
ENDTAB
  0
TABLE
  2
STYLE
  5
3
330
0
100
AcDbSymbolTable
 70
     1
  0
STYLE
  5
11
330
3
100
AcDbSymbolTableRecord
100
AcDbTextStyleTableRecord
  2
STANDARD
 70
     0
 40
0.0
 41
1.0
 50
0.0
 71
     0
 42
2.5
  3
txt
  4

  0
ENDTAB
  0
TABLE
  2
VIEW
  5
6
330
0
100
AcDbSymbolTable
 70
     0
  0
ENDTAB
  0
TABLE
  2
UCS
  5
7
330
0
100
AcDbSymbolTable
 70
     0
  0
ENDTAB
  0
TABLE
  2
APPID
  5
9
330
0
100
AcDbSymbolTable
 70
     2
  0
APPID
  5
12
330
9
100
AcDbSymbolTableRecord
100
AcDbRegAppTableRecord
  2
ACAD
 70
     0
  0
ENDTAB
  0
TABLE
  2
DIMSTYLE
  5
A
330
0
100
AcDbSymbolTable
 70
     1
  0
DIMSTYLE
105
27
330
A
100
AcDbSymbolTableRecord
100
AcDbDimStyleTableRecord
  2
ISO-25
 70
     0
  3

  4

  5

  6

  7

 40
1.0
 41
2.5
 42
0.625
 43
3.75
 44
1.25
 45
0.0
 46
0.0
 47
0.0
 48
0.0
140
2.5
141
2.5
142
0.0
143
0.03937007874016
144
1.0
145
0.0
146
1.0
147
0.625
 71
     0
 72
     0
 73
     0
 74
     0
 75
     0
 76
     0
 77
     1
 78
     8
170
     0
171
     3
172
     1
173
     0
174
     0
175
     0
176
     0
177
     0
178
     0
270
     2
271
     2
272
     2
273
     2
274
     3
340
11
275
     0
280
     0
281
     0
282
     0
283
     0
284
     8
285
     0
286
     0
287
     3
288
     0
  0
ENDTAB
  0
TABLE
  2
BLOCK_RECORD
  5
1
330
0
100
AcDbSymbolTable
 70
     1
  0
BLOCK_RECORD
  5
1F
330
1
100
AcDbSymbolTableRecord
100
AcDbBlockTableRecord
  2
*MODEL_SPACE
  0
BLOCK_RECORD
  5
1B
330
1
100
AcDbSymbolTableRecord
100
AcDbBlockTableRecord
  2
*PAPER_SPACE
  0
ENDTAB
  0
ENDSEC
  0
SECTION
  2
BLOCKS
  0
BLOCK
  5
20
330
1F
100
AcDbEntity
  8
0
100
AcDbBlockBegin
  2
*MODEL_SPACE
 70
     0
 10
0.0
 20
0.0
 30
0.0
  3
*MODEL_SPACE
  1

  0
ENDBLK
  5
21
330
1F
100
AcDbEntity
  8
0
100
AcDbBlockEnd
  0
BLOCK
  5
1C
330
1B
100
AcDbEntity
 67
     1
  8
0
100
AcDbBlockBegin
  2
*PAPER_SPACE
  1

  0
ENDBLK
  5
1D
330
1B
100
AcDbEntity
 67
     1
  8
0
100
AcDbBlockEnd
  0
ENDSEC
  0
SECTION
  2
ENTITIES
  0
SPLINE
  5
100
100
AcDbEntity
  8
cleaned
 62
3
100
AcDbSpline
 70
8
 71
3
 72
8
 73
4
 74
0
 40
0
 40
0
 40
0
 40
0
 40
1
 40
1
 40
1
 40
1
 10
10.878362
 20
7.200198
 30
0.0
 10
10.878362
 20
6.053840
 30
0.0
 10
9.965522
 20
5.140992
 30
0.0
 10
8.819177
 20
5.140992
 30
0.0
  0
SPLINE
  5
101
100
AcDbEntity
  8
cleaned
 62
3
100
AcDbSpline
 70
8
 71
3
 72
8
 73
4
 74
0
 40
0
 40
0
 40
0
 40
0
 40
1
 40
1
 40
1
 40
1
 10
8.819177
 20
5.140992
 30
0.0
 10
7.672830
 20
5.140992
 30
0.0
 10
6.759999
 20
6.053840
 30
0.0
 10
6.759999
 20
7.200198
 30
0.0
  0
SPLINE
  5
102
100
AcDbEntity
  8
cleaned
 62
3
100
AcDbSpline
 70
8
 71
3
 72
8
 73
4
 74
0
 40
0
 40
0
 40
0
 40
0
 40
1
 40
1
 40
1
 40
1
 10
6.759999
 20
7.200198
 30
0.0
 10
6.759999
 20
8.346585
 30
0.0
 10
7.672830
 20
9.259348
 30
0.0
 10
8.819177
 20
9.259348
 30
0.0
  0
SPLINE
  5
103
100
AcDbEntity
  8
cleaned
 62
3
100
AcDbSpline
 70
8
 71
3
 72
8
 73
4
 74
0
 40
0
 40
0
 40
0
 40
0
 40
1
 40
1
 40
1
 40
1
 10
8.819177
 20
9.259348
 30
0.0
 10
9.965522
 20
9.259348
 30
0.0
 10
10.878362
 20
8.346585
 30
0.0
 10
10.878362
 20
7.200198
 30
0.0
  0
SPLINE
  5
104
100
AcDbEntity
  8
cleaned
 62
3
100
AcDbSpline
 70
8
 71
3
 72
8
 73
4
 74
0
 40
0
 40
0
 40
0
 40
0
 40
1
 40
1
 40
1
 40
1
 10
32.098362
 20
7.200198
 30
0.0
 10
32.098362
 20
6.053840
 30
0.0
 10
31.185523
 20
5.140992
 30
0.0
 10
30.039176
 20
5.140992
 30
0.0
  0
SPLINE
  5
105
100
AcDbEntity
  8
cleaned
 62
3
100
AcDbSpline
 70
8
 71
3
 72
8
 73
4
 74
0
 40
0
 40
0
 40
0
 40
0
 40
1
 40
1
 40
1
 40
1
 10
30.039176
 20
5.140992
 30
0.0
 10
28.892832
 20
5.140992
 30
0.0
 10
27.979999
 20
6.053840
 30
0.0
 10
27.979999
 20
7.200198
 30
0.0
  0
SPLINE
  5
106
100
AcDbEntity
  8
cleaned
 62
3
100
AcDbSpline
 70
8
 71
3
 72
8
 73
4
 74
0
 40
0
 40
0
 40
0
 40
0
 40
1
 40
1
 40
1
 40
1
 10
27.979999
 20
7.200198
 30
0.0
 10
27.979999
 20
8.346585
 30
0.0
 10
28.892832
 20
9.259348
 30
0.0
 10
30.039176
 20
9.259348
 30
0.0
  0
SPLINE
  5
107
100
AcDbEntity
  8
cleaned
 62
3
100
AcDbSpline
 70
8
 71
3
 72
8
 73
4
 74
0
 40
0
 40
0
 40
0
 40
0
 40
1
 40
1
 40
1
 40
1
 10
30.039176
 20
9.259348
 30
0.0
 10
31.185523
 20
9.259348
 30
0.0
 10
32.098362
 20
8.346585
 30
0.0
 10
32.098362
 20
7.200198
 30
0.0
  0
LWPOLYLINE
  5
108
100
AcDbEntity
  8
cleaned
 62
3
100
AcDbPolyline
 90
2
 70
1
 10
10.878362
 20
7.200198
 30
0.0
 10
10.878362
 20
7.200198
 30
0.0
  0
SPLINE
  5
109
100
AcDbEntity
  8
cleaned
 62
3
100
AcDbSpline
 70
8
 71
3
 72
8
 73
4
 74
0
 40
0
 40
0
 40
0
 40
0
 40
1
 40
1
 40
1
 40
1
 10
450.828352
 20
7.200198
 30
0.0
 10
450.828352
 20
6.053840
 30
0.0
 10
449.915504
 20
5.140992
 30
0.0
 10
448.769174
 20
5.140992
 30
0.0
  0
SPLINE
  5
10a
100
AcDbEntity
  8
cleaned
 62
3
100
AcDbSpline
 70
8
 71
3
 72
8
 73
4
 74
0
 40
0
 40
0
 40
0
 40
0
 40
1
 40
1
 40
1
 40
1
 10
448.769174
 20
5.140992
 30
0.0
 10
447.622816
 20
5.140992
 30
0.0
 10
446.709996
 20
6.053840
 30
0.0
 10
446.709996
 20
7.200198
 30
0.0
  0
SPLINE
  5
10b
100
AcDbEntity
  8
cleaned
 62
3
100
AcDbSpline
 70
8
 71
3
 72
8
 73
4
 74
0
 40
0
 40
0
 40
0
 40
0
 40
1
 40
1
 40
1
 40
1
 10
446.709996
 20
7.200198
 30
0.0
 10
446.709996
 20
8.346585
 30
0.0
 10
447.622816
 20
9.259348
 30
0.0
 10
448.769174
 20
9.259348
 30
0.0
  0
SPLINE
  5
10c
100
AcDbEntity
  8
cleaned
 62
3
100
AcDbSpline
 70
8
 71
3
 72
8
 73
4
 74
0
 40
0
 40
0
 40
0
 40
0
 40
1
 40
1
 40
1
 40
1
 10
448.769174
 20
9.259348
 30
0.0
 10
449.915504
 20
9.259348
 30
0.0
 10
450.828352
 20
8.346585
 30
0.0
 10
450.828352
 20
7.200198
 30
0.0
  0
LWPOLYLINE
  5
10d
100
AcDbEntity
  8
cleaned
 62
3
100
AcDbPolyline
 90
2
 70
1
 10
32.098362
 20
7.200198
 30
0.0
 10
32.098362
 20
7.200198
 30
0.0
  0
SPLINE
  5
10e
100
AcDbEntity
  8
cleaned
 62
3
100
AcDbSpline
 70
8
 71
3
 72
8
 73
4
 74
0
 40
0
 40
0
 40
0
 40
0
 40
1
 40
1
 40
1
 40
1
 10
472.048359
 20
7.200198
 30
0.0
 10
472.048359
 20
6.053840
 30
0.0
 10
471.135511
 20
5.140992
 30
0.0
 10
469.989181
 20
5.140992
 30
0.0
  0
SPLINE
  5
10f
100
AcDbEntity
  8
cleaned
 62
3
100
AcDbSpline
 70
8
 71
3
 72
8
 73
4
 74
0
 40
0
 40
0
 40
0
 40
0
 40
1
 40
1
 40
1
 40
1
 10
469.989181
 20
5.140992
 30
0.0
 10
468.842822
 20
5.140992
 30
0.0
 10
467.930003
 20
6.053840
 30
0.0
 10
467.930003
 20
7.200198
 30
0.0
  0
SPLINE
  5
110
100
AcDbEntity
  8
cleaned
 62
3
100
AcDbSpline
 70
8
 71
3
 72
8
 73
4
 74
0
 40
0
 40
0
 40
0
 40
0
 40
1
 40
1
 40
1
 40
1
 10
467.930003
 20
7.200198
 30
0.0
 10
467.930003
 20
8.346585
 30
0.0
 10
468.842822
 20
9.259348
 30
0.0
 10
469.989181
 20
9.259348
 30
0.0
  0
SPLINE
  5
111
100
AcDbEntity
  8
cleaned
 62
3
100
AcDbSpline
 70
8
 71
3
 72
8
 73
4
 74
0
 40
0
 40
0
 40
0
 40
0
 40
1
 40
1
 40
1
 40
1
 10
469.989181
 20
9.259348
 30
0.0
 10
471.135511
 20
9.259348
 30
0.0
 10
472.048359
 20
8.346585
 30
0.0
 10
472.048359
 20
7.200198
 30
0.0
  0
LWPOLYLINE
  5
112
100
AcDbEntity
  8
cleaned
 62
3
100
AcDbPolyline
 90
2
 70
1
 10
450.828352
 20
7.200198
 30
0.0
 10
450.828352
 20
7.200198
 30
0.0
  0
SPLINE
  5
113
100
AcDbEntity
  8
cleaned
 62
3
100
AcDbSpline
 70
8
 71
3
 72
8
 73
4
 74
0
 40
0
 40
0
 40
0
 40
0
 40
1
 40
1
 40
1
 40
1
 10
73.139361
 20
7.200198
 30
0.0
 10
73.139361
 20
6.053840
 30
0.0
 10
72.226521
 20
5.140992
 30
0.0
 10
71.080177
 20
5.140992
 30
0.0
  0
SPLINE
  5
114
100
AcDbEntity
  8
cleaned
 62
3
100
AcDbSpline
 70
8
 71
3
 72
8
 73
4
 74
0
 40
0
 40
0
 40
0
 40
0
 40
1
 40
1
 40
1
 40
1
 10
71.080177
 20
5.140992
 30
0.0
 10
69.933830
 20
5.140992
 30
0.0
 10
69.020999
 20
6.053840
 30
0.0
 10
69.020999
 20
7.200198
 30
0.0
  0
SPLINE
  5
115
100
AcDbEntity
  8
cleaned
 62
3
100
AcDbSpline
 70
8
 71
3
 72
8
 73
4
 74
0
 40
0
 40
0
 40
0
 40
0
 40
1
 40
1
 40
1
 40
1
 10
69.020999
 20
7.200198
 30
0.0
 10
69.020999
 20
8.346585
 30
0.0
 10
69.933830
 20
9.259348
 30
0.0
 10
71.080177
 20
9.259348
 30
0.0
  0
SPLINE
  5
116
100
AcDbEntity
  8
cleaned
 62
3
100
AcDbSpline
 70
8
 71
3
 72
8
 73
4
 74
0
 40
0
 40
0
 40
0
 40
0
 40
1
 40
1
 40
1
 40
1
 10
71.080177
 20
9.259348
 30
0.0
 10
72.226521
 20
9.259348
 30
0.0
 10
73.139361
 20
8.346585
 30
0.0
 10
73.139361
 20
7.200198
 30
0.0
  0
LWPOLYLINE
  5
117
100
AcDbEntity
  8
cleaned
 62
3
100
AcDbPolyline
 90
2
 70
1
 10
472.048359
 20
7.200198
 30
0.0
 10
472.048359
 20
7.200198
 30
0.0
  0
SPLINE
  5
118
100
AcDbEntity
  8
cleaned
 62
3
100
AcDbSpline
 70
8
 71
3
 72
8
 73
4
 74
0
 40
0
 40
0
 40
0
 40
0
 40
1
 40
1
 40
1
 40
1
 10
94.359365
 20
7.200198
 30
0.0
 10
94.359365
 20
6.053840
 30
0.0
 10
93.446525
 20
5.140992
 30
0.0
 10
92.300178
 20
5.140992
 30
0.0
  0
SPLINE
  5
119
100
AcDbEntity
  8
cleaned
 62
3
100
AcDbSpline
 70
8
 71
3
 72
8
 73
4
 74
0
 40
0
 40
0
 40
0
 40
0
 40
1
 40
1
 40
1
 40
1
 10
92.300178
 20
5.140992
 30
0.0
 10
91.153831
 20
5.140992
 30
0.0
 10
90.241000
 20
6.053840
 30
0.0
 10
90.241000
 20
7.200198
 30
0.0
  0
SPLINE
  5
11a
100
AcDbEntity
  8
cleaned
 62
3
100
AcDbSpline
 70
8
 71
3
 72
8
 73
4
 74
0
 40
0
 40
0
 40
0
 40
0
 40
1
 40
1
 40
1
 40
1
 10
90.241000
 20
7.200198
 30
0.0
 10
90.241000
 20
8.346585
 30
0.0
 10
91.153831
 20
9.259348
 30
0.0
 10
92.300178
 20
9.259348
 30
0.0
  0
SPLINE
  5
11b
100
AcDbEntity
  8
cleaned
 62
3
100
AcDbSpline
 70
8
 71
3
 72
8
 73
4
 74
0
 40
0
 40
0
 40
0
 40
0
 40
1
 40
1
 40
1
 40
1
 10
92.300178
 20
9.259348
 30
0.0
 10
93.446525
 20
9.259348
 30
0.0
 10
94.359365
 20
8.346585
 30
0.0
 10
94.359365
 20
7.200198
 30
0.0
  0
LWPOLYLINE
  5
11c
100
AcDbEntity
  8
cleaned
 62
3
100
AcDbPolyline
 90
2
 70
1
 10
73.139361
 20
7.200198
 30
0.0
 10
73.139361
 20
7.200198
 30
0.0
  0
SPLINE
  5
11d
100
AcDbEntity
  8
cleaned
 62
3
100
AcDbSpline
 70
8
 71
3
 72
8
 73
4
 74
0
 40
0
 40
0
 40
0
 40
0
 40
1
 40
1
 40
1
 40
1
 10
506.758362
 20
7.200198
 30
0.0
 10
506.758362
 20
6.053840
 30
0.0
 10
505.845514
 20
5.140992
 30
0.0
 10
504.699184
 20
5.140992
 30
0.0
  0
SPLINE
  5
11e
100
AcDbEntity
  8
cleaned
 62
3
100
AcDbSpline
 70
8
 71
3
 72
8
 73
4
 74
0
 40
0
 40
0
 40
0
 40
0
 40
1
 40
1
 40
1
 40
1
 10
504.699184
 20
5.140992
 30
0.0
 10
503.552826
 20
5.140992
 30
0.0
 10
502.640006
 20
6.053840
 30
0.0
 10
502.640006
 20
7.200198
 30
0.0
  0
SPLINE
  5
11f
100
AcDbEntity
  8
cleaned
 62
3
100
AcDbSpline
 70
8
 71
3
 72
8
 73
4
 74
0
 40
0
 40
0
 40
0
 40
0
 40
1
 40
1
 40
1
 40
1
 10
502.640006
 20
7.200198
 30
0.0
 10
502.640006
 20
8.346585
 30
0.0
 10
503.552826
 20
9.259348
 30
0.0
 10
504.699184
 20
9.259348
 30
0.0
  0
SPLINE
  5
120
100
AcDbEntity
  8
cleaned
 62
3
100
AcDbSpline
 70
8
 71
3
 72
8
 73
4
 74
0
 40
0
 40
0
 40
0
 40
0
 40
1
 40
1
 40
1
 40
1
 10
504.699184
 20
9.259348
 30
0.0
 10
505.845514
 20
9.259348
 30
0.0
 10
506.758362
 20
8.346585
 30
0.0
 10
506.758362
 20
7.200198
 30
0.0
  0
LWPOLYLINE
  5
121
100
AcDbEntity
  8
cleaned
 62
3
100
AcDbPolyline
 90
2
 70
1
 10
94.359365
 20
7.200198
 30
0.0
 10
94.359365
 20
7.200198
 30
0.0
  0
SPLINE
  5
122
100
AcDbEntity
  8
cleaned
 62
3
100
AcDbSpline
 70
8
 71
3
 72
8
 73
4
 74
0
 40
0
 40
0
 40
0
 40
0
 40
1
 40
1
 40
1
 40
1
 10
527.978369
 20
7.200198
 30
0.0
 10
527.978369
 20
6.053840
 30
0.0
 10
527.065521
 20
5.140992
 30
0.0
 10
525.919191
 20
5.140992
 30
0.0
  0
SPLINE
  5
123
100
AcDbEntity
  8
cleaned
 62
3
100
AcDbSpline
 70
8
 71
3
 72
8
 73
4
 74
0
 40
0
 40
0
 40
0
 40
0
 40
1
 40
1
 40
1
 40
1
 10
525.919191
 20
5.140992
 30
0.0
 10
524.772832
 20
5.140992
 30
0.0
 10
523.860013
 20
6.053840
 30
0.0
 10
523.860013
 20
7.200198
 30
0.0
  0
SPLINE
  5
124
100
AcDbEntity
  8
cleaned
 62
3
100
AcDbSpline
 70
8
 71
3
 72
8
 73
4
 74
0
 40
0
 40
0
 40
0
 40
0
 40
1
 40
1
 40
1
 40
1
 10
523.860013
 20
7.200198
 30
0.0
 10
523.860013
 20
8.346585
 30
0.0
 10
524.772832
 20
9.259348
 30
0.0
 10
525.919191
 20
9.259348
 30
0.0
  0
SPLINE
  5
125
100
AcDbEntity
  8
cleaned
 62
3
100
AcDbSpline
 70
8
 71
3
 72
8
 73
4
 74
0
 40
0
 40
0
 40
0
 40
0
 40
1
 40
1
 40
1
 40
1
 10
525.919191
 20
9.259348
 30
0.0
 10
527.065521
 20
9.259348
 30
0.0
 10
527.978369
 20
8.346585
 30
0.0
 10
527.978369
 20
7.200198
 30
0.0
  0
LWPOLYLINE
  5
126
100
AcDbEntity
  8
cleaned
 62
3
100
AcDbPolyline
 90
2
 70
1
 10
506.758362
 20
7.200198
 30
0.0
 10
506.758362
 20
7.200198
 30
0.0
  0
SPLINE
  5
127
100
AcDbEntity
  8
cleaned
 62
3
100
AcDbSpline
 70
8
 71
3
 72
8
 73
4
 74
0
 40
0
 40
0
 40
0
 40
0
 40
1
 40
1
 40
1
 40
1
 10
9.259364
 20
110.334217
 30
0.0
 10
9.259364
 20
109.187859
 30
0.0
 10
8.346525
 20
108.275011
 30
0.0
 10
7.200181
 20
108.275011
 30
0.0
  0
SPLINE
  5
128
100
AcDbEntity
  8
cleaned
 62
3
100
AcDbSpline
 70
8
 71
3
 72
8
 73
4
 74
0
 40
0
 40
0
 40
0
 40
0
 40
1
 40
1
 40
1
 40
1
 10
7.200181
 20
108.275011
 30
0.0
 10
6.053834
 20
108.275011
 30
0.0
 10
5.141000
 20
109.187859
 30
0.0
 10
5.141000
 20
110.334217
 30
0.0
  0
SPLINE
  5
129
100
AcDbEntity
  8
cleaned
 62
3
100
AcDbSpline
 70
8
 71
3
 72
8
 73
4
 74
0
 40
0
 40
0
 40
0
 40
0
 40
1
 40
1
 40
1
 40
1
 10
5.141000
 20
110.334217
 30
0.0
 10
5.141000
 20
111.480604
 30
0.0
 10
6.053834
 20
112.393367
 30
0.0
 10
7.200181
 20
112.393367
 30
0.0
  0
SPLINE
  5
12a
100
AcDbEntity
  8
cleaned
 62
3
100
AcDbSpline
 70
8
 71
3
 72
8
 73
4
 74
0
 40
0
 40
0
 40
0
 40
0
 40
1
 40
1
 40
1
 40
1
 10
7.200181
 20
112.393367
 30
0.0
 10
8.346525
 20
112.393367
 30
0.0
 10
9.259364
 20
111.480604
 30
0.0
 10
9.259364
 20
110.334217
 30
0.0
  0
LWPOLYLINE
  5
12b
100
AcDbEntity
  8
cleaned
 62
3
100
AcDbPolyline
 90
2
 70
1
 10
527.978369
 20
7.200198
 30
0.0
 10
527.978369
 20
7.200198
 30
0.0
  0
SPLINE
  5
12c
100
AcDbEntity
  8
cleaned
 62
3
100
AcDbSpline
 70
8
 71
3
 72
8
 73
4
 74
0
 40
0
 40
0
 40
0
 40
0
 40
1
 40
1
 40
1
 40
1
 10
9.259362
 20
310.334204
 30
0.0
 10
9.259362
 20
309.187845
 30
0.0
 10
8.346522
 20
308.274998
 30
0.0
 10
7.200178
 20
308.274998
 30
0.0
  0
SPLINE
  5
12d
100
AcDbEntity
  8
cleaned
 62
3
100
AcDbSpline
 70
8
 71
3
 72
8
 73
4
 74
0
 40
0
 40
0
 40
0
 40
0
 40
1
 40
1
 40
1
 40
1
 10
7.200178
 20
308.274998
 30
0.0
 10
6.053831
 20
308.274998
 30
0.0
 10
5.141000
 20
309.187845
 30
0.0
 10
5.141000
 20
310.334204
 30
0.0
  0
SPLINE
  5
12e
100
AcDbEntity
  8
cleaned
 62
3
100
AcDbSpline
 70
8
 71
3
 72
8
 73
4
 74
0
 40
0
 40
0
 40
0
 40
0
 40
1
 40
1
 40
1
 40
1
 10
5.141000
 20
310.334204
 30
0.0
 10
5.141000
 20
311.480590
 30
0.0
 10
6.053831
 20
312.393354
 30
0.0
 10
7.200178
 20
312.393354
 30
0.0
  0
SPLINE
  5
12f
100
AcDbEntity
  8
cleaned
 62
3
100
AcDbSpline
 70
8
 71
3
 72
8
 73
4
 74
0
 40
0
 40
0
 40
0
 40
0
 40
1
 40
1
 40
1
 40
1
 10
7.200178
 20
312.393354
 30
0.0
 10
8.346522
 20
312.393354
 30
0.0
 10
9.259362
 20
311.480590
 30
0.0
 10
9.259362
 20
310.334204
 30
0.0
  0
LWPOLYLINE
  5
130
100
AcDbEntity
  8
cleaned
 62
3
100
AcDbPolyline
 90
2
 70
1
 10
9.259364
 20
110.334217
 30
0.0
 10
9.259364
 20
110.334217
 30
0.0
  0
SPLINE
  5
131
100
AcDbEntity
  8
cleaned
 62
3
100
AcDbSpline
 70
8
 71
3
 72
8
 73
4
 74
0
 40
0
 40
0
 40
0
 40
0
 40
1
 40
1
 40
1
 40
1
 10
62.759363
 20
33.944197
 30
0.0
 10
62.759363
 20
32.797838
 30
0.0
 10
61.846524
 20
31.884991
 30
0.0
 10
60.700179
 20
31.884991
 30
0.0
  0
SPLINE
  5
132
100
AcDbEntity
  8
cleaned
 62
3
100
AcDbSpline
 70
8
 71
3
 72
8
 73
4
 74
0
 40
0
 40
0
 40
0
 40
0
 40
1
 40
1
 40
1
 40
1
 10
60.700179
 20
31.884991
 30
0.0
 10
59.553832
 20
31.884991
 30
0.0
 10
58.641001
 20
32.797838
 30
0.0
 10
58.641001
 20
33.944197
 30
0.0
  0
SPLINE
  5
133
100
AcDbEntity
  8
cleaned
 62
3
100
AcDbSpline
 70
8
 71
3
 72
8
 73
4
 74
0
 40
0
 40
0
 40
0
 40
0
 40
1
 40
1
 40
1
 40
1
 10
58.641001
 20
33.944197
 30
0.0
 10
58.641001
 20
35.090584
 30
0.0
 10
59.553832
 20
36.003347
 30
0.0
 10
60.700179
 20
36.003347
 30
0.0
  0
SPLINE
  5
134
100
AcDbEntity
  8
cleaned
 62
3
100
AcDbSpline
 70
8
 71
3
 72
8
 73
4
 74
0
 40
0
 40
0
 40
0
 40
0
 40
1
 40
1
 40
1
 40
1
 10
60.700179
 20
36.003347
 30
0.0
 10
61.846524
 20
36.003347
 30
0.0
 10
62.759363
 20
35.090584
 30
0.0
 10
62.759363
 20
33.944197
 30
0.0
  0
LWPOLYLINE
  5
135
100
AcDbEntity
  8
cleaned
 62
3
100
AcDbPolyline
 90
2
 70
1
 10
9.259362
 20
310.334204
 30
0.0
 10
9.259362
 20
310.334204
 30
0.0
  0
SPLINE
  5
136
100
AcDbEntity
  8
cleaned
 62
3
100
AcDbSpline
 70
8
 71
3
 72
8
 73
4
 74
0
 40
0
 40
0
 40
0
 40
0
 40
1
 40
1
 40
1
 40
1
 10
62.759366
 20
190.519195
 30
0.0
 10
62.759366
 20
189.372836
 30
0.0
 10
61.846526
 20
188.459989
 30
0.0
 10
60.700179
 20
188.459989
 30
0.0
  0
SPLINE
  5
137
100
AcDbEntity
  8
cleaned
 62
3
100
AcDbSpline
 70
8
 71
3
 72
8
 73
4
 74
0
 40
0
 40
0
 40
0
 40
0
 40
1
 40
1
 40
1
 40
1
 10
60.700179
 20
188.459989
 30
0.0
 10
59.553832
 20
188.459989
 30
0.0
 10
58.641001
 20
189.372836
 30
0.0
 10
58.641001
 20
190.519195
 30
0.0
  0
SPLINE
  5
138
100
AcDbEntity
  8
cleaned
 62
3
100
AcDbSpline
 70
8
 71
3
 72
8
 73
4
 74
0
 40
0
 40
0
 40
0
 40
0
 40
1
 40
1
 40
1
 40
1
 10
58.641001
 20
190.519195
 30
0.0
 10
58.641001
 20
191.665582
 30
0.0
 10
59.553832
 20
192.578345
 30
0.0
 10
60.700179
 20
192.578345
 30
0.0
  0
SPLINE
  5
139
100
AcDbEntity
  8
cleaned
 62
3
100
AcDbSpline
 70
8
 71
3
 72
8
 73
4
 74
0
 40
0
 40
0
 40
0
 40
0
 40
1
 40
1
 40
1
 40
1
 10
60.700179
 20
192.578345
 30
0.0
 10
61.846526
 20
192.578345
 30
0.0
 10
62.759366
 20
191.665582
 30
0.0
 10
62.759366
 20
190.519195
 30
0.0
  0
LWPOLYLINE
  5
13a
100
AcDbEntity
  8
cleaned
 62
3
100
AcDbPolyline
 90
2
 70
1
 10
62.759363
 20
33.944197
 30
0.0
 10
62.759363
 20
33.944197
 30
0.0
  0
SPLINE
  5
13b
100
AcDbEntity
  8
cleaned
 62
3
100
AcDbSpline
 70
8
 71
3
 72
8
 73
4
 74
0
 40
0
 40
0
 40
0
 40
0
 40
1
 40
1
 40
1
 40
1
 10
62.759366
 20
350.524203
 30
0.0
 10
62.759366
 20
349.377845
 30
0.0
 10
61.846526
 20
348.464997
 30
0.0
 10
60.700182
 20
348.464997
 30
0.0
  0
SPLINE
  5
13c
100
AcDbEntity
  8
cleaned
 62
3
100
AcDbSpline
 70
8
 71
3
 72
8
 73
4
 74
0
 40
0
 40
0
 40
0
 40
0
 40
1
 40
1
 40
1
 40
1
 10
60.700182
 20
348.464997
 30
0.0
 10
59.553835
 20
348.464997
 30
0.0
 10
58.641001
 20
349.377845
 30
0.0
 10
58.641001
 20
350.524203
 30
0.0
  0
SPLINE
  5
13d
100
AcDbEntity
  8
cleaned
 62
3
100
AcDbSpline
 70
8
 71
3
 72
8
 73
4
 74
0
 40
0
 40
0
 40
0
 40
0
 40
1
 40
1
 40
1
 40
1
 10
58.641001
 20
350.524203
 30
0.0
 10
58.641001
 20
351.670590
 30
0.0
 10
59.553835
 20
352.583353
 30
0.0
 10
60.700182
 20
352.583353
 30
0.0
  0
SPLINE
  5
13e
100
AcDbEntity
  8
cleaned
 62
3
100
AcDbSpline
 70
8
 71
3
 72
8
 73
4
 74
0
 40
0
 40
0
 40
0
 40
0
 40
1
 40
1
 40
1
 40
1
 10
60.700182
 20
352.583353
 30
0.0
 10
61.846526
 20
352.583353
 30
0.0
 10
62.759366
 20
351.670590
 30
0.0
 10
62.759366
 20
350.524203
 30
0.0
  0
LWPOLYLINE
  5
13f
100
AcDbEntity
  8
cleaned
 62
3
100
AcDbPolyline
 90
2
 70
1
 10
62.759366
 20
190.519195
 30
0.0
 10
62.759366
 20
190.519195
 30
0.0
  0
SPLINE
  5
140
100
AcDbEntity
  8
cleaned
 62
3
100
AcDbSpline
 70
8
 71
3
 72
8
 73
4
 74
0
 40
0
 40
0
 40
0
 40
0
 40
1
 40
1
 40
1
 40
1
 10
62.759363
 20
450.524204
 30
0.0
 10
62.759363
 20
449.377845
 30
0.0
 10
61.846524
 20
448.464997
 30
0.0
 10
60.700179
 20
448.464997
 30
0.0
  0
SPLINE
  5
141
100
AcDbEntity
  8
cleaned
 62
3
100
AcDbSpline
 70
8
 71
3
 72
8
 73
4
 74
0
 40
0
 40
0
 40
0
 40
0
 40
1
 40
1
 40
1
 40
1
 10
60.700179
 20
448.464997
 30
0.0
 10
59.553832
 20
448.464997
 30
0.0
 10
58.641001
 20
449.377845
 30
0.0
 10
58.641001
 20
450.524204
 30
0.0
  0
SPLINE
  5
142
100
AcDbEntity
  8
cleaned
 62
3
100
AcDbSpline
 70
8
 71
3
 72
8
 73
4
 74
0
 40
0
 40
0
 40
0
 40
0
 40
1
 40
1
 40
1
 40
1
 10
58.641001
 20
450.524204
 30
0.0
 10
58.641001
 20
451.670590
 30
0.0
 10
59.553832
 20
452.583353
 30
0.0
 10
60.700179
 20
452.583353
 30
0.0
  0
SPLINE
  5
143
100
AcDbEntity
  8
cleaned
 62
3
100
AcDbSpline
 70
8
 71
3
 72
8
 73
4
 74
0
 40
0
 40
0
 40
0
 40
0
 40
1
 40
1
 40
1
 40
1
 10
60.700179
 20
452.583353
 30
0.0
 10
61.846524
 20
452.583353
 30
0.0
 10
62.759363
 20
451.670590
 30
0.0
 10
62.759363
 20
450.524204
 30
0.0
  0
LWPOLYLINE
  5
144
100
AcDbEntity
  8
cleaned
 62
3
100
AcDbPolyline
 90
2
 70
1
 10
62.759366
 20
350.524203
 30
0.0
 10
62.759366
 20
350.524203
 30
0.0
  0
SPLINE
  5
145
100
AcDbEntity
  8
cleaned
 62
3
100
AcDbSpline
 70
8
 71
3
 72
8
 73
4
 74
0
 40
0
 40
0
 40
0
 40
0
 40
1
 40
1
 40
1
 40
1
 10
431.809368
 20
450.524201
 30
0.0
 10
431.809368
 20
449.377845
 30
0.0
 10
430.896521
 20
448.464997
 30
0.0
 10
429.750190
 20
448.464997
 30
0.0
  0
SPLINE
  5
146
100
AcDbEntity
  8
cleaned
 62
3
100
AcDbSpline
 70
8
 71
3
 72
8
 73
4
 74
0
 40
0
 40
0
 40
0
 40
0
 40
1
 40
1
 40
1
 40
1
 10
429.750190
 20
448.464997
 30
0.0
 10
428.603832
 20
448.464997
 30
0.0
 10
427.691012
 20
449.377845
 30
0.0
 10
427.691012
 20
450.524201
 30
0.0
  0
SPLINE
  5
147
100
AcDbEntity
  8
cleaned
 62
3
100
AcDbSpline
 70
8
 71
3
 72
8
 73
4
 74
0
 40
0
 40
0
 40
0
 40
0
 40
1
 40
1
 40
1
 40
1
 10
427.691012
 20
450.524201
 30
0.0
 10
427.691012
 20
451.670587
 30
0.0
 10
428.603832
 20
452.583351
 30
0.0
 10
429.750190
 20
452.583351
 30
0.0
  0
SPLINE
  5
148
100
AcDbEntity
  8
cleaned
 62
3
100
AcDbSpline
 70
8
 71
3
 72
8
 73
4
 74
0
 40
0
 40
0
 40
0
 40
0
 40
1
 40
1
 40
1
 40
1
 10
429.750190
 20
452.583351
 30
0.0
 10
430.896521
 20
452.583351
 30
0.0
 10
431.809368
 20
451.670587
 30
0.0
 10
431.809368
 20
450.524201
 30
0.0
  0
LWPOLYLINE
  5
149
100
AcDbEntity
  8
cleaned
 62
3
100
AcDbPolyline
 90
2
 70
1
 10
62.759363
 20
450.524204
 30
0.0
 10
62.759363
 20
450.524204
 30
0.0
  0
SPLINE
  5
14a
100
AcDbEntity
  8
cleaned
 62
3
100
AcDbSpline
 70
8
 71
3
 72
8
 73
4
 74
0
 40
0
 40
0
 40
0
 40
0
 40
1
 40
1
 40
1
 40
1
 10
431.809368
 20
350.524203
 30
0.0
 10
431.809368
 20
349.377845
 30
0.0
 10
430.896521
 20
348.464997
 30
0.0
 10
429.750190
 20
348.464997
 30
0.0
  0
SPLINE
  5
14b
100
AcDbEntity
  8
cleaned
 62
3
100
AcDbSpline
 70
8
 71
3
 72
8
 73
4
 74
0
 40
0
 40
0
 40
0
 40
0
 40
1
 40
1
 40
1
 40
1
 10
429.750190
 20
348.464997
 30
0.0
 10
428.603832
 20
348.464997
 30
0.0
 10
427.691012
 20
349.377845
 30
0.0
 10
427.691012
 20
350.524203
 30
0.0
  0
SPLINE
  5
14c
100
AcDbEntity
  8
cleaned
 62
3
100
AcDbSpline
 70
8
 71
3
 72
8
 73
4
 74
0
 40
0
 40
0
 40
0
 40
0
 40
1
 40
1
 40
1
 40
1
 10
427.691012
 20
350.524203
 30
0.0
 10
427.691012
 20
351.670590
 30
0.0
 10
428.603832
 20
352.583353
 30
0.0
 10
429.750190
 20
352.583353
 30
0.0
  0
SPLINE
  5
14d
100
AcDbEntity
  8
cleaned
 62
3
100
AcDbSpline
 70
8
 71
3
 72
8
 73
4
 74
0
 40
0
 40
0
 40
0
 40
0
 40
1
 40
1
 40
1
 40
1
 10
429.750190
 20
352.583353
 30
0.0
 10
430.896521
 20
352.583353
 30
0.0
 10
431.809368
 20
351.670590
 30
0.0
 10
431.809368
 20
350.524203
 30
0.0
  0
LWPOLYLINE
  5
14e
100
AcDbEntity
  8
cleaned
 62
3
100
AcDbPolyline
 90
2
 70
1
 10
431.809368
 20
450.524201
 30
0.0
 10
431.809368
 20
450.524201
 30
0.0
  0
SPLINE
  5
14f
100
AcDbEntity
  8
cleaned
 62
3
100
AcDbSpline
 70
8
 71
3
 72
8
 73
4
 74
0
 40
0
 40
0
 40
0
 40
0
 40
1
 40
1
 40
1
 40
1
 10
431.809397
 20
190.522215
 30
0.0
 10
431.809397
 20
189.375856
 30
0.0
 10
430.896549
 20
188.463008
 30
0.0
 10
429.750219
 20
188.463008
 30
0.0
  0
SPLINE
  5
150
100
AcDbEntity
  8
cleaned
 62
3
100
AcDbSpline
 70
8
 71
3
 72
8
 73
4
 74
0
 40
0
 40
0
 40
0
 40
0
 40
1
 40
1
 40
1
 40
1
 10
429.750219
 20
188.463008
 30
0.0
 10
428.603860
 20
188.463008
 30
0.0
 10
427.691012
 20
189.375856
 30
0.0
 10
427.691012
 20
190.522215
 30
0.0
  0
SPLINE
  5
151
100
AcDbEntity
  8
cleaned
 62
3
100
AcDbSpline
 70
8
 71
3
 72
8
 73
4
 74
0
 40
0
 40
0
 40
0
 40
0
 40
1
 40
1
 40
1
 40
1
 10
427.691012
 20
190.522215
 30
0.0
 10
427.691012
 20
191.668601
 30
0.0
 10
428.603860
 20
192.581364
 30
0.0
 10
429.750219
 20
192.581364
 30
0.0
  0
SPLINE
  5
152
100
AcDbEntity
  8
cleaned
 62
3
100
AcDbSpline
 70
8
 71
3
 72
8
 73
4
 74
0
 40
0
 40
0
 40
0
 40
0
 40
1
 40
1
 40
1
 40
1
 10
429.750219
 20
192.581364
 30
0.0
 10
430.896549
 20
192.581364
 30
0.0
 10
431.809397
 20
191.668601
 30
0.0
 10
431.809397
 20
190.522215
 30
0.0
  0
LWPOLYLINE
  5
153
100
AcDbEntity
  8
cleaned
 62
3
100
AcDbPolyline
 90
2
 70
1
 10
431.809368
 20
350.524203
 30
0.0
 10
431.809368
 20
350.524203
 30
0.0
  0
SPLINE
  5
154
100
AcDbEntity
  8
cleaned
 62
3
100
AcDbSpline
 70
8
 71
3
 72
8
 73
4
 74
0
 40
0
 40
0
 40
0
 40
0
 40
1
 40
1
 40
1
 40
1
 10
431.809397
 20
33.944197
 30
0.0
 10
431.809397
 20
32.797838
 30
0.0
 10
430.896549
 20
31.884991
 30
0.0
 10
429.750190
 20
31.884991
 30
0.0
  0
SPLINE
  5
155
100
AcDbEntity
  8
cleaned
 62
3
100
AcDbSpline
 70
8
 71
3
 72
8
 73
4
 74
0
 40
0
 40
0
 40
0
 40
0
 40
1
 40
1
 40
1
 40
1
 10
429.750190
 20
31.884991
 30
0.0
 10
428.603860
 20
31.884991
 30
0.0
 10
427.691012
 20
32.797838
 30
0.0
 10
427.691012
 20
33.944197
 30
0.0
  0
SPLINE
  5
156
100
AcDbEntity
  8
cleaned
 62
3
100
AcDbSpline
 70
8
 71
3
 72
8
 73
4
 74
0
 40
0
 40
0
 40
0
 40
0
 40
1
 40
1
 40
1
 40
1
 10
427.691012
 20
33.944197
 30
0.0
 10
427.691012
 20
35.090584
 30
0.0
 10
428.603860
 20
36.003347
 30
0.0
 10
429.750190
 20
36.003347
 30
0.0
  0
SPLINE
  5
157
100
AcDbEntity
  8
cleaned
 62
3
100
AcDbSpline
 70
8
 71
3
 72
8
 73
4
 74
0
 40
0
 40
0
 40
0
 40
0
 40
1
 40
1
 40
1
 40
1
 10
429.750190
 20
36.003347
 30
0.0
 10
430.896549
 20
36.003347
 30
0.0
 10
431.809397
 20
35.090584
 30
0.0
 10
431.809397
 20
33.944197
 30
0.0
  0
LWPOLYLINE
  5
158
100
AcDbEntity
  8
cleaned
 62
3
100
AcDbPolyline
 90
2
 70
1
 10
431.809397
 20
190.522215
 30
0.0
 10
431.809397
 20
190.522215
 30
0.0
  0
SPLINE
  5
159
100
AcDbEntity
  8
cleaned
 62
3
100
AcDbSpline
 70
8
 71
3
 72
8
 73
4
 74
0
 40
0
 40
0
 40
0
 40
0
 40
1
 40
1
 40
1
 40
1
 10
529.359367
 20
110.334205
 30
0.0
 10
529.359367
 20
109.187846
 30
0.0
 10
528.446519
 20
108.274999
 30
0.0
 10
527.300189
 20
108.274999
 30
0.0
  0
SPLINE
  5
15a
100
AcDbEntity
  8
cleaned
 62
3
100
AcDbSpline
 70
8
 71
3
 72
8
 73
4
 74
0
 40
0
 40
0
 40
0
 40
0
 40
1
 40
1
 40
1
 40
1
 10
527.300189
 20
108.274999
 30
0.0
 10
526.153830
 20
108.274999
 30
0.0
 10
525.241011
 20
109.187846
 30
0.0
 10
525.241011
 20
110.334205
 30
0.0
  0
SPLINE
  5
15b
100
AcDbEntity
  8
cleaned
 62
3
100
AcDbSpline
 70
8
 71
3
 72
8
 73
4
 74
0
 40
0
 40
0
 40
0
 40
0
 40
1
 40
1
 40
1
 40
1
 10
525.241011
 20
110.334205
 30
0.0
 10
525.241011
 20
111.480591
 30
0.0
 10
526.153830
 20
112.393355
 30
0.0
 10
527.300189
 20
112.393355
 30
0.0
  0
SPLINE
  5
15c
100
AcDbEntity
  8
cleaned
 62
3
100
AcDbSpline
 70
8
 71
3
 72
8
 73
4
 74
0
 40
0
 40
0
 40
0
 40
0
 40
1
 40
1
 40
1
 40
1
 10
527.300189
 20
112.393355
 30
0.0
 10
528.446519
 20
112.393355
 30
0.0
 10
529.359367
 20
111.480591
 30
0.0
 10
529.359367
 20
110.334205
 30
0.0
  0
LWPOLYLINE
  5
15d
100
AcDbEntity
  8
cleaned
 62
3
100
AcDbPolyline
 90
2
 70
1
 10
431.809397
 20
33.944197
 30
0.0
 10
431.809397
 20
33.944197
 30
0.0
  0
SPLINE
  5
15e
100
AcDbEntity
  8
cleaned
 62
3
100
AcDbSpline
 70
8
 71
3
 72
8
 73
4
 74
0
 40
0
 40
0
 40
0
 40
0
 40
1
 40
1
 40
1
 40
1
 10
529.359367
 20
308.234204
 30
0.0
 10
529.359367
 20
307.087846
 30
0.0
 10
528.446519
 20
306.174998
 30
0.0
 10
527.300189
 20
306.174998
 30
0.0
  0
SPLINE
  5
15f
100
AcDbEntity
  8
cleaned
 62
3
100
AcDbSpline
 70
8
 71
3
 72
8
 73
4
 74
0
 40
0
 40
0
 40
0
 40
0
 40
1
 40
1
 40
1
 40
1
 10
527.300189
 20
306.174998
 30
0.0
 10
526.153830
 20
306.174998
 30
0.0
 10
525.241011
 20
307.087846
 30
0.0
 10
525.241011
 20
308.234204
 30
0.0
  0
SPLINE
  5
160
100
AcDbEntity
  8
cleaned
 62
3
100
AcDbSpline
 70
8
 71
3
 72
8
 73
4
 74
0
 40
0
 40
0
 40
0
 40
0
 40
1
 40
1
 40
1
 40
1
 10
525.241011
 20
308.234204
 30
0.0
 10
525.241011
 20
309.380591
 30
0.0
 10
526.153830
 20
310.293354
 30
0.0
 10
527.300189
 20
310.293354
 30
0.0
  0
SPLINE
  5
161
100
AcDbEntity
  8
cleaned
 62
3
100
AcDbSpline
 70
8
 71
3
 72
8
 73
4
 74
0
 40
0
 40
0
 40
0
 40
0
 40
1
 40
1
 40
1
 40
1
 10
527.300189
 20
310.293354
 30
0.0
 10
528.446519
 20
310.293354
 30
0.0
 10
529.359367
 20
309.380591
 30
0.0
 10
529.359367
 20
308.234204
 30
0.0
  0
LWPOLYLINE
  5
162
100
AcDbEntity
  8
cleaned
 62
3
100
AcDbPolyline
 90
2
 70
1
 10
529.359367
 20
110.334205
 30
0.0
 10
529.359367
 20
110.334205
 30
0.0
  0
SPLINE
  5
163
100
AcDbEntity
  8
cleaned
 62
3
100
AcDbSpline
 70
8
 71
3
 72
8
 73
4
 74
0
 40
0
 40
0
 40
0
 40
0
 40
1
 40
1
 40
1
 40
1
 10
523.959355
 20
27.950192
 30
0.0
 10
523.959355
 20
26.803834
 30
0.0
 10
523.046507
 20
25.890986
 30
0.0
 10
521.900177
 20
25.890986
 30
0.0
  0
SPLINE
  5
164
100
AcDbEntity
  8
cleaned
 62
3
100
AcDbSpline
 70
8
 71
3
 72
8
 73
4
 74
0
 40
0
 40
0
 40
0
 40
0
 40
1
 40
1
 40
1
 40
1
 10
521.900177
 20
25.890986
 30
0.0
 10
520.753818
 20
25.890986
 30
0.0
 10
519.840999
 20
26.803834
 30
0.0
 10
519.840999
 20
27.950192
 30
0.0
  0
SPLINE
  5
165
100
AcDbEntity
  8
cleaned
 62
3
100
AcDbSpline
 70
8
 71
3
 72
8
 73
4
 74
0
 40
0
 40
0
 40
0
 40
0
 40
1
 40
1
 40
1
 40
1
 10
519.840999
 20
27.950192
 30
0.0
 10
519.840999
 20
29.096579
 30
0.0
 10
520.753818
 20
30.009342
 30
0.0
 10
521.900177
 20
30.009342
 30
0.0
  0
SPLINE
  5
166
100
AcDbEntity
  8
cleaned
 62
3
100
AcDbSpline
 70
8
 71
3
 72
8
 73
4
 74
0
 40
0
 40
0
 40
0
 40
0
 40
1
 40
1
 40
1
 40
1
 10
521.900177
 20
30.009342
 30
0.0
 10
523.046507
 20
30.009342
 30
0.0
 10
523.959355
 20
29.096579
 30
0.0
 10
523.959355
 20
27.950192
 30
0.0
  0
LWPOLYLINE
  5
167
100
AcDbEntity
  8
cleaned
 62
3
100
AcDbPolyline
 90
2
 70
1
 10
529.359367
 20
308.234204
 30
0.0
 10
529.359367
 20
308.234204
 30
0.0
  0
SPLINE
  5
168
100
AcDbEntity
  8
cleaned
 62
3
100
AcDbSpline
 70
8
 71
3
 72
8
 73
4
 74
0
 40
0
 40
0
 40
0
 40
0
 40
1
 40
1
 40
1
 40
1
 10
430.247356
 20
376.500205
 30
0.0
 10
430.247356
 20
375.353846
 30
0.0
 10
429.334508
 20
374.440998
 30
0.0
 10
428.188178
 20
374.440998
 30
0.0
  0
SPLINE
  5
169
100
AcDbEntity
  8
cleaned
 62
3
100
AcDbSpline
 70
8
 71
3
 72
8
 73
4
 74
0
 40
0
 40
0
 40
0
 40
0
 40
1
 40
1
 40
1
 40
1
 10
428.188178
 20
374.440998
 30
0.0
 10
427.041820
 20
374.440998
 30
0.0
 10
426.129000
 20
375.353846
 30
0.0
 10
426.129000
 20
376.500205
 30
0.0
  0
SPLINE
  5
16a
100
AcDbEntity
  8
cleaned
 62
3
100
AcDbSpline
 70
8
 71
3
 72
8
 73
4
 74
0
 40
0
 40
0
 40
0
 40
0
 40
1
 40
1
 40
1
 40
1
 10
426.129000
 20
376.500205
 30
0.0
 10
426.129000
 20
377.646591
 30
0.0
 10
427.041820
 20
378.559354
 30
0.0
 10
428.188178
 20
378.559354
 30
0.0
  0
SPLINE
  5
16b
100
AcDbEntity
  8
cleaned
 62
3
100
AcDbSpline
 70
8
 71
3
 72
8
 73
4
 74
0
 40
0
 40
0
 40
0
 40
0
 40
1
 40
1
 40
1
 40
1
 10
428.188178
 20
378.559354
 30
0.0
 10
429.334508
 20
378.559354
 30
0.0
 10
430.247356
 20
377.646591
 30
0.0
 10
430.247356
 20
376.500205
 30
0.0
  0
LWPOLYLINE
  5
16c
100
AcDbEntity
  8
cleaned
 62
3
100
AcDbPolyline
 90
2
 70
1
 10
523.959355
 20
27.950192
 30
0.0
 10
523.959355
 20
27.950192
 30
0.0
  0
SPLINE
  5
16d
100
AcDbEntity
  8
cleaned
 62
3
100
AcDbSpline
 70
8
 71
3
 72
8
 73
4
 74
0
 40
0
 40
0
 40
0
 40
0
 40
1
 40
1
 40
1
 40
1
 10
460.347344
 20
376.500205
 30
0.0
 10
460.347344
 20
375.353846
 30
0.0
 10
459.434496
 20
374.440998
 30
0.0
 10
458.288166
 20
374.440998
 30
0.0
  0
SPLINE
  5
16e
100
AcDbEntity
  8
cleaned
 62
3
100
AcDbSpline
 70
8
 71
3
 72
8
 73
4
 74
0
 40
0
 40
0
 40
0
 40
0
 40
1
 40
1
 40
1
 40
1
 10
458.288166
 20
374.440998
 30
0.0
 10
457.141807
 20
374.440998
 30
0.0
 10
456.228988
 20
375.353846
 30
0.0
 10
456.228988
 20
376.500205
 30
0.0
  0
SPLINE
  5
16f
100
AcDbEntity
  8
cleaned
 62
3
100
AcDbSpline
 70
8
 71
3
 72
8
 73
4
 74
0
 40
0
 40
0
 40
0
 40
0
 40
1
 40
1
 40
1
 40
1
 10
456.228988
 20
376.500205
 30
0.0
 10
456.228988
 20
377.646591
 30
0.0
 10
457.141807
 20
378.559354
 30
0.0
 10
458.288166
 20
378.559354
 30
0.0
  0
SPLINE
  5
170
100
AcDbEntity
  8
cleaned
 62
3
100
AcDbSpline
 70
8
 71
3
 72
8
 73
4
 74
0
 40
0
 40
0
 40
0
 40
0
 40
1
 40
1
 40
1
 40
1
 10
458.288166
 20
378.559354
 30
0.0
 10
459.434496
 20
378.559354
 30
0.0
 10
460.347344
 20
377.646591
 30
0.0
 10
460.347344
 20
376.500205
 30
0.0
  0
LWPOLYLINE
  5
171
100
AcDbEntity
  8
cleaned
 62
3
100
AcDbPolyline
 90
2
 70
1
 10
430.247356
 20
376.500205
 30
0.0
 10
430.247356
 20
376.500205
 30
0.0
  0
SPLINE
  5
172
100
AcDbEntity
  8
cleaned
 62
3
100
AcDbSpline
 70
8
 71
3
 72
8
 73
4
 74
0
 40
0
 40
0
 40
0
 40
0
 40
1
 40
1
 40
1
 40
1
 10
71.109355
 20
376.500205
 30
0.0
 10
71.109355
 20
375.353846
 30
0.0
 10
70.196507
 20
374.440998
 30
0.0
 10
69.050177
 20
374.440998
 30
0.0
  0
SPLINE
  5
173
100
AcDbEntity
  8
cleaned
 62
3
100
AcDbSpline
 70
8
 71
3
 72
8
 73
4
 74
0
 40
0
 40
0
 40
0
 40
0
 40
1
 40
1
 40
1
 40
1
 10
69.050177
 20
374.440998
 30
0.0
 10
67.903819
 20
374.440998
 30
0.0
 10
66.990999
 20
375.353846
 30
0.0
 10
66.990999
 20
376.500205
 30
0.0
  0
SPLINE
  5
174
100
AcDbEntity
  8
cleaned
 62
3
100
AcDbSpline
 70
8
 71
3
 72
8
 73
4
 74
0
 40
0
 40
0
 40
0
 40
0
 40
1
 40
1
 40
1
 40
1
 10
66.990999
 20
376.500205
 30
0.0
 10
66.990999
 20
377.646591
 30
0.0
 10
67.903819
 20
378.559354
 30
0.0
 10
69.050177
 20
378.559354
 30
0.0
  0
SPLINE
  5
175
100
AcDbEntity
  8
cleaned
 62
3
100
AcDbSpline
 70
8
 71
3
 72
8
 73
4
 74
0
 40
0
 40
0
 40
0
 40
0
 40
1
 40
1
 40
1
 40
1
 10
69.050177
 20
378.559354
 30
0.0
 10
70.196507
 20
378.559354
 30
0.0
 10
71.109355
 20
377.646591
 30
0.0
 10
71.109355
 20
376.500205
 30
0.0
  0
LWPOLYLINE
  5
176
100
AcDbEntity
  8
cleaned
 62
3
100
AcDbPolyline
 90
2
 70
1
 10
460.347344
 20
376.500205
 30
0.0
 10
460.347344
 20
376.500205
 30
0.0
  0
SPLINE
  5
177
100
AcDbEntity
  8
cleaned
 62
3
100
AcDbSpline
 70
8
 71
3
 72
8
 73
4
 74
0
 40
0
 40
0
 40
0
 40
0
 40
1
 40
1
 40
1
 40
1
 10
41.009356
 20
376.500205
 30
0.0
 10
41.009356
 20
375.353846
 30
0.0
 10
40.096508
 20
374.440998
 30
0.0
 10
38.950178
 20
374.440998
 30
0.0
  0
SPLINE
  5
178
100
AcDbEntity
  8
cleaned
 62
3
100
AcDbSpline
 70
8
 71
3
 72
8
 73
4
 74
0
 40
0
 40
0
 40
0
 40
0
 40
1
 40
1
 40
1
 40
1
 10
38.950178
 20
374.440998
 30
0.0
 10
37.803820
 20
374.440998
 30
0.0
 10
36.891000
 20
375.353846
 30
0.0
 10
36.891000
 20
376.500205
 30
0.0
  0
SPLINE
  5
179
100
AcDbEntity
  8
cleaned
 62
3
100
AcDbSpline
 70
8
 71
3
 72
8
 73
4
 74
0
 40
0
 40
0
 40
0
 40
0
 40
1
 40
1
 40
1
 40
1
 10
36.891000
 20
376.500205
 30
0.0
 10
36.891000
 20
377.646591
 30
0.0
 10
37.803820
 20
378.559354
 30
0.0
 10
38.950178
 20
378.559354
 30
0.0
  0
SPLINE
  5
17a
100
AcDbEntity
  8
cleaned
 62
3
100
AcDbSpline
 70
8
 71
3
 72
8
 73
4
 74
0
 40
0
 40
0
 40
0
 40
0
 40
1
 40
1
 40
1
 40
1
 10
38.950178
 20
378.559354
 30
0.0
 10
40.096508
 20
378.559354
 30
0.0
 10
41.009356
 20
377.646591
 30
0.0
 10
41.009356
 20
376.500205
 30
0.0
  0
LWPOLYLINE
  5
17b
100
AcDbEntity
  8
cleaned
 62
3
100
AcDbPolyline
 90
2
 70
1
 10
71.109355
 20
376.500205
 30
0.0
 10
71.109355
 20
376.500205
 30
0.0
  0
LWPOLYLINE
  5
17c
100
AcDbEntity
  8
cleaned
 62
3
100
AcDbPolyline
 90
2
 70
1
 10
41.009356
 20
376.500205
 30
0.0
 10
41.009356
 20
376.500205
 30
0.0
  0
LWPOLYLINE
  5
17d
100
AcDbEntity
  8
cleaned
 62
7
100
AcDbPolyline
 90
2
 70
0
 10
100.659558
 20
0.274186
 30
0.0
 10
100.659558
 20
278.374184
 30
0.0
  0
LWPOLYLINE
  5
17e
100
AcDbEntity
  8
cleaned
 62
7
100
AcDbPolyline
 90
2
 70
0
 10
105.660000
 20
283.374184
 30
0.0
 10
415.664999
 20
283.374184
 30
0.0
  0
LWPOLYLINE
  5
17f
100
AcDbEntity
  8
cleaned
 62
7
100
AcDbPolyline
 90
2
 70
0
 10
509.676001
 20
484.274406
 30
0.0
 10
25.160000
 20
484.274406
 30
0.0
  0
LWPOLYLINE
  5
180
100
AcDbEntity
  8
cleaned
 62
7
100
AcDbPolyline
 90
2
 70
0
 10
0.159559
 20
459.274185
 30
0.0
 10
0.159559
 20
0.274186
 30
0.0
  0
LWPOLYLINE
  5
181
100
AcDbEntity
  8
cleaned
 62
7
100
AcDbPolyline
 90
2
 70
0
 10
0.017900
 20
0.132651
 30
0.0
 10
100.782900
 20
0.132651
 30
0.0
  0
LWPOLYLINE
  5
182
100
AcDbEntity
  8
cleaned
 62
7
100
AcDbPolyline
 90
4
 70
0
 10
420.659258
 20
278.374095
 30
0.0
 10
420.659258
 20
0.274106
 30
0.0
 10
534.659256
 20
0.274106
 30
0.0
 10
534.659256
 20
459.274106
 30
0.0
  0
LWPOLYLINE
  5
183
100
AcDbEntity
  8
cleaned
 62
7
100
AcDbPolyline
 90
18
 70
0
 10
100.659558
 20
278.374184
 30
0.0
 10
100.665569
 20
278.623184
 30
0.0
 10
100.715559
 20
279.119184
 30
0.0
 10
100.814557
 20
279.608184
 30
0.0
 10
100.961558
 20
280.084184
 30
0.0
 10
101.154559
 20
280.543184
 30
0.0
 10
101.393559
 20
280.981184
 30
0.0
 10
101.673560
 20
281.393184
 30
0.0
 10
101.994559
 20
281.775184
 30
0.0
 10
102.351559
 20
282.123184
 30
0.0
 10
102.740557
 20
282.434184
 30
0.0
 10
103.159559
 20
282.704184
 30
0.0
 10
103.603559
 20
282.932184
 30
0.0
 10
104.067558
 20
283.114184
 30
0.0
 10
104.546560
 20
283.249184
 30
0.0
 10
105.037558
 20
283.335184
 30
0.0
 10
105.534557
 20
283.372184
 30
0.0
 10
105.659559
 20
283.374188
 30
0.0
  0
LWPOLYLINE
  5
184
100
AcDbEntity
  8
cleaned
 62
7
100
AcDbPolyline
 90
19
 70
0
 10
25.159559
 20
484.274140
 30
0.0
 10
22.980558
 20
484.179139
 30
0.0
 10
20.818558
 20
483.894139
 30
0.0
 10
18.689559
 20
483.422140
 30
0.0
 10
16.608559
 20
482.766140
 30
0.0
 10
14.594559
 20
481.932139
 30
0.0
 10
12.659559
 20
480.925139
 30
0.0
 10
10.820560
 20
479.753138
 30
0.0
 10
9.089558
 20
478.425138
 30
0.0
 10
7.481557
 20
476.952139
 30
0.0
 10
6.008558
 20
475.344138
 30
0.0
 10
4.680558
 20
473.613139
 30
0.0
 10
3.508557
 20
471.774140
 30
0.0
 10
2.501557
 20
469.839140
 30
0.0
 10
1.667559
 20
467.825140
 30
0.0
 10
1.011559
 20
465.744140
 30
0.0
 10
0.539560
 20
463.615138
 30
0.0
 10
0.254557
 20
461.453141
 30
0.0
 10
0.159559
 20
459.274140
 30
0.0
  0
LWPOLYLINE
  5
185
100
AcDbEntity
  8
cleaned
 62
7
100
AcDbPolyline
 90
17
 70
0
 10
415.659268
 20
283.374093
 30
0.0
 10
416.033269
 20
283.360095
 30
0.0
 10
416.527271
 20
283.298094
 30
0.0
 10
417.013258
 20
283.187093
 30
0.0
 10
417.486262
 20
283.028095
 30
0.0
 10
417.940273
 20
282.823094
 30
0.0
 10
418.372271
 20
282.574095
 30
0.0
 10
418.776272
 20
282.283093
 30
0.0
 10
419.150273
 20
281.953093
 30
0.0
 10
419.489278
 20
281.588095
 30
0.0
 10
419.790268
 20
281.191093
 30
0.0
 10
420.050279
 20
280.765093
 30
0.0
 10
420.266264
 20
280.316094
 30
0.0
 10
420.437262
 20
279.848094
 30
0.0
 10
420.560255
 20
279.365093
 30
0.0
 10
420.634253
 20
278.872093
 30
0.0
 10
420.659371
 20
278.374095
 30
0.0
  0
LWPOLYLINE
  5
186
100
AcDbEntity
  8
cleaned
 62
7
100
AcDbPolyline
 90
19
 70
0
 10
509.682956
 20
484.274118
 30
0.0
 10
511.861966
 20
484.179116
 30
0.0
 10
514.023986
 20
483.894117
 30
0.0
 10
516.152985
 20
483.422117
 30
0.0
 10
518.233979
 20
482.766117
 30
0.0
 10
520.247973
 20
481.932116
 30
0.0
 10
522.182974
 20
480.925117
 30
0.0
 10
524.021962
 20
479.753115
 30
0.0
 10
525.752972
 20
478.425116
 30
0.0
 10
527.360961
 20
476.952116
 30
0.0
 10
528.833964
 20
475.344118
 30
0.0
 10
530.161960
 20
473.613120
 30
0.0
 10
531.333973
 20
471.774117
 30
0.0
 10
532.340970
 20
469.839120
 30
0.0
 10
533.174965
 20
467.825117
 30
0.0
 10
533.830962
 20
465.744118
 30
0.0
 10
534.302979
 20
463.615115
 30
0.0
 10
534.587967
 20
461.453118
 30
0.0
 10
534.682963
 20
459.274120
 30
0.0
  0
LWPOLYLINE
  5
187
100
AcDbEntity
  8
cleaned
 62
3
100
AcDbPolyline
 90
2
 70
0
 10
12.520720
 20
56.155380
 30
0.0
 10
12.520720
 20
66.155380
 30
0.0
  0
SPLINE
  5
188
100
AcDbEntity
  8
cleaned
 62
3
100
AcDbSpline
 70
8
 71
3
 72
8
 73
4
 74
0
 40
0
 40
0
 40
0
 40
0
 40
1
 40
1
 40
1
 40
1
 10
16.638435
 20
56.155347
 30
0.0
 10
16.638438
 20
55.018107
 30
0.0
 10
15.716522
 20
54.096191
 30
0.0
 10
14.579283
 20
54.096191
 30
0.0
  0
SPLINE
  5
189
100
AcDbEntity
  8
cleaned
 62
3
100
AcDbSpline
 70
8
 71
3
 72
8
 73
4
 74
0
 40
0
 40
0
 40
0
 40
0
 40
1
 40
1
 40
1
 40
1
 10
14.579283
 20
54.096191
 30
0.0
 10
13.442043
 20
54.096191
 30
0.0
 10
12.520127
 20
55.018107
 30
0.0
 10
12.520130
 20
56.155347
 30
0.0
  0
SPLINE
  5
18a
100
AcDbEntity
  8
cleaned
 62
3
100
AcDbSpline
 70
8
 71
3
 72
8
 73
4
 74
0
 40
0
 40
0
 40
0
 40
0
 40
1
 40
1
 40
1
 40
1
 10
12.520559
 20
66.146287
 30
0.0
 10
12.520559
 20
67.283527
 30
0.0
 10
13.442475
 20
68.205440
 30
0.0
 10
14.579714
 20
68.205440
 30
0.0
  0
SPLINE
  5
18b
100
AcDbEntity
  8
cleaned
 62
3
100
AcDbSpline
 70
8
 71
3
 72
8
 73
4
 74
0
 40
0
 40
0
 40
0
 40
0
 40
1
 40
1
 40
1
 40
1
 10
14.579714
 20
68.205440
 30
0.0
 10
15.716954
 20
68.205440
 30
0.0
 10
16.638867
 20
67.283527
 30
0.0
 10
16.638867
 20
66.146287
 30
0.0
  0
LWPOLYLINE
  5
18c
100
AcDbEntity
  8
cleaned
 62
3
100
AcDbPolyline
 90
2
 70
0
 10
16.638720
 20
56.155380
 30
0.0
 10
16.638720
 20
66.155380
 30
0.0
  0
LWPOLYLINE
  5
18d
100
AcDbEntity
  8
cleaned
 62
3
100
AcDbPolyline
 90
2
 70
0
 10
42.630425
 20
56.155691
 30
0.0
 10
42.630425
 20
66.155691
 30
0.0
  0
SPLINE
  5
18e
100
AcDbEntity
  8
cleaned
 62
3
100
AcDbSpline
 70
8
 71
3
 72
8
 73
4
 74
0
 40
0
 40
0
 40
0
 40
0
 40
1
 40
1
 40
1
 40
1
 10
46.748140
 20
56.155657
 30
0.0
 10
46.748143
 20
55.018417
 30
0.0
 10
45.826227
 20
54.096502
 30
0.0
 10
44.688987
 20
54.096502
 30
0.0
  0
SPLINE
  5
18f
100
AcDbEntity
  8
cleaned
 62
3
100
AcDbSpline
 70
8
 71
3
 72
8
 73
4
 74
0
 40
0
 40
0
 40
0
 40
0
 40
1
 40
1
 40
1
 40
1
 10
44.688987
 20
54.096502
 30
0.0
 10
43.551747
 20
54.096502
 30
0.0
 10
42.629832
 20
55.018417
 30
0.0
 10
42.629835
 20
56.155657
 30
0.0
  0
SPLINE
  5
190
100
AcDbEntity
  8
cleaned
 62
3
100
AcDbSpline
 70
8
 71
3
 72
8
 73
4
 74
0
 40
0
 40
0
 40
0
 40
0
 40
1
 40
1
 40
1
 40
1
 10
42.630264
 20
66.146597
 30
0.0
 10
42.630264
 20
67.283837
 30
0.0
 10
43.552179
 20
68.205750
 30
0.0
 10
44.689419
 20
68.205750
 30
0.0
  0
SPLINE
  5
191
100
AcDbEntity
  8
cleaned
 62
3
100
AcDbSpline
 70
8
 71
3
 72
8
 73
4
 74
0
 40
0
 40
0
 40
0
 40
0
 40
1
 40
1
 40
1
 40
1
 10
44.689419
 20
68.205750
 30
0.0
 10
45.826659
 20
68.205750
 30
0.0
 10
46.748572
 20
67.283837
 30
0.0
 10
46.748572
 20
66.146597
 30
0.0
  0
LWPOLYLINE
  5
192
100
AcDbEntity
  8
cleaned
 62
3
100
AcDbPolyline
 90
2
 70
0
 10
46.748425
 20
56.155691
 30
0.0
 10
46.748425
 20
66.155691
 30
0.0
  0
LWPOLYLINE
  5
193
100
AcDbEntity
  8
cleaned
 62
3
100
AcDbPolyline
 90
2
 70
0
 10
443.514109
 20
56.155035
 30
0.0
 10
443.514109
 20
66.155035
 30
0.0
  0
SPLINE
  5
194
100
AcDbEntity
  8
cleaned
 62
3
100
AcDbSpline
 70
8
 71
3
 72
8
 73
4
 74
0
 40
0
 40
0
 40
0
 40
0
 40
1
 40
1
 40
1
 40
1
 10
447.631824
 20
56.155001
 30
0.0
 10
447.631827
 20
55.017761
 30
0.0
 10
446.709912
 20
54.095846
 30
0.0
 10
445.572672
 20
54.095846
 30
0.0
  0
SPLINE
  5
195
100
AcDbEntity
  8
cleaned
 62
3
100
AcDbSpline
 70
8
 71
3
 72
8
 73
4
 74
0
 40
0
 40
0
 40
0
 40
0
 40
1
 40
1
 40
1
 40
1
 10
445.572672
 20
54.095846
 30
0.0
 10
444.435432
 20
54.095846
 30
0.0
 10
443.513516
 20
55.017761
 30
0.0
 10
443.513519
 20
56.155001
 30
0.0
  0
SPLINE
  5
196
100
AcDbEntity
  8
cleaned
 62
3
100
AcDbSpline
 70
8
 71
3
 72
8
 73
4
 74
0
 40
0
 40
0
 40
0
 40
0
 40
1
 40
1
 40
1
 40
1
 10
443.513948
 20
66.145942
 30
0.0
 10
443.513948
 20
67.283181
 30
0.0
 10
444.435864
 20
68.205094
 30
0.0
 10
445.573104
 20
68.205094
 30
0.0
  0
SPLINE
  5
197
100
AcDbEntity
  8
cleaned
 62
3
100
AcDbSpline
 70
8
 71
3
 72
8
 73
4
 74
0
 40
0
 40
0
 40
0
 40
0
 40
1
 40
1
 40
1
 40
1
 10
445.573104
 20
68.205094
 30
0.0
 10
446.710343
 20
68.205094
 30
0.0
 10
447.632256
 20
67.283181
 30
0.0
 10
447.632256
 20
66.145942
 30
0.0
  0
LWPOLYLINE
  5
198
100
AcDbEntity
  8
cleaned
 62
3
100
AcDbPolyline
 90
2
 70
0
 10
447.632109
 20
56.155035
 30
0.0
 10
447.632109
 20
66.155035
 30
0.0
  0
LWPOLYLINE
  5
199
100
AcDbEntity
  8
cleaned
 62
3
100
AcDbPolyline
 90
2
 70
0
 10
473.623814
 20
56.155345
 30
0.0
 10
473.623814
 20
66.155345
 30
0.0
  0
SPLINE
  5
19a
100
AcDbEntity
  8
cleaned
 62
3
100
AcDbSpline
 70
8
 71
3
 72
8
 73
4
 74
0
 40
0
 40
0
 40
0
 40
0
 40
1
 40
1
 40
1
 40
1
 10
477.741529
 20
56.155312
 30
0.0
 10
477.741532
 20
55.018072
 30
0.0
 10
476.819616
 20
54.096156
 30
0.0
 10
475.682376
 20
54.096156
 30
0.0
  0
SPLINE
  5
19b
100
AcDbEntity
  8
cleaned
 62
3
100
AcDbSpline
 70
8
 71
3
 72
8
 73
4
 74
0
 40
0
 40
0
 40
0
 40
0
 40
1
 40
1
 40
1
 40
1
 10
475.682376
 20
54.096156
 30
0.0
 10
474.545137
 20
54.096156
 30
0.0
 10
473.623221
 20
55.018072
 30
0.0
 10
473.623224
 20
56.155312
 30
0.0
  0
SPLINE
  5
19c
100
AcDbEntity
  8
cleaned
 62
3
100
AcDbSpline
 70
8
 71
3
 72
8
 73
4
 74
0
 40
0
 40
0
 40
0
 40
0
 40
1
 40
1
 40
1
 40
1
 10
473.623653
 20
66.146252
 30
0.0
 10
473.623653
 20
67.283492
 30
0.0
 10
474.545568
 20
68.205405
 30
0.0
 10
475.682808
 20
68.205405
 30
0.0
  0
SPLINE
  5
19d
100
AcDbEntity
  8
cleaned
 62
3
100
AcDbSpline
 70
8
 71
3
 72
8
 73
4
 74
0
 40
0
 40
0
 40
0
 40
0
 40
1
 40
1
 40
1
 40
1
 10
475.682808
 20
68.205405
 30
0.0
 10
476.820048
 20
68.205405
 30
0.0
 10
477.741961
 20
67.283492
 30
0.0
 10
477.741961
 20
66.146252
 30
0.0
  0
LWPOLYLINE
  5
19e
100
AcDbEntity
  8
cleaned
 62
3
100
AcDbPolyline
 90
2
 70
0
 10
477.741814
 20
56.155345
 30
0.0
 10
477.741814
 20
66.155345
 30
0.0
  0
LWPOLYLINE
  5
19f
100
AcDbEntity
  8
cleaned
 62
7
100
AcDbPolyline
 90
2
 70
0
 10
484.199982
 20
25.235985
 30
0.0
 10
464.199993
 20
25.235985
 30
0.0
  0
SPLINE
  5
1a0
100
AcDbEntity
  8
cleaned
 62
7
100
AcDbSpline
 70
8
 71
3
 72
8
 73
4
 74
0
 40
0
 40
0
 40
0
 40
0
 40
1
 40
1
 40
1
 40
1
 10
464.199702
 20
25.236456
 30
0.0
 10
461.909159
 20
25.236456
 30
0.0
 10
459.340739
 20
27.411881
 30
0.0
 10
459.340739
 20
30.095420
 30
0.0
  0
SPLINE
  5
1a1
100
AcDbEntity
  8
cleaned
 62
7
100
AcDbSpline
 70
8
 71
3
 72
8
 73
4
 74
0
 40
0
 40
0
 40
0
 40
0
 40
1
 40
1
 40
1
 40
1
 10
459.340739
 20
30.095420
 30
0.0
 10
459.340739
 20
32.778958
 30
0.0
 10
461.516164
 20
34.954383
 30
0.0
 10
464.199702
 20
34.954383
 30
0.0
  0
SPLINE
  5
1a2
100
AcDbEntity
  8
cleaned
 62
7
100
AcDbSpline
 70
8
 71
3
 72
8
 73
4
 74
0
 40
0
 40
0
 40
0
 40
0
 40
1
 40
1
 40
1
 40
1
 10
484.199719
 20
34.954665
 30
0.0
 10
486.883257
 20
34.954665
 30
0.0
 10
489.058682
 20
32.779240
 30
0.0
 10
489.058682
 20
30.095702
 30
0.0
  0
SPLINE
  5
1a3
100
AcDbEntity
  8
cleaned
 62
7
100
AcDbSpline
 70
8
 71
3
 72
8
 73
4
 74
0
 40
0
 40
0
 40
0
 40
0
 40
1
 40
1
 40
1
 40
1
 10
489.058682
 20
30.095702
 30
0.0
 10
489.058682
 20
27.412164
 30
0.0
 10
486.883257
 20
25.236738
 30
0.0
 10
484.199719
 20
25.236738
 30
0.0
  0
LWPOLYLINE
  5
1a4
100
AcDbEntity
  8
cleaned
 62
7
100
AcDbPolyline
 90
2
 70
0
 10
484.199982
 20
34.953996
 30
0.0
 10
464.199993
 20
34.953996
 30
0.0
  0
LWPOLYLINE
  5
1a5
100
AcDbEntity
  8
cleaned
 62
1
100
AcDbPolyline
 90
2
 70
0
 10
53.641000
 20
0.213477
 30
0.0
 10
53.641000
 20
484.213482
 30
0.0
  0
LWPOLYLINE
  5
1a6
100
AcDbEntity
  8
cleaned
 62
1
100
AcDbPolyline
 90
2
 70
0
 10
437.091000
 20
484.273898
 30
0.0
 10
437.091000
 20
330.155898
 30
0.0
  0
SPLINE
  5
1a7
100
AcDbEntity
  8
cleaned
 62
3
100
AcDbSpline
 70
8
 71
3
 72
8
 73
4
 74
0
 40
0
 40
0
 40
0
 40
0
 40
1
 40
1
 40
1
 40
1
 10
171.509364
 20
303.785206
 30
0.0
 10
171.509364
 20
302.638848
 30
0.0
 10
170.596525
 20
301.726000
 30
0.0
 10
169.450178
 20
301.726000
 30
0.0
  0
SPLINE
  5
1a8
100
AcDbEntity
  8
cleaned
 62
3
100
AcDbSpline
 70
8
 71
3
 72
8
 73
4
 74
0
 40
0
 40
0
 40
0
 40
0
 40
1
 40
1
 40
1
 40
1
 10
169.450178
 20
301.726000
 30
0.0
 10
168.303830
 20
301.726000
 30
0.0
 10
167.391000
 20
302.638848
 30
0.0
 10
167.391000
 20
303.785206
 30
0.0
  0
SPLINE
  5
1a9
100
AcDbEntity
  8
cleaned
 62
3
100
AcDbSpline
 70
8
 71
3
 72
8
 73
4
 74
0
 40
0
 40
0
 40
0
 40
0
 40
1
 40
1
 40
1
 40
1
 10
167.391000
 20
303.785206
 30
0.0
 10
167.391000
 20
304.931593
 30
0.0
 10
168.303830
 20
305.844356
 30
0.0
 10
169.450178
 20
305.844356
 30
0.0
  0
SPLINE
  5
1aa
100
AcDbEntity
  8
cleaned
 62
3
100
AcDbSpline
 70
8
 71
3
 72
8
 73
4
 74
0
 40
0
 40
0
 40
0
 40
0
 40
1
 40
1
 40
1
 40
1
 10
169.450178
 20
305.844356
 30
0.0
 10
170.596525
 20
305.844356
 30
0.0
 10
171.509364
 20
304.931593
 30
0.0
 10
171.509364
 20
303.785206
 30
0.0
  0
LWPOLYLINE
  5
1ab
100
AcDbEntity
  8
cleaned
 62
1
100
AcDbPolyline
 90
2
 70
0
 10
437.220653
 20
305.194717
 30
0.0
 10
437.220653
 20
0.153081
 30
0.0
  0
SPLINE
  5
1ac
100
AcDbEntity
  8
cleaned
 62
3
100
AcDbSpline
 70
8
 71
3
 72
8
 73
4
 74
0
 40
0
 40
0
 40
0
 40
0
 40
1
 40
1
 40
1
 40
1
 10
271.609364
 20
303.985206
 30
0.0
 10
271.609364
 20
302.838847
 30
0.0
 10
270.696525
 20
301.925999
 30
0.0
 10
269.550181
 20
301.925999
 30
0.0
  0
SPLINE
  5
1ad
100
AcDbEntity
  8
cleaned
 62
3
100
AcDbSpline
 70
8
 71
3
 72
8
 73
4
 74
0
 40
0
 40
0
 40
0
 40
0
 40
1
 40
1
 40
1
 40
1
 10
269.550181
 20
301.925999
 30
0.0
 10
268.403833
 20
301.925999
 30
0.0
 10
267.491000
 20
302.838847
 30
0.0
 10
267.491000
 20
303.985206
 30
0.0
  0
SPLINE
  5
1ae
100
AcDbEntity
  8
cleaned
 62
3
100
AcDbSpline
 70
8
 71
3
 72
8
 73
4
 74
0
 40
0
 40
0
 40
0
 40
0
 40
1
 40
1
 40
1
 40
1
 10
267.491000
 20
303.985206
 30
0.0
 10
267.491000
 20
305.131592
 30
0.0
 10
268.403833
 20
306.044355
 30
0.0
 10
269.550181
 20
306.044355
 30
0.0
  0
SPLINE
  5
1af
100
AcDbEntity
  8
cleaned
 62
3
100
AcDbSpline
 70
8
 71
3
 72
8
 73
4
 74
0
 40
0
 40
0
 40
0
 40
0
 40
1
 40
1
 40
1
 40
1
 10
269.550181
 20
306.044355
 30
0.0
 10
270.696525
 20
306.044355
 30
0.0
 10
271.609364
 20
305.131592
 30
0.0
 10
271.609364
 20
303.985206
 30
0.0
  0
LWPOLYLINE
  5
1b0
100
AcDbEntity
  8
cleaned
 62
3
100
AcDbPolyline
 90
2
 70
1
 10
171.509364
 20
303.785206
 30
0.0
 10
171.509364
 20
303.785206
 30
0.0
  0
SPLINE
  5
1b1
100
AcDbEntity
  8
cleaned
 62
3
100
AcDbSpline
 70
8
 71
3
 72
8
 73
4
 74
0
 40
0
 40
0
 40
0
 40
0
 40
1
 40
1
 40
1
 40
1
 10
371.609365
 20
303.885206
 30
0.0
 10
371.609365
 20
302.738847
 30
0.0
 10
370.696517
 20
301.826000
 30
0.0
 10
369.550187
 20
301.826000
 30
0.0
  0
SPLINE
  5
1b2
100
AcDbEntity
  8
cleaned
 62
3
100
AcDbSpline
 70
8
 71
3
 72
8
 73
4
 74
0
 40
0
 40
0
 40
0
 40
0
 40
1
 40
1
 40
1
 40
1
 10
369.550187
 20
301.826000
 30
0.0
 10
368.403828
 20
301.826000
 30
0.0
 10
367.491009
 20
302.738847
 30
0.0
 10
367.491009
 20
303.885206
 30
0.0
  0
SPLINE
  5
1b3
100
AcDbEntity
  8
cleaned
 62
3
100
AcDbSpline
 70
8
 71
3
 72
8
 73
4
 74
0
 40
0
 40
0
 40
0
 40
0
 40
1
 40
1
 40
1
 40
1
 10
367.491009
 20
303.885206
 30
0.0
 10
367.491009
 20
305.031593
 30
0.0
 10
368.403828
 20
305.944356
 30
0.0
 10
369.550187
 20
305.944356
 30
0.0
  0
SPLINE
  5
1b4
100
AcDbEntity
  8
cleaned
 62
3
100
AcDbSpline
 70
8
 71
3
 72
8
 73
4
 74
0
 40
0
 40
0
 40
0
 40
0
 40
1
 40
1
 40
1
 40
1
 10
369.550187
 20
305.944356
 30
0.0
 10
370.696517
 20
305.944356
 30
0.0
 10
371.609365
 20
305.031593
 30
0.0
 10
371.609365
 20
303.885206
 30
0.0
  0
LWPOLYLINE
  5
1b5
100
AcDbEntity
  8
cleaned
 62
3
100
AcDbPolyline
 90
2
 70
1
 10
271.609364
 20
303.985206
 30
0.0
 10
271.609364
 20
303.985206
 30
0.0
  0
LWPOLYLINE
  5
1b6
100
AcDbEntity
  8
cleaned
 62
3
100
AcDbPolyline
 90
2
 70
1
 10
371.609365
 20
303.885206
 30
0.0
 10
371.609365
 20
303.885206
 30
0.0
  0
LWPOLYLINE
  5
1b7
100
AcDbEntity
  8
cleaned
 62
1
100
AcDbPolyline
 90
2
 70
0
 10
436.982671
 20
296.736362
 30
0.0
 10
53.782771
 20
296.736362
 30
0.0
  0
ENDSEC
  0
SECTION
  2
OBJECTS
  0
DICTIONARY
  5
C
330
0
100
AcDbDictionary
  3
ACAD_GROUP
350
D
  3
ACAD_MLINESTYLE
350
17
  0
DICTIONARY
  5
D
330
C
100
AcDbDictionary
  0
DICTIONARY
  5
1A
330
C
100
AcDbDictionary
  0
DICTIONARY
  5
17
330
C
100
AcDbDictionary
  3
STANDARD
350
18
  0
DICTIONARY
  5
19
330
C
100
AcDbDictionary
  0
ENDSEC
  0
EOF
