  0
SECTION
  2
HEADER
  9
$ACADVER
  1
AC1014
  9
$HANDSEED
  5
FFFF
  9
$MEASUREMENT
 70
     1
  0
ENDSEC
  0
SECTION
  2
TABLES
  0
TABLE
  2
VPORT
  5
8
330
0
100
AcDbSymbolTable
 70
     4
  0
VPORT
  5
2E
330
8
100
AcDbSymbolTableRecord
100
AcDbViewportTableRecord
  2
*ACTIVE
 70
     0
 10
0.0
 20
0.0
 11
1.0
 21
1.0
 12
210.0
 22
148.5
 13
0.0
 23
0.0
 14
10.0
 24
10.0
 15
10.0
 25
10.0
 16
0.0
 26
0.0
 36
1.0
 17
0.0
 27
0.0
 37
0.0
 40
341.0
 41
1.24
 42
50.0
 43
0.0
 44
0.0
 50
0.0
 51
0.0
 71
     0
 72
   100
 73
     1
 74
     3
 75
     0
 76
     0
 77
     0
 78
     0
  0
ENDTAB
  0
TABLE
  2
LTYPE
  5
5
330
0
100
AcDbSymbolTable
 70
     1
  0
LTYPE
  5
14
330
5
100
AcDbSymbolTableRecord
100
AcDbLinetypeTableRecord
  2
BYBLOCK
 70
     0
  3

 72
    65
 73
     0
 40
0.0
  0
LTYPE
  5
15
330
5
100
AcDbSymbolTableRecord
100
AcDbLinetypeTableRecord
  2
BYLAYER
 70
     0
  3

 72
    65
 73
     0
 40
0.0
  0
LTYPE
  5
16
330
5
100
AcDbSymbolTableRecord
100
AcDbLinetypeTableRecord
  2
CONTINUOUS
 70
     0
  3
Solid line
 72
    65
 73
     0
 40
0.0
  0
ENDTAB
  0
TABLE
  2
LAYER
  5
2
100
AcDbSymbolTable
 70
2
  0
LAYER
  5
50
100
AcDbSymbolTableRecord
100
AcDbLayerTableRecord
  2
0
 70
0
  6
CONTINUOUS
  0
LAYER
  5
51
100
AcDbSymbolTableRecord
100
AcDbLayerTableRecord
  2
cleaned
 70
0
  6
CONTINUOUS
  0
ENDTAB
  0
TABLE
  2
STYLE
  5
3
330
0
100
AcDbSymbolTable
 70
     1
  0
STYLE
  5
11
330
3
100
AcDbSymbolTableRecord
100
AcDbTextStyleTableRecord
  2
STANDARD
 70
     0
 40
0.0
 41
1.0
 50
0.0
 71
     0
 42
2.5
  3
txt
  4

  0
ENDTAB
  0
TABLE
  2
VIEW
  5
6
330
0
100
AcDbSymbolTable
 70
     0
  0
ENDTAB
  0
TABLE
  2
UCS
  5
7
330
0
100
AcDbSymbolTable
 70
     0
  0
ENDTAB
  0
TABLE
  2
APPID
  5
9
330
0
100
AcDbSymbolTable
 70
     2
  0
APPID
  5
12
330
9
100
AcDbSymbolTableRecord
100
AcDbRegAppTableRecord
  2
ACAD
 70
     0
  0
ENDTAB
  0
TABLE
  2
DIMSTYLE
  5
A
330
0
100
AcDbSymbolTable
 70
     1
  0
DIMSTYLE
105
27
330
A
100
AcDbSymbolTableRecord
100
AcDbDimStyleTableRecord
  2
ISO-25
 70
     0
  3

  4

  5

  6

  7

 40
1.0
 41
2.5
 42
0.625
 43
3.75
 44
1.25
 45
0.0
 46
0.0
 47
0.0
 48
0.0
140
2.5
141
2.5
142
0.0
143
0.03937007874016
144
1.0
145
0.0
146
1.0
147
0.625
 71
     0
 72
     0
 73
     0
 74
     0
 75
     0
 76
     0
 77
     1
 78
     8
170
     0
171
     3
172
     1
173
     0
174
     0
175
     0
176
     0
177
     0
178
     0
270
     2
271
     2
272
     2
273
     2
274
     3
340
11
275
     0
280
     0
281
     0
282
     0
283
     0
284
     8
285
     0
286
     0
287
     3
288
     0
  0
ENDTAB
  0
TABLE
  2
BLOCK_RECORD
  5
1
330
0
100
AcDbSymbolTable
 70
     1
  0
BLOCK_RECORD
  5
1F
330
1
100
AcDbSymbolTableRecord
100
AcDbBlockTableRecord
  2
*MODEL_SPACE
  0
BLOCK_RECORD
  5
1B
330
1
100
AcDbSymbolTableRecord
100
AcDbBlockTableRecord
  2
*PAPER_SPACE
  0
ENDTAB
  0
ENDSEC
  0
SECTION
  2
BLOCKS
  0
BLOCK
  5
20
330
1F
100
AcDbEntity
  8
0
100
AcDbBlockBegin
  2
*MODEL_SPACE
 70
     0
 10
0.0
 20
0.0
 30
0.0
  3
*MODEL_SPACE
  1

  0
ENDBLK
  5
21
330
1F
100
AcDbEntity
  8
0
100
AcDbBlockEnd
  0
BLOCK
  5
1C
330
1B
100
AcDbEntity
 67
     1
  8
0
100
AcDbBlockBegin
  2
*PAPER_SPACE
  1

  0
ENDBLK
  5
1D
330
1B
100
AcDbEntity
 67
     1
  8
0
100
AcDbBlockEnd
  0
ENDSEC
  0
SECTION
  2
ENTITIES
  0
LWPOLYLINE
  5
100
100
AcDbEntity
  8
cleaned
 62
7
100
AcDbPolyline
 90
2
 70
0
 10
166.267836
 20
484.167870
 30
0.0
 10
0.267835
 20
484.167870
 30
0.0
  0
LWPOLYLINE
  5
101
100
AcDbEntity
  8
cleaned
 62
7
100
AcDbPolyline
 90
20
 70
0
 10
191.268144
 20
0.167844
 30
0.0
 10
191.268144
 20
459.167844
 30
0.0
 10
191.173148
 20
461.346873
 30
0.0
 10
190.888132
 20
463.508864
 30
0.0
 10
190.416143
 20
465.637864
 30
0.0
 10
189.760146
 20
467.718886
 30
0.0
 10
188.926151
 20
469.732880
 30
0.0
 10
187.919126
 20
471.667881
 30
0.0
 10
186.747142
 20
473.506869
 30
0.0
 10
185.419145
 20
475.237879
 30
0.0
 10
183.946142
 20
476.845868
 30
0.0
 10
182.338125
 20
478.318871
 30
0.0
 10
180.607143
 20
479.646867
 30
0.0
 10
178.768127
 20
480.818880
 30
0.0
 10
176.833126
 20
481.825877
 30
0.0
 10
174.819132
 20
482.659872
 30
0.0
 10
172.738141
 20
483.315869
 30
0.0
 10
170.609141
 20
483.787886
 30
0.0
 10
168.447150
 20
484.072874
 30
0.0
 10
166.268140
 20
484.167870
 30
0.0
  0
LWPOLYLINE
  5
102
100
AcDbEntity
  8
cleaned
 62
7
100
AcDbPolyline
 90
2
 70
0
 10
0.141000
 20
484.309018
 30
0.0
 10
0.141000
 20
330.191018
 30
0.0
  0
LWPOLYLINE
  5
103
100
AcDbEntity
  8
cleaned
 62
7
100
AcDbPolyline
 90
2
 70
0
 10
0.270656
 20
305.229837
 30
0.0
 10
0.270656
 20
0.188207
 30
0.0
  0
LWPOLYLINE
  5
104
100
AcDbEntity
  8
cleaned
 62
7
100
AcDbPolyline
 90
11
 70
0
 10
0.141000
 20
330.191018
 30
0.0
 10
2.641009
 20
330.191018
 30
0.0
 10
3.128717
 20
330.143012
 30
0.0
 10
3.597714
 20
330.000716
 30
0.0
 10
4.029939
 20
329.769717
 30
0.0
 10
4.408766
 20
329.458821
 30
0.0
 10
4.719662
 20
329.079909
 30
0.0
 10
4.950689
 20
328.647714
 30
0.0
 10
5.092957
 20
328.178717
 30
0.0
 10
5.140991
 20
327.691009
 30
0.0
 10
5.140991
 20
307.691009
 30
0.0
  0
LWPOLYLINE
  5
105
100
AcDbEntity
  8
cleaned
 62
7
100
AcDbPolyline
 90
9
 70
0
 10
5.140991
 20
307.691114
 30
0.0
 10
5.092957
 20
307.203434
 30
0.0
 10
4.950689
 20
306.734437
 30
0.0
 10
4.719662
 20
306.302214
 30
0.0
 10
4.408766
 20
305.923330
 30
0.0
 10
4.029939
 20
305.612434
 30
0.0
 10
3.597714
 20
305.381435
 30
0.0
 10
3.128717
 20
305.239111
 30
0.0
 10
2.641009
 20
305.191133
 30
0.0
  0
LWPOLYLINE
  5
106
100
AcDbEntity
  8
cleaned
 62
7
100
AcDbPolyline
 90
2
 70
0
 10
2.641009
 20
305.190834
 30
0.0
 10
0.141000
 20
305.190834
 30
0.0
  0
LWPOLYLINE
  5
107
100
AcDbEntity
  8
cleaned
 62
7
100
AcDbPolyline
 90
41
 70
0
 10
88.182427
 20
0.167830
 30
0.0
 10
88.182427
 20
2.408929
 30
0.0
 10
88.297828
 20
2.877051
 30
0.0
 10
88.521828
 20
3.303968
 30
0.0
 10
88.841642
 20
3.664874
 30
0.0
 10
89.238447
 20
3.938742
 30
0.0
 10
89.689240
 20
4.109713
 30
0.0
 10
90.167833
 20
4.167822
 30
0.0
 10
90.646425
 20
4.109713
 30
0.0
 10
91.097247
 20
3.938742
 30
0.0
 10
91.494023
 20
3.664874
 30
0.0
 10
91.813837
 20
3.303968
 30
0.0
 10
92.037837
 20
2.877051
 30
0.0
 10
92.153238
 20
2.408929
 30
0.0
 10
92.153238
 20
0.167830
 30
0.0
 10
99.267834
 20
0.167830
 30
0.0
 10
99.267834
 20
3.667837
 30
0.0
 10
99.303422
 20
4.165931
 30
0.0
 10
99.409623
 20
4.653922
 30
0.0
 10
99.584149
 20
5.121790
 30
0.0
 10
99.823445
 20
5.560109
 30
0.0
 10
100.122742
 20
5.959877
 30
0.0
 10
100.475830
 20
6.312937
 30
0.0
 10
100.875823
 20
6.612262
 30
0.0
 10
101.313832
 20
6.851530
 30
0.0
 10
101.781841
 20
7.026056
 30
0.0
 10
102.269832
 20
7.132200
 30
0.0
 10
102.767841
 20
7.167816
 30
0.0
 10
103.265822
 20
7.132228
 30
0.0
 10
103.753841
 20
7.026056
 30
0.0
 10
104.221850
 20
6.851530
 30
0.0
 10
104.659831
 20
6.612234
 30
0.0
 10
105.059824
 20
6.312937
 30
0.0
 10
105.412828
 20
5.959877
 30
0.0
 10
105.711842
 20
5.560081
 30
0.0
 10
105.951844
 20
5.121790
 30
0.0
 10
106.125834
 20
4.653922
 30
0.0
 10
106.231837
 20
4.165960
 30
0.0
 10
106.267848
 20
3.667866
 30
0.0
 10
106.267848
 20
0.167830
 30
0.0
 10
191.267862
 20
0.167830
 30
0.0
  0
LWPOLYLINE
  5
108
100
AcDbEntity
  8
cleaned
 62
7
100
AcDbPolyline
 90
11
 70
0
 10
14.670650
 20
0.188178
 30
0.0
 10
14.670650
 20
2.688188
 30
0.0
 10
14.718656
 20
3.175896
 30
0.0
 10
14.860952
 20
3.644921
 30
0.0
 10
15.091951
 20
4.077116
 30
0.0
 10
15.402847
 20
4.455943
 30
0.0
 10
15.781759
 20
4.766839
 30
0.0
 10
16.213954
 20
4.997866
 30
0.0
 10
16.682951
 20
5.140162
 30
0.0
 10
17.170659
 20
5.188168
 30
0.0
 10
37.170659
 20
5.188168
 30
0.0
  0
LWPOLYLINE
  5
109
100
AcDbEntity
  8
cleaned
 62
7
100
AcDbPolyline
 90
9
 70
0
 10
37.170555
 20
5.188168
 30
0.0
 10
37.658235
 20
5.140134
 30
0.0
 10
38.127232
 20
4.997866
 30
0.0
 10
38.559455
 20
4.766839
 30
0.0
 10
38.938338
 20
4.455943
 30
0.0
 10
39.249234
 20
4.077116
 30
0.0
 10
39.480233
 20
3.644893
 30
0.0
 10
39.622558
 20
3.175896
 30
0.0
 10
39.670536
 20
2.688188
 30
0.0
  0
LWPOLYLINE
  5
10a
100
AcDbEntity
  8
cleaned
 62
7
100
AcDbPolyline
 90
2
 70
0
 10
39.670835
 20
2.688188
 30
0.0
 10
39.670835
 20
0.188178
 30
0.0
  0
LWPOLYLINE
  5
10b
100
AcDbEntity
  8
cleaned
 62
7
100
AcDbPolyline
 90
2
 70
0
 10
39.670725
 20
0.188178
 30
0.0
 10
88.325726
 20
0.188178
 30
0.0
  0
SPLINE
  5
10c
100
AcDbEntity
  8
cleaned
 62
3
100
AcDbSpline
 70
8
 71
3
 72
8
 73
4
 74
0
 40
0
 40
0
 40
0
 40
0
 40
1
 40
1
 40
1
 40
1
 10
11.523195
 20
482.869258
 30
0.0
 10
11.839801
 20
482.869258
 30
0.0
 10
12.102644
 20
482.612397
 30
0.0
 10
12.102644
 20
482.289817
 30
0.0
  0
SPLINE
  5
10d
100
AcDbEntity
  8
cleaned
 62
3
100
AcDbSpline
 70
8
 71
3
 72
8
 73
4
 74
0
 40
0
 40
0
 40
0
 40
0
 40
1
 40
1
 40
1
 40
1
 10
12.102644
 20
482.289817
 30
0.0
 10
12.102644
 20
481.967237
 30
0.0
 10
11.839801
 20
481.710367
 30
0.0
 10
11.523195
 20
481.710367
 30
0.0
  0
SPLINE
  5
10e
100
AcDbEntity
  8
cleaned
 62
3
100
AcDbSpline
 70
8
 71
3
 72
8
 73
4
 74
0
 40
0
 40
0
 40
0
 40
0
 40
1
 40
1
 40
1
 40
1
 10
11.523195
 20
481.710367
 30
0.0
 10
11.200615
 20
481.710367
 30
0.0
 10
10.937772
 20
481.967237
 30
0.0
 10
10.937772
 20
482.289817
 30
0.0
  0
SPLINE
  5
10f
100
AcDbEntity
  8
cleaned
 62
3
100
AcDbSpline
 70
8
 71
3
 72
8
 73
4
 74
0
 40
0
 40
0
 40
0
 40
0
 40
1
 40
1
 40
1
 40
1
 10
10.937772
 20
482.289817
 30
0.0
 10
10.937772
 20
482.612397
 30
0.0
 10
11.200615
 20
482.869258
 30
0.0
 10
11.523195
 20
482.869258
 30
0.0
  0
LWPOLYLINE
  5
110
100
AcDbEntity
  8
cleaned
 62
7
100
AcDbPolyline
 90
2
 70
0
 10
0.267835
 20
0.167830
 30
0.0
 10
14.667828
 20
0.167830
 30
0.0
  0
SPLINE
  5
111
100
AcDbEntity
  8
cleaned
 62
3
100
AcDbSpline
 70
8
 71
3
 72
8
 73
4
 74
0
 40
0
 40
0
 40
0
 40
0
 40
1
 40
1
 40
1
 40
1
 10
39.975705
 20
482.875232
 30
0.0
 10
40.298285
 20
482.875232
 30
0.0
 10
40.555156
 20
482.612397
 30
0.0
 10
40.555156
 20
482.289817
 30
0.0
  0
SPLINE
  5
112
100
AcDbEntity
  8
cleaned
 62
3
100
AcDbSpline
 70
8
 71
3
 72
8
 73
4
 74
0
 40
0
 40
0
 40
0
 40
0
 40
1
 40
1
 40
1
 40
1
 10
40.555156
 20
482.289817
 30
0.0
 10
40.555156
 20
481.973210
 30
0.0
 10
40.298285
 20
481.710367
 30
0.0
 10
39.975705
 20
481.710367
 30
0.0
  0
SPLINE
  5
113
100
AcDbEntity
  8
cleaned
 62
3
100
AcDbSpline
 70
8
 71
3
 72
8
 73
4
 74
0
 40
0
 40
0
 40
0
 40
0
 40
1
 40
1
 40
1
 40
1
 10
39.975705
 20
481.710367
 30
0.0
 10
39.653125
 20
481.710367
 30
0.0
 10
39.396258
 20
481.973210
 30
0.0
 10
39.396258
 20
482.289817
 30
0.0
  0
SPLINE
  5
114
100
AcDbEntity
  8
cleaned
 62
3
100
AcDbSpline
 70
8
 71
3
 72
8
 73
4
 74
0
 40
0
 40
0
 40
0
 40
0
 40
1
 40
1
 40
1
 40
1
 10
39.396258
 20
482.289817
 30
0.0
 10
39.396258
 20
482.612397
 30
0.0
 10
39.653125
 20
482.875232
 30
0.0
 10
39.975705
 20
482.875232
 30
0.0
  0
LWPOLYLINE
  5
115
100
AcDbEntity
  8
cleaned
 62
3
100
AcDbPolyline
 90
2
 70
1
 10
11.523195
 20
482.869258
 30
0.0
 10
11.523195
 20
482.869258
 30
0.0
  0
LWPOLYLINE
  5
116
100
AcDbEntity
  8
cleaned
 62
3
100
AcDbPolyline
 90
2
 70
1
 10
39.975705
 20
482.875232
 30
0.0
 10
39.975705
 20
482.875232
 30
0.0
  0
LWPOLYLINE
  5
117
100
AcDbEntity
  8
cleaned
 62
1
100
AcDbPolyline
 90
2
 70
0
 10
53.906304
 20
484.279044
 30
0.0
 10
0.000000
 20
484.279044
 30
0.0
  0
LWPOLYLINE
  5
118
100
AcDbEntity
  8
cleaned
 62
1
100
AcDbPolyline
 90
2
 70
0
 10
0.000000
 20
296.736429
 30
0.0
 10
190.999945
 20
296.736429
 30
0.0
  0
ENDSEC
  0
SECTION
  2
OBJECTS
  0
DICTIONARY
  5
C
330
0
100
AcDbDictionary
  3
ACAD_GROUP
350
D
  3
ACAD_MLINESTYLE
350
17
  0
DICTIONARY
  5
D
330
C
100
AcDbDictionary
  0
DICTIONARY
  5
1A
330
C
100
AcDbDictionary
  0
DICTIONARY
  5
17
330
C
100
AcDbDictionary
  3
STANDARD
350
18
  0
DICTIONARY
  5
19
330
C
100
AcDbDictionary
  0
ENDSEC
  0
EOF
