  0
SECTION
  2
HEADER
  9
$ACADVER
  1
AC1014
  9
$HANDSEED
  5
FFFF
  9
$MEASUREMENT
 70
     1
  0
ENDSEC
  0
SECTION
  2
TABLES
  0
TABLE
  2
VPORT
  5
8
330
0
100
AcDbSymbolTable
 70
     4
  0
VPORT
  5
2E
330
8
100
AcDbSymbolTableRecord
100
AcDbViewportTableRecord
  2
*ACTIVE
 70
     0
 10
0.0
 20
0.0
 11
1.0
 21
1.0
 12
210.0
 22
148.5
 13
0.0
 23
0.0
 14
10.0
 24
10.0
 15
10.0
 25
10.0
 16
0.0
 26
0.0
 36
1.0
 17
0.0
 27
0.0
 37
0.0
 40
341.0
 41
1.24
 42
50.0
 43
0.0
 44
0.0
 50
0.0
 51
0.0
 71
     0
 72
   100
 73
     1
 74
     3
 75
     0
 76
     0
 77
     0
 78
     0
  0
ENDTAB
  0
TABLE
  2
LTYPE
  5
5
330
0
100
AcDbSymbolTable
 70
     1
  0
LTYPE
  5
14
330
5
100
AcDbSymbolTableRecord
100
AcDbLinetypeTableRecord
  2
BYBLOCK
 70
     0
  3

 72
    65
 73
     0
 40
0.0
  0
LTYPE
  5
15
330
5
100
AcDbSymbolTableRecord
100
AcDbLinetypeTableRecord
  2
BYLAYER
 70
     0
  3

 72
    65
 73
     0
 40
0.0
  0
LTYPE
  5
16
330
5
100
AcDbSymbolTableRecord
100
AcDbLinetypeTableRecord
  2
CONTINUOUS
 70
     0
  3
Solid line
 72
    65
 73
     0
 40
0.0
  0
ENDTAB
  0
TABLE
  2
LAYER
  5
2
100
AcDbSymbolTable
 70
1
  0
LAYER
  5
50
100
AcDbSymbolTableRecord
100
AcDbLayerTableRecord
  2
0
 70
0
  6
CONTINUOUS
  0
ENDTAB
  0
TABLE
  2
STYLE
  5
3
330
0
100
AcDbSymbolTable
 70
     1
  0
STYLE
  5
11
330
3
100
AcDbSymbolTableRecord
100
AcDbTextStyleTableRecord
  2
STANDARD
 70
     0
 40
0.0
 41
1.0
 50
0.0
 71
     0
 42
2.5
  3
txt
  4

  0
ENDTAB
  0
TABLE
  2
VIEW
  5
6
330
0
100
AcDbSymbolTable
 70
     0
  0
ENDTAB
  0
TABLE
  2
UCS
  5
7
330
0
100
AcDbSymbolTable
 70
     0
  0
ENDTAB
  0
TABLE
  2
APPID
  5
9
330
0
100
AcDbSymbolTable
 70
     2
  0
APPID
  5
12
330
9
100
AcDbSymbolTableRecord
100
AcDbRegAppTableRecord
  2
ACAD
 70
     0
  0
ENDTAB
  0
TABLE
  2
DIMSTYLE
  5
A
330
0
100
AcDbSymbolTable
 70
     1
  0
DIMSTYLE
105
27
330
A
100
AcDbSymbolTableRecord
100
AcDbDimStyleTableRecord
  2
ISO-25
 70
     0
  3

  4

  5

  6

  7

 40
1.0
 41
2.5
 42
0.625
 43
3.75
 44
1.25
 45
0.0
 46
0.0
 47
0.0
 48
0.0
140
2.5
141
2.5
142
0.0
143
0.03937007874016
144
1.0
145
0.0
146
1.0
147
0.625
 71
     0
 72
     0
 73
     0
 74
     0
 75
     0
 76
     0
 77
     1
 78
     8
170
     0
171
     3
172
     1
173
     0
174
     0
175
     0
176
     0
177
     0
178
     0
270
     2
271
     2
272
     2
273
     2
274
     3
340
11
275
     0
280
     0
281
     0
282
     0
283
     0
284
     8
285
     0
286
     0
287
     3
288
     0
  0
ENDTAB
  0
TABLE
  2
BLOCK_RECORD
  5
1
330
0
100
AcDbSymbolTable
 70
     1
  0
BLOCK_RECORD
  5
1F
330
1
100
AcDbSymbolTableRecord
100
AcDbBlockTableRecord
  2
*MODEL_SPACE
  0
BLOCK_RECORD
  5
1B
330
1
100
AcDbSymbolTableRecord
100
AcDbBlockTableRecord
  2
*PAPER_SPACE
  0
ENDTAB
  0
ENDSEC
  0
SECTION
  2
BLOCKS
  0
BLOCK
  5
20
330
1F
100
AcDbEntity
  8
0
100
AcDbBlockBegin
  2
*MODEL_SPACE
 70
     0
 10
0.0
 20
0.0
 30
0.0
  3
*MODEL_SPACE
  1

  0
ENDBLK
  5
21
330
1F
100
AcDbEntity
  8
0
100
AcDbBlockEnd
  0
BLOCK
  5
1C
330
1B
100
AcDbEntity
 67
     1
  8
0
100
AcDbBlockBegin
  2
*PAPER_SPACE
  1

  0
ENDBLK
  5
1D
330
1B
100
AcDbEntity
 67
     1
  8
0
100
AcDbBlockEnd
  0
ENDSEC
  0
SECTION
  2
ENTITIES
  0
LWPOLYLINE
  5
100
100
AcDbEntity
  8
0
 62
7
100
AcDbPolyline
 90
12
 70
0
 10
0.141111
 20
213.141119
 30
0.0
 10
0.151102
 20
2.893116
 30
0.0
 10
0.233110
 20
2.405126
 30
0.0
 10
0.394109
 20
1.936129
 30
0.0
 10
0.630109
 20
1.500124
 30
0.0
 10
0.934110
 20
1.109133
 30
0.0
 10
1.298109
 20
0.774107
 30
0.0
 10
1.713109
 20
0.503117
 30
0.0
 10
2.167111
 20
0.304122
 30
0.0
 10
2.647109
 20
0.182118
 30
0.0
 10
3.141111
 20
0.141111
 30
0.0
 10
213.389108
 20
0.150988
 30
0.0
  0
LWPOLYLINE
  5
101
100
AcDbEntity
  8
0
 62
7
100
AcDbPolyline
 90
34
 70
0
 10
213.389108
 20
0.151130
 30
0.0
 10
213.877110
 20
0.233115
 30
0.0
 10
214.346110
 20
0.394123
 30
0.0
 10
214.782109
 20
0.630117
 30
0.0
 10
215.173108
 20
0.934127
 30
0.0
 10
215.508109
 20
1.298109
 30
0.0
 10
215.779110
 20
1.713117
 30
0.0
 10
215.978111
 20
2.167128
 30
0.0
 10
216.100110
 20
2.647131
 30
0.0
 10
216.141108
 20
3.141133
 30
0.0
 10
216.131117
 20
213.389119
 30
0.0
 10
216.049109
 20
213.877118
 30
0.0
 10
215.888110
 20
214.346118
 30
0.0
 10
215.652110
 20
214.782120
 30
0.0
 10
215.348109
 20
215.173119
 30
0.0
 10
214.984110
 20
215.508120
 30
0.0
 10
214.569111
 20
215.779118
 30
0.0
 10
214.115108
 20
215.978119
 30
0.0
 10
213.635110
 20
216.100118
 30
0.0
 10
213.141108
 20
216.141119
 30
0.0
 10
126.651110
 20
216.137111
 30
0.0
 10
126.651110
 20
211.141120
 30
0.0
 10
89.631110
 20
211.141120
 30
0.0
 10
89.631110
 20
216.135119
 30
0.0
 10
2.893111
 20
216.131111
 30
0.0
 10
2.405109
 20
216.049120
 30
0.0
 10
1.936109
 20
215.888118
 30
0.0
 10
1.500110
 20
215.652118
 30
0.0
 10
1.109111
 20
215.348120
 30
0.0
 10
0.774110
 20
214.984118
 30
0.0
 10
0.503109
 20
214.569119
 30
0.0
 10
0.304109
 20
214.115119
 30
0.0
 10
0.182110
 20
213.635118
 30
0.0
 10
0.141111
 20
213.141119
 30
0.0
  0
LWPOLYLINE
  5
102
100
AcDbEntity
  8
0
 62
7
100
AcDbPolyline
 90
17
 70
0
 10
2.391111
 20
3.641118
 30
0.0
 10
2.486110
 20
4.119118
 30
0.0
 10
2.757111
 20
4.525122
 30
0.0
 10
3.163110
 20
4.796112
 30
0.0
 10
3.641110
 20
4.891108
 30
0.0
 10
4.119110
 20
4.796112
 30
0.0
 10
4.525109
 20
4.525122
 30
0.0
 10
4.796110
 20
4.119118
 30
0.0
 10
4.891109
 20
3.641118
 30
0.0
 10
4.796110
 20
3.163118
 30
0.0
 10
4.525109
 20
2.757113
 30
0.0
 10
4.119110
 20
2.486123
 30
0.0
 10
3.641110
 20
2.391127
 30
0.0
 10
3.163110
 20
2.486123
 30
0.0
 10
2.757111
 20
2.757113
 30
0.0
 10
2.486110
 20
3.163118
 30
0.0
 10
2.391111
 20
3.641118
 30
0.0
  0
LWPOLYLINE
  5
103
100
AcDbEntity
  8
0
 62
7
100
AcDbPolyline
 90
17
 70
0
 10
2.391111
 20
212.641120
 30
0.0
 10
2.486110
 20
213.119120
 30
0.0
 10
2.757111
 20
213.525119
 30
0.0
 10
3.163110
 20
213.796120
 30
0.0
 10
3.641110
 20
213.891119
 30
0.0
 10
4.119110
 20
213.796120
 30
0.0
 10
4.525109
 20
213.525119
 30
0.0
 10
4.796110
 20
213.119120
 30
0.0
 10
4.891109
 20
212.641120
 30
0.0
 10
4.796110
 20
212.163120
 30
0.0
 10
4.525109
 20
211.757118
 30
0.0
 10
4.119110
 20
211.486120
 30
0.0
 10
3.641110
 20
211.391119
 30
0.0
 10
3.163110
 20
211.486120
 30
0.0
 10
2.757111
 20
211.757118
 30
0.0
 10
2.486110
 20
212.163120
 30
0.0
 10
2.391111
 20
212.641120
 30
0.0
  0
LWPOLYLINE
  5
104
100
AcDbEntity
  8
0
 62
7
100
AcDbPolyline
 90
22
 70
0
 10
4.791109
 20
19.141129
 30
0.0
 10
4.864108
 20
19.627426
 30
0.0
 10
5.078109
 20
20.070628
 30
0.0
 10
5.412111
 20
20.431110
 30
0.0
 10
5.838111
 20
20.677011
 30
0.0
 10
6.318109
 20
20.786513
 30
0.0
 10
6.808109
 20
20.749711
 30
0.0
 10
7.266110
 20
20.570020
 30
0.0
 10
7.651109
 20
20.263414
 30
0.0
 10
7.928110
 20
19.857014
 30
0.0
 10
8.073111
 20
19.387029
 30
0.0
 10
8.073111
 20
18.895229
 30
0.0
 10
7.928110
 20
18.425216
 30
0.0
 10
7.651109
 20
18.018816
 30
0.0
 10
7.266110
 20
17.712210
 30
0.0
 10
6.808109
 20
17.532519
 30
0.0
 10
6.318109
 20
17.495717
 30
0.0
 10
5.838111
 20
17.605219
 30
0.0
 10
5.412111
 20
17.851120
 30
0.0
 10
5.078109
 20
18.211630
 30
0.0
 10
4.864108
 20
18.654832
 30
0.0
 10
4.791109
 20
19.141129
 30
0.0
  0
LWPOLYLINE
  5
105
100
AcDbEntity
  8
0
 62
7
100
AcDbPolyline
 90
22
 70
0
 10
4.791109
 20
177.141118
 30
0.0
 10
4.864108
 20
177.627418
 30
0.0
 10
5.078109
 20
178.070620
 30
0.0
 10
5.412111
 20
178.431119
 30
0.0
 10
5.838111
 20
178.677019
 30
0.0
 10
6.318109
 20
178.786519
 30
0.0
 10
6.808109
 20
178.749720
 30
0.0
 10
7.266110
 20
178.570020
 30
0.0
 10
7.651109
 20
178.263420
 30
0.0
 10
7.928110
 20
177.857020
 30
0.0
 10
8.073111
 20
177.387018
 30
0.0
 10
8.073111
 20
176.895220
 30
0.0
 10
7.928110
 20
176.425219
 30
0.0
 10
7.651109
 20
176.018819
 30
0.0
 10
7.266110
 20
175.712218
 30
0.0
 10
6.808109
 20
175.532519
 30
0.0
 10
6.318109
 20
175.495720
 30
0.0
 10
5.838111
 20
175.605219
 30
0.0
 10
5.412111
 20
175.851120
 30
0.0
 10
5.078109
 20
176.211619
 30
0.0
 10
4.864108
 20
176.654818
 30
0.0
 10
4.791109
 20
177.141118
 30
0.0
  0
LWPOLYLINE
  5
106
100
AcDbEntity
  8
0
 62
7
100
AcDbPolyline
 90
22
 70
0
 10
32.191111
 20
39.141117
 30
0.0
 10
32.264409
 20
39.627414
 30
0.0
 10
32.477809
 20
40.070616
 30
0.0
 10
32.812310
 20
40.431127
 30
0.0
 10
33.238310
 20
40.677027
 30
0.0
 10
33.717809
 20
40.786529
 30
0.0
 10
34.208311
 20
40.749728
 30
0.0
 10
34.666109
 20
40.570008
 30
0.0
 10
35.050609
 20
40.263430
 30
0.0
 10
35.327709
 20
39.857030
 30
0.0
 10
35.472709
 20
39.387018
 30
0.0
 10
35.472709
 20
38.895217
 30
0.0
 10
35.327709
 20
38.425232
 30
0.0
 10
35.050609
 20
38.018832
 30
0.0
 10
34.666109
 20
37.712226
 30
0.0
 10
34.208311
 20
37.532507
 30
0.0
 10
33.717809
 20
37.495705
 30
0.0
 10
33.238310
 20
37.605208
 30
0.0
 10
32.812310
 20
37.851108
 30
0.0
 10
32.477809
 20
38.211618
 30
0.0
 10
32.264409
 20
38.654820
 30
0.0
 10
32.191111
 20
39.141117
 30
0.0
  0
LWPOLYLINE
  5
107
100
AcDbEntity
  8
0
 62
7
100
AcDbPolyline
 90
22
 70
0
 10
32.191111
 20
197.141120
 30
0.0
 10
32.264409
 20
197.627420
 30
0.0
 10
32.477809
 20
198.070619
 30
0.0
 10
32.812310
 20
198.431118
 30
0.0
 10
33.238310
 20
198.677019
 30
0.0
 10
33.717809
 20
198.786518
 30
0.0
 10
34.208311
 20
198.749719
 30
0.0
 10
34.666109
 20
198.570020
 30
0.0
 10
35.050609
 20
198.263419
 30
0.0
 10
35.327709
 20
197.857019
 30
0.0
 10
35.472709
 20
197.387020
 30
0.0
 10
35.472709
 20
196.895220
 30
0.0
 10
35.327709
 20
196.425218
 30
0.0
 10
35.050609
 20
196.018818
 30
0.0
 10
34.666109
 20
195.712218
 30
0.0
 10
34.208311
 20
195.532518
 30
0.0
 10
33.717809
 20
195.495719
 30
0.0
 10
33.238310
 20
195.605219
 30
0.0
 10
32.812310
 20
195.851119
 30
0.0
 10
32.477809
 20
196.211618
 30
0.0
 10
32.264409
 20
196.654820
 30
0.0
 10
32.191111
 20
197.141120
 30
0.0
  0
LWPOLYLINE
  5
108
100
AcDbEntity
  8
0
 62
7
100
AcDbPolyline
 90
22
 70
0
 10
74.981110
 20
54.966531
 30
0.0
 10
75.054409
 20
55.452913
 30
0.0
 10
75.267809
 20
55.896030
 30
0.0
 10
75.602310
 20
56.256512
 30
0.0
 10
76.028310
 20
56.502525
 30
0.0
 10
76.507808
 20
56.611915
 30
0.0
 10
76.998311
 20
56.575113
 30
0.0
 10
77.456109
 20
56.395507
 30
0.0
 10
77.840609
 20
56.088816
 30
0.0
 10
78.117708
 20
55.682416
 30
0.0
 10
78.262709
 20
55.212431
 30
0.0
 10
78.262709
 20
54.720631
 30
0.0
 10
78.117708
 20
54.250618
 30
0.0
 10
77.840609
 20
53.844218
 30
0.0
 10
77.456109
 20
53.537612
 30
0.0
 10
76.998311
 20
53.357921
 30
0.0
 10
76.507808
 20
53.321119
 30
0.0
 10
76.028310
 20
53.430621
 30
0.0
 10
75.602310
 20
53.676521
 30
0.0
 10
75.267809
 20
54.037032
 30
0.0
 10
75.054409
 20
54.480206
 30
0.0
 10
74.981110
 20
54.966531
 30
0.0
  0
LWPOLYLINE
  5
109
100
AcDbEntity
  8
0
 62
7
100
AcDbPolyline
 90
22
 70
0
 10
74.981110
 20
69.615727
 30
0.0
 10
75.054409
 20
70.102024
 30
0.0
 10
75.267809
 20
70.545226
 30
0.0
 10
75.602310
 20
70.905708
 30
0.0
 10
76.028310
 20
71.151608
 30
0.0
 10
76.507808
 20
71.261111
 30
0.0
 10
76.998311
 20
71.224309
 30
0.0
 10
77.456109
 20
71.044618
 30
0.0
 10
77.840609
 20
70.738012
 30
0.0
 10
78.117708
 20
70.331612
 30
0.0
 10
78.262709
 20
69.861627
 30
0.0
 10
78.262709
 20
69.369827
 30
0.0
 10
78.117708
 20
68.899814
 30
0.0
 10
77.840609
 20
68.493414
 30
0.0
 10
77.456109
 20
68.186723
 30
0.0
 10
76.998311
 20
68.007117
 30
0.0
 10
76.507808
 20
67.970315
 30
0.0
 10
76.028310
 20
68.079732
 30
0.0
 10
75.602310
 20
68.325717
 30
0.0
 10
75.267809
 20
68.686228
 30
0.0
 10
75.054409
 20
69.129317
 30
0.0
 10
74.981110
 20
69.615727
 30
0.0
  0
LWPOLYLINE
  5
10a
100
AcDbEntity
  8
0
 62
7
100
AcDbPolyline
 90
22
 70
0
 10
74.999509
 20
153.570621
 30
0.0
 10
74.999509
 20
154.062418
 30
0.0
 10
75.144509
 20
154.532420
 30
0.0
 10
75.421609
 20
154.938820
 30
0.0
 10
75.806111
 20
155.245519
 30
0.0
 10
76.263909
 20
155.425120
 30
0.0
 10
76.754409
 20
155.461919
 30
0.0
 10
77.233910
 20
155.352518
 30
0.0
 10
77.659910
 20
155.106519
 30
0.0
 10
77.994408
 20
154.746020
 30
0.0
 10
78.207811
 20
154.302920
 30
0.0
 10
78.281109
 20
153.816518
 30
0.0
 10
78.207811
 20
153.330218
 30
0.0
 10
77.994408
 20
152.887019
 30
0.0
 10
77.659910
 20
152.526520
 30
0.0
 10
77.233910
 20
152.280620
 30
0.0
 10
76.754409
 20
152.171120
 30
0.0
 10
76.263909
 20
152.207919
 30
0.0
 10
75.806111
 20
152.387618
 30
0.0
 10
75.421609
 20
152.694219
 30
0.0
 10
75.144509
 20
153.100619
 30
0.0
 10
74.999509
 20
153.570621
 30
0.0
  0
LWPOLYLINE
  5
10b
100
AcDbEntity
  8
0
 62
7
100
AcDbPolyline
 90
22
 70
0
 10
74.999509
 20
168.219819
 30
0.0
 10
74.999509
 20
168.711620
 30
0.0
 10
75.144509
 20
169.181619
 30
0.0
 10
75.421609
 20
169.588019
 30
0.0
 10
75.806111
 20
169.894619
 30
0.0
 10
76.263909
 20
170.074319
 30
0.0
 10
76.754409
 20
170.111120
 30
0.0
 10
77.233910
 20
170.001618
 30
0.0
 10
77.659910
 20
169.755718
 30
0.0
 10
77.994408
 20
169.395219
 30
0.0
 10
78.207811
 20
168.952020
 30
0.0
 10
78.281109
 20
168.465720
 30
0.0
 10
78.207811
 20
167.979318
 30
0.0
 10
77.994408
 20
167.536218
 30
0.0
 10
77.659910
 20
167.175719
 30
0.0
 10
77.233910
 20
166.929720
 30
0.0
 10
76.754409
 20
166.820319
 30
0.0
 10
76.263909
 20
166.857118
 30
0.0
 10
75.806111
 20
167.036718
 30
0.0
 10
75.421609
 20
167.343418
 30
0.0
 10
75.144509
 20
167.749818
 30
0.0
 10
74.999509
 20
168.219819
 30
0.0
  0
LWPOLYLINE
  5
10c
100
AcDbEntity
  8
0
 62
7
100
AcDbPolyline
 90
22
 70
0
 10
85.849510
 20
205.895219
 30
0.0
 10
85.849510
 20
206.387019
 30
0.0
 10
85.994510
 20
206.857018
 30
0.0
 10
86.271610
 20
207.263418
 30
0.0
 10
86.656110
 20
207.570019
 30
0.0
 10
87.113910
 20
207.749718
 30
0.0
 10
87.604410
 20
207.786520
 30
0.0
 10
88.083910
 20
207.677020
 30
0.0
 10
88.509910
 20
207.431120
 30
0.0
 10
88.844410
 20
207.070618
 30
0.0
 10
89.057810
 20
206.627419
 30
0.0
 10
89.131110
 20
206.141119
 30
0.0
 10
89.057810
 20
205.654819
 30
0.0
 10
88.844410
 20
205.211620
 30
0.0
 10
88.509910
 20
204.851118
 30
0.0
 10
88.083910
 20
204.605218
 30
0.0
 10
87.604409
 20
204.495718
 30
0.0
 10
87.113910
 20
204.532520
 30
0.0
 10
86.656110
 20
204.712220
 30
0.0
 10
86.271610
 20
205.018820
 30
0.0
 10
85.994510
 20
205.425220
 30
0.0
 10
85.849510
 20
205.895219
 30
0.0
  0
LWPOLYLINE
  5
10d
100
AcDbEntity
  8
0
 62
7
100
AcDbPolyline
 90
22
 70
0
 10
127.169510
 20
205.895219
 30
0.0
 10
127.169510
 20
206.387019
 30
0.0
 10
127.314510
 20
206.857018
 30
0.0
 10
127.591609
 20
207.263418
 30
0.0
 10
127.976110
 20
207.570019
 30
0.0
 10
128.433910
 20
207.749718
 30
0.0
 10
128.924410
 20
207.786520
 30
0.0
 10
129.403910
 20
207.677020
 30
0.0
 10
129.829910
 20
207.431120
 30
0.0
 10
130.164410
 20
207.070618
 30
0.0
 10
130.377810
 20
206.627419
 30
0.0
 10
130.451110
 20
206.141119
 30
0.0
 10
130.377810
 20
205.654819
 30
0.0
 10
130.164410
 20
205.211620
 30
0.0
 10
129.829910
 20
204.851118
 30
0.0
 10
129.403910
 20
204.605218
 30
0.0
 10
128.924410
 20
204.495718
 30
0.0
 10
128.433910
 20
204.532520
 30
0.0
 10
127.976110
 20
204.712220
 30
0.0
 10
127.591609
 20
205.018820
 30
0.0
 10
127.314510
 20
205.425220
 30
0.0
 10
127.169510
 20
205.895219
 30
0.0
  0
LWPOLYLINE
  5
10e
100
AcDbEntity
  8
0
 62
7
100
AcDbPolyline
 90
22
 70
0
 10
180.791110
 20
98.141112
 30
0.0
 10
180.864408
 20
98.627466
 30
0.0
 10
181.077811
 20
99.070611
 30
0.0
 10
181.412309
 20
99.431150
 30
0.0
 10
181.838309
 20
99.677050
 30
0.0
 10
182.317811
 20
99.786496
 30
0.0
 10
182.808310
 20
99.749751
 30
0.0
 10
183.266108
 20
99.570060
 30
0.0
 10
183.650611
 20
99.263397
 30
0.0
 10
183.927710
 20
98.857025
 30
0.0
 10
184.072711
 20
98.387041
 30
0.0
 10
184.072711
 20
97.895212
 30
0.0
 10
183.927710
 20
97.425227
 30
0.0
 10
183.650611
 20
97.018827
 30
0.0
 10
183.266108
 20
96.712221
 30
0.0
 10
182.808310
 20
96.532530
 30
0.0
 10
182.317811
 20
96.495728
 30
0.0
 10
181.838309
 20
96.605231
 30
0.0
 10
181.412309
 20
96.851131
 30
0.0
 10
181.077811
 20
97.211613
 30
0.0
 10
180.864408
 20
97.654815
 30
0.0
 10
180.791110
 20
98.141112
 30
0.0
  0
LWPOLYLINE
  5
10f
100
AcDbEntity
  8
0
 62
7
100
AcDbPolyline
 90
22
 70
0
 10
208.191108
 20
118.141129
 30
0.0
 10
208.264108
 20
118.627426
 30
0.0
 10
208.478109
 20
119.070628
 30
0.0
 10
208.812110
 20
119.431110
 30
0.0
 10
209.238111
 20
119.677010
 30
0.0
 10
209.718108
 20
119.786512
 30
0.0
 10
210.208108
 20
119.749711
 30
0.0
 10
210.666110
 20
119.570020
 30
0.0
 10
211.051109
 20
119.263414
 30
0.0
 10
211.328110
 20
118.857014
 30
0.0
 10
211.473110
 20
118.387029
 30
0.0
 10
211.473110
 20
117.895200
 30
0.0
 10
211.328110
 20
117.425216
 30
0.0
 10
211.051109
 20
117.018816
 30
0.0
 10
210.666110
 20
116.712181
 30
0.0
 10
210.208108
 20
116.532490
 30
0.0
 10
209.718108
 20
116.495717
 30
0.0
 10
209.238111
 20
116.605191
 30
0.0
 10
208.812110
 20
116.851091
 30
0.0
 10
208.478109
 20
117.211630
 30
0.0
 10
208.264108
 20
117.654775
 30
0.0
 10
208.191108
 20
118.141129
 30
0.0
  0
LWPOLYLINE
  5
110
100
AcDbEntity
  8
0
 62
7
100
AcDbPolyline
 90
17
 70
0
 10
211.391111
 20
3.641118
 30
0.0
 10
211.486109
 20
4.119118
 30
0.0
 10
211.757110
 20
4.525122
 30
0.0
 10
212.163110
 20
4.796112
 30
0.0
 10
212.641109
 20
4.891108
 30
0.0
 10
213.119109
 20
4.796112
 30
0.0
 10
213.525108
 20
4.525122
 30
0.0
 10
213.796110
 20
4.119118
 30
0.0
 10
213.891108
 20
3.641118
 30
0.0
 10
213.796110
 20
3.163118
 30
0.0
 10
213.525108
 20
2.757113
 30
0.0
 10
213.119109
 20
2.486123
 30
0.0
 10
212.641109
 20
2.391127
 30
0.0
 10
212.163110
 20
2.486123
 30
0.0
 10
211.757110
 20
2.757113
 30
0.0
 10
211.486109
 20
3.163118
 30
0.0
 10
211.391111
 20
3.641118
 30
0.0
  0
LWPOLYLINE
  5
111
100
AcDbEntity
  8
0
 62
7
100
AcDbPolyline
 90
17
 70
0
 10
211.391111
 20
212.641120
 30
0.0
 10
211.486109
 20
213.119120
 30
0.0
 10
211.757110
 20
213.525119
 30
0.0
 10
212.163110
 20
213.796120
 30
0.0
 10
212.641109
 20
213.891119
 30
0.0
 10
213.119109
 20
213.796120
 30
0.0
 10
213.525108
 20
213.525119
 30
0.0
 10
213.796110
 20
213.119120
 30
0.0
 10
213.891108
 20
212.641120
 30
0.0
 10
213.796110
 20
212.163120
 30
0.0
 10
213.525108
 20
211.757118
 30
0.0
 10
213.119109
 20
211.486120
 30
0.0
 10
212.641109
 20
211.391119
 30
0.0
 10
212.163110
 20
211.486120
 30
0.0
 10
211.757110
 20
211.757118
 30
0.0
 10
211.486109
 20
212.163120
 30
0.0
 10
211.391111
 20
212.641120
 30
0.0
  0
LWPOLYLINE
  5
112
100
AcDbEntity
  8
0
 62
7
100
AcDbPolyline
 90
17
 70
0
 10
106.891404
 20
87.141388
 30
0.0
 10
106.986403
 20
87.619388
 30
0.0
 10
107.257404
 20
88.025393
 30
0.0
 10
107.663403
 20
88.296383
 30
0.0
 10
108.141403
 20
88.391379
 30
0.0
 10
108.619403
 20
88.296383
 30
0.0
 10
109.025402
 20
88.025393
 30
0.0
 10
109.296403
 20
87.619388
 30
0.0
 10
109.391402
 20
87.141388
 30
0.0
 10
109.296403
 20
86.663388
 30
0.0
 10
109.025402
 20
86.257384
 30
0.0
 10
108.619403
 20
85.986394
 30
0.0
 10
108.141403
 20
85.891398
 30
0.0
 10
107.663403
 20
85.986394
 30
0.0
 10
107.257404
 20
86.257384
 30
0.0
 10
106.986403
 20
86.663388
 30
0.0
 10
106.891404
 20
87.141388
 30
0.0
  0
LWPOLYLINE
  5
113
100
AcDbEntity
  8
0
 62
7
100
AcDbPolyline
 90
17
 70
0
 10
106.891404
 20
128.141399
 30
0.0
 10
106.986403
 20
128.619399
 30
0.0
 10
107.257404
 20
129.025404
 30
0.0
 10
107.663403
 20
129.296394
 30
0.0
 10
108.141403
 20
129.391390
 30
0.0
 10
108.619403
 20
129.296394
 30
0.0
 10
109.025402
 20
129.025404
 30
0.0
 10
109.296403
 20
128.619399
 30
0.0
 10
109.391402
 20
128.141399
 30
0.0
 10
109.296403
 20
127.663400
 30
0.0
 10
109.025402
 20
127.257395
 30
0.0
 10
108.619403
 20
126.986405
 30
0.0
 10
108.141403
 20
126.891409
 30
0.0
 10
107.663403
 20
126.986405
 30
0.0
 10
107.257404
 20
127.257395
 30
0.0
 10
106.986403
 20
127.663400
 30
0.0
 10
106.891404
 20
128.141399
 30
0.0
  0
ENDSEC
  0
SECTION
  2
OBJECTS
  0
DICTIONARY
  5
C
330
0
100
AcDbDictionary
  3
ACAD_GROUP
350
D
  3
ACAD_MLINESTYLE
350
17
  0
DICTIONARY
  5
D
330
C
100
AcDbDictionary
  0
DICTIONARY
  5
1A
330
C
100
AcDbDictionary
  0
DICTIONARY
  5
17
330
C
100
AcDbDictionary
  3
STANDARD
350
18
  0
DICTIONARY
  5
19
330
C
100
AcDbDictionary
  0
ENDSEC
  0
EOF
