0
SECTION
2
HEADER
9
$INSUNITS
70
4
9
$ACADVER
1
AC1014
9
$HANDSEED
5
FFFF
0
ENDSEC
0
SECTION
2
TABLES
0
TABLE
2
VPORT
5
8
100
AcDbSymbolTable
0
ENDTAB
0
TABLE
2
LTYPE
5
5
100
AcDbSymbolTable
0
LTYPE
5
14
100
AcDbSymbolTableRecord
100
AcDbLinetypeTableRecord
2
BYBLOCK
70
0
0
LTYPE
5
15
100
AcDbSymbolTableRecord
100
AcDbLinetypeTableRecord
2
BYLAYER
70
0
0
ENDTAB
0
TABLE
2
LAYER
5
2
100
AcDbSymbolTable
70
2
0
LAYER
5
50
100
AcDbSymbolTableRecord
100
AcDbLayerTableRecord
2
0
70
0
6
CONTINUOUS
0
ENDTAB
0
TABLE
2
STYLE
5
3
100
AcDbSymbolTable
70
1
0
STYLE
5
11
100
AcDbSymbolTableRecord
100
AcDbTextStyleTableRecord
2
STANDARD
70
0
0
ENDTAB
0
TABLE
2
VIEW
5
6
100
AcDbSymbolTable
70
0
0
ENDTAB
0
TABLE
2
UCS
5
7
100
AcDbSymbolTable
70
0
0
ENDTAB
0
TABLE
2
APPID
5
9
100
AcDbSymbolTable
70
2
0
APPID
5
12
100
AcDbSymbolTableRecord
100
AcDbRegAppTableRecord
2
ACAD
70
0
0
ENDTAB
0
TABLE
2
DIMSTYLE
5
A
100
AcDbSymbolTable
70
1
0
ENDTAB
0
TABLE
2
BLOCK_RECORD
5
1
100
AcDbSymbolTable
70
1
0
BLOCK_RECORD
5
1F
100
AcDbSymbolTableRecord
100
AcDbBlockTableRecord
2
*MODEL_SPACE
0
BLOCK_RECORD
5
1B
100
AcDbSymbolTableRecord
100
AcDbBlockTableRecord
2
*PAPER_SPACE
0
ENDTAB
0
ENDSEC
0
SECTION
2
BLOCKS
0
BLOCK
5
20
100
AcDbEntity
100
AcDbBlockBegin
2
*MODEL_SPACE
0
ENDBLK
5
21
100
AcDbEntity
100
AcDbBlockEnd
0
BLOCK
5
1C
100
AcDbEntity
100
AcDbBlockBegin
2
*PAPER_SPACE
0
ENDBLK
5
1D
100
AcDbEntity
100
AcDbBlockEnd
0
ENDSEC
0
SECTION
2
ENTITIES
0
SPLINE
5
100
100
AcDbEntity
8
0
100
AcDbSpline
70
1064
71
3
72
8
73
4
74
0
42
0.000000001
43
0.0000000001
44
0.0000000001
40
0
40
0
40
0
40
0
40
1
40
1
40
1
40
1
10
65.39494312500014
20
410.73220662500012
30
-22
10
64.504964125000143
20
410.74067362500017
30
-22
10
63.778709125000141
20
410.02241962500011
30
-22
10
63.778709125000141
20
409.13228962500011
30
-22
0
SPLINE
5
101
100
AcDbEntity
8
0
100
AcDbSpline
70
1064
71
3
72
8
73
4
74
0
42
0.000000001
43
0.0000000001
44
0.0000000001
40
0
40
0
40
0
40
0
40
1
40
1
40
1
40
1
10
66.994984125000059
20
65.882457625000058
30
-22
10
66.994984125000059
20
66.766112625000005
30
-22
10
66.278625125000062
20
67.482392625000045
30
-22
10
65.394943125000069
20
67.482392625000045
30
-22
0
SPLINE
5
102
100
AcDbEntity
8
0
100
AcDbSpline
70
1064
71
3
72
8
73
4
74
0
42
0.000000001
43
0.0000000001
44
0.0000000001
40
0
40
0
40
0
40
0
40
1
40
1
40
1
40
1
10
65.394943125000054
20
47.482432625000079
30
-22
10
64.511235125000056
20
47.482432625000079
30
-22
10
63.794875125000061
20
46.76615262500011
30
-22
10
63.794875125000061
20
45.88249762500002
30
-22
0
SPLINE
5
103
100
AcDbEntity
8
0
100
AcDbSpline
70
1064
71
3
72
8
73
4
74
0
42
0.000000001
43
0.0000000001
44
0.0000000001
40
0
40
0
40
0
40
0
40
1
40
1
40
1
40
1
10
251.39500612500015
20
294.73238262500007
30
-22
10
250.5113081250002
20
294.73238262500007
30
-22
10
249.79494612500019
20
294.01610262500009
30
-22
10
249.79494612500019
20
293.13246562500007
30
-22
0
SPLINE
5
104
100
AcDbEntity
8
0
100
AcDbSpline
70
1064
71
3
72
8
73
4
74
0
42
0.000000001
43
0.0000000001
44
0.0000000001
40
0
40
0
40
0
40
0
40
1
40
1
40
1
40
1
10
251.39500612500015
20
291.53226562500004
30
-22
10
252.27869812500018
20
291.53226562500004
30
-22
10
252.99506312500014
20
292.24854562500008
30
-22
10
252.99506312500014
20
293.13246562500007
30
-22
0
SPLINE
5
105
100
AcDbEntity
8
0
100
AcDbSpline
70
1064
71
3
72
8
73
4
74
0
42
0.000000001
43
0.0000000001
44
0.0000000001
40
0
40
0
40
0
40
0
40
1
40
1
40
1
40
1
10
251.39500612500015
20
349.53231962500013
30
-22
10
252.27869812500018
20
349.53231962500013
30
-22
10
252.99506312500014
20
350.248599625
30
-22
10
252.99506312500014
20
351.13223662500002
30
-22
0
SPLINE
5
106
100
AcDbEntity
8
0
100
AcDbSpline
70
1064
71
3
72
8
73
4
74
0
42
0.000000001
43
0.0000000001
44
0.0000000001
40
0
40
0
40
0
40
0
40
1
40
1
40
1
40
1
10
65.394943125000054
20
44.282297624999991
30
-22
10
66.278625125000048
20
44.282297624999991
30
-22
10
66.994984125000059
20
44.998577625000031
30
-22
10
66.994984125000059
20
45.88249762500002
30
-22
0
SPLINE
5
107
100
AcDbEntity
8
0
100
AcDbSpline
70
1064
71
3
72
8
73
4
74
0
42
0.000000001
43
0.0000000001
44
0.0000000001
40
0
40
0
40
0
40
0
40
1
40
1
40
1
40
1
10
63.794875125000061
20
45.88249762500002
30
-22
10
63.794875125000061
20
44.998577625000031
30
-22
10
64.511235125000056
20
44.282297624999991
30
-22
10
65.394943125000054
20
44.282297624999991
30
-22
0
SPLINE
5
108
100
AcDbEntity
8
0
100
AcDbSpline
70
1064
71
3
72
8
73
4
74
0
42
0.000000001
43
0.0000000001
44
0.0000000001
40
0
40
0
40
0
40
0
40
1
40
1
40
1
40
1
10
63.794875125000061
20
65.882457625000058
30
-22
10
63.794875125000061
20
64.998537625000068
30
-22
10
64.511235125000056
20
64.282257625000085
30
-22
10
65.394943125000054
20
64.282257625000085
30
-22
0
SPLINE
5
109
100
AcDbEntity
8
0
100
AcDbSpline
70
1064
71
3
72
8
73
4
74
0
42
0.000000001
43
0.0000000001
44
0.0000000001
40
0
40
0
40
0
40
0
40
1
40
1
40
1
40
1
10
251.39500612500015
20
352.7324366250001
30
-22
10
250.5113081250002
20
352.7324366250001
30
-22
10
249.79494612500019
20
352.01615662500001
30
-22
10
249.79494612500019
20
351.13223662500002
30
-22
0
SPLINE
5
110
100
AcDbEntity
8
0
100
AcDbSpline
70
1064
71
3
72
8
73
4
74
0
42
0.000000001
43
0.0000000001
44
0.0000000001
40
0
40
0
40
0
40
0
40
1
40
1
40
1
40
1
10
65.39494312500014
20
390.73224662500013
30
-22
10
64.504964125000143
20
390.74071362500007
30
-22
10
63.778709125000134
20
390.02245962500012
30
-22
10
63.778709125000134
20
389.13232962500018
30
-22
0
SPLINE
5
111
100
AcDbEntity
8
0
100
AcDbSpline
70
1064
71
3
72
8
73
4
74
0
42
0.000000001
43
0.0000000001
44
0.0000000001
40
0
40
0
40
0
40
0
40
1
40
1
40
1
40
1
10
67.011150125000142
20
409.13228962500011
30
-22
10
67.011150125000142
20
410.02241962500011
30
-22
10
66.284896125000131
20
410.74123962500011
30
-22
10
65.39494312500014
20
410.73220662500012
30
-22
0
SPLINE
5
112
100
AcDbEntity
8
0
100
AcDbSpline
70
1064
71
3
72
8
73
4
74
0
42
0.000000001
43
0.0000000001
44
0.0000000001
40
0
40
0
40
0
40
0
40
1
40
1
40
1
40
1
10
66.994984125000059
20
45.88249762500002
30
-22
10
66.994984125000059
20
46.76615262500011
30
-22
10
66.278625125000062
20
47.482432625000079
30
-22
10
65.394943125000054
20
47.482432625000079
30
-22
0
SPLINE
5
113
100
AcDbEntity
8
0
100
AcDbSpline
70
1064
71
3
72
8
73
4
74
0
42
0.000000001
43
0.0000000001
44
0.0000000001
40
0
40
0
40
0
40
0
40
1
40
1
40
1
40
1
10
67.011150125000128
20
389.13232962500018
30
-22
10
67.011150125000128
20
390.02245962500012
30
-22
10
66.284896125000131
20
390.74127962500017
30
-22
10
65.39494312500014
20
390.73224662500013
30
-22
0
SPLINE
5
114
100
AcDbEntity
8
0
100
AcDbSpline
70
1064
71
3
72
8
73
4
74
0
42
0.000000001
43
0.0000000001
44
0.0000000001
40
0
40
0
40
0
40
0
40
1
40
1
40
1
40
1
10
65.39494312500014
20
407.53237262500011
30
-22
10
66.284896125000131
20
407.52390562500011
30
-22
10
67.011150125000142
20
408.24215962500011
30
-22
10
67.011150125000142
20
409.13228962500011
30
-22
0
LWPOLYLINE
5
115
100
AcDbEntity
8
0
100
AcDbPolyline
90
4
70
1
43
0.0
10
267.15272912500018
20
462.13957762500002
10
267.15272912500012
20
0.80318562500000468
10
50.387591125000043
20
0.80318562500011126
10
50.387591125000135
20
462.13957762500013
0
SPLINE
5
116
100
AcDbEntity
8
0
100
AcDbSpline
70
1064
71
3
72
8
73
4
74
0
42
0.000000001
43
0.0000000001
44
0.0000000001
40
0
40
0
40
0
40
0
40
1
40
1
40
1
40
1
10
65.394943125000069
20
67.482392625000045
30
-22
10
64.511235125000056
20
67.482392625000045
30
-22
10
63.794875125000061
20
66.766112625000005
30
-22
10
63.794875125000061
20
65.882457625000058
30
-22
0
SPLINE
5
117
100
AcDbEntity
8
0
100
AcDbSpline
70
1064
71
3
72
8
73
4
74
0
42
0.000000001
43
0.0000000001
44
0.0000000001
40
0
40
0
40
0
40
0
40
1
40
1
40
1
40
1
10
65.394943125000054
20
64.282257625000085
30
-22
10
66.278625125000062
20
64.282257625000085
30
-22
10
66.994984125000059
20
64.998537625000068
30
-22
10
66.994984125000059
20
65.882457625000058
30
-22
0
SPLINE
5
118
100
AcDbEntity
8
0
100
AcDbSpline
70
1064
71
3
72
8
73
4
74
0
42
0.000000001
43
0.0000000001
44
0.0000000001
40
0
40
0
40
0
40
0
40
1
40
1
40
1
40
1
10
63.778709125000141
20
409.13228962500011
30
-22
10
63.778709125000141
20
408.24215962500011
30
-22
10
64.504964125000143
20
407.52333962500018
30
-22
10
65.39494312500014
20
407.53237262500011
30
-22
0
SPLINE
5
119
100
AcDbEntity
8
0
100
AcDbSpline
70
1064
71
3
72
8
73
4
74
0
42
0.000000001
43
0.0000000001
44
0.0000000001
40
0
40
0
40
0
40
0
40
1
40
1
40
1
40
1
10
63.778709125000134
20
389.13232962500018
30
-22
10
63.778709125000134
20
388.24219962500013
30
-22
10
64.504964125000143
20
387.52337962500008
30
-22
10
65.39494312500014
20
387.53241262500012
30
-22
0
SPLINE
5
120
100
AcDbEntity
8
0
100
AcDbSpline
70
1064
71
3
72
8
73
4
74
0
42
0.000000001
43
0.0000000001
44
0.0000000001
40
0
40
0
40
0
40
0
40
1
40
1
40
1
40
1
10
252.99506312500014
20
293.13246562500007
30
-22
10
252.99506312500014
20
294.01610262500009
30
-22
10
252.27869812500018
20
294.73238262500007
30
-22
10
251.39500612500015
20
294.73238262500007
30
-22
0
SPLINE
5
121
100
AcDbEntity
8
0
100
AcDbSpline
70
1064
71
3
72
8
73
4
74
0
42
0.000000001
43
0.0000000001
44
0.0000000001
40
0
40
0
40
0
40
0
40
1
40
1
40
1
40
1
10
249.79494612500019
20
351.13223662500002
30
-22
10
249.79494612500019
20
350.248599625
30
-22
10
250.5113081250002
20
349.53231962500013
30
-22
10
251.39500612500015
20
349.53231962500013
30
-22
0
SPLINE
5
122
100
AcDbEntity
8
0
100
AcDbSpline
70
1064
71
3
72
8
73
4
74
0
42
0.000000001
43
0.0000000001
44
0.0000000001
40
0
40
0
40
0
40
0
40
1
40
1
40
1
40
1
10
65.39494312500014
20
387.53241262500012
30
-22
10
66.284896125000131
20
387.52394562500012
30
-22
10
67.011150125000128
20
388.24219962500013
30
-22
10
67.011150125000128
20
389.13232962500018
30
-22
0
SPLINE
5
123
100
AcDbEntity
8
0
100
AcDbSpline
70
1064
71
3
72
8
73
4
74
0
42
0.000000001
43
0.0000000001
44
0.0000000001
40
0
40
0
40
0
40
0
40
1
40
1
40
1
40
1
10
252.99506312500014
20
351.13223662500002
30
-22
10
252.99506312500014
20
352.01615662500001
30
-22
10
252.27869812500018
20
352.7324366250001
30
-22
10
251.39500612500015
20
352.7324366250001
30
-22
0
SPLINE
5
124
100
AcDbEntity
8
0
100
AcDbSpline
70
1064
71
3
72
8
73
4
74
0
42
0.000000001
43
0.0000000001
44
0.0000000001
40
0
40
0
40
0
40
0
40
1
40
1
40
1
40
1
10
249.79494612500019
20
293.13246562500007
30
-22
10
249.79494612500019
20
292.24854562500008
30
-22
10
250.5113081250002
20
291.53226562500004
30
-22
10
251.39500612500015
20
291.53226562500004
30
-22
0
ENDSEC
0
SECTION
2
OBJECTS
0
DICTIONARY
5
C
100
AcDbDictionary
3
ACAD_GROUP
350
D
3
ACAD_MLINESTYLE
350
17
0
DICTIONARY
5
D
100
AcDbDictionary
0
DICTIONARY
5
1A
330
C
100
AcDbDictionary
0
DICTIONARY
5
17
100
AcDbDictionary
0
ENDSEC
0
EOF
