0
SECTION
2
HEADER
9
$INSUNITS
70
4
9
$ACADVER
1
AC1014
9
$HANDSEED
5
FFFF
0
ENDSEC
0
SECTION
2
TABLES
0
TABLE
2
VPORT
5
8
100
AcDbSymbolTable
0
ENDTAB
0
TABLE
2
LTYPE
5
5
100
AcDbSymbolTable
0
LTYPE
5
14
100
AcDbSymbolTableRecord
100
AcDbLinetypeTableRecord
2
BYBLOCK
70
0
0
LTYPE
5
15
100
AcDbSymbolTableRecord
100
AcDbLinetypeTableRecord
2
BYLAYER
70
0
0
ENDTAB
0
TABLE
2
LAYER
5
2
100
AcDbSymbolTable
70
2
0
LAYER
5
50
100
AcDbSymbolTableRecord
100
AcDbLayerTableRecord
2
0
70
0
6
CONTINUOUS
0
ENDTAB
0
TABLE
2
STYLE
5
3
100
AcDbSymbolTable
70
1
0
STYLE
5
11
100
AcDbSymbolTableRecord
100
AcDbTextStyleTableRecord
2
STANDARD
70
0
0
ENDTAB
0
TABLE
2
VIEW
5
6
100
AcDbSymbolTable
70
0
0
ENDTAB
0
TABLE
2
UCS
5
7
100
AcDbSymbolTable
70
0
0
ENDTAB
0
TABLE
2
APPID
5
9
100
AcDbSymbolTable
70
2
0
APPID
5
12
100
AcDbSymbolTableRecord
100
AcDbRegAppTableRecord
2
ACAD
70
0
0
ENDTAB
0
TABLE
2
DIMSTYLE
5
A
100
AcDbSymbolTable
70
1
0
ENDTAB
0
TABLE
2
BLOCK_RECORD
5
1
100
AcDbSymbolTable
70
1
0
BLOCK_RECORD
5
1F
100
AcDbSymbolTableRecord
100
AcDbBlockTableRecord
2
*MODEL_SPACE
0
BLOCK_RECORD
5
1B
100
AcDbSymbolTableRecord
100
AcDbBlockTableRecord
2
*PAPER_SPACE
0
ENDTAB
0
ENDSEC
0
SECTION
2
BLOCKS
0
BLOCK
5
20
100
AcDbEntity
100
AcDbBlockBegin
2
*MODEL_SPACE
0
ENDBLK
5
21
100
AcDbEntity
100
AcDbBlockEnd
0
BLOCK
5
1C
100
AcDbEntity
100
AcDbBlockBegin
2
*PAPER_SPACE
0
ENDBLK
5
1D
100
AcDbEntity
100
AcDbBlockEnd
0
ENDSEC
0
SECTION
2
ENTITIES
0
SPLINE
5
100
100
AcDbEntity
8
0
100
AcDbSpline
70
1064
71
3
72
8
73
4
74
0
42
0.000000001
43
0.0000000001
44
0.0000000001
40
0
40
0
40
0
40
0
40
1
40
1
40
1
40
1
10
24.339709000000003
20
456.9186160000001
30
0
10
24.339709000000003
20
457.88658900000001
30
0
10
23.556172000000004
20
458.671134
30
0
10
22.589649000000001
20
458.671134
30
0
0
SPLINE
5
101
100
AcDbEntity
8
0
100
AcDbSpline
70
1064
71
3
72
8
73
4
74
0
42
0.000000001
43
0.0000000001
44
0.0000000001
40
0
40
0
40
0
40
0
40
1
40
1
40
1
40
1
10
284.589223
20
123.52924899999999
30
0
10
284.589223
20
124.75155500000001
30
0
10
283.59293500000001
20
125.739332
30
0
10
282.37069200000002
20
125.72917199999999
30
0
0
SPLINE
5
102
100
AcDbEntity
8
0
100
AcDbSpline
70
1064
71
3
72
8
73
4
74
0
42
0.000000001
43
0.0000000001
44
0.0000000001
40
0
40
0
40
0
40
0
40
1
40
1
40
1
40
1
10
5.0896309999999998
20
122.18958400000002
30
0
10
6.0561800000000012
20
122.18957900000001
30
0
10
6.8397170000000003
20
122.97302600000002
30
0
10
6.8397170000000003
20
123.93963600000001
30
0
0
SPLINE
5
103
100
AcDbEntity
8
0
100
AcDbSpline
70
1064
71
3
72
8
73
4
74
0
42
0.000000001
43
0.0000000001
44
0.0000000001
40
0
40
0
40
0
40
0
40
1
40
1
40
1
40
1
10
284.589223
20
102.27932600000001
30
0
10
284.589223
20
103.501632
30
0
10
283.59293500000001
20
104.48940899999999
30
0
10
282.37069200000002
20
104.47924900000001
30
0
0
SPLINE
5
104
100
AcDbEntity
8
0
100
AcDbSpline
70
1064
71
3
72
8
73
4
74
0
42
0.000000001
43
0.0000000001
44
0.0000000001
40
0
40
0
40
0
40
0
40
1
40
1
40
1
40
1
10
6.8397170000000003
20
123.93963600000001
30
0
10
6.8397170000000003
20
124.90624600000001
30
0
10
6.0574240000000001
20
125.69025500000002
30
0
10
5.0909010000000006
20
125.69094200000001
30
0
0
SPLINE
5
105
100
AcDbEntity
8
0
100
AcDbSpline
70
1064
71
3
72
8
73
4
74
0
42
0.000000001
43
0.0000000001
44
0.0000000001
40
0
40
0
40
0
40
0
40
1
40
1
40
1
40
1
10
282.37069200000002
20
304.22924499999999
30
0
10
281.14847599999996
20
304.24053500000002
30
0
10
280.15218700000003
20
303.25162799999998
30
0
10
280.15218700000003
20
302.02932299999998
30
0
0
SPLINE
5
106
100
AcDbEntity
8
0
100
AcDbSpline
70
1064
71
3
72
8
73
4
74
0
42
0.000000001
43
0.0000000001
44
0.0000000001
40
0
40
0
40
0
40
0
40
1
40
1
40
1
40
1
10
5.0907690000000008
20
434.68827900000008
30
0
10
6.0572910000000002
20
434.68907300000012
30
0
10
6.8402990000000008
20
435.47294599999998
30
0
10
6.8396109999999997
20
436.43955599999998
30
0
0
SPLINE
5
107
100
AcDbEntity
8
0
100
AcDbSpline
70
1064
71
3
72
8
73
4
74
0
42
0.000000001
43
0.0000000001
44
0.0000000001
40
0
40
0
40
0
40
0
40
1
40
1
40
1
40
1
10
5.0723539999999998
20
19.649077999999999
30
0
10
4.1057779999999999
20
19.649077999999999
30
0
10
3.3222940000000007
20
18.86562
30
0
10
3.3222940000000007
20
17.899017999999998
30
0
0
SPLINE
5
108
100
AcDbEntity
8
0
100
AcDbSpline
70
1064
71
3
72
8
73
4
74
0
42
0.000000001
43
0.0000000001
44
0.0000000001
40
0
40
0
40
0
40
0
40
1
40
1
40
1
40
1
10
282.37069200000002
20
325.47916900000007
30
0
10
281.14847599999996
20
325.49046699999997
30
0
10
280.15218700000003
20
324.501553
30
0
10
280.15218700000003
20
323.27924400000001
30
0
0
SPLINE
5
109
100
AcDbEntity
8
0
100
AcDbSpline
70
1064
71
3
72
8
73
4
74
0
42
0.000000001
43
0.0000000001
44
0.0000000001
40
0
40
0
40
0
40
0
40
1
40
1
40
1
40
1
10
284.589223
20
302.02932299999998
30
0
10
284.589223
20
303.25162799999998
30
0
10
283.59293500000001
20
304.23940500000003
30
0
10
282.37069200000002
20
304.22924499999999
30
0
0
LWPOLYLINE
5
110
100
AcDbEntity
8
0
100
AcDbPolyline
90
4
70
1
43
0.0
10
292.04634599999997
20
0.13230000000000075
10
292.04634599999997
20
461.87832800000001
10
0.13229200000000002
20
461.87832800000001
10
0.13229200000001384
20
0.1323
0
SPLINE
5
111
100
AcDbEntity
8
0
100
AcDbSpline
70
1064
71
3
72
8
73
4
74
0
42
0.000000001
43
0.0000000001
44
0.0000000001
40
0
40
0
40
0
40
0
40
1
40
1
40
1
40
1
10
3.3395970000000004
20
123.94210700000002
30
0
10
3.3395970000000004
20
122.97413500000002
30
0
10
4.123081
20
122.18958400000002
30
0
10
5.0896309999999998
20
122.18958400000002
30
0
0
SPLINE
5
112
100
AcDbEntity
8
0
100
AcDbSpline
70
1064
71
3
72
8
73
4
74
0
42
0.000000001
43
0.0000000001
44
0.0000000001
40
0
40
0
40
0
40
0
40
1
40
1
40
1
40
1
10
22.589649000000001
20
455.1660950000001
30
0
10
23.556172000000004
20
455.1660950000001
30
0
10
24.339709000000003
20
455.95064600000001
30
0
10
24.339709000000003
20
456.9186160000001
30
0
0
SPLINE
5
113
100
AcDbEntity
8
0
100
AcDbSpline
70
1064
71
3
72
8
73
4
74
0
42
0.000000001
43
0.0000000001
44
0.0000000001
40
0
40
0
40
0
40
0
40
1
40
1
40
1
40
1
10
6.8600110000000001
20
223.44332700000001
30
0
10
6.8600110000000001
20
224.41614700000002
30
0
10
6.067425000000001
20
225.20297999999997
30
0
10
5.0944199999999995
20
225.19435799999999
30
0
0
SPLINE
5
114
100
AcDbEntity
8
0
100
AcDbSpline
70
1064
71
3
72
8
73
4
74
0
42
0.000000001
43
0.0000000001
44
0.0000000001
40
0
40
0
40
0
40
0
40
1
40
1
40
1
40
1
10
280.15218700000003
20
123.52924899999999
30
0
10
280.15218700000003
20
122.306945
30
0
10
281.14847599999996
20
121.319166
30
0
10
282.37069200000002
20
121.32932600000001
30
0
0
SPLINE
5
115
100
AcDbEntity
8
0
100
AcDbSpline
70
1064
71
3
72
8
73
4
74
0
42
0.000000001
43
0.0000000001
44
0.0000000001
40
0
40
0
40
0
40
0
40
1
40
1
40
1
40
1
10
6.8396109999999997
20
330.43943000000002
30
0
10
6.8398760000000003
20
331.40604000000002
30
0
10
6.0565509999999998
20
332.18969600000003
30
0
10
5.0900280000000011
20
332.18994700000002
30
0
0
SPLINE
5
116
100
AcDbEntity
8
0
100
AcDbSpline
70
1064
71
3
72
8
73
4
74
0
42
0.000000001
43
0.0000000001
44
0.0000000001
40
0
40
0
40
0
40
0
40
1
40
1
40
1
40
1
10
3.3394910000000007
20
436.43955599999998
30
0
10
3.3394910000000007
20
435.47158300000007
30
0
10
4.1242190000000001
20
434.687591
30
0
10
5.0907690000000008
20
434.68827900000008
30
0
0
SPLINE
5
117
100
AcDbEntity
8
0
100
AcDbSpline
70
1064
71
3
72
8
73
4
74
0
42
0.000000001
43
0.0000000001
44
0.0000000001
40
0
40
0
40
0
40
0
40
1
40
1
40
1
40
1
10
282.37069200000002
20
104.47924900000001
30
0
10
281.14847599999996
20
104.49054699999999
30
0
10
280.15218700000003
20
103.501632
30
0
10
280.15218700000003
20
102.27932600000001
30
0
0
SPLINE
5
118
100
AcDbEntity
8
0
100
AcDbSpline
70
1064
71
3
72
8
73
4
74
0
42
0.000000001
43
0.0000000001
44
0.0000000001
40
0
40
0
40
0
40
0
40
1
40
1
40
1
40
1
10
204.83941200000004
20
456.9186160000001
30
0
10
204.83941200000004
20
455.95064600000001
30
0
10
205.622939
20
455.1660950000001
30
0
10
206.58946900000004
20
455.1660950000001
30
0
0
SPLINE
5
119
100
AcDbEntity
8
0
100
AcDbSpline
70
1064
71
3
72
8
73
4
74
0
42
0.000000001
43
0.0000000001
44
0.0000000001
40
0
40
0
40
0
40
0
40
1
40
1
40
1
40
1
10
5.0895510000000002
20
438.189616
30
0
10
4.1230019999999996
20
438.189616
30
0
10
3.3394910000000007
20
437.40616700000004
30
0
10
3.3394910000000007
20
436.43955599999998
30
0
0
SPLINE
5
120
100
AcDbEntity
8
0
100
AcDbSpline
70
1064
71
3
72
8
73
4
74
0
42
0.000000001
43
0.0000000001
44
0.0000000001
40
0
40
0
40
0
40
0
40
1
40
1
40
1
40
1
10
3.3387510000000002
20
330.441104
30
0
10
3.3387510000000002
20
329.47314
30
0
10
4.1230019999999996
20
328.68893600000001
30
0
10
5.0895510000000002
20
328.68937000000005
30
0
0
SPLINE
5
121
100
AcDbEntity
8
0
100
AcDbSpline
70
1064
71
3
72
8
73
4
74
0
42
0.000000001
43
0.0000000001
44
0.0000000001
40
0
40
0
40
0
40
0
40
1
40
1
40
1
40
1
10
5.0944199999999995
20
225.19435799999999
30
0
10
4.1213350000000002
20
225.19488700000005
30
0
10
3.3339879999999997
20
224.40291200000004
30
0
10
3.3419790000000003
20
223.43012700000003
30
0
0
SPLINE
5
122
100
AcDbEntity
8
0
100
AcDbSpline
70
1064
71
3
72
8
73
4
74
0
42
0.000000001
43
0.0000000001
44
0.0000000001
40
0
40
0
40
0
40
0
40
1
40
1
40
1
40
1
10
117.58955700000001
20
455.1660950000001
30
0
10
118.55608799999999
20
455.1660950000001
30
0
10
119.33961500000001
20
455.95064600000001
30
0
10
119.33961500000001
20
456.9186160000001
30
0
0
SPLINE
5
123
100
AcDbEntity
8
0
100
AcDbSpline
70
1064
71
3
72
8
73
4
74
0
42
0.000000001
43
0.0000000001
44
0.0000000001
40
0
40
0
40
0
40
0
40
1
40
1
40
1
40
1
10
119.33961500000001
20
456.9186160000001
30
0
10
119.33961500000001
20
457.88658900000001
30
0
10
118.55608799999999
20
458.671134
30
0
10
117.58955700000001
20
458.671134
30
0
0
SPLINE
5
124
100
AcDbEntity
8
0
100
AcDbSpline
70
1064
71
3
72
8
73
4
74
0
42
0.000000001
43
0.0000000001
44
0.0000000001
40
0
40
0
40
0
40
0
40
1
40
1
40
1
40
1
10
282.37069200000002
20
100.07940500000002
30
0
10
283.59293500000001
20
100.068108
30
0
10
284.589223
20
101.05702200000002
30
0
10
284.589223
20
102.27932600000001
30
0
0
SPLINE
5
125
100
AcDbEntity
8
0
100
AcDbSpline
70
1064
71
3
72
8
73
4
74
0
42
0.000000001
43
0.0000000001
44
0.0000000001
40
0
40
0
40
0
40
0
40
1
40
1
40
1
40
1
10
282.37069200000002
20
321.07932099999999
30
0
10
283.59293500000001
20
321.06802299999998
30
0
10
284.589223
20
322.05694100000005
30
0
10
284.589223
20
323.27924400000001
30
0
0
SPLINE
5
126
100
AcDbEntity
8
0
100
AcDbSpline
70
1064
71
3
72
8
73
4
74
0
42
0.000000001
43
0.0000000001
44
0.0000000001
40
0
40
0
40
0
40
0
40
1
40
1
40
1
40
1
10
282.37069200000002
20
121.32932600000001
30
0
10
283.59293500000001
20
121.31802800000001
30
0
10
284.589223
20
122.306945
30
0
10
284.589223
20
123.52924899999999
30
0
0
SPLINE
5
127
100
AcDbEntity
8
0
100
AcDbSpline
70
1064
71
3
72
8
73
4
74
0
42
0.000000001
43
0.0000000001
44
0.0000000001
40
0
40
0
40
0
40
0
40
1
40
1
40
1
40
1
10
5.0909010000000006
20
125.69094200000001
30
0
10
4.1243509999999999
20
125.69173600000001
30
0
10
3.3402850000000002
20
124.90871800000001
30
0
10
3.3395970000000004
20
123.94210700000002
30
0
0
SPLINE
5
128
100
AcDbEntity
8
0
100
AcDbSpline
70
1064
71
3
72
8
73
4
74
0
42
0.000000001
43
0.0000000001
44
0.0000000001
40
0
40
0
40
0
40
0
40
1
40
1
40
1
40
1
10
117.58955700000001
20
458.671134
30
0
10
116.62302700000001
20
458.671134
30
0
10
115.83949699999999
20
457.88658900000001
30
0
10
115.83949699999999
20
456.9186160000001
30
0
0
SPLINE
5
129
100
AcDbEntity
8
0
100
AcDbSpline
70
1064
71
3
72
8
73
4
74
0
42
0.000000001
43
0.0000000001
44
0.0000000001
40
0
40
0
40
0
40
0
40
1
40
1
40
1
40
1
10
22.589649000000001
20
458.671134
30
0
10
21.623099
20
458.671134
30
0
10
20.839589000000004
20
457.88658900000001
30
0
10
20.839589000000004
20
456.9186160000001
30
0
0
SPLINE
5
130
100
AcDbEntity
8
0
100
AcDbSpline
70
1064
71
3
72
8
73
4
74
0
42
0.000000001
43
0.0000000001
44
0.0000000001
40
0
40
0
40
0
40
0
40
1
40
1
40
1
40
1
10
20.839589000000004
20
456.9186160000001
30
0
10
20.839589000000004
20
455.95064600000001
30
0
10
21.623099
20
455.1660950000001
30
0
10
22.589649000000001
20
455.1660950000001
30
0
0
SPLINE
5
131
100
AcDbEntity
8
0
100
AcDbSpline
70
1064
71
3
72
8
73
4
74
0
42
0.000000001
43
0.0000000001
44
0.0000000001
40
0
40
0
40
0
40
0
40
1
40
1
40
1
40
1
10
206.58946900000004
20
458.671134
30
0
10
205.622939
20
458.671134
30
0
10
204.83941200000004
20
457.88658900000001
30
0
10
204.83941200000004
20
456.9186160000001
30
0
0
SPLINE
5
132
100
AcDbEntity
8
0
100
AcDbSpline
70
1064
71
3
72
8
73
4
74
0
42
0.000000001
43
0.0000000001
44
0.0000000001
40
0
40
0
40
0
40
0
40
1
40
1
40
1
40
1
10
282.37069200000002
20
125.72917199999999
30
0
10
281.14847599999996
20
125.74047
30
0
10
280.15218700000003
20
124.75155500000001
30
0
10
280.15218700000003
20
123.52924899999999
30
0
0
SPLINE
5
133
100
AcDbEntity
8
0
100
AcDbSpline
70
1064
71
3
72
8
73
4
74
0
42
0.000000001
43
0.0000000001
44
0.0000000001
40
0
40
0
40
0
40
0
40
1
40
1
40
1
40
1
10
5.0900280000000011
20
332.18994700000002
30
0
10
4.1234519999999995
20
332.190741
30
0
10
3.3394120000000003
20
331.40771700000005
30
0
10
3.3387510000000002
20
330.441104
30
0
0
SPLINE
5
134
100
AcDbEntity
8
0
100
AcDbSpline
70
1064
71
3
72
8
73
4
74
0
42
0.000000001
43
0.0000000001
44
0.0000000001
40
0
40
0
40
0
40
0
40
1
40
1
40
1
40
1
10
5.1088129999999996
20
221.67760900000002
30
0
10
6.0818709999999996
20
221.67780400000001
30
0
10
6.8686889999999998
20
222.47026300000002
30
0
10
6.8600110000000001
20
223.44332700000001
30
0
0
SPLINE
5
135
100
AcDbEntity
8
0
100
AcDbSpline
70
1064
71
3
72
8
73
4
74
0
42
0.000000001
43
0.0000000001
44
0.0000000001
40
0
40
0
40
0
40
0
40
1
40
1
40
1
40
1
10
282.37069200000002
20
299.82940099999996
30
0
10
283.59293500000001
20
299.81811100000004
30
0
10
284.589223
20
300.80701899999997
30
0
10
284.589223
20
302.02932299999998
30
0
0
SPLINE
5
136
100
AcDbEntity
8
0
100
AcDbSpline
70
1064
71
3
72
8
73
4
74
0
42
0.000000001
43
0.0000000001
44
0.0000000001
40
0
40
0
40
0
40
0
40
1
40
1
40
1
40
1
10
3.3419790000000003
20
223.43012700000003
30
0
10
3.3419790000000003
20
222.45565800000003
30
0
10
4.1357809999999997
20
221.66828199999998
30
0
10
5.1088129999999996
20
221.67760900000002
30
0
0
SPLINE
5
137
100
AcDbEntity
8
0
100
AcDbSpline
70
1064
71
3
72
8
73
4
74
0
42
0.000000001
43
0.0000000001
44
0.0000000001
40
0
40
0
40
0
40
0
40
1
40
1
40
1
40
1
10
280.15218700000003
20
102.27932600000001
30
0
10
280.15218700000003
20
101.05702200000002
30
0
10
281.14847599999996
20
100.069245
30
0
10
282.37069200000002
20
100.07940500000002
30
0
0
SPLINE
5
138
100
AcDbEntity
8
0
100
AcDbSpline
70
1064
71
3
72
8
73
4
74
0
42
0.000000001
43
0.0000000001
44
0.0000000001
40
0
40
0
40
0
40
0
40
1
40
1
40
1
40
1
10
6.8396109999999997
20
436.43955599999998
30
0
10
6.8396109999999997
20
437.40616700000004
30
0
10
6.0560740000000006
20
438.189616
30
0
10
5.0895510000000002
20
438.189616
30
0
0
SPLINE
5
139
100
AcDbEntity
8
0
100
AcDbSpline
70
1064
71
3
72
8
73
4
74
0
42
0.000000001
43
0.0000000001
44
0.0000000001
40
0
40
0
40
0
40
0
40
1
40
1
40
1
40
1
10
280.15218700000003
20
323.27924400000001
30
0
10
280.15218700000003
20
322.05694100000005
30
0
10
281.14847599999996
20
321.069164
30
0
10
282.37069200000002
20
321.07932099999999
30
0
0
SPLINE
5
140
100
AcDbEntity
8
0
100
AcDbSpline
70
1064
71
3
72
8
73
4
74
0
42
0.000000001
43
0.0000000001
44
0.0000000001
40
0
40
0
40
0
40
0
40
1
40
1
40
1
40
1
10
115.83949699999999
20
456.9186160000001
30
0
10
115.83949699999999
20
455.95064600000001
30
0
10
116.62302700000001
20
455.1660950000001
30
0
10
117.58955700000001
20
455.1660950000001
30
0
0
SPLINE
5
141
100
AcDbEntity
8
0
100
AcDbSpline
70
1064
71
3
72
8
73
4
74
0
42
0.000000001
43
0.0000000001
44
0.0000000001
40
0
40
0
40
0
40
0
40
1
40
1
40
1
40
1
10
5.0723269999999996
20
16.146497000000004
30
0
10
6.0388500000000001
20
16.146497000000004
30
0
10
6.8218310000000004
20
16.931172
30
0
10
6.8211699999999995
20
17.897773999999998
30
0
0
SPLINE
5
142
100
AcDbEntity
8
0
100
AcDbSpline
70
1064
71
3
72
8
73
4
74
0
42
0.000000001
43
0.0000000001
44
0.0000000001
40
0
40
0
40
0
40
0
40
1
40
1
40
1
40
1
10
5.0895510000000002
20
328.68937000000005
30
0
10
6.0560740000000006
20
328.68937000000005
30
0
10
6.8396109999999997
20
329.47281900000002
30
0
10
6.8396109999999997
20
330.43943000000002
30
0
0
SPLINE
5
143
100
AcDbEntity
8
0
100
AcDbSpline
70
1064
71
3
72
8
73
4
74
0
42
0.000000001
43
0.0000000001
44
0.0000000001
40
0
40
0
40
0
40
0
40
1
40
1
40
1
40
1
10
284.589223
20
323.27924400000001
30
0
10
284.589223
20
324.501553
30
0
10
283.59293500000001
20
325.489327
30
0
10
282.37069200000002
20
325.47916900000007
30
0
0
SPLINE
5
144
100
AcDbEntity
8
0
100
AcDbSpline
70
1064
71
3
72
8
73
4
74
0
42
0.000000001
43
0.0000000001
44
0.0000000001
40
0
40
0
40
0
40
0
40
1
40
1
40
1
40
1
10
208.339529
20
456.9186160000001
30
0
10
208.339529
20
457.88658900000001
30
0
10
207.55600000000001
20
458.671134
30
0
10
206.58946900000004
20
458.671134
30
0
0
SPLINE
5
145
100
AcDbEntity
8
0
100
AcDbSpline
70
1064
71
3
72
8
73
4
74
0
42
0.000000001
43
0.0000000001
44
0.0000000001
40
0
40
0
40
0
40
0
40
1
40
1
40
1
40
1
10
6.8211699999999995
20
17.897773999999998
30
0
10
6.8211699999999995
20
18.864402999999999
30
0
10
6.038876000000001
20
19.648389999999999
30
0
10
5.0723539999999998
20
19.649077999999999
30
0
0
SPLINE
5
146
100
AcDbEntity
8
0
100
AcDbSpline
70
1064
71
3
72
8
73
4
74
0
42
0.000000001
43
0.0000000001
44
0.0000000001
40
0
40
0
40
0
40
0
40
1
40
1
40
1
40
1
10
3.3222940000000007
20
17.899017999999998
30
0
10
3.3222940000000007
20
16.931039999999999
30
0
10
4.1057779999999999
20
16.146497000000004
30
0
10
5.0723269999999996
20
16.146497000000004
30
0
0
SPLINE
5
147
100
AcDbEntity
8
0
100
AcDbSpline
70
1064
71
3
72
8
73
4
74
0
42
0.000000001
43
0.0000000001
44
0.0000000001
40
0
40
0
40
0
40
0
40
1
40
1
40
1
40
1
10
206.58946900000004
20
455.1660950000001
30
0
10
207.55600000000001
20
455.1660950000001
30
0
10
208.339529
20
455.95064600000001
30
0
10
208.339529
20
456.9186160000001
30
0
0
SPLINE
5
148
100
AcDbEntity
8
0
100
AcDbSpline
70
1064
71
3
72
8
73
4
74
0
42
0.000000001
43
0.0000000001
44
0.0000000001
40
0
40
0
40
0
40
0
40
1
40
1
40
1
40
1
10
280.15218700000003
20
302.02932299999998
30
0
10
280.15218700000003
20
300.80701899999997
30
0
10
281.14847599999996
20
299.81924100000003
30
0
10
282.37069200000002
20
299.82940099999996
30
0
0
ENDSEC
0
SECTION
2
OBJECTS
0
DICTIONARY
5
C
100
AcDbDictionary
3
ACAD_GROUP
350
D
3
ACAD_MLINESTYLE
350
17
0
DICTIONARY
5
D
100
AcDbDictionary
0
DICTIONARY
5
1A
330
C
100
AcDbDictionary
0
DICTIONARY
5
17
100
AcDbDictionary
0
ENDSEC
0
EOF
