0
SECTION
2
HEADER
9
$INSUNITS
70
4
9
$ACADVER
1
AC1014
9
$HANDSEED
5
FFFF
0
ENDSEC
0
SECTION
2
TABLES
0
TABLE
2
VPORT
5
8
100
AcDbSymbolTable
0
ENDTAB
0
TABLE
2
LTYPE
5
5
100
AcDbSymbolTable
0
LTYPE
5
14
100
AcDbSymbolTableRecord
100
AcDbLinetypeTableRecord
2
BYBLOCK
70
0
0
LTYPE
5
15
100
AcDbSymbolTableRecord
100
AcDbLinetypeTableRecord
2
BYLAYER
70
0
0
ENDTAB
0
TABLE
2
LAYER
5
2
100
AcDbSymbolTable
70
2
0
LAYER
5
50
100
AcDbSymbolTableRecord
100
AcDbLayerTableRecord
2
0
70
0
6
CONTINUOUS
0
ENDTAB
0
TABLE
2
STYLE
5
3
100
AcDbSymbolTable
70
1
0
STYLE
5
11
100
AcDbSymbolTableRecord
100
AcDbTextStyleTableRecord
2
STANDARD
70
0
0
ENDTAB
0
TABLE
2
VIEW
5
6
100
AcDbSymbolTable
70
0
0
ENDTAB
0
TABLE
2
UCS
5
7
100
AcDbSymbolTable
70
0
0
ENDTAB
0
TABLE
2
APPID
5
9
100
AcDbSymbolTable
70
2
0
APPID
5
12
100
AcDbSymbolTableRecord
100
AcDbRegAppTableRecord
2
ACAD
70
0
0
ENDTAB
0
TABLE
2
DIMSTYLE
5
A
100
AcDbSymbolTable
70
1
0
ENDTAB
0
TABLE
2
BLOCK_RECORD
5
1
100
AcDbSymbolTable
70
1
0
BLOCK_RECORD
5
1F
100
AcDbSymbolTableRecord
100
AcDbBlockTableRecord
2
*MODEL_SPACE
0
BLOCK_RECORD
5
1B
100
AcDbSymbolTableRecord
100
AcDbBlockTableRecord
2
*PAPER_SPACE
0
ENDTAB
0
ENDSEC
0
SECTION
2
BLOCKS
0
BLOCK
5
20
100
AcDbEntity
100
AcDbBlockBegin
2
*MODEL_SPACE
0
ENDBLK
5
21
100
AcDbEntity
100
AcDbBlockEnd
0
BLOCK
5
1C
100
AcDbEntity
100
AcDbBlockBegin
2
*PAPER_SPACE
0
ENDBLK
5
1D
100
AcDbEntity
100
AcDbBlockEnd
0
ENDSEC
0
SECTION
2
ENTITIES
0
SPLINE
5
100
100
AcDbEntity
8
0
100
AcDbSpline
70
1064
71
3
72
8
73
4
74
0
42
0.000000001
43
0.0000000001
44
0.0000000001
40
0
40
0
40
0
40
0
40
1
40
1
40
1
40
1
10
92.707913000000005
20
295.49696299999999
30
-508.40000000000003
10
92.02452199999999
20
295.89407899999998
30
-508.40000000000003
10
91.180623999999995
20
295.89407899999998
30
-508.40000000000003
10
90.497232999999994
20
295.49696299999999
30
-508.40000000000003
0
SPLINE
5
101
100
AcDbEntity
8
0
100
AcDbSpline
70
1064
71
3
72
8
73
4
74
0
42
0.000000001
43
0.0000000001
44
0.0000000001
40
0
40
0
40
0
40
0
40
1
40
1
40
1
40
1
10
111.752605
20
291.67097699999999
30
-508.40000000000003
10
112.433306
20
291.27797299999997
30
-508.40000000000003
10
113.271964
20
291.27797299999997
30
-508.40000000000003
10
113.952668
20
291.67097699999999
30
-508.40000000000003
0
SPLINE
5
102
100
AcDbEntity
8
0
100
AcDbSpline
70
1064
71
3
72
8
73
4
74
0
42
0.000000001
43
0.0000000001
44
0.0000000001
40
0
40
0
40
0
40
0
40
1
40
1
40
1
40
1
10
406.66203300000001
20
112.95249
30
-508.40000000000003
10
406.66203300000001
20
113.73849900000002
30
-508.40000000000003
10
406.24274800000001
20
114.46479600000001
30
-508.40000000000003
10
405.56205400000005
20
114.8578
30
-508.40000000000003
0
SPLINE
5
103
100
AcDbEntity
8
0
100
AcDbSpline
70
1064
71
3
72
8
73
4
74
0
42
0.000000001
43
0.0000000001
44
0.0000000001
40
0
40
0
40
0
40
0
40
1
40
1
40
1
40
1
10
406.66203300000001
20
134.17249699999999
30
-508.40000000000003
10
406.66203300000001
20
134.958505
30
-508.40000000000003
10
406.24274800000001
20
135.68480500000001
30
-508.40000000000003
10
405.56205400000005
20
136.077809
30
-508.40000000000003
0
SPLINE
5
104
100
AcDbEntity
8
0
100
AcDbSpline
70
1064
71
3
72
8
73
4
74
0
42
0.000000001
43
0.0000000001
44
0.0000000001
40
0
40
0
40
0
40
0
40
1
40
1
40
1
40
1
10
84.312603999999993
20
136.077809
30
-508.40000000000003
10
83.631901999999997
20
135.68480500000001
30
-508.40000000000003
10
83.212572999999992
20
134.958505
30
-508.40000000000003
10
83.212572999999992
20
134.17249699999999
30
-508.40000000000003
0
SPLINE
5
105
100
AcDbEntity
8
0
100
AcDbSpline
70
1064
71
3
72
8
73
4
74
0
42
0.000000001
43
0.0000000001
44
0.0000000001
40
0
40
0
40
0
40
0
40
1
40
1
40
1
40
1
10
87.612699000000006
20
134.17249699999999
30
-508.40000000000003
10
87.612699000000006
20
134.958505
30
-508.40000000000003
10
87.193369999999987
20
135.68480500000001
30
-508.40000000000003
10
86.512668000000005
20
136.077809
30
-508.40000000000003
0
SPLINE
5
106
100
AcDbEntity
8
0
100
AcDbSpline
70
1064
71
3
72
8
73
4
74
0
42
0.000000001
43
0.0000000001
44
0.0000000001
40
0
40
0
40
0
40
0
40
1
40
1
40
1
40
1
10
111.752605
20
295.48159800000002
30
-508.40000000000003
10
111.071901
20
295.088595
30
-508.40000000000003
10
110.65257299999999
20
294.36229400000002
30
-508.40000000000003
10
110.65257299999999
20
293.57628700000009
30
-508.40000000000003
0
SPLINE
5
107
100
AcDbEntity
8
0
100
AcDbSpline
70
1064
71
3
72
8
73
4
74
0
42
0.000000001
43
0.0000000001
44
0.0000000001
40
0
40
0
40
0
40
0
40
1
40
1
40
1
40
1
10
399.07206300000007
20
293.37628799999999
30
-508.40000000000003
10
399.07206300000007
20
294.16229500000003
30
-508.40000000000003
10
398.65272499999998
20
294.88859600000001
30
-508.40000000000003
10
397.97203100000002
20
295.28159900000003
30
-508.40000000000003
0
SPLINE
5
108
100
AcDbEntity
8
0
100
AcDbSpline
70
1064
71
3
72
8
73
4
74
0
42
0.000000001
43
0.0000000001
44
0.0000000001
40
0
40
0
40
0
40
0
40
1
40
1
40
1
40
1
10
92.707913000000005
20
291.65561200000002
30
-508.40000000000003
10
93.391304000000005
20
292.052728
30
-508.40000000000003
10
93.809145999999998
20
292.78592000000003
30
-508.40000000000003
10
93.802494999999993
20
293.57628700000009
30
-508.40000000000003
0
SPLINE
5
109
100
AcDbEntity
8
0
100
AcDbSpline
70
1064
71
3
72
8
73
4
74
0
42
0.000000001
43
0.0000000001
44
0.0000000001
40
0
40
0
40
0
40
0
40
1
40
1
40
1
40
1
10
86.512668000000005
20
132.26718500000001
30
-508.40000000000003
10
87.193369999999987
20
132.660189
30
-508.40000000000003
10
87.612699000000006
20
133.38649099999998
30
-508.40000000000003
10
87.612699000000006
20
134.17249699999999
30
-508.40000000000003
0
SPLINE
5
110
100
AcDbEntity
8
0
100
AcDbSpline
70
1064
71
3
72
8
73
4
74
0
42
0.000000001
43
0.0000000001
44
0.0000000001
40
0
40
0
40
0
40
0
40
1
40
1
40
1
40
1
10
394.67196300000001
20
293.37628799999999
30
-508.40000000000003
10
394.67196300000001
20
292.590281
30
-508.40000000000003
10
395.09127400000006
20
291.86398100000008
30
-508.40000000000003
10
395.77199400000006
20
291.470978
30
-508.40000000000003
0
SPLINE
5
111
100
AcDbEntity
8
0
100
AcDbSpline
70
1064
71
3
72
8
73
4
74
0
42
0.000000001
43
0.0000000001
44
0.0000000001
40
0
40
0
40
0
40
0
40
1
40
1
40
1
40
1
10
403.36201699999998
20
111.04717800000002
30
-508.40000000000003
10
404.04268400000001
20
110.654177
30
-508.40000000000003
10
404.88133400000004
20
110.654177
30
-508.40000000000003
10
405.56205400000005
20
111.04717800000002
30
-508.40000000000003
0
SPLINE
5
112
100
AcDbEntity
8
0
100
AcDbSpline
70
1064
71
3
72
8
73
4
74
0
42
0.000000001
43
0.0000000001
44
0.0000000001
40
0
40
0
40
0
40
0
40
1
40
1
40
1
40
1
10
376.72233800000004
20
295.28159900000003
30
-508.40000000000003
10
376.04164500000002
20
295.67460299999999
30
-508.40000000000003
10
375.2029950000001
20
295.67460299999999
30
-508.40000000000003
10
374.52230099999997
20
295.28159900000003
30
-508.40000000000003
0
SPLINE
5
113
100
AcDbEntity
8
0
100
AcDbSpline
70
1064
71
3
72
8
73
4
74
0
42
0.000000001
43
0.0000000001
44
0.0000000001
40
0
40
0
40
0
40
0
40
1
40
1
40
1
40
1
10
86.512668000000005
20
136.077809
30
-508.40000000000003
10
85.831966000000008
20
136.47081299999999
30
-508.40000000000003
10
84.993306000000004
20
136.47081299999999
30
-508.40000000000003
10
84.312603999999993
20
136.077809
30
-508.40000000000003
0
SPLINE
5
114
100
AcDbEntity
8
0
100
AcDbSpline
70
1064
71
3
72
8
73
4
74
0
42
0.000000001
43
0.0000000001
44
0.0000000001
40
0
40
0
40
0
40
0
40
1
40
1
40
1
40
1
10
87.612699000000006
20
112.95249
30
-508.40000000000003
10
87.612699000000006
20
113.73849900000002
30
-508.40000000000003
10
87.193369999999987
20
114.46479600000001
30
-508.40000000000003
10
86.512668000000005
20
114.8578
30
-508.40000000000003
0
SPLINE
5
115
100
AcDbEntity
8
0
100
AcDbSpline
70
1064
71
3
72
8
73
4
74
0
42
0.000000001
43
0.0000000001
44
0.0000000001
40
0
40
0
40
0
40
0
40
1
40
1
40
1
40
1
10
374.52230099999997
20
291.470978
30
-508.40000000000003
10
375.2029950000001
20
291.07797400000004
30
-508.40000000000003
10
376.04164500000002
20
291.07797400000004
30
-508.40000000000003
10
376.72233800000004
20
291.470978
30
-508.40000000000003
0
LWPOLYLINE
5
116
100
AcDbEntity
8
0
100
AcDbPolyline
90
4
70
1
43
0.0
10
415.11647599999998
20
0.12352100000000002
10
75.210746
20
0.12352100000001087
10
75.123561999999993
20
303.64130299999999
10
415.11647599999998
20
303.64130299999999
0
SPLINE
5
117
100
AcDbEntity
8
0
100
AcDbSpline
70
1064
71
3
72
8
73
4
74
0
42
0.000000001
43
0.0000000001
44
0.0000000001
40
0
40
0
40
0
40
0
40
1
40
1
40
1
40
1
10
403.36201699999998
20
114.8578
30
-508.40000000000003
10
402.68129700000003
20
114.46479600000001
30
-508.40000000000003
10
402.26198500000004
20
113.73849900000002
30
-508.40000000000003
10
402.26198500000004
20
112.95249
30
-508.40000000000003
0
SPLINE
5
118
100
AcDbEntity
8
0
100
AcDbSpline
70
1064
71
3
72
8
73
4
74
0
42
0.000000001
43
0.0000000001
44
0.0000000001
40
0
40
0
40
0
40
0
40
1
40
1
40
1
40
1
10
397.97203100000002
20
291.470978
30
-508.40000000000003
10
398.65272499999998
20
291.86398100000008
30
-508.40000000000003
10
399.07206300000007
20
292.590281
30
-508.40000000000003
10
399.07206300000007
20
293.37628799999999
30
-508.40000000000003
0
SPLINE
5
119
100
AcDbEntity
8
0
100
AcDbSpline
70
1064
71
3
72
8
73
4
74
0
42
0.000000001
43
0.0000000001
44
0.0000000001
40
0
40
0
40
0
40
0
40
1
40
1
40
1
40
1
10
84.312603999999993
20
114.8578
30
-508.40000000000003
10
83.631901999999997
20
114.46479600000001
30
-508.40000000000003
10
83.212572999999992
20
113.73849900000002
30
-508.40000000000003
10
83.212572999999992
20
112.95249
30
-508.40000000000003
0
SPLINE
5
120
100
AcDbEntity
8
0
100
AcDbSpline
70
1064
71
3
72
8
73
4
74
0
42
0.000000001
43
0.0000000001
44
0.0000000001
40
0
40
0
40
0
40
0
40
1
40
1
40
1
40
1
10
402.26198500000004
20
112.95249
30
-508.40000000000003
10
402.26198500000004
20
112.16648500000002
30
-508.40000000000003
10
402.68129700000003
20
111.44018200000002
30
-508.40000000000003
10
403.36201699999998
20
111.04717800000002
30
-508.40000000000003
0
SPLINE
5
121
100
AcDbEntity
8
0
100
AcDbSpline
70
1064
71
3
72
8
73
4
74
0
42
0.000000001
43
0.0000000001
44
0.0000000001
40
0
40
0
40
0
40
0
40
1
40
1
40
1
40
1
10
374.52230099999997
20
295.28159900000003
30
-508.40000000000003
10
373.84160800000006
20
294.88859600000001
30
-508.40000000000003
10
373.42229600000002
20
294.16229500000003
30
-508.40000000000003
10
373.42229600000002
20
293.37628799999999
30
-508.40000000000003
0
SPLINE
5
122
100
AcDbEntity
8
0
100
AcDbSpline
70
1064
71
3
72
8
73
4
74
0
42
0.000000001
43
0.0000000001
44
0.0000000001
40
0
40
0
40
0
40
0
40
1
40
1
40
1
40
1
10
110.65257299999999
20
293.57628700000009
30
-508.40000000000003
10
110.65257299999999
20
292.79028
30
-508.40000000000003
10
111.071901
20
292.06397999999996
30
-508.40000000000003
10
111.752605
20
291.67097699999999
30
-508.40000000000003
0
SPLINE
5
123
100
AcDbEntity
8
0
100
AcDbSpline
70
1064
71
3
72
8
73
4
74
0
42
0.000000001
43
0.0000000001
44
0.0000000001
40
0
40
0
40
0
40
0
40
1
40
1
40
1
40
1
10
84.312603999999993
20
132.26718500000001
30
-508.40000000000003
10
84.993306000000004
20
131.87418300000002
30
-508.40000000000003
10
85.831966000000008
20
131.87418300000002
30
-508.40000000000003
10
86.512668000000005
20
132.26718500000001
30
-508.40000000000003
0
SPLINE
5
124
100
AcDbEntity
8
0
100
AcDbSpline
70
1064
71
3
72
8
73
4
74
0
42
0.000000001
43
0.0000000001
44
0.0000000001
40
0
40
0
40
0
40
0
40
1
40
1
40
1
40
1
10
395.77199400000006
20
295.28159900000003
30
-508.40000000000003
10
395.09127400000006
20
294.88859600000001
30
-508.40000000000003
10
394.67196300000001
20
294.16229500000003
30
-508.40000000000003
10
394.67196300000001
20
293.37628799999999
30
-508.40000000000003
0
SPLINE
5
125
100
AcDbEntity
8
0
100
AcDbSpline
70
1064
71
3
72
8
73
4
74
0
42
0.000000001
43
0.0000000001
44
0.0000000001
40
0
40
0
40
0
40
0
40
1
40
1
40
1
40
1
10
84.312603999999993
20
111.04717800000002
30
-508.40000000000003
10
84.993306000000004
20
110.654177
30
-508.40000000000003
10
85.831966000000008
20
110.654177
30
-508.40000000000003
10
86.512668000000005
20
111.04717800000002
30
-508.40000000000003
0
SPLINE
5
126
100
AcDbEntity
8
0
100
AcDbSpline
70
1064
71
3
72
8
73
4
74
0
42
0.000000001
43
0.0000000001
44
0.0000000001
40
0
40
0
40
0
40
0
40
1
40
1
40
1
40
1
10
405.56205400000005
20
114.8578
30
-508.40000000000003
10
404.88133400000004
20
115.25080200000002
30
-508.40000000000003
10
404.04268400000001
20
115.25080200000002
30
-508.40000000000003
10
403.36201699999998
20
114.8578
30
-508.40000000000003
0
SPLINE
5
127
100
AcDbEntity
8
0
100
AcDbSpline
70
1064
71
3
72
8
73
4
74
0
42
0.000000001
43
0.0000000001
44
0.0000000001
40
0
40
0
40
0
40
0
40
1
40
1
40
1
40
1
10
376.72233800000004
20
291.470978
30
-508.40000000000003
10
377.403032
20
291.86398100000008
30
-508.40000000000003
10
377.82237000000009
20
292.590281
30
-508.40000000000003
10
377.82237000000009
20
293.37628799999999
30
-508.40000000000003
0
SPLINE
5
128
100
AcDbEntity
8
0
100
AcDbSpline
70
1064
71
3
72
8
73
4
74
0
42
0.000000001
43
0.0000000001
44
0.0000000001
40
0
40
0
40
0
40
0
40
1
40
1
40
1
40
1
10
373.42229600000002
20
293.37628799999999
30
-508.40000000000003
10
373.42229600000002
20
292.590281
30
-508.40000000000003
10
373.84160800000006
20
291.86398100000008
30
-508.40000000000003
10
374.52230099999997
20
291.470978
30
-508.40000000000003
0
SPLINE
5
129
100
AcDbEntity
8
0
100
AcDbSpline
70
1064
71
3
72
8
73
4
74
0
42
0.000000001
43
0.0000000001
44
0.0000000001
40
0
40
0
40
0
40
0
40
1
40
1
40
1
40
1
10
377.82237000000009
20
293.37628799999999
30
-508.40000000000003
10
377.82237000000009
20
294.16229500000003
30
-508.40000000000003
10
377.403032
20
294.88859600000001
30
-508.40000000000003
10
376.72233800000004
20
295.28159900000003
30
-508.40000000000003
0
SPLINE
5
130
100
AcDbEntity
8
0
100
AcDbSpline
70
1064
71
3
72
8
73
4
74
0
42
0.000000001
43
0.0000000001
44
0.0000000001
40
0
40
0
40
0
40
0
40
1
40
1
40
1
40
1
10
93.802494999999993
20
293.57628700000009
30
-508.40000000000003
10
93.809146999999996
20
294.36665499999998
30
-508.40000000000003
10
93.391304000000005
20
295.09984700000007
30
-508.40000000000003
10
92.707913000000005
20
295.49696299999999
30
-508.40000000000003
0
SPLINE
5
131
100
AcDbEntity
8
0
100
AcDbSpline
70
1064
71
3
72
8
73
4
74
0
42
0.000000001
43
0.0000000001
44
0.0000000001
40
0
40
0
40
0
40
0
40
1
40
1
40
1
40
1
10
405.56205400000005
20
136.077809
30
-508.40000000000003
10
404.88133400000004
20
136.47081299999999
30
-508.40000000000003
10
404.04268400000001
20
136.47081299999999
30
-508.40000000000003
10
403.36201699999998
20
136.077809
30
-508.40000000000003
0
SPLINE
5
132
100
AcDbEntity
8
0
100
AcDbSpline
70
1064
71
3
72
8
73
4
74
0
42
0.000000001
43
0.0000000001
44
0.0000000001
40
0
40
0
40
0
40
0
40
1
40
1
40
1
40
1
10
402.26198500000004
20
134.17249699999999
30
-508.40000000000003
10
402.26198500000004
20
133.38649099999998
30
-508.40000000000003
10
402.68129700000003
20
132.660189
30
-508.40000000000003
10
403.36201699999998
20
132.26718500000001
30
-508.40000000000003
0
SPLINE
5
133
100
AcDbEntity
8
0
100
AcDbSpline
70
1064
71
3
72
8
73
4
74
0
42
0.000000001
43
0.0000000001
44
0.0000000001
40
0
40
0
40
0
40
0
40
1
40
1
40
1
40
1
10
403.36201699999998
20
136.077809
30
-508.40000000000003
10
402.68129700000003
20
135.68480500000001
30
-508.40000000000003
10
402.26198500000004
20
134.958505
30
-508.40000000000003
10
402.26198500000004
20
134.17249699999999
30
-508.40000000000003
0
SPLINE
5
134
100
AcDbEntity
8
0
100
AcDbSpline
70
1064
71
3
72
8
73
4
74
0
42
0.000000001
43
0.0000000001
44
0.0000000001
40
0
40
0
40
0
40
0
40
1
40
1
40
1
40
1
10
405.56205400000005
20
132.26718500000001
30
-508.40000000000003
10
406.24274800000001
20
132.660189
30
-508.40000000000003
10
406.66203300000001
20
133.38649099999998
30
-508.40000000000003
10
406.66203300000001
20
134.17249699999999
30
-508.40000000000003
0
SPLINE
5
135
100
AcDbEntity
8
0
100
AcDbSpline
70
1064
71
3
72
8
73
4
74
0
42
0.000000001
43
0.0000000001
44
0.0000000001
40
0
40
0
40
0
40
0
40
1
40
1
40
1
40
1
10
83.212572999999992
20
112.95249
30
-508.40000000000003
10
83.212572999999992
20
112.16648500000002
30
-508.40000000000003
10
83.631901999999997
20
111.44018200000002
30
-508.40000000000003
10
84.312603999999993
20
111.04717800000002
30
-508.40000000000003
0
SPLINE
5
136
100
AcDbEntity
8
0
100
AcDbSpline
70
1064
71
3
72
8
73
4
74
0
42
0.000000001
43
0.0000000001
44
0.0000000001
40
0
40
0
40
0
40
0
40
1
40
1
40
1
40
1
10
397.97203100000002
20
295.28159900000003
30
-508.40000000000003
10
397.29131100000006
20
295.67460299999999
30
-508.40000000000003
10
396.45268799999997
20
295.67460299999999
30
-508.40000000000003
10
395.77199400000006
20
295.28159900000003
30
-508.40000000000003
0
SPLINE
5
137
100
AcDbEntity
8
0
100
AcDbSpline
70
1064
71
3
72
8
73
4
74
0
42
0.000000001
43
0.0000000001
44
0.0000000001
40
0
40
0
40
0
40
0
40
1
40
1
40
1
40
1
10
113.952668
20
291.67097699999999
30
-508.40000000000003
10
114.63336999999999
20
292.06397999999996
30
-508.40000000000003
10
115.05269999999999
20
292.79028
30
-508.40000000000003
10
115.05269999999999
20
293.57628700000009
30
-508.40000000000003
0
SPLINE
5
138
100
AcDbEntity
8
0
100
AcDbSpline
70
1064
71
3
72
8
73
4
74
0
42
0.000000001
43
0.0000000001
44
0.0000000001
40
0
40
0
40
0
40
0
40
1
40
1
40
1
40
1
10
403.36201699999998
20
132.26718500000001
30
-508.40000000000003
10
404.04268400000001
20
131.87418300000002
30
-508.40000000000003
10
404.88133400000004
20
131.87418300000002
30
-508.40000000000003
10
405.56205400000005
20
132.26718500000001
30
-508.40000000000003
0
SPLINE
5
139
100
AcDbEntity
8
0
100
AcDbSpline
70
1064
71
3
72
8
73
4
74
0
42
0.000000001
43
0.0000000001
44
0.0000000001
40
0
40
0
40
0
40
0
40
1
40
1
40
1
40
1
10
115.05269999999999
20
293.57628700000009
30
-508.40000000000003
10
115.05269999999999
20
294.36229400000002
30
-508.40000000000003
10
114.63336999999999
20
295.088595
30
-508.40000000000003
10
113.952668
20
295.48159800000002
30
-508.40000000000003
0
SPLINE
5
140
100
AcDbEntity
8
0
100
AcDbSpline
70
1064
71
3
72
8
73
4
74
0
42
0.000000001
43
0.0000000001
44
0.0000000001
40
0
40
0
40
0
40
0
40
1
40
1
40
1
40
1
10
395.77199400000006
20
291.470978
30
-508.40000000000003
10
396.45268799999997
20
291.07797400000004
30
-508.40000000000003
10
397.29131100000006
20
291.07797400000004
30
-508.40000000000003
10
397.97203100000002
20
291.470978
30
-508.40000000000003
0
SPLINE
5
141
100
AcDbEntity
8
0
100
AcDbSpline
70
1064
71
3
72
8
73
4
74
0
42
0.000000001
43
0.0000000001
44
0.0000000001
40
0
40
0
40
0
40
0
40
1
40
1
40
1
40
1
10
90.497232999999994
20
291.65561200000002
30
-508.40000000000003
10
91.180623999999995
20
291.25849500000004
30
-508.40000000000003
10
92.02452199999999
20
291.25849500000004
30
-508.40000000000003
10
92.707913000000005
20
291.65561200000002
30
-508.40000000000003
0
SPLINE
5
142
100
AcDbEntity
8
0
100
AcDbSpline
70
1064
71
3
72
8
73
4
74
0
42
0.000000001
43
0.0000000001
44
0.0000000001
40
0
40
0
40
0
40
0
40
1
40
1
40
1
40
1
10
405.56205400000005
20
111.04717800000002
30
-508.40000000000003
10
406.24274800000001
20
111.44018200000002
30
-508.40000000000003
10
406.66203300000001
20
112.16648500000002
30
-508.40000000000003
10
406.66203300000001
20
112.95249
30
-508.40000000000003
0
SPLINE
5
143
100
AcDbEntity
8
0
100
AcDbSpline
70
1064
71
3
72
8
73
4
74
0
42
0.000000001
43
0.0000000001
44
0.0000000001
40
0
40
0
40
0
40
0
40
1
40
1
40
1
40
1
10
89.402650999999992
20
293.57628700000009
30
-508.40000000000003
10
89.396000000000001
20
292.78592000000003
30
-508.40000000000003
10
89.813842000000008
20
292.052728
30
-508.40000000000003
10
90.497232999999994
20
291.65561200000002
30
-508.40000000000003
0
SPLINE
5
144
100
AcDbEntity
8
0
100
AcDbSpline
70
1064
71
3
72
8
73
4
74
0
42
0.000000001
43
0.0000000001
44
0.0000000001
40
0
40
0
40
0
40
0
40
1
40
1
40
1
40
1
10
86.512668000000005
20
111.04717800000002
30
-508.40000000000003
10
87.193369999999987
20
111.44018200000002
30
-508.40000000000003
10
87.612699000000006
20
112.16648500000002
30
-508.40000000000003
10
87.612699000000006
20
112.95249
30
-508.40000000000003
0
SPLINE
5
145
100
AcDbEntity
8
0
100
AcDbSpline
70
1064
71
3
72
8
73
4
74
0
42
0.000000001
43
0.0000000001
44
0.0000000001
40
0
40
0
40
0
40
0
40
1
40
1
40
1
40
1
10
83.212572999999992
20
134.17249699999999
30
-508.40000000000003
10
83.212572999999992
20
133.38649099999998
30
-508.40000000000003
10
83.631901999999997
20
132.660189
30
-508.40000000000003
10
84.312603999999993
20
132.26718500000001
30
-508.40000000000003
0
SPLINE
5
146
100
AcDbEntity
8
0
100
AcDbSpline
70
1064
71
3
72
8
73
4
74
0
42
0.000000001
43
0.0000000001
44
0.0000000001
40
0
40
0
40
0
40
0
40
1
40
1
40
1
40
1
10
90.497232999999994
20
295.49696299999999
30
-508.40000000000003
10
89.813842000000008
20
295.09984700000007
30
-508.40000000000003
10
89.396000000000001
20
294.36665499999998
30
-508.40000000000003
10
89.402650999999992
20
293.57628700000009
30
-508.40000000000003
0
SPLINE
5
147
100
AcDbEntity
8
0
100
AcDbSpline
70
1064
71
3
72
8
73
4
74
0
42
0.000000001
43
0.0000000001
44
0.0000000001
40
0
40
0
40
0
40
0
40
1
40
1
40
1
40
1
10
113.952668
20
295.48159800000002
30
-508.40000000000003
10
113.271964
20
295.87460199999998
30
-508.40000000000003
10
112.433306
20
295.87460199999998
30
-508.40000000000003
10
111.752605
20
295.48159800000002
30
-508.40000000000003
0
SPLINE
5
148
100
AcDbEntity
8
0
100
AcDbSpline
70
1064
71
3
72
8
73
4
74
0
42
0.000000001
43
0.0000000001
44
0.0000000001
40
0
40
0
40
0
40
0
40
1
40
1
40
1
40
1
10
86.512668000000005
20
114.8578
30
-508.40000000000003
10
85.831966000000008
20
115.25080200000002
30
-508.40000000000003
10
84.993306000000004
20
115.25080200000002
30
-508.40000000000003
10
84.312603999999993
20
114.8578
30
-508.40000000000003
0
ENDSEC
0
SECTION
2
OBJECTS
0
DICTIONARY
5
C
100
AcDbDictionary
3
ACAD_GROUP
350
D
3
ACAD_MLINESTYLE
350
17
0
DICTIONARY
5
D
100
AcDbDictionary
0
DICTIONARY
5
1A
330
C
100
AcDbDictionary
0
DICTIONARY
5
17
100
AcDbDictionary
0
ENDSEC
0
EOF
