0
SECTION
2
HEADER
9
$INSUNITS
70
4
9
$ACADVER
1
AC1014
9
$HANDSEED
5
FFFF
0
ENDSEC
0
SECTION
2
TABLES
0
TABLE
2
VPORT
5
8
100
AcDbSymbolTable
0
ENDTAB
0
TABLE
2
LTYPE
5
5
100
AcDbSymbolTable
0
LTYPE
5
14
100
AcDbSymbolTableRecord
100
AcDbLinetypeTableRecord
2
BYBLOCK
70
0
0
LTYPE
5
15
100
AcDbSymbolTableRecord
100
AcDbLinetypeTableRecord
2
BYLAYER
70
0
0
ENDTAB
0
TABLE
2
LAYER
5
2
100
AcDbSymbolTable
70
2
0
LAYER
5
50
100
AcDbSymbolTableRecord
100
AcDbLayerTableRecord
2
0
70
0
6
CONTINUOUS
0
ENDTAB
0
TABLE
2
STYLE
5
3
100
AcDbSymbolTable
70
1
0
STYLE
5
11
100
AcDbSymbolTableRecord
100
AcDbTextStyleTableRecord
2
STANDARD
70
0
0
ENDTAB
0
TABLE
2
VIEW
5
6
100
AcDbSymbolTable
70
0
0
ENDTAB
0
TABLE
2
UCS
5
7
100
AcDbSymbolTable
70
0
0
ENDTAB
0
TABLE
2
APPID
5
9
100
AcDbSymbolTable
70
2
0
APPID
5
12
100
AcDbSymbolTableRecord
100
AcDbRegAppTableRecord
2
ACAD
70
0
0
ENDTAB
0
TABLE
2
DIMSTYLE
5
A
100
AcDbSymbolTable
70
1
0
ENDTAB
0
TABLE
2
BLOCK_RECORD
5
1
100
AcDbSymbolTable
70
1
0
BLOCK_RECORD
5
1F
100
AcDbSymbolTableRecord
100
AcDbBlockTableRecord
2
*MODEL_SPACE
0
BLOCK_RECORD
5
1B
100
AcDbSymbolTableRecord
100
AcDbBlockTableRecord
2
*PAPER_SPACE
0
ENDTAB
0
ENDSEC
0
SECTION
2
BLOCKS
0
BLOCK
5
20
100
AcDbEntity
100
AcDbBlockBegin
2
*MODEL_SPACE
0
ENDBLK
5
21
100
AcDbEntity
100
AcDbBlockEnd
0
BLOCK
5
1C
100
AcDbEntity
100
AcDbBlockBegin
2
*PAPER_SPACE
0
ENDBLK
5
1D
100
AcDbEntity
100
AcDbBlockEnd
0
ENDSEC
0
SECTION
2
ENTITIES
0
SPLINE
5
100
100
AcDbEntity
8
0
100
AcDbSpline
70
1064
71
3
72
8
73
4
74
0
42
0.000000001
43
0.0000000001
44
0.0000000001
40
0
40
0
40
0
40
0
40
1
40
1
40
1
40
1
10
302.96279599999997
20
-200.63491999999997
30
303
10
302.96279599999997
20
-199.49779399999997
30
303
10
303.88463100000001
20
-198.57595899999995
30
303
10
305.02175700000004
20
-198.57595899999995
30
303
0
SPLINE
5
101
100
AcDbEntity
8
0
100
AcDbSpline
70
1064
71
3
72
8
73
4
74
0
42
0.000000001
43
0.0000000001
44
0.0000000001
40
0
40
0
40
0
40
0
40
1
40
1
40
1
40
1
10
25.074147000000004
20
-49.452910999999951
30
303
10
25.074148000000008
20
-48.315789999999943
30
303
10
25.995965000000002
20
-47.393972999999967
30
303
10
27.133086000000006
20
-47.393972999999967
30
303
0
SPLINE
5
102
100
AcDbEntity
8
0
100
AcDbSpline
70
1064
71
3
72
8
73
4
74
0
42
0.000000001
43
0.0000000001
44
0.0000000001
40
0
40
0
40
0
40
0
40
1
40
1
40
1
40
1
10
283.90173600000003
20
-202.69385499999999
30
303
10
282.76461000000006
20
-202.69385499999999
30
303
10
281.84280200000001
20
-201.77201999999997
30
303
10
281.84280200000001
20
-200.63491999999997
30
303
0
SPLINE
5
103
100
AcDbEntity
8
0
100
AcDbSpline
70
1064
71
3
72
8
73
4
74
0
42
0.000000001
43
0.0000000001
44
0.0000000001
40
0
40
0
40
0
40
0
40
1
40
1
40
1
40
1
10
331.42111199999999
20
-176.18501199999997
30
303
10
331.80724500000002
20
-176.571145
30
303
10
332.02417599999995
20
-177.09483499999999
30
303
10
332.02417599999995
20
-177.64090899999999
30
303
0
SPLINE
5
104
100
AcDbEntity
8
0
100
AcDbSpline
70
1064
71
3
72
8
73
4
74
0
42
0.000000001
43
0.0000000001
44
0.0000000001
40
0
40
0
40
0
40
0
40
1
40
1
40
1
40
1
10
332.02417599999995
20
-177.64090899999999
30
303
10
332.02417599999995
20
-178.18698199999997
30
303
10
331.80724500000002
20
-178.71067199999999
30
303
10
331.42111199999999
20
-179.09680499999996
30
303
0
SPLINE
5
105
100
AcDbEntity
8
0
100
AcDbSpline
70
1064
71
3
72
8
73
4
74
0
42
0.000000001
43
0.0000000001
44
0.0000000001
40
0
40
0
40
0
40
0
40
1
40
1
40
1
40
1
10
8.4061450000000022
20
-177.64090899999999
30
303
10
8.4061460000000015
20
-176.503782
30
303
10
9.3279640000000033
20
-175.58197399999997
30
303
10
10.465084000000004
20
-175.58197399999997
30
303
0
SPLINE
5
106
100
AcDbEntity
8
0
100
AcDbSpline
70
1064
71
3
72
8
73
4
74
0
42
0.000000001
43
0.0000000001
44
0.0000000001
40
0
40
0
40
0
40
0
40
1
40
1
40
1
40
1
10
10.465084000000004
20
-78.912848999999952
30
303
10
9.3279640000000033
20
-78.912848999999952
30
303
10
8.4061460000000015
20
-77.991032999999987
30
303
10
8.4061450000000022
20
-76.85391199999998
30
303
0
SPLINE
5
107
100
AcDbEntity
8
0
100
AcDbSpline
70
1064
71
3
72
8
73
4
74
0
42
0.000000001
43
0.0000000001
44
0.0000000001
40
0
40
0
40
0
40
0
40
1
40
1
40
1
40
1
10
283.90173600000003
20
-198.57595899999995
30
303
10
285.03886200000005
20
-198.57595899999995
30
303
10
285.96067100000005
20
-199.49779399999997
30
303
10
285.96067100000005
20
-200.63491999999997
30
303
0
SPLINE
5
108
100
AcDbEntity
8
0
100
AcDbSpline
70
1064
71
3
72
8
73
4
74
0
42
0.000000001
43
0.0000000001
44
0.0000000001
40
0
40
0
40
0
40
0
40
1
40
1
40
1
40
1
10
107.10002500000002
20
-200.63491999999997
30
303
10
107.10002500000002
20
-201.77201999999997
30
303
10
106.17820900000001
20
-202.69385499999999
30
303
10
105.04108799999999
20
-202.69385499999999
30
303
0
SPLINE
5
109
100
AcDbEntity
8
0
100
AcDbSpline
70
1064
71
3
72
8
73
4
74
0
42
0.000000001
43
0.0000000001
44
0.0000000001
40
0
40
0
40
0
40
0
40
1
40
1
40
1
40
1
10
105.04108799999999
20
-198.57595899999995
30
303
10
106.17820900000001
20
-198.57595899999995
30
303
10
107.10002500000002
20
-199.49779399999997
30
303
10
107.10002500000002
20
-200.63491999999997
30
303
0
SPLINE
5
110
100
AcDbEntity
8
0
100
AcDbSpline
70
1064
71
3
72
8
73
4
74
0
42
0.000000001
43
0.0000000001
44
0.0000000001
40
0
40
0
40
0
40
0
40
1
40
1
40
1
40
1
10
329.965215
20
-158.57984899999997
30
303
10
328.82811600000002
20
-158.57984099999996
30
303
10
327.90630700000003
20
-157.65802499999995
30
303
10
327.90630700000003
20
-156.52090899999996
30
303
0
SPLINE
5
111
100
AcDbEntity
8
0
100
AcDbSpline
70
1064
71
3
72
8
73
4
74
0
42
0.000000001
43
0.0000000001
44
0.0000000001
40
0
40
0
40
0
40
0
40
1
40
1
40
1
40
1
10
11.920974000000001
20
-78.309802999999988
30
303
10
11.534848000000002
20
-78.695925999999972
30
303
10
11.011148000000004
20
-78.912848999999952
30
303
10
10.465084000000004
20
-78.912848999999952
30
303
0
SPLINE
5
112
100
AcDbEntity
8
0
100
AcDbSpline
70
1064
71
3
72
8
73
4
74
0
42
0.000000001
43
0.0000000001
44
0.0000000001
40
0
40
0
40
0
40
0
40
1
40
1
40
1
40
1
10
12.524022000000002
20
-177.64090899999999
30
303
10
12.524022000000002
20
-178.77803499999999
30
303
10
11.602204000000002
20
-179.69984299999996
30
303
10
10.465084000000004
20
-179.69984299999996
30
303
0
SPLINE
5
113
100
AcDbEntity
8
0
100
AcDbSpline
70
1064
71
3
72
8
73
4
74
0
42
0.000000001
43
0.0000000001
44
0.0000000001
40
0
40
0
40
0
40
0
40
1
40
1
40
1
40
1
10
331.42111199999999
20
-54.278013999999942
30
303
10
331.80724500000002
20
-54.664138999999935
30
303
10
332.02417599999995
20
-55.187841999999954
30
303
10
332.02417599999995
20
-55.733907999999985
30
303
0
SPLINE
5
114
100
AcDbEntity
8
0
100
AcDbSpline
70
1064
71
3
72
8
73
4
74
0
42
0.000000001
43
0.0000000001
44
0.0000000001
40
0
40
0
40
0
40
0
40
1
40
1
40
1
40
1
10
10.465084000000004
20
-57.792846999999966
30
303
10
9.3279640000000033
20
-57.792844999999957
30
303
10
8.4061460000000015
20
-56.871027999999967
30
303
10
8.4061450000000022
20
-55.733907999999985
30
303
0
SPLINE
5
115
100
AcDbEntity
8
0
100
AcDbSpline
70
1064
71
3
72
8
73
4
74
0
42
0.000000001
43
0.0000000001
44
0.0000000001
40
0
40
0
40
0
40
0
40
1
40
1
40
1
40
1
10
27.133086000000006
20
-51.511847999999958
30
303
10
25.995965000000002
20
-51.511847999999958
30
303
10
25.074148000000008
20
-50.590028999999994
30
303
10
25.074147000000004
20
-49.452910999999951
30
303
0
SPLINE
5
116
100
AcDbEntity
8
0
100
AcDbSpline
70
1064
71
3
72
8
73
4
74
0
42
0.000000001
43
0.0000000001
44
0.0000000001
40
0
40
0
40
0
40
0
40
1
40
1
40
1
40
1
10
327.90630700000003
20
-177.64090899999999
30
303
10
327.90630700000003
20
-176.50380899999999
30
303
10
328.82811600000002
20
-175.58198199999995
30
303
10
329.965215
20
-175.58197399999997
30
303
0
SPLINE
5
117
100
AcDbEntity
8
0
100
AcDbSpline
70
1064
71
3
72
8
73
4
74
0
42
0.000000001
43
0.0000000001
44
0.0000000001
40
0
40
0
40
0
40
0
40
1
40
1
40
1
40
1
10
11.920974000000001
20
-54.278016999999963
30
303
10
12.307101000000005
20
-54.664143999999965
30
303
10
12.524024000000002
20
-55.187841999999954
30
303
10
12.524025000000005
20
-55.733907999999985
30
303
0
SPLINE
5
118
100
AcDbEntity
8
0
100
AcDbSpline
70
1064
71
3
72
8
73
4
74
0
42
0.000000001
43
0.0000000001
44
0.0000000001
40
0
40
0
40
0
40
0
40
1
40
1
40
1
40
1
10
327.90630700000003
20
-156.52090899999996
30
303
10
327.90630700000003
20
-155.38379599999996
30
303
10
328.82811600000002
20
-154.46197999999998
30
303
10
329.965215
20
-154.46197199999997
30
303
0
SPLINE
5
119
100
AcDbEntity
8
0
100
AcDbSpline
70
1064
71
3
72
8
73
4
74
0
42
0.000000001
43
0.0000000001
44
0.0000000001
40
0
40
0
40
0
40
0
40
1
40
1
40
1
40
1
10
307.080691
20
-200.63491999999997
30
303
10
307.080691
20
-201.77201999999997
30
303
10
306.15885700000001
20
-202.69385499999999
30
303
10
305.02175700000004
20
-202.69385499999999
30
303
0
SPLINE
5
120
100
AcDbEntity
8
0
100
AcDbSpline
70
1064
71
3
72
8
73
4
74
0
42
0.000000001
43
0.0000000001
44
0.0000000001
40
0
40
0
40
0
40
0
40
1
40
1
40
1
40
1
10
313.30617600000005
20
-49.452910999999951
30
303
10
313.30617600000005
20
-49.998975999999971
30
303
10
313.08924400000001
20
-50.52267699999998
30
303
10
312.70311100000004
20
-50.908803999999961
30
303
0
SPLINE
5
121
100
AcDbEntity
8
0
100
AcDbSpline
70
1064
71
3
72
8
73
4
74
0
42
0.000000001
43
0.0000000001
44
0.0000000001
40
0
40
0
40
0
40
0
40
1
40
1
40
1
40
1
10
105.04108799999999
20
-202.69385499999999
30
303
10
103.90396699999999
20
-202.69385499999999
30
303
10
102.982151
20
-201.77201999999997
30
303
10
102.982151
20
-200.63491999999997
30
303
0
SPLINE
5
122
100
AcDbEntity
8
0
100
AcDbSpline
70
1064
71
3
72
8
73
4
74
0
42
0.000000001
43
0.0000000001
44
0.0000000001
40
0
40
0
40
0
40
0
40
1
40
1
40
1
40
1
10
281.84280200000001
20
-200.63491999999997
30
303
10
281.84280200000001
20
-199.49779399999997
30
303
10
282.76461000000006
20
-198.57595899999995
30
303
10
283.90173600000003
20
-198.57595899999995
30
303
0
SPLINE
5
123
100
AcDbEntity
8
0
100
AcDbSpline
70
1064
71
3
72
8
73
4
74
0
42
0.000000001
43
0.0000000001
44
0.0000000001
40
0
40
0
40
0
40
0
40
1
40
1
40
1
40
1
10
331.42111199999999
20
-179.09680499999996
30
303
10
331.03497900000002
20
-179.48293799999999
30
303
10
330.51128900000003
20
-179.69984299999996
30
303
10
329.965215
20
-179.69984299999996
30
303
0
SPLINE
5
124
100
AcDbEntity
8
0
100
AcDbSpline
70
1064
71
3
72
8
73
4
74
0
42
0.000000001
43
0.0000000001
44
0.0000000001
40
0
40
0
40
0
40
0
40
1
40
1
40
1
40
1
10
329.965215
20
-53.674969999999966
30
303
10
330.51128900000003
20
-53.674964999999943
30
303
10
331.03497900000002
20
-53.891885999999971
30
303
10
331.42111199999999
20
-54.278013999999942
30
303
0
SPLINE
5
125
100
AcDbEntity
8
0
100
AcDbSpline
70
1064
71
3
72
8
73
4
74
0
42
0.000000001
43
0.0000000001
44
0.0000000001
40
0
40
0
40
0
40
0
40
1
40
1
40
1
40
1
10
327.90630700000003
20
-55.733907999999985
30
303
10
327.90630700000003
20
-54.596791999999965
30
303
10
328.82811600000002
20
-53.674975999999987
30
303
10
329.965215
20
-53.674969999999966
30
303
0
SPLINE
5
126
100
AcDbEntity
8
0
100
AcDbSpline
70
1064
71
3
72
8
73
4
74
0
42
0.000000001
43
0.0000000001
44
0.0000000001
40
0
40
0
40
0
40
0
40
1
40
1
40
1
40
1
10
12.524025000000005
20
-55.733907999999985
30
303
10
12.524024000000002
20
-56.279972999999956
30
303
10
12.307101000000005
20
-56.80367099999998
30
303
10
11.920974000000001
20
-57.189795999999973
30
303
0
SPLINE
5
127
100
AcDbEntity
8
0
100
AcDbSpline
70
1064
71
3
72
8
73
4
74
0
42
0.000000001
43
0.0000000001
44
0.0000000001
40
0
40
0
40
0
40
0
40
1
40
1
40
1
40
1
10
204.99672900000002
20
-202.69385499999999
30
303
10
203.85960800000004
20
-202.69385499999999
30
303
10
202.937792
20
-201.77201999999997
30
303
10
202.937792
20
-200.63491999999997
30
303
0
SPLINE
5
128
100
AcDbEntity
8
0
100
AcDbSpline
70
1064
71
3
72
8
73
4
74
0
42
0.000000001
43
0.0000000001
44
0.0000000001
40
0
40
0
40
0
40
0
40
1
40
1
40
1
40
1
10
185.935664
20
-200.63491999999997
30
303
10
185.935664
20
-201.77201999999997
30
303
10
185.013845
20
-202.69385499999999
30
303
10
183.87672400000002
20
-202.69385499999999
30
303
0
SPLINE
5
129
100
AcDbEntity
8
0
100
AcDbSpline
70
1064
71
3
72
8
73
4
74
0
42
0.000000001
43
0.0000000001
44
0.0000000001
40
0
40
0
40
0
40
0
40
1
40
1
40
1
40
1
10
332.02417599999995
20
-156.52090899999996
30
303
10
332.02417599999995
20
-157.06697699999995
30
303
10
331.80724500000002
20
-157.59067799999997
30
303
10
331.42111199999999
20
-157.97680299999996
30
303
0
SPLINE
5
130
100
AcDbEntity
8
0
100
AcDbSpline
70
1064
71
3
72
8
73
4
74
0
42
0.000000001
43
0.0000000001
44
0.0000000001
40
0
40
0
40
0
40
0
40
1
40
1
40
1
40
1
10
329.965215
20
-179.69984299999996
30
303
10
328.82811600000002
20
-179.69984299999996
30
303
10
327.90630700000003
20
-178.77803499999999
30
303
10
327.90630700000003
20
-177.64090899999999
30
303
0
SPLINE
5
131
100
AcDbEntity
8
0
100
AcDbSpline
70
1064
71
3
72
8
73
4
74
0
42
0.000000001
43
0.0000000001
44
0.0000000001
40
0
40
0
40
0
40
0
40
1
40
1
40
1
40
1
10
305.02175700000004
20
-202.69385499999999
30
303
10
303.88463100000001
20
-202.69385499999999
30
303
10
302.96279599999997
20
-201.77201999999997
30
303
10
302.96279599999997
20
-200.63491999999997
30
303
0
SPLINE
5
132
100
AcDbEntity
8
0
100
AcDbSpline
70
1064
71
3
72
8
73
4
74
0
42
0.000000001
43
0.0000000001
44
0.0000000001
40
0
40
0
40
0
40
0
40
1
40
1
40
1
40
1
10
83.921083000000024
20
-198.57595899999995
30
303
10
85.058204000000018
20
-198.57595899999995
30
303
10
85.980023000000017
20
-199.49779399999997
30
303
10
85.980023000000017
20
-200.63491999999997
30
303
0
SPLINE
5
133
100
AcDbEntity
8
0
100
AcDbSpline
70
1064
71
3
72
8
73
4
74
0
42
0.000000001
43
0.0000000001
44
0.0000000001
40
0
40
0
40
0
40
0
40
1
40
1
40
1
40
1
10
29.192024000000004
20
-49.452910999999951
30
303
10
29.192023000000002
20
-50.590028999999994
30
303
10
28.270206000000005
20
-51.511847999999958
30
303
10
27.133086000000006
20
-51.511847999999958
30
303
0
SPLINE
5
134
100
AcDbEntity
8
0
100
AcDbSpline
70
1064
71
3
72
8
73
4
74
0
42
0.000000001
43
0.0000000001
44
0.0000000001
40
0
40
0
40
0
40
0
40
1
40
1
40
1
40
1
10
8.4061450000000022
20
-156.52090899999996
30
303
10
8.4061460000000015
20
-155.38379099999997
30
303
10
9.3279640000000033
20
-154.46197199999997
30
303
10
10.465084000000004
20
-154.46197199999997
30
303
0
SPLINE
5
135
100
AcDbEntity
8
0
100
AcDbSpline
70
1064
71
3
72
8
73
4
74
0
42
0.000000001
43
0.0000000001
44
0.0000000001
40
0
40
0
40
0
40
0
40
1
40
1
40
1
40
1
10
329.965215
20
-175.58197399999997
30
303
10
330.51128900000003
20
-175.58196899999999
30
303
10
331.03497900000002
20
-175.79887899999994
30
303
10
331.42111199999999
20
-176.18501199999997
30
303
0
SPLINE
5
136
100
AcDbEntity
8
0
100
AcDbSpline
70
1064
71
3
72
8
73
4
74
0
42
0.000000001
43
0.0000000001
44
0.0000000001
40
0
40
0
40
0
40
0
40
1
40
1
40
1
40
1
10
181.81778700000001
20
-200.63491999999997
30
303
10
181.81778700000001
20
-199.49779399999997
30
303
10
182.73960600000004
20
-198.57595899999995
30
303
10
183.87672400000002
20
-198.57595899999995
30
303
0
SPLINE
5
137
100
AcDbEntity
8
0
100
AcDbSpline
70
1064
71
3
72
8
73
4
74
0
42
0.000000001
43
0.0000000001
44
0.0000000001
40
0
40
0
40
0
40
0
40
1
40
1
40
1
40
1
10
10.465084000000004
20
-53.674969999999966
30
303
10
11.011148000000004
20
-53.674969999999966
30
303
10
11.534848000000002
20
-53.891891999999956
30
303
10
11.920974000000001
20
-54.278016999999963
30
303
0
SPLINE
5
138
100
AcDbEntity
8
0
100
AcDbSpline
70
1064
71
3
72
8
73
4
74
0
42
0.000000001
43
0.0000000001
44
0.0000000001
40
0
40
0
40
0
40
0
40
1
40
1
40
1
40
1
10
11.920974000000001
20
-75.398020999999957
30
303
10
12.307101000000005
20
-75.78414599999995
30
303
10
12.524024000000002
20
-76.307846999999981
30
303
10
12.524025000000005
20
-76.85391199999998
30
303
0
SPLINE
5
139
100
AcDbEntity
8
0
100
AcDbSpline
70
1064
71
3
72
8
73
4
74
0
42
0.000000001
43
0.0000000001
44
0.0000000001
40
0
40
0
40
0
40
0
40
1
40
1
40
1
40
1
10
312.70311100000004
20
-47.997016999999964
30
303
10
313.08924400000001
20
-48.383141999999957
30
303
10
313.30617600000005
20
-48.906841999999955
30
303
10
313.30617600000005
20
-49.452910999999951
30
303
0
SPLINE
5
140
100
AcDbEntity
8
0
100
AcDbSpline
70
1064
71
3
72
8
73
4
74
0
42
0.000000001
43
0.0000000001
44
0.0000000001
40
0
40
0
40
0
40
0
40
1
40
1
40
1
40
1
10
8.4061450000000022
20
-55.733907999999985
30
303
10
8.4061460000000015
20
-54.596786999999978
30
303
10
9.3279640000000033
20
-53.674969999999966
30
303
10
10.465084000000004
20
-53.674969999999966
30
303
0
SPLINE
5
141
100
AcDbEntity
8
0
100
AcDbSpline
70
1064
71
3
72
8
73
4
74
0
42
0.000000001
43
0.0000000001
44
0.0000000001
40
0
40
0
40
0
40
0
40
1
40
1
40
1
40
1
10
10.465084000000004
20
-154.46197199999997
30
303
10
11.602204000000002
20
-154.46197199999997
30
303
10
12.524022000000002
20
-155.38379099999997
30
303
10
12.524022000000002
20
-156.52090899999996
30
303
0
SPLINE
5
142
100
AcDbEntity
8
0
100
AcDbSpline
70
1064
71
3
72
8
73
4
74
0
42
0.000000001
43
0.0000000001
44
0.0000000001
40
0
40
0
40
0
40
0
40
1
40
1
40
1
40
1
10
329.965215
20
-154.46197199999997
30
303
10
330.51128900000003
20
-154.46196899999995
30
303
10
331.03497900000002
20
-154.67888999999997
30
303
10
331.42111199999999
20
-155.06501499999996
30
303
0
SPLINE
5
143
100
AcDbEntity
8
0
100
AcDbSpline
70
1064
71
3
72
8
73
4
74
0
42
0.000000001
43
0.0000000001
44
0.0000000001
40
0
40
0
40
0
40
0
40
1
40
1
40
1
40
1
10
309.18827999999996
20
-49.452910999999951
30
303
10
309.18827999999996
20
-48.315794999999966
30
303
10
310.11008800000002
20
-47.393978999999966
30
303
10
311.24721499999998
20
-47.393972999999967
30
303
0
SPLINE
5
144
100
AcDbEntity
8
0
100
AcDbSpline
70
1064
71
3
72
8
73
4
74
0
42
0.000000001
43
0.0000000001
44
0.0000000001
40
0
40
0
40
0
40
0
40
1
40
1
40
1
40
1
10
331.42111199999999
20
-155.06501499999996
30
303
10
331.80724500000002
20
-155.45114299999997
30
303
10
332.02417599999995
20
-155.97484299999996
30
303
10
332.02417599999995
20
-156.52090899999996
30
303
0
SPLINE
5
145
100
AcDbEntity
8
0
100
AcDbSpline
70
1064
71
3
72
8
73
4
74
0
42
0.000000001
43
0.0000000001
44
0.0000000001
40
0
40
0
40
0
40
0
40
1
40
1
40
1
40
1
10
27.133086000000006
20
-47.393972999999967
30
303
10
28.270206000000005
20
-47.393972999999967
30
303
10
29.192023000000002
20
-48.315789999999943
30
303
10
29.192024000000004
20
-49.452910999999951
30
303
0
SPLINE
5
146
100
AcDbEntity
8
0
100
AcDbSpline
70
1064
71
3
72
8
73
4
74
0
42
0.000000001
43
0.0000000001
44
0.0000000001
40
0
40
0
40
0
40
0
40
1
40
1
40
1
40
1
10
10.465084000000004
20
-175.58197399999997
30
303
10
11.602204000000002
20
-175.58197399999997
30
303
10
12.524022000000002
20
-176.503782
30
303
10
12.524022000000002
20
-177.64090899999999
30
303
0
SPLINE
5
147
100
AcDbEntity
8
0
100
AcDbSpline
70
1064
71
3
72
8
73
4
74
0
42
0.000000001
43
0.0000000001
44
0.0000000001
40
0
40
0
40
0
40
0
40
1
40
1
40
1
40
1
10
331.42111199999999
20
-157.97680299999996
30
303
10
331.03497900000002
20
-158.36292999999998
30
303
10
330.51128900000003
20
-158.57985199999999
30
303
10
329.965215
20
-158.57984899999997
30
303
0
SPLINE
5
148
100
AcDbEntity
8
0
100
AcDbSpline
70
1064
71
3
72
8
73
4
74
0
42
0.000000001
43
0.0000000001
44
0.0000000001
40
0
40
0
40
0
40
0
40
1
40
1
40
1
40
1
10
305.02175700000004
20
-198.57595899999995
30
303
10
306.15885700000001
20
-198.57595899999995
30
303
10
307.080691
20
-199.49779399999997
30
303
10
307.080691
20
-200.63491999999997
30
303
0
SPLINE
5
149
100
AcDbEntity
8
0
100
AcDbSpline
70
1064
71
3
72
8
73
4
74
0
42
0.000000001
43
0.0000000001
44
0.0000000001
40
0
40
0
40
0
40
0
40
1
40
1
40
1
40
1
10
11.920974000000001
20
-57.189795999999973
30
303
10
11.534848000000002
20
-57.575922999999953
30
303
10
11.011148000000004
20
-57.792846999999966
30
303
10
10.465084000000004
20
-57.792846999999966
30
303
0
LWPOLYLINE
5
150
100
AcDbEntity
8
0
100
AcDbPolyline
90
5
70
1
43
0.0
10
337.10661100000004
20
-207.87661899999995
10
337.10661100000004
20
-42.11122299999996
10
3.3233820000000032
20
-42.11122299999996
10
3.3233820000000032
20
-207.87661899999995
10
4.6777600000000064
20
-207.87656599999997
0
SPLINE
5
151
100
AcDbEntity
8
0
100
AcDbSpline
70
1064
71
3
72
8
73
4
74
0
42
0.000000001
43
0.0000000001
44
0.0000000001
40
0
40
0
40
0
40
0
40
1
40
1
40
1
40
1
10
331.42111199999999
20
-78.309805999999966
30
303
10
331.03497900000002
20
-78.695930999999959
30
303
10
330.51128900000003
20
-78.912851999999987
30
303
10
329.965215
20
-78.912848999999952
30
303
0
SPLINE
5
152
100
AcDbEntity
8
0
100
AcDbSpline
70
1064
71
3
72
8
73
4
74
0
42
0.000000001
43
0.0000000001
44
0.0000000001
40
0
40
0
40
0
40
0
40
1
40
1
40
1
40
1
10
331.42111199999999
20
-75.398018999999977
30
303
10
331.80724500000002
20
-75.784143999999969
30
303
10
332.02417599999995
20
-76.30784399999996
30
303
10
332.02417599999995
20
-76.85391199999998
30
303
0
SPLINE
5
153
100
AcDbEntity
8
0
100
AcDbSpline
70
1064
71
3
72
8
73
4
74
0
42
0.000000001
43
0.0000000001
44
0.0000000001
40
0
40
0
40
0
40
0
40
1
40
1
40
1
40
1
10
312.70311100000004
20
-50.908803999999961
30
303
10
312.31697800000001
20
-51.294928999999954
30
303
10
311.79328800000002
20
-51.511852999999981
30
303
10
311.24721499999998
20
-51.511847999999958
30
303
0
SPLINE
5
154
100
AcDbEntity
8
0
100
AcDbSpline
70
1064
71
3
72
8
73
4
74
0
42
0.000000001
43
0.0000000001
44
0.0000000001
40
0
40
0
40
0
40
0
40
1
40
1
40
1
40
1
10
311.24721499999998
20
-47.393972999999967
30
303
10
311.79328800000002
20
-47.39396799999998
30
303
10
312.31697800000001
20
-47.610888999999936
30
303
10
312.70311100000004
20
-47.997016999999964
30
303
0
SPLINE
5
155
100
AcDbEntity
8
0
100
AcDbSpline
70
1064
71
3
72
8
73
4
74
0
42
0.000000001
43
0.0000000001
44
0.0000000001
40
0
40
0
40
0
40
0
40
1
40
1
40
1
40
1
10
329.965215
20
-74.794971999999973
30
303
10
330.51128900000003
20
-74.794969999999964
30
303
10
331.03497900000002
20
-75.011890999999963
30
303
10
331.42111199999999
20
-75.398018999999977
30
303
0
SPLINE
5
156
100
AcDbEntity
8
0
100
AcDbSpline
70
1064
71
3
72
8
73
4
74
0
42
0.000000001
43
0.0000000001
44
0.0000000001
40
0
40
0
40
0
40
0
40
1
40
1
40
1
40
1
10
311.24721499999998
20
-51.511847999999958
30
303
10
310.11008800000002
20
-51.511839999999935
30
303
10
309.18827999999996
20
-50.590023999999971
30
303
10
309.18827999999996
20
-49.452910999999951
30
303
0
SPLINE
5
157
100
AcDbEntity
8
0
100
AcDbSpline
70
1064
71
3
72
8
73
4
74
0
42
0.000000001
43
0.0000000001
44
0.0000000001
40
0
40
0
40
0
40
0
40
1
40
1
40
1
40
1
10
332.02417599999995
20
-55.733907999999985
30
303
10
332.02417599999995
20
-56.279972999999956
30
303
10
331.80724500000002
20
-56.803675999999967
30
303
10
331.42111199999999
20
-57.18980099999996
30
303
0
SPLINE
5
158
100
AcDbEntity
8
0
100
AcDbSpline
70
1064
71
3
72
8
73
4
74
0
42
0.000000001
43
0.0000000001
44
0.0000000001
40
0
40
0
40
0
40
0
40
1
40
1
40
1
40
1
10
12.524025000000005
20
-76.85391199999998
30
303
10
12.524024000000002
20
-77.399974999999984
30
303
10
12.307101000000005
20
-77.923675999999972
30
303
10
11.920974000000001
20
-78.309802999999988
30
303
0
SPLINE
5
159
100
AcDbEntity
8
0
100
AcDbSpline
70
1064
71
3
72
8
73
4
74
0
42
0.000000001
43
0.0000000001
44
0.0000000001
40
0
40
0
40
0
40
0
40
1
40
1
40
1
40
1
10
10.465084000000004
20
-179.69984299999996
30
303
10
9.3279640000000033
20
-179.69984299999996
30
303
10
8.4061460000000015
20
-178.77803499999999
30
303
10
8.4061450000000022
20
-177.64090899999999
30
303
0
SPLINE
5
160
100
AcDbEntity
8
0
100
AcDbSpline
70
1064
71
3
72
8
73
4
74
0
42
0.000000001
43
0.0000000001
44
0.0000000001
40
0
40
0
40
0
40
0
40
1
40
1
40
1
40
1
10
10.465084000000004
20
-158.57984899999997
30
303
10
9.3279640000000033
20
-158.57984899999997
30
303
10
8.4061460000000015
20
-157.65802999999997
30
303
10
8.4061450000000022
20
-156.52090899999996
30
303
0
SPLINE
5
161
100
AcDbEntity
8
0
100
AcDbSpline
70
1064
71
3
72
8
73
4
74
0
42
0.000000001
43
0.0000000001
44
0.0000000001
40
0
40
0
40
0
40
0
40
1
40
1
40
1
40
1
10
83.921083000000024
20
-202.69385499999999
30
303
10
82.783965000000009
20
-202.69385499999999
30
303
10
81.862145999999996
20
-201.77201999999997
30
303
10
81.862145999999996
20
-200.63491999999997
30
303
0
SPLINE
5
162
100
AcDbEntity
8
0
100
AcDbSpline
70
1064
71
3
72
8
73
4
74
0
42
0.000000001
43
0.0000000001
44
0.0000000001
40
0
40
0
40
0
40
0
40
1
40
1
40
1
40
1
10
332.02417599999995
20
-76.85391199999998
30
303
10
332.02417599999995
20
-77.399977999999976
30
303
10
331.80724500000002
20
-77.923677999999953
30
303
10
331.42111199999999
20
-78.309805999999966
30
303
0
SPLINE
5
163
100
AcDbEntity
8
0
100
AcDbSpline
70
1064
71
3
72
8
73
4
74
0
42
0.000000001
43
0.0000000001
44
0.0000000001
40
0
40
0
40
0
40
0
40
1
40
1
40
1
40
1
10
331.42111199999999
20
-57.18980099999996
30
303
10
331.03497900000002
20
-57.575928999999974
30
303
10
330.51128900000003
20
-57.792849999999945
30
303
10
329.965215
20
-57.792846999999966
30
303
0
SPLINE
5
164
100
AcDbEntity
8
0
100
AcDbSpline
70
1064
71
3
72
8
73
4
74
0
42
0.000000001
43
0.0000000001
44
0.0000000001
40
0
40
0
40
0
40
0
40
1
40
1
40
1
40
1
10
81.862145999999996
20
-200.63491999999997
30
303
10
81.862145999999996
20
-199.49779399999997
30
303
10
82.783965000000009
20
-198.57595899999995
30
303
10
83.921083000000024
20
-198.57595899999995
30
303
0
SPLINE
5
165
100
AcDbEntity
8
0
100
AcDbSpline
70
1064
71
3
72
8
73
4
74
0
42
0.000000001
43
0.0000000001
44
0.0000000001
40
0
40
0
40
0
40
0
40
1
40
1
40
1
40
1
10
183.87672400000002
20
-202.69385499999999
30
303
10
182.73960600000004
20
-202.69385499999999
30
303
10
181.81778700000001
20
-201.77201999999997
30
303
10
181.81778700000001
20
-200.63491999999997
30
303
0
SPLINE
5
166
100
AcDbEntity
8
0
100
AcDbSpline
70
1064
71
3
72
8
73
4
74
0
42
0.000000001
43
0.0000000001
44
0.0000000001
40
0
40
0
40
0
40
0
40
1
40
1
40
1
40
1
10
12.524022000000002
20
-156.52090899999996
30
303
10
12.524022000000002
20
-157.65802999999997
30
303
10
11.602204000000002
20
-158.57984899999997
30
303
10
10.465084000000004
20
-158.57984899999997
30
303
0
SPLINE
5
167
100
AcDbEntity
8
0
100
AcDbSpline
70
1064
71
3
72
8
73
4
74
0
42
0.000000001
43
0.0000000001
44
0.0000000001
40
0
40
0
40
0
40
0
40
1
40
1
40
1
40
1
10
329.965215
20
-57.792846999999966
30
303
10
328.82811600000002
20
-57.792836999999992
30
303
10
327.90630700000003
20
-56.87102299999998
30
303
10
327.90630700000003
20
-55.733907999999985
30
303
0
SPLINE
5
168
100
AcDbEntity
8
0
100
AcDbSpline
70
1064
71
3
72
8
73
4
74
0
42
0.000000001
43
0.0000000001
44
0.0000000001
40
0
40
0
40
0
40
0
40
1
40
1
40
1
40
1
10
329.965215
20
-78.912848999999952
30
303
10
328.82811600000002
20
-78.912841999999941
30
303
10
327.90630700000003
20
-77.991024999999965
30
303
10
327.90630700000003
20
-76.85391199999998
30
303
0
SPLINE
5
169
100
AcDbEntity
8
0
100
AcDbSpline
70
1064
71
3
72
8
73
4
74
0
42
0.000000001
43
0.0000000001
44
0.0000000001
40
0
40
0
40
0
40
0
40
1
40
1
40
1
40
1
10
10.465084000000004
20
-74.794971999999973
30
303
10
11.011148000000004
20
-74.794971999999973
30
303
10
11.534848000000002
20
-75.011895999999965
30
303
10
11.920974000000001
20
-75.398020999999957
30
303
0
SPLINE
5
170
100
AcDbEntity
8
0
100
AcDbSpline
70
1064
71
3
72
8
73
4
74
0
42
0.000000001
43
0.0000000001
44
0.0000000001
40
0
40
0
40
0
40
0
40
1
40
1
40
1
40
1
10
102.982151
20
-200.63491999999997
30
303
10
102.982151
20
-199.49779399999997
30
303
10
103.90396699999999
20
-198.57595899999995
30
303
10
105.04108799999999
20
-198.57595899999995
30
303
0
SPLINE
5
171
100
AcDbEntity
8
0
100
AcDbSpline
70
1064
71
3
72
8
73
4
74
0
42
0.000000001
43
0.0000000001
44
0.0000000001
40
0
40
0
40
0
40
0
40
1
40
1
40
1
40
1
10
204.99672900000002
20
-198.57595899999995
30
303
10
206.13385
20
-198.57595899999995
30
303
10
207.05566600000003
20
-199.49779399999997
30
303
10
207.05566600000003
20
-200.63491999999997
30
303
0
SPLINE
5
172
100
AcDbEntity
8
0
100
AcDbSpline
70
1064
71
3
72
8
73
4
74
0
42
0.000000001
43
0.0000000001
44
0.0000000001
40
0
40
0
40
0
40
0
40
1
40
1
40
1
40
1
10
327.90630700000003
20
-76.85391199999998
30
303
10
327.90630700000003
20
-75.716796999999957
30
303
10
328.82811600000002
20
-74.794979999999981
30
303
10
329.965215
20
-74.794971999999973
30
303
0
SPLINE
5
173
100
AcDbEntity
8
0
100
AcDbSpline
70
1064
71
3
72
8
73
4
74
0
42
0.000000001
43
0.0000000001
44
0.0000000001
40
0
40
0
40
0
40
0
40
1
40
1
40
1
40
1
10
207.05566600000003
20
-200.63491999999997
30
303
10
207.05566600000003
20
-201.77201999999997
30
303
10
206.13385
20
-202.69385499999999
30
303
10
204.99672900000002
20
-202.69385499999999
30
303
0
SPLINE
5
174
100
AcDbEntity
8
0
100
AcDbSpline
70
1064
71
3
72
8
73
4
74
0
42
0.000000001
43
0.0000000001
44
0.0000000001
40
0
40
0
40
0
40
0
40
1
40
1
40
1
40
1
10
85.980023000000017
20
-200.63491999999997
30
303
10
85.980023000000017
20
-201.77201999999997
30
303
10
85.058204000000018
20
-202.69385499999999
30
303
10
83.921083000000024
20
-202.69385499999999
30
303
0
SPLINE
5
175
100
AcDbEntity
8
0
100
AcDbSpline
70
1064
71
3
72
8
73
4
74
0
42
0.000000001
43
0.0000000001
44
0.0000000001
40
0
40
0
40
0
40
0
40
1
40
1
40
1
40
1
10
202.937792
20
-200.63491999999997
30
303
10
202.937792
20
-199.49779399999997
30
303
10
203.85960800000004
20
-198.57595899999995
30
303
10
204.99672900000002
20
-198.57595899999995
30
303
0
SPLINE
5
176
100
AcDbEntity
8
0
100
AcDbSpline
70
1064
71
3
72
8
73
4
74
0
42
0.000000001
43
0.0000000001
44
0.0000000001
40
0
40
0
40
0
40
0
40
1
40
1
40
1
40
1
10
8.4061450000000022
20
-76.85391199999998
30
303
10
8.4061460000000015
20
-75.716790999999972
30
303
10
9.3279640000000033
20
-74.794974999999951
30
303
10
10.465084000000004
20
-74.794971999999973
30
303
0
SPLINE
5
177
100
AcDbEntity
8
0
100
AcDbSpline
70
1064
71
3
72
8
73
4
74
0
42
0.000000001
43
0.0000000001
44
0.0000000001
40
0
40
0
40
0
40
0
40
1
40
1
40
1
40
1
10
285.96067100000005
20
-200.63491999999997
30
303
10
285.96067100000005
20
-201.77201999999997
30
303
10
285.03886200000005
20
-202.69385499999999
30
303
10
283.90173600000003
20
-202.69385499999999
30
303
0
SPLINE
5
178
100
AcDbEntity
8
0
100
AcDbSpline
70
1064
71
3
72
8
73
4
74
0
42
0.000000001
43
0.0000000001
44
0.0000000001
40
0
40
0
40
0
40
0
40
1
40
1
40
1
40
1
10
183.87672400000002
20
-198.57595899999995
30
303
10
185.013845
20
-198.57595899999995
30
303
10
185.935664
20
-199.49779399999997
30
303
10
185.935664
20
-200.63491999999997
30
303
0
ENDSEC
0
SECTION
2
OBJECTS
0
DICTIONARY
5
C
100
AcDbDictionary
3
ACAD_GROUP
350
D
3
ACAD_MLINESTYLE
350
17
0
DICTIONARY
5
D
100
AcDbDictionary
0
DICTIONARY
5
1A
330
C
100
AcDbDictionary
0
DICTIONARY
5
17
100
AcDbDictionary
0
ENDSEC
0
EOF
