<?xml version="1.0" encoding="UTF-8" standalone="no"?>
<svg
   xmlns:dc="http://purl.org/dc/elements/1.1/"
   xmlns:cc="http://creativecommons.org/ns#"
   xmlns:rdf="http://www.w3.org/1999/02/22-rdf-syntax-ns#"
   xmlns:svg="http://www.w3.org/2000/svg"
   xmlns="http://www.w3.org/2000/svg"
   xmlns:sodipodi="http://sodipodi.sourceforge.net/DTD/sodipodi-0.dtd"
   xmlns:inkscape="http://www.inkscape.org/namespaces/inkscape"
   width="320.28201mm"
   height="464.28201mm"
   id="svg2"
   version="1.1"
   inkscape:version="0.91 r13725"
   sodipodi:docname="coverplates_front_side_mk42.svg">
  <metadata
     id="metadata121">
    <rdf:RDF>
      <cc:Work
         rdf:about="">
        <dc:format>image/svg+xml</dc:format>
        <dc:type
           rdf:resource="http://purl.org/dc/dcmitype/StillImage" />
        <dc:title></dc:title>
      </cc:Work>
    </rdf:RDF>
  </metadata>
  <sodipodi:namedview
     pagecolor="#ffffff"
     bordercolor="#666666"
     borderopacity="1"
     objecttolerance="10"
     gridtolerance="10"
     guidetolerance="10"
     inkscape:pageopacity="0"
     inkscape:pageshadow="2"
     inkscape:window-width="1920"
     inkscape:window-height="1017"
     id="namedview119"
     showgrid="false"
     inkscape:document-units="mm"
     units="mm"
     inkscape:showpageshadow="false"
     showborder="false"
     fit-margin-top="0"
     fit-margin-left="0"
     fit-margin-right="0"
     fit-margin-bottom="0"
     inkscape:zoom="0.51668788"
     inkscape:cx="567.42876"
     inkscape:cy="822.54687"
     inkscape:window-x="-8"
     inkscape:window-y="-8"
     inkscape:window-maximized="1"
     inkscape:current-layer="g21" />
  <desc
     id="desc4">C:\Users\Bo\Documents\GitHub\Round4\Sheets  (DRAFT - NOT COMPLETE OR VERIFIED)\Optional rear housing\coverplates_front_side_R15.dxf - scale = 1.000000, origin = (0.000000, 0.000000), auto = False</desc>
  <defs
     id="defs6">
    <marker
       refY="0"
       refX="0"
       style="overflow:visible"
       id="DistanceX"
       orient="auto">
      <path
         style="stroke:#000000;stroke-width:0.5"
         d="M 3,-3 -3,3 M 0,-5 0,5"
         id="path9"
         inkscape:connector-curvature="0" />
    </marker>
    <pattern
       height="8"
       width="8"
       patternUnits="userSpaceOnUse"
       y="0"
       x="0"
       id="Hatch">
      <path
         linecap="square"
         stroke="#000000"
         stroke-width="0.25"
         d="M8 4 l-4,4"
         id="path12" />
      <path
         linecap="square"
         stroke="#000000"
         stroke-width="0.25"
         d="M6 2 l-4,4"
         id="path14" />
      <path
         linecap="square"
         stroke="#000000"
         stroke-width="0.25"
         d="M4 0 l-4,4"
         id="path16" />
    </pattern>
    <symbol
       id="*Model_Space" />
    <symbol
       id="*Paper_Space" />
    <symbol
       id="*Paper_Space0" />
  </defs>
  <g
     inkscape:label="ABDECKUNG"
     inkscape:groupmode="layer"
     id="g21"
     transform="translate(-159.44882,238.40059)"
     style="display:inline">
    <path
       style="fill:none;stroke:#008000;stroke-linecap:round"
       d="m 185.52628,1050.835 c -4.3307,0.04 -7.86087,-3.464 -7.86087,-7.795"
       id="path23"
       inkscape:connector-curvature="0" />
    <path
       style="fill:none;stroke:#008000;stroke-linecap:round"
       d="m 177.66541,1043.04 c 0,-4.331 3.53017,-7.831 7.86087,-7.795"
       id="path25"
       inkscape:connector-curvature="0" />
    <path
       style="fill:none;stroke:#008000;stroke-linecap:round"
       d="m 185.52628,1035.245 c 4.3307,-0.04 7.86087,3.464 7.86087,7.795"
       id="path27"
       inkscape:connector-curvature="0" />
    <path
       style="fill:none;stroke:#008000;stroke-linecap:round"
       d="m 193.38715,1043.04 c 0,4.331 -3.53017,7.831 -7.86087,7.795"
       id="path29"
       inkscape:connector-curvature="0" />
    <path
       style="fill:none;stroke:#008000;stroke-linecap:round"
       d="m 185.52628,975.54 c -4.3307,0.04 -7.86087,-3.464 -7.86087,-7.795"
       id="path31"
       inkscape:connector-curvature="0" />
    <path
       style="fill:none;stroke:#008000;stroke-linecap:round"
       d="m 177.66541,967.745 c 0,-4.331 3.53017,-7.831 7.86087,-7.795"
       id="path33"
       inkscape:connector-curvature="0" />
    <path
       style="fill:none;stroke:#008000;stroke-linecap:round"
       d="m 185.52628,959.95 c 4.3307,-0.04 7.86087,3.464 7.86087,7.795"
       id="path35"
       inkscape:connector-curvature="0" />
    <path
       style="fill:none;stroke:#008000;stroke-linecap:round"
       d="m 193.38715,967.745 c 0,4.331 -3.53017,7.831 -7.86087,7.795"
       id="path37"
       inkscape:connector-curvature="0" />
    <path
       style="fill:none;stroke:#000000;stroke-linecap:round"
       d="m 1276.0908,987.19692 c -3.4247,0 -6.201,-2.776 -6.201,-6.201"
       id="path39"
       inkscape:connector-curvature="0" />
    <path
       style="fill:none;stroke:#000000;stroke-linecap:round"
       d="m 1269.8898,980.99592 c 0,-3.425 2.7763,-6.201 6.201,-6.201"
       id="path41"
       inkscape:connector-curvature="0" />
    <path
       style="fill:none;stroke:#000000;stroke-linecap:round"
       d="m 1276.0908,974.79492 c 3.4248,0 6.201,2.776 6.201,6.201"
       id="path43"
       inkscape:connector-curvature="0" />
    <path
       style="fill:none;stroke:#000000;stroke-width:1.00070214;stroke-linecap:round"
       d="m 1282.2914,980.98685 c 0,3.42982 -2.7761,6.20972 -6.2009,6.20972"
       id="path45"
       inkscape:connector-curvature="0" />
    <path
       style="fill:none;stroke:#000000;stroke-linecap:round"
       d="m 1276.0908,611.60592 c -3.4477,0.03 -6.2605,-2.753 -6.2605,-6.201"
       id="path47"
       inkscape:connector-curvature="0" />
    <path
       style="fill:none;stroke:#000000;stroke-linecap:round"
       d="m 1269.8303,605.40492 c 0,-3.447 2.8128,-6.233 6.2605,-6.2"
       id="path49"
       inkscape:connector-curvature="0" />
    <path
       style="fill:none;stroke:#000000;stroke-linecap:round"
       d="m 1276.0908,599.20492 c 3.4478,-0.03 6.2605,2.753 6.2605,6.2"
       id="path51"
       inkscape:connector-curvature="0" />
    <path
       style="fill:none;stroke:#000000;stroke-width:1.00070214;stroke-linecap:round"
       d="m 1282.3509,604.86788 c 0,3.45284 -2.8126,6.24276 -6.2604,6.20971"
       id="path53"
       inkscape:connector-curvature="0" />
    <path
       style="fill:none;stroke:#000000;stroke-width:1.34161186;stroke-linecap:round"
       d="m 1293.6356,1406.0224 -1133.51597,0 0,-1645.46001 1133.51597,0 0,1645.46001 0,0 0,0 0,0 0,0 0,0 0,0 0,0 z"
       id="path55"
       inkscape:connector-curvature="0" />
    <path
       style="fill:none;stroke:#000000;stroke-linecap:round"
       d="m 1276.0908,232.47292 c -3.4247,0 -6.201,-2.776 -6.201,-6.201"
       id="path57"
       inkscape:connector-curvature="0" />
    <path
       style="fill:none;stroke:#000000;stroke-linecap:round"
       d="m 1269.8898,226.27192 c 0,-3.425 2.7763,-6.201 6.201,-6.201"
       id="path59"
       inkscape:connector-curvature="0" />
    <path
       style="fill:none;stroke:#000000;stroke-linecap:round"
       d="m 1276.0908,220.07092 c 3.4248,0 6.201,2.776 6.201,6.201"
       id="path61"
       inkscape:connector-curvature="0" />
    <path
       style="fill:none;stroke:#000000;stroke-width:1.00070214;stroke-linecap:round"
       d="m 1282.2914,225.20192 c 0,3.42981 -2.7761,6.20972 -6.2009,6.20972"
       id="path63"
       inkscape:connector-curvature="0" />
    <path
       style="fill:none;stroke:#008000;stroke-linecap:round"
       d="m 185.52628,1050.835 0,0 0,0 0,0 0,0 0,0 0,0 0,0 0,0 z"
       id="path65"
       inkscape:connector-curvature="0" />
    <path
       style="fill:none;stroke:#000000;stroke-linecap:round"
       d="m 1276.0908,-143.11808 c -3.4247,0 -6.201,-2.776 -6.201,-6.201"
       id="path67"
       inkscape:connector-curvature="0" />
    <path
       style="fill:none;stroke:#000000;stroke-linecap:round"
       d="m 1269.8898,-149.31908 c 0,-3.425 2.7763,-6.201 6.201,-6.201"
       id="path69"
       inkscape:connector-curvature="0" />
    <path
       style="fill:none;stroke:#000000;stroke-linecap:round"
       d="m 1276.0908,-155.52008 c 3.4248,0 6.201,2.776 6.201,6.201"
       id="path71"
       inkscape:connector-curvature="0" />
    <path
       style="fill:none;stroke:#000000;stroke-width:1.00070214;stroke-linecap:round"
       d="m 1282.2914,-150.91706 c 0,3.42982 -2.7761,6.20972 -6.2009,6.20972"
       id="path73"
       inkscape:connector-curvature="0" />
    <path
       style="fill:none;stroke:#008000;stroke-linecap:round"
       d="m 185.52628,975.54 0,0 0,0 0,0 0,0 0,0 0,0 0,0 0,0 z"
       id="path75"
       inkscape:connector-curvature="0" />
    <path
       style="fill:none;stroke:#000000;stroke-width:1.00070214;stroke-linecap:round"
       d="m 1214.0826,-215.67296 c -3.4247,0 -6.201,-2.7799 -6.201,-6.20972"
       id="path77"
       inkscape:connector-curvature="0" />
    <path
       style="fill:none;stroke:#000000;stroke-width:1.00070214;stroke-linecap:round"
       d="m 1207.8816,-221.88268 c 0,-3.42981 2.7763,-6.20971 6.201,-6.20971"
       id="path79"
       inkscape:connector-curvature="0" />
    <path
       style="fill:none;stroke:#000000;stroke-width:1.00070214;stroke-linecap:round"
       d="m 1214.0826,-228.09239 c 3.4248,0 6.201,2.7799 6.201,6.20971"
       id="path81"
       inkscape:connector-curvature="0" />
    <path
       style="fill:none;stroke:#000000;stroke-width:1.00070214;stroke-linecap:round"
       d="m 1220.2836,-221.88268 c 0,3.42982 -2.7762,6.20972 -6.201,6.20972"
       id="path83"
       inkscape:connector-curvature="0" />
    <path
       style="fill:none;stroke:#000000;stroke-width:1.00070214;stroke-linecap:round"
       d="m 549.7132,-215.67296 c -3.42472,0 -6.201,-2.7799 -6.201,-6.20972"
       id="path87"
       inkscape:connector-curvature="0" />
    <path
       style="fill:none;stroke:#000000;stroke-width:1.00070214;stroke-linecap:round"
       d="m 543.5122,-221.88268 c 0,-3.42981 2.77628,-6.20971 6.201,-6.20971"
       id="path89"
       inkscape:connector-curvature="0" />
    <path
       style="fill:none;stroke:#000000;stroke-width:1.00070214;stroke-linecap:round"
       d="m 549.7132,-228.09239 c 3.42471,0 6.20099,2.7799 6.20099,6.20971"
       id="path91"
       inkscape:connector-curvature="0" />
    <path
       style="fill:none;stroke:#000000;stroke-width:1.00070214;stroke-linecap:round"
       d="m 555.91419,-221.88268 c 0,3.42982 -2.77628,6.20972 -6.20099,6.20972"
       id="path93"
       inkscape:connector-curvature="0" />
    <path
       style="fill:none;stroke:#000000;stroke-linecap:round"
       d="m 1276.0908,611.60592 0,0 0,0 0,0 0,0 0,0 0,0 0,0 0,0 z"
       id="path95"
       inkscape:connector-curvature="0" />
    <path
       style="fill:none;stroke:#000000;stroke-width:1.00070214;stroke-linecap:round"
       d="m 877.46879,-215.67296 c -3.42471,0 -6.20099,-2.7799 -6.20099,-6.20972"
       id="path97"
       inkscape:connector-curvature="0" />
    <path
       style="fill:none;stroke:#000000;stroke-width:1.00070214;stroke-linecap:round"
       d="m 871.2678,-221.88268 c 0,-3.42981 2.77628,-6.20971 6.20099,-6.20971"
       id="path99"
       inkscape:connector-curvature="0" />
    <path
       style="fill:none;stroke:#000000;stroke-width:1.00070214;stroke-linecap:round"
       d="m 877.46879,-228.09239 c 3.42472,0 6.201,2.7799 6.201,6.20971"
       id="path101"
       inkscape:connector-curvature="0" />
    <path
       style="fill:none;stroke:#000000;stroke-width:1.00070214;stroke-linecap:round"
       d="m 883.66979,-221.88268 c 0,3.42982 -2.77628,6.20972 -6.201,6.20972"
       id="path103"
       inkscape:connector-curvature="0" />
    <path
       style="fill:none;stroke:#000000;stroke-linecap:round"
       d="m 1276.0908,232.47292 0,0 0,0 0,0 0,0 0,0 0,0 0,0 0,0 z"
       id="path105"
       inkscape:connector-curvature="0" />
    <path
       style="fill:none;stroke:#000000;stroke-linecap:round"
       d="m 1276.0908,-143.11808 0,0 0,0 0,0 0,0 0,0 0,0 0,0 0,0 z"
       id="path107"
       inkscape:connector-curvature="0" />
    <path
       style="fill:none;stroke:#000000;stroke-width:1.00070214;stroke-linecap:round"
       d="m 1214.0826,-215.67296 0,0 0,0 0,0 0,0 0,0 0,0 0,0 0,0 z"
       id="path109"
       inkscape:connector-curvature="0" />
    <path
       style="fill:none;stroke:#000000;stroke-width:1.00070214;stroke-linecap:round"
       d="m 549.7132,-215.67296 0,0 0,0 0,0 0,0 0,0 0,0 0,0 0,0 z"
       id="path111"
       inkscape:connector-curvature="0" />
    <path
       style="fill:none;stroke:#000000;stroke-width:1.00070214;stroke-linecap:round"
       d="m 877.46879,-215.67296 0,0 0,0 0,0 0,0 0,0 0,0 0,0 0,0 z"
       id="path113"
       inkscape:connector-curvature="0" />
    <path
       style="display:inline;fill:none;stroke:#008000;stroke-linecap:round"
       d="m 185.52628,342.1736 c -4.3307,0.04 -7.86087,-3.464 -7.86087,-7.795"
       id="path23-6"
       inkscape:connector-curvature="0" />
    <path
       style="display:inline;fill:none;stroke:#008000;stroke-linecap:round"
       d="m 177.66541,334.3786 c 0,-4.331 3.53017,-7.831 7.86087,-7.795"
       id="path25-9"
       inkscape:connector-curvature="0" />
    <path
       style="display:inline;fill:none;stroke:#008000;stroke-linecap:round"
       d="m 185.52628,326.5836 c 4.3307,-0.04 7.86087,3.464 7.86087,7.795"
       id="path27-2"
       inkscape:connector-curvature="0" />
    <path
       style="display:inline;fill:none;stroke:#008000;stroke-linecap:round"
       d="m 193.38715,334.3786 c 0,4.331 -3.53017,7.831 -7.86087,7.795"
       id="path29-8"
       inkscape:connector-curvature="0" />
    <path
       style="display:inline;fill:none;stroke:#008000;stroke-linecap:round"
       d="m 185.52628,266.8786 c -4.3307,0.04 -7.86087,-3.464 -7.86087,-7.795"
       id="path31-8"
       inkscape:connector-curvature="0" />
    <path
       style="display:inline;fill:none;stroke:#008000;stroke-linecap:round"
       d="m 177.66541,259.0836 c 0,-4.331 3.53017,-7.831 7.86087,-7.795"
       id="path33-5"
       inkscape:connector-curvature="0" />
    <path
       style="display:inline;fill:none;stroke:#008000;stroke-linecap:round"
       d="m 185.52628,251.2886 c 4.3307,-0.04 7.86087,3.464 7.86087,7.795"
       id="path35-2"
       inkscape:connector-curvature="0" />
    <path
       style="display:inline;fill:none;stroke:#008000;stroke-linecap:round"
       d="m 193.38715,259.0836 c 0,4.331 -3.53017,7.831 -7.86087,7.795"
       id="path37-5"
       inkscape:connector-curvature="0" />
    <path
       style="display:inline;fill:none;stroke:#008000;stroke-linecap:round"
       d="m 185.52628,342.1736 0,0 0,0 0,0 0,0 0,0 0,0 0,0 0,0 z"
       id="path65-0"
       inkscape:connector-curvature="0" />
    <path
       style="display:inline;fill:none;stroke:#008000;stroke-linecap:round"
       d="m 185.52628,266.8786 0,0 0,0 0,0 0,0 0,0 0,0 0,0 0,0 z"
       id="path75-4"
       inkscape:connector-curvature="0" />
    <path
       style="display:inline;fill:none;stroke:#000000;stroke-linecap:round"
       d="m 1276.1518,1362.9311 c -3.4247,0 -6.201,-2.776 -6.201,-6.201"
       id="path39-9"
       inkscape:connector-curvature="0" />
    <path
       style="display:inline;fill:none;stroke:#000000;stroke-linecap:round"
       d="m 1269.9508,1356.7301 c 0,-3.425 2.7763,-6.201 6.201,-6.201"
       id="path41-3"
       inkscape:connector-curvature="0" />
    <path
       style="display:inline;fill:none;stroke:#000000;stroke-linecap:round"
       d="m 1276.1518,1350.5291 c 3.4248,0 6.201,2.776 6.201,6.201"
       id="path43-0"
       inkscape:connector-curvature="0" />
    <path
       style="display:inline;fill:none;stroke:#000000;stroke-width:1.00070214;stroke-linecap:round"
       d="m 1282.3524,1356.721 c 0,3.4298 -2.7761,6.2097 -6.2009,6.2097"
       id="path45-9"
       inkscape:connector-curvature="0" />
    <path
       style="display:inline;fill:none;stroke:#000000;stroke-linecap:round"
       d="m 1276.1518,1362.9311 0,0 0,0 0,0 0,0 0,0 0,0 0,0 0,0 z"
       id="path85-4"
       inkscape:connector-curvature="0" />
    <path
       style="display:inline;fill:none;stroke:#000000;stroke-width:1.00070214;stroke-linecap:round"
       d="m 221.92719,-215.70947 c -3.42472,0 -6.201,-2.7799 -6.201,-6.20972"
       id="path87-0"
       inkscape:connector-curvature="0" />
    <path
       style="display:inline;fill:none;stroke:#000000;stroke-width:1.00070214;stroke-linecap:round"
       d="m 215.72619,-221.91919 c 0,-3.42981 2.77628,-6.20971 6.201,-6.20971"
       id="path89-1"
       inkscape:connector-curvature="0" />
    <path
       style="display:inline;fill:none;stroke:#000000;stroke-width:1.00070214;stroke-linecap:round"
       d="m 221.92719,-228.1289 c 3.42471,0 6.20099,2.7799 6.20099,6.20971"
       id="path91-5"
       inkscape:connector-curvature="0" />
    <path
       style="display:inline;fill:none;stroke:#000000;stroke-width:1.00070214;stroke-linecap:round"
       d="m 228.12818,-221.91919 c 0,3.42982 -2.77628,6.20972 -6.20099,6.20972"
       id="path93-0"
       inkscape:connector-curvature="0" />
    <path
       style="display:inline;fill:none;stroke:#000000;stroke-width:1.00070214;stroke-linecap:round"
       d="m 221.92719,-215.70947 0,0 0,0 0,0 0,0 0,0 0,0 0,0 0,0 z"
       id="path111-2"
       inkscape:connector-curvature="0" />
  </g>
</svg>
