0
SECTION
2
HEADER
9
$INSUNITS
70
4
9
$ACADVER
1
AC1014
9
$HANDSEED
5
FFFF
0
ENDSEC
0
SECTION
2
TABLES
0
TABLE
2
VPORT
5
8
100
AcDbSymbolTable
0
ENDTAB
0
TABLE
2
LTYPE
5
5
100
AcDbSymbolTable
0
LTYPE
5
14
100
AcDbSymbolTableRecord
100
AcDbLinetypeTableRecord
2
BYBLOCK
70
0
0
LTYPE
5
15
100
AcDbSymbolTableRecord
100
AcDbLinetypeTableRecord
2
BYLAYER
70
0
0
ENDTAB
0
TABLE
2
LAYER
5
2
100
AcDbSymbolTable
70
2
0
LAYER
5
50
100
AcDbSymbolTableRecord
100
AcDbLayerTableRecord
2
0
70
0
6
CONTINUOUS
0
ENDTAB
0
TABLE
2
STYLE
5
3
100
AcDbSymbolTable
70
1
0
STYLE
5
11
100
AcDbSymbolTableRecord
100
AcDbTextStyleTableRecord
2
STANDARD
70
0
0
ENDTAB
0
TABLE
2
VIEW
5
6
100
AcDbSymbolTable
70
0
0
ENDTAB
0
TABLE
2
UCS
5
7
100
AcDbSymbolTable
70
0
0
ENDTAB
0
TABLE
2
APPID
5
9
100
AcDbSymbolTable
70
2
0
APPID
5
12
100
AcDbSymbolTableRecord
100
AcDbRegAppTableRecord
2
ACAD
70
0
0
ENDTAB
0
TABLE
2
DIMSTYLE
5
A
100
AcDbSymbolTable
70
1
0
ENDTAB
0
TABLE
2
BLOCK_RECORD
5
1
100
AcDbSymbolTable
70
1
0
BLOCK_RECORD
5
1F
100
AcDbSymbolTableRecord
100
AcDbBlockTableRecord
2
*MODEL_SPACE
0
BLOCK_RECORD
5
1B
100
AcDbSymbolTableRecord
100
AcDbBlockTableRecord
2
*PAPER_SPACE
0
ENDTAB
0
ENDSEC
0
SECTION
2
BLOCKS
0
BLOCK
5
20
100
AcDbEntity
100
AcDbBlockBegin
2
*MODEL_SPACE
0
ENDBLK
5
21
100
AcDbEntity
100
AcDbBlockEnd
0
BLOCK
5
1C
100
AcDbEntity
100
AcDbBlockBegin
2
*PAPER_SPACE
0
ENDBLK
5
1D
100
AcDbEntity
100
AcDbBlockEnd
0
ENDSEC
0
SECTION
2
ENTITIES
0
SPLINE
5
100
100
AcDbEntity
8
0
100
AcDbSpline
70
1064
71
3
72
8
73
4
74
0
42
0.000000001
43
0.0000000001
44
0.0000000001
40
0
40
0
40
0
40
0
40
1
40
1
40
1
40
1
10
313.37071803042301
20
226.14499774535267
30
0
10
313.37002714673315
20
227.11781750002444
30
0
10
314.16330254744497
20
227.90465207197883
30
0
10
315.13632691603431
20
227.89603009863418
30
0
0
SPLINE
5
101
100
AcDbEntity
8
0
100
AcDbSpline
70
1064
71
3
72
8
73
4
74
0
42
0.000000001
43
0.0000000001
44
0.0000000001
40
0
40
0
40
0
40
0
40
1
40
1
40
1
40
1
10
12.859639000000001
20
306.93091599999997
30
0
10
14.081858
20
306.94220499999994
30
0
10
15.078151000000002
20
305.95329900000002
30
0
10
15.078151000000002
20
304.73099400000001
30
0
0
SPLINE
5
102
100
AcDbEntity
8
0
100
AcDbSpline
70
1064
71
3
72
8
73
4
74
0
42
0.000000001
43
0.0000000001
44
0.0000000001
40
0
40
0
40
0
40
0
40
1
40
1
40
1
40
1
10
12.859639000000001
20
107.18092099999998
30
0
10
14.081858
20
107.19220999999997
30
0
10
15.078151000000002
20
106.20330299999998
30
0
10
15.078151000000002
20
104.98099899999998
30
0
0
LWPOLYLINE
5
103
100
AcDbEntity
8
0
100
AcDbPolyline
90
4
70
1
43
0.0
10
3.1893170000000026
20
2.8392990000000005
10
320.092713
20
2.8392989999999685
10
320.092713
20
464.57468000000006
10
3.1893170000000004
20
464.57468000000006
0
SPLINE
5
104
100
AcDbEntity
8
0
100
AcDbSpline
70
1064
71
3
72
8
73
4
74
0
42
0.000000001
43
0.0000000001
44
0.0000000001
40
0
40
0
40
0
40
0
40
1
40
1
40
1
40
1
10
315.141096
20
124.891256
30
0
10
314.17457000000769
20
124.89125213536406
30
0
10
313.39103286740794
20
125.67469800241196
30
0
10
313.39102900243216
20
126.64130900240421
30
0
0
SPLINE
5
105
100
AcDbEntity
8
0
100
AcDbSpline
70
1064
71
3
72
8
73
4
74
0
42
0.000000001
43
0.0000000001
44
0.0000000001
40
0
40
0
40
0
40
0
40
1
40
1
40
1
40
1
10
12.859639000000001
20
302.53107199999999
30
0
10
11.637419000000001
20
302.51978299999996
30
0
10
10.641127000000001
20
303.50868999999994
30
0
10
10.641127000000001
20
304.73099400000001
30
0
0
SPLINE
5
106
100
AcDbEntity
8
0
100
AcDbSpline
70
1064
71
3
72
8
73
4
74
0
42
0.000000001
43
0.0000000001
44
0.0000000001
40
0
40
0
40
0
40
0
40
1
40
1
40
1
40
1
10
204.39125200000004
20
459.62028900000001
30
0
10
204.39125200000004
20
458.65231700000004
30
0
10
203.60772400000002
20
457.86776799999996
30
0
10
202.64119199999999
20
457.86776799999996
30
0
0
SPLINE
5
107
100
AcDbEntity
8
0
100
AcDbSpline
70
1064
71
3
72
8
73
4
74
0
42
0.000000001
43
0.0000000001
44
0.0000000001
40
0
40
0
40
0
40
0
40
1
40
1
40
1
40
1
10
115.391338
20
459.62028900000001
30
0
10
115.391338
20
458.65231700000004
30
0
10
114.60781000000003
20
457.86776799999996
30
0
10
113.64128100000001
20
457.86776799999996
30
0
0
SPLINE
5
108
100
AcDbEntity
8
0
100
AcDbSpline
70
1064
71
3
72
8
73
4
74
0
42
0.000000001
43
0.0000000001
44
0.0000000001
40
0
40
0
40
0
40
0
40
1
40
1
40
1
40
1
10
113.64128100000001
20
461.37280700000008
30
0
10
114.60781000000003
20
461.37280700000008
30
0
10
115.391338
20
460.58825700000006
30
0
10
115.391338
20
459.62028900000001
30
0
0
SPLINE
5
109
100
AcDbEntity
8
0
100
AcDbSpline
70
1064
71
3
72
8
73
4
74
0
42
0.000000001
43
0.0000000001
44
0.0000000001
40
0
40
0
40
0
40
0
40
1
40
1
40
1
40
1
10
202.64119199999999
20
457.86776799999996
30
0
10
201.67466200000004
20
457.86776799999996
30
0
10
200.89113400000002
20
458.65231700000004
30
0
10
200.89113400000002
20
459.62028900000001
30
0
0
SPLINE
5
110
100
AcDbEntity
8
0
100
AcDbSpline
70
1064
71
3
72
8
73
4
74
0
42
0.000000001
43
0.0000000001
44
0.0000000001
40
0
40
0
40
0
40
0
40
1
40
1
40
1
40
1
10
315.1584107325599
20
18.848181247331787
30
0
10
314.19188396508667
20
18.848851685154273
30
0
10
313.40889459815031
20
19.632843999500842
30
0
10
313.40956509423995
20
20.599454766953798
30
0
0
SPLINE
5
111
100
AcDbEntity
8
0
100
AcDbSpline
70
1064
71
3
72
8
73
4
74
0
42
0.000000001
43
0.0000000001
44
0.0000000001
40
0
40
0
40
0
40
0
40
1
40
1
40
1
40
1
10
315.14118100000007
20
331.39104199999997
30
0
10
314.17465499999997
20
331.39104199999997
30
0
10
313.391121
20
332.17449100000005
30
0
10
313.391121
20
333.14110200000005
30
0
0
SPLINE
5
112
100
AcDbEntity
8
0
100
AcDbSpline
70
1064
71
3
72
8
73
4
74
0
42
0.000000001
43
0.0000000001
44
0.0000000001
40
0
40
0
40
0
40
0
40
1
40
1
40
1
40
1
10
10.641127000000001
20
325.98091600000004
30
0
10
10.641127000000001
20
327.20322100000004
30
0
10
11.637419000000001
20
328.19099899999998
30
0
10
12.859639000000001
20
328.18083900000005
30
0
0
SPLINE
5
113
100
AcDbEntity
8
0
100
AcDbSpline
70
1064
71
3
72
8
73
4
74
0
42
0.000000001
43
0.0000000001
44
0.0000000001
40
0
40
0
40
0
40
0
40
1
40
1
40
1
40
1
10
202.64119199999999
20
461.37280700000008
30
0
10
203.60772400000002
20
461.37280700000008
30
0
10
204.39125200000004
20
460.58825700000006
30
0
10
204.39125200000004
20
459.62028900000001
30
0
0
SPLINE
5
114
100
AcDbEntity
8
0
100
AcDbSpline
70
1064
71
3
72
8
73
4
74
0
42
0.000000001
43
0.0000000001
44
0.0000000001
40
0
40
0
40
0
40
0
40
1
40
1
40
1
40
1
10
12.859639000000001
20
128.43084299999998
30
0
10
14.081858
20
128.44213199999999
30
0
10
15.078151000000002
20
127.453226
30
0
10
15.078151000000002
20
126.230921
30
0
0
SPLINE
5
115
100
AcDbEntity
8
0
100
AcDbSpline
70
1064
71
3
72
8
73
4
74
0
42
0.000000001
43
0.0000000001
44
0.0000000001
40
0
40
0
40
0
40
0
40
1
40
1
40
1
40
1
10
19.482723999999994
20
459.63059299999998
30
0
10
19.482723999999994
20
460.59856100000002
30
0
10
20.266251999999998
20
461.3831110000001
30
0
10
21.232783999999995
20
461.3831110000001
30
0
0
SPLINE
5
116
100
AcDbEntity
8
0
100
AcDbSpline
70
1064
71
3
72
8
73
4
74
0
42
0.000000001
43
0.0000000001
44
0.0000000001
40
0
40
0
40
0
40
0
40
1
40
1
40
1
40
1
10
200.89113400000002
20
459.62028900000001
30
0
10
200.89113400000002
20
460.58825700000006
30
0
10
201.67466200000004
20
461.37280700000008
30
0
10
202.64119199999999
20
461.37280700000008
30
0
0
SPLINE
5
117
100
AcDbEntity
8
0
100
AcDbSpline
70
1064
71
3
72
8
73
4
74
0
42
0.000000001
43
0.0000000001
44
0.0000000001
40
0
40
0
40
0
40
0
40
1
40
1
40
1
40
1
10
316.88874647572737
20
226.13179804870094
30
0
10
316.88874647572737
20
225.15733004870089
30
0
10
316.09496847572734
20
224.36995304870092
30
0
10
315.12192247572733
20
224.37928004870091
30
0
0
SPLINE
5
118
100
AcDbEntity
8
0
100
AcDbSpline
70
1064
71
3
72
8
73
4
74
0
42
0.000000001
43
0.0000000001
44
0.0000000001
40
0
40
0
40
0
40
0
40
1
40
1
40
1
40
1
10
15.078151000000002
20
325.98091600000004
30
0
10
15.078151000000002
20
324.75861199999997
30
0
10
14.081858
20
323.77083400000004
30
0
10
12.859639000000001
20
323.78099399999996
30
0
0
SPLINE
5
119
100
AcDbEntity
8
0
100
AcDbSpline
70
1064
71
3
72
8
73
4
74
0
42
0.000000001
43
0.0000000001
44
0.0000000001
40
0
40
0
40
0
40
0
40
1
40
1
40
1
40
1
10
111.891221
20
459.62028900000001
30
0
10
111.891221
20
460.58825700000006
30
0
10
112.67474800000001
20
461.37280700000008
30
0
10
113.64128100000001
20
461.37280700000008
30
0
0
SPLINE
5
120
100
AcDbEntity
8
0
100
AcDbSpline
70
1064
71
3
72
8
73
4
74
0
42
0.000000001
43
0.0000000001
44
0.0000000001
40
0
40
0
40
0
40
0
40
1
40
1
40
1
40
1
10
297.64108900000002
20
461.37280700000008
30
0
10
298.60764399999999
20
461.37280700000008
30
0
10
299.39114900000004
20
460.58825700000006
30
0
10
299.39114900000004
20
459.62028900000001
30
0
0
SPLINE
5
121
100
AcDbEntity
8
0
100
AcDbSpline
70
1064
71
3
72
8
73
4
74
0
42
0.000000001
43
0.0000000001
44
0.0000000001
40
0
40
0
40
0
40
0
40
1
40
1
40
1
40
1
10
12.859639000000001
20
323.78099399999996
30
0
10
11.637419000000001
20
323.76970499999999
30
0
10
10.641127000000001
20
324.75861199999997
30
0
10
10.641127000000001
20
325.98091600000004
30
0
0
SPLINE
5
122
100
AcDbEntity
8
0
100
AcDbSpline
70
1064
71
3
72
8
73
4
74
0
42
0.000000001
43
0.0000000001
44
0.0000000001
40
0
40
0
40
0
40
0
40
1
40
1
40
1
40
1
10
12.859639000000001
20
102.78107699999998
30
0
10
11.637419000000001
20
102.76978799999998
30
0
10
10.641127000000001
20
103.75869499999999
30
0
10
10.641127000000001
20
104.98099899999998
30
0
0
SPLINE
5
123
100
AcDbEntity
8
0
100
AcDbSpline
70
1064
71
3
72
8
73
4
74
0
42
0.000000001
43
0.0000000001
44
0.0000000001
40
0
40
0
40
0
40
0
40
1
40
1
40
1
40
1
10
313.40956509424035
20
20.599454766953809
30
0
10
313.40888701852521
20
21.566065529119385
30
0
10
314.19187023780461
20
22.350063983210212
30
0
10
315.15839699999088
20
22.350741999999535
30
0
0
SPLINE
5
124
100
AcDbEntity
8
0
100
AcDbSpline
70
1064
71
3
72
8
73
4
74
0
42
0.000000001
43
0.0000000001
44
0.0000000001
40
0
40
0
40
0
40
0
40
1
40
1
40
1
40
1
10
316.908457
20
20.600681999999999
30
0
10
316.90844911964302
20
19.632716000032076
30
0
10
316.12496573253742
20
18.848173378462331
30
0
10
315.15841073256945
20
18.848181247332157
30
0
0
SPLINE
5
125
100
AcDbEntity
8
0
100
AcDbSpline
70
1064
71
3
72
8
73
4
74
0
42
0.000000001
43
0.0000000001
44
0.0000000001
40
0
40
0
40
0
40
0
40
1
40
1
40
1
40
1
10
12.859639000000001
20
124.03099899999999
30
0
10
11.637419000000001
20
124.01971
30
0
10
10.641127000000001
20
125.00861699999999
30
0
10
10.641127000000001
20
126.230921
30
0
0
SPLINE
5
126
100
AcDbEntity
8
0
100
AcDbSpline
70
1064
71
3
72
8
73
4
74
0
42
0.000000001
43
0.0000000001
44
0.0000000001
40
0
40
0
40
0
40
0
40
1
40
1
40
1
40
1
10
315.13984448820912
20
128.39261263223045
30
0
10
316.10639925182903
20
128.39328861197129
30
0
10
316.89045198108096
20
127.61038776360115
30
0
10
316.89112799998657
20
126.64377699999491
30
0
0
SPLINE
5
127
100
AcDbEntity
8
0
100
AcDbSpline
70
1064
71
3
72
8
73
4
74
0
42
0.000000001
43
0.0000000001
44
0.0000000001
40
0
40
0
40
0
40
0
40
1
40
1
40
1
40
1
10
113.64128100000001
20
457.86776799999996
30
0
10
112.67474800000001
20
457.86776799999996
30
0
10
111.891221
20
458.65231700000004
30
0
10
111.891221
20
459.62028900000001
30
0
0
SPLINE
5
128
100
AcDbEntity
8
0
100
AcDbSpline
70
1064
71
3
72
8
73
4
74
0
42
0.000000001
43
0.0000000001
44
0.0000000001
40
0
40
0
40
0
40
0
40
1
40
1
40
1
40
1
10
299.39114900000004
20
459.62028900000001
30
0
10
299.39114900000004
20
458.65231700000004
30
0
10
298.60764399999999
20
457.86776799999996
30
0
10
297.64108900000002
20
457.86776799999996
30
0
0
SPLINE
5
129
100
AcDbEntity
8
0
100
AcDbSpline
70
1064
71
3
72
8
73
4
74
0
42
0.000000001
43
0.0000000001
44
0.0000000001
40
0
40
0
40
0
40
0
40
1
40
1
40
1
40
1
10
15.078151000000002
20
304.73099400000001
30
0
10
15.078151000000002
20
303.50868999999994
30
0
10
14.081858
20
302.52091200000001
30
0
10
12.859639000000001
20
302.53107199999999
30
0
0
SPLINE
5
130
100
AcDbEntity
8
0
100
AcDbSpline
70
1064
71
3
72
8
73
4
74
0
42
0.000000001
43
0.0000000001
44
0.0000000001
40
0
40
0
40
0
40
0
40
1
40
1
40
1
40
1
10
315.14072237606382
20
334.89162050377968
30
0
10
316.1072771423789
20
334.89229261872879
30
0
10
316.89132674117718
20
334.10938863531169
30
0
10
316.8919988950671
20
333.14277786901016
30
0
0
SPLINE
5
131
100
AcDbEntity
8
0
100
AcDbSpline
70
1064
71
3
72
8
73
4
74
0
42
0.000000001
43
0.0000000001
44
0.0000000001
40
0
40
0
40
0
40
0
40
1
40
1
40
1
40
1
10
15.078151000000002
20
104.98099899999998
30
0
10
15.078151000000002
20
103.75869499999999
30
0
10
14.081858
20
102.77091699999998
30
0
10
12.859639000000001
20
102.78107699999998
30
0
0
SPLINE
5
132
100
AcDbEntity
8
0
100
AcDbSpline
70
1064
71
3
72
8
73
4
74
0
42
0.000000001
43
0.0000000001
44
0.0000000001
40
0
40
0
40
0
40
0
40
1
40
1
40
1
40
1
10
313.391121
20
439.14122800000001
30
0
10
313.391121
20
440.10783900000001
30
0
10
314.17465499999997
20
440.89128799999997
30
0
10
315.14118100000007
20
440.89128799999997
30
0
0
SPLINE
5
133
100
AcDbEntity
8
0
100
AcDbSpline
70
1064
71
3
72
8
73
4
74
0
42
0.000000001
43
0.0000000001
44
0.0000000001
40
0
40
0
40
0
40
0
40
1
40
1
40
1
40
1
10
315.12192247572744
20
224.37928004870091
30
0
10
314.14886765679262
20
224.3794743701902
30
0
10
313.36205629668632
20
225.17193429585745
30
0
10
313.37071803044336
20
226.1449977453675
30
0
0
SPLINE
5
134
100
AcDbEntity
8
0
100
AcDbSpline
70
1064
71
3
72
8
73
4
74
0
42
0.000000001
43
0.0000000001
44
0.0000000001
40
0
40
0
40
0
40
0
40
1
40
1
40
1
40
1
10
15.078151000000002
20
126.230921
30
0
10
15.078151000000002
20
125.00861699999999
30
0
10
14.081858
20
124.02083899999997
30
0
10
12.859639000000001
20
124.03099899999999
30
0
0
SPLINE
5
135
100
AcDbEntity
8
0
100
AcDbSpline
70
1064
71
3
72
8
73
4
74
0
42
0.000000001
43
0.0000000001
44
0.0000000001
40
0
40
0
40
0
40
0
40
1
40
1
40
1
40
1
10
316.89199889506727
20
333.14277786901027
30
0
10
316.8915647252752
20
332.17480996638096
30
0
10
316.10773590277154
20
331.3906084639911
30
0
10
315.14118100000007
20
331.39104199999991
30
0
0
SPLINE
5
136
100
AcDbEntity
8
0
100
AcDbSpline
70
1064
71
3
72
8
73
4
74
0
42
0.000000001
43
0.0000000001
44
0.0000000001
40
0
40
0
40
0
40
0
40
1
40
1
40
1
40
1
10
316.89112799999998
20
126.64377700000001
30
0
10
316.89112799999998
20
125.67580600000001
30
0
10
316.10765099999998
20
124.89125600000001
30
0
10
315.141096
20
124.89125600000001
30
0
0
SPLINE
5
137
100
AcDbEntity
8
0
100
AcDbSpline
70
1064
71
3
72
8
73
4
74
0
42
0.000000001
43
0.0000000001
44
0.0000000001
40
0
40
0
40
0
40
0
40
1
40
1
40
1
40
1
10
313.3910290024229
20
126.6413090024006
30
0
10
313.39034186386766
20
127.60791975816616
30
0
10
314.17331873242597
20
128.39192555410105
30
0
10
315.1398444882131
20
128.39261263223196
30
0
0
SPLINE
5
138
100
AcDbEntity
8
0
100
AcDbSpline
70
1064
71
3
72
8
73
4
74
0
42
0.000000001
43
0.0000000001
44
0.0000000001
40
0
40
0
40
0
40
0
40
1
40
1
40
1
40
1
10
10.641127000000001
20
104.98099899999998
30
0
10
10.641127000000001
20
106.20330299999998
30
0
10
11.637419000000001
20
107.19108099999998
30
0
10
12.859639000000001
20
107.18092099999998
30
0
0
SPLINE
5
139
100
AcDbEntity
8
0
100
AcDbSpline
70
1064
71
3
72
8
73
4
74
0
42
0.000000001
43
0.0000000001
44
0.0000000001
40
0
40
0
40
0
40
0
40
1
40
1
40
1
40
1
10
315.13632691605443
20
227.89603009864885
30
0
10
316.10940962965958
20
227.89650312591141
30
0
10
316.89673730646956
20
227.10458522944685
30
0
10
316.88874647572715
20
226.13179804870066
30
0
0
SPLINE
5
140
100
AcDbEntity
8
0
100
AcDbSpline
70
1064
71
3
72
8
73
4
74
0
42
0.000000001
43
0.0000000001
44
0.0000000001
40
0
40
0
40
0
40
0
40
1
40
1
40
1
40
1
10
10.641127000000001
20
126.230921
30
0
10
10.641127000000001
20
127.453226
30
0
10
11.637419000000001
20
128.44100299999999
30
0
10
12.859639000000001
20
128.43084299999998
30
0
0
SPLINE
5
141
100
AcDbEntity
8
0
100
AcDbSpline
70
1064
71
3
72
8
73
4
74
0
42
0.000000001
43
0.0000000001
44
0.0000000001
40
0
40
0
40
0
40
0
40
1
40
1
40
1
40
1
10
315.13996363470034
20
437.38995148092772
30
0
10
314.17343786837819
20
437.39062357574915
30
0
10
313.39044884607188
20
438.17461723369843
30
0
10
313.39112099999994
20
439.14122800000001
30
0
0
SPLINE
5
142
100
AcDbEntity
8
0
100
AcDbSpline
70
1064
71
3
72
8
73
4
74
0
42
0.000000001
43
0.0000000001
44
0.0000000001
40
0
40
0
40
0
40
0
40
1
40
1
40
1
40
1
10
21.232783999999995
20
457.87807200000003
30
0
10
20.266251999999998
20
457.87807200000003
30
0
10
19.482723999999994
20
458.662621
30
0
10
19.482723999999994
20
459.63059299999998
30
0
0
SPLINE
5
143
100
AcDbEntity
8
0
100
AcDbSpline
70
1064
71
3
72
8
73
4
74
0
42
0.000000001
43
0.0000000001
44
0.0000000001
40
0
40
0
40
0
40
0
40
1
40
1
40
1
40
1
10
315.15839700000004
20
22.350742
30
0
10
316.12495099999995
20
22.350742
30
0
10
316.908457
20
21.567292999999999
30
0
10
316.908457
20
20.600681999999999
30
0
0
SPLINE
5
144
100
AcDbEntity
8
0
100
AcDbSpline
70
1064
71
3
72
8
73
4
74
0
42
0.000000001
43
0.0000000001
44
0.0000000001
40
0
40
0
40
0
40
0
40
1
40
1
40
1
40
1
10
313.39112099999085
20
333.14110199999027
30
0
10
313.39086772132077
20
334.1077129668073
30
0
10
314.17419640923475
20
334.89136724737244
30
0
10
315.14072237605473
20
334.89162050377013
30
0
0
SPLINE
5
145
100
AcDbEntity
8
0
100
AcDbSpline
70
1064
71
3
72
8
73
4
74
0
42
0.000000001
43
0.0000000001
44
0.0000000001
40
0
40
0
40
0
40
0
40
1
40
1
40
1
40
1
10
12.859639000000001
20
328.18083900000005
30
0
10
14.081858
20
328.19212699999991
30
0
10
15.078151000000002
20
327.20322100000004
30
0
10
15.078151000000002
20
325.98091600000004
30
0
0
SPLINE
5
146
100
AcDbEntity
8
0
100
AcDbSpline
70
1064
71
3
72
8
73
4
74
0
42
0.000000001
43
0.0000000001
44
0.0000000001
40
0
40
0
40
0
40
0
40
1
40
1
40
1
40
1
10
10.641127000000001
20
304.73099400000001
30
0
10
10.641127000000001
20
305.95329900000002
30
0
10
11.637419000000001
20
306.94107600000001
30
0
10
12.859639000000001
20
306.93091599999997
30
0
0
SPLINE
5
147
100
AcDbEntity
8
0
100
AcDbSpline
70
1064
71
3
72
8
73
4
74
0
42
0.000000001
43
0.0000000001
44
0.0000000001
40
0
40
0
40
0
40
0
40
1
40
1
40
1
40
1
10
297.64108900000002
20
457.86776799999996
30
0
10
296.67456299999998
20
457.86776799999996
30
0
10
295.891029
20
458.65231700000004
30
0
10
295.891029
20
459.62028900000001
30
0
0
SPLINE
5
148
100
AcDbEntity
8
0
100
AcDbSpline
70
1064
71
3
72
8
73
4
74
0
42
0.000000001
43
0.0000000001
44
0.0000000001
40
0
40
0
40
0
40
0
40
1
40
1
40
1
40
1
10
22.982841999999994
20
459.63059299999998
30
0
10
22.982841999999994
20
458.662621
30
0
10
22.199313999999994
20
457.87807200000003
30
0
10
21.232783999999995
20
457.87807200000003
30
0
0
SPLINE
5
149
100
AcDbEntity
8
0
100
AcDbSpline
70
1064
71
3
72
8
73
4
74
0
42
0.000000001
43
0.0000000001
44
0.0000000001
40
0
40
0
40
0
40
0
40
1
40
1
40
1
40
1
10
295.891029
20
459.62028900000001
30
0
10
295.891029
20
460.58825700000006
30
0
10
296.67456299999998
20
461.37280700000008
30
0
10
297.64108900000002
20
461.37280700000008
30
0
0
SPLINE
5
150
100
AcDbEntity
8
0
100
AcDbSpline
70
1064
71
3
72
8
73
4
74
0
42
0.000000001
43
0.0000000001
44
0.0000000001
40
0
40
0
40
0
40
0
40
1
40
1
40
1
40
1
10
315.14118100000007
20
440.89128799999997
30
0
10
316.10773600000005
20
440.89128799999997
30
0
10
316.89124100000004
20
440.10783900000001
30
0
10
316.89124100000004
20
439.14122800000001
30
0
0
SPLINE
5
151
100
AcDbEntity
8
0
100
AcDbSpline
70
1064
71
3
72
8
73
4
74
0
42
0.000000001
43
0.0000000001
44
0.0000000001
40
0
40
0
40
0
40
0
40
1
40
1
40
1
40
1
10
21.232783999999995
20
461.3831110000001
30
0
10
22.199313999999994
20
461.3831110000001
30
0
10
22.982841999999994
20
460.59856100000002
30
0
10
22.982841999999994
20
459.63059299999998
30
0
0
SPLINE
5
152
100
AcDbEntity
8
0
100
AcDbSpline
70
1064
71
3
72
8
73
4
74
0
42
0.000000001
43
0.0000000001
44
0.0000000001
40
0
40
0
40
0
40
0
40
1
40
1
40
1
40
1
10
316.89124100000004
20
439.14122800000001
30
0
10
316.89055290168329
20
438.17325624457288
30
0
10
316.10651839048558
20
437.38926438990796
30
0
10
315.13996363470039
20
437.38995148092772
30
0
0
ENDSEC
0
SECTION
2
OBJECTS
0
DICTIONARY
5
C
100
AcDbDictionary
3
ACAD_GROUP
350
D
3
ACAD_MLINESTYLE
350
17
0
DICTIONARY
5
D
100
AcDbDictionary
0
DICTIONARY
5
1A
330
C
100
AcDbDictionary
0
DICTIONARY
5
17
100
AcDbDictionary
0
ENDSEC
0
EOF
