<?xml version="1.0" encoding="UTF-8" standalone="no"?>
<svg
   xmlns:dc="http://purl.org/dc/elements/1.1/"
   xmlns:cc="http://creativecommons.org/ns#"
   xmlns:rdf="http://www.w3.org/1999/02/22-rdf-syntax-ns#"
   xmlns:svg="http://www.w3.org/2000/svg"
   xmlns="http://www.w3.org/2000/svg"
   xmlns:sodipodi="http://sodipodi.sourceforge.net/DTD/sodipodi-0.dtd"
   xmlns:inkscape="http://www.inkscape.org/namespaces/inkscape"
   width="335.51398mm"
   height="165.28218mm"
   id="svg2"
   version="1.1"
   inkscape:version="0.91 r13725"
   sodipodi:docname="coverplates_rear_2_full_200_mm_travel.svg">
  <metadata
     id="metadata126">
    <rdf:RDF>
      <cc:Work
         rdf:about="">
        <dc:format>image/svg+xml</dc:format>
        <dc:type
           rdf:resource="http://purl.org/dc/dcmitype/StillImage" />
        <dc:title></dc:title>
      </cc:Work>
    </rdf:RDF>
  </metadata>
  <sodipodi:namedview
     pagecolor="#ffffff"
     bordercolor="#666666"
     borderopacity="1"
     objecttolerance="10"
     gridtolerance="10"
     guidetolerance="10"
     inkscape:pageopacity="0"
     inkscape:pageshadow="2"
     inkscape:window-width="1920"
     inkscape:window-height="1017"
     id="namedview124"
     showgrid="false"
     inkscape:document-units="mm"
     units="mm"
     showborder="false"
     inkscape:showpageshadow="false"
     fit-margin-top="0"
     fit-margin-left="0"
     fit-margin-right="0"
     fit-margin-bottom="0"
     inkscape:zoom="0.63429569"
     inkscape:cx="790.28252"
     inkscape:cy="443.32661"
     inkscape:window-x="-8"
     inkscape:window-y="-8"
     inkscape:window-maximized="1"
     inkscape:current-layer="g22" />
  <desc
     id="desc4">C:\Users\Bo\Documents\GitHub\Round4\Sheets  (DRAFT - NOT COMPLETE OR VERIFIED)\Optional rear housing\coverplates_rear_2.dxf - scale = 1.000000, origin = (0.000000, 0.000000), auto = False</desc>
  <defs
     id="defs6">
    <marker
       refY="0"
       refX="0"
       style="overflow:visible"
       id="DistanceX"
       orient="auto">
      <path
         style="stroke:#000000;stroke-width:0.5"
         d="M 3,-3 -3,3 M 0,-5 0,5"
         id="path9"
         inkscape:connector-curvature="0" />
    </marker>
    <pattern
       height="8"
       width="8"
       patternUnits="userSpaceOnUse"
       y="0"
       x="0"
       id="Hatch">
      <path
         linecap="square"
         stroke="#000000"
         stroke-width="0.25"
         d="M8 4 l-4,4"
         id="path12" />
      <path
         linecap="square"
         stroke="#000000"
         stroke-width="0.25"
         d="M6 2 l-4,4"
         id="path14" />
      <path
         linecap="square"
         stroke="#000000"
         stroke-width="0.25"
         d="M4 0 l-4,4"
         id="path16" />
    </pattern>
    <symbol
       id="*MODEL_SPACE" />
    <symbol
       id="*PAPER_SPACE" />
  </defs>
  <g
     inkscape:label="0"
     inkscape:groupmode="layer"
     id="g20"
     transform="translate(1.7398406e-8,-466.71668)" />
  <g
     inkscape:label="ABDECKUNG"
     inkscape:groupmode="layer"
     id="g22"
     transform="translate(1.7398406e-8,-466.71668)">
    <path
       style="fill:none;stroke:#000000"
       d="m 1158.9204,908.87288 c 2.4119,1.39252 5.3835,1.39252 7.7955,0"
       id="path24"
       inkscape:connector-curvature="0" />
    <path
       style="fill:none;stroke:#000000"
       d="m 1166.7159,908.87288 c 2.4119,-1.39256 3.8977,-3.96607 3.8977,-6.75113"
       id="path26"
       inkscape:connector-curvature="0" />
    <path
       style="fill:none;stroke:#000000"
       d="m 1170.6136,902.12175 c 0,-2.78505 -1.4858,-5.35854 -3.8977,-6.75107"
       id="path28"
       inkscape:connector-curvature="0" />
    <path
       style="fill:none;stroke:#000000"
       d="m 1166.7159,895.37068 c -2.412,-1.39256 -5.3836,-1.39256 -7.7955,0"
       id="path30"
       inkscape:connector-curvature="0" />
    <path
       style="fill:none;stroke:#000000"
       d="m 1158.9204,895.37068 c -2.412,1.39253 -3.8978,3.96602 -3.8978,6.75107"
       id="path32"
       inkscape:connector-curvature="0" />
    <path
       style="fill:none;stroke:#000000"
       d="m 1155.0226,902.12175 c 0,2.78506 1.4858,5.35857 3.8978,6.75113"
       id="path34"
       inkscape:connector-curvature="0" />
    <path
       style="fill:none;stroke:#000000"
       d="m 1170.6136,977.31075 c 0,-2.78507 -1.4858,-5.35856 -3.8977,-6.75109"
       id="path36"
       inkscape:connector-curvature="0" />
    <path
       style="fill:none;stroke:#000000"
       d="m 1166.7159,970.55966 c -2.412,-1.39255 -5.3836,-1.39255 -7.7955,0"
       id="path38"
       inkscape:connector-curvature="0" />
    <path
       style="fill:none;stroke:#000000"
       d="m 1158.9204,970.55966 c -2.412,1.39253 -3.8978,3.96602 -3.8978,6.75109"
       id="path40"
       inkscape:connector-curvature="0" />
    <path
       style="fill:none;stroke:#000000"
       d="m 1155.0226,977.31075 c 0,2.78509 1.4858,5.35858 3.8978,6.75111"
       id="path42"
       inkscape:connector-curvature="0" />
    <path
       style="fill:none;stroke:#000000"
       d="m 1158.9204,984.06186 c 2.4119,1.39252 5.3835,1.39252 7.7955,0"
       id="path44"
       inkscape:connector-curvature="0" />
    <path
       style="fill:none;stroke:#000000"
       d="m 1166.7159,984.06186 c 2.4119,-1.39253 3.8977,-3.96602 3.8977,-6.75111"
       id="path46"
       inkscape:connector-curvature="0" />
    <path
       style="fill:none;stroke:#000000;stroke-width:1.03119349"
       d="m 5.3466062,1051.8464 1182.9668938,2e-4 0,-584.61432 -1187.79790327,0 0,584.61432 4.83100947,-2e-4 0,0 0,0 0,0 0,0 0,0 z"
       id="path48"
       inkscape:connector-curvature="0" />
    <path
       style="fill:none;stroke:#000000"
       d="m 888.49191,1051.862 0,0 0,0 0,0 0,0 0,0 0,0 0,0 0,0 z"
       id="path50"
       inkscape:connector-curvature="0" />
    <path
       style="fill:none;stroke:#000000"
       d="m 1158.9204,908.87288 0,0 0,0 0,0 0,0 0,0 0,0 0,0 0,0 z"
       id="path52"
       inkscape:connector-curvature="0" />
    <path
       style="fill:none;stroke:#000000"
       d="m 1106.3026,496.60701 c -2.4119,-1.39253 -5.3835,-1.39253 -7.7954,0"
       id="path54"
       inkscape:connector-curvature="0" />
    <path
       style="fill:none;stroke:#000000"
       d="m 1098.5072,496.60701 c -2.412,1.39253 -3.8978,3.96603 -3.8978,6.75112"
       id="path56"
       inkscape:connector-curvature="0" />
    <path
       style="fill:none;stroke:#000000"
       d="m 1094.6094,503.35813 c 0,2.78505 1.4858,5.35855 3.8978,6.75108"
       id="path58"
       inkscape:connector-curvature="0" />
    <path
       style="fill:none;stroke:#000000"
       d="m 1098.5072,510.10921 c 2.4119,1.39253 5.3835,1.39253 7.7954,0"
       id="path60"
       inkscape:connector-curvature="0" />
    <path
       style="fill:none;stroke:#000000"
       d="m 1106.3026,510.10921 c 2.412,-1.39253 3.8978,-3.96603 3.8978,-6.75108"
       id="path62"
       inkscape:connector-curvature="0" />
    <path
       style="fill:none;stroke:#000000"
       d="m 1110.2004,503.35813 c 0,-2.78509 -1.4858,-5.35859 -3.8978,-6.75112"
       id="path64"
       inkscape:connector-curvature="0" />
    <path
       style="fill:none;stroke:#000000"
       d="m 23.094865,895.3162 c -2.421472,1.40713 -3.902011,4.00503 -3.878448,6.80555"
       id="path66"
       inkscape:connector-curvature="0" />
    <path
       style="fill:none;stroke:#000000"
       d="m 19.216417,902.12175 c -0.02357,2.80052 1.456976,5.39844 3.878448,6.80554"
       id="path68"
       inkscape:connector-curvature="0" />
    <path
       style="fill:none;stroke:#000000"
       d="m 23.094865,908.92729 c 2.42146,1.40713 5.411646,1.40713 7.833114,0"
       id="path70"
       inkscape:connector-curvature="0" />
    <path
       style="fill:none;stroke:#000000"
       d="m 30.927979,908.92729 c 2.421464,-1.4071 3.90201,-4.00502 3.87844,-6.80554"
       id="path72"
       inkscape:connector-curvature="0" />
    <path
       style="fill:none;stroke:#000000"
       d="m 34.806419,902.12175 c 0.02357,-2.80052 -1.456976,-5.39842 -3.87844,-6.80555"
       id="path74"
       inkscape:connector-curvature="0" />
    <path
       style="fill:none;stroke:#000000"
       d="m 30.927979,895.3162 c -2.421468,-1.4071 -5.411654,-1.4071 -7.833114,0"
       id="path76"
       inkscape:connector-curvature="0" />
    <path
       style="fill:none;stroke:#000000"
       d="m 1170.6136,977.31075 0,0 0,0 0,0 0,0 0,0 0,0 0,0 0,0 z"
       id="path78"
       inkscape:connector-curvature="0" />
    <path
       style="fill:none;stroke:#000000"
       d="m 34.806419,977.31075 c 0.02357,-2.80052 -1.456976,-5.39844 -3.87844,-6.80554"
       id="path80"
       inkscape:connector-curvature="0" />
    <path
       style="fill:none;stroke:#000000"
       d="m 30.927979,970.50521 c -2.421468,-1.40709 -5.411654,-1.40709 -7.833114,0"
       id="path82"
       inkscape:connector-curvature="0" />
    <path
       style="fill:none;stroke:#000000"
       d="m 23.094865,970.50521 c -2.421472,1.4071 -3.902011,4.00502 -3.878448,6.80554"
       id="path84"
       inkscape:connector-curvature="0" />
    <path
       style="fill:none;stroke:#000000"
       d="m 19.216417,977.31075 c -0.02357,2.80051 1.456976,5.39846 3.878448,6.80556"
       id="path86"
       inkscape:connector-curvature="0" />
    <path
       style="fill:none;stroke:#000000"
       d="m 23.094865,984.11631 c 2.42146,1.40709 5.411646,1.40709 7.833114,0"
       id="path88"
       inkscape:connector-curvature="0" />
    <path
       style="fill:none;stroke:#000000"
       d="m 30.927979,984.11631 c 2.421464,-1.4071 3.90201,-4.00505 3.87844,-6.80556"
       id="path90"
       inkscape:connector-curvature="0" />
    <path
       style="fill:none;stroke:#000000"
       d="m 1170.6136,902.12175 0,0 0,0 0,0 0,0 0,0 0,0 0,0 0,0 0,0 z"
       id="path92"
       inkscape:connector-curvature="0" />
    <path
       style="fill:none;stroke:#000000"
       d="m 1170.6136,977.31075 0,0 0,0 0,0 0,0 0,0 0,0 0,0 0,0 0,0 z"
       id="path94"
       inkscape:connector-curvature="0" />
    <path
       style="fill:none;stroke:#000000"
       d="m 23.094865,895.3162 0,0 0,0 0,0 0,0 0,0 0,0 0,0 0,0 z"
       id="path96"
       inkscape:connector-curvature="0" />
    <path
       style="fill:none;stroke:#000000"
       d="m 34.806419,977.31075 0,0 0,0 0,0 0,0 0,0 0,0 0,0 0,0 z"
       id="path98"
       inkscape:connector-curvature="0" />
    <path
       style="fill:none;stroke:#000000"
       d="m 91.323163,496.60701 c -2.411936,-1.39253 -5.383563,-1.39253 -7.795499,0"
       id="path100"
       inkscape:connector-curvature="0" />
    <path
       style="fill:none;stroke:#000000"
       d="m 83.527664,496.60701 c -2.411936,1.39253 -3.897751,3.96603 -3.897751,6.75112"
       id="path102"
       inkscape:connector-curvature="0" />
    <path
       style="fill:none;stroke:#000000"
       d="m 79.629913,503.35813 c 0,2.78505 1.485815,5.35855 3.897751,6.75108"
       id="path104"
       inkscape:connector-curvature="0" />
    <path
       style="fill:none;stroke:#000000"
       d="m 83.527664,510.10921 c 2.411936,1.39253 5.383563,1.39253 7.795499,0"
       id="path106"
       inkscape:connector-curvature="0" />
    <path
       style="fill:none;stroke:#000000"
       d="m 91.323163,510.10921 c 2.41194,-1.39253 3.897751,-3.96603 3.897751,-6.75108"
       id="path108"
       inkscape:connector-curvature="0" />
    <path
       style="fill:none;stroke:#000000"
       d="m 95.220914,503.35813 c 0,-2.78509 -1.485811,-5.35859 -3.897751,-6.75112"
       id="path110"
       inkscape:connector-curvature="0" />
    <path
       style="fill:none;stroke:#000000"
       d="m 34.806419,902.12175 0,0 0,0 0,0 0,0 0,0 0,0 0,0 0,0 0,0 z"
       id="path112"
       inkscape:connector-curvature="0" />
    <path
       style="fill:none;stroke:#000000"
       d="m 34.806419,977.31075 0,0 0,0 0,0 0,0 0,0 0,0 0,0 0,0 0,0 z"
       id="path114"
       inkscape:connector-curvature="0" />
    <path
       style="fill:none;stroke:#000000"
       d="m 1106.3026,496.60701 0,0 0,0 0,0 0,0 0,0 0,0 0,0 0,0 z"
       id="path116"
       inkscape:connector-curvature="0" />
    <path
       style="fill:none;stroke:#000000"
       d="m 91.323163,496.60701 0,0 0,0 0,0 0,0 0,0 0,0 0,0 0,0 z"
       id="path118"
       inkscape:connector-curvature="0" />
    <path
       style="fill:none;stroke:#000000"
       d="m 95.220914,503.35813 0,0 0,0 0,0 0,0 0,0 0,0 0,0 0,0 0,0 z"
       id="path120"
       inkscape:connector-curvature="0" />
    <path
       style="fill:none;stroke:#000000"
       d="m 1110.2004,503.35813 0,0 0,0 0,0 0,0 0,0 0,0 0,0 0,0 0,0 z"
       id="path122"
       inkscape:connector-curvature="0" />
    <path
       style="fill:none;stroke:#000000;stroke-width:0.9999755"
       d="m 23.094274,546.79881 c -2.42135,1.40713 -3.90182,4.00503 -3.87826,6.80555"
       id="path66-2"
       inkscape:connector-curvature="0" />
    <path
       style="fill:none;stroke:#000000;stroke-width:0.9999755"
       d="m 19.216014,553.60436 c -0.0236,2.80052 1.45691,5.39844 3.87826,6.80554"
       id="path68-8"
       inkscape:connector-curvature="0" />
    <path
       style="fill:none;stroke:#000000;stroke-width:0.9999755"
       d="m 23.094274,560.4099 c 2.42134,1.40713 5.41138,1.40713 7.83272,0"
       id="path70-3"
       inkscape:connector-curvature="0" />
    <path
       style="fill:none;stroke:#000000;stroke-width:0.9999755"
       d="m 30.926994,560.4099 c 2.42135,-1.4071 3.90182,-4.00502 3.87825,-6.80554"
       id="path72-8"
       inkscape:connector-curvature="0" />
    <path
       style="fill:none;stroke:#000000;stroke-width:0.9999755"
       d="m 34.805244,553.60436 c 0.0236,-2.80052 -1.4569,-5.39842 -3.87825,-6.80555"
       id="path74-6"
       inkscape:connector-curvature="0" />
    <path
       style="fill:none;stroke:#000000;stroke-width:0.9999755"
       d="m 30.926994,546.79881 c -2.42134,-1.4071 -5.41138,-1.4071 -7.83272,0"
       id="path76-1"
       inkscape:connector-curvature="0" />
    <path
       style="fill:none;stroke:#000000;stroke-width:0.9999755"
       d="m 34.805244,628.79338 c 0.0236,-2.80052 -1.4569,-5.39844 -3.87825,-6.80554"
       id="path80-1"
       inkscape:connector-curvature="0" />
    <path
       style="fill:none;stroke:#000000;stroke-width:0.9999755"
       d="m 30.926994,621.98784 c -2.42134,-1.40709 -5.41138,-1.40709 -7.83272,0"
       id="path82-0"
       inkscape:connector-curvature="0" />
    <path
       style="fill:none;stroke:#000000;stroke-width:0.9999755"
       d="m 23.094274,621.98784 c -2.42135,1.4071 -3.90182,4.00502 -3.87826,6.80554"
       id="path84-8"
       inkscape:connector-curvature="0" />
    <path
       style="fill:none;stroke:#000000;stroke-width:0.9999755"
       d="m 19.216014,628.79338 c -0.0236,2.80051 1.45691,5.39846 3.87826,6.80556"
       id="path86-2"
       inkscape:connector-curvature="0" />
    <path
       style="fill:none;stroke:#000000;stroke-width:0.9999755"
       d="m 23.094274,635.59894 c 2.42134,1.40709 5.41138,1.40709 7.83272,0"
       id="path88-0"
       inkscape:connector-curvature="0" />
    <path
       style="fill:none;stroke:#000000;stroke-width:0.9999755"
       d="m 30.926994,635.59894 c 2.42135,-1.4071 3.90182,-4.00505 3.87825,-6.80556"
       id="path90-6"
       inkscape:connector-curvature="0" />
    <path
       style="fill:none;stroke:#000000;stroke-width:0.9999755"
       d="m 23.094274,546.79881 0,0 0,0 0,0 0,0 0,0 0,0 0,0 0,0 z"
       id="path96-4"
       inkscape:connector-curvature="0" />
    <path
       style="fill:none;stroke:#000000;stroke-width:0.9999755"
       d="m 34.805244,628.79338 0,0 0,0 0,0 0,0 0,0 0,0 0,0 0,0 z"
       id="path98-4"
       inkscape:connector-curvature="0" />
    <path
       style="fill:none;stroke:#000000;stroke-width:0.9999755"
       d="m 34.805244,553.60436 0,0 0,0 0,0 0,0 0,0 0,0 0,0 0,0 0,0 z"
       id="path112-8"
       inkscape:connector-curvature="0" />
    <path
       style="fill:none;stroke:#000000;stroke-width:0.9999755"
       d="m 34.805244,628.79338 0,0 0,0 0,0 0,0 0,0 0,0 0,0 0,0 0,0 z"
       id="path114-2"
       inkscape:connector-curvature="0" />
    <path
       style="fill:none;stroke:#000000;stroke-width:0.9999755"
       d="m 1158.9014,546.79881 c -2.4214,1.40713 -3.9019,4.00503 -3.8783,6.80555"
       id="path66-2-1"
       inkscape:connector-curvature="0" />
    <path
       style="fill:none;stroke:#000000;stroke-width:0.9999755"
       d="m 1155.0231,553.60436 c -0.024,2.80052 1.4569,5.39844 3.8783,6.80554"
       id="path68-8-8"
       inkscape:connector-curvature="0" />
    <path
       style="fill:none;stroke:#000000;stroke-width:0.9999755"
       d="m 1158.9014,560.4099 c 2.4213,1.40713 5.4113,1.40713 7.8327,0"
       id="path70-3-4"
       inkscape:connector-curvature="0" />
    <path
       style="fill:none;stroke:#000000;stroke-width:0.9999755"
       d="m 1166.7341,560.4099 c 2.4213,-1.4071 3.9018,-4.00502 3.8782,-6.80554"
       id="path72-8-1"
       inkscape:connector-curvature="0" />
    <path
       style="fill:none;stroke:#000000;stroke-width:0.9999755"
       d="m 1170.6123,553.60436 c 0.024,-2.80052 -1.4569,-5.39842 -3.8782,-6.80555"
       id="path74-6-4"
       inkscape:connector-curvature="0" />
    <path
       style="fill:none;stroke:#000000;stroke-width:0.9999755"
       d="m 1166.7341,546.79881 c -2.4214,-1.4071 -5.4114,-1.4071 -7.8327,0"
       id="path76-1-9"
       inkscape:connector-curvature="0" />
    <path
       style="fill:none;stroke:#000000;stroke-width:0.9999755"
       d="m 1170.6123,628.79338 c 0.024,-2.80052 -1.4569,-5.39844 -3.8782,-6.80554"
       id="path80-1-9"
       inkscape:connector-curvature="0" />
    <path
       style="fill:none;stroke:#000000;stroke-width:0.9999755"
       d="m 1166.7341,621.98784 c -2.4214,-1.40709 -5.4114,-1.40709 -7.8327,0"
       id="path82-0-2"
       inkscape:connector-curvature="0" />
    <path
       style="fill:none;stroke:#000000;stroke-width:0.9999755"
       d="m 1158.9014,621.98784 c -2.4214,1.4071 -3.9019,4.00502 -3.8783,6.80554"
       id="path84-8-8"
       inkscape:connector-curvature="0" />
    <path
       style="fill:none;stroke:#000000;stroke-width:0.9999755"
       d="m 1155.0231,628.79338 c -0.024,2.80051 1.4569,5.39846 3.8783,6.80556"
       id="path86-2-8"
       inkscape:connector-curvature="0" />
    <path
       style="fill:none;stroke:#000000;stroke-width:0.9999755"
       d="m 1158.9014,635.59894 c 2.4213,1.40709 5.4113,1.40709 7.8327,0"
       id="path88-0-1"
       inkscape:connector-curvature="0" />
    <path
       style="fill:none;stroke:#000000;stroke-width:0.9999755"
       d="m 1166.7341,635.59894 c 2.4213,-1.4071 3.9018,-4.00505 3.8782,-6.80556"
       id="path90-6-8"
       inkscape:connector-curvature="0" />
    <path
       style="fill:none;stroke:#000000;stroke-width:0.9999755"
       d="m 1158.9014,546.79881 0,0 0,0 0,0 0,0 0,0 0,0 0,0 0,0 z"
       id="path96-4-9"
       inkscape:connector-curvature="0" />
    <path
       style="fill:none;stroke:#000000;stroke-width:0.9999755"
       d="m 1170.6123,628.79338 0,0 0,0 0,0 0,0 0,0 0,0 0,0 0,0 z"
       id="path98-4-0"
       inkscape:connector-curvature="0" />
    <path
       style="fill:none;stroke:#000000;stroke-width:0.9999755"
       d="m 1170.6123,553.60436 0,0 0,0 0,0 0,0 0,0 0,0 0,0 0,0 0,0 z"
       id="path112-8-1"
       inkscape:connector-curvature="0" />
    <path
       style="fill:none;stroke:#000000;stroke-width:0.9999755"
       d="m 1170.6123,628.79338 0,0 0,0 0,0 0,0 0,0 0,0 0,0 0,0 0,0 z"
       id="path114-2-2"
       inkscape:connector-curvature="0" />
    <path
       style="fill:none;stroke:#000000"
       d="m 1041.5949,1018.6002 c -2.412,-1.3926 -5.3836,-1.3926 -7.7955,0"
       id="path100-1"
       inkscape:connector-curvature="0" />
    <path
       style="fill:none;stroke:#000000"
       d="m 1033.7994,1018.6002 c -2.412,1.3925 -3.8978,3.966 -3.8978,6.7511"
       id="path102-9"
       inkscape:connector-curvature="0" />
    <path
       style="fill:none;stroke:#000000"
       d="m 1029.9016,1025.3513 c 0,2.785 1.4858,5.3585 3.8978,6.7511"
       id="path104-2"
       inkscape:connector-curvature="0" />
    <path
       style="fill:none;stroke:#000000"
       d="m 1033.7994,1032.1024 c 2.4119,1.3925 5.3835,1.3925 7.7955,0"
       id="path106-3"
       inkscape:connector-curvature="0" />
    <path
       style="fill:none;stroke:#000000"
       d="m 1041.5949,1032.1024 c 2.4119,-1.3926 3.8977,-3.9661 3.8977,-6.7511"
       id="path108-7"
       inkscape:connector-curvature="0" />
    <path
       style="fill:none;stroke:#000000"
       d="m 1045.4926,1025.3513 c 0,-2.7851 -1.4858,-5.3586 -3.8977,-6.7511"
       id="path110-5"
       inkscape:connector-curvature="0" />
    <path
       style="fill:none;stroke:#000000"
       d="m 1041.5949,1018.6002 0,0 0,0 0,0 0,0 0,0 0,0 0,0 0,0 z"
       id="path118-0"
       inkscape:connector-curvature="0" />
    <path
       style="fill:none;stroke:#000000"
       d="m 1045.4926,1025.3513 0,0 0,0 0,0 0,0 0,0 0,0 0,0 0,0 0,0 z"
       id="path120-2"
       inkscape:connector-curvature="0" />
    <path
       style="fill:none;stroke:#000000"
       d="m 687.26417,1018.6002 c -2.412,-1.3926 -5.3836,-1.3926 -7.7955,0"
       id="path100-1-1"
       inkscape:connector-curvature="0" />
    <path
       style="fill:none;stroke:#000000"
       d="m 679.46867,1018.6002 c -2.412,1.3925 -3.8978,3.966 -3.8978,6.7511"
       id="path102-9-6"
       inkscape:connector-curvature="0" />
    <path
       style="fill:none;stroke:#000000"
       d="m 675.57087,1025.3513 c 0,2.785 1.4858,5.3585 3.8978,6.7511"
       id="path104-2-1"
       inkscape:connector-curvature="0" />
    <path
       style="fill:none;stroke:#000000"
       d="m 679.46867,1032.1024 c 2.4119,1.3925 5.3835,1.3925 7.7955,0"
       id="path106-3-6"
       inkscape:connector-curvature="0" />
    <path
       style="fill:none;stroke:#000000"
       d="m 687.26417,1032.1024 c 2.4119,-1.3926 3.8977,-3.9661 3.8977,-6.7511"
       id="path108-7-4"
       inkscape:connector-curvature="0" />
    <path
       style="fill:none;stroke:#000000"
       d="m 691.16187,1025.3513 c 0,-2.7851 -1.4858,-5.3586 -3.8977,-6.7511"
       id="path110-5-7"
       inkscape:connector-curvature="0" />
    <path
       style="fill:none;stroke:#000000"
       d="m 687.26417,1018.6002 0,0 0,0 0,0 0,0 0,0 0,0 0,0 0,0 z"
       id="path118-0-4"
       inkscape:connector-curvature="0" />
    <path
       style="fill:none;stroke:#000000"
       d="m 691.16187,1025.3513 0,0 0,0 0,0 0,0 0,0 0,0 0,0 0,0 0,0 z"
       id="path120-2-8"
       inkscape:connector-curvature="0" />
    <path
       style="fill:none;stroke:#000000"
       d="m 332.93346,1018.6002 c -2.412,-1.3926 -5.3836,-1.3926 -7.7955,0"
       id="path100-1-1-4"
       inkscape:connector-curvature="0" />
    <path
       style="fill:none;stroke:#000000"
       d="m 325.13796,1018.6002 c -2.412,1.3925 -3.8978,3.966 -3.8978,6.7511"
       id="path102-9-6-3"
       inkscape:connector-curvature="0" />
    <path
       style="fill:none;stroke:#000000"
       d="m 321.24016,1025.3513 c 0,2.785 1.4858,5.3585 3.8978,6.7511"
       id="path104-2-1-7"
       inkscape:connector-curvature="0" />
    <path
       style="fill:none;stroke:#000000"
       d="m 325.13796,1032.1024 c 2.4119,1.3925 5.3835,1.3925 7.7955,0"
       id="path106-3-6-7"
       inkscape:connector-curvature="0" />
    <path
       style="fill:none;stroke:#000000"
       d="m 332.93346,1032.1024 c 2.4119,-1.3926 3.8977,-3.9661 3.8977,-6.7511"
       id="path108-7-4-8"
       inkscape:connector-curvature="0" />
    <path
       style="fill:none;stroke:#000000"
       d="m 336.83116,1025.3513 c 0,-2.7851 -1.4858,-5.3586 -3.8977,-6.7511"
       id="path110-5-7-4"
       inkscape:connector-curvature="0" />
    <path
       style="fill:none;stroke:#000000"
       d="m 332.93346,1018.6002 0,0 0,0 0,0 0,0 0,0 0,0 0,0 0,0 z"
       id="path118-0-4-4"
       inkscape:connector-curvature="0" />
    <path
       style="fill:none;stroke:#000000"
       d="m 336.83116,1025.3513 0,0 0,0 0,0 0,0 0,0 0,0 0,0 0,0 0,0 z"
       id="path120-2-8-8"
       inkscape:connector-curvature="0" />
  </g>
</svg>
