0
SECTION
2
HEADER
9
$INSUNITS
70
4
9
$ACADVER
1
AC1014
9
$HANDSEED
5
FFFF
0
ENDSEC
0
SECTION
2
TABLES
0
TABLE
2
VPORT
5
8
100
AcDbSymbolTable
0
ENDTAB
0
TABLE
2
LTYPE
5
5
100
AcDbSymbolTable
0
LTYPE
5
14
100
AcDbSymbolTableRecord
100
AcDbLinetypeTableRecord
2
BYBLOCK
70
0
0
LTYPE
5
15
100
AcDbSymbolTableRecord
100
AcDbLinetypeTableRecord
2
BYLAYER
70
0
0
ENDTAB
0
TABLE
2
LAYER
5
2
100
AcDbSymbolTable
70
2
0
LAYER
5
50
100
AcDbSymbolTableRecord
100
AcDbLayerTableRecord
2
0
70
0
6
CONTINUOUS
0
ENDTAB
0
TABLE
2
STYLE
5
3
100
AcDbSymbolTable
70
1
0
STYLE
5
11
100
AcDbSymbolTableRecord
100
AcDbTextStyleTableRecord
2
STANDARD
70
0
0
ENDTAB
0
TABLE
2
VIEW
5
6
100
AcDbSymbolTable
70
0
0
ENDTAB
0
TABLE
2
UCS
5
7
100
AcDbSymbolTable
70
0
0
ENDTAB
0
TABLE
2
APPID
5
9
100
AcDbSymbolTable
70
2
0
APPID
5
12
100
AcDbSymbolTableRecord
100
AcDbRegAppTableRecord
2
ACAD
70
0
0
ENDTAB
0
TABLE
2
DIMSTYLE
5
A
100
AcDbSymbolTable
70
1
0
ENDTAB
0
TABLE
2
BLOCK_RECORD
5
1
100
AcDbSymbolTable
70
1
0
BLOCK_RECORD
5
1F
100
AcDbSymbolTableRecord
100
AcDbBlockTableRecord
2
*MODEL_SPACE
0
BLOCK_RECORD
5
1B
100
AcDbSymbolTableRecord
100
AcDbBlockTableRecord
2
*PAPER_SPACE
0
ENDTAB
0
ENDSEC
0
SECTION
2
BLOCKS
0
BLOCK
5
20
100
AcDbEntity
100
AcDbBlockBegin
2
*MODEL_SPACE
0
ENDBLK
5
21
100
AcDbEntity
100
AcDbBlockEnd
0
BLOCK
5
1C
100
AcDbEntity
100
AcDbBlockBegin
2
*PAPER_SPACE
0
ENDBLK
5
1D
100
AcDbEntity
100
AcDbBlockEnd
0
ENDSEC
0
SECTION
2
ENTITIES
0
SPLINE
5
100
100
AcDbEntity
8
0
100
AcDbSpline
70
1064
71
3
72
8
73
4
74
0
42
0.000000001
43
0.0000000001
44
0.0000000001
40
0
40
0
40
0
40
0
40
1
40
1
40
1
40
1
10
10.778364000000003
20
7.6001990000000008
30
0
10
10.778364000000003
20
6.4538420000000007
30
0
10
9.8655200000000018
20
5.5409920000000001
30
0
10
8.719180000000005
20
5.5409920000000001
30
0
0
SPLINE
5
101
100
AcDbEntity
8
0
100
AcDbSpline
70
1064
71
3
72
8
73
4
74
0
42
0.000000001
43
0.0000000001
44
0.0000000001
40
0
40
0
40
0
40
0
40
1
40
1
40
1
40
1
10
8.719180000000005
20
5.5409920000000001
30
0
10
7.5728330000000019
20
5.5409920000000001
30
0
10
6.6599960000000031
20
6.4538420000000007
30
0
10
6.6599960000000031
20
7.6001990000000008
30
0
0
SPLINE
5
102
100
AcDbEntity
8
0
100
AcDbSpline
70
1064
71
3
72
8
73
4
74
0
42
0.000000001
43
0.0000000001
44
0.0000000001
40
0
40
0
40
0
40
0
40
1
40
1
40
1
40
1
10
446.70999900000004
20
7.4001990000000006
30
0
10
446.70999900000004
20
8.5465830000000018
30
0
10
447.62281800000005
20
9.4593460000000018
30
0
10
448.76917700000001
20
9.4593460000000018
30
0
0
SPLINE
5
103
100
AcDbEntity
8
0
100
AcDbSpline
70
1064
71
3
72
8
73
4
74
0
42
0.000000001
43
0.0000000001
44
0.0000000001
40
0
40
0
40
0
40
0
40
1
40
1
40
1
40
1
10
29.939173
20
5.5409920000000001
30
0
10
28.792833000000009
20
5.5409920000000001
30
0
10
27.880001000000007
20
6.4538420000000007
30
0
10
27.880001000000007
20
7.6001990000000008
30
0
0
SPLINE
5
104
100
AcDbEntity
8
0
100
AcDbSpline
70
1064
71
3
72
8
73
4
74
0
42
0.000000001
43
0.0000000001
44
0.0000000001
40
0
40
0
40
0
40
0
40
1
40
1
40
1
40
1
10
527.97836700000005
20
7.6001990000000008
30
0
10
527.97836700000005
20
6.4538420000000007
30
0
10
527.06552399999998
20
5.5409920000000001
30
0
10
525.91918899999996
20
5.5409920000000001
30
0
0
SPLINE
5
105
100
AcDbEntity
8
0
100
AcDbSpline
70
1064
71
3
72
8
73
4
74
0
42
0.000000001
43
0.0000000001
44
0.0000000001
40
0
40
0
40
0
40
0
40
1
40
1
40
1
40
1
10
525.91918899999996
20
5.5409920000000001
30
0
10
524.772831
20
5.5409920000000001
30
0
10
523.86001099999999
20
6.4538420000000007
30
0
10
523.86001099999999
20
7.6001990000000008
30
0
0
SPLINE
5
106
100
AcDbEntity
8
0
100
AcDbSpline
70
1064
71
3
72
8
73
4
74
0
42
0.000000001
43
0.0000000001
44
0.0000000001
40
0
40
0
40
0
40
0
40
1
40
1
40
1
40
1
10
506.75836200000003
20
7.6001990000000008
30
0
10
506.75836200000003
20
6.4538420000000007
30
0
10
505.84551199999999
20
5.5409920000000001
30
0
10
504.69918400000006
20
5.5409920000000001
30
0
0
SPLINE
5
107
100
AcDbEntity
8
0
100
AcDbSpline
70
1064
71
3
72
8
73
4
74
0
42
0.000000001
43
0.0000000001
44
0.0000000001
40
0
40
0
40
0
40
0
40
1
40
1
40
1
40
1
10
5.3409990000000009
20
110.33422000000002
30
0
10
5.3409990000000009
20
111.480603
30
0
10
6.2538310000000008
20
112.39336700000001
30
0
10
7.4001830000000002
20
112.39336700000001
30
0
0
SPLINE
5
108
100
AcDbEntity
8
0
100
AcDbSpline
70
1064
71
3
72
8
73
4
74
0
42
0.000000001
43
0.0000000001
44
0.0000000001
40
0
40
0
40
0
40
0
40
1
40
1
40
1
40
1
10
504.69918400000006
20
5.5409920000000001
30
0
10
503.55282499999998
20
5.5409920000000001
30
0
10
502.64000600000003
20
6.4538420000000007
30
0
10
502.64000600000003
20
7.6001990000000008
30
0
0
SPLINE
5
109
100
AcDbEntity
8
0
100
AcDbSpline
70
1064
71
3
72
8
73
4
74
0
42
0.000000001
43
0.0000000001
44
0.0000000001
40
0
40
0
40
0
40
0
40
1
40
1
40
1
40
1
10
7.4001830000000002
20
112.39336700000001
30
0
10
8.5465240000000016
20
112.39336700000001
30
0
10
9.4593620000000005
20
111.480603
30
0
10
9.4593620000000005
20
110.33422000000002
30
0
0
SPLINE
5
110
100
AcDbEntity
8
0
100
AcDbSpline
70
1064
71
3
72
8
73
4
74
0
42
0.000000001
43
0.0000000001
44
0.0000000001
40
0
40
0
40
0
40
0
40
1
40
1
40
1
40
1
10
502.64000600000003
20
7.6001990000000008
30
0
10
502.64000600000003
20
8.7465830000000011
30
0
10
503.55282499999998
20
9.6593460000000029
30
0
10
504.69918400000006
20
9.6593460000000029
30
0
0
SPLINE
5
111
100
AcDbEntity
8
0
100
AcDbSpline
70
1064
71
3
72
8
73
4
74
0
42
0.000000001
43
0.0000000001
44
0.0000000001
40
0
40
0
40
0
40
0
40
1
40
1
40
1
40
1
10
27.880001000000007
20
7.6001990000000008
30
0
10
27.880001000000007
20
8.7465830000000011
30
0
10
28.792833000000009
20
9.6593460000000029
30
0
10
29.939173
20
9.6593460000000029
30
0
0
SPLINE
5
112
100
AcDbEntity
8
0
100
AcDbSpline
70
1064
71
3
72
8
73
4
74
0
42
0.000000001
43
0.0000000001
44
0.0000000001
40
0
40
0
40
0
40
0
40
1
40
1
40
1
40
1
10
31.998363000000005
20
7.6001990000000008
30
0
10
31.998363000000005
20
6.4538420000000007
30
0
10
31.085526000000002
20
5.5409920000000001
30
0
10
29.939173
20
5.5409920000000001
30
0
0
SPLINE
5
113
100
AcDbEntity
8
0
100
AcDbSpline
70
1064
71
3
72
8
73
4
74
0
42
0.000000001
43
0.0000000001
44
0.0000000001
40
0
40
0
40
0
40
0
40
1
40
1
40
1
40
1
10
29.939173
20
9.6593460000000029
30
0
10
31.085526000000002
20
9.6593460000000029
30
0
10
31.998363000000005
20
8.7465830000000011
30
0
10
31.998363000000005
20
7.6001990000000008
30
0
0
SPLINE
5
114
100
AcDbEntity
8
0
100
AcDbSpline
70
1064
71
3
72
8
73
4
74
0
42
0.000000001
43
0.0000000001
44
0.0000000001
40
0
40
0
40
0
40
0
40
1
40
1
40
1
40
1
10
448.76917700000001
20
9.4593460000000018
30
0
10
449.91550500000005
20
9.4593460000000018
30
0
10
450.82835499999999
20
8.5465830000000018
30
0
10
450.82835499999999
20
7.4001990000000006
30
0
0
SPLINE
5
115
100
AcDbEntity
8
0
100
AcDbSpline
70
1064
71
3
72
8
73
4
74
0
42
0.000000001
43
0.0000000001
44
0.0000000001
40
0
40
0
40
0
40
0
40
1
40
1
40
1
40
1
10
525.91918899999996
20
9.6593460000000029
30
0
10
527.06552399999998
20
9.6593460000000029
30
0
10
527.97836700000005
20
8.7465830000000011
30
0
10
527.97836700000005
20
7.6001990000000008
30
0
0
SPLINE
5
116
100
AcDbEntity
8
0
100
AcDbSpline
70
1064
71
3
72
8
73
4
74
0
42
0.000000001
43
0.0000000001
44
0.0000000001
40
0
40
0
40
0
40
0
40
1
40
1
40
1
40
1
10
523.86001099999999
20
7.6001990000000008
30
0
10
523.86001099999999
20
8.7465830000000011
30
0
10
524.772831
20
9.6593460000000029
30
0
10
525.91918899999996
20
9.6593460000000029
30
0
0
SPLINE
5
117
100
AcDbEntity
8
0
100
AcDbSpline
70
1064
71
3
72
8
73
4
74
0
42
0.000000001
43
0.0000000001
44
0.0000000001
40
0
40
0
40
0
40
0
40
1
40
1
40
1
40
1
10
7.4001830000000002
20
108.27501200000002
30
0
10
6.2538310000000008
20
108.27501200000002
30
0
10
5.3409990000000009
20
109.18785600000001
30
0
10
5.3409990000000009
20
110.33422000000002
30
0
0
SPLINE
5
118
100
AcDbEntity
8
0
100
AcDbSpline
70
1064
71
3
72
8
73
4
74
0
42
0.000000001
43
0.0000000001
44
0.0000000001
40
0
40
0
40
0
40
0
40
1
40
1
40
1
40
1
10
521.90017999999998
20
26.290986999999998
30
0
10
520.75382100000002
20
26.290986999999998
30
0
10
519.84100100000001
20
27.203830999999997
30
0
10
519.84100100000001
20
28.350194999999999
30
0
0
SPLINE
5
119
100
AcDbEntity
8
0
100
AcDbSpline
70
1064
71
3
72
8
73
4
74
0
42
0.000000001
43
0.0000000001
44
0.0000000001
40
0
40
0
40
0
40
0
40
1
40
1
40
1
40
1
10
427.691012
20
450.52420100000006
30
0
10
427.691012
20
451.67061799999999
30
0
10
428.60383200000001
20
452.58332800000005
30
0
10
429.75019100000003
20
452.58332800000005
30
0
0
SPLINE
5
120
100
AcDbEntity
8
0
100
AcDbSpline
70
1064
71
3
72
8
73
4
74
0
42
0.000000001
43
0.0000000001
44
0.0000000001
40
0
40
0
40
0
40
0
40
1
40
1
40
1
40
1
10
521.90017999999998
20
30.409341999999992
30
0
10
523.04650800000002
20
30.409341999999992
30
0
10
523.95935799999995
20
29.496578999999997
30
0
10
523.95935799999995
20
28.350194999999999
30
0
0
SPLINE
5
121
100
AcDbEntity
8
0
100
AcDbSpline
70
1064
71
3
72
8
73
4
74
0
42
0.000000001
43
0.0000000001
44
0.0000000001
40
0
40
0
40
0
40
0
40
1
40
1
40
1
40
1
10
429.75019100000003
20
448.46500700000007
30
0
10
428.60383200000001
20
448.46500700000007
30
0
10
427.691012
20
449.37785000000008
30
0
10
427.691012
20
450.52420100000006
30
0
0
SPLINE
5
122
100
AcDbEntity
8
0
100
AcDbSpline
70
1064
71
3
72
8
73
4
74
0
42
0.000000001
43
0.0000000001
44
0.0000000001
40
0
40
0
40
0
40
0
40
1
40
1
40
1
40
1
10
62.759365000000003
20
190.51917900000004
30
0
10
62.759365000000003
20
189.37282800000003
30
0
10
61.846527000000009
20
188.45998500000005
30
0
10
60.700181000000015
20
188.45998500000005
30
0
0
SPLINE
5
123
100
AcDbEntity
8
0
100
AcDbSpline
70
1064
71
3
72
8
73
4
74
0
42
0.000000001
43
0.0000000001
44
0.0000000001
40
0
40
0
40
0
40
0
40
1
40
1
40
1
40
1
10
60.700181000000015
20
192.57837300000003
30
0
10
61.846527000000009
20
192.57837300000003
30
0
10
62.759365000000003
20
191.66559599999999
30
0
10
62.759365000000003
20
190.51917900000004
30
0
0
SPLINE
5
124
100
AcDbEntity
8
0
100
AcDbSpline
70
1064
71
3
72
8
73
4
74
0
42
0.000000001
43
0.0000000001
44
0.0000000001
40
0
40
0
40
0
40
0
40
1
40
1
40
1
40
1
10
529.25936899999999
20
309.98419999999999
30
0
10
529.25936899999999
20
308.83785
30
0
10
528.34651999999994
20
307.925006
30
0
10
527.20019100000002
20
307.925006
30
0
0
SPLINE
5
125
100
AcDbEntity
8
0
100
AcDbSpline
70
1064
71
3
72
8
73
4
74
0
42
0.000000001
43
0.0000000001
44
0.0000000001
40
0
40
0
40
0
40
0
40
1
40
1
40
1
40
1
10
525.14101299999993
20
309.98419999999999
30
0
10
525.14101299999993
20
311.13061699999997
30
0
10
526.05383299999994
20
312.04332799999997
30
0
10
527.20019100000002
20
312.04332799999997
30
0
0
SPLINE
5
126
100
AcDbEntity
8
0
100
AcDbSpline
70
1064
71
3
72
8
73
4
74
0
42
0.000000001
43
0.0000000001
44
0.0000000001
40
0
40
0
40
0
40
0
40
1
40
1
40
1
40
1
10
527.20019100000002
20
312.04332799999997
30
0
10
528.34651999999994
20
312.04332799999997
30
0
10
529.25936899999999
20
311.13061699999997
30
0
10
529.25936899999999
20
309.98419999999999
30
0
0
SPLINE
5
127
100
AcDbEntity
8
0
100
AcDbSpline
70
1064
71
3
72
8
73
4
74
0
42
0.000000001
43
0.0000000001
44
0.0000000001
40
0
40
0
40
0
40
0
40
1
40
1
40
1
40
1
10
527.20019100000002
20
108.27499899999999
30
0
10
526.05383299999994
20
108.27499899999999
30
0
10
525.14101299999993
20
109.187849
30
0
10
525.14101299999993
20
110.33420600000001
30
0
0
SPLINE
5
128
100
AcDbEntity
8
0
100
AcDbSpline
70
1064
71
3
72
8
73
4
74
0
42
0.000000001
43
0.0000000001
44
0.0000000001
40
0
40
0
40
0
40
0
40
1
40
1
40
1
40
1
10
60.700181000000015
20
452.58332800000005
30
0
10
61.846522000000007
20
452.58332800000005
30
0
10
62.759365000000003
20
451.67061799999999
30
0
10
62.759365000000003
20
450.52420100000006
30
0
0
SPLINE
5
129
100
AcDbEntity
8
0
100
AcDbSpline
70
1064
71
3
72
8
73
4
74
0
42
0.000000001
43
0.0000000001
44
0.0000000001
40
0
40
0
40
0
40
0
40
1
40
1
40
1
40
1
10
525.14101299999993
20
110.33420600000001
30
0
10
525.14101299999993
20
111.48059000000001
30
0
10
526.05383299999994
20
112.39335400000002
30
0
10
527.20019100000002
20
112.39335400000002
30
0
0
SPLINE
5
130
100
AcDbEntity
8
0
100
AcDbSpline
70
1064
71
3
72
8
73
4
74
0
42
0.000000001
43
0.0000000001
44
0.0000000001
40
0
40
0
40
0
40
0
40
1
40
1
40
1
40
1
10
58.641003000000005
20
450.52420100000006
30
0
10
58.641003000000005
20
451.67061799999999
30
0
10
59.553833999999995
20
452.58332800000005
30
0
10
60.700181000000015
20
452.58332800000005
30
0
0
SPLINE
5
131
100
AcDbEntity
8
0
100
AcDbSpline
70
1064
71
3
72
8
73
4
74
0
42
0.000000001
43
0.0000000001
44
0.0000000001
40
0
40
0
40
0
40
0
40
1
40
1
40
1
40
1
10
527.20019100000002
20
112.39335400000002
30
0
10
528.34651999999994
20
112.39335400000002
30
0
10
529.25936899999999
20
111.48059000000001
30
0
10
529.25936899999999
20
110.33420600000001
30
0
0
SPLINE
5
132
100
AcDbEntity
8
0
100
AcDbSpline
70
1064
71
3
72
8
73
4
74
0
42
0.000000001
43
0.0000000001
44
0.0000000001
40
0
40
0
40
0
40
0
40
1
40
1
40
1
40
1
10
431.80939700000005
20
33.944198999999998
30
0
10
431.80939700000005
20
32.797840999999998
30
0
10
430.89654900000005
20
31.884990999999996
30
0
10
429.75019100000003
20
31.884990999999996
30
0
0
SPLINE
5
133
100
AcDbEntity
8
0
100
AcDbSpline
70
1064
71
3
72
8
73
4
74
0
42
0.000000001
43
0.0000000001
44
0.0000000001
40
0
40
0
40
0
40
0
40
1
40
1
40
1
40
1
10
429.75019100000003
20
31.884990999999996
30
0
10
428.60386
20
31.884990999999996
30
0
10
427.691012
20
32.797840999999998
30
0
10
427.691012
20
33.944198999999998
30
0
0
SPLINE
5
134
100
AcDbEntity
8
0
100
AcDbSpline
70
1064
71
3
72
8
73
4
74
0
42
0.000000001
43
0.0000000001
44
0.0000000001
40
0
40
0
40
0
40
0
40
1
40
1
40
1
40
1
10
5.3409990000000009
20
310.33417200000002
30
0
10
5.3409990000000009
20
311.48058900000001
30
0
10
6.2538310000000008
20
312.39336600000001
30
0
10
7.4001780000000004
20
312.39336600000001
30
0
0
SPLINE
5
135
100
AcDbEntity
8
0
100
AcDbSpline
70
1064
71
3
72
8
73
4
74
0
42
0.000000001
43
0.0000000001
44
0.0000000001
40
0
40
0
40
0
40
0
40
1
40
1
40
1
40
1
10
504.69918400000006
20
9.6593460000000029
30
0
10
505.84551199999999
20
9.6593460000000029
30
0
10
506.75836200000003
20
8.7465830000000011
30
0
10
506.75836200000003
20
7.6001990000000008
30
0
0
SPLINE
5
136
100
AcDbEntity
8
0
100
AcDbSpline
70
1064
71
3
72
8
73
4
74
0
42
0.000000001
43
0.0000000001
44
0.0000000001
40
0
40
0
40
0
40
0
40
1
40
1
40
1
40
1
10
429.75019100000003
20
36.003346000000001
30
0
10
430.89654900000005
20
36.003346000000001
30
0
10
431.80939700000005
20
35.090583000000002
30
0
10
431.80939700000005
20
33.944198999999998
30
0
0
SPLINE
5
137
100
AcDbEntity
8
0
100
AcDbSpline
70
1064
71
3
72
8
73
4
74
0
42
0.000000001
43
0.0000000001
44
0.0000000001
40
0
40
0
40
0
40
0
40
1
40
1
40
1
40
1
10
60.700181000000015
20
448.46500700000007
30
0
10
59.553833999999995
20
448.46500700000007
30
0
10
58.641003000000005
20
449.37785000000008
30
0
10
58.641003000000005
20
450.52420100000006
30
0
0
SPLINE
5
138
100
AcDbEntity
8
0
100
AcDbSpline
70
1064
71
3
72
8
73
4
74
0
42
0.000000001
43
0.0000000001
44
0.0000000001
40
0
40
0
40
0
40
0
40
1
40
1
40
1
40
1
10
7.4001780000000004
20
308.27497799999998
30
0
10
6.2538310000000008
20
308.27497799999998
30
0
10
5.3409990000000009
20
309.18782099999999
30
0
10
5.3409990000000009
20
310.33417200000002
30
0
0
SPLINE
5
139
100
AcDbEntity
8
0
100
AcDbSpline
70
1064
71
3
72
8
73
4
74
0
42
0.000000001
43
0.0000000001
44
0.0000000001
40
0
40
0
40
0
40
0
40
1
40
1
40
1
40
1
10
527.20019100000002
20
307.925006
30
0
10
526.05383299999994
20
307.925006
30
0
10
525.14101299999993
20
308.83785
30
0
10
525.14101299999993
20
309.98419999999999
30
0
0
SPLINE
5
140
100
AcDbEntity
8
0
100
AcDbSpline
70
1064
71
3
72
8
73
4
74
0
42
0.000000001
43
0.0000000001
44
0.0000000001
40
0
40
0
40
0
40
0
40
1
40
1
40
1
40
1
10
427.691012
20
33.944198999999998
30
0
10
427.691012
20
35.090583000000002
30
0
10
428.60386
20
36.003346000000001
30
0
10
429.75019100000003
20
36.003346000000001
30
0
0
SPLINE
5
141
100
AcDbEntity
8
0
100
AcDbSpline
70
1064
71
3
72
8
73
4
74
0
42
0.000000001
43
0.0000000001
44
0.0000000001
40
0
40
0
40
0
40
0
40
1
40
1
40
1
40
1
10
427.691012
20
190.522234
30
0
10
427.691012
20
191.66858400000001
30
0
10
428.60386
20
192.58136100000002
30
0
10
429.75021800000002
20
192.58136100000002
30
0
0
SPLINE
5
142
100
AcDbEntity
8
0
100
AcDbSpline
70
1064
71
3
72
8
73
4
74
0
42
0.000000001
43
0.0000000001
44
0.0000000001
40
0
40
0
40
0
40
0
40
1
40
1
40
1
40
1
10
431.80939700000005
20
190.522234
30
0
10
431.80939700000005
20
189.37588300000002
30
0
10
430.89654900000005
20
188.46304000000001
30
0
10
429.75021800000002
20
188.46304000000001
30
0
0
SPLINE
5
143
100
AcDbEntity
8
0
100
AcDbSpline
70
1064
71
3
72
8
73
4
74
0
42
0.000000001
43
0.0000000001
44
0.0000000001
40
0
40
0
40
0
40
0
40
1
40
1
40
1
40
1
10
429.75021800000002
20
188.46304000000001
30
0
10
428.60386
20
188.46304000000001
30
0
10
427.691012
20
189.37588300000002
30
0
10
427.691012
20
190.522234
30
0
0
SPLINE
5
144
100
AcDbEntity
8
0
100
AcDbSpline
70
1064
71
3
72
8
73
4
74
0
42
0.000000001
43
0.0000000001
44
0.0000000001
40
0
40
0
40
0
40
0
40
1
40
1
40
1
40
1
10
529.25936899999999
20
110.33420600000001
30
0
10
529.25936899999999
20
109.187849
30
0
10
528.34651999999994
20
108.27499899999999
30
0
10
527.20019100000002
20
108.27499899999999
30
0
0
SPLINE
5
145
100
AcDbEntity
8
0
100
AcDbSpline
70
1064
71
3
72
8
73
4
74
0
42
0.000000001
43
0.0000000001
44
0.0000000001
40
0
40
0
40
0
40
0
40
1
40
1
40
1
40
1
10
523.95935799999995
20
28.350194999999999
30
0
10
523.95935799999995
20
27.203830999999997
30
0
10
523.04650800000002
20
26.290986999999998
30
0
10
521.90017999999998
20
26.290986999999998
30
0
0
SPLINE
5
146
100
AcDbEntity
8
0
100
AcDbSpline
70
1064
71
3
72
8
73
4
74
0
42
0.000000001
43
0.0000000001
44
0.0000000001
40
0
40
0
40
0
40
0
40
1
40
1
40
1
40
1
10
60.700181000000015
20
31.884990999999996
30
0
10
59.553833999999995
20
31.884990999999996
30
0
10
58.641003000000005
20
32.797840999999998
30
0
10
58.641003000000005
20
33.944198999999998
30
0
0
SPLINE
5
147
100
AcDbEntity
8
0
100
AcDbSpline
70
1064
71
3
72
8
73
4
74
0
42
0.000000001
43
0.0000000001
44
0.0000000001
40
0
40
0
40
0
40
0
40
1
40
1
40
1
40
1
10
429.75019100000003
20
452.58332800000005
30
0
10
430.89652100000001
20
452.58332800000005
30
0
10
431.80936900000006
20
451.67061799999999
30
0
10
431.80936900000006
20
450.52420100000006
30
0
0
SPLINE
5
148
100
AcDbEntity
8
0
100
AcDbSpline
70
1064
71
3
72
8
73
4
74
0
42
0.000000001
43
0.0000000001
44
0.0000000001
40
0
40
0
40
0
40
0
40
1
40
1
40
1
40
1
10
58.641003000000005
20
190.51917900000004
30
0
10
58.641003000000005
20
191.66559599999999
30
0
10
59.553833999999995
20
192.57837300000003
30
0
10
60.700181000000015
20
192.57837300000003
30
0
0
SPLINE
5
149
100
AcDbEntity
8
0
100
AcDbSpline
70
1064
71
3
72
8
73
4
74
0
42
0.000000001
43
0.0000000001
44
0.0000000001
40
0
40
0
40
0
40
0
40
1
40
1
40
1
40
1
10
519.84100100000001
20
28.350194999999999
30
0
10
519.84100100000001
20
29.496578999999997
30
0
10
520.75382100000002
20
30.409341999999992
30
0
10
521.90017999999998
20
30.409341999999992
30
0
0
SPLINE
5
150
100
AcDbEntity
8
0
100
AcDbSpline
70
1064
71
3
72
8
73
4
74
0
42
0.000000001
43
0.0000000001
44
0.0000000001
40
0
40
0
40
0
40
0
40
1
40
1
40
1
40
1
10
9.4593620000000005
20
110.33422000000002
30
0
10
9.4593620000000005
20
109.18785600000001
30
0
10
8.5465240000000016
20
108.27501200000002
30
0
10
7.4001830000000002
20
108.27501200000002
30
0
0
SPLINE
5
151
100
AcDbEntity
8
0
100
AcDbSpline
70
1064
71
3
72
8
73
4
74
0
42
0.000000001
43
0.0000000001
44
0.0000000001
40
0
40
0
40
0
40
0
40
1
40
1
40
1
40
1
10
428.18817800000005
20
378.55933500000003
30
0
10
429.33450800000003
20
378.55933500000003
30
0
10
430.24735599999997
20
377.64662400000009
30
0
10
430.24735599999997
20
376.50020699999999
30
0
0
SPLINE
5
152
100
AcDbEntity
8
0
100
AcDbSpline
70
1064
71
3
72
8
73
4
74
0
42
0.000000001
43
0.0000000001
44
0.0000000001
40
0
40
0
40
0
40
0
40
1
40
1
40
1
40
1
10
58.641003000000005
20
350.52418499999999
30
0
10
58.641003000000005
20
351.67060200000003
30
0
10
59.553833999999995
20
352.58337900000004
30
0
10
60.700181000000015
20
352.58337900000004
30
0
0
SPLINE
5
153
100
AcDbEntity
8
0
100
AcDbSpline
70
1064
71
3
72
8
73
4
74
0
42
0.000000001
43
0.0000000001
44
0.0000000001
40
0
40
0
40
0
40
0
40
1
40
1
40
1
40
1
10
60.700181000000015
20
352.58337900000004
30
0
10
61.846527000000009
20
352.58337900000004
30
0
10
62.759365000000003
20
351.67060200000003
30
0
10
62.759365000000003
20
350.52418499999999
30
0
0
SPLINE
5
154
100
AcDbEntity
8
0
100
AcDbSpline
70
1064
71
3
72
8
73
4
74
0
42
0.000000001
43
0.0000000001
44
0.0000000001
40
0
40
0
40
0
40
0
40
1
40
1
40
1
40
1
10
431.80936900000006
20
450.52420100000006
30
0
10
431.80936900000006
20
449.37785000000008
30
0
10
430.89652100000001
20
448.46500700000007
30
0
10
429.75019100000003
20
448.46500700000007
30
0
0
SPLINE
5
155
100
AcDbEntity
8
0
100
AcDbSpline
70
1064
71
3
72
8
73
4
74
0
42
0.000000001
43
0.0000000001
44
0.0000000001
40
0
40
0
40
0
40
0
40
1
40
1
40
1
40
1
10
9.4593620000000005
20
310.33417200000002
30
0
10
9.4593620000000005
20
309.18782099999999
30
0
10
8.5465240000000016
20
308.27497799999998
30
0
10
7.4001780000000004
20
308.27497799999998
30
0
0
SPLINE
5
156
100
AcDbEntity
8
0
100
AcDbSpline
70
1064
71
3
72
8
73
4
74
0
42
0.000000001
43
0.0000000001
44
0.0000000001
40
0
40
0
40
0
40
0
40
1
40
1
40
1
40
1
10
7.4001780000000004
20
312.39336600000001
30
0
10
8.5465240000000016
20
312.39336600000001
30
0
10
9.4593620000000005
20
311.48058900000001
30
0
10
9.4593620000000005
20
310.33417200000002
30
0
0
SPLINE
5
157
100
AcDbEntity
8
0
100
AcDbSpline
70
1064
71
3
72
8
73
4
74
0
42
0.000000001
43
0.0000000001
44
0.0000000001
40
0
40
0
40
0
40
0
40
1
40
1
40
1
40
1
10
60.700181000000015
20
36.003346000000001
30
0
10
61.846522000000007
20
36.003346000000001
30
0
10
62.759365000000003
20
35.090583000000002
30
0
10
62.759365000000003
20
33.944198999999998
30
0
0
SPLINE
5
158
100
AcDbEntity
8
0
100
AcDbSpline
70
1064
71
3
72
8
73
4
74
0
42
0.000000001
43
0.0000000001
44
0.0000000001
40
0
40
0
40
0
40
0
40
1
40
1
40
1
40
1
10
60.700181000000015
20
188.45998500000005
30
0
10
59.553833999999995
20
188.45998500000005
30
0
10
58.641003000000005
20
189.37282800000003
30
0
10
58.641003000000005
20
190.51917900000004
30
0
0
SPLINE
5
159
100
AcDbEntity
8
0
100
AcDbSpline
70
1064
71
3
72
8
73
4
74
0
42
0.000000001
43
0.0000000001
44
0.0000000001
40
0
40
0
40
0
40
0
40
1
40
1
40
1
40
1
10
62.759365000000003
20
450.52420100000006
30
0
10
62.759365000000003
20
449.37785000000008
30
0
10
61.846522000000007
20
448.46500700000007
30
0
10
60.700181000000015
20
448.46500700000007
30
0
0
SPLINE
5
160
100
AcDbEntity
8
0
100
AcDbSpline
70
1064
71
3
72
8
73
4
74
0
42
0.000000001
43
0.0000000001
44
0.0000000001
40
0
40
0
40
0
40
0
40
1
40
1
40
1
40
1
10
62.759365000000003
20
350.52418499999999
30
0
10
62.759365000000003
20
349.37783400000001
30
0
10
61.846527000000009
20
348.46499100000005
30
0
10
60.700181000000015
20
348.46499100000005
30
0
0
SPLINE
5
161
100
AcDbEntity
8
0
100
AcDbSpline
70
1064
71
3
72
8
73
4
74
0
42
0.000000001
43
0.0000000001
44
0.0000000001
40
0
40
0
40
0
40
0
40
1
40
1
40
1
40
1
10
60.700181000000015
20
348.46499100000005
30
0
10
59.553833999999995
20
348.46499100000005
30
0
10
58.641003000000005
20
349.37783400000001
30
0
10
58.641003000000005
20
350.52418499999999
30
0
0
SPLINE
5
162
100
AcDbEntity
8
0
100
AcDbSpline
70
1064
71
3
72
8
73
4
74
0
42
0.000000001
43
0.0000000001
44
0.0000000001
40
0
40
0
40
0
40
0
40
1
40
1
40
1
40
1
10
58.641003000000005
20
33.944198999999998
30
0
10
58.641003000000005
20
35.090583000000002
30
0
10
59.553833999999995
20
36.003346000000001
30
0
10
60.700181000000015
20
36.003346000000001
30
0
0
SPLINE
5
163
100
AcDbEntity
8
0
100
AcDbSpline
70
1064
71
3
72
8
73
4
74
0
42
0.000000001
43
0.0000000001
44
0.0000000001
40
0
40
0
40
0
40
0
40
1
40
1
40
1
40
1
10
62.759365000000003
20
33.944198999999998
30
0
10
62.759365000000003
20
32.797840999999998
30
0
10
61.846522000000007
20
31.884990999999996
30
0
10
60.700181000000015
20
31.884990999999996
30
0
0
SPLINE
5
164
100
AcDbEntity
8
0
100
AcDbSpline
70
1064
71
3
72
8
73
4
74
0
42
0.000000001
43
0.0000000001
44
0.0000000001
40
0
40
0
40
0
40
0
40
1
40
1
40
1
40
1
10
443.51410900000008
20
66.155011000000016
30
0
10
443.51402339909112
20
67.292249996778409
30
0
10
444.43587000318394
20
68.214234387537459
30
0
10
445.5731089999623
20
68.21431998844632
30
0
0
SPLINE
5
165
100
AcDbEntity
8
0
100
AcDbSpline
70
1064
71
3
72
8
73
4
74
0
42
0.000000001
43
0.0000000001
44
0.0000000001
40
0
40
0
40
0
40
0
40
1
40
1
40
1
40
1
10
445.57310899996224
20
68.214319988446292
30
0
10
446.71034899674066
20
68.214234387503737
30
0
10
447.63219560086725
20
67.292249996778409
30
0
10
447.63211000000007
20
66.155011000000016
30
0
0
SPLINE
5
166
100
AcDbEntity
8
0
100
AcDbSpline
70
1064
71
3
72
8
73
4
74
0
42
0.000000001
43
0.0000000001
44
0.0000000001
40
0
40
0
40
0
40
0
40
1
40
1
40
1
40
1
10
445.57310949999993
20
54.095702511885627
30
0
10
444.43586950311851
20
54.095786731953169
30
0
10
443.51402177956226
20
55.017771003340727
30
0
10
443.51410899999996
20
56.155016000000003
30
0
0
LINE
5
167
100
AcDbEntity
8
0
100
AcDbLine
10
447.63211000000001
20
66.155011000000002
30
0
11
447.63211000000001
21
56.15501600000001
31
0
0
SPLINE
5
168
100
AcDbEntity
8
0
100
AcDbSpline
70
1064
71
3
72
8
73
4
74
0
42
0.000000001
43
0.0000000001
44
0.0000000001
40
0
40
0
40
0
40
0
40
1
40
1
40
1
40
1
10
447.63210999999342
20
56.155015999999179
30
0
10
447.63219422043119
20
55.01777100311773
30
0
10
446.71034649687493
20
54.095786731730193
30
0
10
445.57310949999339
20
54.095702511884838
30
0
0
SPLINE
5
169
100
AcDbEntity
8
0
100
AcDbSpline
70
1064
71
3
72
8
73
4
74
0
42
0.000000001
43
0.0000000001
44
0.0000000001
40
0
40
0
40
0
40
0
40
1
40
1
40
1
40
1
10
477.74181400000003
20
56.155348000000004
30
0
10
477.7418976678938
20
55.018109003077775
30
0
10
476.82004949666486
20
54.096126179223269
30
0
10
475.68281049974257
20
54.096042511329529
30
0
0
LINE
5
170
100
AcDbEntity
8
0
100
AcDbLine
10
46.748424
20
66.155668999999989
30
0
11
46.748424
21
56.155673999999998
31
0
0
SPLINE
5
171
100
AcDbEntity
8
0
100
AcDbSpline
70
1064
71
3
72
8
73
4
74
0
42
0.000000001
43
0.0000000001
44
0.0000000001
40
0
40
0
40
0
40
0
40
1
40
1
40
1
40
1
10
12.520721000000002
20
66.155336999999989
30
0
10
12.520635674803968
20
67.2925819967991
30
0
10
13.442482503238384
20
68.21456016370027
30
0
10
14.579721500037516
20
68.214645488446138
30
0
0
SPLINE
5
172
100
AcDbEntity
8
0
100
AcDbSpline
70
1064
71
3
72
8
73
4
74
0
42
0.000000001
43
0.0000000001
44
0.0000000001
40
0
40
0
40
0
40
0
40
1
40
1
40
1
40
1
10
475.68281349996249
20
68.214658488446048
30
0
10
476.8200524967616
20
68.214573163700237
30
0
10
477.74189932474587
20
67.29258899679914
30
0
10
477.74181400000003
20
66.155349999999999
30
0
0
SPLINE
5
173
100
AcDbEntity
8
0
100
AcDbSpline
70
1064
71
3
72
8
73
4
74
0
42
0.000000001
43
0.0000000001
44
0.0000000001
40
0
40
0
40
0
40
0
40
1
40
1
40
1
40
1
10
473.62381400000004
20
66.155349999999999
30
0
10
473.62372867521282
20
67.29258899679914
30
0
10
474.54557450316349
20
68.214573163658784
30
0
10
475.68281349996261
20
68.214658488446034
30
0
0
LINE
5
174
100
AcDbEntity
8
0
100
AcDbLine
10
473.62381400000004
20
66.155349999999999
30
0
11
473.62381400000004
21
56.155347999999996
31
0
0
LINE
5
175
100
AcDbEntity
8
0
100
AcDbLine
10
447.63211000000001
20
56.15501600000001
30
0
11
447.63211000000001
21
66.155011000000002
31
0
0
SPLINE
5
176
100
AcDbEntity
8
0
100
AcDbSpline
70
1064
71
3
72
8
73
4
74
0
42
0.000000001
43
0.0000000001
44
0.0000000001
40
0
40
0
40
0
40
0
40
1
40
1
40
1
40
1
10
44.689421499816063
20
54.096368511329558
30
0
10
43.552182502893842
20
54.096452179467093
30
0
10
42.630334331862485
20
55.018435003519215
30
0
10
42.630423999999998
20
56.155673999999998
30
0
0
LINE
5
177
100
AcDbEntity
8
0
100
AcDbLine
10
42.630423999999998
20
66.155668999999989
30
0
11
42.630423999999998
21
56.155673999999998
31
0
0
LINE
5
178
100
AcDbEntity
8
0
100
AcDbLine
10
16.638721
20
56.155335000000008
30
0
11
16.638721
21
66.155337000000003
31
0
0
LINE
5
179
100
AcDbEntity
8
0
100
AcDbLine
10
42.630423999999998
20
56.155673999999998
30
0
11
42.630423999999998
21
66.155668999999989
31
0
0
LINE
5
180
100
AcDbEntity
8
0
100
AcDbLine
10
443.51410899999996
20
56.15501600000001
30
0
11
443.51410899999996
21
66.155011000000002
31
0
0
SPLINE
5
181
100
AcDbEntity
8
0
100
AcDbSpline
70
1064
71
3
72
8
73
4
74
0
42
0.000000001
43
0.0000000001
44
0.0000000001
40
0
40
0
40
0
40
0
40
1
40
1
40
1
40
1
10
169.45017899999999
20
292.54119700000001
30
0
10
170.59652600000004
20
292.54119700000001
30
0
10
171.50936400000001
20
291.62842000000001
30
0
10
171.50936400000001
20
290.48200299999996
30
0
0
LINE
5
182
100
AcDbEntity
8
0
100
AcDbLine
10
420.63946500000009
20
278.50100900000001
30
0
11
420.65925899999996
21
0.27410500000000004
31
0
0
LINE
5
183
100
AcDbEntity
8
0
100
AcDbLine
10
0.15526099999999998
20
459.27919500000002
30
0
11
0.159556
21
0.27418500000003121
31
0
0
LINE
5
184
100
AcDbEntity
8
0
100
AcDbLine
10
16.638721
20
66.155337000000003
30
0
11
16.638721
21
56.155335000000008
31
0
0
SPLINE
5
185
100
AcDbEntity
8
0
100
AcDbSpline
70
1064
71
3
72
8
73
4
74
0
42
0.000000001
43
0.0000000001
44
0.0000000001
40
0
40
0
40
0
40
0
40
1
40
1
40
1
40
1
10
367.49100800000002
20
290.48202100000003
30
0
10
367.49100800000002
20
291.62837099999996
30
0
10
368.40382799999998
20
292.54114800000002
30
0
10
369.55018700000005
20
292.54114800000002
30
0
0
LINE
5
186
100
AcDbEntity
8
0
100
AcDbLine
10
473.62381400000004
20
56.155347999999996
30
0
11
473.62381400000004
21
66.155349999999999
31
0
0
SPLINE
5
187
100
AcDbEntity
8
0
100
AcDbSpline
70
1064
71
3
72
8
73
4
74
0
42
0.000000001
43
0.0000000001
44
0.0000000001
40
0
40
0
40
0
40
0
40
1
40
1
40
1
40
1
10
369.55018700000005
20
288.42282700000004
30
0
10
368.40382799999998
20
288.42282700000004
30
0
10
367.49100800000002
20
289.33566999999999
30
0
10
367.49100800000002
20
290.48202100000003
30
0
0
SPLINE
5
188
100
AcDbEntity
8
0
100
AcDbSpline
70
1064
71
3
72
8
73
4
74
0
42
0.000000001
43
0.0000000001
44
0.0000000001
40
0
40
0
40
0
40
0
40
1
40
1
40
1
40
1
10
16.638721
20
56.155335000000022
30
0
10
16.638804391792434
20
55.018096003057494
30
0
10
15.7169569967225
20
54.096113403084601
30
0
10
14.579717999779989
20
54.096030011292164
30
0
0
SPLINE
5
189
100
AcDbEntity
8
0
100
AcDbSpline
70
1064
71
3
72
8
73
4
74
0
42
0.000000001
43
0.0000000001
44
0.0000000001
40
0
40
0
40
0
40
0
40
1
40
1
40
1
40
1
10
267.49100099999998
20
290.58203799999995
30
0
10
267.49100099999998
20
291.72838899999999
30
0
10
268.40383199999997
20
292.641166
30
0
10
269.55017900000001
20
292.641166
30
0
0
SPLINE
5
190
100
AcDbEntity
8
0
100
AcDbSpline
70
1064
71
3
72
8
73
4
74
0
42
0.000000001
43
0.0000000001
44
0.0000000001
40
0
40
0
40
0
40
0
40
1
40
1
40
1
40
1
10
371.60936499999997
20
290.48202100000003
30
0
10
371.60936499999997
20
289.33566999999999
30
0
10
370.69651700000003
20
288.42282700000004
30
0
10
369.55018700000005
20
288.42282700000004
30
0
0
LINE
5
191
100
AcDbEntity
8
0
100
AcDbLine
10
0.159556
20
0.27418500000003121
30
0
11
100.65955799999999
21
0.27418499999999568
31
0
0
SPLINE
5
192
100
AcDbEntity
8
0
100
AcDbSpline
70
1064
71
3
72
8
73
4
74
0
42
0.000000001
43
0.0000000001
44
0.0000000001
40
0
40
0
40
0
40
0
40
1
40
1
40
1
40
1
10
269.55017900000001
20
292.641166
30
0
10
270.69652500000007
20
292.641166
30
0
10
271.60936299999997
20
291.72838899999999
30
0
10
271.60936299999997
20
290.58203799999995
30
0
0
LINE
5
193
100
AcDbEntity
8
0
100
AcDbLine
10
420.65925899999996
20
0.27410500000000004
30
0
11
534.397288
21
0.2740519999999691
31
0
0
LINE
5
194
100
AcDbEntity
8
0
100
AcDbLine
10
477.74181400000003
20
66.155349999999999
30
0
11
477.74181400000003
21
56.155347999999996
31
0
0
SPLINE
5
195
100
AcDbEntity
8
0
100
AcDbSpline
70
1064
71
3
72
8
73
4
74
0
42
0.000000001
43
0.0000000001
44
0.0000000001
40
0
40
0
40
0
40
0
40
1
40
1
40
1
40
1
10
44.689423499962473
20
68.214977488446095
30
0
10
45.8266624967616
20
68.214892163700227
30
0
10
46.748509324670813
20
67.29290699679909
30
0
10
46.748423999999986
20
66.155668999999961
30
0
0
SPLINE
5
196
100
AcDbEntity
8
0
100
AcDbSpline
70
1064
71
3
72
8
73
4
74
0
42
0.000000001
43
0.0000000001
44
0.0000000001
40
0
40
0
40
0
40
0
40
1
40
1
40
1
40
1
10
42.630423999999998
20
66.155669000000003
30
0
10
42.630338675287724
20
67.292906996799132
30
0
10
43.552185503163358
20
68.214892163733836
30
0
10
44.68942349996248
20
68.21497748844611
30
0
0
LINE
5
197
100
AcDbEntity
8
0
100
AcDbLine
10
46.748424
20
56.155673999999998
30
0
11
46.748424
21
66.155668999999989
31
0
0
LINE
5
198
100
AcDbEntity
8
0
100
AcDbLine
10
443.51410899999996
20
66.155011000000002
30
0
11
443.51410899999996
21
56.15501600000001
31
0
0
SPLINE
5
199
100
AcDbEntity
8
0
100
AcDbSpline
70
1064
71
3
72
8
73
4
74
0
42
0.000000001
43
0.0000000001
44
0.0000000001
40
0
40
0
40
0
40
0
40
1
40
1
40
1
40
1
10
14.579717999779984
20
54.096030011292164
30
0
10
13.442479002837491
20
54.096113403327607
30
0
10
12.520631607964571
20
55.018096003497483
30
0
10
12.520720999999998
20
56.155335000000015
30
0
0
SPLINE
5
200
100
AcDbEntity
8
0
100
AcDbSpline
70
1064
71
3
72
8
73
4
74
0
42
0.000000001
43
0.0000000001
44
0.0000000001
40
0
40
0
40
0
40
0
40
1
40
1
40
1
40
1
10
429.75019100000003
20
348.46499100000005
30
0
10
428.60383200000001
20
348.46499100000005
30
0
10
427.691012
20
349.37783400000001
30
0
10
427.691012
20
350.52418499999999
30
0
0
SPLINE
5
201
100
AcDbEntity
8
0
100
AcDbSpline
70
1064
71
3
72
8
73
4
74
0
42
0.000000001
43
0.0000000001
44
0.0000000001
40
0
40
0
40
0
40
0
40
1
40
1
40
1
40
1
10
14.579721500037513
20
68.214645488446124
30
0
10
15.71695949683664
20
68.214560163733864
30
0
10
16.638806325237468
20
67.2925819967991
30
0
10
16.638721
20
66.155336999999989
30
0
0
LINE
5
202
100
AcDbEntity
8
0
100
AcDbLine
10
100.65955799999999
20
0.27418499999999568
30
0
11
0.159556
21
0.27418500000003121
31
0
0
LINE
5
203
100
AcDbEntity
8
0
100
AcDbLine
10
12.520721000000002
20
66.155337000000003
30
0
11
12.520721000000002
21
56.155335000000008
31
0
0
LINE
5
204
100
AcDbEntity
8
0
100
AcDbLine
10
509.73400200000003
20
483.42780400000004
30
0
11
25.014271000000004
21
484.13815499999998
31
0
0
SPLINE
5
205
100
AcDbEntity
8
0
100
AcDbSpline
70
1064
71
3
72
8
73
4
74
0
42
0.000000001
43
0.0000000001
44
0.0000000001
40
0
40
0
40
0
40
0
40
1
40
1
40
1
40
1
10
429.75021800000002
20
192.58136100000002
30
0
10
430.89654900000005
20
192.58136100000002
30
0
10
431.80939700000005
20
191.66858400000001
30
0
10
431.80939700000005
20
190.522234
30
0
0
LINE
5
206
100
AcDbEntity
8
0
100
AcDbLine
10
534.59300599999995
20
458.56877800000007
30
0
11
534.397288
21
0.2740519999999691
31
0
0
SPLINE
5
207
100
AcDbEntity
8
0
100
AcDbSpline
70
1064
71
3
72
8
73
4
74
0
42
0.000000001
43
0.0000000001
44
0.0000000001
40
0
40
0
40
0
40
0
40
1
40
1
40
1
40
1
10
167.39100099999999
20
290.48200299999996
30
0
10
167.39100099999999
20
291.62842000000001
30
0
10
168.303833
20
292.54119700000001
30
0
10
169.45017899999999
20
292.54119700000001
30
0
0
LINE
5
208
100
AcDbEntity
8
0
100
AcDbLine
10
415.78036000000003
20
283.36009799999999
30
0
11
105.528964
21
283.35345699999999
31
0
0
SPLINE
5
209
100
AcDbEntity
8
0
100
AcDbSpline
70
1064
71
3
72
8
73
4
74
0
42
0.000000001
43
0.0000000001
44
0.0000000001
40
0
40
0
40
0
40
0
40
1
40
1
40
1
40
1
10
46.748424
20
56.155673999999976
30
0
10
46.748513667934326
20
55.018435003519173
30
0
10
45.826666496738248
20
54.096452179705338
30
0
10
44.689421499816035
20
54.096368511329551
30
0
0
SPLINE
5
210
100
AcDbEntity
8
0
100
AcDbSpline
70
1064
71
3
72
8
73
4
74
0
42
0.000000001
43
0.0000000001
44
0.0000000001
40
0
40
0
40
0
40
0
40
1
40
1
40
1
40
1
10
271.60936299999997
20
290.58203799999995
30
0
10
271.60936299999997
20
289.43568799999991
30
0
10
270.69652500000007
20
288.52277799999996
30
0
10
269.55017900000001
20
288.52277799999996
30
0
0
SPLINE
5
211
100
AcDbEntity
8
0
100
AcDbSpline
70
1064
71
3
72
8
73
4
74
0
42
0.000000001
43
0.0000000001
44
0.0000000001
40
0
40
0
40
0
40
0
40
1
40
1
40
1
40
1
10
269.55017900000001
20
288.52277799999996
30
0
10
268.40383199999997
20
288.52277799999996
30
0
10
267.49100099999998
20
289.43568799999991
30
0
10
267.49100099999998
20
290.58203799999995
30
0
0
SPLINE
5
212
100
AcDbEntity
8
0
100
AcDbSpline
70
1064
71
3
72
8
73
4
74
0
42
0.000000001
43
0.0000000001
44
0.0000000001
40
0
40
0
40
0
40
0
40
1
40
1
40
1
40
1
10
431.80936900000006
20
350.52418499999999
30
0
10
431.80936900000006
20
349.37783400000001
30
0
10
430.89652100000001
20
348.46499100000005
30
0
10
429.75019100000003
20
348.46499100000005
30
0
0
SPLINE
5
213
100
AcDbEntity
8
0
100
AcDbSpline
70
1064
71
3
72
8
73
4
74
0
42
0.000000001
43
0.0000000001
44
0.0000000001
40
0
40
0
40
0
40
0
40
1
40
1
40
1
40
1
10
427.691012
20
350.52418499999999
30
0
10
427.691012
20
351.67060200000003
30
0
10
428.60383200000001
20
352.58337900000004
30
0
10
429.75019100000003
20
352.58337900000004
30
0
0
SPLINE
5
214
100
AcDbEntity
8
0
100
AcDbSpline
70
1064
71
3
72
8
73
4
74
0
42
0.000000001
43
0.0000000001
44
0.0000000001
40
0
40
0
40
0
40
0
40
1
40
1
40
1
40
1
10
169.45017899999999
20
288.42280899999997
30
0
10
168.303833
20
288.42280899999997
30
0
10
167.39100099999999
20
289.33565299999998
30
0
10
167.39100099999999
20
290.48200299999996
30
0
0
SPLINE
5
215
100
AcDbEntity
8
0
100
AcDbSpline
70
1064
71
3
72
8
73
4
74
0
42
0.000000001
43
0.0000000001
44
0.0000000001
40
0
40
0
40
0
40
0
40
1
40
1
40
1
40
1
10
369.55018700000005
20
292.54114800000002
30
0
10
370.69651700000003
20
292.54114800000002
30
0
10
371.60936499999997
20
291.62837099999996
30
0
10
371.60936499999997
20
290.48202100000003
30
0
0
SPLINE
5
216
100
AcDbEntity
8
0
100
AcDbSpline
70
1064
71
3
72
8
73
4
74
0
42
0.000000001
43
0.0000000001
44
0.0000000001
40
0
40
0
40
0
40
0
40
1
40
1
40
1
40
1
10
171.50936400000001
20
290.48200299999996
30
0
10
171.50936400000001
20
289.33565299999998
30
0
10
170.59652600000004
20
288.42280899999997
30
0
10
169.45017899999999
20
288.42280899999997
30
0
0
SPLINE
5
217
100
AcDbEntity
8
0
100
AcDbSpline
70
1064
71
3
72
8
73
4
74
0
42
0.000000001
43
0.0000000001
44
0.0000000001
40
0
40
0
40
0
40
0
40
1
40
1
40
1
40
1
10
429.75019100000003
20
352.58337900000004
30
0
10
430.89652100000001
20
352.58337900000004
30
0
10
431.80936900000006
20
351.67060200000003
30
0
10
431.80936900000006
20
350.52418499999999
30
0
0
LINE
5
218
100
AcDbEntity
8
0
100
AcDbLine
10
477.74181400000003
20
56.155347999999996
30
0
11
477.74181400000003
21
66.155349999999999
31
0
0
SPLINE
5
219
100
AcDbEntity
8
0
100
AcDbSpline
70
1064
71
3
72
8
73
4
74
0
42
0.000000001
43
0.0000000001
44
0.0000000001
40
0
40
0
40
0
40
0
40
1
40
1
40
1
40
1
10
475.68281049974274
20
54.096042511329536
30
0
10
474.54557250282051
20
54.096126179434137
30
0
10
473.62372433182207
20
55.018109003519228
30
0
10
473.62381400000015
20
56.155348000000004
30
0
0
SPLINE
5
220
100
AcDbEntity
8
0
100
AcDbSpline
70
1064
71
3
72
8
73
4
74
0
42
0.000000001
43
0.0000000001
44
0.0000000001
40
0
40
0
40
0
40
0
40
1
40
1
40
1
40
1
10
524.74076600000001
20
471.86324400000012
30
0
10
525.04252400000018
20
472.16500000000002
30
0
10
525.21205099999997
20
472.57426900000007
30
0
10
525.21205300000008
20
473.00101699999999
30
0
0
SPLINE
5
221
100
AcDbEntity
8
0
100
AcDbSpline
70
1064
71
3
72
8
73
4
74
0
42
0.000000001
43
0.0000000001
44
0.0000000001
40
0
40
0
40
0
40
0
40
1
40
1
40
1
40
1
10
469.98918200000003
20
5.340992
30
0
10
468.84282400000006
20
5.340992
30
0
10
467.93000400000005
20
6.2538420000000006
30
0
10
467.93000400000005
20
7.4001990000000006
30
0
0
SPLINE
5
222
100
AcDbEntity
8
0
100
AcDbSpline
70
1064
71
3
72
8
73
4
74
0
42
0.000000001
43
0.0000000001
44
0.0000000001
40
0
40
0
40
0
40
0
40
1
40
1
40
1
40
1
10
38.950177000000004
20
378.55933500000003
30
0
10
40.096511
20
378.55933500000003
30
0
10
41.009354999999999
20
377.64662400000009
30
0
10
41.009354999999999
20
376.50020699999999
30
0
0
SPLINE
5
223
100
AcDbEntity
8
0
100
AcDbSpline
70
1064
71
3
72
8
73
4
74
0
42
0.000000001
43
0.0000000001
44
0.0000000001
40
0
40
0
40
0
40
0
40
1
40
1
40
1
40
1
10
489.05095627542471
20
30.089833999962927
30
0
10
489.05073464864563
20
27.413672009139958
30
0
10
487.10981899121077
20
25.244373738938073
30
0
10
484.71579999999989
20
25.244579000000002
30
0
0
SPLINE
5
224
100
AcDbEntity
8
0
100
AcDbSpline
70
1064
71
3
72
8
73
4
74
0
42
0.000000001
43
0.0000000001
44
0.0000000001
40
0
40
0
40
0
40
0
40
1
40
1
40
1
40
1
10
71.080179999999999
20
5.5409920000000001
30
0
10
69.933827000000008
20
5.5409920000000001
30
0
10
69.021001999999996
20
6.4538420000000007
30
0
10
69.021001999999996
20
7.6001990000000008
30
0
0
LINE
5
225
100
AcDbEntity
8
0
100
AcDbLine
10
420.65925899999996
20
0.27410500000000004
30
0
11
420.63946500000009
21
278.50100900000001
31
0
0
LINE
5
226
100
AcDbEntity
8
0
100
AcDbLine
10
484.71580000000006
20
34.935090000000002
30
0
11
463.664671
21
34.935090000000002
31
0
0
SPLINE
5
227
100
AcDbEntity
8
0
100
AcDbSpline
70
1064
71
3
72
8
73
4
74
0
42
0.000000001
43
0.0000000001
44
0.0000000001
40
0
40
0
40
0
40
0
40
1
40
1
40
1
40
1
10
430.24735599999997
20
376.50020699999999
30
0
10
430.24735599999997
20
375.353857
30
0
10
429.33450800000003
20
374.441013
30
0
10
428.18817800000005
20
374.441013
30
0
0
SPLINE
5
228
100
AcDbEntity
8
0
100
AcDbSpline
70
1064
71
3
72
8
73
4
74
0
42
0.000000001
43
0.0000000001
44
0.0000000001
40
0
40
0
40
0
40
0
40
1
40
1
40
1
40
1
10
523.60299000000009
20
474.61006500000008
30
0
10
523.176242
20
474.61006700000007
30
0
10
522.76697100000001
20
474.44054400000005
30
0
10
522.46521300000018
20
474.13878899999997
30
0
0
SPLINE
5
229
100
AcDbEntity
8
0
100
AcDbSpline
70
1064
71
3
72
8
73
4
74
0
42
0.000000001
43
0.0000000001
44
0.0000000001
40
0
40
0
40
0
40
0
40
1
40
1
40
1
40
1
10
92.300179
20
9.6593460000000029
30
0
10
93.44652600000002
20
9.6593460000000029
30
0
10
94.359363000000002
20
8.7465830000000011
30
0
10
94.359363000000002
20
7.6001990000000008
30
0
0
LINE
5
230
100
AcDbEntity
8
0
100
AcDbLine
10
484.71580000000006
20
25.244579000000002
30
0
11
463.664671
21
25.244579000000002
31
0
0
LINE
5
231
100
AcDbEntity
8
0
100
AcDbLine
10
463.664671
20
25.244579000000002
30
0
11
484.71580000000006
21
25.244579000000002
31
0
0
SPLINE
5
232
100
AcDbEntity
8
0
100
AcDbSpline
70
1064
71
3
72
8
73
4
74
0
42
0.000000001
43
0.0000000001
44
0.0000000001
40
0
40
0
40
0
40
0
40
1
40
1
40
1
40
1
10
100.669871
20
278.49436700000001
30
0
10
100.669871
20
281.17797400000001
30
0
10
102.845364
20
283.35345699999999
30
0
10
105.528964
20
283.35345699999999
30
0
0
SPLINE
5
233
100
AcDbEntity
8
0
100
AcDbSpline
70
1064
71
3
72
8
73
4
74
0
42
0.000000001
43
0.0000000001
44
0.0000000001
40
0
40
0
40
0
40
0
40
1
40
1
40
1
40
1
10
463.664671
20
25.244578999999998
30
0
10
461.27065200837046
20
25.244378805988635
30
0
10
459.32974059934418
20
27.413676509581265
30
0
10
459.32951681189485
20
30.08983750022443
30
0
0
LINE
5
234
100
AcDbEntity
8
0
100
AcDbLine
10
100.669871
20
278.49436700000001
30
0
11
100.65955799999999
21
0.27418499999999568
31
0
0
LINE
5
235
100
AcDbEntity
8
0
100
AcDbLine
10
105.528964
20
283.35345699999999
30
0
11
415.78036000000003
21
283.36009799999999
31
0
0
SPLINE
5
236
100
AcDbEntity
8
0
100
AcDbSpline
70
1064
71
3
72
8
73
4
74
0
42
0.000000001
43
0.0000000001
44
0.0000000001
40
0
40
0
40
0
40
0
40
1
40
1
40
1
40
1
10
450.82835499999999
20
7.4001990000000006
30
0
10
450.82835499999999
20
6.2538420000000006
30
0
10
449.91550500000005
20
5.340992
30
0
10
448.76917700000001
20
5.340992
30
0
0
SPLINE
5
237
100
AcDbEntity
8
0
100
AcDbSpline
70
1064
71
3
72
8
73
4
74
0
42
0.000000001
43
0.0000000001
44
0.0000000001
40
0
40
0
40
0
40
0
40
1
40
1
40
1
40
1
10
9.1499439999999996
20
473.51397300000002
30
0
10
9.149948000000002
20
474.40262800000005
30
0
10
9.8703460000000014
20
475.1230230000001
30
0
10
10.759001
20
475.12302199999999
30
0
0
SPLINE
5
238
100
AcDbEntity
8
0
100
AcDbSpline
70
1064
71
3
72
8
73
4
74
0
42
0.000000001
43
0.0000000001
44
0.0000000001
40
0
40
0
40
0
40
0
40
1
40
1
40
1
40
1
10
467.93000400000005
20
7.4001990000000006
30
0
10
467.93000400000005
20
8.5465830000000018
30
0
10
468.84282400000006
20
9.4593460000000018
30
0
10
469.98918200000003
20
9.4593460000000018
30
0
0
LINE
5
239
100
AcDbEntity
8
0
100
AcDbLine
10
463.664671
20
34.935090000000002
30
0
11
484.71580000000006
21
34.935090000000002
31
0
0
SPLINE
5
240
100
AcDbEntity
8
0
100
AcDbSpline
70
1064
71
3
72
8
73
4
74
0
42
0.000000001
43
0.0000000001
44
0.0000000001
40
0
40
0
40
0
40
0
40
1
40
1
40
1
40
1
10
459.32951681189491
20
30.089837500224419
30
0
10
459.32974059970491
20
32.765999490867557
30
0
10
461.27065200837046
20
34.935290194259245
30
0
10
463.664671
20
34.93509000000001
30
0
0
SPLINE
5
241
100
AcDbEntity
8
0
100
AcDbSpline
70
1064
71
3
72
8
73
4
74
0
42
0.000000001
43
0.0000000001
44
0.0000000001
40
0
40
0
40
0
40
0
40
1
40
1
40
1
40
1
10
6.6599960000000031
20
7.6001990000000008
30
0
10
6.6599960000000031
20
8.7465830000000011
30
0
10
7.5728330000000019
20
9.6593460000000029
30
0
10
8.719180000000005
20
9.6593460000000029
30
0
0
SPLINE
5
242
100
AcDbEntity
8
0
100
AcDbSpline
70
1064
71
3
72
8
73
4
74
0
42
0.000000001
43
0.0000000001
44
0.0000000001
40
0
40
0
40
0
40
0
40
1
40
1
40
1
40
1
10
8.719180000000005
20
9.6593460000000029
30
0
10
9.8655200000000018
20
9.6593460000000029
30
0
10
10.778364000000003
20
8.7465830000000011
30
0
10
10.778364000000003
20
7.6001990000000008
30
0
0
SPLINE
5
243
100
AcDbEntity
8
0
100
AcDbSpline
70
1064
71
3
72
8
73
4
74
0
42
0.000000001
43
0.0000000001
44
0.0000000001
40
0
40
0
40
0
40
0
40
1
40
1
40
1
40
1
10
458.28816799999998
20
378.55933500000003
30
0
10
459.43449700000002
20
378.55933500000003
30
0
10
460.34734600000007
20
377.64662400000009
30
0
10
460.34734600000007
20
376.50020699999999
30
0
0
SPLINE
5
244
100
AcDbEntity
8
0
100
AcDbSpline
70
1064
71
3
72
8
73
4
74
0
42
0.000000001
43
0.0000000001
44
0.0000000001
40
0
40
0
40
0
40
0
40
1
40
1
40
1
40
1
10
428.18817800000005
20
374.441013
30
0
10
427.04182000000003
20
374.441013
30
0
10
426.12900000000002
20
375.353857
30
0
10
426.12900000000002
20
376.50020699999999
30
0
0
SPLINE
5
245
100
AcDbEntity
8
0
100
AcDbSpline
70
1064
71
3
72
8
73
4
74
0
42
0.000000001
43
0.0000000001
44
0.0000000001
40
0
40
0
40
0
40
0
40
1
40
1
40
1
40
1
10
523.60299000000009
20
471.39196800000002
30
0
10
524.02973800000018
20
471.39196600000002
30
0
10
524.43900900000006
20
471.56148899999999
30
0
10
524.74076600000001
20
471.86324400000012
30
0
0
LINE
5
246
100
AcDbEntity
8
0
100
AcDbLine
10
12.520721000000002
20
56.155335000000008
30
0
11
12.520721000000002
21
66.155337000000003
31
0
0
SPLINE
5
247
100
AcDbEntity
8
0
100
AcDbSpline
70
1064
71
3
72
8
73
4
74
0
42
0.000000001
43
0.0000000001
44
0.0000000001
40
0
40
0
40
0
40
0
40
1
40
1
40
1
40
1
10
41.009354999999999
20
376.50020699999999
30
0
10
41.009354999999999
20
375.353857
30
0
10
40.096511
20
374.441013
30
0
10
38.950177000000004
20
374.441013
30
0
0
SPLINE
5
248
100
AcDbEntity
8
0
100
AcDbSpline
70
1064
71
3
72
8
73
4
74
0
42
0.000000001
43
0.0000000001
44
0.0000000001
40
0
40
0
40
0
40
0
40
1
40
1
40
1
40
1
10
38.950177000000004
20
374.441013
30
0
10
37.803818
20
374.441013
30
0
10
36.890997999999996
20
375.353857
30
0
10
36.890997999999996
20
376.50020699999999
30
0
0
SPLINE
5
249
100
AcDbEntity
8
0
100
AcDbSpline
70
1064
71
3
72
8
73
4
74
0
42
0.000000001
43
0.0000000001
44
0.0000000001
40
0
40
0
40
0
40
0
40
1
40
1
40
1
40
1
10
69.021001999999996
20
7.6001990000000008
30
0
10
69.021001999999996
20
8.7465830000000011
30
0
10
69.933827000000008
20
9.6593460000000029
30
0
10
71.080179999999999
20
9.6593460000000029
30
0
0
SPLINE
5
250
100
AcDbEntity
8
0
100
AcDbSpline
70
1064
71
3
72
8
73
4
74
0
42
0.000000001
43
0.0000000001
44
0.0000000001
40
0
40
0
40
0
40
0
40
1
40
1
40
1
40
1
10
469.98918200000003
20
9.4593460000000018
30
0
10
471.13551100000001
20
9.4593460000000018
30
0
10
472.04836
20
8.5465830000000018
30
0
10
472.04836
20
7.4001990000000006
30
0
0
SPLINE
5
251
100
AcDbEntity
8
0
100
AcDbSpline
70
1064
71
3
72
8
73
4
74
0
42
0.000000001
43
0.0000000001
44
0.0000000001
40
0
40
0
40
0
40
0
40
1
40
1
40
1
40
1
10
90.241000999999997
20
7.6001990000000008
30
0
10
90.241000999999997
20
8.7465830000000011
30
0
10
91.153832999999992
20
9.6593460000000029
30
0
10
92.300179
20
9.6593460000000029
30
0
0
SPLINE
5
252
100
AcDbEntity
8
0
100
AcDbSpline
70
1064
71
3
72
8
73
4
74
0
42
0.000000001
43
0.0000000001
44
0.0000000001
40
0
40
0
40
0
40
0
40
1
40
1
40
1
40
1
10
94.359363000000002
20
7.6001990000000008
30
0
10
94.359363000000002
20
6.4538420000000007
30
0
10
93.44652600000002
20
5.5409920000000001
30
0
10
92.300179
20
5.5409920000000001
30
0
0
LINE
5
253
100
AcDbEntity
8
0
100
AcDbLine
10
25.014271000000004
20
484.13815499999998
30
0
11
509.73400200000003
21
483.42780400000004
31
0
0
SPLINE
5
254
100
AcDbEntity
8
0
100
AcDbSpline
70
1064
71
3
72
8
73
4
74
0
42
0.000000001
43
0.0000000001
44
0.0000000001
40
0
40
0
40
0
40
0
40
1
40
1
40
1
40
1
10
522.46521300000018
20
474.13878899999997
30
0
10
522.163455
20
473.83703400000002
30
0
10
521.9939280000001
20
473.42776500000008
30
0
10
521.99392699999999
20
473.00101699999999
30
0
0
SPLINE
5
255
100
AcDbEntity
8
0
100
AcDbSpline
70
1064
71
3
72
8
73
4
74
0
42
0.000000001
43
0.0000000001
44
0.0000000001
40
0
40
0
40
0
40
0
40
1
40
1
40
1
40
1
10
509.73400200000003
20
483.42780400000004
30
0
10
523.46326399999998
20
483.42780400000004
30
0
10
534.59300599999995
20
472.29802199999995
30
0
10
534.59300599999995
20
458.56877800000007
30
0
0
SPLINE
5
256
100
AcDbEntity
8
0
100
AcDbSpline
70
1064
71
3
72
8
73
4
74
0
42
0.000000001
43
0.0000000001
44
0.0000000001
40
0
40
0
40
0
40
0
40
1
40
1
40
1
40
1
10
69.050178000000002
20
374.441013
30
0
10
67.903819999999996
20
374.441013
30
0
10
66.991
20
375.353857
30
0
10
66.991
20
376.50020699999999
30
0
0
SPLINE
5
257
100
AcDbEntity
8
0
100
AcDbSpline
70
1064
71
3
72
8
73
4
74
0
42
0.000000001
43
0.0000000001
44
0.0000000001
40
0
40
0
40
0
40
0
40
1
40
1
40
1
40
1
10
71.080179999999999
20
9.6593460000000029
30
0
10
72.226519999999994
20
9.6593460000000029
30
0
10
73.139358000000001
20
8.7465830000000011
30
0
10
73.139358000000001
20
7.6001990000000008
30
0
0
LINE
5
258
100
AcDbEntity
8
0
100
AcDbLine
10
534.397288
20
0.2740519999999691
30
0
11
534.59300599999995
21
458.56877800000007
31
0
0
SPLINE
5
259
100
AcDbEntity
8
0
100
AcDbSpline
70
1064
71
3
72
8
73
4
74
0
42
0.000000001
43
0.0000000001
44
0.0000000001
40
0
40
0
40
0
40
0
40
1
40
1
40
1
40
1
10
12.368052
20
473.51397300000002
30
0
10
12.368049000000001
20
472.62532099999999
30
0
10
11.647654000000001
20
471.90492699999993
30
0
10
10.759001
20
471.90492500000005
30
0
0
SPLINE
5
260
100
AcDbEntity
8
0
100
AcDbSpline
70
1064
71
3
72
8
73
4
74
0
42
0.000000001
43
0.0000000001
44
0.0000000001
40
0
40
0
40
0
40
0
40
1
40
1
40
1
40
1
10
36.890997999999996
20
376.50020699999999
30
0
10
36.890997999999996
20
377.64662400000009
30
0
10
37.803818
20
378.55933500000003
30
0
10
38.950177000000004
20
378.55933500000003
30
0
0
SPLINE
5
261
100
AcDbEntity
8
0
100
AcDbSpline
70
1064
71
3
72
8
73
4
74
0
42
0.000000001
43
0.0000000001
44
0.0000000001
40
0
40
0
40
0
40
0
40
1
40
1
40
1
40
1
10
66.991
20
376.50020699999999
30
0
10
66.991
20
377.64662400000009
30
0
10
67.903819999999996
20
378.55933500000003
30
0
10
69.050178000000002
20
378.55933500000003
30
0
0
SPLINE
5
262
100
AcDbEntity
8
0
100
AcDbSpline
70
1064
71
3
72
8
73
4
74
0
42
0.000000001
43
0.0000000001
44
0.0000000001
40
0
40
0
40
0
40
0
40
1
40
1
40
1
40
1
10
0.15526099999999998
20
459.27919500000002
30
0
10
0.15526099999999998
20
473.00844000000012
30
0
10
11.285032000000001
20
484.13815499999998
30
0
10
25.014271000000004
20
484.13815499999998
30
0
0
SPLINE
5
263
100
AcDbEntity
8
0
100
AcDbSpline
70
1064
71
3
72
8
73
4
74
0
42
0.000000001
43
0.0000000001
44
0.0000000001
40
0
40
0
40
0
40
0
40
1
40
1
40
1
40
1
10
415.78036000000003
20
283.36009799999999
30
0
10
418.46395400000006
20
283.36009799999999
30
0
10
420.63946500000009
20
281.18461500000001
30
0
10
420.63946500000009
20
278.50100900000001
30
0
0
LINE
5
264
100
AcDbEntity
8
0
100
AcDbLine
10
0.159556
20
0.27418500000003121
30
0
11
0.15526099999999998
21
459.27919500000002
31
0
0
SPLINE
5
265
100
AcDbEntity
8
0
100
AcDbSpline
70
1064
71
3
72
8
73
4
74
0
42
0.000000001
43
0.0000000001
44
0.0000000001
40
0
40
0
40
0
40
0
40
1
40
1
40
1
40
1
10
458.28816799999998
20
374.441013
30
0
10
457.14180999999996
20
374.441013
30
0
10
456.22899000000007
20
375.353857
30
0
10
456.22899000000007
20
376.50020699999999
30
0
0
SPLINE
5
266
100
AcDbEntity
8
0
100
AcDbSpline
70
1064
71
3
72
8
73
4
74
0
42
0.000000001
43
0.0000000001
44
0.0000000001
40
0
40
0
40
0
40
0
40
1
40
1
40
1
40
1
10
456.22899000000007
20
376.50020699999999
30
0
10
456.22899000000007
20
377.64662400000009
30
0
10
457.14180999999996
20
378.55933500000003
30
0
10
458.28816799999998
20
378.55933500000003
30
0
0
SPLINE
5
267
100
AcDbEntity
8
0
100
AcDbSpline
70
1064
71
3
72
8
73
4
74
0
42
0.000000001
43
0.0000000001
44
0.0000000001
40
0
40
0
40
0
40
0
40
1
40
1
40
1
40
1
10
522.46521300000018
20
471.86324400000012
30
0
10
522.76697100000001
20
471.56148899999999
30
0
10
523.176242
20
471.39196600000002
30
0
10
523.60299000000009
20
471.39196800000002
30
0
0
SPLINE
5
268
100
AcDbEntity
8
0
100
AcDbSpline
70
1064
71
3
72
8
73
4
74
0
42
0.000000001
43
0.0000000001
44
0.0000000001
40
0
40
0
40
0
40
0
40
1
40
1
40
1
40
1
10
10.759001
20
475.12302199999999
30
0
10
11.647654000000001
20
475.12302000000005
30
0
10
12.368049000000001
20
474.40262600000005
30
0
10
12.368052
20
473.51397300000002
30
0
0
SPLINE
5
269
100
AcDbEntity
8
0
100
AcDbSpline
70
1064
71
3
72
8
73
4
74
0
42
0.000000001
43
0.0000000001
44
0.0000000001
40
0
40
0
40
0
40
0
40
1
40
1
40
1
40
1
10
73.139358000000001
20
7.6001990000000008
30
0
10
73.139358000000001
20
6.4538420000000007
30
0
10
72.226519999999994
20
5.5409920000000001
30
0
10
71.080179999999999
20
5.5409920000000001
30
0
0
LINE
5
270
100
AcDbEntity
8
0
100
AcDbLine
10
100.65955799999999
20
0.27418499999999568
30
0
11
100.669871
21
278.49436700000001
31
0
0
SPLINE
5
271
100
AcDbEntity
8
0
100
AcDbSpline
70
1064
71
3
72
8
73
4
74
0
42
0.000000001
43
0.0000000001
44
0.0000000001
40
0
40
0
40
0
40
0
40
1
40
1
40
1
40
1
10
460.34734600000007
20
376.50020699999999
30
0
10
460.34734600000007
20
375.353857
30
0
10
459.43449700000002
20
374.441013
30
0
10
458.28816799999998
20
374.441013
30
0
0
SPLINE
5
272
100
AcDbEntity
8
0
100
AcDbSpline
70
1064
71
3
72
8
73
4
74
0
42
0.000000001
43
0.0000000001
44
0.0000000001
40
0
40
0
40
0
40
0
40
1
40
1
40
1
40
1
10
521.99392699999999
20
473.00101699999999
30
0
10
521.9939280000001
20
472.57426900000007
30
0
10
522.163455
20
472.16500000000002
30
0
10
522.46521300000018
20
471.86324400000012
30
0
0
LINE
5
273
100
AcDbEntity
8
0
100
AcDbLine
10
534.397288
20
0.2740519999999691
30
0
11
420.65925899999996
21
0.27410500000000004
31
0
0
SPLINE
5
274
100
AcDbEntity
8
0
100
AcDbSpline
70
1064
71
3
72
8
73
4
74
0
42
0.000000001
43
0.0000000001
44
0.0000000001
40
0
40
0
40
0
40
0
40
1
40
1
40
1
40
1
10
525.21205300000008
20
473.00101699999999
30
0
10
525.21205099999997
20
473.42776500000008
30
0
10
525.04252400000018
20
473.83703400000002
30
0
10
524.74076600000001
20
474.13878899999997
30
0
0
SPLINE
5
275
100
AcDbEntity
8
0
100
AcDbSpline
70
1064
71
3
72
8
73
4
74
0
42
0.000000001
43
0.0000000001
44
0.0000000001
40
0
40
0
40
0
40
0
40
1
40
1
40
1
40
1
10
71.109356999999989
20
376.50020699999999
30
0
10
71.109356999999989
20
375.353857
30
0
10
70.196506999999997
20
374.441013
30
0
10
69.050178000000002
20
374.441013
30
0
0
SPLINE
5
276
100
AcDbEntity
8
0
100
AcDbSpline
70
1064
71
3
72
8
73
4
74
0
42
0.000000001
43
0.0000000001
44
0.0000000001
40
0
40
0
40
0
40
0
40
1
40
1
40
1
40
1
10
426.12900000000002
20
376.50020699999999
30
0
10
426.12900000000002
20
377.64662400000009
30
0
10
427.04182000000003
20
378.55933500000003
30
0
10
428.18817800000005
20
378.55933500000003
30
0
0
SPLINE
5
277
100
AcDbEntity
8
0
100
AcDbSpline
70
1064
71
3
72
8
73
4
74
0
42
0.000000001
43
0.0000000001
44
0.0000000001
40
0
40
0
40
0
40
0
40
1
40
1
40
1
40
1
10
472.04836
20
7.4001990000000006
30
0
10
472.04836
20
6.2538420000000006
30
0
10
471.13551100000001
20
5.340992
30
0
10
469.98918200000003
20
5.340992
30
0
0
SPLINE
5
278
100
AcDbEntity
8
0
100
AcDbSpline
70
1064
71
3
72
8
73
4
74
0
42
0.000000001
43
0.0000000001
44
0.0000000001
40
0
40
0
40
0
40
0
40
1
40
1
40
1
40
1
10
448.76917700000001
20
5.340992
30
0
10
447.62281800000005
20
5.340992
30
0
10
446.70999900000004
20
6.2538420000000006
30
0
10
446.70999900000004
20
7.4001990000000006
30
0
0
SPLINE
5
279
100
AcDbEntity
8
0
100
AcDbSpline
70
1064
71
3
72
8
73
4
74
0
42
0.000000001
43
0.0000000001
44
0.0000000001
40
0
40
0
40
0
40
0
40
1
40
1
40
1
40
1
10
92.300179
20
5.5409920000000001
30
0
10
91.153832999999992
20
5.5409920000000001
30
0
10
90.241000999999997
20
6.4538420000000007
30
0
10
90.241000999999997
20
7.6001990000000008
30
0
0
SPLINE
5
280
100
AcDbEntity
8
0
100
AcDbSpline
70
1064
71
3
72
8
73
4
74
0
42
0.000000001
43
0.0000000001
44
0.0000000001
40
0
40
0
40
0
40
0
40
1
40
1
40
1
40
1
10
524.74076600000001
20
474.13878899999997
30
0
10
524.43900900000006
20
474.44054400000005
30
0
10
524.02973800000018
20
474.61006700000007
30
0
10
523.60299000000009
20
474.61006500000008
30
0
0
SPLINE
5
281
100
AcDbEntity
8
0
100
AcDbSpline
70
1064
71
3
72
8
73
4
74
0
42
0.000000001
43
0.0000000001
44
0.0000000001
40
0
40
0
40
0
40
0
40
1
40
1
40
1
40
1
10
69.050178000000002
20
378.55933500000003
30
0
10
70.196506999999997
20
378.55933500000003
30
0
10
71.109356999999989
20
377.64662400000009
30
0
10
71.109356999999989
20
376.50020699999999
30
0
0
SPLINE
5
282
100
AcDbEntity
8
0
100
AcDbSpline
70
1064
71
3
72
8
73
4
74
0
42
0.000000001
43
0.0000000001
44
0.0000000001
40
0
40
0
40
0
40
0
40
1
40
1
40
1
40
1
10
484.7157999999996
20
34.935089999999974
30
0
10
487.10981899129331
20
34.935294261020971
30
0
10
489.05073464869105
20
32.765995990785882
30
0
10
489.05095627542437
20
30.089833999962906
30
0
0
SPLINE
5
283
100
AcDbEntity
8
0
100
AcDbSpline
70
1064
71
3
72
8
73
4
74
0
42
0.000000001
43
0.0000000001
44
0.0000000001
40
0
40
0
40
0
40
0
40
1
40
1
40
1
40
1
10
10.759001
20
471.90492500000005
30
0
10
9.8703460000000014
20
471.90492400000005
30
0
10
9.149948000000002
20
472.62531900000005
30
0
10
9.1499439999999996
20
473.51397300000002
30
0
0
ENDSEC
0
SECTION
2
OBJECTS
0
DICTIONARY
5
C
100
AcDbDictionary
3
ACAD_GROUP
350
D
3
ACAD_MLINESTYLE
350
17
0
DICTIONARY
5
D
100
AcDbDictionary
0
DICTIONARY
5
1A
330
C
100
AcDbDictionary
0
DICTIONARY
5
17
100
AcDbDictionary
0
ENDSEC
0
EOF
