0
SECTION
2
HEADER
9
$INSUNITS
70
4
9
$ACADVER
1
AC1014
9
$HANDSEED
5
FFFF
0
ENDSEC
0
SECTION
2
TABLES
0
TABLE
2
VPORT
5
8
100
AcDbSymbolTable
0
ENDTAB
0
TABLE
2
LTYPE
5
5
100
AcDbSymbolTable
0
LTYPE
5
14
100
AcDbSymbolTableRecord
100
AcDbLinetypeTableRecord
2
BYBLOCK
70
0
0
LTYPE
5
15
100
AcDbSymbolTableRecord
100
AcDbLinetypeTableRecord
2
BYLAYER
70
0
0
ENDTAB
0
TABLE
2
LAYER
5
2
100
AcDbSymbolTable
70
2
0
LAYER
5
50
100
AcDbSymbolTableRecord
100
AcDbLayerTableRecord
2
0
70
0
6
CONTINUOUS
0
ENDTAB
0
TABLE
2
STYLE
5
3
100
AcDbSymbolTable
70
1
0
STYLE
5
11
100
AcDbSymbolTableRecord
100
AcDbTextStyleTableRecord
2
STANDARD
70
0
0
ENDTAB
0
TABLE
2
VIEW
5
6
100
AcDbSymbolTable
70
0
0
ENDTAB
0
TABLE
2
UCS
5
7
100
AcDbSymbolTable
70
0
0
ENDTAB
0
TABLE
2
APPID
5
9
100
AcDbSymbolTable
70
2
0
APPID
5
12
100
AcDbSymbolTableRecord
100
AcDbRegAppTableRecord
2
ACAD
70
0
0
ENDTAB
0
TABLE
2
DIMSTYLE
5
A
100
AcDbSymbolTable
70
1
0
ENDTAB
0
TABLE
2
BLOCK_RECORD
5
1
100
AcDbSymbolTable
70
1
0
BLOCK_RECORD
5
1F
100
AcDbSymbolTableRecord
100
AcDbBlockTableRecord
2
*MODEL_SPACE
0
BLOCK_RECORD
5
1B
100
AcDbSymbolTableRecord
100
AcDbBlockTableRecord
2
*PAPER_SPACE
0
ENDTAB
0
ENDSEC
0
SECTION
2
BLOCKS
0
BLOCK
5
20
100
AcDbEntity
100
AcDbBlockBegin
2
*MODEL_SPACE
0
ENDBLK
5
21
100
AcDbEntity
100
AcDbBlockEnd
0
BLOCK
5
1C
100
AcDbEntity
100
AcDbBlockBegin
2
*PAPER_SPACE
0
ENDBLK
5
1D
100
AcDbEntity
100
AcDbBlockEnd
0
ENDSEC
0
SECTION
2
ENTITIES
0
SPLINE
5
100
100
AcDbEntity
8
0
100
AcDbSpline
70
1064
71
3
72
8
73
4
74
0
42
0.000000001
43
0.0000000001
44
0.0000000001
40
0
40
0
40
0
40
0
40
1
40
1
40
1
40
1
10
237.61293300000003
20
91.601996999999997
30
0
10
236.47580500000001
20
91.601997999999995
30
0
10
235.55397900000003
20
92.523820999999998
30
0
10
235.55397500000001
20
93.660949000000002
30
0
0
SPLINE
5
101
100
AcDbEntity
8
0
100
AcDbSpline
70
1064
71
3
72
8
73
4
74
0
42
0.000000001
43
0.0000000001
44
0.0000000001
40
0
40
0
40
0
40
0
40
1
40
1
40
1
40
1
10
237.61293300000003
20
95.719901000000007
30
0
10
238.75006299999998
20
95.719902000000005
30
0
10
239.67189000000002
20
94.798079000000001
30
0
10
239.67189399999998
20
93.660949000000002
30
0
0
SPLINE
5
102
100
AcDbEntity
8
0
100
AcDbSpline
70
1064
71
3
72
8
73
4
74
0
42
0.000000001
43
0.0000000001
44
0.0000000001
40
0
40
0
40
0
40
0
40
1
40
1
40
1
40
1
10
81.690199000000007
20
347.11116900000002
30
0
10
81.144110000000012
20
347.11116900000002
30
0
10
80.62038800000002
20
347.32810200000006
30
0
10
80.234245999999999
20
347.71424400000001
30
0
0
SPLINE
5
103
100
AcDbEntity
8
0
100
AcDbSpline
70
1064
71
3
72
8
73
4
74
0
42
0.000000001
43
0.0000000001
44
0.0000000001
40
0
40
0
40
0
40
0
40
1
40
1
40
1
40
1
10
83.146152000000001
20
347.71424400000001
30
0
10
82.760008999999997
20
347.32810200000006
30
0
10
82.236287000000004
20
347.11116900000002
30
0
10
81.690199000000007
20
347.11116900000002
30
0
0
SPLINE
5
104
100
AcDbEntity
8
0
100
AcDbSpline
70
1064
71
3
72
8
73
4
74
0
42
0.000000001
43
0.0000000001
44
0.0000000001
40
0
40
0
40
0
40
0
40
1
40
1
40
1
40
1
10
59.244246999999994
20
487.34524400000004
30
0
10
58.858104000000004
20
487.73138700000004
30
0
10
58.641171999999997
20
488.25510900000006
30
0
10
58.641171999999997
20
488.801197
30
0
0
SPLINE
5
105
100
AcDbEntity
8
0
100
AcDbSpline
70
1064
71
3
72
8
73
4
74
0
42
0.000000001
43
0.0000000001
44
0.0000000001
40
0
40
0
40
0
40
0
40
1
40
1
40
1
40
1
10
62.156153000000003
20
487.34524400000004
30
0
10
61.770010999999997
20
486.95910099999998
30
0
10
61.246289000000012
20
486.74216800000005
30
0
10
60.700200000000002
20
486.74216900000005
30
0
0
SPLINE
5
106
100
AcDbEntity
8
0
100
AcDbSpline
70
1064
71
3
72
8
73
4
74
0
42
0.000000001
43
0.0000000001
44
0.0000000001
40
0
40
0
40
0
40
0
40
1
40
1
40
1
40
1
10
62.156153000000003
20
490.25715000000002
30
0
10
62.542295999999993
20
489.87100700000008
30
0
10
62.759229000000012
20
489.347285
30
0
10
62.759229000000012
20
488.801197
30
0
0
SPLINE
5
107
100
AcDbEntity
8
0
100
AcDbSpline
70
1064
71
3
72
8
73
4
74
0
42
0.000000001
43
0.0000000001
44
0.0000000001
40
0
40
0
40
0
40
0
40
1
40
1
40
1
40
1
10
80.234245999999999
20
347.71424400000001
30
0
10
79.848103000000009
20
348.10038700000001
30
0
10
79.631169999999997
20
348.62410899999998
30
0
10
79.631169999999997
20
349.17019700000003
30
0
0
SPLINE
5
108
100
AcDbEntity
8
0
100
AcDbSpline
70
1064
71
3
72
8
73
4
74
0
42
0.000000001
43
0.0000000001
44
0.0000000001
40
0
40
0
40
0
40
0
40
1
40
1
40
1
40
1
10
269.67190399999998
20
32.560939000000005
30
0
10
269.67190099999999
20
31.42381
30
0
10
268.75007499999998
20
30.501987
30
0
10
267.61294600000002
20
30.501987
30
0
0
SPLINE
5
109
100
AcDbEntity
8
0
100
AcDbSpline
70
1064
71
3
72
8
73
4
74
0
42
0.000000001
43
0.0000000001
44
0.0000000001
40
0
40
0
40
0
40
0
40
1
40
1
40
1
40
1
10
267.61294600000002
20
34.619890999999996
30
0
10
268.75007499999998
20
34.619890000000012
30
0
10
269.67190099999999
20
33.698067000000002
30
0
10
269.67190399999998
20
32.560939000000005
30
0
0
SPLINE
5
110
100
AcDbEntity
8
0
100
AcDbSpline
70
1064
71
3
72
8
73
4
74
0
42
0.000000001
43
0.0000000001
44
0.0000000001
40
0
40
0
40
0
40
0
40
1
40
1
40
1
40
1
10
431.21015800000009
20
490.25715300000002
30
0
10
431.59630200000004
20
489.87100999999996
30
0
10
431.81323600000007
20
489.34728699999999
30
0
10
431.81323600000007
20
488.801197
30
0
0
SPLINE
5
111
100
AcDbEntity
8
0
100
AcDbSpline
70
1064
71
3
72
8
73
4
74
0
42
0.000000001
43
0.0000000001
44
0.0000000001
40
0
40
0
40
0
40
0
40
1
40
1
40
1
40
1
10
62.156153000000003
20
404.84424600000006
30
0
10
61.770010999999997
20
404.45810300000005
30
0
10
61.246289000000012
20
404.24117100000001
30
0
10
60.700200000000002
20
404.24117100000001
30
0
0
SPLINE
5
112
100
AcDbEntity
8
0
100
AcDbSpline
70
1064
71
3
72
8
73
4
74
0
42
0.000000001
43
0.0000000001
44
0.0000000001
40
0
40
0
40
0
40
0
40
1
40
1
40
1
40
1
10
267.61294600000002
20
95.719901000000007
30
0
10
268.75007499999998
20
95.719901000000007
30
0
10
269.67190099999999
20
94.798078000000018
30
0
10
269.67190399999998
20
93.660949000000002
30
0
0
SPLINE
5
113
100
AcDbEntity
8
0
100
AcDbSpline
70
1064
71
3
72
8
73
4
74
0
42
0.000000001
43
0.0000000001
44
0.0000000001
40
0
40
0
40
0
40
0
40
1
40
1
40
1
40
1
10
237.61293300000003
20
30.501987
30
0
10
236.47580500000001
20
30.501987
30
0
10
235.55397900000003
20
31.42381
30
0
10
235.55397500000001
20
32.560939000000005
30
0
0
SPLINE
5
114
100
AcDbEntity
8
0
100
AcDbSpline
70
1064
71
3
72
8
73
4
74
0
42
0.000000001
43
0.0000000001
44
0.0000000001
40
0
40
0
40
0
40
0
40
1
40
1
40
1
40
1
10
60.700200000000002
20
486.74216900000005
30
0
10
60.154111999999998
20
486.74216800000005
30
0
10
59.630390000000013
20
486.95910099999998
30
0
10
59.244246999999994
20
487.34524400000004
30
0
0
SPLINE
5
115
100
AcDbEntity
8
0
100
AcDbSpline
70
1064
71
3
72
8
73
4
74
0
42
0.000000001
43
0.0000000001
44
0.0000000001
40
0
40
0
40
0
40
0
40
1
40
1
40
1
40
1
10
62.759229000000012
20
488.801197
30
0
10
62.759229000000012
20
488.25510900000006
30
0
10
62.542295999999993
20
487.73138700000004
30
0
10
62.156153000000003
20
487.34524400000004
30
0
0
SPLINE
5
116
100
AcDbEntity
8
0
100
AcDbSpline
70
1064
71
3
72
8
73
4
74
0
42
0.000000001
43
0.0000000001
44
0.0000000001
40
0
40
0
40
0
40
0
40
1
40
1
40
1
40
1
10
81.690199000000007
20
351.22922600000004
30
0
10
82.236287000000004
20
351.22922600000004
30
0
10
82.760008999999997
20
351.012293
30
0
10
83.146152000000001
20
350.62615100000005
30
0
0
SPLINE
5
117
100
AcDbEntity
8
0
100
AcDbSpline
70
1064
71
3
72
8
73
4
74
0
42
0.000000001
43
0.0000000001
44
0.0000000001
40
0
40
0
40
0
40
0
40
1
40
1
40
1
40
1
10
428.29824100000002
20
490.25715300000002
30
0
10
428.68438499999996
20
490.64329600000008
30
0
10
429.20810899999998
20
490.86022800000001
30
0
10
429.75419900000009
20
490.86022500000007
30
0
0
SPLINE
5
118
100
AcDbEntity
8
0
100
AcDbSpline
70
1064
71
3
72
8
73
4
74
0
42
0.000000001
43
0.0000000001
44
0.0000000001
40
0
40
0
40
0
40
0
40
1
40
1
40
1
40
1
10
235.55397500000001
20
93.660949000000002
30
0
10
235.55397900000003
20
94.798078000000018
30
0
10
236.47580500000001
20
95.719901000000007
30
0
10
237.61293300000003
20
95.719901000000007
30
0
0
SPLINE
5
119
100
AcDbEntity
8
0
100
AcDbSpline
70
1064
71
3
72
8
73
4
74
0
42
0.000000001
43
0.0000000001
44
0.0000000001
40
0
40
0
40
0
40
0
40
1
40
1
40
1
40
1
10
265.55398600000001
20
32.560939000000005
30
0
10
265.55399
20
33.698067999999999
30
0
10
266.47581700000001
20
34.619892
30
0
10
267.61294600000002
20
34.619890999999996
30
0
0
SPLINE
5
120
100
AcDbEntity
8
0
100
AcDbSpline
70
1064
71
3
72
8
73
4
74
0
42
0.000000001
43
0.0000000001
44
0.0000000001
40
0
40
0
40
0
40
0
40
1
40
1
40
1
40
1
10
239.67189399999998
20
32.560939000000005
30
0
10
239.67189000000002
20
31.423809000000006
30
0
10
238.75006299999998
20
30.501985999999999
30
0
10
237.61293300000003
20
30.501987
30
0
0
SPLINE
5
121
100
AcDbEntity
8
0
100
AcDbSpline
70
1064
71
3
72
8
73
4
74
0
42
0.000000001
43
0.0000000001
44
0.0000000001
40
0
40
0
40
0
40
0
40
1
40
1
40
1
40
1
10
267.61294600000002
20
30.501987
30
0
10
266.47581700000001
20
30.501985999999999
30
0
10
265.55399
20
31.423809000000006
30
0
10
265.55398600000001
20
32.560939000000005
30
0
0
SPLINE
5
122
100
AcDbEntity
8
0
100
AcDbSpline
70
1064
71
3
72
8
73
4
74
0
42
0.000000001
43
0.0000000001
44
0.0000000001
40
0
40
0
40
0
40
0
40
1
40
1
40
1
40
1
10
58.641171999999997
20
488.801197
30
0
10
58.641171999999997
20
489.347285
30
0
10
58.858104000000004
20
489.87100700000008
30
0
10
59.244246999999994
20
490.25715000000002
30
0
0
SPLINE
5
123
100
AcDbEntity
8
0
100
AcDbSpline
70
1064
71
3
72
8
73
4
74
0
42
0.000000001
43
0.0000000001
44
0.0000000001
40
0
40
0
40
0
40
0
40
1
40
1
40
1
40
1
10
429.75419900000009
20
490.86022500000007
30
0
10
430.30028899999996
20
490.86022800000001
30
0
10
430.82401300000004
20
490.64329600000008
30
0
10
431.21015800000009
20
490.25715300000002
30
0
0
SPLINE
5
124
100
AcDbEntity
8
0
100
AcDbSpline
70
1064
71
3
72
8
73
4
74
0
42
0.000000001
43
0.0000000001
44
0.0000000001
40
0
40
0
40
0
40
0
40
1
40
1
40
1
40
1
10
59.244246999999994
20
490.25715000000002
30
0
10
59.630390000000013
20
490.64329299999997
30
0
10
60.154111999999998
20
490.86022500000007
30
0
10
60.700200000000002
20
490.86022500000007
30
0
0
SPLINE
5
125
100
AcDbEntity
8
0
100
AcDbSpline
70
1064
71
3
72
8
73
4
74
0
42
0.000000001
43
0.0000000001
44
0.0000000001
40
0
40
0
40
0
40
0
40
1
40
1
40
1
40
1
10
60.700200000000002
20
490.86022500000007
30
0
10
61.246289000000012
20
490.86022500000007
30
0
10
61.770010999999997
20
490.64329299999997
30
0
10
62.156153000000003
20
490.25715000000002
30
0
0
SPLINE
5
126
100
AcDbEntity
8
0
100
AcDbSpline
70
1064
71
3
72
8
73
4
74
0
42
0.000000001
43
0.0000000001
44
0.0000000001
40
0
40
0
40
0
40
0
40
1
40
1
40
1
40
1
10
62.759229000000012
20
406.30019900000008
30
0
10
62.759229000000012
20
405.75411099999997
30
0
10
62.542295999999993
20
405.23038900000006
30
0
10
62.156153000000003
20
404.84424600000006
30
0
0
SPLINE
5
127
100
AcDbEntity
8
0
100
AcDbSpline
70
1064
71
3
72
8
73
4
74
0
42
0.000000001
43
0.0000000001
44
0.0000000001
40
0
40
0
40
0
40
0
40
1
40
1
40
1
40
1
10
235.55397500000001
20
32.560939000000005
30
0
10
235.55397900000003
20
33.698067000000002
30
0
10
236.47580500000001
20
34.619890000000012
30
0
10
237.61293300000003
20
34.619890999999996
30
0
0
SPLINE
5
128
100
AcDbEntity
8
0
100
AcDbSpline
70
1064
71
3
72
8
73
4
74
0
42
0.000000001
43
0.0000000001
44
0.0000000001
40
0
40
0
40
0
40
0
40
1
40
1
40
1
40
1
10
79.631169999999997
20
349.17019700000003
30
0
10
79.631169999999997
20
349.71628599999997
30
0
10
79.848103000000009
20
350.24000800000005
30
0
10
80.234245999999999
20
350.62615100000005
30
0
0
SPLINE
5
129
100
AcDbEntity
8
0
100
AcDbSpline
70
1064
71
3
72
8
73
4
74
0
42
0.000000001
43
0.0000000001
44
0.0000000001
40
0
40
0
40
0
40
0
40
1
40
1
40
1
40
1
10
19.310200999999999
20
351.22922600000004
30
0
10
19.856289999999998
20
351.22922600000004
30
0
10
20.380012000000001
20
351.012293
30
0
10
20.766154
20
350.62615
30
0
0
SPLINE
5
130
100
AcDbEntity
8
0
100
AcDbSpline
70
1064
71
3
72
8
73
4
74
0
42
0.000000001
43
0.0000000001
44
0.0000000001
40
0
40
0
40
0
40
0
40
1
40
1
40
1
40
1
10
17.251173999999999
20
349.17019700000003
30
0
10
17.251173000000001
20
349.71628599999997
30
0
10
17.468105999999999
20
350.24000800000005
30
0
10
17.854248999999999
20
350.62615
30
0
0
SPLINE
5
131
100
AcDbEntity
8
0
100
AcDbSpline
70
1064
71
3
72
8
73
4
74
0
42
0.000000001
43
0.0000000001
44
0.0000000001
40
0
40
0
40
0
40
0
40
1
40
1
40
1
40
1
10
19.310200999999999
20
347.11116900000002
30
0
10
18.764113000000002
20
347.11116900000002
30
0
10
18.240390999999999
20
347.32810200000006
30
0
10
17.854248999999999
20
347.71424500000001
30
0
0
SPLINE
5
132
100
AcDbEntity
8
0
100
AcDbSpline
70
1064
71
3
72
8
73
4
74
0
42
0.000000001
43
0.0000000001
44
0.0000000001
40
0
40
0
40
0
40
0
40
1
40
1
40
1
40
1
10
80.234245999999999
20
350.62615100000005
30
0
10
80.62038800000002
20
351.012293
30
0
10
81.144110000000012
20
351.22922600000004
30
0
10
81.690199000000007
20
351.22922600000004
30
0
0
SPLINE
5
133
100
AcDbEntity
8
0
100
AcDbSpline
70
1064
71
3
72
8
73
4
74
0
42
0.000000001
43
0.0000000001
44
0.0000000001
40
0
40
0
40
0
40
0
40
1
40
1
40
1
40
1
10
20.766154
20
350.62615
30
0
10
21.152297000000001
20
350.24000800000005
30
0
10
21.369229000000001
20
349.71628599999997
30
0
10
21.369229000000001
20
349.17019700000003
30
0
0
SPLINE
5
134
100
AcDbEntity
8
0
100
AcDbSpline
70
1064
71
3
72
8
73
4
74
0
42
0.000000001
43
0.0000000001
44
0.0000000001
40
0
40
0
40
0
40
0
40
1
40
1
40
1
40
1
10
83.146152000000001
20
350.62615100000005
30
0
10
83.532294000000007
20
350.24000800000005
30
0
10
83.749227000000005
20
349.71628599999997
30
0
10
83.749227000000005
20
349.17019700000003
30
0
0
SPLINE
5
135
100
AcDbEntity
8
0
100
AcDbSpline
70
1064
71
3
72
8
73
4
74
0
42
0.000000001
43
0.0000000001
44
0.0000000001
40
0
40
0
40
0
40
0
40
1
40
1
40
1
40
1
10
20.766154
20
347.71424500000001
30
0
10
20.380012000000001
20
347.32810200000006
30
0
10
19.856289999999998
20
347.11116900000002
30
0
10
19.310200999999999
20
347.11116900000002
30
0
0
SPLINE
5
136
100
AcDbEntity
8
0
100
AcDbSpline
70
1064
71
3
72
8
73
4
74
0
42
0.000000001
43
0.0000000001
44
0.0000000001
40
0
40
0
40
0
40
0
40
1
40
1
40
1
40
1
10
17.854248999999999
20
347.71424500000001
30
0
10
17.468105999999999
20
348.10038700000001
30
0
10
17.251173000000001
20
348.62410899999998
30
0
10
17.251173999999999
20
349.17019700000003
30
0
0
SPLINE
5
137
100
AcDbEntity
8
0
100
AcDbSpline
70
1064
71
3
72
8
73
4
74
0
42
0.000000001
43
0.0000000001
44
0.0000000001
40
0
40
0
40
0
40
0
40
1
40
1
40
1
40
1
10
17.854248999999999
20
350.62615
30
0
10
18.240390999999999
20
351.012293
30
0
10
18.764113000000002
20
351.22922600000004
30
0
10
19.310200999999999
20
351.22922600000004
30
0
0
SPLINE
5
138
100
AcDbEntity
8
0
100
AcDbSpline
70
1064
71
3
72
8
73
4
74
0
42
0.000000001
43
0.0000000001
44
0.0000000001
40
0
40
0
40
0
40
0
40
1
40
1
40
1
40
1
10
21.369229000000001
20
349.17019700000003
30
0
10
21.369229000000001
20
348.62410899999998
30
0
10
21.152297000000001
20
348.10038700000001
30
0
10
20.766154
20
347.71424500000001
30
0
0
SPLINE
5
139
100
AcDbEntity
8
0
100
AcDbSpline
70
1064
71
3
72
8
73
4
74
0
42
0.000000001
43
0.0000000001
44
0.0000000001
40
0
40
0
40
0
40
0
40
1
40
1
40
1
40
1
10
149.01398500000002
20
32.610948999999998
30
0
10
149.01397900000001
20
33.157021999999998
30
0
10
149.23090200000001
20
33.680731999999999
30
0
10
149.61703199999999
20
34.066865999999997
30
0
0
SPLINE
5
140
100
AcDbEntity
8
0
100
AcDbSpline
70
1064
71
3
72
8
73
4
74
0
42
0.000000001
43
0.0000000001
44
0.0000000001
40
0
40
0
40
0
40
0
40
1
40
1
40
1
40
1
10
359.04374600000006
20
197.75467900000001
30
0
10
359.29858400000001
20
197.49984100000003
30
0
10
359.44175000000001
20
197.15420600000002
30
0
10
359.44175000000001
20
196.79381100000001
30
0
0
SPLINE
5
141
100
AcDbEntity
8
0
100
AcDbSpline
70
1064
71
3
72
8
73
4
74
0
42
0.000000001
43
0.0000000001
44
0.0000000001
40
0
40
0
40
0
40
0
40
1
40
1
40
1
40
1
10
358.08287800000005
20
198.152683
30
0
10
358.44327299999998
20
198.152683
30
0
10
358.78890799999999
20
198.00951699999999
30
0
10
359.04374600000006
20
197.75467900000001
30
0
0
SPLINE
5
142
100
AcDbEntity
8
0
100
AcDbSpline
70
1064
71
3
72
8
73
4
74
0
42
0.000000001
43
0.0000000001
44
0.0000000001
40
0
40
0
40
0
40
0
40
1
40
1
40
1
40
1
10
362.52401200000003
20
196.82005800000002
30
0
10
362.52401099999997
20
197.180453
30
0
10
362.66717800000004
20
197.52608700000002
30
0
10
362.92201600000004
20
197.780925
30
0
0
SPLINE
5
143
100
AcDbEntity
8
0
100
AcDbSpline
70
1064
71
3
72
8
73
4
74
0
42
0.000000001
43
0.0000000001
44
0.0000000001
40
0
40
0
40
0
40
0
40
1
40
1
40
1
40
1
10
362.92201600000004
20
197.780925
30
0
10
363.17685400000005
20
198.03576300000003
30
0
10
363.52248800000007
20
198.17893000000001
30
0
10
363.88288299999999
20
198.17892900000004
30
0
0
SPLINE
5
144
100
AcDbEntity
8
0
100
AcDbSpline
70
1064
71
3
72
8
73
4
74
0
42
0.000000001
43
0.0000000001
44
0.0000000001
40
0
40
0
40
0
40
0
40
1
40
1
40
1
40
1
10
338.10697800000003
20
87.399947999999995
30
0
10
337.85213999999996
20
87.654786000000001
30
0
10
337.70897300000001
20
88.000421000000003
30
0
10
337.70897400000001
20
88.360816
30
0
0
SPLINE
5
145
100
AcDbEntity
8
0
100
AcDbSpline
70
1064
71
3
72
8
73
4
74
0
42
0.000000001
43
0.0000000001
44
0.0000000001
40
0
40
0
40
0
40
0
40
1
40
1
40
1
40
1
10
288.13318300000003
20
81.59991500000001
30
0
10
287.87834500000002
20
81.854753000000002
30
0
10
287.73517900000002
20
82.200387000000021
30
0
10
287.73517900000002
20
82.560781999999989
30
0
0
SPLINE
5
146
100
AcDbEntity
8
0
100
AcDbSpline
70
1064
71
3
72
8
73
4
74
0
42
0.000000001
43
0.0000000001
44
0.0000000001
40
0
40
0
40
0
40
0
40
1
40
1
40
1
40
1
10
359.44175000000001
20
196.79381100000001
30
0
10
359.44175000000001
20
196.43341599999999
30
0
10
359.29858400000001
20
196.08778100000001
30
0
10
359.04374600000006
20
195.83294300000003
30
0
0
SPLINE
5
147
100
AcDbEntity
8
0
100
AcDbSpline
70
1064
71
3
72
8
73
4
74
0
42
0.000000001
43
0.0000000001
44
0.0000000001
40
0
40
0
40
0
40
0
40
1
40
1
40
1
40
1
10
356.72400600000003
20
196.79381100000001
30
0
10
356.72400600000003
20
197.15420600000002
30
0
10
356.86717299999998
20
197.49984100000003
30
0
10
357.12200999999999
20
197.75467900000001
30
0
0
SPLINE
5
148
100
AcDbEntity
8
0
100
AcDbSpline
70
1064
71
3
72
8
73
4
74
0
42
0.000000001
43
0.0000000001
44
0.0000000001
40
0
40
0
40
0
40
0
40
1
40
1
40
1
40
1
10
337.70897400000001
20
88.360816
30
0
10
337.70897300000001
20
88.721210999999997
30
0
10
337.85213999999996
20
89.066845999999998
30
0
10
338.10697800000003
20
89.321684000000005
30
0
0
SPLINE
5
149
100
AcDbEntity
8
0
100
AcDbSpline
70
1064
71
3
72
8
73
4
74
0
42
0.000000001
43
0.0000000001
44
0.0000000001
40
0
40
0
40
0
40
0
40
1
40
1
40
1
40
1
10
357.12200999999999
20
197.75467900000001
30
0
10
357.37684800000005
20
198.00951699999999
30
0
10
357.72248300000001
20
198.152683
30
0
10
358.08287800000005
20
198.152683
30
0
0
SPLINE
5
150
100
AcDbEntity
8
0
100
AcDbSpline
70
1064
71
3
72
8
73
4
74
0
42
0.000000001
43
0.0000000001
44
0.0000000001
40
0
40
0
40
0
40
0
40
1
40
1
40
1
40
1
10
359.04374600000006
20
195.83294300000003
30
0
10
358.78890799999999
20
195.57810500000002
30
0
10
358.44327299999998
20
195.43493900000001
30
0
10
358.08287800000005
20
195.43493900000001
30
0
0
SPLINE
5
151
100
AcDbEntity
8
0
100
AcDbSpline
70
1064
71
3
72
8
73
4
74
0
42
0.000000001
43
0.0000000001
44
0.0000000001
40
0
40
0
40
0
40
0
40
1
40
1
40
1
40
1
10
338.10697800000003
20
89.321684000000005
30
0
10
338.36181600000003
20
89.576521000000014
30
0
10
338.70744999999999
20
89.719688000000005
30
0
10
339.06784500000009
20
89.719688000000005
30
0
0
SPLINE
5
152
100
AcDbEntity
8
0
100
AcDbSpline
70
1064
71
3
72
8
73
4
74
0
42
0.000000001
43
0.0000000001
44
0.0000000001
40
0
40
0
40
0
40
0
40
1
40
1
40
1
40
1
10
358.08287800000005
20
195.43493900000001
30
0
10
357.72248300000001
20
195.43493900000001
30
0
10
357.37684800000005
20
195.57810500000002
30
0
10
357.12200999999999
20
195.83294300000003
30
0
0
SPLINE
5
153
100
AcDbEntity
8
0
100
AcDbSpline
70
1064
71
3
72
8
73
4
74
0
42
0.000000001
43
0.0000000001
44
0.0000000001
40
0
40
0
40
0
40
0
40
1
40
1
40
1
40
1
10
340.45296400000007
20
82.560811000000015
30
0
10
340.45296400000007
20
82.200415000000007
30
0
10
340.30979800000006
20
81.854781000000003
30
0
10
340.05495999999999
20
81.59994300000001
30
0
0
SPLINE
5
154
100
AcDbEntity
8
0
100
AcDbSpline
70
1064
71
3
72
8
73
4
74
0
42
0.000000001
43
0.0000000001
44
0.0000000001
40
0
40
0
40
0
40
0
40
1
40
1
40
1
40
1
10
339.09409199999999
20
81.20193900000001
30
0
10
338.73369700000006
20
81.20193900000001
30
0
10
338.38806199999999
20
81.345105000000018
30
0
10
338.13322400000004
20
81.59994300000001
30
0
0
SPLINE
5
155
100
AcDbEntity
8
0
100
AcDbSpline
70
1064
71
3
72
8
73
4
74
0
42
0.000000001
43
0.0000000001
44
0.0000000001
40
0
40
0
40
0
40
0
40
1
40
1
40
1
40
1
10
338.13322400000004
20
83.521678000000023
30
0
10
338.38806199999999
20
83.776516000000001
30
0
10
338.73369700000006
20
83.919681999999995
30
0
10
339.09409199999999
20
83.919681999999995
30
0
0
SPLINE
5
156
100
AcDbEntity
8
0
100
AcDbSpline
70
1064
71
3
72
8
73
4
74
0
42
0.000000001
43
0.0000000001
44
0.0000000001
40
0
40
0
40
0
40
0
40
1
40
1
40
1
40
1
10
337.73522000000008
20
82.560811000000015
30
0
10
337.73522000000008
20
82.921206000000026
30
0
10
337.87838700000003
20
83.266840000000002
30
0
10
338.13322400000004
20
83.521678000000023
30
0
0
SPLINE
5
157
100
AcDbEntity
8
0
100
AcDbSpline
70
1064
71
3
72
8
73
4
74
0
42
0.000000001
43
0.0000000001
44
0.0000000001
40
0
40
0
40
0
40
0
40
1
40
1
40
1
40
1
10
339.09409199999999
20
83.919681999999995
30
0
10
339.45448700000009
20
83.919681999999995
30
0
10
339.80012200000004
20
83.776516000000001
30
0
10
340.05495999999999
20
83.521678000000023
30
0
0
SPLINE
5
158
100
AcDbEntity
8
0
100
AcDbSpline
70
1064
71
3
72
8
73
4
74
0
42
0.000000001
43
0.0000000001
44
0.0000000001
40
0
40
0
40
0
40
0
40
1
40
1
40
1
40
1
10
340.426717
20
88.360816
30
0
10
340.426717
20
88.000421000000003
30
0
10
340.28355099999999
20
87.654786000000001
30
0
10
340.02871300000004
20
87.399947999999995
30
0
0
SPLINE
5
159
100
AcDbEntity
8
0
100
AcDbSpline
70
1064
71
3
72
8
73
4
74
0
42
0.000000001
43
0.0000000001
44
0.0000000001
40
0
40
0
40
0
40
0
40
1
40
1
40
1
40
1
10
339.06784500000009
20
87.001943999999995
30
0
10
338.70744999999999
20
87.001943999999995
30
0
10
338.36181600000003
20
87.145110000000003
30
0
10
338.10697800000003
20
87.399947999999995
30
0
0
SPLINE
5
160
100
AcDbEntity
8
0
100
AcDbSpline
70
1064
71
3
72
8
73
4
74
0
42
0.000000001
43
0.0000000001
44
0.0000000001
40
0
40
0
40
0
40
0
40
1
40
1
40
1
40
1
10
340.05495999999999
20
83.521678000000023
30
0
10
340.30979800000006
20
83.266840000000002
30
0
10
340.45296400000007
20
82.921206000000026
30
0
10
340.45296400000007
20
82.560811000000015
30
0
0
SPLINE
5
161
100
AcDbEntity
8
0
100
AcDbSpline
70
1064
71
3
72
8
73
4
74
0
42
0.000000001
43
0.0000000001
44
0.0000000001
40
0
40
0
40
0
40
0
40
1
40
1
40
1
40
1
10
340.02871300000004
20
87.399947999999995
30
0
10
339.77387499999998
20
87.145110000000003
30
0
10
339.42824100000001
20
87.001943999999995
30
0
10
339.06784500000009
20
87.001943999999995
30
0
0
SPLINE
5
162
100
AcDbEntity
8
0
100
AcDbSpline
70
1064
71
3
72
8
73
4
74
0
42
0.000000001
43
0.0000000001
44
0.0000000001
40
0
40
0
40
0
40
0
40
1
40
1
40
1
40
1
10
339.06784500000009
20
89.719688000000005
30
0
10
339.42824100000001
20
89.719688000000005
30
0
10
339.77387499999998
20
89.576521000000014
30
0
10
340.02871300000004
20
89.321684000000005
30
0
0
SPLINE
5
163
100
AcDbEntity
8
0
100
AcDbSpline
70
1064
71
3
72
8
73
4
74
0
42
0.000000001
43
0.0000000001
44
0.0000000001
40
0
40
0
40
0
40
0
40
1
40
1
40
1
40
1
10
340.02871300000004
20
89.321684000000005
30
0
10
340.28355099999999
20
89.066845999999998
30
0
10
340.426717
20
88.721210999999997
30
0
10
340.426717
20
88.360816
30
0
0
SPLINE
5
164
100
AcDbEntity
8
0
100
AcDbSpline
70
1064
71
3
72
8
73
4
74
0
42
0.000000001
43
0.0000000001
44
0.0000000001
40
0
40
0
40
0
40
0
40
1
40
1
40
1
40
1
10
338.13322400000004
20
81.59994300000001
30
0
10
337.87838700000003
20
81.854781000000003
30
0
10
337.73522000000008
20
82.200415000000007
30
0
10
337.73522000000008
20
82.560811000000015
30
0
0
SPLINE
5
165
100
AcDbEntity
8
0
100
AcDbSpline
70
1064
71
3
72
8
73
4
74
0
42
0.000000001
43
0.0000000001
44
0.0000000001
40
0
40
0
40
0
40
0
40
1
40
1
40
1
40
1
10
290.452923
20
82.560781999999989
30
0
10
290.452923
20
82.200387000000021
30
0
10
290.30975699999999
20
81.854753000000002
30
0
10
290.05491899999998
20
81.59991500000001
30
0
0
SPLINE
5
166
100
AcDbEntity
8
0
100
AcDbSpline
70
1064
71
3
72
8
73
4
74
0
42
0.000000001
43
0.0000000001
44
0.0000000001
40
0
40
0
40
0
40
0
40
1
40
1
40
1
40
1
10
290.05491899999998
20
81.59991500000001
30
0
10
289.80008099999998
20
81.345077000000003
30
0
10
289.45444600000002
20
81.201909999999998
30
0
10
289.09405100000004
20
81.201910999999996
30
0
0
SPLINE
5
167
100
AcDbEntity
8
0
100
AcDbSpline
70
1064
71
3
72
8
73
4
74
0
42
0.000000001
43
0.0000000001
44
0.0000000001
40
0
40
0
40
0
40
0
40
1
40
1
40
1
40
1
10
340.05495999999999
20
81.59994300000001
30
0
10
339.80012200000004
20
81.345105000000018
30
0
10
339.45448700000009
20
81.20193900000001
30
0
10
339.09409199999999
20
81.20193900000001
30
0
0
SPLINE
5
168
100
AcDbEntity
8
0
100
AcDbSpline
70
1064
71
3
72
8
73
4
74
0
42
0.000000001
43
0.0000000001
44
0.0000000001
40
0
40
0
40
0
40
0
40
1
40
1
40
1
40
1
10
287.73517900000002
20
82.560781999999989
30
0
10
287.73517900000002
20
82.921177999999998
30
0
10
287.87834500000002
20
83.266812000000016
30
0
10
288.13318300000003
20
83.521649999999994
30
0
0
SPLINE
5
169
100
AcDbEntity
8
0
100
AcDbSpline
70
1064
71
3
72
8
73
4
74
0
42
0.000000001
43
0.0000000001
44
0.0000000001
40
0
40
0
40
0
40
0
40
1
40
1
40
1
40
1
10
357.12200999999999
20
195.83294300000003
30
0
10
356.86717299999998
20
196.08778100000001
30
0
10
356.72400600000003
20
196.43341599999999
30
0
10
356.72400600000003
20
196.79381100000001
30
0
0
SPLINE
5
170
100
AcDbEntity
8
0
100
AcDbSpline
70
1064
71
3
72
8
73
4
74
0
42
0.000000001
43
0.0000000001
44
0.0000000001
40
0
40
0
40
0
40
0
40
1
40
1
40
1
40
1
10
289.09405100000004
20
83.919654000000023
30
0
10
289.45444600000002
20
83.919654000000023
30
0
10
289.80008099999998
20
83.776488000000015
30
0
10
290.05491899999998
20
83.521649999999994
30
0
0
SPLINE
5
171
100
AcDbEntity
8
0
100
AcDbSpline
70
1064
71
3
72
8
73
4
74
0
42
0.000000001
43
0.0000000001
44
0.0000000001
40
0
40
0
40
0
40
0
40
1
40
1
40
1
40
1
10
290.05491899999998
20
83.521649999999994
30
0
10
290.30975699999999
20
83.266812000000016
30
0
10
290.452923
20
82.921177999999998
30
0
10
290.452923
20
82.560781999999989
30
0
0
SPLINE
5
172
100
AcDbEntity
8
0
100
AcDbSpline
70
1064
71
3
72
8
73
4
74
0
42
0.000000001
43
0.0000000001
44
0.0000000001
40
0
40
0
40
0
40
0
40
1
40
1
40
1
40
1
10
288.13318300000003
20
83.521649999999994
30
0
10
288.38802099999998
20
83.776488000000015
30
0
10
288.733656
20
83.919654000000023
30
0
10
289.09405100000004
20
83.919654000000023
30
0
0
SPLINE
5
173
100
AcDbEntity
8
0
100
AcDbSpline
70
1064
71
3
72
8
73
4
74
0
42
0.000000001
43
0.0000000001
44
0.0000000001
40
0
40
0
40
0
40
0
40
1
40
1
40
1
40
1
10
290.42667600000004
20
88.360788000000014
30
0
10
290.42667600000004
20
88.000392000000005
30
0
10
290.28351000000004
20
87.654758000000015
30
0
10
290.02867200000003
20
87.399919999999995
30
0
0
SPLINE
5
174
100
AcDbEntity
8
0
100
AcDbSpline
70
1064
71
3
72
8
73
4
74
0
42
0.000000001
43
0.0000000001
44
0.0000000001
40
0
40
0
40
0
40
0
40
1
40
1
40
1
40
1
10
289.09405100000004
20
81.201910999999996
30
0
10
288.733656
20
81.201909999999998
30
0
10
288.38802099999998
20
81.345077000000003
30
0
10
288.13318300000003
20
81.59991500000001
30
0
0
SPLINE
5
175
100
AcDbEntity
8
0
100
AcDbSpline
70
1064
71
3
72
8
73
4
74
0
42
0.000000001
43
0.0000000001
44
0.0000000001
40
0
40
0
40
0
40
0
40
1
40
1
40
1
40
1
10
290.02867200000003
20
87.399919999999995
30
0
10
289.77383399999997
20
87.145081999999988
30
0
10
289.4282
20
87.001916000000023
30
0
10
289.06780400000002
20
87.001916000000023
30
0
0
SPLINE
5
176
100
AcDbEntity
8
0
100
AcDbSpline
70
1064
71
3
72
8
73
4
74
0
42
0.000000001
43
0.0000000001
44
0.0000000001
40
0
40
0
40
0
40
0
40
1
40
1
40
1
40
1
10
352.23190299999999
20
100.61095400000001
30
0
10
352.23190899999997
20
100.064881
30
0
10
352.01498700000002
20
99.541172000000003
30
0
10
351.62885799999998
20
99.155038000000019
30
0
0
SPLINE
5
177
100
AcDbEntity
8
0
100
AcDbSpline
70
1064
71
3
72
8
73
4
74
0
42
0.000000001
43
0.0000000001
44
0.0000000001
40
0
40
0
40
0
40
0
40
1
40
1
40
1
40
1
10
290.02867200000003
20
89.321655000000021
30
0
10
290.28351000000004
20
89.066817
30
0
10
290.42667600000004
20
88.721182999999996
30
0
10
290.42667600000004
20
88.360788000000014
30
0
0
SPLINE
5
178
100
AcDbEntity
8
0
100
AcDbSpline
70
1064
71
3
72
8
73
4
74
0
42
0.000000001
43
0.0000000001
44
0.0000000001
40
0
40
0
40
0
40
0
40
1
40
1
40
1
40
1
10
288.10693700000002
20
89.321655000000021
30
0
10
288.36177500000008
20
89.576492999999999
30
0
10
288.70740899999998
20
89.719660000000005
30
0
10
289.06780400000002
20
89.719658999999993
30
0
0
SPLINE
5
179
100
AcDbEntity
8
0
100
AcDbSpline
70
1064
71
3
72
8
73
4
74
0
42
0.000000001
43
0.0000000001
44
0.0000000001
40
0
40
0
40
0
40
0
40
1
40
1
40
1
40
1
10
288.10693700000002
20
87.399919999999995
30
0
10
287.85209900000001
20
87.654758000000015
30
0
10
287.708932
20
88.000392000000005
30
0
10
287.708933
20
88.360788000000014
30
0
0
SPLINE
5
180
100
AcDbEntity
8
0
100
AcDbSpline
70
1064
71
3
72
8
73
4
74
0
42
0.000000001
43
0.0000000001
44
0.0000000001
40
0
40
0
40
0
40
0
40
1
40
1
40
1
40
1
10
287.708933
20
88.360788000000014
30
0
10
287.708932
20
88.721182999999996
30
0
10
287.85209900000001
20
89.066817
30
0
10
288.10693700000002
20
89.321655000000021
30
0
0
SPLINE
5
181
100
AcDbEntity
8
0
100
AcDbSpline
70
1064
71
3
72
8
73
4
74
0
42
0.000000001
43
0.0000000001
44
0.0000000001
40
0
40
0
40
0
40
0
40
1
40
1
40
1
40
1
10
289.06780400000002
20
87.001916000000023
30
0
10
288.70740899999998
20
87.001916000000023
30
0
10
288.36177500000008
20
87.145081999999988
30
0
10
288.10693700000002
20
87.399919999999995
30
0
0
SPLINE
5
182
100
AcDbEntity
8
0
100
AcDbSpline
70
1064
71
3
72
8
73
4
74
0
42
0.000000001
43
0.0000000001
44
0.0000000001
40
0
40
0
40
0
40
0
40
1
40
1
40
1
40
1
10
289.06780400000002
20
89.719658999999993
30
0
10
289.4282
20
89.719660000000005
30
0
10
289.77383399999997
20
89.576492999999999
30
0
10
290.02867200000003
20
89.321655000000021
30
0
0
SPLINE
5
183
100
AcDbEntity
8
0
100
AcDbSpline
70
1064
71
3
72
8
73
4
74
0
42
0.000000001
43
0.0000000001
44
0.0000000001
40
0
40
0
40
0
40
0
40
1
40
1
40
1
40
1
10
348.71704399999999
20
99.155038000000019
30
0
10
348.330915
20
99.541172000000003
30
0
10
348.11399299999999
20
100.064881
30
0
10
348.11399900000004
20
100.61095400000001
30
0
0
SPLINE
5
184
100
AcDbEntity
8
0
100
AcDbSpline
70
1064
71
3
72
8
73
4
74
0
42
0.000000001
43
0.0000000001
44
0.0000000001
40
0
40
0
40
0
40
0
40
1
40
1
40
1
40
1
10
351.62885799999998
20
99.155038000000019
30
0
10
351.242729
20
98.768904000000006
30
0
10
350.71902400000005
20
98.551975000000013
30
0
10
350.17295100000001
20
98.551973000000004
30
0
0
SPLINE
5
185
100
AcDbEntity
8
0
100
AcDbSpline
70
1064
71
3
72
8
73
4
74
0
42
0.000000001
43
0.0000000001
44
0.0000000001
40
0
40
0
40
0
40
0
40
1
40
1
40
1
40
1
10
348.11399900000004
20
100.61095400000001
30
0
10
348.11400299999997
20
101.74808
30
0
10
349.03582499999999
20
102.66990200000002
30
0
10
350.17295100000001
20
102.66990600000001
30
0
0
SPLINE
5
186
100
AcDbEntity
8
0
100
AcDbSpline
70
1064
71
3
72
8
73
4
74
0
42
0.000000001
43
0.0000000001
44
0.0000000001
40
0
40
0
40
0
40
0
40
1
40
1
40
1
40
1
10
350.17295100000001
20
102.66990600000001
30
0
10
351.31007799999998
20
102.66990200000002
30
0
10
352.2319
20
101.74808
30
0
10
352.23190299999999
20
100.61095400000001
30
0
0
SPLINE
5
187
100
AcDbEntity
8
0
100
AcDbSpline
70
1064
71
3
72
8
73
4
74
0
42
0.000000001
43
0.0000000001
44
0.0000000001
40
0
40
0
40
0
40
0
40
1
40
1
40
1
40
1
10
322.13191600000005
20
100.61095400000001
30
0
10
322.13192100000003
20
100.064876
30
0
10
321.91499599999997
20
99.541163000000012
30
0
10
321.52886100000001
20
99.155028000000001
30
0
0
SPLINE
5
188
100
AcDbEntity
8
0
100
AcDbSpline
70
1064
71
3
72
8
73
4
74
0
42
0.000000001
43
0.0000000001
44
0.0000000001
40
0
40
0
40
0
40
0
40
1
40
1
40
1
40
1
10
350.17295100000001
20
98.551973000000004
30
0
10
349.62687900000003
20
98.551975000000013
30
0
10
349.10317299999997
20
98.768904000000006
30
0
10
348.71704399999999
20
99.155038000000019
30
0
0
SPLINE
5
189
100
AcDbEntity
8
0
100
AcDbSpline
70
1064
71
3
72
8
73
4
74
0
42
0.000000001
43
0.0000000001
44
0.0000000001
40
0
40
0
40
0
40
0
40
1
40
1
40
1
40
1
10
320.07293500000003
20
98.551973000000004
30
0
10
319.52686299999999
20
98.551975000000013
30
0
10
319.00315699999999
20
98.768904000000006
30
0
10
318.617028
20
99.155038000000019
30
0
0
SPLINE
5
190
100
AcDbEntity
8
0
100
AcDbSpline
70
1064
71
3
72
8
73
4
74
0
42
0.000000001
43
0.0000000001
44
0.0000000001
40
0
40
0
40
0
40
0
40
1
40
1
40
1
40
1
10
318.01398300000005
20
100.61095400000001
30
0
10
318.01398699999999
20
101.74808
30
0
10
318.93580900000006
20
102.66990200000002
30
0
10
320.07293500000003
20
102.66990600000001
30
0
0
SPLINE
5
191
100
AcDbEntity
8
0
100
AcDbSpline
70
1064
71
3
72
8
73
4
74
0
42
0.000000001
43
0.0000000001
44
0.0000000001
40
0
40
0
40
0
40
0
40
1
40
1
40
1
40
1
10
321.52886100000001
20
99.155028000000001
30
0
10
321.14272599999998
20
98.76889300000002
30
0
10
320.619013
20
98.551968000000016
30
0
10
320.07293500000003
20
98.551973000000004
30
0
0
SPLINE
5
192
100
AcDbEntity
8
0
100
AcDbSpline
70
1064
71
3
72
8
73
4
74
0
42
0.000000001
43
0.0000000001
44
0.0000000001
40
0
40
0
40
0
40
0
40
1
40
1
40
1
40
1
10
318.617028
20
99.155038000000019
30
0
10
318.23089900000002
20
99.541172000000003
30
0
10
318.01397700000001
20
100.064881
30
0
10
318.01398300000005
20
100.61095400000001
30
0
0
SPLINE
5
193
100
AcDbEntity
8
0
100
AcDbSpline
70
1064
71
3
72
8
73
4
74
0
42
0.000000001
43
0.0000000001
44
0.0000000001
40
0
40
0
40
0
40
0
40
1
40
1
40
1
40
1
10
269.67190399999998
20
93.660949000000002
30
0
10
269.67190099999999
20
92.523820999999998
30
0
10
268.75007499999998
20
91.601997999999995
30
0
10
267.61294600000002
20
91.601996999999997
30
0
0
SPLINE
5
194
100
AcDbEntity
8
0
100
AcDbSpline
70
1064
71
3
72
8
73
4
74
0
42
0.000000001
43
0.0000000001
44
0.0000000001
40
0
40
0
40
0
40
0
40
1
40
1
40
1
40
1
10
265.55398600000001
20
93.660949000000002
30
0
10
265.55399
20
94.798079000000001
30
0
10
266.47581700000001
20
95.719902000000005
30
0
10
267.61294600000002
20
95.719901000000007
30
0
0
SPLINE
5
195
100
AcDbEntity
8
0
100
AcDbSpline
70
1064
71
3
72
8
73
4
74
0
42
0.000000001
43
0.0000000001
44
0.0000000001
40
0
40
0
40
0
40
0
40
1
40
1
40
1
40
1
10
239.67189399999998
20
93.660949000000002
30
0
10
239.67189000000002
20
92.523820000000001
30
0
10
238.75006299999998
20
91.601996
30
0
10
237.61293300000003
20
91.601996999999997
30
0
0
SPLINE
5
196
100
AcDbEntity
8
0
100
AcDbSpline
70
1064
71
3
72
8
73
4
74
0
42
0.000000001
43
0.0000000001
44
0.0000000001
40
0
40
0
40
0
40
0
40
1
40
1
40
1
40
1
10
321.52885099999997
20
102.066861
30
0
10
321.914985
20
101.68073200000001
30
0
10
322.13191399999999
20
101.157026
30
0
10
322.13191600000005
20
100.61095400000001
30
0
0
SPLINE
5
197
100
AcDbEntity
8
0
100
AcDbSpline
70
1064
71
3
72
8
73
4
74
0
42
0.000000001
43
0.0000000001
44
0.0000000001
40
0
40
0
40
0
40
0
40
1
40
1
40
1
40
1
10
320.07293500000003
20
102.66990600000001
30
0
10
320.61900800000001
20
102.669912
30
0
10
321.14271600000001
20
102.45299000000001
30
0
10
321.52885099999997
20
102.066861
30
0
0
SPLINE
5
198
100
AcDbEntity
8
0
100
AcDbSpline
70
1064
71
3
72
8
73
4
74
0
42
0.000000001
43
0.0000000001
44
0.0000000001
40
0
40
0
40
0
40
0
40
1
40
1
40
1
40
1
10
267.61294600000002
20
91.601996999999997
30
0
10
266.47581700000001
20
91.601996
30
0
10
265.55399
20
92.523820000000001
30
0
10
265.55398600000001
20
93.660949000000002
30
0
0
LINE
5
199
100
AcDbEntity
8
0
100
AcDbLine
10
217.07886800000006
20
496.71303399999999
30
0
11
217.07886800000006
21
486.71303499999999
31
0
0
SPLINE
5
200
100
AcDbEntity
8
0
100
AcDbSpline
70
1064
71
3
72
8
73
4
74
0
42
0.000000001
43
0.0000000001
44
0.0000000001
40
0
40
0
40
0
40
0
40
1
40
1
40
1
40
1
10
152.52916100000002
20
500.15528200000006
30
0
10
152.14301899999998
20
499.76914000000011
30
0
10
151.61929699999999
20
499.55220700000007
30
0
10
151.07320799999999
20
499.55220700000007
30
0
0
SPLINE
5
201
100
AcDbEntity
8
0
100
AcDbSpline
70
1064
71
3
72
8
73
4
74
0
42
0.000000001
43
0.0000000001
44
0.0000000001
40
0
40
0
40
0
40
0
40
1
40
1
40
1
40
1
10
354.84409599999998
20
426.14198499999998
30
0
10
354.483701
20
426.14198499999998
30
0
10
354.13806600000009
20
426.28515100000004
30
0
10
353.88322799999997
20
426.53998900000005
30
0
0
SPLINE
5
202
100
AcDbEntity
8
0
100
AcDbSpline
70
1064
71
3
72
8
73
4
74
0
42
0.000000001
43
0.0000000001
44
0.0000000001
40
0
40
0
40
0
40
0
40
1
40
1
40
1
40
1
10
149.617255
20
500.15528200000006
30
0
10
149.23111200000002
20
500.54142500000006
30
0
10
149.01418000000001
20
501.06514699999997
30
0
10
149.01418000000001
20
501.61123500000002
30
0
0
SPLINE
5
203
100
AcDbEntity
8
0
100
AcDbSpline
70
1064
71
3
72
8
73
4
74
0
42
0.000000001
43
0.0000000001
44
0.0000000001
40
0
40
0
40
0
40
0
40
1
40
1
40
1
40
1
10
353.458977
20
433.30086200000005
30
0
10
353.458977
20
433.66125700000003
30
0
10
353.60214400000007
20
434.00689199999999
30
0
10
353.85698200000002
20
434.26173000000006
30
0
0
SPLINE
5
204
100
AcDbEntity
8
0
100
AcDbSpline
70
1064
71
3
72
8
73
4
74
0
42
0.000000001
43
0.0000000001
44
0.0000000001
40
0
40
0
40
0
40
0
40
1
40
1
40
1
40
1
10
354.81784900000002
20
431.94199000000003
30
0
10
354.45745399999998
20
431.94199000000003
30
0
10
354.11182000000002
20
432.08515599999998
30
0
10
353.85698200000002
20
432.3399940000001
30
0
0
SPLINE
5
205
100
AcDbEntity
8
0
100
AcDbSpline
70
1064
71
3
72
8
73
4
74
0
42
0.000000001
43
0.0000000001
44
0.0000000001
40
0
40
0
40
0
40
0
40
1
40
1
40
1
40
1
10
353.85698200000002
20
434.26173000000006
30
0
10
354.11182000000002
20
434.51656799999995
30
0
10
354.45745399999998
20
434.65973399999996
30
0
10
354.81784900000002
20
434.65973399999996
30
0
0
SPLINE
5
206
100
AcDbEntity
8
0
100
AcDbSpline
70
1064
71
3
72
8
73
4
74
0
42
0.000000001
43
0.0000000001
44
0.0000000001
40
0
40
0
40
0
40
0
40
1
40
1
40
1
40
1
10
361.17671100000001
20
438.67886300000004
30
0
10
361.17671100000001
20
438.318468
30
0
10
361.033545
20
437.97283399999998
30
0
10
360.778707
20
437.71799600000003
30
0
0
SPLINE
5
207
100
AcDbEntity
8
0
100
AcDbSpline
70
1064
71
3
72
8
73
4
74
0
42
0.000000001
43
0.0000000001
44
0.0000000001
40
0
40
0
40
0
40
0
40
1
40
1
40
1
40
1
10
355.77871699999997
20
434.26173000000006
30
0
10
356.03355499999998
20
434.00689199999999
30
0
10
356.17672099999999
20
433.66125700000003
30
0
10
356.17672099999999
20
433.30086200000005
30
0
0
SPLINE
5
208
100
AcDbEntity
8
0
100
AcDbSpline
70
1064
71
3
72
8
73
4
74
0
42
0.000000001
43
0.0000000001
44
0.0000000001
40
0
40
0
40
0
40
0
40
1
40
1
40
1
40
1
10
355.8049640000001
20
428.461724
30
0
10
356.05980100000005
20
428.20688600000011
30
0
10
356.202968
20
427.86125200000004
30
0
10
356.202968
20
427.50085700000005
30
0
0
SPLINE
5
209
100
AcDbEntity
8
0
100
AcDbSpline
70
1064
71
3
72
8
73
4
74
0
42
0.000000001
43
0.0000000001
44
0.0000000001
40
0
40
0
40
0
40
0
40
1
40
1
40
1
40
1
10
149.01418000000001
20
501.61123500000002
30
0
10
149.01418000000001
20
502.15732400000007
30
0
10
149.23111200000002
20
502.68104600000004
30
0
10
149.617255
20
503.06718799999999
30
0
0
SPLINE
5
210
100
AcDbEntity
8
0
100
AcDbSpline
70
1064
71
3
72
8
73
4
74
0
42
0.000000001
43
0.0000000001
44
0.0000000001
40
0
40
0
40
0
40
0
40
1
40
1
40
1
40
1
10
360.778707
20
437.71799600000003
30
0
10
360.52386899999999
20
437.46315800000002
30
0
10
360.17823399999997
20
437.31999100000002
30
0
10
359.81783900000005
20
437.31999200000007
30
0
0
SPLINE
5
211
100
AcDbEntity
8
0
100
AcDbSpline
70
1064
71
3
72
8
73
4
74
0
42
0.000000001
43
0.0000000001
44
0.0000000001
40
0
40
0
40
0
40
0
40
1
40
1
40
1
40
1
10
179.71724300000002
20
503.06718799999999
30
0
10
180.103386
20
503.45333099999999
30
0
10
180.62710800000002
20
503.67026399999997
30
0
10
181.17319599999999
20
503.67026399999997
30
0
0
SPLINE
5
212
100
AcDbEntity
8
0
100
AcDbSpline
70
1064
71
3
72
8
73
4
74
0
42
0.000000001
43
0.0000000001
44
0.0000000001
40
0
40
0
40
0
40
0
40
1
40
1
40
1
40
1
10
179.71724300000002
20
500.15528200000006
30
0
10
179.33109999999999
20
500.54142500000006
30
0
10
179.11416800000001
20
501.06514699999997
30
0
10
179.11416800000001
20
501.61123500000002
30
0
0
SPLINE
5
213
100
AcDbEntity
8
0
100
AcDbSpline
70
1064
71
3
72
8
73
4
74
0
42
0.000000001
43
0.0000000001
44
0.0000000001
40
0
40
0
40
0
40
0
40
1
40
1
40
1
40
1
10
359.81783900000005
20
437.31999200000007
30
0
10
359.45744400000001
20
437.31999100000002
30
0
10
359.11180999999999
20
437.46315800000002
30
0
10
358.85697200000004
20
437.71799600000003
30
0
0
SPLINE
5
214
100
AcDbEntity
8
0
100
AcDbSpline
70
1064
71
3
72
8
73
4
74
0
42
0.000000001
43
0.0000000001
44
0.0000000001
40
0
40
0
40
0
40
0
40
1
40
1
40
1
40
1
10
358.85697200000004
20
437.71799600000003
30
0
10
358.60213399999998
20
437.97283399999998
30
0
10
358.45896699999997
20
438.318468
30
0
10
358.45896699999997
20
438.67886300000004
30
0
0
SPLINE
5
215
100
AcDbEntity
8
0
100
AcDbSpline
70
1064
71
3
72
8
73
4
74
0
42
0.000000001
43
0.0000000001
44
0.0000000001
40
0
40
0
40
0
40
0
40
1
40
1
40
1
40
1
10
181.17319599999999
20
503.67026399999997
30
0
10
181.71928400000002
20
503.67026399999997
30
0
10
182.24300600000004
20
503.45333099999999
30
0
10
182.62914900000001
20
503.06718799999999
30
0
0
SPLINE
5
216
100
AcDbEntity
8
0
100
AcDbSpline
70
1064
71
3
72
8
73
4
74
0
42
0.000000001
43
0.0000000001
44
0.0000000001
40
0
40
0
40
0
40
0
40
1
40
1
40
1
40
1
10
151.07320799999999
20
499.55220700000007
30
0
10
150.52712
20
499.55220700000007
30
0
10
150.003398
20
499.76914000000011
30
0
10
149.617255
20
500.15528200000006
30
0
0
SPLINE
5
217
100
AcDbEntity
8
0
100
AcDbSpline
70
1064
71
3
72
8
73
4
74
0
42
0.000000001
43
0.0000000001
44
0.0000000001
40
0
40
0
40
0
40
0
40
1
40
1
40
1
40
1
10
355.8049640000001
20
426.53998900000005
30
0
10
355.55012599999998
20
426.28515100000004
30
0
10
355.20449100000002
20
426.14198499999998
30
0
10
354.84409599999998
20
426.14198499999998
30
0
0
SPLINE
5
218
100
AcDbEntity
8
0
100
AcDbSpline
70
1064
71
3
72
8
73
4
74
0
42
0.000000001
43
0.0000000001
44
0.0000000001
40
0
40
0
40
0
40
0
40
1
40
1
40
1
40
1
10
355.77871699999997
20
432.3399940000001
30
0
10
355.52387900000008
20
432.08515599999998
30
0
10
355.17824400000001
20
431.94199000000003
30
0
10
354.81784900000002
20
431.94199000000003
30
0
0
LINE
5
219
100
AcDbEntity
8
0
100
AcDbLine
10
217.07886800000006
20
486.71303499999999
30
0
11
217.07886800000006
21
496.71303399999999
31
0
0
SPLINE
5
220
100
AcDbEntity
8
0
100
AcDbSpline
70
1064
71
3
72
8
73
4
74
0
42
0.000000001
43
0.0000000001
44
0.0000000001
40
0
40
0
40
0
40
0
40
1
40
1
40
1
40
1
10
353.85698200000002
20
432.3399940000001
30
0
10
353.60214400000007
20
432.59483200000005
30
0
10
353.458977
20
432.94046700000001
30
0
10
353.458977
20
433.30086200000005
30
0
0
SPLINE
5
221
100
AcDbEntity
8
0
100
AcDbSpline
70
1064
71
3
72
8
73
4
74
0
42
0.000000001
43
0.0000000001
44
0.0000000001
40
0
40
0
40
0
40
0
40
1
40
1
40
1
40
1
10
356.17672099999999
20
433.30086200000005
30
0
10
356.17672099999999
20
432.94046700000001
30
0
10
356.03355499999998
20
432.59483200000005
30
0
10
355.77871699999997
20
432.3399940000001
30
0
0
SPLINE
5
222
100
AcDbEntity
8
0
100
AcDbSpline
70
1064
71
3
72
8
73
4
74
0
42
0.000000001
43
0.0000000001
44
0.0000000001
40
0
40
0
40
0
40
0
40
1
40
1
40
1
40
1
10
353.88322799999997
20
426.53998900000005
30
0
10
353.62839000000002
20
426.79482699999994
30
0
10
353.48522400000002
20
427.14046100000007
30
0
10
353.48522400000002
20
427.50085700000005
30
0
0
SPLINE
5
223
100
AcDbEntity
8
0
100
AcDbSpline
70
1064
71
3
72
8
73
4
74
0
42
0.000000001
43
0.0000000001
44
0.0000000001
40
0
40
0
40
0
40
0
40
1
40
1
40
1
40
1
10
153.13223700000003
20
501.61123500000002
30
0
10
153.13223700000003
20
501.06514699999997
30
0
10
152.91530399999999
20
500.54142500000006
30
0
10
152.52916100000002
20
500.15528200000006
30
0
0
SPLINE
5
224
100
AcDbEntity
8
0
100
AcDbSpline
70
1064
71
3
72
8
73
4
74
0
42
0.000000001
43
0.0000000001
44
0.0000000001
40
0
40
0
40
0
40
0
40
1
40
1
40
1
40
1
10
356.202968
20
427.50085700000005
30
0
10
356.202968
20
427.14046100000007
30
0
10
356.05980100000005
20
426.79482699999994
30
0
10
355.8049640000001
20
426.53998900000005
30
0
0
SPLINE
5
225
100
AcDbEntity
8
0
100
AcDbSpline
70
1064
71
3
72
8
73
4
74
0
42
0.000000001
43
0.0000000001
44
0.0000000001
40
0
40
0
40
0
40
0
40
1
40
1
40
1
40
1
10
354.84409599999998
20
428.85972800000002
30
0
10
355.20449100000002
20
428.85972900000007
30
0
10
355.55012599999998
20
428.71656200000007
30
0
10
355.8049640000001
20
428.461724
30
0
0
SPLINE
5
226
100
AcDbEntity
8
0
100
AcDbSpline
70
1064
71
3
72
8
73
4
74
0
42
0.000000001
43
0.0000000001
44
0.0000000001
40
0
40
0
40
0
40
0
40
1
40
1
40
1
40
1
10
181.17319599999999
20
499.55220700000007
30
0
10
180.62710800000002
20
499.55220700000007
30
0
10
180.103386
20
499.76914000000011
30
0
10
179.71724300000002
20
500.15528200000006
30
0
0
SPLINE
5
227
100
AcDbEntity
8
0
100
AcDbSpline
70
1064
71
3
72
8
73
4
74
0
42
0.000000001
43
0.0000000001
44
0.0000000001
40
0
40
0
40
0
40
0
40
1
40
1
40
1
40
1
10
149.617255
20
503.06718799999999
30
0
10
150.003398
20
503.45333099999999
30
0
10
150.52712
20
503.67026399999997
30
0
10
151.07320799999999
20
503.67026399999997
30
0
0
SPLINE
5
228
100
AcDbEntity
8
0
100
AcDbSpline
70
1064
71
3
72
8
73
4
74
0
42
0.000000001
43
0.0000000001
44
0.0000000001
40
0
40
0
40
0
40
0
40
1
40
1
40
1
40
1
10
152.52916100000002
20
503.06718799999999
30
0
10
152.91530399999999
20
502.68104600000004
30
0
10
153.13223700000003
20
502.15732400000007
30
0
10
153.13223700000003
20
501.61123500000002
30
0
0
SPLINE
5
229
100
AcDbEntity
8
0
100
AcDbSpline
70
1064
71
3
72
8
73
4
74
0
42
0.000000001
43
0.0000000001
44
0.0000000001
40
0
40
0
40
0
40
0
40
1
40
1
40
1
40
1
10
353.88322799999997
20
428.461724
30
0
10
354.13806600000009
20
428.71656200000007
30
0
10
354.483701
20
428.85972900000007
30
0
10
354.84409599999998
20
428.85972800000002
30
0
0
SPLINE
5
230
100
AcDbEntity
8
0
100
AcDbSpline
70
1064
71
3
72
8
73
4
74
0
42
0.000000001
43
0.0000000001
44
0.0000000001
40
0
40
0
40
0
40
0
40
1
40
1
40
1
40
1
10
354.81784900000002
20
434.65973399999996
30
0
10
355.17824400000001
20
434.65973399999996
30
0
10
355.52387900000008
20
434.51656799999995
30
0
10
355.77871699999997
20
434.26173000000006
30
0
0
SPLINE
5
231
100
AcDbEntity
8
0
100
AcDbSpline
70
1064
71
3
72
8
73
4
74
0
42
0.000000001
43
0.0000000001
44
0.0000000001
40
0
40
0
40
0
40
0
40
1
40
1
40
1
40
1
10
182.62914900000001
20
503.06718799999999
30
0
10
183.01529200000002
20
502.68104600000004
30
0
10
183.232225
20
502.15732400000007
30
0
10
183.232225
20
501.61123500000002
30
0
0
SPLINE
5
232
100
AcDbEntity
8
0
100
AcDbSpline
70
1064
71
3
72
8
73
4
74
0
42
0.000000001
43
0.0000000001
44
0.0000000001
40
0
40
0
40
0
40
0
40
1
40
1
40
1
40
1
10
151.07320799999999
20
503.67026399999997
30
0
10
151.61929699999999
20
503.67026399999997
30
0
10
152.14301899999998
20
503.45333099999999
30
0
10
152.52916100000002
20
503.06718799999999
30
0
0
SPLINE
5
233
100
AcDbEntity
8
0
100
AcDbSpline
70
1064
71
3
72
8
73
4
74
0
42
0.000000001
43
0.0000000001
44
0.0000000001
40
0
40
0
40
0
40
0
40
1
40
1
40
1
40
1
10
353.48522400000002
20
427.50085700000005
30
0
10
353.48522400000002
20
427.86125200000004
30
0
10
353.62839000000002
20
428.20688600000011
30
0
10
353.88322799999997
20
428.461724
30
0
0
SPLINE
5
234
100
AcDbEntity
8
0
100
AcDbSpline
70
1064
71
3
72
8
73
4
74
0
42
0.000000001
43
0.0000000001
44
0.0000000001
40
0
40
0
40
0
40
0
40
1
40
1
40
1
40
1
10
179.11416800000001
20
501.61123500000002
30
0
10
179.11416800000001
20
502.15732400000007
30
0
10
179.33109999999999
20
502.68104600000004
30
0
10
179.71724300000002
20
503.06718799999999
30
0
0
SPLINE
5
235
100
AcDbEntity
8
0
100
AcDbSpline
70
1064
71
3
72
8
73
4
74
0
42
0.000000001
43
0.0000000001
44
0.0000000001
40
0
40
0
40
0
40
0
40
1
40
1
40
1
40
1
10
359.81783900000005
20
440.03773200000006
30
0
10
360.56832200000002
20
440.03773300000006
30
0
10
361.17671000000001
20
439.42934699999995
30
0
10
361.17671100000001
20
438.67886300000004
30
0
0
SPLINE
5
236
100
AcDbEntity
8
0
100
AcDbSpline
70
1064
71
3
72
8
73
4
74
0
42
0.000000001
43
0.0000000001
44
0.0000000001
40
0
40
0
40
0
40
0
40
1
40
1
40
1
40
1
10
361.17671100000001
20
447.27885500000002
30
0
10
361.17671100000001
20
446.91845900000004
30
0
10
361.033545
20
446.57282500000008
30
0
10
360.778707
20
446.31798700000002
30
0
0
SPLINE
5
237
100
AcDbEntity
8
0
100
AcDbSpline
70
1064
71
3
72
8
73
4
74
0
42
0.000000001
43
0.0000000001
44
0.0000000001
40
0
40
0
40
0
40
0
40
1
40
1
40
1
40
1
10
358.85697200000004
20
446.31798700000002
30
0
10
358.60213399999998
20
446.57282500000008
30
0
10
358.45896699999997
20
446.91845900000004
30
0
10
358.45896699999997
20
447.27885500000002
30
0
0
SPLINE
5
238
100
AcDbEntity
8
0
100
AcDbSpline
70
1064
71
3
72
8
73
4
74
0
42
0.000000001
43
0.0000000001
44
0.0000000001
40
0
40
0
40
0
40
0
40
1
40
1
40
1
40
1
10
358.45896699999997
20
438.67886300000004
30
0
10
358.45896900000002
20
439.42934699999995
30
0
10
359.06735600000002
20
440.03773300000006
30
0
10
359.81783900000005
20
440.03773200000006
30
0
0
SPLINE
5
239
100
AcDbEntity
8
0
100
AcDbSpline
70
1064
71
3
72
8
73
4
74
0
42
0.000000001
43
0.0000000001
44
0.0000000001
40
0
40
0
40
0
40
0
40
1
40
1
40
1
40
1
10
359.81783900000005
20
445.919983
30
0
10
359.45744400000001
20
445.919983
30
0
10
359.11180999999999
20
446.06314900000001
30
0
10
358.85697200000004
20
446.31798700000002
30
0
0
SPLINE
5
240
100
AcDbEntity
8
0
100
AcDbSpline
70
1064
71
3
72
8
73
4
74
0
42
0.000000001
43
0.0000000001
44
0.0000000001
40
0
40
0
40
0
40
0
40
1
40
1
40
1
40
1
10
360.778707
20
446.31798700000002
30
0
10
360.52386899999999
20
446.06314900000001
30
0
10
360.17823399999997
20
445.919983
30
0
10
359.81783900000005
20
445.919983
30
0
0
SPLINE
5
241
100
AcDbEntity
8
0
100
AcDbSpline
70
1064
71
3
72
8
73
4
74
0
42
0.000000001
43
0.0000000001
44
0.0000000001
40
0
40
0
40
0
40
0
40
1
40
1
40
1
40
1
10
358.45896699999997
20
447.27885500000002
30
0
10
358.45896699999997
20
447.63925
30
0
10
358.60213399999998
20
447.98488399999997
30
0
10
358.85697200000004
20
448.23972200000003
30
0
0
SPLINE
5
242
100
AcDbEntity
8
0
100
AcDbSpline
70
1064
71
3
72
8
73
4
74
0
42
0.000000001
43
0.0000000001
44
0.0000000001
40
0
40
0
40
0
40
0
40
1
40
1
40
1
40
1
10
358.85697200000004
20
448.23972200000003
30
0
10
359.11180999999999
20
448.49456000000004
30
0
10
359.45744400000001
20
448.63772699999998
30
0
10
359.81783900000005
20
448.63772600000004
30
0
0
SPLINE
5
243
100
AcDbEntity
8
0
100
AcDbSpline
70
1064
71
3
72
8
73
4
74
0
42
0.000000001
43
0.0000000001
44
0.0000000001
40
0
40
0
40
0
40
0
40
1
40
1
40
1
40
1
10
360.778707
20
448.23972200000003
30
0
10
361.033545
20
447.98488399999997
30
0
10
361.17671100000001
20
447.63925
30
0
10
361.17671100000001
20
447.27885500000002
30
0
0
SPLINE
5
244
100
AcDbEntity
8
0
100
AcDbSpline
70
1064
71
3
72
8
73
4
74
0
42
0.000000001
43
0.0000000001
44
0.0000000001
40
0
40
0
40
0
40
0
40
1
40
1
40
1
40
1
10
275.864915
20
426.53998900000005
30
0
10
275.61007699999999
20
426.28515100000004
30
0
10
275.26444300000003
20
426.14198499999998
30
0
10
274.90404700000005
20
426.14198499999998
30
0
0
SPLINE
5
245
100
AcDbEntity
8
0
100
AcDbSpline
70
1064
71
3
72
8
73
4
74
0
42
0.000000001
43
0.0000000001
44
0.0000000001
40
0
40
0
40
0
40
0
40
1
40
1
40
1
40
1
10
276.26291900000001
20
427.50085700000005
30
0
10
276.26291900000001
20
427.14046100000007
30
0
10
276.119753
20
426.79482699999994
30
0
10
275.864915
20
426.53998900000005
30
0
0
SPLINE
5
246
100
AcDbEntity
8
0
100
AcDbSpline
70
1064
71
3
72
8
73
4
74
0
42
0.000000001
43
0.0000000001
44
0.0000000001
40
0
40
0
40
0
40
0
40
1
40
1
40
1
40
1
10
359.81783900000005
20
448.63772600000004
30
0
10
360.17823399999997
20
448.63772699999998
30
0
10
360.52386899999999
20
448.49456000000004
30
0
10
360.778707
20
448.23972200000003
30
0
0
SPLINE
5
247
100
AcDbEntity
8
0
100
AcDbSpline
70
1064
71
3
72
8
73
4
74
0
42
0.000000001
43
0.0000000001
44
0.0000000001
40
0
40
0
40
0
40
0
40
1
40
1
40
1
40
1
10
274.90404700000005
20
426.14198499999998
30
0
10
274.54365200000001
20
426.14198499999998
30
0
10
274.19801800000005
20
426.28515100000004
30
0
10
273.94317999999998
20
426.53998900000005
30
0
0
SPLINE
5
248
100
AcDbEntity
8
0
100
AcDbSpline
70
1064
71
3
72
8
73
4
74
0
42
0.000000001
43
0.0000000001
44
0.0000000001
40
0
40
0
40
0
40
0
40
1
40
1
40
1
40
1
10
273.54517599999997
20
427.50085700000005
30
0
10
273.54517599999997
20
427.86125200000004
30
0
10
273.68834199999998
20
428.20688600000011
30
0
10
273.94317999999998
20
428.461724
30
0
0
SPLINE
5
249
100
AcDbEntity
8
0
100
AcDbSpline
70
1064
71
3
72
8
73
4
74
0
42
0.000000001
43
0.0000000001
44
0.0000000001
40
0
40
0
40
0
40
0
40
1
40
1
40
1
40
1
10
273.94317999999998
20
426.53998900000005
30
0
10
273.68834199999998
20
426.79482699999994
30
0
10
273.54517599999997
20
427.14046100000007
30
0
10
273.54517599999997
20
427.50085700000005
30
0
0
SPLINE
5
250
100
AcDbEntity
8
0
100
AcDbSpline
70
1064
71
3
72
8
73
4
74
0
42
0.000000001
43
0.0000000001
44
0.0000000001
40
0
40
0
40
0
40
0
40
1
40
1
40
1
40
1
10
273.94317999999998
20
428.461724
30
0
10
274.19801800000005
20
428.71656200000007
30
0
10
274.54365200000001
20
428.85972900000007
30
0
10
274.90404700000005
20
428.85972800000002
30
0
0
SPLINE
5
251
100
AcDbEntity
8
0
100
AcDbSpline
70
1064
71
3
72
8
73
4
74
0
42
0.000000001
43
0.0000000001
44
0.0000000001
40
0
40
0
40
0
40
0
40
1
40
1
40
1
40
1
10
274.90404700000005
20
428.85972800000002
30
0
10
275.26444300000003
20
428.85972900000007
30
0
10
275.61007699999999
20
428.71656200000007
30
0
10
275.864915
20
428.461724
30
0
0
SPLINE
5
252
100
AcDbEntity
8
0
100
AcDbSpline
70
1064
71
3
72
8
73
4
74
0
42
0.000000001
43
0.0000000001
44
0.0000000001
40
0
40
0
40
0
40
0
40
1
40
1
40
1
40
1
10
276.23670099999998
20
433.30086200000005
30
0
10
276.23670099999998
20
432.55037900000002
30
0
10
275.62831500000004
20
431.94199100000003
30
0
10
274.87783199999996
20
431.94199000000003
30
0
0
SPLINE
5
253
100
AcDbEntity
8
0
100
AcDbSpline
70
1064
71
3
72
8
73
4
74
0
42
0.000000001
43
0.0000000001
44
0.0000000001
40
0
40
0
40
0
40
0
40
1
40
1
40
1
40
1
10
273.51895999999999
20
433.30086200000005
30
0
10
273.51895999999999
20
433.66125700000003
30
0
10
273.662126
20
434.00689199999999
30
0
10
273.91696400000001
20
434.26173000000006
30
0
0
SPLINE
5
254
100
AcDbEntity
8
0
100
AcDbSpline
70
1064
71
3
72
8
73
4
74
0
42
0.000000001
43
0.0000000001
44
0.0000000001
40
0
40
0
40
0
40
0
40
1
40
1
40
1
40
1
10
273.91696400000001
20
432.3399940000001
30
0
10
273.662126
20
432.59483200000005
30
0
10
273.51895999999999
20
432.94046700000001
30
0
10
273.51895999999999
20
433.30086200000005
30
0
0
SPLINE
5
255
100
AcDbEntity
8
0
100
AcDbSpline
70
1064
71
3
72
8
73
4
74
0
42
0.000000001
43
0.0000000001
44
0.0000000001
40
0
40
0
40
0
40
0
40
1
40
1
40
1
40
1
10
273.91696400000001
20
434.26173000000006
30
0
10
274.17180200000007
20
434.51656799999995
30
0
10
274.51743700000003
20
434.65973399999996
30
0
10
274.87783199999996
20
434.65973399999996
30
0
0
SPLINE
5
256
100
AcDbEntity
8
0
100
AcDbSpline
70
1064
71
3
72
8
73
4
74
0
42
0.000000001
43
0.0000000001
44
0.0000000001
40
0
40
0
40
0
40
0
40
1
40
1
40
1
40
1
10
183.23189100000002
20
32.610948999999998
30
0
10
183.231888
20
31.473820000000003
30
0
10
182.31006200000002
20
30.551996999999997
30
0
10
181.172934
20
30.551996000000003
30
0
0
SPLINE
5
257
100
AcDbEntity
8
0
100
AcDbSpline
70
1064
71
3
72
8
73
4
74
0
42
0.000000001
43
0.0000000001
44
0.0000000001
40
0
40
0
40
0
40
0
40
1
40
1
40
1
40
1
10
274.87783199999996
20
434.65973399999996
30
0
10
275.62831500000004
20
434.65973300000002
30
0
10
276.23670099999998
20
434.05134500000003
30
0
10
276.23670099999998
20
433.30086200000005
30
0
0
SPLINE
5
258
100
AcDbEntity
8
0
100
AcDbSpline
70
1064
71
3
72
8
73
4
74
0
42
0.000000001
43
0.0000000001
44
0.0000000001
40
0
40
0
40
0
40
0
40
1
40
1
40
1
40
1
10
237.61293300000003
20
34.619890999999996
30
0
10
238.75006299999998
20
34.619892
30
0
10
239.67189000000002
20
33.698067999999999
30
0
10
239.67189399999998
20
32.560939000000005
30
0
0
SPLINE
5
259
100
AcDbEntity
8
0
100
AcDbSpline
70
1064
71
3
72
8
73
4
74
0
42
0.000000001
43
0.0000000001
44
0.0000000001
40
0
40
0
40
0
40
0
40
1
40
1
40
1
40
1
10
275.864915
20
428.461724
30
0
10
276.119753
20
428.20688600000011
30
0
10
276.26291900000001
20
427.86125200000004
30
0
10
276.26291900000001
20
427.50085700000005
30
0
0
SPLINE
5
260
100
AcDbEntity
8
0
100
AcDbSpline
70
1064
71
3
72
8
73
4
74
0
42
0.000000001
43
0.0000000001
44
0.0000000001
40
0
40
0
40
0
40
0
40
1
40
1
40
1
40
1
10
274.87783199999996
20
431.94199000000003
30
0
10
274.51743700000003
20
431.94199000000003
30
0
10
274.17180200000007
20
432.08515599999998
30
0
10
273.91696400000001
20
432.3399940000001
30
0
0
SPLINE
5
261
100
AcDbEntity
8
0
100
AcDbSpline
70
1064
71
3
72
8
73
4
74
0
42
0.000000001
43
0.0000000001
44
0.0000000001
40
0
40
0
40
0
40
0
40
1
40
1
40
1
40
1
10
179.71702099999999
20
34.066867000000002
30
0
10
180.10315200000002
20
34.453001
30
0
10
180.62686000000002
20
34.669928999999996
30
0
10
181.172934
20
34.669928999999996
30
0
0
SPLINE
5
262
100
AcDbEntity
8
0
100
AcDbSpline
70
1064
71
3
72
8
73
4
74
0
42
0.000000001
43
0.0000000001
44
0.0000000001
40
0
40
0
40
0
40
0
40
1
40
1
40
1
40
1
10
179.11397300000002
20
32.610948999999998
30
0
10
179.113967
20
33.157021999999998
30
0
10
179.33088999999998
20
33.680731999999999
30
0
10
179.71702099999999
20
34.066867000000002
30
0
0
SPLINE
5
263
100
AcDbEntity
8
0
100
AcDbSpline
70
1064
71
3
72
8
73
4
74
0
42
0.000000001
43
0.0000000001
44
0.0000000001
40
0
40
0
40
0
40
0
40
1
40
1
40
1
40
1
10
153.13190399999999
20
32.610948999999998
30
0
10
153.1319
20
31.473818999999999
30
0
10
152.21007299999999
20
30.551995000000005
30
0
10
151.07294300000001
20
30.551996000000003
30
0
0
SPLINE
5
264
100
AcDbEntity
8
0
100
AcDbSpline
70
1064
71
3
72
8
73
4
74
0
42
0.000000001
43
0.0000000001
44
0.0000000001
40
0
40
0
40
0
40
0
40
1
40
1
40
1
40
1
10
182.62884400000002
20
34.066865999999997
30
0
10
183.014974
20
33.680731999999999
30
0
10
183.231897
20
33.157021999999998
30
0
10
183.23189100000002
20
32.610948999999998
30
0
0
SPLINE
5
265
100
AcDbEntity
8
0
100
AcDbSpline
70
1064
71
3
72
8
73
4
74
0
42
0.000000001
43
0.0000000001
44
0.0000000001
40
0
40
0
40
0
40
0
40
1
40
1
40
1
40
1
10
181.172934
20
34.669928999999996
30
0
10
181.71900700000003
20
34.669928999999996
30
0
10
182.24271399999998
20
34.453000000000003
30
0
10
182.62884400000002
20
34.066865999999997
30
0
0
SPLINE
5
266
100
AcDbEntity
8
0
100
AcDbSpline
70
1064
71
3
72
8
73
4
74
0
42
0.000000001
43
0.0000000001
44
0.0000000001
40
0
40
0
40
0
40
0
40
1
40
1
40
1
40
1
10
151.07294300000001
20
30.551996000000003
30
0
10
149.93581399999999
20
30.551996999999997
30
0
10
149.01398899999998
20
31.473820000000003
30
0
10
149.01398500000002
20
32.610948999999998
30
0
0
SPLINE
5
267
100
AcDbEntity
8
0
100
AcDbSpline
70
1064
71
3
72
8
73
4
74
0
42
0.000000001
43
0.0000000001
44
0.0000000001
40
0
40
0
40
0
40
0
40
1
40
1
40
1
40
1
10
181.172934
20
30.551996000000003
30
0
10
180.03580400000001
20
30.551995000000005
30
0
10
179.11397700000003
20
31.473818999999999
30
0
10
179.11397300000002
20
32.610948999999998
30
0
0
LINE
5
268
100
AcDbEntity
8
0
100
AcDbLine
10
0.16019799692970624
20
24.84997565817239
30
0
11
0.207512
21
507.83546200000001
31
0
0
LINE
5
269
100
AcDbEntity
8
0
100
AcDbLine
10
0.207512
20
507.83546200000001
30
0
11
0.16019799692970624
21
24.84997565817239
31
0
0
LINE
5
270
100
AcDbEntity
8
0
100
AcDbLine
10
221.19686800000005
20
486.71303499999999
30
0
11
221.19686800000005
21
496.71303399999999
31
0
0
LINE
5
271
100
AcDbEntity
8
0
100
AcDbLine
10
221.19686800000005
20
496.71303399999999
30
0
11
221.19686800000005
21
486.71303499999999
31
0
0
SPLINE
5
272
100
AcDbEntity
8
0
100
AcDbSpline
70
1064
71
3
72
8
73
4
74
0
42
0.000000001
43
0.0000000001
44
0.0000000001
40
0
40
0
40
0
40
0
40
1
40
1
40
1
40
1
10
219.13787000008153
20
498.77234098837471
30
0
10
220.27510999690125
20
498.77225593953688
30
0
10
221.1969530487803
20
497.85027399664665
30
0
10
221.19686799994241
20
496.71303399982696
30
0
0
SPLINE
5
273
100
AcDbEntity
8
0
100
AcDbSpline
70
1064
71
3
72
8
73
4
74
0
42
0.000000001
43
0.0000000001
44
0.0000000001
40
0
40
0
40
0
40
0
40
1
40
1
40
1
40
1
10
182.62914900000001
20
500.15528200000006
30
0
10
182.24300600000004
20
499.76914000000011
30
0
10
181.71928400000002
20
499.55220700000007
30
0
10
181.17319599999999
20
499.55220700000007
30
0
0
SPLINE
5
274
100
AcDbEntity
8
0
100
AcDbSpline
70
1064
71
3
72
8
73
4
74
0
42
0.000000001
43
0.0000000001
44
0.0000000001
40
0
40
0
40
0
40
0
40
1
40
1
40
1
40
1
10
183.232225
20
501.61123500000002
30
0
10
183.232225
20
501.06514699999997
30
0
10
183.01529200000002
20
500.54142500000006
30
0
10
182.62914900000001
20
500.15528200000006
30
0
0
SPLINE
5
275
100
AcDbEntity
8
0
100
AcDbSpline
70
1064
71
3
72
8
73
4
74
0
42
0.000000001
43
0.0000000001
44
0.0000000001
40
0
40
0
40
0
40
0
40
1
40
1
40
1
40
1
10
112.708944
20
375.86086200000005
30
0
10
112.708944
20
376.22125699999998
30
0
10
112.85211000000002
20
376.566891
30
0
10
113.106948
20
376.82172900000006
30
0
0
SPLINE
5
276
100
AcDbEntity
8
0
100
AcDbSpline
70
1064
71
3
72
8
73
4
74
0
42
0.000000001
43
0.0000000001
44
0.0000000001
40
0
40
0
40
0
40
0
40
1
40
1
40
1
40
1
10
315.05495299999995
20
308.99998999999997
30
0
10
314.80011500000001
20
308.74515200000008
30
0
10
314.45448099999999
20
308.60198600000001
30
0
10
314.094086
20
308.60198600000001
30
0
0
SPLINE
5
277
100
AcDbEntity
8
0
100
AcDbSpline
70
1064
71
3
72
8
73
4
74
0
42
0.000000001
43
0.0000000001
44
0.0000000001
40
0
40
0
40
0
40
0
40
1
40
1
40
1
40
1
10
114.06781600000001
20
374.50198999999998
30
0
10
113.70742
20
374.50198999999998
30
0
10
113.36178600000002
20
374.64515599999999
30
0
10
113.106948
20
374.89999399999999
30
0
0
SPLINE
5
278
100
AcDbEntity
8
0
100
AcDbSpline
70
1064
71
3
72
8
73
4
74
0
42
0.000000001
43
0.0000000001
44
0.0000000001
40
0
40
0
40
0
40
0
40
1
40
1
40
1
40
1
10
312.73521399999998
20
309.96085800000003
30
0
10
312.73521399999998
20
310.32125299999996
30
0
10
312.87837999999999
20
310.66688799999997
30
0
10
313.133218
20
310.92172599999998
30
0
0
SPLINE
5
279
100
AcDbEntity
8
0
100
AcDbSpline
70
1064
71
3
72
8
73
4
74
0
42
0.000000001
43
0.0000000001
44
0.0000000001
40
0
40
0
40
0
40
0
40
1
40
1
40
1
40
1
10
113.13316399999999
20
371.02172400000001
30
0
10
113.38800200000001
20
371.27656200000001
30
0
10
113.73363600000002
20
371.41972799999996
30
0
10
114.094031
20
371.41972799999996
30
0
0
SPLINE
5
280
100
AcDbEntity
8
0
100
AcDbSpline
70
1064
71
3
72
8
73
4
74
0
42
0.000000001
43
0.0000000001
44
0.0000000001
40
0
40
0
40
0
40
0
40
1
40
1
40
1
40
1
10
213.10694799999999
20
376.82172900000006
30
0
10
213.361786
20
377.07656700000001
30
0
10
213.70742100000001
20
377.21973399999996
30
0
10
214.06781600000002
20
377.21973399999996
30
0
0
SPLINE
5
281
100
AcDbEntity
8
0
100
AcDbSpline
70
1064
71
3
72
8
73
4
74
0
42
0.000000001
43
0.0000000001
44
0.0000000001
40
0
40
0
40
0
40
0
40
1
40
1
40
1
40
1
10
115.42668500000002
20
375.86086200000005
30
0
10
115.42668500000002
20
375.11037900000008
30
0
10
114.81829900000001
20
374.50199100000009
30
0
10
114.06781600000001
20
374.50198999999998
30
0
0
SPLINE
5
282
100
AcDbEntity
8
0
100
AcDbSpline
70
1064
71
3
72
8
73
4
74
0
42
0.000000001
43
0.0000000001
44
0.0000000001
40
0
40
0
40
0
40
0
40
1
40
1
40
1
40
1
10
313.133218
20
310.92172599999998
30
0
10
313.38805600000001
20
311.17656399999998
30
0
10
313.73368999999997
20
311.31973000000005
30
0
10
314.094086
20
311.31973000000005
30
0
0
SPLINE
5
283
100
AcDbEntity
8
0
100
AcDbSpline
70
1064
71
3
72
8
73
4
74
0
42
0.000000001
43
0.0000000001
44
0.0000000001
40
0
40
0
40
0
40
0
40
1
40
1
40
1
40
1
10
313.10697099999999
20
316.72173100000003
30
0
10
313.36180899999999
20
316.97656899999998
30
0
10
313.70744400000001
20
317.11973499999999
30
0
10
314.06783899999999
20
317.11973499999999
30
0
0
SPLINE
5
284
100
AcDbEntity
8
0
100
AcDbSpline
70
1064
71
3
72
8
73
4
74
0
42
0.000000001
43
0.0000000001
44
0.0000000001
40
0
40
0
40
0
40
0
40
1
40
1
40
1
40
1
10
261.91371099999998
20
393.82796400000007
30
0
10
262.16854900000004
20
393.573126
30
0
10
262.31171500000005
20
393.2274910000001
30
0
10
262.31171500000005
20
392.867096
30
0
0
SPLINE
5
285
100
AcDbEntity
8
0
100
AcDbSpline
70
1064
71
3
72
8
73
4
74
0
42
0.000000001
43
0.0000000001
44
0.0000000001
40
0
40
0
40
0
40
0
40
1
40
1
40
1
40
1
10
369.264861
20
111.95998400000001
30
0
10
368.51438800000005
20
111.95998400000001
30
0
10
367.90600500000005
20
112.568354
30
0
10
367.90598900000009
20
113.31882800000001
30
0
0
SPLINE
5
286
100
AcDbEntity
8
0
100
AcDbSpline
70
1064
71
3
72
8
73
4
74
0
42
0.000000001
43
0.0000000001
44
0.0000000001
40
0
40
0
40
0
40
0
40
1
40
1
40
1
40
1
10
365.24175500000001
20
118.34503600000002
30
0
10
365.24175500000001
20
117.98464100000001
30
0
10
365.09858900000006
20
117.63900600000001
30
0
10
364.843751
20
117.38416799999999
30
0
0
SPLINE
5
287
100
AcDbEntity
8
0
100
AcDbSpline
70
1064
71
3
72
8
73
4
74
0
42
0.000000001
43
0.0000000001
44
0.0000000001
40
0
40
0
40
0
40
0
40
1
40
1
40
1
40
1
10
115.05489900000001
20
371.02172400000001
30
0
10
115.30973700000003
20
370.76688600000006
30
0
10
115.45290300000002
20
370.42125199999998
30
0
10
115.45290300000002
20
370.060856
30
0
0
SPLINE
5
288
100
AcDbEntity
8
0
100
AcDbSpline
70
1064
71
3
72
8
73
4
74
0
42
0.000000001
43
0.0000000001
44
0.0000000001
40
0
40
0
40
0
40
0
40
1
40
1
40
1
40
1
10
314.094086
20
308.60198600000001
30
0
10
313.73368999999997
20
308.60198600000001
30
0
10
313.38805600000001
20
308.74515200000008
30
0
10
313.133218
20
308.99998999999997
30
0
0
SPLINE
5
289
100
AcDbEntity
8
0
100
AcDbSpline
70
1064
71
3
72
8
73
4
74
0
42
0.000000001
43
0.0000000001
44
0.0000000001
40
0
40
0
40
0
40
0
40
1
40
1
40
1
40
1
10
113.106948
20
376.82172900000006
30
0
10
113.36178600000002
20
377.07656700000001
30
0
10
113.70742
20
377.21973399999996
30
0
10
114.06781600000001
20
377.21973399999996
30
0
0
SPLINE
5
290
100
AcDbEntity
8
0
100
AcDbSpline
70
1064
71
3
72
8
73
4
74
0
42
0.000000001
43
0.0000000001
44
0.0000000001
40
0
40
0
40
0
40
0
40
1
40
1
40
1
40
1
10
261.91371099999998
20
391.906228
30
0
10
261.65887299999997
20
391.65139000000005
30
0
10
261.31323900000001
20
391.5082240000001
30
0
10
260.95284300000003
20
391.5082240000001
30
0
0
SPLINE
5
291
100
AcDbEntity
8
0
100
AcDbSpline
70
1064
71
3
72
8
73
4
74
0
42
0.000000001
43
0.0000000001
44
0.0000000001
40
0
40
0
40
0
40
0
40
1
40
1
40
1
40
1
10
314.06783899999999
20
317.11973499999999
30
0
10
314.42823399999997
20
317.11973499999999
30
0
10
314.77386899999999
20
316.97656899999998
30
0
10
315.02870700000005
20
316.72173100000003
30
0
0
SPLINE
5
292
100
AcDbEntity
8
0
100
AcDbSpline
70
1064
71
3
72
8
73
4
74
0
42
0.000000001
43
0.0000000001
44
0.0000000001
40
0
40
0
40
0
40
0
40
1
40
1
40
1
40
1
10
315.05495299999995
20
310.92172599999998
30
0
10
315.30979100000002
20
310.66688799999997
30
0
10
315.45295800000008
20
310.32125299999996
30
0
10
315.45295699999997
20
309.96085800000003
30
0
0
SPLINE
5
293
100
AcDbEntity
8
0
100
AcDbSpline
70
1064
71
3
72
8
73
4
74
0
42
0.000000001
43
0.0000000001
44
0.0000000001
40
0
40
0
40
0
40
0
40
1
40
1
40
1
40
1
10
364.843751
20
117.38416799999999
30
0
10
364.58891299999999
20
117.12933000000001
30
0
10
364.24327900000003
20
116.98616399999999
30
0
10
363.88288299999999
20
116.98616399999999
30
0
0
SPLINE
5
294
100
AcDbEntity
8
0
100
AcDbSpline
70
1064
71
3
72
8
73
4
74
0
42
0.000000001
43
0.0000000001
44
0.0000000001
40
0
40
0
40
0
40
0
40
1
40
1
40
1
40
1
10
315.02870700000005
20
314.79999600000002
30
0
10
314.77386899999999
20
314.54515800000001
30
0
10
314.42823399999997
20
314.40199100000001
30
0
10
314.06783899999999
20
314.40199200000001
30
0
0
SPLINE
5
295
100
AcDbEntity
8
0
100
AcDbSpline
70
1064
71
3
72
8
73
4
74
0
42
0.000000001
43
0.0000000001
44
0.0000000001
40
0
40
0
40
0
40
0
40
1
40
1
40
1
40
1
10
214.06781600000002
20
377.21973399999996
30
0
10
214.81829900000005
20
377.21973200000002
30
0
10
215.42668500000005
20
376.61134500000003
30
0
10
215.42668500000005
20
375.86086200000005
30
0
0
SPLINE
5
296
100
AcDbEntity
8
0
100
AcDbSpline
70
1064
71
3
72
8
73
4
74
0
42
0.000000001
43
0.0000000001
44
0.0000000001
40
0
40
0
40
0
40
0
40
1
40
1
40
1
40
1
10
115.45290300000002
20
370.060856
30
0
10
115.45290300000002
20
369.70046099999996
30
0
10
115.30973700000003
20
369.354827
30
0
10
115.05489900000001
20
369.09998899999999
30
0
0
SPLINE
5
297
100
AcDbEntity
8
0
100
AcDbSpline
70
1064
71
3
72
8
73
4
74
0
42
0.000000001
43
0.0000000001
44
0.0000000001
40
0
40
0
40
0
40
0
40
1
40
1
40
1
40
1
10
114.06781600000001
20
377.21973399999996
30
0
10
114.81829900000001
20
377.21973200000002
30
0
10
115.42668500000002
20
376.61134500000003
30
0
10
115.42668500000002
20
375.86086200000005
30
0
0
SPLINE
5
298
100
AcDbEntity
8
0
100
AcDbSpline
70
1064
71
3
72
8
73
4
74
0
42
0.000000001
43
0.0000000001
44
0.0000000001
40
0
40
0
40
0
40
0
40
1
40
1
40
1
40
1
10
113.13316399999999
20
369.09998899999999
30
0
10
112.87832600000002
20
369.354827
30
0
10
112.73515900000001
20
369.70046099999996
30
0
10
112.73516000000001
20
370.060856
30
0
0
SPLINE
5
299
100
AcDbEntity
8
0
100
AcDbSpline
70
1064
71
3
72
8
73
4
74
0
42
0.000000001
43
0.0000000001
44
0.0000000001
40
0
40
0
40
0
40
0
40
1
40
1
40
1
40
1
10
113.106948
20
374.89999399999999
30
0
10
112.85211000000002
20
375.154832
30
0
10
112.708944
20
375.50046600000002
30
0
10
112.708944
20
375.86086200000005
30
0
0
SPLINE
5
300
100
AcDbEntity
8
0
100
AcDbSpline
70
1064
71
3
72
8
73
4
74
0
42
0.000000001
43
0.0000000001
44
0.0000000001
40
0
40
0
40
0
40
0
40
1
40
1
40
1
40
1
10
213.10694799999999
20
374.89999399999999
30
0
10
212.85211000000004
20
375.154832
30
0
10
212.70894400000003
20
375.50046600000002
30
0
10
212.70894400000003
20
375.86086200000005
30
0
0
SPLINE
5
301
100
AcDbEntity
8
0
100
AcDbSpline
70
1064
71
3
72
8
73
4
74
0
42
0.000000001
43
0.0000000001
44
0.0000000001
40
0
40
0
40
0
40
0
40
1
40
1
40
1
40
1
10
315.45295699999997
20
309.96085800000003
30
0
10
315.45295800000008
20
309.60046299999999
30
0
10
315.30979100000002
20
309.25482799999997
30
0
10
315.05495299999995
20
308.99998999999997
30
0
0
SPLINE
5
302
100
AcDbEntity
8
0
100
AcDbSpline
70
1064
71
3
72
8
73
4
74
0
42
0.000000001
43
0.0000000001
44
0.0000000001
40
0
40
0
40
0
40
0
40
1
40
1
40
1
40
1
10
314.06783899999999
20
314.40199200000001
30
0
10
313.70744400000001
20
314.40199100000001
30
0
10
313.36180899999999
20
314.54515800000001
30
0
10
313.10697099999999
20
314.79999600000002
30
0
0
SPLINE
5
303
100
AcDbEntity
8
0
100
AcDbSpline
70
1064
71
3
72
8
73
4
74
0
42
0.000000001
43
0.0000000001
44
0.0000000001
40
0
40
0
40
0
40
0
40
1
40
1
40
1
40
1
10
262.31171500000005
20
392.867096
30
0
10
262.31171500000005
20
392.50670100000002
30
0
10
262.16854900000004
20
392.16106600000001
30
0
10
261.91371099999998
20
391.906228
30
0
0
SPLINE
5
304
100
AcDbEntity
8
0
100
AcDbSpline
70
1064
71
3
72
8
73
4
74
0
42
0.000000001
43
0.0000000001
44
0.0000000001
40
0
40
0
40
0
40
0
40
1
40
1
40
1
40
1
10
363.88288299999999
20
119.70390800000003
30
0
10
364.24327900000003
20
119.70390800000003
30
0
10
364.58891299999999
20
119.560742
30
0
10
364.843751
20
119.305904
30
0
0
SPLINE
5
305
100
AcDbEntity
8
0
100
AcDbSpline
70
1064
71
3
72
8
73
4
74
0
42
0.000000001
43
0.0000000001
44
0.0000000001
40
0
40
0
40
0
40
0
40
1
40
1
40
1
40
1
10
115.05489900000001
20
369.09998899999999
30
0
10
114.80006100000003
20
368.84515099999999
30
0
10
114.45442700000001
20
368.70198399999998
30
0
10
114.094031
20
368.70198500000009
30
0
0
SPLINE
5
306
100
AcDbEntity
8
0
100
AcDbSpline
70
1064
71
3
72
8
73
4
74
0
42
0.000000001
43
0.0000000001
44
0.0000000001
40
0
40
0
40
0
40
0
40
1
40
1
40
1
40
1
10
114.094031
20
368.70198500000009
30
0
10
113.73363600000002
20
368.70198399999998
30
0
10
113.38800200000001
20
368.84515099999999
30
0
10
113.13316399999999
20
369.09998899999999
30
0
0
SPLINE
5
307
100
AcDbEntity
8
0
100
AcDbSpline
70
1064
71
3
72
8
73
4
74
0
42
0.000000001
43
0.0000000001
44
0.0000000001
40
0
40
0
40
0
40
0
40
1
40
1
40
1
40
1
10
315.42671100000001
20
315.76086299999997
30
0
10
315.42671100000001
20
315.40046799999999
30
0
10
315.283545
20
315.05483399999997
30
0
10
315.02870700000005
20
314.79999600000002
30
0
0
SPLINE
5
308
100
AcDbEntity
8
0
100
AcDbSpline
70
1064
71
3
72
8
73
4
74
0
42
0.000000001
43
0.0000000001
44
0.0000000001
40
0
40
0
40
0
40
0
40
1
40
1
40
1
40
1
10
313.10697099999999
20
314.79999600000002
30
0
10
312.85213299999998
20
315.05483399999997
30
0
10
312.70896699999997
20
315.40046799999999
30
0
10
312.70896699999997
20
315.76086299999997
30
0
0
SPLINE
5
309
100
AcDbEntity
8
0
100
AcDbSpline
70
1064
71
3
72
8
73
4
74
0
42
0.000000001
43
0.0000000001
44
0.0000000001
40
0
40
0
40
0
40
0
40
1
40
1
40
1
40
1
10
112.73516000000001
20
370.060856
30
0
10
112.73515900000001
20
370.42125199999998
30
0
10
112.87832600000002
20
370.76688600000006
30
0
10
113.13316399999999
20
371.02172400000001
30
0
0
SPLINE
5
310
100
AcDbEntity
8
0
100
AcDbSpline
70
1064
71
3
72
8
73
4
74
0
42
0.000000001
43
0.0000000001
44
0.0000000001
40
0
40
0
40
0
40
0
40
1
40
1
40
1
40
1
10
314.094086
20
311.31973000000005
30
0
10
314.45448099999999
20
311.31973000000005
30
0
10
314.80011500000001
20
311.17656399999998
30
0
10
315.05495299999995
20
310.92172599999998
30
0
0
SPLINE
5
311
100
AcDbEntity
8
0
100
AcDbSpline
70
1064
71
3
72
8
73
4
74
0
42
0.000000001
43
0.0000000001
44
0.0000000001
40
0
40
0
40
0
40
0
40
1
40
1
40
1
40
1
10
212.70894400000003
20
375.86086200000005
30
0
10
212.70894400000003
20
376.22125699999998
30
0
10
212.85211000000004
20
376.566891
30
0
10
213.10694799999999
20
376.82172900000006
30
0
0
SPLINE
5
312
100
AcDbEntity
8
0
100
AcDbSpline
70
1064
71
3
72
8
73
4
74
0
42
0.000000001
43
0.0000000001
44
0.0000000001
40
0
40
0
40
0
40
0
40
1
40
1
40
1
40
1
10
114.094031
20
371.41972799999996
30
0
10
114.45442700000001
20
371.41972799999996
30
0
10
114.80006100000003
20
371.27656200000001
30
0
10
115.05489900000001
20
371.02172400000001
30
0
0
SPLINE
5
313
100
AcDbEntity
8
0
100
AcDbSpline
70
1064
71
3
72
8
73
4
74
0
42
0.000000001
43
0.0000000001
44
0.0000000001
40
0
40
0
40
0
40
0
40
1
40
1
40
1
40
1
10
313.133218
20
308.99998999999997
30
0
10
312.87837999999999
20
309.25482799999997
30
0
10
312.73521399999998
20
309.60046299999999
30
0
10
312.73521399999998
20
309.96085800000003
30
0
0
SPLINE
5
314
100
AcDbEntity
8
0
100
AcDbSpline
70
1064
71
3
72
8
73
4
74
0
42
0.000000001
43
0.0000000001
44
0.0000000001
40
0
40
0
40
0
40
0
40
1
40
1
40
1
40
1
10
364.843751
20
119.305904
30
0
10
365.09858900000006
20
119.05106599999999
30
0
10
365.24175500000001
20
118.705431
30
0
10
365.24175500000001
20
118.34503600000002
30
0
0
SPLINE
5
315
100
AcDbEntity
8
0
100
AcDbSpline
70
1064
71
3
72
8
73
4
74
0
42
0.000000001
43
0.0000000001
44
0.0000000001
40
0
40
0
40
0
40
0
40
1
40
1
40
1
40
1
10
312.70896699999997
20
315.76086299999997
30
0
10
312.70896699999997
20
316.12125900000001
30
0
10
312.85213299999998
20
316.46689300000003
30
0
10
313.10697099999999
20
316.72173100000003
30
0
0
SPLINE
5
316
100
AcDbEntity
8
0
100
AcDbSpline
70
1064
71
3
72
8
73
4
74
0
42
0.000000001
43
0.0000000001
44
0.0000000001
40
0
40
0
40
0
40
0
40
1
40
1
40
1
40
1
10
259.99197599999997
20
391.906228
30
0
10
259.73713800000002
20
392.16106600000001
30
0
10
259.59397200000001
20
392.50670100000002
30
0
10
259.59397200000001
20
392.867096
30
0
0
SPLINE
5
317
100
AcDbEntity
8
0
100
AcDbSpline
70
1064
71
3
72
8
73
4
74
0
42
0.000000001
43
0.0000000001
44
0.0000000001
40
0
40
0
40
0
40
0
40
1
40
1
40
1
40
1
10
260.95284300000003
20
391.5082240000001
30
0
10
260.59244799999999
20
391.5082240000001
30
0
10
260.24681400000009
20
391.65139000000005
30
0
10
259.99197599999997
20
391.906228
30
0
0
SPLINE
5
318
100
AcDbEntity
8
0
100
AcDbSpline
70
1064
71
3
72
8
73
4
74
0
42
0.000000001
43
0.0000000001
44
0.0000000001
40
0
40
0
40
0
40
0
40
1
40
1
40
1
40
1
10
315.02870700000005
20
316.72173100000003
30
0
10
315.283545
20
316.46689300000003
30
0
10
315.42671100000001
20
316.12125900000001
30
0
10
315.42671100000001
20
315.76086299999997
30
0
0
SPLINE
5
319
100
AcDbEntity
8
0
100
AcDbSpline
70
1064
71
3
72
8
73
4
74
0
42
0.000000001
43
0.0000000001
44
0.0000000001
40
0
40
0
40
0
40
0
40
1
40
1
40
1
40
1
10
214.09407999999999
20
308.60198600000001
30
0
10
213.34358500000005
20
308.60198700000001
30
0
10
212.73518999999999
20
309.210375
30
0
10
212.73519100000001
20
309.96085800000003
30
0
0
SPLINE
5
320
100
AcDbEntity
8
0
100
AcDbSpline
70
1064
71
3
72
8
73
4
74
0
42
0.000000001
43
0.0000000001
44
0.0000000001
40
0
40
0
40
0
40
0
40
1
40
1
40
1
40
1
10
215.05496100000002
20
310.92172599999998
30
0
10
215.30980299999999
20
310.66688799999997
30
0
10
215.45297099999999
20
310.32125299999996
30
0
10
215.45297099999999
20
309.96085800000003
30
0
0
SPLINE
5
321
100
AcDbEntity
8
0
100
AcDbSpline
70
1064
71
3
72
8
73
4
74
0
42
0.000000001
43
0.0000000001
44
0.0000000001
40
0
40
0
40
0
40
0
40
1
40
1
40
1
40
1
10
215.42675299999999
20
315.76086099999998
30
0
10
215.42675299999999
20
315.01037700000001
30
0
10
214.81835800000002
20
314.40199000000001
30
0
10
214.06786400000001
20
314.40198900000001
30
0
0
SPLINE
5
322
100
AcDbEntity
8
0
100
AcDbSpline
70
1064
71
3
72
8
73
4
74
0
42
0.000000001
43
0.0000000001
44
0.0000000001
40
0
40
0
40
0
40
0
40
1
40
1
40
1
40
1
10
213.10698200000002
20
314.79999300000003
30
0
10
212.85214100000005
20
315.05483099999998
30
0
10
212.70897200000005
20
315.40046500000005
30
0
10
212.70897200000005
20
315.76086099999998
30
0
0
SPLINE
5
323
100
AcDbEntity
8
0
100
AcDbSpline
70
1064
71
3
72
8
73
4
74
0
42
0.000000001
43
0.0000000001
44
0.0000000001
40
0
40
0
40
0
40
0
40
1
40
1
40
1
40
1
10
212.70897200000005
20
315.76086099999998
30
0
10
212.70897200000005
20
316.12125600000002
30
0
10
212.85214100000005
20
316.46688999999998
30
0
10
213.10698200000002
20
316.72172799999998
30
0
0
SPLINE
5
324
100
AcDbEntity
8
0
100
AcDbSpline
70
1064
71
3
72
8
73
4
74
0
42
0.000000001
43
0.0000000001
44
0.0000000001
40
0
40
0
40
0
40
0
40
1
40
1
40
1
40
1
10
213.10698200000002
20
316.72172799999998
30
0
10
213.36182400000001
20
316.97656600000005
30
0
10
213.70746400000002
20
317.119733
30
0
10
214.06786400000001
20
317.119732
30
0
0
SPLINE
5
325
100
AcDbEntity
8
0
100
AcDbSpline
70
1064
71
3
72
8
73
4
74
0
42
0.000000001
43
0.0000000001
44
0.0000000001
40
0
40
0
40
0
40
0
40
1
40
1
40
1
40
1
10
358.08287800000005
20
119.67766100000003
30
0
10
358.44327299999998
20
119.67766100000003
30
0
10
358.78890799999999
20
119.53449499999999
30
0
10
359.04374600000006
20
119.27965700000001
30
0
0
SPLINE
5
326
100
AcDbEntity
8
0
100
AcDbSpline
70
1064
71
3
72
8
73
4
74
0
42
0.000000001
43
0.0000000001
44
0.0000000001
40
0
40
0
40
0
40
0
40
1
40
1
40
1
40
1
10
362.92201600000004
20
119.305904
30
0
10
363.17685400000005
20
119.560742
30
0
10
363.52248800000007
20
119.70390800000003
30
0
10
363.88288299999999
20
119.70390800000003
30
0
0
SPLINE
5
327
100
AcDbEntity
8
0
100
AcDbSpline
70
1064
71
3
72
8
73
4
74
0
42
0.000000001
43
0.0000000001
44
0.0000000001
40
0
40
0
40
0
40
0
40
1
40
1
40
1
40
1
10
212.73519100000001
20
309.96085800000003
30
0
10
212.73518999999999
20
310.711341
30
0
10
213.34358500000005
20
311.319729
30
0
10
214.09407999999999
20
311.31973000000005
30
0
0
SPLINE
5
328
100
AcDbEntity
8
0
100
AcDbSpline
70
1064
71
3
72
8
73
4
74
0
42
0.000000001
43
0.0000000001
44
0.0000000001
40
0
40
0
40
0
40
0
40
1
40
1
40
1
40
1
10
215.45297099999999
20
309.96085800000003
30
0
10
215.45297099999999
20
309.60046299999999
30
0
10
215.30980299999999
20
309.25482799999997
30
0
10
215.05496100000002
20
308.99998999999997
30
0
0
SPLINE
5
329
100
AcDbEntity
8
0
100
AcDbSpline
70
1064
71
3
72
8
73
4
74
0
42
0.000000001
43
0.0000000001
44
0.0000000001
40
0
40
0
40
0
40
0
40
1
40
1
40
1
40
1
10
214.09407999999999
20
311.31973000000005
30
0
10
214.45447999999999
20
311.31973000000005
30
0
10
214.80012000000002
20
311.17656399999998
30
0
10
215.05496100000002
20
310.92172599999998
30
0
0
SPLINE
5
330
100
AcDbEntity
8
0
100
AcDbSpline
70
1064
71
3
72
8
73
4
74
0
42
0.000000001
43
0.0000000001
44
0.0000000001
40
0
40
0
40
0
40
0
40
1
40
1
40
1
40
1
10
215.05496100000002
20
308.99998999999997
30
0
10
214.80012000000002
20
308.74515200000008
30
0
10
214.45447999999999
20
308.60198600000001
30
0
10
214.09407999999999
20
308.60198600000001
30
0
0
SPLINE
5
331
100
AcDbEntity
8
0
100
AcDbSpline
70
1064
71
3
72
8
73
4
74
0
42
0.000000001
43
0.0000000001
44
0.0000000001
40
0
40
0
40
0
40
0
40
1
40
1
40
1
40
1
10
214.06786400000001
20
314.40198900000001
30
0
10
213.70746400000002
20
314.40198800000007
30
0
10
213.36182400000001
20
314.54515500000002
30
0
10
213.10698200000002
20
314.79999300000003
30
0
0
SPLINE
5
332
100
AcDbEntity
8
0
100
AcDbSpline
70
1064
71
3
72
8
73
4
74
0
42
0.000000001
43
0.0000000001
44
0.0000000001
40
0
40
0
40
0
40
0
40
1
40
1
40
1
40
1
10
214.06786400000001
20
317.119732
30
0
10
214.81835800000002
20
317.119732
30
0
10
215.42675299999999
20
316.51134400000001
30
0
10
215.42675299999999
20
315.76086099999998
30
0
0
SPLINE
5
333
100
AcDbEntity
8
0
100
AcDbSpline
70
1064
71
3
72
8
73
4
74
0
42
0.000000001
43
0.0000000001
44
0.0000000001
40
0
40
0
40
0
40
0
40
1
40
1
40
1
40
1
10
115.05498899999999
20
308.99998999999997
30
0
10
114.80014799999999
20
308.74515200000008
30
0
10
114.45450800000002
20
308.60198600000001
30
0
10
114.09410700000002
20
308.60198600000001
30
0
0
SPLINE
5
334
100
AcDbEntity
8
0
100
AcDbSpline
70
1064
71
3
72
8
73
4
74
0
42
0.000000001
43
0.0000000001
44
0.0000000001
40
0
40
0
40
0
40
0
40
1
40
1
40
1
40
1
10
115.45299900000002
20
309.96085800000003
30
0
10
115.45299900000002
20
309.60046299999999
30
0
10
115.309831
20
309.25482799999997
30
0
10
115.05498899999999
20
308.99998999999997
30
0
0
SPLINE
5
335
100
AcDbEntity
8
0
100
AcDbSpline
70
1064
71
3
72
8
73
4
74
0
42
0.000000001
43
0.0000000001
44
0.0000000001
40
0
40
0
40
0
40
0
40
1
40
1
40
1
40
1
10
114.09410700000002
20
311.31973000000005
30
0
10
114.45450800000002
20
311.31973000000005
30
0
10
114.80014799999999
20
311.17656399999998
30
0
10
115.05498899999999
20
310.92172599999998
30
0
0
SPLINE
5
336
100
AcDbEntity
8
0
100
AcDbSpline
70
1064
71
3
72
8
73
4
74
0
42
0.000000001
43
0.0000000001
44
0.0000000001
40
0
40
0
40
0
40
0
40
1
40
1
40
1
40
1
10
114.09410700000002
20
308.60198600000001
30
0
10
113.34361299999999
20
308.60198700000001
30
0
10
112.73521799999999
20
309.210375
30
0
10
112.735219
20
309.96085800000003
30
0
0
SPLINE
5
337
100
AcDbEntity
8
0
100
AcDbSpline
70
1064
71
3
72
8
73
4
74
0
42
0.000000001
43
0.0000000001
44
0.0000000001
40
0
40
0
40
0
40
0
40
1
40
1
40
1
40
1
10
112.735219
20
309.96085800000003
30
0
10
112.73521799999999
20
310.711341
30
0
10
113.34361299999999
20
311.319729
30
0
10
114.09410700000002
20
311.31973000000005
30
0
0
SPLINE
5
338
100
AcDbEntity
8
0
100
AcDbSpline
70
1064
71
3
72
8
73
4
74
0
42
0.000000001
43
0.0000000001
44
0.0000000001
40
0
40
0
40
0
40
0
40
1
40
1
40
1
40
1
10
115.05498899999999
20
310.92172599999998
30
0
10
115.309831
20
310.66688799999997
30
0
10
115.45299900000002
20
310.32125299999996
30
0
10
115.45299900000002
20
309.96085800000003
30
0
0
SPLINE
5
339
100
AcDbEntity
8
0
100
AcDbSpline
70
1064
71
3
72
8
73
4
74
0
42
0.000000001
43
0.0000000001
44
0.0000000001
40
0
40
0
40
0
40
0
40
1
40
1
40
1
40
1
10
113.10701000000002
20
314.79999300000003
30
0
10
112.852169
20
315.05483099999998
30
0
10
112.709
20
315.40046500000005
30
0
10
112.709
20
315.76086099999998
30
0
0
SPLINE
5
340
100
AcDbEntity
8
0
100
AcDbSpline
70
1064
71
3
72
8
73
4
74
0
42
0.000000001
43
0.0000000001
44
0.0000000001
40
0
40
0
40
0
40
0
40
1
40
1
40
1
40
1
10
115.42678100000002
20
315.76086099999998
30
0
10
115.42678100000002
20
315.01037700000001
30
0
10
114.81838600000002
20
314.40199000000001
30
0
10
114.06789199999999
20
314.40198900000001
30
0
0
SPLINE
5
341
100
AcDbEntity
8
0
100
AcDbSpline
70
1064
71
3
72
8
73
4
74
0
42
0.000000001
43
0.0000000001
44
0.0000000001
40
0
40
0
40
0
40
0
40
1
40
1
40
1
40
1
10
112.709
20
315.76086099999998
30
0
10
112.709
20
316.12125600000002
30
0
10
112.852169
20
316.46688999999998
30
0
10
113.10701000000002
20
316.72172799999998
30
0
0
SPLINE
5
342
100
AcDbEntity
8
0
100
AcDbSpline
70
1064
71
3
72
8
73
4
74
0
42
0.000000001
43
0.0000000001
44
0.0000000001
40
0
40
0
40
0
40
0
40
1
40
1
40
1
40
1
10
114.06789199999999
20
314.40198900000001
30
0
10
113.70749099999999
20
314.40198800000007
30
0
10
113.36185200000001
20
314.54515500000002
30
0
10
113.10701000000002
20
314.79999300000003
30
0
0
SPLINE
5
343
100
AcDbEntity
8
0
100
AcDbSpline
70
1064
71
3
72
8
73
4
74
0
42
0.000000001
43
0.0000000001
44
0.0000000001
40
0
40
0
40
0
40
0
40
1
40
1
40
1
40
1
10
375.06486700000005
20
114.703946
30
0
10
375.42526200000003
20
114.703946
30
0
10
375.77089599999999
20
114.56078000000002
30
0
10
376.02573400000006
20
114.305942
30
0
0
SPLINE
5
344
100
AcDbEntity
8
0
100
AcDbSpline
70
1064
71
3
72
8
73
4
74
0
42
0.000000001
43
0.0000000001
44
0.0000000001
40
0
40
0
40
0
40
0
40
1
40
1
40
1
40
1
10
376.42373800000001
20
113.345074
30
0
10
376.42373900000001
20
112.984679
30
0
10
376.28057200000001
20
112.63904500000001
30
0
10
376.02573400000006
20
112.384207
30
0
0
SPLINE
5
345
100
AcDbEntity
8
0
100
AcDbSpline
70
1064
71
3
72
8
73
4
74
0
42
0.000000001
43
0.0000000001
44
0.0000000001
40
0
40
0
40
0
40
0
40
1
40
1
40
1
40
1
10
376.02573400000006
20
114.305942
30
0
10
376.28057200000001
20
114.05110400000001
30
0
10
376.42373900000001
20
113.70547000000001
30
0
10
376.42373800000001
20
113.345074
30
0
0
SPLINE
5
346
100
AcDbEntity
8
0
100
AcDbSpline
70
1064
71
3
72
8
73
4
74
0
42
0.000000001
43
0.0000000001
44
0.0000000001
40
0
40
0
40
0
40
0
40
1
40
1
40
1
40
1
10
376.02573400000006
20
112.384207
30
0
10
375.77089599999999
20
112.12936900000001
30
0
10
375.42526200000003
20
111.98620200000001
30
0
10
375.06486700000005
20
111.98620300000002
30
0
0
SPLINE
5
347
100
AcDbEntity
8
0
100
AcDbSpline
70
1064
71
3
72
8
73
4
74
0
42
0.000000001
43
0.0000000001
44
0.0000000001
40
0
40
0
40
0
40
0
40
1
40
1
40
1
40
1
10
375.06486700000005
20
111.98620300000002
30
0
10
374.70447100000001
20
111.98620200000001
30
0
10
374.35883699999999
20
112.12936900000001
30
0
10
374.1039990000001
20
112.384207
30
0
0
SPLINE
5
348
100
AcDbEntity
8
0
100
AcDbSpline
70
1064
71
3
72
8
73
4
74
0
42
0.000000001
43
0.0000000001
44
0.0000000001
40
0
40
0
40
0
40
0
40
1
40
1
40
1
40
1
10
322.132226
20
420.99420400000008
30
0
10
322.132226
20
419.85704100000009
30
0
10
321.21037999999999
20
418.93518599999999
30
0
10
320.073217
20
418.93517500000002
30
0
0
SPLINE
5
349
100
AcDbEntity
8
0
100
AcDbSpline
70
1064
71
3
72
8
73
4
74
0
42
0.000000001
43
0.0000000001
44
0.0000000001
40
0
40
0
40
0
40
0
40
1
40
1
40
1
40
1
10
374.1039990000001
20
112.384207
30
0
10
373.84916099999998
20
112.63904500000001
30
0
10
373.70599500000003
20
112.984679
30
0
10
373.70599500000003
20
113.345074
30
0
0
SPLINE
5
350
100
AcDbEntity
8
0
100
AcDbSpline
70
1064
71
3
72
8
73
4
74
0
42
0.000000001
43
0.0000000001
44
0.0000000001
40
0
40
0
40
0
40
0
40
1
40
1
40
1
40
1
10
23.917307999999995
20
5.9163049999999986
30
0
10
23.615573999999995
20
6.2180419999999978
30
0
10
23.446064
20
6.6272839999999977
30
0
10
23.446068000000004
20
7.0540029999999989
30
0
0
SPLINE
5
351
100
AcDbEntity
8
0
100
AcDbSpline
70
1064
71
3
72
8
73
4
74
0
42
0.000000001
43
0.0000000001
44
0.0000000001
40
0
40
0
40
0
40
0
40
1
40
1
40
1
40
1
10
351.629164
20
422.45015999999998
30
0
10
352.015308
20
422.06401700000004
30
0
10
352.23224199999999
20
421.54029299999996
30
0
10
352.23224199999999
20
420.99420400000008
30
0
0
SPLINE
5
352
100
AcDbEntity
8
0
100
AcDbSpline
70
1064
71
3
72
8
73
4
74
0
42
0.000000001
43
0.0000000001
44
0.0000000001
40
0
40
0
40
0
40
0
40
1
40
1
40
1
40
1
10
25.055000000000007
20
8.6629229999999993
30
0
10
25.943585000000002
20
8.6629229999999993
30
0
10
26.663927000000001
20
7.9425869999999987
30
0
10
26.663933
20
7.0540029999999989
30
0
0
SPLINE
5
353
100
AcDbEntity
8
0
100
AcDbSpline
70
1064
71
3
72
8
73
4
74
0
42
0.000000001
43
0.0000000001
44
0.0000000001
40
0
40
0
40
0
40
0
40
1
40
1
40
1
40
1
10
7.0700000000000003
20
26.670055999999999
30
0
10
7.9585840000000001
20
26.670055999999999
30
0
10
8.6789260000000006
20
25.949719000000002
30
0
10
8.6789330000000007
20
25.061135
30
0
0
SPLINE
5
354
100
AcDbEntity
8
0
100
AcDbSpline
70
1064
71
3
72
8
73
4
74
0
42
0.000000001
43
0.0000000001
44
0.0000000001
40
0
40
0
40
0
40
0
40
1
40
1
40
1
40
1
10
527.44400599999994
20
26.558946999999996
30
0
10
528.33258599999999
20
26.558940999999997
30
0
10
529.05291999999997
20
25.838605999999999
30
0
10
529.05292699999995
20
24.950026000000001
30
0
0
SPLINE
5
355
100
AcDbEntity
8
0
100
AcDbSpline
70
1064
71
3
72
8
73
4
74
0
42
0.000000001
43
0.0000000001
44
0.0000000001
40
0
40
0
40
0
40
0
40
1
40
1
40
1
40
1
10
114.06789199999999
20
317.119732
30
0
10
114.81838600000002
20
317.119732
30
0
10
115.42678100000002
20
316.51134400000001
30
0
10
115.42678100000002
20
315.76086099999998
30
0
0
SPLINE
5
356
100
AcDbEntity
8
0
100
AcDbSpline
70
1064
71
3
72
8
73
4
74
0
42
0.000000001
43
0.0000000001
44
0.0000000001
40
0
40
0
40
0
40
0
40
1
40
1
40
1
40
1
10
113.10701000000002
20
316.72172799999998
30
0
10
113.36185200000001
20
316.97656600000005
30
0
10
113.70749099999999
20
317.119733
30
0
10
114.06789199999999
20
317.119732
30
0
0
SPLINE
5
357
100
AcDbEntity
8
0
100
AcDbSpline
70
1064
71
3
72
8
73
4
74
0
42
0.000000001
43
0.0000000001
44
0.0000000001
40
0
40
0
40
0
40
0
40
1
40
1
40
1
40
1
10
350.17320500000005
20
418.93517500000002
30
0
10
349.03604300000006
20
418.93518599999999
30
0
10
348.11419599999999
20
419.85704100000009
30
0
10
348.1141970000001
20
420.99420400000008
30
0
0
SPLINE
5
358
100
AcDbEntity
8
0
100
AcDbSpline
70
1064
71
3
72
8
73
4
74
0
42
0.000000001
43
0.0000000001
44
0.0000000001
40
0
40
0
40
0
40
0
40
1
40
1
40
1
40
1
10
320.073217
20
423.05323200000004
30
0
10
321.21037999999999
20
423.05322100000006
30
0
10
322.132226
20
422.13136600000007
30
0
10
322.132226
20
420.99420400000008
30
0
0
SPLINE
5
359
100
AcDbEntity
8
0
100
AcDbSpline
70
1064
71
3
72
8
73
4
74
0
42
0.000000001
43
0.0000000001
44
0.0000000001
40
0
40
0
40
0
40
0
40
1
40
1
40
1
40
1
10
528.58169099999998
20
23.812332999999999
30
0
10
528.27995999999996
20
23.510596
30
0
10
527.87072199999989
20
23.341080000000002
30
0
10
527.44400599999994
20
23.341077000000002
30
0
0
SPLINE
5
360
100
AcDbEntity
8
0
100
AcDbSpline
70
1064
71
3
72
8
73
4
74
0
42
0.000000001
43
0.0000000001
44
0.0000000001
40
0
40
0
40
0
40
0
40
1
40
1
40
1
40
1
10
350.17320500000005
20
423.05323200000004
30
0
10
350.71929500000005
20
423.05323399999997
30
0
10
351.243019
20
422.83630300000004
30
0
10
351.629164
20
422.45015999999998
30
0
0
SPLINE
5
361
100
AcDbEntity
8
0
100
AcDbSpline
70
1064
71
3
72
8
73
4
74
0
42
0.000000001
43
0.0000000001
44
0.0000000001
40
0
40
0
40
0
40
0
40
1
40
1
40
1
40
1
10
348.1141970000001
20
420.99420400000008
30
0
10
348.11419599999999
20
422.13136600000007
30
0
10
349.03604300000006
20
423.05322100000006
30
0
10
350.17320500000005
20
423.05323200000004
30
0
0
SPLINE
5
362
100
AcDbEntity
8
0
100
AcDbSpline
70
1064
71
3
72
8
73
4
74
0
42
0.000000001
43
0.0000000001
44
0.0000000001
40
0
40
0
40
0
40
0
40
1
40
1
40
1
40
1
10
529.05292699999995
20
24.950026000000001
30
0
10
529.05293099999994
20
24.523310000000006
30
0
10
528.88342299999999
20
24.114069000000001
30
0
10
528.58169099999998
20
23.812332999999999
30
0
0
SPLINE
5
363
100
AcDbEntity
8
0
100
AcDbSpline
70
1064
71
3
72
8
73
4
74
0
42
0.000000001
43
0.0000000001
44
0.0000000001
40
0
40
0
40
0
40
0
40
1
40
1
40
1
40
1
10
526.30630299999996
20
23.812323000000003
30
0
10
526.00456599999995
20
24.114060000000002
30
0
10
525.83505300000002
20
24.523305000000004
30
0
10
525.83505700000001
20
24.950026000000001
30
0
0
SPLINE
5
364
100
AcDbEntity
8
0
100
AcDbSpline
70
1064
71
3
72
8
73
4
74
0
42
0.000000001
43
0.0000000001
44
0.0000000001
40
0
40
0
40
0
40
0
40
1
40
1
40
1
40
1
10
318.01418100000001
20
420.99420400000008
30
0
10
318.01418000000001
20
421.54029299999996
30
0
10
318.23111400000005
20
422.06401700000004
30
0
10
318.61725899999999
20
422.45015999999998
30
0
0
SPLINE
5
365
100
AcDbEntity
8
0
100
AcDbSpline
70
1064
71
3
72
8
73
4
74
0
42
0.000000001
43
0.0000000001
44
0.0000000001
40
0
40
0
40
0
40
0
40
1
40
1
40
1
40
1
10
525.83505700000001
20
24.950026000000001
30
0
10
525.835061
20
25.376742999999998
30
0
10
526.00457599999993
20
25.785979999999999
30
0
10
526.30631299999993
20
26.087712
30
0
0
SPLINE
5
366
100
AcDbEntity
8
0
100
AcDbSpline
70
1064
71
3
72
8
73
4
74
0
42
0.000000001
43
0.0000000001
44
0.0000000001
40
0
40
0
40
0
40
0
40
1
40
1
40
1
40
1
10
351.629164
20
419.53824800000007
30
0
10
351.243019
20
419.15210400000007
30
0
10
350.71929500000005
20
418.93517300000008
30
0
10
350.17320500000005
20
418.93517500000002
30
0
0
SPLINE
5
367
100
AcDbEntity
8
0
100
AcDbSpline
70
1064
71
3
72
8
73
4
74
0
42
0.000000001
43
0.0000000001
44
0.0000000001
40
0
40
0
40
0
40
0
40
1
40
1
40
1
40
1
10
318.61725899999999
20
419.53824800000007
30
0
10
318.23111400000005
20
419.92439100000007
30
0
10
318.01418000000001
20
420.44811400000003
30
0
10
318.01418100000001
20
420.99420400000008
30
0
0
SPLINE
5
368
100
AcDbEntity
8
0
100
AcDbSpline
70
1064
71
3
72
8
73
4
74
0
42
0.000000001
43
0.0000000001
44
0.0000000001
40
0
40
0
40
0
40
0
40
1
40
1
40
1
40
1
10
509.44799299999994
20
5.3450930000000003
30
0
10
509.02127699999994
20
5.3450880000000005
30
0
10
508.61203699999999
20
5.5145970000000002
30
0
10
508.31029999999998
20
5.8163279999999995
30
0
0
SPLINE
5
369
100
AcDbEntity
8
0
100
AcDbSpline
70
1064
71
3
72
8
73
4
74
0
42
0.000000001
43
0.0000000001
44
0.0000000001
40
0
40
0
40
0
40
0
40
1
40
1
40
1
40
1
10
352.23224199999999
20
420.99420400000008
30
0
10
352.23224199999999
20
420.44811400000003
30
0
10
352.015308
20
419.92439100000007
30
0
10
351.629164
20
419.53824800000007
30
0
0
SPLINE
5
370
100
AcDbEntity
8
0
100
AcDbSpline
70
1064
71
3
72
8
73
4
74
0
42
0.000000001
43
0.0000000001
44
0.0000000001
40
0
40
0
40
0
40
0
40
1
40
1
40
1
40
1
10
508.31029999999998
20
5.8163279999999995
30
0
10
508.00856399999992
20
6.1180590000000006
30
0
10
507.83904800000005
20
6.5272970000000008
30
0
10
507.839045
20
6.9540130000000016
30
0
0
SPLINE
5
371
100
AcDbEntity
8
0
100
AcDbSpline
70
1064
71
3
72
8
73
4
74
0
42
0.000000001
43
0.0000000001
44
0.0000000001
40
0
40
0
40
0
40
0
40
1
40
1
40
1
40
1
10
318.61725899999999
20
422.45015999999998
30
0
10
319.00340299999999
20
422.83630300000004
30
0
10
319.527128
20
423.05323399999997
30
0
10
320.073217
20
423.05323200000004
30
0
0
SPLINE
5
372
100
AcDbEntity
8
0
100
AcDbSpline
70
1064
71
3
72
8
73
4
74
0
42
0.000000001
43
0.0000000001
44
0.0000000001
40
0
40
0
40
0
40
0
40
1
40
1
40
1
40
1
10
507.839045
20
6.9540130000000016
30
0
10
507.83904800000005
20
7.3807300000000007
30
0
10
508.00856399999992
20
7.7899679999999991
30
0
10
508.31029999999998
20
8.091699000000002
30
0
0
SPLINE
5
373
100
AcDbEntity
8
0
100
AcDbSpline
70
1064
71
3
72
8
73
4
74
0
42
0.000000001
43
0.0000000001
44
0.0000000001
40
0
40
0
40
0
40
0
40
1
40
1
40
1
40
1
10
526.30631299999993
20
26.087712
30
0
10
526.60804999999993
20
26.389443000000004
30
0
10
527.01729
20
26.558951000000004
30
0
10
527.44400599999994
20
26.558946999999996
30
0
0
SPLINE
5
374
100
AcDbEntity
8
0
100
AcDbSpline
70
1064
71
3
72
8
73
4
74
0
42
0.000000001
43
0.0000000001
44
0.0000000001
40
0
40
0
40
0
40
0
40
1
40
1
40
1
40
1
10
509.44799299999994
20
8.5629340000000003
30
0
10
510.33657300000004
20
8.5629279999999994
30
0
10
511.05690699999997
20
7.8425929999999999
30
0
10
511.05691400000001
20
6.9540130000000016
30
0
0
SPLINE
5
375
100
AcDbEntity
8
0
100
AcDbSpline
70
1064
71
3
72
8
73
4
74
0
42
0.000000001
43
0.0000000001
44
0.0000000001
40
0
40
0
40
0
40
0
40
1
40
1
40
1
40
1
10
26.663933
20
7.0540029999999989
30
0
10
26.663938000000009
20
6.6272839999999977
30
0
10
26.494426999999998
20
6.2180419999999978
30
0
10
26.192692999999998
20
5.9163049999999986
30
0
0
SPLINE
5
376
100
AcDbEntity
8
0
100
AcDbSpline
70
1064
71
3
72
8
73
4
74
0
42
0.000000001
43
0.0000000001
44
0.0000000001
40
0
40
0
40
0
40
0
40
1
40
1
40
1
40
1
10
26.192692999999998
20
5.9163049999999986
30
0
10
25.890960000000007
20
5.6145679999999984
30
0
10
25.481719000000005
20
5.4450539999999981
30
0
10
25.055000000000007
20
5.4450539999999981
30
0
0
SPLINE
5
377
100
AcDbEntity
8
0
100
AcDbSpline
70
1064
71
3
72
8
73
4
74
0
42
0.000000001
43
0.0000000001
44
0.0000000001
40
0
40
0
40
0
40
0
40
1
40
1
40
1
40
1
10
25.055000000000007
20
5.4450539999999981
30
0
10
24.628282000000006
20
5.4450539999999981
30
0
10
24.219042000000002
20
5.6145679999999984
30
0
10
23.917307999999995
20
5.9163049999999986
30
0
0
SPLINE
5
378
100
AcDbEntity
8
0
100
AcDbSpline
70
1064
71
3
72
8
73
4
74
0
42
0.000000001
43
0.0000000001
44
0.0000000001
40
0
40
0
40
0
40
0
40
1
40
1
40
1
40
1
10
511.05691400000001
20
6.9540130000000016
30
0
10
511.05690699999997
20
6.0654340000000007
30
0
10
510.33657300000004
20
5.3450989999999994
30
0
10
509.44799299999994
20
5.3450930000000003
30
0
0
SPLINE
5
379
100
AcDbEntity
8
0
100
AcDbSpline
70
1064
71
3
72
8
73
4
74
0
42
0.000000001
43
0.0000000001
44
0.0000000001
40
0
40
0
40
0
40
0
40
1
40
1
40
1
40
1
10
8.6789330000000007
20
25.061135
30
0
10
8.6789369999999995
20
24.634417000000003
30
0
10
8.5094270000000005
20
24.225173999999999
30
0
10
8.2076930000000008
20
23.923436999999996
30
0
0
SPLINE
5
380
100
AcDbEntity
8
0
100
AcDbSpline
70
1064
71
3
72
8
73
4
74
0
42
0.000000001
43
0.0000000001
44
0.0000000001
40
0
40
0
40
0
40
0
40
1
40
1
40
1
40
1
10
5.4610670000000008
20
25.061135
30
0
10
5.461074
20
25.949719000000002
30
0
10
6.1814160000000005
20
26.670055999999999
30
0
10
7.0700000000000003
20
26.670055999999999
30
0
0
SPLINE
5
381
100
AcDbEntity
8
0
100
AcDbSpline
70
1064
71
3
72
8
73
4
74
0
42
0.000000001
43
0.0000000001
44
0.0000000001
40
0
40
0
40
0
40
0
40
1
40
1
40
1
40
1
10
8.2076930000000008
20
23.923436999999996
30
0
10
7.9059590000000002
20
23.621699999999997
30
0
10
7.4967179999999995
20
23.452185999999998
30
0
10
7.0700000000000003
20
23.452185999999998
30
0
0
SPLINE
5
382
100
AcDbEntity
8
0
100
AcDbSpline
70
1064
71
3
72
8
73
4
74
0
42
0.000000001
43
0.0000000001
44
0.0000000001
40
0
40
0
40
0
40
0
40
1
40
1
40
1
40
1
10
5.9323069999999998
20
23.923436999999996
30
0
10
5.6305730000000009
20
24.225173999999999
30
0
10
5.4610630000000002
20
24.634417000000003
30
0
10
5.4610670000000008
20
25.061135
30
0
0
SPLINE
5
383
100
AcDbEntity
8
0
100
AcDbSpline
70
1064
71
3
72
8
73
4
74
0
42
0.000000001
43
0.0000000001
44
0.0000000001
40
0
40
0
40
0
40
0
40
1
40
1
40
1
40
1
10
7.0700000000000003
20
23.452185999999998
30
0
10
6.643282000000001
20
23.452185999999998
30
0
10
6.2340410000000013
20
23.621699999999997
30
0
10
5.9323069999999998
20
23.923436999999996
30
0
0
SPLINE
5
384
100
AcDbEntity
8
0
100
AcDbSpline
70
1064
71
3
72
8
73
4
74
0
42
0.000000001
43
0.0000000001
44
0.0000000001
40
0
40
0
40
0
40
0
40
1
40
1
40
1
40
1
10
527.44400599999994
20
23.341077000000002
30
0
10
527.0172849999999
20
23.341073000000002
30
0
10
526.60803999999996
20
23.510585000000003
30
0
10
526.30630299999996
20
23.812323000000003
30
0
0
SPLINE
5
385
100
AcDbEntity
8
0
100
AcDbSpline
70
1064
71
3
72
8
73
4
74
0
42
0.000000001
43
0.0000000001
44
0.0000000001
40
0
40
0
40
0
40
0
40
1
40
1
40
1
40
1
10
508.31029999999998
20
8.091699000000002
30
0
10
508.61203699999999
20
8.3934300000000004
30
0
10
509.02127699999994
20
8.5629390000000001
30
0
10
509.44799299999994
20
8.5629340000000003
30
0
0
SPLINE
5
386
100
AcDbEntity
8
0
100
AcDbSpline
70
1064
71
3
72
8
73
4
74
0
42
0.000000001
43
0.0000000001
44
0.0000000001
40
0
40
0
40
0
40
0
40
1
40
1
40
1
40
1
10
23.446068000000004
20
7.0540029999999989
30
0
10
23.446075000000004
20
7.9425869999999987
30
0
10
24.166416000000002
20
8.6629229999999993
30
0
10
25.055000000000007
20
8.6629229999999993
30
0
0
SPLINE
5
387
100
AcDbEntity
8
0
100
AcDbSpline
70
1064
71
3
72
8
73
4
74
0
42
0.000000001
43
0.0000000001
44
0.0000000001
40
0
40
0
40
0
40
0
40
1
40
1
40
1
40
1
10
320.073217
20
418.93517500000002
30
0
10
319.527128
20
418.93517300000008
30
0
10
319.00340299999999
20
419.15210400000007
30
0
10
318.61725899999999
20
419.53824800000007
30
0
0
SPLINE
5
388
100
AcDbEntity
8
0
100
AcDbSpline
70
1064
71
3
72
8
73
4
74
0
42
0.000000001
43
0.0000000001
44
0.0000000001
40
0
40
0
40
0
40
0
40
1
40
1
40
1
40
1
10
369.264861
20
114.677699
30
0
10
369.62525599999998
20
114.67770000000002
30
0
10
369.97089100000005
20
114.53453300000001
30
0
10
370.225729
20
114.279695
30
0
0
SPLINE
5
389
100
AcDbEntity
8
0
100
AcDbSpline
70
1064
71
3
72
8
73
4
74
0
42
0.000000001
43
0.0000000001
44
0.0000000001
40
0
40
0
40
0
40
0
40
1
40
1
40
1
40
1
10
373.70599500000003
20
113.345074
30
0
10
373.70599500000003
20
113.70547000000001
30
0
10
373.84916099999998
20
114.05110400000001
30
0
10
374.1039990000001
20
114.305942
30
0
0
SPLINE
5
390
100
AcDbEntity
8
0
100
AcDbSpline
70
1064
71
3
72
8
73
4
74
0
42
0.000000001
43
0.0000000001
44
0.0000000001
40
0
40
0
40
0
40
0
40
1
40
1
40
1
40
1
10
367.90598900000009
20
113.31882800000001
30
0
10
367.90598900000009
20
113.67922300000001
30
0
10
368.04915600000004
20
114.02485700000001
30
0
10
368.30399399999999
20
114.279695
30
0
0
SPLINE
5
391
100
AcDbEntity
8
0
100
AcDbSpline
70
1064
71
3
72
8
73
4
74
0
42
0.000000001
43
0.0000000001
44
0.0000000001
40
0
40
0
40
0
40
0
40
1
40
1
40
1
40
1
10
370.225729
20
114.279695
30
0
10
370.48056700000006
20
114.02485700000001
30
0
10
370.62373300000002
20
113.67922300000001
30
0
10
370.62373300000002
20
113.31882800000001
30
0
0
SPLINE
5
392
100
AcDbEntity
8
0
100
AcDbSpline
70
1064
71
3
72
8
73
4
74
0
42
0.000000001
43
0.0000000001
44
0.0000000001
40
0
40
0
40
0
40
0
40
1
40
1
40
1
40
1
10
370.62373300000002
20
113.31882800000001
30
0
10
370.623718
20
112.568354
30
0
10
370.01533499999999
20
111.95998400000001
30
0
10
369.264861
20
111.95998400000001
30
0
0
SPLINE
5
393
100
AcDbEntity
8
0
100
AcDbSpline
70
1064
71
3
72
8
73
4
74
0
42
0.000000001
43
0.0000000001
44
0.0000000001
40
0
40
0
40
0
40
0
40
1
40
1
40
1
40
1
10
368.30399399999999
20
114.279695
30
0
10
368.558832
20
114.53453300000001
30
0
10
368.90446600000007
20
114.67770000000002
30
0
10
369.264861
20
114.677699
30
0
0
SPLINE
5
394
100
AcDbEntity
8
0
100
AcDbSpline
70
1064
71
3
72
8
73
4
74
0
42
0.000000001
43
0.0000000001
44
0.0000000001
40
0
40
0
40
0
40
0
40
1
40
1
40
1
40
1
10
374.1039990000001
20
114.305942
30
0
10
374.35883699999999
20
114.56078000000002
30
0
10
374.70447100000001
20
114.703946
30
0
10
375.06486700000005
20
114.703946
30
0
0
SPLINE
5
395
100
AcDbEntity
8
0
100
AcDbSpline
70
1064
71
3
72
8
73
4
74
0
42
0.000000001
43
0.0000000001
44
0.0000000001
40
0
40
0
40
0
40
0
40
1
40
1
40
1
40
1
10
429.75419900000009
20
486.74216900000005
30
0
10
429.20810899999998
20
486.742166
30
0
10
428.68438499999996
20
486.9590980000001
30
0
10
428.29824100000002
20
487.34524099999999
30
0
0
SPLINE
5
396
100
AcDbEntity
8
0
100
AcDbSpline
70
1064
71
3
72
8
73
4
74
0
42
0.000000001
43
0.0000000001
44
0.0000000001
40
0
40
0
40
0
40
0
40
1
40
1
40
1
40
1
10
428.29824100000002
20
487.34524099999999
30
0
10
427.91209600000002
20
487.73138399999999
30
0
10
427.69516200000004
20
488.25510700000001
30
0
10
427.69516200000004
20
488.801197
30
0
0
SPLINE
5
397
100
AcDbEntity
8
0
100
AcDbSpline
70
1064
71
3
72
8
73
4
74
0
42
0.000000001
43
0.0000000001
44
0.0000000001
40
0
40
0
40
0
40
0
40
1
40
1
40
1
40
1
10
431.21015800000009
20
487.34524099999999
30
0
10
430.82401300000004
20
486.9590980000001
30
0
10
430.30028899999996
20
486.742166
30
0
10
429.75419900000009
20
486.74216900000005
30
0
0
SPLINE
5
398
100
AcDbEntity
8
0
100
AcDbSpline
70
1064
71
3
72
8
73
4
74
0
42
0.000000001
43
0.0000000001
44
0.0000000001
40
0
40
0
40
0
40
0
40
1
40
1
40
1
40
1
10
427.69516200000004
20
488.801197
30
0
10
427.69516200000004
20
489.34728699999999
30
0
10
427.91209600000002
20
489.87100999999996
30
0
10
428.29824100000002
20
490.25715300000002
30
0
0
SPLINE
5
399
100
AcDbEntity
8
0
100
AcDbSpline
70
1064
71
3
72
8
73
4
74
0
42
0.000000001
43
0.0000000001
44
0.0000000001
40
0
40
0
40
0
40
0
40
1
40
1
40
1
40
1
10
152.52885600000002
20
34.066867000000002
30
0
10
152.914986
20
33.680731999999999
30
0
10
153.13190900000001
20
33.157021999999998
30
0
10
153.13190399999999
20
32.610948999999998
30
0
0
SPLINE
5
400
100
AcDbEntity
8
0
100
AcDbSpline
70
1064
71
3
72
8
73
4
74
0
42
0.000000001
43
0.0000000001
44
0.0000000001
40
0
40
0
40
0
40
0
40
1
40
1
40
1
40
1
10
149.61703199999999
20
34.066865999999997
30
0
10
150.003162
20
34.453000000000003
30
0
10
150.52687
20
34.669928999999996
30
0
10
151.07294300000001
20
34.669928999999996
30
0
0
SPLINE
5
401
100
AcDbEntity
8
0
100
AcDbSpline
70
1064
71
3
72
8
73
4
74
0
42
0.000000001
43
0.0000000001
44
0.0000000001
40
0
40
0
40
0
40
0
40
1
40
1
40
1
40
1
10
368.30399399999999
20
269.30800299999999
30
0
10
368.04915600000004
20
269.56284099999999
30
0
10
367.90598900000009
20
269.90847500000001
30
0
10
367.90598900000009
20
270.26887099999999
30
0
0
SPLINE
5
402
100
AcDbEntity
8
0
100
AcDbSpline
70
1064
71
3
72
8
73
4
74
0
42
0.000000001
43
0.0000000001
44
0.0000000001
40
0
40
0
40
0
40
0
40
1
40
1
40
1
40
1
10
365.24175500000001
20
275.29507599999999
30
0
10
365.24175500000001
20
274.93468100000001
30
0
10
365.09858900000006
20
274.58904699999999
30
0
10
364.843751
20
274.33420899999999
30
0
0
SPLINE
5
403
100
AcDbEntity
8
0
100
AcDbSpline
70
1064
71
3
72
8
73
4
74
0
42
0.000000001
43
0.0000000001
44
0.0000000001
40
0
40
0
40
0
40
0
40
1
40
1
40
1
40
1
10
364.843751
20
276.255944
30
0
10
365.09858900000006
20
276.00110599999999
30
0
10
365.24175500000001
20
275.65547200000003
30
0
10
365.24175500000001
20
275.29507599999999
30
0
0
SPLINE
5
404
100
AcDbEntity
8
0
100
AcDbSpline
70
1064
71
3
72
8
73
4
74
0
42
0.000000001
43
0.0000000001
44
0.0000000001
40
0
40
0
40
0
40
0
40
1
40
1
40
1
40
1
10
363.88288299999999
20
273.93620499999997
30
0
10
363.52248800000007
20
273.93620400000003
30
0
10
363.17685400000005
20
274.07937099999998
30
0
10
362.92201600000004
20
274.33420899999999
30
0
0
SPLINE
5
405
100
AcDbEntity
8
0
100
AcDbSpline
70
1064
71
3
72
8
73
4
74
0
42
0.000000001
43
0.0000000001
44
0.0000000001
40
0
40
0
40
0
40
0
40
1
40
1
40
1
40
1
10
367.90598900000009
20
270.26887099999999
30
0
10
367.90599100000003
20
271.01935400000002
30
0
10
368.51437799999997
20
271.62774000000002
30
0
10
369.264861
20
271.62774000000002
30
0
0
SPLINE
5
406
100
AcDbEntity
8
0
100
AcDbSpline
70
1064
71
3
72
8
73
4
74
0
42
0.000000001
43
0.0000000001
44
0.0000000001
40
0
40
0
40
0
40
0
40
1
40
1
40
1
40
1
10
364.843751
20
274.33420899999999
30
0
10
364.58891299999999
20
274.07937099999998
30
0
10
364.24327900000003
20
273.93620400000003
30
0
10
363.88288299999999
20
273.93620499999997
30
0
0
SPLINE
5
407
100
AcDbEntity
8
0
100
AcDbSpline
70
1064
71
3
72
8
73
4
74
0
42
0.000000001
43
0.0000000001
44
0.0000000001
40
0
40
0
40
0
40
0
40
1
40
1
40
1
40
1
10
362.92201600000004
20
276.255944
30
0
10
363.17685400000005
20
276.51078200000001
30
0
10
363.52248800000007
20
276.65394800000001
30
0
10
363.88288299999999
20
276.65394800000001
30
0
0
SPLINE
5
408
100
AcDbEntity
8
0
100
AcDbSpline
70
1064
71
3
72
8
73
4
74
0
42
0.000000001
43
0.0000000001
44
0.0000000001
40
0
40
0
40
0
40
0
40
1
40
1
40
1
40
1
10
362.92201600000004
20
274.33420899999999
30
0
10
362.66717800000004
20
274.58904699999999
30
0
10
362.52401099999997
20
274.93468100000001
30
0
10
362.52401200000003
20
275.29507599999999
30
0
0
SPLINE
5
409
100
AcDbEntity
8
0
100
AcDbSpline
70
1064
71
3
72
8
73
4
74
0
42
0.000000001
43
0.0000000001
44
0.0000000001
40
0
40
0
40
0
40
0
40
1
40
1
40
1
40
1
10
522.30420700000002
20
366.86116800000002
30
0
10
521.75811799999997
20
366.86116499999997
30
0
10
521.23439299999995
20
367.07809700000007
30
0
10
520.84824900000001
20
367.46423999999996
30
0
0
SPLINE
5
410
100
AcDbEntity
8
0
100
AcDbSpline
70
1064
71
3
72
8
73
4
74
0
42
0.000000001
43
0.0000000001
44
0.0000000001
40
0
40
0
40
0
40
0
40
1
40
1
40
1
40
1
10
520.84824900000001
20
370.37615200000005
30
0
10
521.23439299999995
20
370.76229500000005
30
0
10
521.75811799999997
20
370.97922699999998
30
0
10
522.30420700000002
20
370.97922500000004
30
0
0
SPLINE
5
411
100
AcDbEntity
8
0
100
AcDbSpline
70
1064
71
3
72
8
73
4
74
0
42
0.000000001
43
0.0000000001
44
0.0000000001
40
0
40
0
40
0
40
0
40
1
40
1
40
1
40
1
10
362.52401200000003
20
275.29507599999999
30
0
10
362.52401099999997
20
275.65547200000003
30
0
10
362.66717800000004
20
276.00110599999999
30
0
10
362.92201600000004
20
276.255944
30
0
0
SPLINE
5
412
100
AcDbEntity
8
0
100
AcDbSpline
70
1064
71
3
72
8
73
4
74
0
42
0.000000001
43
0.0000000001
44
0.0000000001
40
0
40
0
40
0
40
0
40
1
40
1
40
1
40
1
10
358.08287800000005
20
276.62773000000004
30
0
10
358.83336100000002
20
276.62773000000004
30
0
10
359.44174900000002
20
276.01934399999999
30
0
10
359.44175000000001
20
275.26886100000002
30
0
0
SPLINE
5
413
100
AcDbEntity
8
0
100
AcDbSpline
70
1064
71
3
72
8
73
4
74
0
42
0.000000001
43
0.0000000001
44
0.0000000001
40
0
40
0
40
0
40
0
40
1
40
1
40
1
40
1
10
523.76016600000003
20
367.46423999999996
30
0
10
523.37402099999997
20
367.07809700000007
30
0
10
522.85029699999996
20
366.86116499999997
30
0
10
522.30420700000002
20
366.86116800000002
30
0
0
SPLINE
5
414
100
AcDbEntity
8
0
100
AcDbSpline
70
1064
71
3
72
8
73
4
74
0
42
0.000000001
43
0.0000000001
44
0.0000000001
40
0
40
0
40
0
40
0
40
1
40
1
40
1
40
1
10
520.84824900000001
20
367.46423999999996
30
0
10
520.46210399999995
20
367.85038299999997
30
0
10
520.24517000000003
20
368.37410599999998
30
0
10
520.24517100000003
20
368.92019599999998
30
0
0
SPLINE
5
415
100
AcDbEntity
8
0
100
AcDbSpline
70
1064
71
3
72
8
73
4
74
0
42
0.000000001
43
0.0000000001
44
0.0000000001
40
0
40
0
40
0
40
0
40
1
40
1
40
1
40
1
10
359.44175000000001
20
275.26886100000002
30
0
10
359.44175000000001
20
274.90846499999998
30
0
10
359.29858400000001
20
274.56283100000002
30
0
10
359.04374600000006
20
274.30799300000001
30
0
0
SPLINE
5
416
100
AcDbEntity
8
0
100
AcDbSpline
70
1064
71
3
72
8
73
4
74
0
42
0.000000001
43
0.0000000001
44
0.0000000001
40
0
40
0
40
0
40
0
40
1
40
1
40
1
40
1
10
359.04374600000006
20
274.30799300000001
30
0
10
358.78890799999999
20
274.053155
30
0
10
358.44327299999998
20
273.909989
30
0
10
358.08287800000005
20
273.909989
30
0
0
SPLINE
5
417
100
AcDbEntity
8
0
100
AcDbSpline
70
1064
71
3
72
8
73
4
74
0
42
0.000000001
43
0.0000000001
44
0.0000000001
40
0
40
0
40
0
40
0
40
1
40
1
40
1
40
1
10
363.88288299999999
20
276.65394800000001
30
0
10
364.24327900000003
20
276.65394800000001
30
0
10
364.58891299999999
20
276.51078200000001
30
0
10
364.843751
20
276.255944
30
0
0
SPLINE
5
418
100
AcDbEntity
8
0
100
AcDbSpline
70
1064
71
3
72
8
73
4
74
0
42
0.000000001
43
0.0000000001
44
0.0000000001
40
0
40
0
40
0
40
0
40
1
40
1
40
1
40
1
10
358.08287800000005
20
273.909989
30
0
10
357.72248300000001
20
273.909989
30
0
10
357.37684800000005
20
274.053155
30
0
10
357.12200999999999
20
274.30799300000001
30
0
0
SPLINE
5
419
100
AcDbEntity
8
0
100
AcDbSpline
70
1064
71
3
72
8
73
4
74
0
42
0.000000001
43
0.0000000001
44
0.0000000001
40
0
40
0
40
0
40
0
40
1
40
1
40
1
40
1
10
151.07294300000001
20
34.669928999999996
30
0
10
151.61901699999999
20
34.669928999999996
30
0
10
152.14272500000001
20
34.453001
30
0
10
152.52885600000002
20
34.066867000000002
30
0
0
SPLINE
5
420
100
AcDbEntity
8
0
100
AcDbSpline
70
1064
71
3
72
8
73
4
74
0
42
0.000000001
43
0.0000000001
44
0.0000000001
40
0
40
0
40
0
40
0
40
1
40
1
40
1
40
1
10
524.36324400000001
20
368.92019599999998
30
0
10
524.36324400000001
20
368.37410599999998
30
0
10
524.14631100000008
20
367.85038299999997
30
0
10
523.76016600000003
20
367.46423999999996
30
0
0
SPLINE
5
421
100
AcDbEntity
8
0
100
AcDbSpline
70
1064
71
3
72
8
73
4
74
0
42
0.000000001
43
0.0000000001
44
0.0000000001
40
0
40
0
40
0
40
0
40
1
40
1
40
1
40
1
10
520.24517100000003
20
368.92019599999998
30
0
10
520.24517000000003
20
369.46628599999997
30
0
10
520.46210399999995
20
369.99000899999999
30
0
10
520.84824900000001
20
370.37615200000005
30
0
0
SPLINE
5
422
100
AcDbEntity
8
0
100
AcDbSpline
70
1064
71
3
72
8
73
4
74
0
42
0.000000001
43
0.0000000001
44
0.0000000001
40
0
40
0
40
0
40
0
40
1
40
1
40
1
40
1
10
522.30420700000002
20
370.97922500000004
30
0
10
522.85029699999996
20
370.97922699999998
30
0
10
523.37402099999997
20
370.76229500000005
30
0
10
523.76016600000003
20
370.37615200000005
30
0
0
SPLINE
5
423
100
AcDbEntity
8
0
100
AcDbSpline
70
1064
71
3
72
8
73
4
74
0
42
0.000000001
43
0.0000000001
44
0.0000000001
40
0
40
0
40
0
40
0
40
1
40
1
40
1
40
1
10
357.12200999999999
20
117.357922
30
0
10
356.86717299999998
20
117.61276000000002
30
0
10
356.72400600000003
20
117.958394
30
0
10
356.72400600000003
20
118.318789
30
0
0
SPLINE
5
424
100
AcDbEntity
8
0
100
AcDbSpline
70
1064
71
3
72
8
73
4
74
0
42
0.000000001
43
0.0000000001
44
0.0000000001
40
0
40
0
40
0
40
0
40
1
40
1
40
1
40
1
10
363.88288299999999
20
195.461186
30
0
10
363.52248800000007
20
195.461186
30
0
10
363.17685400000005
20
195.60435200000001
30
0
10
362.92201600000004
20
195.85919000000001
30
0
0
SPLINE
5
425
100
AcDbEntity
8
0
100
AcDbSpline
70
1064
71
3
72
8
73
4
74
0
42
0.000000001
43
0.0000000001
44
0.0000000001
40
0
40
0
40
0
40
0
40
1
40
1
40
1
40
1
10
375.06486700000005
20
350.40095700000001
30
0
10
375.42526200000003
20
350.40095700000001
30
0
10
375.77089599999999
20
350.257791
30
0
10
376.02573400000006
20
350.00295299999999
30
0
0
SPLINE
5
426
100
AcDbEntity
8
0
100
AcDbSpline
70
1064
71
3
72
8
73
4
74
0
42
0.000000001
43
0.0000000001
44
0.0000000001
40
0
40
0
40
0
40
0
40
1
40
1
40
1
40
1
10
368.30399399999999
20
190.83298200000002
30
0
10
368.04915600000004
20
191.087819
30
0
10
367.90598900000009
20
191.43345400000001
30
0
10
367.90598900000009
20
191.79384899999999
30
0
0
SPLINE
5
427
100
AcDbEntity
8
0
100
AcDbSpline
70
1064
71
3
72
8
73
4
74
0
42
0.000000001
43
0.0000000001
44
0.0000000001
40
0
40
0
40
0
40
0
40
1
40
1
40
1
40
1
10
375.06486700000005
20
193.178968
30
0
10
375.42526200000003
20
193.178968
30
0
10
375.77089599999999
20
193.03580100000002
30
0
10
376.02573400000006
20
192.78096399999998
30
0
0
SPLINE
5
428
100
AcDbEntity
8
0
100
AcDbSpline
70
1064
71
3
72
8
73
4
74
0
42
0.000000001
43
0.0000000001
44
0.0000000001
40
0
40
0
40
0
40
0
40
1
40
1
40
1
40
1
10
373.70599500000003
20
191.82009600000001
30
0
10
373.70599500000003
20
192.18049100000002
30
0
10
373.84916099999998
20
192.52612600000003
30
0
10
374.1039990000001
20
192.78096399999998
30
0
0
SPLINE
5
429
100
AcDbEntity
8
0
100
AcDbSpline
70
1064
71
3
72
8
73
4
74
0
42
0.000000001
43
0.0000000001
44
0.0000000001
40
0
40
0
40
0
40
0
40
1
40
1
40
1
40
1
10
370.62373300000002
20
191.79384899999999
30
0
10
370.62373300000002
20
191.43345400000001
30
0
10
370.48056700000006
20
191.087819
30
0
10
370.225729
20
190.83298200000002
30
0
0
SPLINE
5
430
100
AcDbEntity
8
0
100
AcDbSpline
70
1064
71
3
72
8
73
4
74
0
42
0.000000001
43
0.0000000001
44
0.0000000001
40
0
40
0
40
0
40
0
40
1
40
1
40
1
40
1
10
357.12200999999999
20
274.30799300000001
30
0
10
356.86717299999998
20
274.56283100000002
30
0
10
356.72400600000003
20
274.90846499999998
30
0
10
356.72400600000003
20
275.26886100000002
30
0
0
SPLINE
5
431
100
AcDbEntity
8
0
100
AcDbSpline
70
1064
71
3
72
8
73
4
74
0
42
0.000000001
43
0.0000000001
44
0.0000000001
40
0
40
0
40
0
40
0
40
1
40
1
40
1
40
1
10
370.225729
20
192.754717
30
0
10
370.48056700000006
20
192.49987900000002
30
0
10
370.62373300000002
20
192.15424400000003
30
0
10
370.62373300000002
20
191.79384899999999
30
0
0
SPLINE
5
432
100
AcDbEntity
8
0
100
AcDbSpline
70
1064
71
3
72
8
73
4
74
0
42
0.000000001
43
0.0000000001
44
0.0000000001
40
0
40
0
40
0
40
0
40
1
40
1
40
1
40
1
10
376.02573400000006
20
190.85922800000003
30
0
10
375.77089599999999
20
190.60439
30
0
10
375.42526200000003
20
190.46122399999999
30
0
10
375.06486700000005
20
190.46122399999999
30
0
0
SPLINE
5
433
100
AcDbEntity
8
0
100
AcDbSpline
70
1064
71
3
72
8
73
4
74
0
42
0.000000001
43
0.0000000001
44
0.0000000001
40
0
40
0
40
0
40
0
40
1
40
1
40
1
40
1
10
376.42373800000001
20
191.82009600000001
30
0
10
376.42373900000001
20
191.459701
30
0
10
376.28057200000001
20
191.11406599999998
30
0
10
376.02573400000006
20
190.85922800000003
30
0
0
SPLINE
5
434
100
AcDbEntity
8
0
100
AcDbSpline
70
1064
71
3
72
8
73
4
74
0
42
0.000000001
43
0.0000000001
44
0.0000000001
40
0
40
0
40
0
40
0
40
1
40
1
40
1
40
1
10
363.88288299999999
20
198.17892900000004
30
0
10
364.24327900000003
20
198.17893000000001
30
0
10
364.58891299999999
20
198.03576300000003
30
0
10
364.843751
20
197.780925
30
0
0
SPLINE
5
435
100
AcDbEntity
8
0
100
AcDbSpline
70
1064
71
3
72
8
73
4
74
0
42
0.000000001
43
0.0000000001
44
0.0000000001
40
0
40
0
40
0
40
0
40
1
40
1
40
1
40
1
10
374.1039990000001
20
192.78096399999998
30
0
10
374.35883699999999
20
193.03580100000002
30
0
10
374.70447100000001
20
193.178968
30
0
10
375.06486700000005
20
193.178968
30
0
0
SPLINE
5
436
100
AcDbEntity
8
0
100
AcDbSpline
70
1064
71
3
72
8
73
4
74
0
42
0.000000001
43
0.0000000001
44
0.0000000001
40
0
40
0
40
0
40
0
40
1
40
1
40
1
40
1
10
356.72400600000003
20
275.26886100000002
30
0
10
356.72400800000003
20
276.01934399999999
30
0
10
357.33239500000002
20
276.62773000000004
30
0
10
358.08287800000005
20
276.62773000000004
30
0
0
SPLINE
5
437
100
AcDbEntity
8
0
100
AcDbSpline
70
1064
71
3
72
8
73
4
74
0
42
0.000000001
43
0.0000000001
44
0.0000000001
40
0
40
0
40
0
40
0
40
1
40
1
40
1
40
1
10
364.843751
20
197.780925
30
0
10
365.09858900000006
20
197.52608700000002
30
0
10
365.24175500000001
20
197.180453
30
0
10
365.24175500000001
20
196.82005800000002
30
0
0
SPLINE
5
438
100
AcDbEntity
8
0
100
AcDbSpline
70
1064
71
3
72
8
73
4
74
0
42
0.000000001
43
0.0000000001
44
0.0000000001
40
0
40
0
40
0
40
0
40
1
40
1
40
1
40
1
10
374.1039990000001
20
190.85922800000003
30
0
10
373.84916099999998
20
191.11406599999998
30
0
10
373.70599500000003
20
191.459701
30
0
10
373.70599500000003
20
191.82009600000001
30
0
0
SPLINE
5
439
100
AcDbEntity
8
0
100
AcDbSpline
70
1064
71
3
72
8
73
4
74
0
42
0.000000001
43
0.0000000001
44
0.0000000001
40
0
40
0
40
0
40
0
40
1
40
1
40
1
40
1
10
376.02573400000006
20
192.78096399999998
30
0
10
376.28057200000001
20
192.52612600000003
30
0
10
376.42373900000001
20
192.18049100000002
30
0
10
376.42373800000001
20
191.82009600000001
30
0
0
SPLINE
5
440
100
AcDbEntity
8
0
100
AcDbSpline
70
1064
71
3
72
8
73
4
74
0
42
0.000000001
43
0.0000000001
44
0.0000000001
40
0
40
0
40
0
40
0
40
1
40
1
40
1
40
1
10
367.90598900000009
20
191.79384899999999
30
0
10
367.90598900000009
20
192.15424400000003
30
0
10
368.04915600000004
20
192.49987900000002
30
0
10
368.30399399999999
20
192.754717
30
0
0
SPLINE
5
441
100
AcDbEntity
8
0
100
AcDbSpline
70
1064
71
3
72
8
73
4
74
0
42
0.000000001
43
0.0000000001
44
0.0000000001
40
0
40
0
40
0
40
0
40
1
40
1
40
1
40
1
10
375.06486700000005
20
190.46122399999999
30
0
10
374.70447100000001
20
190.46122399999999
30
0
10
374.35883699999999
20
190.60439
30
0
10
374.1039990000001
20
190.85922800000003
30
0
0
SPLINE
5
442
100
AcDbEntity
8
0
100
AcDbSpline
70
1064
71
3
72
8
73
4
74
0
42
0.000000001
43
0.0000000001
44
0.0000000001
40
0
40
0
40
0
40
0
40
1
40
1
40
1
40
1
10
368.30399399999999
20
192.754717
30
0
10
368.558832
20
193.00955500000001
30
0
10
368.90446600000007
20
193.15272100000001
30
0
10
369.264861
20
193.15272100000001
30
0
0
SPLINE
5
443
100
AcDbEntity
8
0
100
AcDbSpline
70
1064
71
3
72
8
73
4
74
0
42
0.000000001
43
0.0000000001
44
0.0000000001
40
0
40
0
40
0
40
0
40
1
40
1
40
1
40
1
10
369.264861
20
193.15272100000001
30
0
10
369.62525599999998
20
193.15272100000001
30
0
10
369.97089100000005
20
193.00955500000001
30
0
10
370.225729
20
192.754717
30
0
0
SPLINE
5
444
100
AcDbEntity
8
0
100
AcDbSpline
70
1064
71
3
72
8
73
4
74
0
42
0.000000001
43
0.0000000001
44
0.0000000001
40
0
40
0
40
0
40
0
40
1
40
1
40
1
40
1
10
365.24175500000001
20
196.82005800000002
30
0
10
365.24175500000001
20
196.45966200000004
30
0
10
365.09858900000006
20
196.11402800000002
30
0
10
364.843751
20
195.85919000000001
30
0
0
SPLINE
5
445
100
AcDbEntity
8
0
100
AcDbSpline
70
1064
71
3
72
8
73
4
74
0
42
0.000000001
43
0.0000000001
44
0.0000000001
40
0
40
0
40
0
40
0
40
1
40
1
40
1
40
1
10
364.843751
20
195.85919000000001
30
0
10
364.58891299999999
20
195.60435200000001
30
0
10
364.24327900000003
20
195.461186
30
0
10
363.88288299999999
20
195.461186
30
0
0
SPLINE
5
446
100
AcDbEntity
8
0
100
AcDbSpline
70
1064
71
3
72
8
73
4
74
0
42
0.000000001
43
0.0000000001
44
0.0000000001
40
0
40
0
40
0
40
0
40
1
40
1
40
1
40
1
10
369.264861
20
190.434977
30
0
10
368.90446600000007
20
190.434977
30
0
10
368.558832
20
190.57814399999998
30
0
10
368.30399399999999
20
190.83298200000002
30
0
0
SPLINE
5
447
100
AcDbEntity
8
0
100
AcDbSpline
70
1064
71
3
72
8
73
4
74
0
42
0.000000001
43
0.0000000001
44
0.0000000001
40
0
40
0
40
0
40
0
40
1
40
1
40
1
40
1
10
362.92201600000004
20
195.85919000000001
30
0
10
362.66717800000004
20
196.11402800000002
30
0
10
362.52401099999997
20
196.45966200000004
30
0
10
362.52401200000003
20
196.82005800000002
30
0
0
SPLINE
5
448
100
AcDbEntity
8
0
100
AcDbSpline
70
1064
71
3
72
8
73
4
74
0
42
0.000000001
43
0.0000000001
44
0.0000000001
40
0
40
0
40
0
40
0
40
1
40
1
40
1
40
1
10
359.44175000000001
20
118.318789
30
0
10
359.44175000000001
20
117.958394
30
0
10
359.29858400000001
20
117.61276000000002
30
0
10
359.04374600000006
20
117.357922
30
0
0
SPLINE
5
449
100
AcDbEntity
8
0
100
AcDbSpline
70
1064
71
3
72
8
73
4
74
0
42
0.000000001
43
0.0000000001
44
0.0000000001
40
0
40
0
40
0
40
0
40
1
40
1
40
1
40
1
10
359.04374600000006
20
119.27965700000001
30
0
10
359.29858400000001
20
119.02481899999999
30
0
10
359.44175000000001
20
118.67918500000002
30
0
10
359.44175000000001
20
118.318789
30
0
0
SPLINE
5
450
100
AcDbEntity
8
0
100
AcDbSpline
70
1064
71
3
72
8
73
4
74
0
42
0.000000001
43
0.0000000001
44
0.0000000001
40
0
40
0
40
0
40
0
40
1
40
1
40
1
40
1
10
359.04374600000006
20
117.357922
30
0
10
358.78890799999999
20
117.10308400000002
30
0
10
358.44327299999998
20
116.959917
30
0
10
358.08287800000005
20
116.959918
30
0
0
SPLINE
5
451
100
AcDbEntity
8
0
100
AcDbSpline
70
1064
71
3
72
8
73
4
74
0
42
0.000000001
43
0.0000000001
44
0.0000000001
40
0
40
0
40
0
40
0
40
1
40
1
40
1
40
1
10
358.08287800000005
20
116.959918
30
0
10
357.72248300000001
20
116.959917
30
0
10
357.37684800000005
20
117.10308400000002
30
0
10
357.12200999999999
20
117.357922
30
0
0
SPLINE
5
452
100
AcDbEntity
8
0
100
AcDbSpline
70
1064
71
3
72
8
73
4
74
0
42
0.000000001
43
0.0000000001
44
0.0000000001
40
0
40
0
40
0
40
0
40
1
40
1
40
1
40
1
10
370.225729
20
190.83298200000002
30
0
10
369.97089100000005
20
190.57814399999998
30
0
10
369.62525599999998
20
190.434977
30
0
10
369.264861
20
190.434977
30
0
0
SPLINE
5
453
100
AcDbEntity
8
0
100
AcDbSpline
70
1064
71
3
72
8
73
4
74
0
42
0.000000001
43
0.0000000001
44
0.0000000001
40
0
40
0
40
0
40
0
40
1
40
1
40
1
40
1
10
373.70599500000003
20
349.04208500000004
30
0
10
373.70599500000003
20
349.40248100000008
30
0
10
373.84916099999998
20
349.74811499999998
30
0
10
374.1039990000001
20
350.00295299999999
30
0
0
SPLINE
5
454
100
AcDbEntity
8
0
100
AcDbSpline
70
1064
71
3
72
8
73
4
74
0
42
0.000000001
43
0.0000000001
44
0.0000000001
40
0
40
0
40
0
40
0
40
1
40
1
40
1
40
1
10
376.02573400000006
20
350.00295299999999
30
0
10
376.28057200000001
20
349.74811499999998
30
0
10
376.42373900000001
20
349.40248100000008
30
0
10
376.42373800000001
20
349.04208500000004
30
0
0
SPLINE
5
455
100
AcDbEntity
8
0
100
AcDbSpline
70
1064
71
3
72
8
73
4
74
0
42
0.000000001
43
0.0000000001
44
0.0000000001
40
0
40
0
40
0
40
0
40
1
40
1
40
1
40
1
10
376.42373800000001
20
349.04208500000004
30
0
10
376.42373900000001
20
348.68169
30
0
10
376.28057200000001
20
348.33605599999999
30
0
10
376.02573400000006
20
348.08121800000004
30
0
0
SPLINE
5
456
100
AcDbEntity
8
0
100
AcDbSpline
70
1064
71
3
72
8
73
4
74
0
42
0.000000001
43
0.0000000001
44
0.0000000001
40
0
40
0
40
0
40
0
40
1
40
1
40
1
40
1
10
375.06486700000005
20
347.68321400000002
30
0
10
374.70447100000001
20
347.68321400000002
30
0
10
374.35883699999999
20
347.82637999999997
30
0
10
374.1039990000001
20
348.08121800000004
30
0
0
SPLINE
5
457
100
AcDbEntity
8
0
100
AcDbSpline
70
1064
71
3
72
8
73
4
74
0
42
0.000000001
43
0.0000000001
44
0.0000000001
40
0
40
0
40
0
40
0
40
1
40
1
40
1
40
1
10
357.12200999999999
20
119.27965700000001
30
0
10
357.37684800000005
20
119.53449499999999
30
0
10
357.72248300000001
20
119.67766100000003
30
0
10
358.08287800000005
20
119.67766100000003
30
0
0
SPLINE
5
458
100
AcDbEntity
8
0
100
AcDbSpline
70
1064
71
3
72
8
73
4
74
0
42
0.000000001
43
0.0000000001
44
0.0000000001
40
0
40
0
40
0
40
0
40
1
40
1
40
1
40
1
10
374.1039990000001
20
350.00295299999999
30
0
10
374.35883699999999
20
350.257791
30
0
10
374.70447100000001
20
350.40095700000001
30
0
10
375.06486700000005
20
350.40095700000001
30
0
0
SPLINE
5
459
100
AcDbEntity
8
0
100
AcDbSpline
70
1064
71
3
72
8
73
4
74
0
42
0.000000001
43
0.0000000001
44
0.0000000001
40
0
40
0
40
0
40
0
40
1
40
1
40
1
40
1
10
356.72400600000003
20
118.318789
30
0
10
356.72400600000003
20
118.67918500000002
30
0
10
356.86717299999998
20
119.02481899999999
30
0
10
357.12200999999999
20
119.27965700000001
30
0
0
SPLINE
5
460
100
AcDbEntity
8
0
100
AcDbSpline
70
1064
71
3
72
8
73
4
74
0
42
0.000000001
43
0.0000000001
44
0.0000000001
40
0
40
0
40
0
40
0
40
1
40
1
40
1
40
1
10
374.1039990000001
20
348.08121800000004
30
0
10
373.84916099999998
20
348.33605599999999
30
0
10
373.70599500000003
20
348.68169
30
0
10
373.70599500000003
20
349.04208500000004
30
0
0
SPLINE
5
461
100
AcDbEntity
8
0
100
AcDbSpline
70
1064
71
3
72
8
73
4
74
0
42
0.000000001
43
0.0000000001
44
0.0000000001
40
0
40
0
40
0
40
0
40
1
40
1
40
1
40
1
10
376.02573400000006
20
348.08121800000004
30
0
10
375.77089599999999
20
347.82637999999997
30
0
10
375.42526200000003
20
347.68321400000002
30
0
10
375.06486700000005
20
347.68321400000002
30
0
0
SPLINE
5
462
100
AcDbEntity
8
0
100
AcDbSpline
70
1064
71
3
72
8
73
4
74
0
42
0.000000001
43
0.0000000001
44
0.0000000001
40
0
40
0
40
0
40
0
40
1
40
1
40
1
40
1
10
368.30399399999999
20
348.05500200000006
30
0
10
368.04915600000004
20
348.30984000000001
30
0
10
367.90598900000009
20
348.65547500000002
30
0
10
367.90598900000009
20
349.01587000000001
30
0
0
SPLINE
5
463
100
AcDbEntity
8
0
100
AcDbSpline
70
1064
71
3
72
8
73
4
74
0
42
0.000000001
43
0.0000000001
44
0.0000000001
40
0
40
0
40
0
40
0
40
1
40
1
40
1
40
1
10
370.62373300000002
20
349.01587000000001
30
0
10
370.62373300000002
20
348.65547500000002
30
0
10
370.48056700000006
20
348.30984000000001
30
0
10
370.225729
20
348.05500200000006
30
0
0
SPLINE
5
464
100
AcDbEntity
8
0
100
AcDbSpline
70
1064
71
3
72
8
73
4
74
0
42
0.000000001
43
0.0000000001
44
0.0000000001
40
0
40
0
40
0
40
0
40
1
40
1
40
1
40
1
10
370.225729
20
348.05500200000006
30
0
10
369.97089100000005
20
347.800164
30
0
10
369.62525599999998
20
347.65699799999999
30
0
10
369.264861
20
347.65699799999999
30
0
0
SPLINE
5
465
100
AcDbEntity
8
0
100
AcDbSpline
70
1064
71
3
72
8
73
4
74
0
42
0.000000001
43
0.0000000001
44
0.0000000001
40
0
40
0
40
0
40
0
40
1
40
1
40
1
40
1
10
369.264861
20
350.37473900000003
30
0
10
370.01534399999997
20
350.37473900000003
30
0
10
370.62373199999996
20
349.76635299999998
30
0
10
370.62373300000002
20
349.01587000000001
30
0
0
SPLINE
5
466
100
AcDbEntity
8
0
100
AcDbSpline
70
1064
71
3
72
8
73
4
74
0
42
0.000000001
43
0.0000000001
44
0.0000000001
40
0
40
0
40
0
40
0
40
1
40
1
40
1
40
1
10
369.264861
20
347.65699799999999
30
0
10
368.90446600000007
20
347.65699799999999
30
0
10
368.558832
20
347.800164
30
0
10
368.30399399999999
20
348.05500200000006
30
0
0
SPLINE
5
467
100
AcDbEntity
8
0
100
AcDbSpline
70
1064
71
3
72
8
73
4
74
0
42
0.000000001
43
0.0000000001
44
0.0000000001
40
0
40
0
40
0
40
0
40
1
40
1
40
1
40
1
10
367.90598900000009
20
349.01587000000001
30
0
10
367.90599100000003
20
349.76635299999998
30
0
10
368.51437799999997
20
350.37473900000003
30
0
10
369.264861
20
350.37473900000003
30
0
0
SPLINE
5
468
100
AcDbEntity
8
0
100
AcDbSpline
70
1064
71
3
72
8
73
4
74
0
42
0.000000001
43
0.0000000001
44
0.0000000001
40
0
40
0
40
0
40
0
40
1
40
1
40
1
40
1
10
363.88288299999999
20
355.40094700000003
30
0
10
364.24327900000003
20
355.40094700000003
30
0
10
364.58891299999999
20
355.25778100000002
30
0
10
364.843751
20
355.00294300000002
30
0
0
SPLINE
5
469
100
AcDbEntity
8
0
100
AcDbSpline
70
1064
71
3
72
8
73
4
74
0
42
0.000000001
43
0.0000000001
44
0.0000000001
40
0
40
0
40
0
40
0
40
1
40
1
40
1
40
1
10
364.843751
20
353.08120800000006
30
0
10
364.58891299999999
20
352.82637
30
0
10
364.24327900000003
20
352.68320399999999
30
0
10
363.88288299999999
20
352.68320399999999
30
0
0
SPLINE
5
470
100
AcDbEntity
8
0
100
AcDbSpline
70
1064
71
3
72
8
73
4
74
0
42
0.000000001
43
0.0000000001
44
0.0000000001
40
0
40
0
40
0
40
0
40
1
40
1
40
1
40
1
10
364.843751
20
355.00294300000002
30
0
10
365.09858900000006
20
354.74810500000001
30
0
10
365.24175500000001
20
354.40247099999999
30
0
10
365.24175500000001
20
354.04207500000007
30
0
0
SPLINE
5
471
100
AcDbEntity
8
0
100
AcDbSpline
70
1064
71
3
72
8
73
4
74
0
42
0.000000001
43
0.0000000001
44
0.0000000001
40
0
40
0
40
0
40
0
40
1
40
1
40
1
40
1
10
365.24175500000001
20
354.04207500000007
30
0
10
365.24175500000001
20
353.68167999999997
30
0
10
365.09858900000006
20
353.33604600000001
30
0
10
364.843751
20
353.08120800000006
30
0
0
SPLINE
5
472
100
AcDbEntity
8
0
100
AcDbSpline
70
1064
71
3
72
8
73
4
74
0
42
0.000000001
43
0.0000000001
44
0.0000000001
40
0
40
0
40
0
40
0
40
1
40
1
40
1
40
1
10
362.52401200000003
20
354.04207500000007
30
0
10
362.52401099999997
20
354.40247099999999
30
0
10
362.66717800000004
20
354.74810500000001
30
0
10
362.92201600000004
20
355.00294300000002
30
0
0
SPLINE
5
473
100
AcDbEntity
8
0
100
AcDbSpline
70
1064
71
3
72
8
73
4
74
0
42
0.000000001
43
0.0000000001
44
0.0000000001
40
0
40
0
40
0
40
0
40
1
40
1
40
1
40
1
10
363.88288299999999
20
352.68320399999999
30
0
10
363.52248800000007
20
352.68320399999999
30
0
10
363.17685400000005
20
352.82637
30
0
10
362.92201600000004
20
353.08120800000006
30
0
0
SPLINE
5
474
100
AcDbEntity
8
0
100
AcDbSpline
70
1064
71
3
72
8
73
4
74
0
42
0.000000001
43
0.0000000001
44
0.0000000001
40
0
40
0
40
0
40
0
40
1
40
1
40
1
40
1
10
362.92201600000004
20
353.08120800000006
30
0
10
362.66717800000004
20
353.33604600000001
30
0
10
362.52401099999997
20
353.68167999999997
30
0
10
362.52401200000003
20
354.04207500000007
30
0
0
SPLINE
5
475
100
AcDbEntity
8
0
100
AcDbSpline
70
1064
71
3
72
8
73
4
74
0
42
0.000000001
43
0.0000000001
44
0.0000000001
40
0
40
0
40
0
40
0
40
1
40
1
40
1
40
1
10
358.08287800000005
20
355.37472900000006
30
0
10
358.83336100000002
20
355.37472900000006
30
0
10
359.44174900000002
20
354.76634300000001
30
0
10
359.44175000000001
20
354.01586000000003
30
0
0
SPLINE
5
476
100
AcDbEntity
8
0
100
AcDbSpline
70
1064
71
3
72
8
73
4
74
0
42
0.000000001
43
0.0000000001
44
0.0000000001
40
0
40
0
40
0
40
0
40
1
40
1
40
1
40
1
10
362.92201600000004
20
355.00294300000002
30
0
10
363.17685400000005
20
355.25778100000002
30
0
10
363.52248800000007
20
355.40094700000003
30
0
10
363.88288299999999
20
355.40094700000003
30
0
0
SPLINE
5
477
100
AcDbEntity
8
0
100
AcDbSpline
70
1064
71
3
72
8
73
4
74
0
42
0.000000001
43
0.0000000001
44
0.0000000001
40
0
40
0
40
0
40
0
40
1
40
1
40
1
40
1
10
359.44175000000001
20
354.01586000000003
30
0
10
359.44175000000001
20
353.65546499999999
30
0
10
359.29858400000001
20
353.30982999999998
30
0
10
359.04374600000006
20
353.05499199999997
30
0
0
SPLINE
5
478
100
AcDbEntity
8
0
100
AcDbSpline
70
1064
71
3
72
8
73
4
74
0
42
0.000000001
43
0.0000000001
44
0.0000000001
40
0
40
0
40
0
40
0
40
1
40
1
40
1
40
1
10
357.12200999999999
20
353.05499199999997
30
0
10
356.86717299999998
20
353.30982999999998
30
0
10
356.72400600000003
20
353.65546499999999
30
0
10
356.72400600000003
20
354.01586000000003
30
0
0
SPLINE
5
479
100
AcDbEntity
8
0
100
AcDbSpline
70
1064
71
3
72
8
73
4
74
0
42
0.000000001
43
0.0000000001
44
0.0000000001
40
0
40
0
40
0
40
0
40
1
40
1
40
1
40
1
10
356.72400600000003
20
354.01586000000003
30
0
10
356.72400800000003
20
354.76634300000001
30
0
10
357.33239500000002
20
355.37472900000006
30
0
10
358.08287800000005
20
355.37472900000006
30
0
0
SPLINE
5
480
100
AcDbEntity
8
0
100
AcDbSpline
70
1064
71
3
72
8
73
4
74
0
42
0.000000001
43
0.0000000001
44
0.0000000001
40
0
40
0
40
0
40
0
40
1
40
1
40
1
40
1
10
359.04374600000006
20
353.05499199999997
30
0
10
358.78890799999999
20
352.80015400000002
30
0
10
358.44327299999998
20
352.65698800000001
30
0
10
358.08287800000005
20
352.65698800000001
30
0
0
SPLINE
5
481
100
AcDbEntity
8
0
100
AcDbSpline
70
1064
71
3
72
8
73
4
74
0
42
0.000000001
43
0.0000000001
44
0.0000000001
40
0
40
0
40
0
40
0
40
1
40
1
40
1
40
1
10
358.08287800000005
20
352.65698800000001
30
0
10
357.72248300000001
20
352.65698800000001
30
0
10
357.37684800000005
20
352.80015400000002
30
0
10
357.12200999999999
20
353.05499199999997
30
0
0
SPLINE
5
482
100
AcDbEntity
8
0
100
AcDbSpline
70
1064
71
3
72
8
73
4
74
0
42
0.000000001
43
0.0000000001
44
0.0000000001
40
0
40
0
40
0
40
0
40
1
40
1
40
1
40
1
10
376.42373800000001
20
270.29508599999997
30
0
10
376.42373900000001
20
269.93469099999999
30
0
10
376.28057200000001
20
269.58905699999997
30
0
10
376.02573400000006
20
269.33421900000002
30
0
0
SPLINE
5
483
100
AcDbEntity
8
0
100
AcDbSpline
70
1064
71
3
72
8
73
4
74
0
42
0.000000001
43
0.0000000001
44
0.0000000001
40
0
40
0
40
0
40
0
40
1
40
1
40
1
40
1
10
376.02573400000006
20
269.33421900000002
30
0
10
375.77089599999999
20
269.07938100000001
30
0
10
375.42526200000003
20
268.93621400000001
30
0
10
375.06486700000005
20
268.936215
30
0
0
SPLINE
5
484
100
AcDbEntity
8
0
100
AcDbSpline
70
1064
71
3
72
8
73
4
74
0
42
0.000000001
43
0.0000000001
44
0.0000000001
40
0
40
0
40
0
40
0
40
1
40
1
40
1
40
1
10
373.70599500000003
20
270.29508599999997
30
0
10
373.70599500000003
20
270.65548200000001
30
0
10
373.84916099999998
20
271.00111600000002
30
0
10
374.1039990000001
20
271.25595400000003
30
0
0
SPLINE
5
485
100
AcDbEntity
8
0
100
AcDbSpline
70
1064
71
3
72
8
73
4
74
0
42
0.000000001
43
0.0000000001
44
0.0000000001
40
0
40
0
40
0
40
0
40
1
40
1
40
1
40
1
10
375.06486700000005
20
268.936215
30
0
10
374.70447100000001
20
268.93621400000001
30
0
10
374.35883699999999
20
269.07938100000001
30
0
10
374.1039990000001
20
269.33421900000002
30
0
0
SPLINE
5
486
100
AcDbEntity
8
0
100
AcDbSpline
70
1064
71
3
72
8
73
4
74
0
42
0.000000001
43
0.0000000001
44
0.0000000001
40
0
40
0
40
0
40
0
40
1
40
1
40
1
40
1
10
374.1039990000001
20
271.25595400000003
30
0
10
374.35883699999999
20
271.51079199999998
30
0
10
374.70447100000001
20
271.65395799999999
30
0
10
375.06486700000005
20
271.65395799999999
30
0
0
SPLINE
5
487
100
AcDbEntity
8
0
100
AcDbSpline
70
1064
71
3
72
8
73
4
74
0
42
0.000000001
43
0.0000000001
44
0.0000000001
40
0
40
0
40
0
40
0
40
1
40
1
40
1
40
1
10
369.264861
20
271.62774000000002
30
0
10
370.01534399999997
20
271.62774000000002
30
0
10
370.62373199999996
20
271.01935400000002
30
0
10
370.62373300000002
20
270.26887099999999
30
0
0
SPLINE
5
488
100
AcDbEntity
8
0
100
AcDbSpline
70
1064
71
3
72
8
73
4
74
0
42
0.000000001
43
0.0000000001
44
0.0000000001
40
0
40
0
40
0
40
0
40
1
40
1
40
1
40
1
10
370.225729
20
269.30800299999999
30
0
10
369.97089100000005
20
269.05316499999998
30
0
10
369.62525599999998
20
268.90999900000003
30
0
10
369.264861
20
268.90999900000003
30
0
0
SPLINE
5
489
100
AcDbEntity
8
0
100
AcDbSpline
70
1064
71
3
72
8
73
4
74
0
42
0.000000001
43
0.0000000001
44
0.0000000001
40
0
40
0
40
0
40
0
40
1
40
1
40
1
40
1
10
375.06486700000005
20
271.65395799999999
30
0
10
375.42526200000003
20
271.65395799999999
30
0
10
375.77089599999999
20
271.51079199999998
30
0
10
376.02573400000006
20
271.25595400000003
30
0
0
SPLINE
5
490
100
AcDbEntity
8
0
100
AcDbSpline
70
1064
71
3
72
8
73
4
74
0
42
0.000000001
43
0.0000000001
44
0.0000000001
40
0
40
0
40
0
40
0
40
1
40
1
40
1
40
1
10
376.02573400000006
20
271.25595400000003
30
0
10
376.28057200000001
20
271.00111600000002
30
0
10
376.42373900000001
20
270.65548200000001
30
0
10
376.42373800000001
20
270.29508599999997
30
0
0
SPLINE
5
491
100
AcDbEntity
8
0
100
AcDbSpline
70
1064
71
3
72
8
73
4
74
0
42
0.000000001
43
0.0000000001
44
0.0000000001
40
0
40
0
40
0
40
0
40
1
40
1
40
1
40
1
10
374.1039990000001
20
269.33421900000002
30
0
10
373.84916099999998
20
269.58905699999997
30
0
10
373.70599500000003
20
269.93469099999999
30
0
10
373.70599500000003
20
270.29508599999997
30
0
0
SPLINE
5
492
100
AcDbEntity
8
0
100
AcDbSpline
70
1064
71
3
72
8
73
4
74
0
42
0.000000001
43
0.0000000001
44
0.0000000001
40
0
40
0
40
0
40
0
40
1
40
1
40
1
40
1
10
370.62373300000002
20
270.26887099999999
30
0
10
370.62373300000002
20
269.90847500000001
30
0
10
370.48056700000006
20
269.56284099999999
30
0
10
370.225729
20
269.30800299999999
30
0
0
SPLINE
5
493
100
AcDbEntity
8
0
100
AcDbSpline
70
1064
71
3
72
8
73
4
74
0
42
0.000000001
43
0.0000000001
44
0.0000000001
40
0
40
0
40
0
40
0
40
1
40
1
40
1
40
1
10
369.264861
20
268.90999900000003
30
0
10
368.90446600000007
20
268.90999900000003
30
0
10
368.558832
20
269.05316499999998
30
0
10
368.30399399999999
20
269.30800299999999
30
0
0
SPLINE
5
494
100
AcDbEntity
8
0
100
AcDbSpline
70
1064
71
3
72
8
73
4
74
0
42
0.000000001
43
0.0000000001
44
0.0000000001
40
0
40
0
40
0
40
0
40
1
40
1
40
1
40
1
10
362.52401200000003
20
118.34503600000002
30
0
10
362.52401099999997
20
118.705431
30
0
10
362.66717800000004
20
119.05106599999999
30
0
10
362.92201600000004
20
119.305904
30
0
0
SPLINE
5
495
100
AcDbEntity
8
0
100
AcDbSpline
70
1064
71
3
72
8
73
4
74
0
42
0.000000001
43
0.0000000001
44
0.0000000001
40
0
40
0
40
0
40
0
40
1
40
1
40
1
40
1
10
362.92201600000004
20
117.38416799999999
30
0
10
362.66717800000004
20
117.63900600000001
30
0
10
362.52401099999997
20
117.98464100000001
30
0
10
362.52401200000003
20
118.34503600000002
30
0
0
SPLINE
5
496
100
AcDbEntity
8
0
100
AcDbSpline
70
1064
71
3
72
8
73
4
74
0
42
0.000000001
43
0.0000000001
44
0.0000000001
40
0
40
0
40
0
40
0
40
1
40
1
40
1
40
1
10
363.88288299999999
20
116.98616399999999
30
0
10
363.52248800000007
20
116.98616399999999
30
0
10
363.17685400000005
20
117.12933000000001
30
0
10
362.92201600000004
20
117.38416799999999
30
0
0
SPLINE
5
497
100
AcDbEntity
8
0
100
AcDbSpline
70
1064
71
3
72
8
73
4
74
0
42
0.000000001
43
0.0000000001
44
0.0000000001
40
0
40
0
40
0
40
0
40
1
40
1
40
1
40
1
10
60.700200000000002
20
404.24117100000001
30
0
10
60.154111999999998
20
404.24117100000001
30
0
10
59.630390000000013
20
404.45810300000005
30
0
10
59.244246999999994
20
404.84424600000006
30
0
0
SPLINE
5
498
100
AcDbEntity
8
0
100
AcDbSpline
70
1064
71
3
72
8
73
4
74
0
42
0.000000001
43
0.0000000001
44
0.0000000001
40
0
40
0
40
0
40
0
40
1
40
1
40
1
40
1
10
517.4532200000001
20
349.17019700000003
30
0
10
517.4532200000001
20
348.62410800000009
30
0
10
517.23628600000006
20
348.10038399999996
30
0
10
516.85014200000001
20
347.71424100000002
30
0
0
SPLINE
5
499
100
AcDbEntity
8
0
100
AcDbSpline
70
1064
71
3
72
8
73
4
74
0
42
0.000000001
43
0.0000000001
44
0.0000000001
40
0
40
0
40
0
40
0
40
1
40
1
40
1
40
1
10
62.156153000000003
20
407.75615200000004
30
0
10
62.542295999999993
20
407.37001000000009
30
0
10
62.759229000000012
20
406.84628800000007
30
0
10
62.759229000000012
20
406.30019900000008
30
0
0
SPLINE
5
500
100
AcDbEntity
8
0
100
AcDbSpline
70
1064
71
3
72
8
73
4
74
0
42
0.000000001
43
0.0000000001
44
0.0000000001
40
0
40
0
40
0
40
0
40
1
40
1
40
1
40
1
10
515.394183
20
347.11116900000002
30
0
10
514.84809300000006
20
347.11116699999997
30
0
10
514.32436900000005
20
347.32809800000007
30
0
10
513.9382240000001
20
347.71424100000002
30
0
0
SPLINE
5
501
100
AcDbEntity
8
0
100
AcDbSpline
70
1064
71
3
72
8
73
4
74
0
42
0.000000001
43
0.0000000001
44
0.0000000001
40
0
40
0
40
0
40
0
40
1
40
1
40
1
40
1
10
461.52323800000005
20
349.17019700000003
30
0
10
461.52323800000005
20
348.62410800000009
30
0
10
461.30630500000001
20
348.10038399999996
30
0
10
460.92016000000001
20
347.71424100000002
30
0
0
SPLINE
5
502
100
AcDbEntity
8
0
100
AcDbSpline
70
1064
71
3
72
8
73
4
74
0
42
0.000000001
43
0.0000000001
44
0.0000000001
40
0
40
0
40
0
40
0
40
1
40
1
40
1
40
1
10
59.244246999999994
20
407.75615200000004
30
0
10
59.630390000000013
20
408.1422950000001
30
0
10
60.154111999999998
20
408.35922799999997
30
0
10
60.700200000000002
20
408.35922799999997
30
0
0
SPLINE
5
503
100
AcDbEntity
8
0
100
AcDbSpline
70
1064
71
3
72
8
73
4
74
0
42
0.000000001
43
0.0000000001
44
0.0000000001
40
0
40
0
40
0
40
0
40
1
40
1
40
1
40
1
10
516.85014200000001
20
350.62615399999999
30
0
10
517.23628600000006
20
350.24001099999998
30
0
10
517.4532200000001
20
349.71628700000002
30
0
10
517.4532200000001
20
349.17019700000003
30
0
0
SPLINE
5
504
100
AcDbEntity
8
0
100
AcDbSpline
70
1064
71
3
72
8
73
4
74
0
42
0.000000001
43
0.0000000001
44
0.0000000001
40
0
40
0
40
0
40
0
40
1
40
1
40
1
40
1
10
83.749227000000005
20
349.17019700000003
30
0
10
83.749227000000005
20
348.62410899999998
30
0
10
83.532294000000007
20
348.10038700000001
30
0
10
83.146152000000001
20
347.71424400000001
30
0
0
SPLINE
5
505
100
AcDbEntity
8
0
100
AcDbSpline
70
1064
71
3
72
8
73
4
74
0
42
0.000000001
43
0.0000000001
44
0.0000000001
40
0
40
0
40
0
40
0
40
1
40
1
40
1
40
1
10
458.00824299999999
20
347.71424100000002
30
0
10
457.62209800000016
20
348.10038399999996
30
0
10
457.40516400000001
20
348.62410800000009
30
0
10
457.40516500000007
20
349.17019700000003
30
0
0
SPLINE
5
506
100
AcDbEntity
8
0
100
AcDbSpline
70
1064
71
3
72
8
73
4
74
0
42
0.000000001
43
0.0000000001
44
0.0000000001
40
0
40
0
40
0
40
0
40
1
40
1
40
1
40
1
10
516.85014200000001
20
347.71424100000002
30
0
10
516.46399700000006
20
347.32809800000007
30
0
10
515.94027300000005
20
347.11116699999997
30
0
10
515.394183
20
347.11116900000002
30
0
0
SPLINE
5
507
100
AcDbEntity
8
0
100
AcDbSpline
70
1064
71
3
72
8
73
4
74
0
42
0.000000001
43
0.0000000001
44
0.0000000001
40
0
40
0
40
0
40
0
40
1
40
1
40
1
40
1
10
58.641171999999997
20
406.30019900000008
30
0
10
58.641171999999997
20
406.84628800000007
30
0
10
58.858104000000004
20
407.37001000000009
30
0
10
59.244246999999994
20
407.75615200000004
30
0
0
SPLINE
5
508
100
AcDbEntity
8
0
100
AcDbSpline
70
1064
71
3
72
8
73
4
74
0
42
0.000000001
43
0.0000000001
44
0.0000000001
40
0
40
0
40
0
40
0
40
1
40
1
40
1
40
1
10
457.40516500000007
20
349.17019700000003
30
0
10
457.40516400000001
20
349.71628700000002
30
0
10
457.62209800000016
20
350.24001099999998
30
0
10
458.00824299999999
20
350.62615399999999
30
0
0
SPLINE
5
509
100
AcDbEntity
8
0
100
AcDbSpline
70
1064
71
3
72
8
73
4
74
0
42
0.000000001
43
0.0000000001
44
0.0000000001
40
0
40
0
40
0
40
0
40
1
40
1
40
1
40
1
10
459.46420100000006
20
351.22922600000004
30
0
10
460.01029100000005
20
351.22922799999998
30
0
10
460.53401500000007
20
351.01229700000005
30
0
10
460.92016000000001
20
350.62615399999999
30
0
0
SPLINE
5
510
100
AcDbEntity
8
0
100
AcDbSpline
70
1064
71
3
72
8
73
4
74
0
42
0.000000001
43
0.0000000001
44
0.0000000001
40
0
40
0
40
0
40
0
40
1
40
1
40
1
40
1
10
460.92016000000001
20
350.62615399999999
30
0
10
461.30630500000001
20
350.24001099999998
30
0
10
461.52323800000005
20
349.71628700000002
30
0
10
461.52323800000005
20
349.17019700000003
30
0
0
SPLINE
5
511
100
AcDbEntity
8
0
100
AcDbSpline
70
1064
71
3
72
8
73
4
74
0
42
0.000000001
43
0.0000000001
44
0.0000000001
40
0
40
0
40
0
40
0
40
1
40
1
40
1
40
1
10
59.244246999999994
20
404.84424600000006
30
0
10
58.858104000000004
20
405.23038900000006
30
0
10
58.641171999999997
20
405.75411099999997
30
0
10
58.641171999999997
20
406.30019900000008
30
0
0
SPLINE
5
512
100
AcDbEntity
8
0
100
AcDbSpline
70
1064
71
3
72
8
73
4
74
0
42
0.000000001
43
0.0000000001
44
0.0000000001
40
0
40
0
40
0
40
0
40
1
40
1
40
1
40
1
10
513.9382240000001
20
347.71424100000002
30
0
10
513.55208000000005
20
348.10038399999996
30
0
10
513.33514600000001
20
348.62410800000009
30
0
10
513.33514600000001
20
349.17019700000003
30
0
0
SPLINE
5
513
100
AcDbEntity
8
0
100
AcDbSpline
70
1064
71
3
72
8
73
4
74
0
42
0.000000001
43
0.0000000001
44
0.0000000001
40
0
40
0
40
0
40
0
40
1
40
1
40
1
40
1
10
523.76016600000003
20
370.37615200000005
30
0
10
524.14631100000008
20
369.99000899999999
30
0
10
524.36324400000001
20
369.46628599999997
30
0
10
524.36324400000001
20
368.92019599999998
30
0
0
SPLINE
5
514
100
AcDbEntity
8
0
100
AcDbSpline
70
1064
71
3
72
8
73
4
74
0
42
0.000000001
43
0.0000000001
44
0.0000000001
40
0
40
0
40
0
40
0
40
1
40
1
40
1
40
1
10
515.394183
20
351.22922600000004
30
0
10
515.94027300000005
20
351.22922799999998
30
0
10
516.46399700000006
20
351.01229700000005
30
0
10
516.85014200000001
20
350.62615399999999
30
0
0
SPLINE
5
515
100
AcDbEntity
8
0
100
AcDbSpline
70
1064
71
3
72
8
73
4
74
0
42
0.000000001
43
0.0000000001
44
0.0000000001
40
0
40
0
40
0
40
0
40
1
40
1
40
1
40
1
10
513.33514600000001
20
349.17019700000003
30
0
10
513.33514600000001
20
349.71628700000002
30
0
10
513.55208000000005
20
350.24001099999998
30
0
10
513.9382240000001
20
350.62615399999999
30
0
0
SPLINE
5
516
100
AcDbEntity
8
0
100
AcDbSpline
70
1064
71
3
72
8
73
4
74
0
42
0.000000001
43
0.0000000001
44
0.0000000001
40
0
40
0
40
0
40
0
40
1
40
1
40
1
40
1
10
459.46420100000006
20
347.11116900000002
30
0
10
458.91811200000006
20
347.11116699999997
30
0
10
458.39438700000011
20
347.32809800000007
30
0
10
458.00824299999999
20
347.71424100000002
30
0
0
SPLINE
5
517
100
AcDbEntity
8
0
100
AcDbSpline
70
1064
71
3
72
8
73
4
74
0
42
0.000000001
43
0.0000000001
44
0.0000000001
40
0
40
0
40
0
40
0
40
1
40
1
40
1
40
1
10
431.81323600000007
20
406.30019900000008
30
0
10
431.81323600000007
20
405.75410900000003
30
0
10
431.59630200000004
20
405.23038600000007
30
0
10
431.21015800000009
20
404.84424300000001
30
0
0
SPLINE
5
518
100
AcDbEntity
8
0
100
AcDbSpline
70
1064
71
3
72
8
73
4
74
0
42
0.000000001
43
0.0000000001
44
0.0000000001
40
0
40
0
40
0
40
0
40
1
40
1
40
1
40
1
10
460.92016000000001
20
347.71424100000002
30
0
10
460.53401500000007
20
347.32809800000007
30
0
10
460.01029100000005
20
347.11116699999997
30
0
10
459.46420100000006
20
347.11116900000002
30
0
0
SPLINE
5
519
100
AcDbEntity
8
0
100
AcDbSpline
70
1064
71
3
72
8
73
4
74
0
42
0.000000001
43
0.0000000001
44
0.0000000001
40
0
40
0
40
0
40
0
40
1
40
1
40
1
40
1
10
513.9382240000001
20
350.62615399999999
30
0
10
514.32436900000005
20
351.01229700000005
30
0
10
514.84809300000006
20
351.22922799999998
30
0
10
515.394183
20
351.22922600000004
30
0
0
SPLINE
5
520
100
AcDbEntity
8
0
100
AcDbSpline
70
1064
71
3
72
8
73
4
74
0
42
0.000000001
43
0.0000000001
44
0.0000000001
40
0
40
0
40
0
40
0
40
1
40
1
40
1
40
1
10
458.00824299999999
20
350.62615399999999
30
0
10
458.39438700000011
20
351.01229700000005
30
0
10
458.91811200000006
20
351.22922799999998
30
0
10
459.46420100000006
20
351.22922600000004
30
0
0
SPLINE
5
521
100
AcDbEntity
8
0
100
AcDbSpline
70
1064
71
3
72
8
73
4
74
0
42
0.000000001
43
0.0000000001
44
0.0000000001
40
0
40
0
40
0
40
0
40
1
40
1
40
1
40
1
10
429.75419900000009
20
404.24117100000001
30
0
10
429.20810899999998
20
404.24116800000007
30
0
10
428.68438499999996
20
404.4581
30
0
10
428.29824100000002
20
404.84424300000001
30
0
0
SPLINE
5
522
100
AcDbEntity
8
0
100
AcDbSpline
70
1064
71
3
72
8
73
4
74
0
42
0.000000001
43
0.0000000001
44
0.0000000001
40
0
40
0
40
0
40
0
40
1
40
1
40
1
40
1
10
431.21015800000009
20
404.84424300000001
30
0
10
430.82401300000004
20
404.4581
30
0
10
430.30028899999996
20
404.24116800000007
30
0
10
429.75419900000009
20
404.24117100000001
30
0
0
SPLINE
5
523
100
AcDbEntity
8
0
100
AcDbSpline
70
1064
71
3
72
8
73
4
74
0
42
0.000000001
43
0.0000000001
44
0.0000000001
40
0
40
0
40
0
40
0
40
1
40
1
40
1
40
1
10
60.700200000000002
20
408.35922799999997
30
0
10
61.246289000000012
20
408.35922799999997
30
0
10
61.770010999999997
20
408.1422950000001
30
0
10
62.156153000000003
20
407.75615200000004
30
0
0
SPLINE
5
524
100
AcDbEntity
8
0
100
AcDbSpline
70
1064
71
3
72
8
73
4
74
0
42
0.000000001
43
0.0000000001
44
0.0000000001
40
0
40
0
40
0
40
0
40
1
40
1
40
1
40
1
10
429.75419900000009
20
408.35922799999997
30
0
10
430.30028899999996
20
408.35923000000003
30
0
10
430.82401300000004
20
408.14229799999998
30
0
10
431.21015800000009
20
407.75615500000004
30
0
0
SPLINE
5
525
100
AcDbEntity
8
0
100
AcDbSpline
70
1064
71
3
72
8
73
4
74
0
42
0.000000001
43
0.0000000001
44
0.0000000001
40
0
40
0
40
0
40
0
40
1
40
1
40
1
40
1
10
431.21015800000009
20
407.75615500000004
30
0
10
431.59630200000004
20
407.37001200000009
30
0
10
431.81323600000007
20
406.84628900000007
30
0
10
431.81323600000007
20
406.30019900000008
30
0
0
SPLINE
5
526
100
AcDbEntity
8
0
100
AcDbSpline
70
1064
71
3
72
8
73
4
74
0
42
0.000000001
43
0.0000000001
44
0.0000000001
40
0
40
0
40
0
40
0
40
1
40
1
40
1
40
1
10
428.29824100000002
20
404.84424300000001
30
0
10
427.91209600000002
20
405.23038600000007
30
0
10
427.69516200000004
20
405.75410900000003
30
0
10
427.69516200000004
20
406.30019900000008
30
0
0
SPLINE
5
527
100
AcDbEntity
8
0
100
AcDbSpline
70
1064
71
3
72
8
73
4
74
0
42
0.000000001
43
0.0000000001
44
0.0000000001
40
0
40
0
40
0
40
0
40
1
40
1
40
1
40
1
10
427.69516200000004
20
406.30019900000008
30
0
10
427.69516200000004
20
406.84628900000007
30
0
10
427.91209600000002
20
407.37001200000009
30
0
10
428.29824100000002
20
407.75615500000004
30
0
0
SPLINE
5
528
100
AcDbEntity
8
0
100
AcDbSpline
70
1064
71
3
72
8
73
4
74
0
42
0.000000001
43
0.0000000001
44
0.0000000001
40
0
40
0
40
0
40
0
40
1
40
1
40
1
40
1
10
431.81323600000007
20
488.801197
30
0
10
431.81323600000007
20
488.25510700000001
30
0
10
431.59630200000004
20
487.73138399999999
30
0
10
431.21015800000009
20
487.34524099999999
30
0
0
SPLINE
5
529
100
AcDbEntity
8
0
100
AcDbSpline
70
1064
71
3
72
8
73
4
74
0
42
0.000000001
43
0.0000000001
44
0.0000000001
40
0
40
0
40
0
40
0
40
1
40
1
40
1
40
1
10
428.29824100000002
20
407.75615500000004
30
0
10
428.68438499999996
20
408.14229799999998
30
0
10
429.20810899999998
20
408.35923000000003
30
0
10
429.75419900000009
20
408.35922799999997
30
0
0
LINE
5
530
100
AcDbEntity
8
0
100
AcDbLine
10
509.52775764504372
20
-0.0090009999999999986
30
0
11
25.019234338721589
21
-0.0090010000000000107
31
0
0
SPLINE
5
531
100
AcDbEntity
8
0
100
AcDbSpline
70
1064
71
3
72
8
73
4
74
0
42
0.000000001
43
0.0000000001
44
0.0000000001
40
0
40
0
40
0
40
0
40
1
40
1
40
1
40
1
10
219.13786749997189
20
484.65372651154678
30
0
10
218.0006275030905
20
484.65381073182778
30
0
10
217.07878077970719
20
485.57579500331428
30
0
10
217.07886799998818
20
486.71303499997344
30
0
0
SPLINE
5
532
100
AcDbEntity
8
0
100
AcDbSpline
70
1064
71
3
72
8
73
4
74
0
42
0.000000001
43
0.0000000001
44
0.0000000001
40
0
40
0
40
0
40
0
40
1
40
1
40
1
40
1
10
221.19686799997629
20
486.71303499994787
30
0
10
221.1969552202163
20
485.5757950032887
30
0
10
220.27510749679982
20
484.65381073176133
30
0
10
219.1378674999184
20
484.6537265115212
30
0
0
SPLINE
5
533
100
AcDbEntity
8
0
100
AcDbSpline
70
1064
71
3
72
8
73
4
74
0
42
0.000000001
43
0.0000000001
44
0.0000000001
40
0
40
0
40
0
40
0
40
1
40
1
40
1
40
1
10
259.99197599999997
20
393.82796400000007
30
0
10
260.24681400000009
20
394.08280100000002
30
0
10
260.59244799999999
20
394.22596800000008
30
0
10
260.95284300000003
20
394.22596800000008
30
0
0
SPLINE
5
534
100
AcDbEntity
8
0
100
AcDbSpline
70
1064
71
3
72
8
73
4
74
0
42
0.000000001
43
0.0000000001
44
0.0000000001
40
0
40
0
40
0
40
0
40
1
40
1
40
1
40
1
10
259.59397200000001
20
392.867096
30
0
10
259.59397200000001
20
393.2274910000001
30
0
10
259.73713800000002
20
393.573126
30
0
10
259.99197599999997
20
393.82796400000007
30
0
0
SPLINE
5
535
100
AcDbEntity
8
0
100
AcDbSpline
70
1064
71
3
72
8
73
4
74
0
42
0.000000001
43
0.0000000001
44
0.0000000001
40
0
40
0
40
0
40
0
40
1
40
1
40
1
40
1
10
312.735186
20
370.060856
30
0
10
312.735185
20
370.42125199999998
30
0
10
312.87835200000006
20
370.76688600000006
30
0
10
313.13319000000001
20
371.02172400000001
30
0
0
SPLINE
5
536
100
AcDbEntity
8
0
100
AcDbSpline
70
1064
71
3
72
8
73
4
74
0
42
0.000000001
43
0.0000000001
44
0.0000000001
40
0
40
0
40
0
40
0
40
1
40
1
40
1
40
1
10
256.11370599999998
20
391.88001299999996
30
0
10
255.85886800000003
20
391.62517500000007
30
0
10
255.51323300000004
20
391.48200800000006
30
0
10
255.15283800000003
20
391.48200900000006
30
0
0
SPLINE
5
537
100
AcDbEntity
8
0
100
AcDbSpline
70
1064
71
3
72
8
73
4
74
0
42
0.000000001
43
0.0000000001
44
0.0000000001
40
0
40
0
40
0
40
0
40
1
40
1
40
1
40
1
10
249.77483700000005
20
396.48199900000009
30
0
10
249.02435400000002
20
396.48200000000003
30
0
10
248.41596800000005
20
397.09038700000008
30
0
10
248.41596800000005
20
397.84087
30
0
0
SPLINE
5
538
100
AcDbEntity
8
0
100
AcDbSpline
70
1064
71
3
72
8
73
4
74
0
42
0.000000001
43
0.0000000001
44
0.0000000001
40
0
40
0
40
0
40
0
40
1
40
1
40
1
40
1
10
249.77483700000005
20
399.19974200000007
30
0
10
250.13523199999997
20
399.19974200000007
30
0
10
250.48086699999999
20
399.05657599999995
30
0
10
250.735705
20
398.801738
30
0
0
SPLINE
5
539
100
AcDbEntity
8
0
100
AcDbSpline
70
1064
71
3
72
8
73
4
74
0
42
0.000000001
43
0.0000000001
44
0.0000000001
40
0
40
0
40
0
40
0
40
1
40
1
40
1
40
1
10
242.13571299999998
20
396.88000299999999
30
0
10
241.880875
20
396.62516500000004
30
0
10
241.53524100000001
20
396.48199799999998
30
0
10
241.174846
20
396.48199900000009
30
0
0
SPLINE
5
540
100
AcDbEntity
8
0
100
AcDbSpline
70
1064
71
3
72
8
73
4
74
0
42
0.000000001
43
0.0000000001
44
0.0000000001
40
0
40
0
40
0
40
0
40
1
40
1
40
1
40
1
10
242.53371700000002
20
397.84087
30
0
10
242.53371800000002
20
397.48047500000007
30
0
10
242.39055100000002
20
397.13484100000005
30
0
10
242.13571299999998
20
396.88000299999999
30
0
0
SPLINE
5
541
100
AcDbEntity
8
0
100
AcDbSpline
70
1064
71
3
72
8
73
4
74
0
42
0.000000001
43
0.0000000001
44
0.0000000001
40
0
40
0
40
0
40
0
40
1
40
1
40
1
40
1
10
254.19197100000002
20
391.88001299999996
30
0
10
253.93713300000002
20
392.13485100000003
30
0
10
253.79396600000004
20
392.48048500000004
30
0
10
253.79396600000004
20
392.84087999999997
30
0
0
SPLINE
5
542
100
AcDbEntity
8
0
100
AcDbSpline
70
1064
71
3
72
8
73
4
74
0
42
0.000000001
43
0.0000000001
44
0.0000000001
40
0
40
0
40
0
40
0
40
1
40
1
40
1
40
1
10
240.213978
20
398.801738
30
0
10
240.46881600000003
20
399.05657599999995
30
0
10
240.81445000000002
20
399.19974200000007
30
0
10
241.174846
20
399.19974200000007
30
0
0
SPLINE
5
543
100
AcDbEntity
8
0
100
AcDbSpline
70
1064
71
3
72
8
73
4
74
0
42
0.000000001
43
0.0000000001
44
0.0000000001
40
0
40
0
40
0
40
0
40
1
40
1
40
1
40
1
10
255.15283800000003
20
394.199749
30
0
10
255.90332100000001
20
394.19974999999999
30
0
10
256.511709
20
393.59136400000006
30
0
10
256.51170999999999
20
392.84087999999997
30
0
0
SPLINE
5
544
100
AcDbEntity
8
0
100
AcDbSpline
70
1064
71
3
72
8
73
4
74
0
42
0.000000001
43
0.0000000001
44
0.0000000001
40
0
40
0
40
0
40
0
40
1
40
1
40
1
40
1
10
315.45292899999998
20
370.060856
30
0
10
315.45292899999998
20
369.70046099999996
30
0
10
315.30976299999998
20
369.354827
30
0
10
315.05492500000003
20
369.09998899999999
30
0
0
SPLINE
5
545
100
AcDbEntity
8
0
100
AcDbSpline
70
1064
71
3
72
8
73
4
74
0
42
0.000000001
43
0.0000000001
44
0.0000000001
40
0
40
0
40
0
40
0
40
1
40
1
40
1
40
1
10
250.735705
20
396.88000299999999
30
0
10
250.48086699999999
20
396.62516500000004
30
0
10
250.13523199999997
20
396.48199799999998
30
0
10
249.77483700000005
20
396.48199900000009
30
0
0
SPLINE
5
546
100
AcDbEntity
8
0
100
AcDbSpline
70
1064
71
3
72
8
73
4
74
0
42
0.000000001
43
0.0000000001
44
0.0000000001
40
0
40
0
40
0
40
0
40
1
40
1
40
1
40
1
10
255.15283800000003
20
391.48200900000006
30
0
10
254.79244300000005
20
391.48200800000006
30
0
10
254.446808
20
391.62517500000007
30
0
10
254.19197100000002
20
391.88001299999996
30
0
0
SPLINE
5
547
100
AcDbEntity
8
0
100
AcDbSpline
70
1064
71
3
72
8
73
4
74
0
42
0.000000001
43
0.0000000001
44
0.0000000001
40
0
40
0
40
0
40
0
40
1
40
1
40
1
40
1
10
314.09405699999996
20
368.70198500000009
30
0
10
313.73366200000009
20
368.70198399999998
30
0
10
313.38802799999996
20
368.84515099999999
30
0
10
313.13319000000001
20
369.09998899999999
30
0
0
SPLINE
5
548
100
AcDbEntity
8
0
100
AcDbSpline
70
1064
71
3
72
8
73
4
74
0
42
0.000000001
43
0.0000000001
44
0.0000000001
40
0
40
0
40
0
40
0
40
1
40
1
40
1
40
1
10
315.05492500000003
20
369.09998899999999
30
0
10
314.80008700000002
20
368.84515099999999
30
0
10
314.45445300000006
20
368.70198399999998
30
0
10
314.09405699999996
20
368.70198500000009
30
0
0
SPLINE
5
549
100
AcDbEntity
8
0
100
AcDbSpline
70
1064
71
3
72
8
73
4
74
0
42
0.000000001
43
0.0000000001
44
0.0000000001
40
0
40
0
40
0
40
0
40
1
40
1
40
1
40
1
10
256.51170999999999
20
392.84087999999997
30
0
10
256.51170999999999
20
392.48048500000004
30
0
10
256.36854399999999
20
392.13485100000003
30
0
10
256.11370599999998
20
391.88001299999996
30
0
0
SPLINE
5
550
100
AcDbEntity
8
0
100
AcDbSpline
70
1064
71
3
72
8
73
4
74
0
42
0.000000001
43
0.0000000001
44
0.0000000001
40
0
40
0
40
0
40
0
40
1
40
1
40
1
40
1
10
251.13370900000001
20
397.84087
30
0
10
251.13370900000001
20
397.48047500000007
30
0
10
250.990542
20
397.13484100000005
30
0
10
250.735705
20
396.88000299999999
30
0
0
SPLINE
5
551
100
AcDbEntity
8
0
100
AcDbSpline
70
1064
71
3
72
8
73
4
74
0
42
0.000000001
43
0.0000000001
44
0.0000000001
40
0
40
0
40
0
40
0
40
1
40
1
40
1
40
1
10
250.735705
20
398.801738
30
0
10
250.990542
20
398.54690000000005
30
0
10
251.13370900000001
20
398.20126600000009
30
0
10
251.13370900000001
20
397.84087
30
0
0
SPLINE
5
552
100
AcDbEntity
8
0
100
AcDbSpline
70
1064
71
3
72
8
73
4
74
0
42
0.000000001
43
0.0000000001
44
0.0000000001
40
0
40
0
40
0
40
0
40
1
40
1
40
1
40
1
10
241.174846
20
399.19974200000007
30
0
10
241.53524100000001
20
399.19974200000007
30
0
10
241.880875
20
399.05657599999995
30
0
10
242.13571299999998
20
398.801738
30
0
0
SPLINE
5
553
100
AcDbEntity
8
0
100
AcDbSpline
70
1064
71
3
72
8
73
4
74
0
42
0.000000001
43
0.0000000001
44
0.0000000001
40
0
40
0
40
0
40
0
40
1
40
1
40
1
40
1
10
248.41596800000005
20
397.84087
30
0
10
248.41596800000005
20
398.59135400000008
30
0
10
249.02435400000002
20
399.19974100000002
30
0
10
249.77483700000005
20
399.19974200000007
30
0
0
SPLINE
5
554
100
AcDbEntity
8
0
100
AcDbSpline
70
1064
71
3
72
8
73
4
74
0
42
0.000000001
43
0.0000000001
44
0.0000000001
40
0
40
0
40
0
40
0
40
1
40
1
40
1
40
1
10
240.213978
20
396.88000299999999
30
0
10
239.95913999999999
20
397.13484100000005
30
0
10
239.81597400000001
20
397.48047500000007
30
0
10
239.81597400000001
20
397.84087
30
0
0
SPLINE
5
555
100
AcDbEntity
8
0
100
AcDbSpline
70
1064
71
3
72
8
73
4
74
0
42
0.000000001
43
0.0000000001
44
0.0000000001
40
0
40
0
40
0
40
0
40
1
40
1
40
1
40
1
10
239.81597400000001
20
397.84087
30
0
10
239.81597400000001
20
398.20126600000009
30
0
10
239.95913999999999
20
398.54690000000005
30
0
10
240.213978
20
398.801738
30
0
0
SPLINE
5
556
100
AcDbEntity
8
0
100
AcDbSpline
70
1064
71
3
72
8
73
4
74
0
42
0.000000001
43
0.0000000001
44
0.0000000001
40
0
40
0
40
0
40
0
40
1
40
1
40
1
40
1
10
241.174846
20
396.48199900000009
30
0
10
240.81445000000002
20
396.48199799999998
30
0
10
240.46881600000003
20
396.62516500000004
30
0
10
240.213978
20
396.88000299999999
30
0
0
SPLINE
5
557
100
AcDbEntity
8
0
100
AcDbSpline
70
1064
71
3
72
8
73
4
74
0
42
0.000000001
43
0.0000000001
44
0.0000000001
40
0
40
0
40
0
40
0
40
1
40
1
40
1
40
1
10
242.13571299999998
20
398.801738
30
0
10
242.39055100000002
20
398.54690000000005
30
0
10
242.53371800000002
20
398.20126600000009
30
0
10
242.53371700000002
20
397.84087
30
0
0
SPLINE
5
558
100
AcDbEntity
8
0
100
AcDbSpline
70
1064
71
3
72
8
73
4
74
0
42
0.000000001
43
0.0000000001
44
0.0000000001
40
0
40
0
40
0
40
0
40
1
40
1
40
1
40
1
10
313.13319000000001
20
369.09998899999999
30
0
10
312.87835200000006
20
369.354827
30
0
10
312.735185
20
369.70046099999996
30
0
10
312.735186
20
370.060856
30
0
0
SPLINE
5
559
100
AcDbEntity
8
0
100
AcDbSpline
70
1064
71
3
72
8
73
4
74
0
42
0.000000001
43
0.0000000001
44
0.0000000001
40
0
40
0
40
0
40
0
40
1
40
1
40
1
40
1
10
313.13319000000001
20
371.02172400000001
30
0
10
313.38802799999996
20
371.27656200000001
30
0
10
313.73366200000009
20
371.41972799999996
30
0
10
314.09405699999996
20
371.41972799999996
30
0
0
SPLINE
5
560
100
AcDbEntity
8
0
100
AcDbSpline
70
1064
71
3
72
8
73
4
74
0
42
0.000000001
43
0.0000000001
44
0.0000000001
40
0
40
0
40
0
40
0
40
1
40
1
40
1
40
1
10
253.79396600000004
20
392.84087999999997
30
0
10
253.79396800000001
20
393.59136400000006
30
0
10
254.402355
20
394.19974999999999
30
0
10
255.15283800000003
20
394.199749
30
0
0
SPLINE
5
561
100
AcDbEntity
8
0
100
AcDbSpline
70
1064
71
3
72
8
73
4
74
0
42
0.000000001
43
0.0000000001
44
0.0000000001
40
0
40
0
40
0
40
0
40
1
40
1
40
1
40
1
10
314.09405699999996
20
371.41972799999996
30
0
10
314.45445300000006
20
371.41972799999996
30
0
10
314.80008700000002
20
371.27656200000001
30
0
10
315.05492500000003
20
371.02172400000001
30
0
0
SPLINE
5
562
100
AcDbEntity
8
0
100
AcDbSpline
70
1064
71
3
72
8
73
4
74
0
42
0.000000001
43
0.0000000001
44
0.0000000001
40
0
40
0
40
0
40
0
40
1
40
1
40
1
40
1
10
315.42668300000003
20
375.86086200000005
30
0
10
315.42668300000003
20
375.50046600000002
30
0
10
315.28351600000002
20
375.154832
30
0
10
315.02867799999996
20
374.89999399999999
30
0
0
SPLINE
5
563
100
AcDbEntity
8
0
100
AcDbSpline
70
1064
71
3
72
8
73
4
74
0
42
0.000000001
43
0.0000000001
44
0.0000000001
40
0
40
0
40
0
40
0
40
1
40
1
40
1
40
1
10
315.02867799999996
20
374.89999399999999
30
0
10
314.773841
20
374.64515599999999
30
0
10
314.42820599999999
20
374.50198999999998
30
0
10
314.06781100000001
20
374.50198999999998
30
0
0
SPLINE
5
564
100
AcDbEntity
8
0
100
AcDbSpline
70
1064
71
3
72
8
73
4
74
0
42
0.000000001
43
0.0000000001
44
0.0000000001
40
0
40
0
40
0
40
0
40
1
40
1
40
1
40
1
10
314.06781100000001
20
374.50198999999998
30
0
10
313.70741600000002
20
374.50198999999998
30
0
10
313.36178100000001
20
374.64515599999999
30
0
10
313.106943
20
374.89999399999999
30
0
0
SPLINE
5
565
100
AcDbEntity
8
0
100
AcDbSpline
70
1064
71
3
72
8
73
4
74
0
42
0.000000001
43
0.0000000001
44
0.0000000001
40
0
40
0
40
0
40
0
40
1
40
1
40
1
40
1
10
313.106943
20
374.89999399999999
30
0
10
312.85210499999999
20
375.154832
30
0
10
312.70893899999999
20
375.50046600000002
30
0
10
312.70893899999999
20
375.86086200000005
30
0
0
SPLINE
5
566
100
AcDbEntity
8
0
100
AcDbSpline
70
1064
71
3
72
8
73
4
74
0
42
0.000000001
43
0.0000000001
44
0.0000000001
40
0
40
0
40
0
40
0
40
1
40
1
40
1
40
1
10
315.05492500000003
20
371.02172400000001
30
0
10
315.30976299999998
20
370.76688600000006
30
0
10
315.45292899999998
20
370.42125199999998
30
0
10
315.45292899999998
20
370.060856
30
0
0
SPLINE
5
567
100
AcDbEntity
8
0
100
AcDbSpline
70
1064
71
3
72
8
73
4
74
0
42
0.000000001
43
0.0000000001
44
0.0000000001
40
0
40
0
40
0
40
0
40
1
40
1
40
1
40
1
10
315.02867799999996
20
376.82172900000006
30
0
10
315.28351600000002
20
376.566891
30
0
10
315.42668300000003
20
376.22125699999998
30
0
10
315.42668300000003
20
375.86086200000005
30
0
0
SPLINE
5
568
100
AcDbEntity
8
0
100
AcDbSpline
70
1064
71
3
72
8
73
4
74
0
42
0.000000001
43
0.0000000001
44
0.0000000001
40
0
40
0
40
0
40
0
40
1
40
1
40
1
40
1
10
312.70893899999999
20
375.86086200000005
30
0
10
312.70893899999999
20
376.22125699999998
30
0
10
312.85210499999999
20
376.566891
30
0
10
313.106943
20
376.82172900000006
30
0
0
SPLINE
5
569
100
AcDbEntity
8
0
100
AcDbSpline
70
1064
71
3
72
8
73
4
74
0
42
0.000000001
43
0.0000000001
44
0.0000000001
40
0
40
0
40
0
40
0
40
1
40
1
40
1
40
1
10
314.06781100000001
20
377.21973399999996
30
0
10
314.42820599999999
20
377.21973399999996
30
0
10
314.773841
20
377.07656700000001
30
0
10
315.02867799999996
20
376.82172900000006
30
0
0
SPLINE
5
570
100
AcDbEntity
8
0
100
AcDbSpline
70
1064
71
3
72
8
73
4
74
0
42
0.000000001
43
0.0000000001
44
0.0000000001
40
0
40
0
40
0
40
0
40
1
40
1
40
1
40
1
10
313.106943
20
376.82172900000006
30
0
10
313.36178100000001
20
377.07656700000001
30
0
10
313.70741600000002
20
377.21973399999996
30
0
10
314.06781100000001
20
377.21973399999996
30
0
0
SPLINE
5
571
100
AcDbEntity
8
0
100
AcDbSpline
70
1064
71
3
72
8
73
4
74
0
42
0.000000001
43
0.0000000001
44
0.0000000001
40
0
40
0
40
0
40
0
40
1
40
1
40
1
40
1
10
214.094032
20
368.70198500000009
30
0
10
213.73363600000002
20
368.70198399999998
30
0
10
213.38800200000003
20
368.84515099999999
30
0
10
213.13316400000005
20
369.09998899999999
30
0
0
SPLINE
5
572
100
AcDbEntity
8
0
100
AcDbSpline
70
1064
71
3
72
8
73
4
74
0
42
0.000000001
43
0.0000000001
44
0.0000000001
40
0
40
0
40
0
40
0
40
1
40
1
40
1
40
1
10
215.05489900000003
20
369.09998899999999
30
0
10
214.800061
20
368.84515099999999
30
0
10
214.45442700000001
20
368.70198399999998
30
0
10
214.094032
20
368.70198500000009
30
0
0
SPLINE
5
573
100
AcDbEntity
8
0
100
AcDbSpline
70
1064
71
3
72
8
73
4
74
0
42
0.000000001
43
0.0000000001
44
0.0000000001
40
0
40
0
40
0
40
0
40
1
40
1
40
1
40
1
10
215.45290300000002
20
370.060856
30
0
10
215.45290399999999
20
369.70046099999996
30
0
10
215.30973700000004
20
369.354827
30
0
10
215.05489900000003
20
369.09998899999999
30
0
0
SPLINE
5
574
100
AcDbEntity
8
0
100
AcDbSpline
70
1064
71
3
72
8
73
4
74
0
42
0.000000001
43
0.0000000001
44
0.0000000001
40
0
40
0
40
0
40
0
40
1
40
1
40
1
40
1
10
212.73516000000001
20
370.060856
30
0
10
212.73516000000001
20
370.42125199999998
30
0
10
212.87832600000002
20
370.76688600000006
30
0
10
213.13316400000005
20
371.02172400000001
30
0
0
SPLINE
5
575
100
AcDbEntity
8
0
100
AcDbSpline
70
1064
71
3
72
8
73
4
74
0
42
0.000000001
43
0.0000000001
44
0.0000000001
40
0
40
0
40
0
40
0
40
1
40
1
40
1
40
1
10
213.13316400000005
20
371.02172400000001
30
0
10
213.38800200000003
20
371.27656200000001
30
0
10
213.73363600000002
20
371.41972799999996
30
0
10
214.094032
20
371.41972799999996
30
0
0
SPLINE
5
576
100
AcDbEntity
8
0
100
AcDbSpline
70
1064
71
3
72
8
73
4
74
0
42
0.000000001
43
0.0000000001
44
0.0000000001
40
0
40
0
40
0
40
0
40
1
40
1
40
1
40
1
10
213.13316400000005
20
369.09998899999999
30
0
10
212.87832600000002
20
369.354827
30
0
10
212.73516000000001
20
369.70046099999996
30
0
10
212.73516000000001
20
370.060856
30
0
0
SPLINE
5
577
100
AcDbEntity
8
0
100
AcDbSpline
70
1064
71
3
72
8
73
4
74
0
42
0.000000001
43
0.0000000001
44
0.0000000001
40
0
40
0
40
0
40
0
40
1
40
1
40
1
40
1
10
214.094032
20
371.41972799999996
30
0
10
214.45442700000001
20
371.41972799999996
30
0
10
214.800061
20
371.27656200000001
30
0
10
215.05489900000003
20
371.02172400000001
30
0
0
SPLINE
5
578
100
AcDbEntity
8
0
100
AcDbSpline
70
1064
71
3
72
8
73
4
74
0
42
0.000000001
43
0.0000000001
44
0.0000000001
40
0
40
0
40
0
40
0
40
1
40
1
40
1
40
1
10
280.83868999999999
20
437.71799600000003
30
0
10
280.58385199999998
20
437.46315800000002
30
0
10
280.23821700000002
20
437.31999100000002
30
0
10
279.87782200000004
20
437.31999200000007
30
0
0
SPLINE
5
579
100
AcDbEntity
8
0
100
AcDbSpline
70
1064
71
3
72
8
73
4
74
0
42
0.000000001
43
0.0000000001
44
0.0000000001
40
0
40
0
40
0
40
0
40
1
40
1
40
1
40
1
10
215.05489900000003
20
371.02172400000001
30
0
10
215.30973700000004
20
370.76688600000006
30
0
10
215.45290399999999
20
370.42125199999998
30
0
10
215.45290300000002
20
370.060856
30
0
0
SPLINE
5
580
100
AcDbEntity
8
0
100
AcDbSpline
70
1064
71
3
72
8
73
4
74
0
42
0.000000001
43
0.0000000001
44
0.0000000001
40
0
40
0
40
0
40
0
40
1
40
1
40
1
40
1
10
214.06781600000002
20
374.50198999999998
30
0
10
213.70742100000001
20
374.50198999999998
30
0
10
213.361786
20
374.64515599999999
30
0
10
213.10694799999999
20
374.89999399999999
30
0
0
SPLINE
5
581
100
AcDbEntity
8
0
100
AcDbSpline
70
1064
71
3
72
8
73
4
74
0
42
0.000000001
43
0.0000000001
44
0.0000000001
40
0
40
0
40
0
40
0
40
1
40
1
40
1
40
1
10
215.42668500000005
20
375.86086200000005
30
0
10
215.42668500000005
20
375.11037900000008
30
0
10
214.81829900000005
20
374.50199100000009
30
0
10
214.06781600000002
20
374.50198999999998
30
0
0
SPLINE
5
582
100
AcDbEntity
8
0
100
AcDbSpline
70
1064
71
3
72
8
73
4
74
0
42
0.000000001
43
0.0000000001
44
0.0000000001
40
0
40
0
40
0
40
0
40
1
40
1
40
1
40
1
10
279.87782200000004
20
437.31999200000007
30
0
10
279.517427
20
437.31999100000002
30
0
10
279.17179199999998
20
437.46315800000002
30
0
10
278.91695399999998
20
437.71799600000003
30
0
0
SPLINE
5
583
100
AcDbEntity
8
0
100
AcDbSpline
70
1064
71
3
72
8
73
4
74
0
42
0.000000001
43
0.0000000001
44
0.0000000001
40
0
40
0
40
0
40
0
40
1
40
1
40
1
40
1
10
281.236694
20
438.67886300000004
30
0
10
281.236694
20
438.318468
30
0
10
281.09352699999999
20
437.97283399999998
30
0
10
280.83868999999999
20
437.71799600000003
30
0
0
SPLINE
5
584
100
AcDbEntity
8
0
100
AcDbSpline
70
1064
71
3
72
8
73
4
74
0
42
0.000000001
43
0.0000000001
44
0.0000000001
40
0
40
0
40
0
40
0
40
1
40
1
40
1
40
1
10
278.91695399999998
20
437.71799600000003
30
0
10
278.66211600000003
20
437.97283399999998
30
0
10
278.51895000000002
20
438.318468
30
0
10
278.51895000000002
20
438.67886300000004
30
0
0
SPLINE
5
585
100
AcDbEntity
8
0
100
AcDbSpline
70
1064
71
3
72
8
73
4
74
0
42
0.000000001
43
0.0000000001
44
0.0000000001
40
0
40
0
40
0
40
0
40
1
40
1
40
1
40
1
10
278.51895000000002
20
438.67886300000004
30
0
10
278.51895099999996
20
439.42934699999995
30
0
10
279.12733900000001
20
440.03773300000006
30
0
10
279.87782200000004
20
440.03773200000006
30
0
0
SPLINE
5
586
100
AcDbEntity
8
0
100
AcDbSpline
70
1064
71
3
72
8
73
4
74
0
42
0.000000001
43
0.0000000001
44
0.0000000001
40
0
40
0
40
0
40
0
40
1
40
1
40
1
40
1
10
279.87782200000004
20
440.03773200000006
30
0
10
280.62830499999995
20
440.03773300000006
30
0
10
281.23669200000001
20
439.42934699999995
30
0
10
281.236694
20
438.67886300000004
30
0
0
SPLINE
5
587
100
AcDbEntity
8
0
100
AcDbSpline
70
1064
71
3
72
8
73
4
74
0
42
0.000000001
43
0.0000000001
44
0.0000000001
40
0
40
0
40
0
40
0
40
1
40
1
40
1
40
1
10
278.51895000000002
20
447.27885500000002
30
0
10
278.51895000000002
20
447.63925
30
0
10
278.66211600000003
20
447.98488399999997
30
0
10
278.91695399999998
20
448.23972200000003
30
0
0
SPLINE
5
588
100
AcDbEntity
8
0
100
AcDbSpline
70
1064
71
3
72
8
73
4
74
0
42
0.000000001
43
0.0000000001
44
0.0000000001
40
0
40
0
40
0
40
0
40
1
40
1
40
1
40
1
10
280.83868999999999
20
446.31798700000002
30
0
10
280.58385199999998
20
446.06314900000001
30
0
10
280.23821700000002
20
445.919983
30
0
10
279.87782200000004
20
445.919983
30
0
0
SPLINE
5
589
100
AcDbEntity
8
0
100
AcDbSpline
70
1064
71
3
72
8
73
4
74
0
42
0.000000001
43
0.0000000001
44
0.0000000001
40
0
40
0
40
0
40
0
40
1
40
1
40
1
40
1
10
0.207512
20
507.83546200000001
30
0
10
0.207512
20
521.56472699999995
30
0
10
11.337285000000001
20
532.69447000000002
30
0
10
25.066521000000002
20
532.69447000000002
30
0
0
SPLINE
5
590
100
AcDbEntity
8
0
100
AcDbSpline
70
1064
71
3
72
8
73
4
74
0
42
0.000000001
43
0.0000000001
44
0.0000000001
40
0
40
0
40
0
40
0
40
1
40
1
40
1
40
1
10
534.38692279598945
20
24.849849848060718
30
0
10
534.38683600355603
20
11.120584848335145
30
0
10
523.25699364476952
20
-0.0090877922501266563
30
0
10
509.52775764504383
20
-0.0090010000000020803
30
0
0
LINE
5
591
100
AcDbEntity
8
0
100
AcDbLine
10
534.38692279598945
20
24.849849848060718
30
0
11
534.38647369511568
21
507.83846587895368
31
0
0
SPLINE
5
592
100
AcDbEntity
8
0
100
AcDbSpline
70
1064
71
3
72
8
73
4
74
0
42
0.000000001
43
0.0000000001
44
0.0000000001
40
0
40
0
40
0
40
0
40
1
40
1
40
1
40
1
10
25.019234338721581
20
-0.0090009999999999916
30
0
10
11.289971338732499
20
-0.0090183096197102384
30
0
10
0.16021530651537619
20
11.1207396581833
30
0
10
0.16019799692970707
20
24.84997565817239
30
0
0
SPLINE
5
593
100
AcDbEntity
8
0
100
AcDbSpline
70
1064
71
3
72
8
73
4
74
0
42
0.000000001
43
0.0000000001
44
0.0000000001
40
0
40
0
40
0
40
0
40
1
40
1
40
1
40
1
10
260.95284300000003
20
394.22596800000008
30
0
10
261.31323900000001
20
394.22596800000008
30
0
10
261.65887299999997
20
394.08280100000002
30
0
10
261.91371099999998
20
393.82796400000007
30
0
0
LINE
5
594
100
AcDbEntity
8
0
100
AcDbLine
10
534.38647369511568
20
507.83846587895368
30
0
11
534.38692279598945
21
24.849849848060718
31
0
0
LINE
5
595
100
AcDbEntity
8
0
100
AcDbLine
10
509.52761981734483
20
532.69762700023341
30
0
11
25.066521000000002
21
532.69447000000002
31
0
0
SPLINE
5
596
100
AcDbEntity
8
0
100
AcDbSpline
70
1064
71
3
72
8
73
4
74
0
42
0.000000001
43
0.0000000001
44
0.0000000001
40
0
40
0
40
0
40
0
40
1
40
1
40
1
40
1
10
509.52761981734488
20
532.69762700023352
30
0
10
523.25688481708096
20
532.69754188105048
30
0
10
534.38655881411898
20
521.56770187868995
30
0
10
534.38647369511568
20
507.83846587895368
30
0
0
SPLINE
5
597
100
AcDbEntity
8
0
100
AcDbSpline
70
1064
71
3
72
8
73
4
74
0
42
0.000000001
43
0.0000000001
44
0.0000000001
40
0
40
0
40
0
40
0
40
1
40
1
40
1
40
1
10
279.87782200000004
20
448.63772600000004
30
0
10
280.23821700000002
20
448.63772699999998
30
0
10
280.58385199999998
20
448.49456000000004
30
0
10
280.83868999999999
20
448.23972200000003
30
0
0
SPLINE
5
598
100
AcDbEntity
8
0
100
AcDbSpline
70
1064
71
3
72
8
73
4
74
0
42
0.000000001
43
0.0000000001
44
0.0000000001
40
0
40
0
40
0
40
0
40
1
40
1
40
1
40
1
10
279.87782200000004
20
445.919983
30
0
10
279.517427
20
445.919983
30
0
10
279.17179199999998
20
446.06314900000001
30
0
10
278.91695399999998
20
446.31798700000002
30
0
0
SPLINE
5
599
100
AcDbEntity
8
0
100
AcDbSpline
70
1064
71
3
72
8
73
4
74
0
42
0.000000001
43
0.0000000001
44
0.0000000001
40
0
40
0
40
0
40
0
40
1
40
1
40
1
40
1
10
278.91695399999998
20
448.23972200000003
30
0
10
279.17179199999998
20
448.49456000000004
30
0
10
279.517427
20
448.63772699999998
30
0
10
279.87782200000004
20
448.63772600000004
30
0
0
SPLINE
5
600
100
AcDbEntity
8
0
100
AcDbSpline
70
1064
71
3
72
8
73
4
74
0
42
0.000000001
43
0.0000000001
44
0.0000000001
40
0
40
0
40
0
40
0
40
1
40
1
40
1
40
1
10
280.83868999999999
20
448.23972200000003
30
0
10
281.09352699999999
20
447.98488399999997
30
0
10
281.236694
20
447.63925
30
0
10
281.236694
20
447.27885500000002
30
0
0
SPLINE
5
601
100
AcDbEntity
8
0
100
AcDbSpline
70
1064
71
3
72
8
73
4
74
0
42
0.000000001
43
0.0000000001
44
0.0000000001
40
0
40
0
40
0
40
0
40
1
40
1
40
1
40
1
10
278.91695399999998
20
446.31798700000002
30
0
10
278.66211600000003
20
446.57282500000008
30
0
10
278.51895000000002
20
446.91845900000004
30
0
10
278.51895000000002
20
447.27885500000002
30
0
0
SPLINE
5
602
100
AcDbEntity
8
0
100
AcDbSpline
70
1064
71
3
72
8
73
4
74
0
42
0.000000001
43
0.0000000001
44
0.0000000001
40
0
40
0
40
0
40
0
40
1
40
1
40
1
40
1
10
281.236694
20
447.27885500000002
30
0
10
281.236694
20
446.91845900000004
30
0
10
281.09352699999999
20
446.57282500000008
30
0
10
280.83868999999999
20
446.31798700000002
30
0
0
LINE
5
603
100
AcDbEntity
8
0
100
AcDbLine
10
25.019234338721589
20
-0.0090010000000000107
30
0
11
509.52775764504372
21
-0.0090009999999999986
31
0
0
SPLINE
5
604
100
AcDbEntity
8
0
100
AcDbSpline
70
1064
71
3
72
8
73
4
74
0
42
0.000000001
43
0.0000000001
44
0.0000000001
40
0
40
0
40
0
40
0
40
1
40
1
40
1
40
1
10
217.07886799999781
20
496.71303399994906
30
0
10
217.07878295132403
20
497.85027399676869
30
0
10
218.00063000333606
20
498.77225593982502
30
0
10
219.13787000015589
20
498.77234098849874
30
0
0
LINE
5
605
100
AcDbEntity
8
0
100
AcDbLine
10
25.066521000000002
20
532.69447000000002
30
0
11
509.52761981734483
21
532.69762700023341
31
0
0
ENDSEC
0
SECTION
2
OBJECTS
0
DICTIONARY
5
C
100
AcDbDictionary
3
ACAD_GROUP
350
D
3
ACAD_MLINESTYLE
350
17
0
DICTIONARY
5
D
100
AcDbDictionary
0
DICTIONARY
5
1A
330
C
100
AcDbDictionary
0
DICTIONARY
5
17
100
AcDbDictionary
0
ENDSEC
0
EOF
