<?xml version="1.0" encoding="UTF-8" standalone="no"?>
<svg
   xmlns:dc="http://purl.org/dc/elements/1.1/"
   xmlns:cc="http://creativecommons.org/ns#"
   xmlns:rdf="http://www.w3.org/1999/02/22-rdf-syntax-ns#"
   xmlns:svg="http://www.w3.org/2000/svg"
   xmlns="http://www.w3.org/2000/svg"
   xmlns:sodipodi="http://sodipodi.sourceforge.net/DTD/sodipodi-0.dtd"
   xmlns:inkscape="http://www.inkscape.org/namespaces/inkscape"
   width="484.80377mm"
   height="453.29581mm"
   id="svg2"
   version="1.1"
   inkscape:version="0.91 r13725"
   sodipodi:docname="frame_base_full_200_mm_travel.svg">
  <metadata
     id="metadata164">
    <rdf:RDF>
      <cc:Work
         rdf:about="">
        <dc:format>image/svg+xml</dc:format>
        <dc:type
           rdf:resource="http://purl.org/dc/dcmitype/StillImage" />
        <dc:title></dc:title>
      </cc:Work>
    </rdf:RDF>
  </metadata>
  <sodipodi:namedview
     pagecolor="#ffffff"
     bordercolor="#666666"
     borderopacity="1"
     objecttolerance="10"
     gridtolerance="10"
     guidetolerance="10"
     inkscape:pageopacity="0"
     inkscape:pageshadow="2"
     inkscape:window-width="1920"
     inkscape:window-height="1017"
     id="namedview162"
     showgrid="false"
     inkscape:document-units="mm"
     units="mm"
     fit-margin-top="0"
     fit-margin-left="0"
     fit-margin-right="0"
     fit-margin-bottom="0"
     inkscape:zoom="0.52921047"
     inkscape:cx="858.90432"
     inkscape:cy="803.08312"
     inkscape:window-x="-8"
     inkscape:window-y="-8"
     inkscape:window-maximized="1"
     inkscape:current-layer="g96"
     showborder="false"
     inkscape:showpageshadow="false" />
  <desc
     id="desc4">C:\Users\Bo\Desktop\Round4 Sheets\frame_base_combined.dxf - scale = 1.000000, origin = (0.000000, 0.000000), auto = False</desc>
  <defs
     id="defs6">
    <marker
       refY="0"
       refX="0"
       style="overflow:visible"
       id="DistanceX"
       orient="auto">
      <path
         style="stroke:#000000;stroke-width:0.5"
         d="M 3,-3 -3,3 M 0,-5 0,5"
         id="path9"
         inkscape:connector-curvature="0" />
    </marker>
    <pattern
       height="8"
       width="8"
       patternUnits="userSpaceOnUse"
       y="0"
       x="0"
       id="Hatch">
      <path
         linecap="square"
         stroke="#000000"
         stroke-width="0.25"
         d="M8 4 l-4,4"
         id="path12" />
      <path
         linecap="square"
         stroke="#000000"
         stroke-width="0.25"
         d="M6 2 l-4,4"
         id="path14" />
      <path
         linecap="square"
         stroke="#000000"
         stroke-width="0.25"
         d="M4 0 l-4,4"
         id="path16" />
    </pattern>
    <symbol
       id="*MODEL_SPACE" />
    <symbol
       id="*PAPER_SPACE" />
  </defs>
  <g
     inkscape:label="ORG_NOPHEAD"
     inkscape:groupmode="layer"
     id="g22"
     transform="translate(0.02860676,433.31057)"
     style="display:inline">
    <path
       style="fill:none;stroke:#000000"
       d="m 89.08268,-432.78339 -7.720869,0.33661 -7.66063,1.00985 -7.543701,1.67245 -7.373619,2.3244 -7.13622,2.95512 -6.856299,3.56811 -6.516142,4.15276 -6.133472,4.7055 -5.697637,5.2193 -5.219292,5.69763 -4.705508,6.13347 -4.15276,6.51615 -3.56811,6.8563 -2.955111,7.13622 -2.324409,7.37361 -1.672441,7.54371 -1.00985,7.66062 -0.33661,7.72087"
       id="path26"
       inkscape:connector-curvature="0" />
    <path
       style="fill:none;stroke:#000000"
       d="m 61.12598,129.89378 0.194879,-1.73445 0.577562,-1.64764 0.92835,-1.47827 1.233068,-1.23413 1.477562,-0.9287 1.647638,-0.5765 1.73622,-0.19559 1.736221,0.19559 1.647641,0.5765 1.477559,0.9287 1.233071,1.23413 0.92834,1.47827 0.577559,1.64764 0.194881,1.73445 -0.194881,1.73444 -0.577559,1.64765 -0.92834,1.47826 -1.233071,1.23413 -1.477559,0.9287 -1.647641,0.5765 -1.736221,0.19559 -1.73622,-0.19559 -1.647638,-0.5765 -1.477562,-0.9287 -1.233068,-1.23413 -0.92835,-1.47826 -0.577562,-1.64765 -0.194879,-1.73444"
       id="path28"
       inkscape:connector-curvature="0" />
    <path
       style="fill:none;stroke:#000000"
       d="m 207.78346,-364.36213 0.19489,-1.73622 0.57756,-1.64764 0.92834,-1.47756 1.23307,-1.23306 1.47756,-0.92836 1.64764,-0.57755 1.73622,-0.19489 1.73622,0.19489 1.64764,0.57755 1.47756,0.92836 1.23307,1.23306 0.92834,1.47756 0.57756,1.64764 0.19489,1.73622 -0.19489,1.73622 -0.57756,1.64764 -0.92834,1.47756 -1.23307,1.23308 -1.47756,0.92834 -1.64764,0.57755 -1.73622,0.19489 -1.73622,-0.19489 -1.64764,-0.57755 -1.47756,-0.92834 -1.23307,-1.23308 -0.92834,-1.47756 -0.57756,-1.64764 -0.19489,-1.73622"
       id="path34"
       inkscape:connector-curvature="0" />
    <path
       style="fill:none;stroke:#000000"
       d="m 282.15748,129.89378 0.19488,-1.73445 0.57756,-1.64764 0.92835,-1.47827 1.23307,-1.23413 1.47756,-0.9287 1.64763,-0.5765 1.73622,-0.19559 1.73623,0.19559 1.64763,0.5765 1.47756,0.9287 1.23307,1.23413 0.92835,1.47827 0.57756,1.64764 0.19488,1.73445 -0.19488,1.73444 -0.57756,1.64765 -0.92835,1.47826 -1.23307,1.23413 -1.47756,0.9287 -1.64763,0.5765 -1.73623,0.19559 -1.73622,-0.19559 -1.64763,-0.5765 -1.47756,-0.9287 -1.23307,-1.23413 -0.92835,-1.47826 -0.57756,-1.64765 -0.19488,-1.73444"
       id="path36"
       inkscape:connector-curvature="0" />
    <path
       style="fill:none;stroke:#000000"
       d="m 880.14405,-152.42276 0.14457,-1.74331 0.70299,-1.60157 1.18489,-1.28977 1.53885,-0.83267 1.72559,-0.28701 1.72595,0.28701 1.5385,0.83267 1.18524,1.28977 0.70264,1.60157 0.14456,1.74331 -0.42944,1.69724 -0.95705,1.46339 -1.38083,1.07363 -1.65472,0.57047 -1.74969,0 -1.65472,-0.57047 -1.38083,-1.07363 -0.95705,-1.46339 -0.42945,-1.69724"
       id="path60"
       inkscape:connector-curvature="0" />
    <path
       style="fill:none;stroke:#000000"
       d="m 880.14405,-172.97394 0.14457,-1.7433 0.70299,-1.60158 1.18489,-1.28977 1.53885,-0.83267 1.72559,-0.287 1.72595,0.287 1.5385,0.83267 1.18524,1.28977 0.70264,1.60158 0.14456,1.7433 -0.42944,1.69724 -0.95705,1.46339 -1.38083,1.07363 -1.65472,0.57046 -1.74969,0 -1.65472,-0.57046 -1.38083,-1.07363 -0.95705,-1.46339 -0.42945,-1.69724"
       id="path62"
       inkscape:connector-curvature="0" />
    <path
       style="fill:none;stroke:#000000"
       d="m 897.86059,-192.98654 0.42945,-1.69724 0.95705,-1.46339 1.38082,-1.07361 1.65473,-0.57048 1.74968,0 1.65473,0.57048 1.38082,1.07361 0.95705,1.46339 0.42945,1.69724 -0.14457,1.74332 -0.70299,1.60156 -1.18488,1.28977 -1.53886,0.83267 -1.72559,0.28702 -1.72594,-0.28702 -1.53851,-0.83267 -1.18523,-1.28977 -0.70264,-1.60156 -0.14457,-1.74332"
       id="path64"
       inkscape:connector-curvature="0" />
    <path
       style="fill:none;stroke:#000000"
       d="m 897.86059,-223.45898 0.42945,-1.69724 0.95705,-1.46339 1.38082,-1.07361 1.65473,-0.57048 1.74968,0 1.65473,0.57048 1.38082,1.07361 0.95705,1.46339 0.42945,1.69724 -0.14457,1.74331 -0.70299,1.60158 -1.18488,1.28976 -1.53886,0.83267 -1.72559,0.28701 -1.72594,-0.28701 -1.53851,-0.83267 -1.18523,-1.28976 -0.70264,-1.60158 -0.14457,-1.74331"
       id="path66"
       inkscape:connector-curvature="0" />
    <path
       style="fill:none;stroke:#000000"
       d="m 1175.1789,114.11508 0,-1.74969 0.568,-1.65472 1.0747,-1.38082 1.463,-0.95706 1.6973,-0.42945 1.7433,0.14457 1.6016,0.70299 1.2897,1.18488 0.8327,1.53887 0.287,1.72559 -0.287,1.72594 -0.8327,1.5385 -1.2897,1.18524 -1.6016,0.70265 -1.7433,0.14456 -1.6973,-0.42946 -1.463,-0.95704 -1.0747,-1.38083 -0.568,-1.65472"
       id="path76"
       inkscape:connector-curvature="0" />
    <path
       style="fill:none;stroke:#000000"
       d="m 1195.7284,114.11508 0,-1.74969 0.5704,-1.65472 1.0736,-1.38082 1.4634,-0.95706 1.6973,-0.42945 1.7433,0.14457 1.6015,0.70299 1.2898,1.18488 0.8327,1.53887 0.287,1.72559 -0.287,1.72594 -0.8327,1.5385 -1.2898,1.18524 -1.6015,0.70265 -1.7433,0.14456 -1.6973,-0.42946 -1.4634,-0.95704 -1.0736,-1.38083 -0.5704,-1.65472"
       id="path78"
       inkscape:connector-curvature="0" />
    <path
       style="fill:none;stroke:#000000"
       d="m 1214.7913,130.95677 0.2871,-1.72595 0.8326,-1.5385 1.2898,-1.18524 1.6016,-0.70263 1.7433,-0.14456 1.6972,0.42944 1.4634,0.95704 1.0736,1.38083 0.5705,1.65472 0,1.74969 -0.5705,1.65472 -1.0736,1.38083 -1.4634,0.95706 -1.6972,0.42944 -1.7433,-0.14457 -1.6016,-0.70298 -1.2898,-1.18489 -0.8326,-1.53886 -0.2871,-1.72559"
       id="path80"
       inkscape:connector-curvature="0" />
    <path
       style="fill:none;stroke:#000000"
       d="m 1235.3425,130.95677 0.287,-1.72595 0.8327,-1.5385 1.2898,-1.18524 1.6015,-0.70263 1.7434,-0.14456 1.6972,0.42944 1.4634,0.95704 1.0736,1.38083 0.5705,1.65472 0,1.74969 -0.5705,1.65472 -1.0736,1.38083 -1.4634,0.95706 -1.6972,0.42944 -1.7434,-0.14457 -1.6015,-0.70298 -1.2898,-1.18489 -0.8327,-1.53886 -0.287,-1.72559"
       id="path82"
       inkscape:connector-curvature="0" />
    <path
       style="display:inline;fill:none;stroke:#000000;stroke-width:1.04423416;stroke-miterlimit:4;stroke-dasharray:none"
       d="m 0.49351032,1083.7486 0,-1427.92441"
       id="path60-8"
       inkscape:connector-curvature="0" />
    <path
       style="display:inline;fill:none;stroke:#000000;stroke-width:1.02295399;stroke-miterlimit:4;stroke-dasharray:none"
       d="m 1635.6038,-432.79909 -1546.506678,0"
       id="path60-8-9"
       inkscape:connector-curvature="0" />
  </g>
  <g
     inkscape:label="TVRRUG"
     inkscape:groupmode="layer"
     id="g96"
     transform="translate(0.02860676,433.31057)"
     style="display:inline">
    <path
       style="fill:none;stroke:#000000"
       d="m 310.34647,269.83754 0.14527,-1.7436 0.70158,-1.60229 1.187,-1.28721 1.5378,-0.8328 1.72559,-0.28789 1.72559,0.28789 1.5378,0.8328 1.187,1.28721 0.70158,1.60229 0.14527,1.7436 -0.42874,1.6961 -0.95669,1.4647 -1.38189,1.0747 -1.65472,0.56811 -1.7504,0 -1.65472,-0.56811 -1.38189,-1.0747 -0.95669,-1.4647 -0.42874,-1.6961"
       id="path100"
       inkscape:connector-curvature="0" />
    <path
       style="fill:none;stroke:#000000"
       d="m 310.34647,249.28635 0.14527,-1.74361 0.70158,-1.6023 1.187,-1.2872 1.5378,-0.8328 1.72559,-0.2879 1.72559,0.2879 1.5378,0.8328 1.187,1.2872 0.70158,1.6023 0.14527,1.74361 -0.42874,1.69609 -0.95669,1.46481 -1.38189,1.07459 -1.65472,0.5681 -1.7504,0 -1.65472,-0.5681 -1.38189,-1.07459 -0.95669,-1.46481 -0.42874,-1.69609"
       id="path102"
       inkscape:connector-curvature="0" />
    <path
       style="fill:none;stroke:#000000"
       d="m 310.34647,56.885045 0.14527,-1.743662 0.70158,-1.602279 1.187,-1.28728 1.5378,-0.832681 1.72559,-0.288071 1.72559,0.288071 1.5378,0.832681 1.187,1.28728 0.70158,1.602279 0.14527,1.743662 -0.42874,1.695827 -0.95669,1.464803 -1.38189,1.074688 -1.65472,0.567989 -1.7504,0 -1.65472,-0.567989 -1.38189,-1.074688 -0.95669,-1.464803 -0.42874,-1.695827"
       id="path104"
       inkscape:connector-curvature="0" />
    <path
       style="fill:none;stroke:#000000"
       d="m 310.34647,36.333864 0.14527,-1.743662 0.70158,-1.60228 1.187,-1.287279 1.5378,-0.832681 1.72559,-0.288067 1.72559,0.288067 1.5378,0.832681 1.187,1.287279 0.70158,1.60228 0.14527,1.743662 -0.42874,1.69583 -0.95669,1.4648 -1.38189,1.074688 -1.65472,0.567992 -1.7504,0 -1.65472,-0.567992 -1.38189,-1.074688 -0.95669,-1.4648 -0.42874,-1.69583"
       id="path106"
       inkscape:connector-curvature="0" />
    <path
       style="fill:none;stroke:#000000"
       d="m 664.67753,269.83754 0.14457,-1.7436 0.70299,-1.60229 1.18488,-1.28721 1.53886,-0.8328 1.72559,-0.28789 1.72594,0.28789 1.53851,0.8328 1.18523,1.28721 0.70264,1.60229 0.14457,1.7436 -0.42945,1.6961 -0.95705,1.4647 -1.38082,1.0747 -1.65473,0.56811 -1.74968,0 -1.65473,-0.56811 -1.38082,-1.0747 -0.95705,-1.4647 -0.42945,-1.6961"
       id="path108"
       inkscape:connector-curvature="0" />
    <path
       style="fill:none;stroke:#000000"
       d="m 664.67753,249.28635 0.14457,-1.74361 0.70299,-1.6023 1.18488,-1.2872 1.53886,-0.8328 1.72559,-0.2879 1.72594,0.2879 1.53851,0.8328 1.18523,1.2872 0.70264,1.6023 0.14457,1.74361 -0.42945,1.69609 -0.95705,1.46481 -1.38082,1.07459 -1.65473,0.5681 -1.74968,0 -1.65473,-0.5681 -1.38082,-1.07459 -0.95705,-1.46481 -0.42945,-1.69609"
       id="path110"
       inkscape:connector-curvature="0" />
    <path
       style="fill:none;stroke:#000000"
       d="m 664.67737,56.885045 0.14457,-1.743662 0.70299,-1.602279 1.18488,-1.28728 1.53886,-0.832681 1.72559,-0.288071 1.72594,0.288071 1.5385,0.832681 1.18523,1.28728 0.70264,1.602279 0.14457,1.743662 -0.42945,1.695827 -0.95705,1.464803 -1.38082,1.074688 -1.65472,0.567989 -1.74968,0 -1.65473,-0.567989 -1.38082,-1.074688 -0.95705,-1.464803 -0.42945,-1.695827"
       id="path112"
       inkscape:connector-curvature="0" />
    <path
       style="fill:none;stroke:#000000"
       d="m 664.67737,36.333864 0.14457,-1.743662 0.70299,-1.60228 1.18488,-1.287279 1.53886,-0.832681 1.72559,-0.288067 1.72594,0.288067 1.5385,0.832681 1.18523,1.287279 0.70264,1.60228 0.14457,1.743662 -0.42945,1.69583 -0.95705,1.4648 -1.38082,1.074688 -1.65472,0.567992 -1.74968,0 -1.65473,-0.567992 -1.38082,-1.074688 -0.95705,-1.4648 -0.42945,-1.69583"
       id="path114"
       inkscape:connector-curvature="0" />
    <path
       style="fill:none;stroke:#000000"
       d="m 1019.0082,269.83754 0.1446,-1.7436 0.703,-1.60229 1.1849,-1.28721 1.5388,-0.8328 1.7256,-0.28789 1.726,0.28789 1.5385,0.8328 1.1852,1.28721 0.7026,1.60229 0.1446,1.7436 -0.4294,1.6961 -0.9571,1.4647 -1.3808,1.0747 -1.6547,0.56811 -1.7497,0 -1.6547,-0.56811 -1.3809,-1.0747 -0.957,-1.4647 -0.4295,-1.6961"
       id="path120"
       inkscape:connector-curvature="0" />
    <path
       style="fill:none;stroke:#000000"
       d="m 1019.0082,249.28635 0.1446,-1.74361 0.703,-1.6023 1.1849,-1.2872 1.5388,-0.8328 1.7256,-0.2879 1.726,0.2879 1.5385,0.8328 1.1852,1.2872 0.7026,1.6023 0.1446,1.74361 -0.4294,1.69609 -0.9571,1.46481 -1.3808,1.07459 -1.6547,0.5681 -1.7497,0 -1.6547,-0.5681 -1.3809,-1.07459 -0.957,-1.46481 -0.4295,-1.69609"
       id="path122"
       inkscape:connector-curvature="0" />
    <path
       style="fill:none;stroke:#000000"
       d="m 1019.0079,56.885045 0.1446,-1.743662 0.703,-1.602279 1.1849,-1.28728 1.5388,-0.832681 1.7256,-0.288071 1.726,0.288071 1.5385,0.832681 1.1852,1.28728 0.7026,1.602279 0.1446,1.743662 -0.4294,1.695827 -0.9571,1.464803 -1.3808,1.074688 -1.6547,0.567989 -1.7497,0 -1.6547,-0.567989 -1.3809,-1.074688 -0.957,-1.464803 -0.4295,-1.695827"
       id="path124"
       inkscape:connector-curvature="0" />
    <path
       style="fill:none;stroke:#000000"
       d="m 1019.0079,36.333864 0.1446,-1.743662 0.703,-1.60228 1.1849,-1.287279 1.5388,-0.832681 1.7256,-0.288067 1.726,0.288067 1.5385,0.832681 1.1852,1.287279 0.7026,1.60228 0.1446,1.743662 -0.4294,1.69583 -0.9571,1.4648 -1.3808,1.074688 -1.6547,0.567992 -1.7497,0 -1.6547,-0.567992 -1.3809,-1.074688 -0.957,-1.4648 -0.4295,-1.69583"
       id="path126"
       inkscape:connector-curvature="0" />
    <path
       style="fill:none;stroke:#000000"
       d="m 1163.398,-152.17062 0.1446,-1.74332 0.703,-1.60157 1.1848,-1.28976 1.5389,-0.83267 1.7256,-0.28702 1.7259,0.28702 1.5385,0.83267 1.1853,1.28976 0.7026,1.60157 0.1446,1.74332 -0.4295,1.69724 -0.957,1.46339 -1.3808,1.07361 -1.6548,0.57048 -1.7496,0 -1.6548,-0.57048 -1.3808,-1.07361 -0.957,-1.46339 -0.4295,-1.69724"
       id="path140"
       inkscape:connector-curvature="0" />
    <path
       style="fill:none;stroke:#000000"
       d="m 1163.398,-172.72181 0.1446,-1.74331 0.703,-1.60156 1.1848,-1.28978 1.5389,-0.83267 1.7256,-0.28701 1.7259,0.28701 1.5385,0.83267 1.1853,1.28978 0.7026,1.60156 0.1446,1.74331 -0.4295,1.69724 -0.957,1.46339 -1.3808,1.07363 -1.6548,0.57047 -1.7496,0 -1.6548,-0.57047 -1.3808,-1.07363 -0.957,-1.46339 -0.4295,-1.69724"
       id="path142"
       inkscape:connector-curvature="0" />
    <path
       style="fill:none;stroke:#000000"
       d="m 1174.9683,671.19831 0,-1.7504 0.568,-1.65469 1.0747,-1.38191 1.463,-0.9567 1.6973,-0.4287 1.7433,0.1452 1.6015,0.7016 1.2898,1.187 0.8327,1.5378 0.287,1.72561 -0.287,1.7256 -0.8327,1.53779 -1.2897,1.187 -1.6016,0.7016 -1.7433,0.1452 -1.6973,-0.4287 -1.463,-0.9567 -1.0747,-1.38189 -0.568,-1.65471"
       id="path146"
       inkscape:connector-curvature="0" />
    <path
       style="fill:none;stroke:#000000"
       d="m 1181.1142,-192.7344 0.4287,-1.69724 0.9567,-1.46339 1.3819,-1.07363 1.6547,-0.57047 1.7504,0 1.6548,0.57047 1.3818,1.07363 0.9567,1.46339 0.4288,1.69724 -0.1453,1.74331 -0.7016,1.60156 -1.187,1.28977 -1.5378,0.83268 -1.7256,0.287 -1.7256,-0.287 -1.5378,-0.83268 -1.187,-1.28977 -0.7015,-1.60156 -0.1453,-1.74331"
       id="path148"
       inkscape:connector-curvature="0" />
    <path
       style="fill:none;stroke:#000000"
       d="m 1181.1142,-223.20685 0.4287,-1.69725 0.9567,-1.46338 1.3819,-1.07361 1.6547,-0.57049 1.7504,0 1.6548,0.57049 1.3818,1.07361 0.9567,1.46338 0.4288,1.69725 -0.1453,1.74332 -0.7016,1.60156 -1.187,1.28976 -1.5378,0.83268 -1.7256,0.28702 -1.7256,-0.28702 -1.5378,-0.83268 -1.187,-1.28976 -0.7015,-1.60156 -0.1453,-1.74332"
       id="path150"
       inkscape:connector-curvature="0" />
    <g
       id="g4340"
       transform="translate(0,120.47196)">
      <path
         inkscape:connector-curvature="0"
         id="path38"
         d="m 438.98425,1025.2874 0.19488,-1.7362 0.57756,-1.6476 0.92835,-1.4776 1.23307,-1.2331 1.47756,-0.9283 1.64764,-0.5776 1.73622,-0.1948 1.73622,0.1948 1.64764,0.5776 1.47755,0.9283 1.23308,1.2331 0.92834,1.4776 0.57756,1.6476 0.19488,1.7362 -0.19488,1.7363 -0.57756,1.6476 -0.92834,1.4776 -1.23308,1.233 -1.47755,0.9284 -1.64764,0.5775 -1.73622,0.1949 -1.73622,-0.1949 -1.64764,-0.5775 -1.47756,-0.9284 -1.23307,-1.233 -0.92835,-1.4776 -0.57756,-1.6476 -0.19488,-1.7363"
         style="display:inline;fill:none;stroke:#000000" />
      <path
         inkscape:connector-curvature="0"
         id="path40"
         d="m 438.98425,-406.20859 0.19488,-1.73622 0.57756,-1.64762 0.92835,-1.47757 1.23307,-1.23307 1.47756,-0.92834 1.64764,-0.57757 1.73622,-0.19487 1.73622,0.19487 1.64764,0.57757 1.47755,0.92834 1.23308,1.23307 0.92834,1.47757 0.57756,1.64762 0.19488,1.73622 -0.19488,1.73622 -0.57756,1.64765 -0.92834,1.47755 -1.23308,1.23307 -1.47755,0.92836 -1.64764,0.57755 -1.73622,0.19488 -1.73622,-0.19488 -1.64764,-0.57755 -1.47756,-0.92836 -1.23307,-1.23307 -0.92835,-1.47755 -0.57756,-1.64765 -0.19488,-1.73622"
         style="display:inline;fill:none;stroke:#000000" />
      <path
         inkscape:connector-curvature="0"
         id="path42"
         d="m 545.63779,1025.2874 0.19559,-1.7362 0.5765,-1.6476 0.9287,-1.4776 1.23414,-1.2331 1.47826,-0.9283 1.64764,-0.5776 1.73445,-0.1948 1.73445,0.1948 1.64764,0.5776 1.47826,0.9283 1.23414,1.2331 0.9287,1.4776 0.5765,1.6476 0.19559,1.7362 -0.19559,1.7363 -0.5765,1.6476 -0.9287,1.4776 -1.23414,1.233 -1.47826,0.9284 -1.64764,0.5775 -1.73445,0.1949 -1.73445,-0.1949 -1.64764,-0.5775 -1.47826,-0.9284 -1.23414,-1.233 -0.9287,-1.4776 -0.5765,-1.6476 -0.19559,-1.7363"
         style="display:inline;fill:none;stroke:#000000" />
      <path
         inkscape:connector-curvature="0"
         id="path44"
         d="m 545.63779,-406.20859 0.19559,-1.73622 0.5765,-1.64762 0.9287,-1.47757 1.23414,-1.23307 1.47826,-0.92834 1.64764,-0.57757 1.73445,-0.19487 1.73445,0.19487 1.64764,0.57757 1.47826,0.92834 1.23414,1.23307 0.9287,1.47757 0.5765,1.64762 0.19559,1.73622 -0.19559,1.73622 -0.5765,1.64765 -0.9287,1.47755 -1.23414,1.23307 -1.47826,0.92836 -1.64764,0.57755 -1.73445,0.19488 -1.73445,-0.19488 -1.64764,-0.57755 -1.47826,-0.92836 -1.23414,-1.23307 -0.9287,-1.47755 -0.5765,-1.64765 -0.19559,-1.73622"
         style="display:inline;fill:none;stroke:#000000" />
      <path
         inkscape:connector-curvature="0"
         id="path46"
         d="m 680.07087,-353.23615 0,-35.43307 0.19559,-1.73622 0.57649,-1.64763 0.9287,-1.47756 1.23414,-1.23308 1.47826,-0.92833 1.64764,-0.57757 1.73445,-0.19488 1.73445,0.19488 1.64764,0.57757 1.47827,0.92833 1.23413,1.23308 0.9287,1.47756 0.5765,1.64763 0.19559,1.73622 0,35.43307 -0.19559,1.73622 -0.5765,1.64764 -0.9287,1.47757 -1.23413,1.23306 -1.47827,0.92835 -1.64764,0.57757 -1.73445,0.19487 -1.73445,-0.19487 -1.64764,-0.57757 -1.47826,-0.92835 -1.23414,-1.23306 -0.9287,-1.47757 -0.57649,-1.64764 -0.19559,-1.73622"
         style="display:inline;fill:none;stroke:#000000" />
      <path
         inkscape:connector-curvature="0"
         id="path48"
         d="m 716.56693,-37.704646 0.19559,-1.734449 0.5765,-1.647641 0.9287,-1.478261 1.23413,-1.234137 1.47827,-0.928701 1.64764,-0.577201 1.73444,-0.194879 1.73445,0.194879 1.64764,0.577201 1.47827,0.928701 1.23413,1.234137 0.9287,1.478261 0.5765,1.647641 0.19559,1.734449 -0.19559,1.734449 -0.5765,1.647641 -0.9287,1.478271 -1.23413,1.234131 -1.47827,0.928697 -1.64764,0.5765 -1.73445,0.19559 -1.73444,-0.19559 -1.64764,-0.5765 -1.47827,-0.928697 -1.23413,-1.234131 -0.9287,-1.478271 -0.5765,-1.647641 -0.19559,-1.734449"
         style="display:inline;fill:none;stroke:#000000" />
      <path
         inkscape:connector-curvature="0"
         id="path50"
         d="m 745.62205,1025.4646 0.19559,-1.7362 0.57649,-1.6477 0.9287,-1.4775 1.23414,-1.2331 1.47827,-0.9283 1.64763,-0.5776 1.73445,-0.1949 1.73445,0.1949 1.64764,0.5776 1.47827,0.9283 1.23413,1.2331 0.9287,1.4775 0.5765,1.6477 0.19559,1.7362 -0.19559,1.7362 -0.5765,1.6477 -0.9287,1.4775 -1.23413,1.2331 -1.47827,0.9283 -1.64764,0.5776 -1.73445,0.1949 -1.73445,-0.1949 -1.64763,-0.5776 -1.47827,-0.9283 -1.23414,-1.2331 -0.9287,-1.4775 -0.57649,-1.6477 -0.19559,-1.7362"
         style="display:inline;fill:none;stroke:#000000" />
      <path
         inkscape:connector-curvature="0"
         id="path52"
         d="m 745.62205,808.96854 0.19559,-1.7362 0.57649,-1.6476 0.9287,-1.4776 1.23414,-1.233 1.47827,-0.9284 1.64763,-0.5776 1.73445,-0.19479 1.73445,0.19479 1.64764,0.5776 1.47827,0.9284 1.23413,1.233 0.9287,1.4776 0.5765,1.6476 0.19559,1.7362 -0.19559,1.7363 -0.5765,1.6476 -0.9287,1.47761 -1.23413,1.233 -1.47827,0.92839 -1.64764,0.5775 -1.73445,0.1949 -1.73445,-0.1949 -1.64763,-0.5775 -1.47827,-0.92839 -1.23414,-1.233 -0.9287,-1.47761 -0.57649,-1.6476 -0.19559,-1.7363"
         style="display:inline;fill:none;stroke:#000000" />
      <path
         inkscape:connector-curvature="0"
         id="path54"
         d="m 851.92126,1025.4646 0.19545,-1.7362 0.57653,-1.6477 0.9287,-1.4775 1.23431,-1.2331 1.47802,-0.9283 1.64764,-0.5776 1.73463,-0.1949 1.73444,0.1949 1.64764,0.5776 1.47827,0.9283 1.23413,1.2331 0.9287,1.4775 0.5765,1.6477 0.19559,1.7362 -0.19559,1.7362 -0.5765,1.6477 -0.9287,1.4775 -1.23413,1.2331 -1.47827,0.9283 -1.64764,0.5776 -1.73444,0.1949 -1.73463,-0.1949 -1.64764,-0.5776 -1.47802,-0.9283 -1.23431,-1.2331 -0.9287,-1.4775 -0.57653,-1.6477 -0.19545,-1.7362"
         style="display:inline;fill:none;stroke:#000000" />
      <path
         inkscape:connector-curvature="0"
         id="path56"
         d="m 851.92126,808.96854 0.19545,-1.7362 0.57653,-1.6476 0.9287,-1.4776 1.23431,-1.233 1.47802,-0.9284 1.64764,-0.5776 1.73463,-0.19479 1.73444,0.19479 1.64764,0.5776 1.47827,0.9284 1.23413,1.233 0.9287,1.4776 0.5765,1.6476 0.19559,1.7362 -0.19559,1.7363 -0.5765,1.6476 -0.9287,1.47761 -1.23413,1.233 -1.47827,0.92839 -1.64764,0.5775 -1.73444,0.1949 -1.73463,-0.1949 -1.64764,-0.5775 -1.47802,-0.92839 -1.23431,-1.233 -0.9287,-1.47761 -0.57653,-1.6476 -0.19545,-1.7363"
         style="display:inline;fill:none;stroke:#000000" />
      <path
         inkscape:connector-curvature="0"
         id="path58"
         d="m 866.87401,-37.704646 0.1956,-1.734449 0.57649,-1.647641 0.9287,-1.478261 1.23414,-1.234137 1.47826,-0.928701 1.64764,-0.577201 1.73445,-0.194879 1.73445,0.194879 1.64764,0.577201 1.47826,0.928701 1.23414,1.234137 0.9287,1.478261 0.5765,1.647641 0.19559,1.734449 -0.19559,1.734449 -0.5765,1.647641 -0.9287,1.478271 -1.23414,1.234131 -1.47826,0.928697 -1.64764,0.5765 -1.73445,0.19559 -1.73445,-0.19559 -1.64764,-0.5765 -1.47826,-0.928697 -1.23414,-1.234131 -0.9287,-1.478271 -0.57649,-1.647641 -0.1956,-1.734449"
         style="display:inline;fill:none;stroke:#000000" />
      <path
         inkscape:connector-curvature="0"
         id="path68"
         d="m 1037.8031,784.34264 0.1956,-1.73629 0.5765,-1.64761 0.9287,-1.4776 1.2342,-1.23299 1.4782,-0.9284 1.6477,-0.57751 1.7344,-0.1949 1.7345,0.1949 1.6476,0.57751 1.4783,0.9284 1.2341,1.23299 0.9287,1.4776 0.5765,1.64761 0.1956,1.73629 -0.1956,1.7362 -0.5765,1.64761 -0.9287,1.47759 -1.2341,1.233 -1.4783,0.9284 -1.6476,0.57751 -1.7345,0.19489 -1.7344,-0.19489 -1.6477,-0.57751 -1.4782,-0.9284 -1.2342,-1.233 -0.9287,-1.47759 -0.5765,-1.64761 -0.1956,-1.7362"
         style="display:inline;fill:none;stroke:#000000" />
      <path
         inkscape:connector-curvature="0"
         id="path70"
         d="m 1037.8031,-126.28733 0.1956,-1.73622 0.5765,-1.64763 0.9287,-1.47756 1.2342,-1.23306 1.4782,-0.92835 1.6477,-0.57757 1.7344,-0.19487 1.7345,0.19487 1.6476,0.57757 1.4783,0.92835 1.2341,1.23306 0.9287,1.47756 0.5765,1.64763 0.1956,1.73622 -0.1956,1.73622 -0.5765,1.64765 -0.9287,1.47755 -1.2341,1.23307 -1.4783,0.92836 -1.6476,0.57755 -1.7345,0.19489 -1.7344,-0.19489 -1.6477,-0.57755 -1.4782,-0.92836 -1.2342,-1.23307 -0.9287,-1.47755 -0.5765,-1.64765 -0.1956,-1.73622"
         style="display:inline;fill:none;stroke:#000000" />
      <path
         inkscape:connector-curvature="0"
         id="path72"
         d="m 1144.4567,784.34264 0.1956,-1.73629 0.5765,-1.64761 0.9287,-1.4776 1.2341,-1.23299 1.4783,-0.9284 1.6476,-0.57751 1.7345,-0.1949 1.7344,0.1949 1.6477,0.57751 1.4782,0.9284 1.2342,1.23299 0.9287,1.4776 0.5765,1.64761 0.1955,1.73629 -0.1955,1.7362 -0.5765,1.64761 -0.9287,1.47759 -1.2342,1.233 -1.4782,0.9284 -1.6477,0.57751 -1.7344,0.19489 -1.7345,-0.19489 -1.6476,-0.57751 -1.4783,-0.9284 -1.2341,-1.233 -0.9287,-1.47759 -0.5765,-1.64761 -0.1956,-1.7362"
         style="display:inline;fill:none;stroke:#000000" />
      <path
         inkscape:connector-curvature="0"
         id="path74"
         d="m 1144.4567,-126.28733 0.1956,-1.73622 0.5765,-1.64763 0.9287,-1.47756 1.2341,-1.23306 1.4783,-0.92835 1.6476,-0.57757 1.7345,-0.19487 1.7344,0.19487 1.6477,0.57757 1.4782,0.92835 1.2342,1.23306 0.9287,1.47756 0.5765,1.64763 0.1955,1.73622 -0.1955,1.73622 -0.5765,1.64765 -0.9287,1.47755 -1.2342,1.23307 -1.4782,0.92836 -1.6477,0.57755 -1.7344,0.19489 -1.7345,-0.19489 -1.6476,-0.57755 -1.4783,-0.92836 -1.2341,-1.23307 -0.9287,-1.47755 -0.5765,-1.64765 -0.1956,-1.73622"
         style="display:inline;fill:none;stroke:#000000" />
      <path
         inkscape:connector-curvature="0"
         id="path116"
         d="m 930.42556,848.81282 0.14457,-1.7433 0.70299,-1.60159 1.18488,-1.2898 1.53886,-0.83261 1.72559,-0.28699 1.72594,0.28699 1.53851,0.83261 1.18524,1.2898 0.70263,1.60159 0.14457,1.7433 -0.42945,1.6972 -0.95705,1.4634 -1.38082,1.0736 -1.65473,0.5705 -1.74968,0 -1.65473,-0.5705 -1.38082,-1.0736 -0.95705,-1.4634 -0.42945,-1.6972"
         style="fill:none;stroke:#000000" />
      <path
         inkscape:connector-curvature="0"
         id="path118"
         d="m 930.42556,828.26163 0.14457,-1.7433 0.70299,-1.60161 1.18488,-1.2897 1.53886,-0.8327 1.72559,-0.287 1.72594,0.287 1.53851,0.8327 1.18524,1.2897 0.70263,1.60161 0.14457,1.7433 -0.42945,1.69729 -0.95705,1.4633 -1.38082,1.0737 -1.65473,0.5704 -1.74968,0 -1.65473,-0.5704 -1.38082,-1.0737 -0.95705,-1.4633 -0.42945,-1.69729"
         style="fill:none;stroke:#000000" />
      <path
         inkscape:connector-curvature="0"
         id="path128"
         d="m 1037.5925,1025.5396 0.1956,-1.7362 0.5765,-1.6476 0.9287,-1.4776 1.2342,-1.2331 1.4782,-0.9283 1.6477,-0.5776 1.7344,-0.1948 1.7344,0.1948 1.6477,0.5776 1.4783,0.9283 1.2341,1.2331 0.9287,1.4776 0.5765,1.6476 0.1956,1.7362 -0.1956,1.7363 -0.5765,1.6476 -0.9287,1.4776 -1.2341,1.233 -1.4783,0.9284 -1.6477,0.5775 -1.7344,0.1949 -1.7344,-0.1949 -1.6477,-0.5775 -1.4782,-0.9284 -1.2342,-1.233 -0.9287,-1.4776 -0.5765,-1.6476 -0.1956,-1.7363"
         style="fill:none;stroke:#000000" />
      <path
         inkscape:connector-curvature="0"
         id="path130"
         d="m 1037.5925,-405.95646 0.1956,-1.73622 0.5765,-1.64763 0.9287,-1.47756 1.2342,-1.23308 1.4782,-0.92834 1.6477,-0.57756 1.7344,-0.19488 1.7344,0.19488 1.6477,0.57756 1.4783,0.92834 1.2341,1.23308 0.9287,1.47756 0.5765,1.64763 0.1956,1.73622 -0.1956,1.73623 -0.5765,1.64763 -0.9287,1.47757 -1.2341,1.23306 -1.4783,0.92835 -1.6477,0.57756 -1.7344,0.19488 -1.7344,-0.19488 -1.6477,-0.57756 -1.4782,-0.92835 -1.2342,-1.23306 -0.9287,-1.47757 -0.5765,-1.64763 -0.1956,-1.73623"
         style="fill:none;stroke:#000000" />
      <path
         inkscape:connector-curvature="0"
         id="path132"
         d="m 1107.5909,848.81282 0.1446,-1.7433 0.703,-1.60159 1.1849,-1.2898 1.5388,-0.83261 1.7256,-0.28699 1.726,0.28699 1.5385,0.83261 1.1852,1.2898 0.7026,1.60159 0.1446,1.7433 -0.4294,1.6972 -0.9571,1.4634 -1.3808,1.0736 -1.6547,0.5705 -1.7497,0 -1.6548,-0.5705 -1.3808,-1.0736 -0.957,-1.4634 -0.4295,-1.6972"
         style="fill:none;stroke:#000000" />
      <path
         inkscape:connector-curvature="0"
         id="path134"
         d="m 1107.5909,828.26163 0.1446,-1.7433 0.703,-1.60161 1.1849,-1.2897 1.5388,-0.8327 1.7256,-0.287 1.726,0.287 1.5385,0.8327 1.1852,1.2897 0.7026,1.60161 0.1446,1.7433 -0.4294,1.69729 -0.9571,1.4633 -1.3808,1.0737 -1.6547,0.5704 -1.7497,0 -1.6548,-0.5704 -1.3808,-1.0737 -0.957,-1.4633 -0.4295,-1.69729"
         style="fill:none;stroke:#000000" />
      <path
         inkscape:connector-curvature="0"
         id="path136"
         d="m 1144.2461,1025.5396 0.1956,-1.7362 0.5765,-1.6476 0.9287,-1.4776 1.2341,-1.2331 1.4783,-0.9283 1.6476,-0.5776 1.7345,-0.1948 1.7344,0.1948 1.6476,0.5776 1.4783,0.9283 1.2341,1.2331 0.9287,1.4776 0.5765,1.6476 0.1956,1.7362 -0.1956,1.7363 -0.5765,1.6476 -0.9287,1.4776 -1.2341,1.233 -1.4783,0.9284 -1.6476,0.5775 -1.7344,0.1949 -1.7345,-0.1949 -1.6476,-0.5775 -1.4783,-0.9284 -1.2341,-1.233 -0.9287,-1.4776 -0.5765,-1.6476 -0.1956,-1.7363"
         style="fill:none;stroke:#000000" />
      <path
         inkscape:connector-curvature="0"
         id="path138"
         d="m 1144.2461,-405.95646 0.1956,-1.73622 0.5765,-1.64763 0.9287,-1.47756 1.2341,-1.23308 1.4783,-0.92834 1.6476,-0.57756 1.7345,-0.19488 1.7344,0.19488 1.6476,0.57756 1.4783,0.92834 1.2341,1.23308 0.9287,1.47756 0.5765,1.64763 0.1956,1.73622 -0.1956,1.73623 -0.5765,1.64763 -0.9287,1.47757 -1.2341,1.23306 -1.4783,0.92835 -1.6476,0.57756 -1.7344,0.19488 -1.7345,-0.19488 -1.6476,-0.57756 -1.4783,-0.92835 -1.2341,-1.23306 -0.9287,-1.47757 -0.5765,-1.64763 -0.1956,-1.73623"
         style="fill:none;stroke:#000000" />
      <path
         inkscape:connector-curvature="0"
         id="path144"
         d="m 1174.9683,969.72192 0,-1.75041 0.568,-1.65469 1.0747,-1.3819 1.463,-0.95671 1.6973,-0.4287 1.7433,0.1453 1.6015,0.7015 1.2898,1.187 0.8327,1.5378 0.287,1.72561 -0.287,1.72559 -0.8327,1.5378 -1.2897,1.187 -1.6016,0.70161 -1.7433,0.14529 -1.6973,-0.42879 -1.463,-0.9567 -1.0747,-1.3819 -0.568,-1.6547"
         style="fill:none;stroke:#000000" />
      <path
         inkscape:connector-curvature="0"
         id="path152"
         d="m 1195.5177,969.72192 0,-1.75041 0.5705,-1.65469 1.0736,-1.3819 1.4634,-0.95671 1.6973,-0.4287 1.7433,0.1453 1.6015,0.7015 1.2898,1.187 0.8327,1.5378 0.287,1.72561 -0.287,1.72559 -0.8327,1.5378 -1.2898,1.187 -1.6015,0.70161 -1.7433,0.14529 -1.6973,-0.42879 -1.4634,-0.9567 -1.0736,-1.3819 -0.5705,-1.6547"
         style="fill:none;stroke:#000000" />
    </g>
    <path
       style="fill:none;stroke:#000000"
       d="m 1195.5177,671.19831 0,-1.7504 0.5705,-1.65469 1.0736,-1.38191 1.4634,-0.9567 1.6973,-0.4287 1.7433,0.1452 1.6015,0.7016 1.2898,1.187 0.8327,1.5378 0.287,1.72561 -0.287,1.7256 -0.8327,1.53779 -1.2898,1.187 -1.6015,0.7016 -1.7433,0.1452 -1.6973,-0.4287 -1.4634,-0.9567 -1.0736,-1.38189 -0.5705,-1.65471"
       id="path154"
       inkscape:connector-curvature="0" />
    <path
       style="fill:none;stroke:#000000"
       d="m 1214.5807,688.03962 0.287,-1.72561 0.8327,-1.5377 1.2898,-1.1871 1.6015,-0.7015 1.7434,-0.1453 1.6972,0.4287 1.4634,0.9567 1.0736,1.38191 0.5705,1.65469 0,1.7504 -0.5705,1.6548 -1.0736,1.3818 -1.4634,0.9567 -1.6972,0.4288 -1.7434,-0.1453 -1.6015,-0.7016 -1.2898,-1.187 -0.8327,-1.53779 -0.287,-1.7256"
       id="path156"
       inkscape:connector-curvature="0" />
    <path
       style="fill:none;stroke:#000000"
       d="m 1235.1319,688.03962 0.287,-1.72561 0.8327,-1.5377 1.2898,-1.1871 1.6015,-0.7015 1.7433,-0.1453 1.6973,0.4287 1.4634,0.9567 1.0736,1.38191 0.5705,1.65469 0,1.7504 -0.5705,1.6548 -1.0736,1.3818 -1.4634,0.9567 -1.6973,0.4288 -1.7433,-0.1453 -1.6015,-0.7016 -1.2898,-1.187 -0.8327,-1.53779 -0.287,-1.7256"
       id="path158"
       inkscape:connector-curvature="0" />
    <circle
       style="display:inline;fill:none;fill-opacity:1;stroke:#000000;stroke-width:1"
       id="circle176"
       r="7.7960868"
       cy="-72.032013"
       cx="215.61404" />
    <path
       style="display:inline;fill:none;stroke:#000000;stroke-width:1.04423416;stroke-miterlimit:4;stroke-dasharray:none"
       d="m 1717.2382,1083.7486 0,-1427.92441"
       id="path60-8-3"
       inkscape:connector-curvature="0" />
    <path
       style="display:inline;fill:none;stroke:#000000"
       d="m 1717.2327,-344.20071 -0.3366,-7.72087 -1.0098,-7.66062 -1.6725,-7.54371 -2.3244,-7.37361 -2.9551,-7.13622 -3.5681,-6.8563 -4.1527,-6.51615 -4.7056,-6.13347 -5.2192,-5.69763 -5.6977,-5.2193 -6.1335,-4.7055 -6.5161,-4.15276 -6.8563,-3.56811 -7.1362,-2.95512 -7.3736,-2.3244 -7.5437,-1.67245 -7.6607,-1.00985"
       id="path3143"
       inkscape:connector-curvature="0" />
    <path
       style="display:inline;fill:none;stroke:#000000"
       d="m 1338.276,-364.36213 0.1949,-1.73622 0.5776,-1.64764 0.9283,-1.47756 1.2331,-1.23306 1.4776,-0.92836 1.6476,-0.57755 1.7362,-0.19489 1.7362,0.19489 1.6477,0.57755 1.4775,0.92836 1.2331,1.23306 0.9284,1.47756 0.5775,1.64764 0.1949,1.73622 -0.1949,1.73622 -0.5775,1.64764 -0.9284,1.47756 -1.2331,1.23308 -1.4775,0.92834 -1.6477,0.57755 -1.7362,0.19489 -1.7362,-0.19489 -1.6476,-0.57755 -1.4776,-0.92834 -1.2331,-1.23308 -0.9283,-1.47756 -0.5776,-1.64764 -0.1949,-1.73622"
       id="path86"
       inkscape:connector-curvature="0" />
    <path
       style="display:inline;fill:none;stroke:#000000"
       d="m 1442.839,129.89378 0.1949,-1.73445 0.5776,-1.64764 0.9283,-1.47827 1.2331,-1.23413 1.4776,-0.9287 1.6476,-0.5765 1.7362,-0.19559 1.7362,0.19559 1.6477,0.5765 1.4775,0.9287 1.2331,1.23413 0.9284,1.47827 0.5775,1.64764 0.1949,1.73445 -0.1949,1.73444 -0.5775,1.64765 -0.9284,1.47826 -1.2331,1.23413 -1.4775,0.9287 -1.6477,0.5765 -1.7362,0.19559 -1.7362,-0.19559 -1.6476,-0.5765 -1.4776,-0.9287 -1.2331,-1.23413 -0.9283,-1.47826 -0.5776,-1.64765 -0.1949,-1.73444"
       id="path90"
       inkscape:connector-curvature="0" />
    <path
       style="display:inline;fill:none;stroke:#000000"
       d="m 1641.0162,129.89378 0.1949,-1.73445 0.5776,-1.64764 0.9283,-1.47827 1.2331,-1.23413 1.4775,-0.9287 1.6477,-0.5765 1.7362,-0.19559 1.7362,0.19559 1.6476,0.5765 1.4776,0.9287 1.2331,1.23413 0.9283,1.47827 0.5776,1.64764 0.1949,1.73445 -0.1949,1.73444 -0.5776,1.64765 -0.9283,1.47826 -1.2331,1.23413 -1.4776,0.9287 -1.6476,0.5765 -1.7362,0.19559 -1.7362,-0.19559 -1.6477,-0.5765 -1.4775,-0.9287 -1.2331,-1.23413 -0.9283,-1.47826 -0.5776,-1.64765 -0.1949,-1.73444"
       id="path92"
       inkscape:connector-curvature="0" />
    <path
       style="display:inline;fill:none;stroke:#000000"
       d="m 1666.2091,60.267795 0.1949,-1.734452 0.5776,-1.647628 0.9283,-1.478271 1.2331,-1.234141 1.4775,-0.928697 1.6477,-0.576493 1.7362,-0.19559 1.7362,0.19559 1.6477,0.576493 1.4775,0.928697 1.2331,1.234141 0.9283,1.478271 0.5776,1.647628 0.1949,1.734452 -0.1949,1.734449 -0.5776,1.647641 -0.9283,1.478268 -1.2331,1.23413 -1.4775,0.928701 -1.6477,0.576499 -1.7362,0.195591 -1.7362,-0.195591 -1.6477,-0.576499 -1.4775,-0.928701 -1.2331,-1.23413 -0.9283,-1.478268 -0.5776,-1.647641 -0.1949,-1.734449"
       id="path94"
       inkscape:connector-curvature="0" />
    <g
       id="g4371"
       transform="translate(0,120.47245)">
      <path
         sodipodi:nodetypes="ccccccccccccccccccc"
         inkscape:connector-curvature="0"
         id="path24"
         d="m 0.5,963.27964 0.33661,7.7208 1.00985,7.6607 1.672441,7.5437 2.324409,7.3736 2.955111,7.13616 3.56811,6.8563 4.15276,6.5161 4.705508,6.1335 5.219292,5.6976 5.697637,5.2193 6.133472,4.7055 6.516142,4.1528 6.856299,3.5681 7.13622,2.9551 7.373619,2.3244 7.543701,1.6725 7.66063,1.0098 7.720869,0.3366"
         style="display:inline;fill:none;stroke:#000000" />
      <path
         inkscape:connector-curvature="0"
         id="path34-0"
         d="m 29.905145,942.36359 0.142554,-1.26928 0.422465,-1.20452 0.679046,-1.0802 0.901947,-0.90144 1.080782,-0.67869 1.20519,-0.42223 1.26998,-0.14247 1.269983,0.14247 1.20519,0.42223 1.080782,0.67869 0.901946,0.90144 0.679048,1.0802 0.422464,1.20452 0.142554,1.26928 -0.142554,1.26928 -0.422464,1.20452 -0.679048,1.0802 -0.901946,0.90146 -1.080782,0.67867 -1.20519,0.42224 -1.269983,0.14247 -1.26998,-0.14247 -1.20519,-0.42224 -1.080782,-0.67867 -0.901947,-0.90146 -0.679046,-1.0802 -0.422465,-1.20452 -0.142554,-1.26928"
         style="display:inline;fill:none;stroke:#000000;stroke-width:0.99762392;stroke-miterlimit:4;stroke-dasharray:none" />
      <path
         inkscape:connector-curvature="0"
         id="path34-0-5"
         d="m 104.31459,1016.7731 0.14258,-1.2694 0.42245,-1.2045 0.67903,-1.0802 0.90196,-0.9013 1.08078,-0.6788 1.20518,-0.4222 1.26999,-0.1425 1.26998,0.1425 1.20519,0.4222 1.08078,0.6788 0.90195,0.9013 0.67905,1.0802 0.42246,1.2045 0.14255,1.2694 -0.14255,1.2692 -0.42246,1.2046 -0.67905,1.0802 -0.90195,0.9015 -1.08078,0.6786 -1.20519,0.4223 -1.26998,0.1424 -1.26999,-0.1424 -1.20518,-0.4223 -1.08078,-0.6786 -0.90196,-0.9015 -0.67903,-1.0802 -0.42245,-1.2046 -0.14258,-1.2692"
         style="display:inline;fill:none;stroke:#000000;stroke-width:0.99762636;stroke-miterlimit:4;stroke-dasharray:none" />
      <path
         inkscape:connector-curvature="0"
         id="path60-8-9-6"
         d="m 1628.6806,1051.8659 -1539.586503,0"
         style="display:inline;fill:none;stroke:#000000;stroke-width:1.023036;stroke-miterlimit:4;stroke-dasharray:none" />
      <path
         inkscape:connector-curvature="0"
         id="path160"
         d="m 1717.2805,963.30115 -0.3366,7.72081 -1.0099,7.6607 -1.6724,7.54369 -2.3244,7.3736 -2.9551,7.13625 -3.5682,6.8563 -4.1527,6.5161 -4.7055,6.1335 -5.2193,5.6976 -5.6976,5.2193 -6.1335,4.7055 -6.5162,4.1527 -6.8563,3.5681 -7.1362,2.9551 -7.3736,2.3244 -7.5437,1.6725 -7.6606,1.0098 -7.7209,0.3366"
         style="fill:none;stroke:#000000" />
      <path
         inkscape:connector-curvature="0"
         id="path34-0-5-4"
         d="m 1688.8182,942.36364 0.1427,-1.26935 0.4224,-1.20451 0.6791,-1.08022 0.902,-0.90141 1.0806,-0.6787 1.2053,-0.42221 1.2699,-0.14248 1.2699,0.14248 1.2053,0.42221 1.0806,0.6787 0.902,0.90141 0.6791,1.08022 0.4224,1.20451 0.1426,1.26935 -0.1426,1.26927 -0.4224,1.20449 -0.6791,1.08024 -0.902,0.90147 -1.0806,0.67864 -1.2053,0.42228 -1.2699,0.14241 -1.2699,-0.14241 -1.2053,-0.42228 -1.0806,-0.67864 -0.902,-0.90147 -0.6791,-1.08024 -0.4224,-1.20449 -0.1427,-1.26927"
         style="display:inline;fill:none;stroke:#000000;stroke-width:0.99762189;stroke-miterlimit:4;stroke-dasharray:none" />
      <path
         inkscape:connector-curvature="0"
         id="path34-0-5-4-1"
         d="m 1614.4087,1016.7731 0.1427,-1.2694 0.4224,-1.2045 0.6791,-1.0802 0.902,-0.9013 1.0806,-0.6788 1.2053,-0.4222 1.2699,-0.1425 1.2699,0.1425 1.2053,0.4222 1.0806,0.6788 0.902,0.9013 0.6792,1.0802 0.4223,1.2045 0.1426,1.2694 -0.1426,1.2692 -0.4223,1.2046 -0.6792,1.0802 -0.902,0.9015 -1.0806,0.6786 -1.2053,0.4223 -1.2699,0.1424 -1.2699,-0.1424 -1.2053,-0.4223 -1.0806,-0.6786 -0.902,-0.9015 -0.6791,-1.0802 -0.4224,-1.2046 -0.1427,-1.2692"
         style="display:inline;fill:none;stroke:#000000;stroke-width:0.99762481;stroke-miterlimit:4;stroke-dasharray:none" />
    </g>
    <path
       style="fill:none;stroke:#000000"
       d="m 1643.2469,-432.19464 -7.7208,-0.33661"
       id="path98"
       inkscape:connector-curvature="0" />
    <circle
       style="display:inline;fill:none;fill-opacity:1;stroke:#000000;stroke-width:1"
       id="circle176-4"
       r="7.7960868"
       cy="-72.02742"
       cx="1346.12" />
    <path
       style="display:inline;fill:none;stroke:#000000"
       d="m 1174.9681,393.14006 0,-1.7504 0.568,-1.65469 1.0747,-1.38191 1.463,-0.9567 1.6973,-0.4287 1.7433,0.1452 1.6015,0.7016 1.2898,1.187 0.8327,1.5378 0.287,1.72561 -0.287,1.7256 -0.8327,1.53779 -1.2897,1.187 -1.6016,0.7016 -1.7433,0.1452 -1.6973,-0.4287 -1.463,-0.9567 -1.0747,-1.38189 -0.568,-1.65471"
       id="path146-4"
       inkscape:connector-curvature="0" />
    <path
       style="display:inline;fill:none;stroke:#000000"
       d="m 1195.5175,393.14006 0,-1.7504 0.5705,-1.65469 1.0736,-1.38191 1.4634,-0.9567 1.6973,-0.4287 1.7433,0.1452 1.6015,0.7016 1.2898,1.187 0.8327,1.5378 0.287,1.72561 -0.287,1.7256 -0.8327,1.53779 -1.2898,1.187 -1.6015,0.7016 -1.7433,0.1452 -1.6973,-0.4287 -1.4634,-0.9567 -1.0736,-1.38189 -0.5705,-1.65471"
       id="path154-2"
       inkscape:connector-curvature="0" />
    <path
       style="display:inline;fill:none;stroke:#000000"
       d="m 1214.5805,409.98137 0.287,-1.72561 0.8327,-1.5377 1.2898,-1.1871 1.6015,-0.7015 1.7434,-0.1453 1.6972,0.4287 1.4634,0.9567 1.0736,1.38191 0.5705,1.65469 0,1.7504 -0.5705,1.6548 -1.0736,1.3818 -1.4634,0.9567 -1.6972,0.4288 -1.7434,-0.1453 -1.6015,-0.7016 -1.2898,-1.187 -0.8327,-1.53779 -0.287,-1.7256"
       id="path156-7"
       inkscape:connector-curvature="0" />
    <path
       style="display:inline;fill:none;stroke:#000000"
       d="m 1235.1317,409.98137 0.287,-1.72561 0.8327,-1.5377 1.2898,-1.1871 1.6015,-0.7015 1.7433,-0.1453 1.6973,0.4287 1.4634,0.9567 1.0736,1.38191 0.5705,1.65469 0,1.7504 -0.5705,1.6548 -1.0736,1.3818 -1.4634,0.9567 -1.6973,0.4288 -1.7433,-0.1453 -1.6015,-0.7016 -1.2898,-1.187 -0.8327,-1.53779 -0.287,-1.7256"
       id="path158-5"
       inkscape:connector-curvature="0" />
  </g>
</svg>
