  0
SECTION
  2
HEADER
  9
$ACADVER
  1
AC1014
  9
$HANDSEED
  5
FFFF
  9
$MEASUREMENT
 70
     1
  0
ENDSEC
  0
SECTION
  2
TABLES
  0
TABLE
  2
VPORT
  5
8
330
0
100
AcDbSymbolTable
 70
     4
  0
VPORT
  5
2E
330
8
100
AcDbSymbolTableRecord
100
AcDbViewportTableRecord
  2
*ACTIVE
 70
     0
 10
0.0
 20
0.0
 11
1.0
 21
1.0
 12
210.0
 22
148.5
 13
0.0
 23
0.0
 14
10.0
 24
10.0
 15
10.0
 25
10.0
 16
0.0
 26
0.0
 36
1.0
 17
0.0
 27
0.0
 37
0.0
 40
341.0
 41
1.24
 42
50.0
 43
0.0
 44
0.0
 50
0.0
 51
0.0
 71
     0
 72
   100
 73
     1
 74
     3
 75
     0
 76
     0
 77
     0
 78
     0
  0
ENDTAB
  0
TABLE
  2
LTYPE
  5
5
330
0
100
AcDbSymbolTable
 70
     1
  0
LTYPE
  5
14
330
5
100
AcDbSymbolTableRecord
100
AcDbLinetypeTableRecord
  2
BYBLOCK
 70
     0
  3

 72
    65
 73
     0
 40
0.0
  0
LTYPE
  5
15
330
5
100
AcDbSymbolTableRecord
100
AcDbLinetypeTableRecord
  2
BYLAYER
 70
     0
  3

 72
    65
 73
     0
 40
0.0
  0
LTYPE
  5
16
330
5
100
AcDbSymbolTableRecord
100
AcDbLinetypeTableRecord
  2
CONTINUOUS
 70
     0
  3
Solid line
 72
    65
 73
     0
 40
0.0
  0
ENDTAB
  0
TABLE
  2
LAYER
  5
2
100
AcDbSymbolTable
 70
1
  0
LAYER
  5
50
100
AcDbSymbolTableRecord
100
AcDbLayerTableRecord
  2
0
 70
0
  6
CONTINUOUS
  0
ENDTAB
  0
TABLE
  2
STYLE
  5
3
330
0
100
AcDbSymbolTable
 70
     1
  0
STYLE
  5
11
330
3
100
AcDbSymbolTableRecord
100
AcDbTextStyleTableRecord
  2
STANDARD
 70
     0
 40
0.0
 41
1.0
 50
0.0
 71
     0
 42
2.5
  3
txt
  4

  0
ENDTAB
  0
TABLE
  2
VIEW
  5
6
330
0
100
AcDbSymbolTable
 70
     0
  0
ENDTAB
  0
TABLE
  2
UCS
  5
7
330
0
100
AcDbSymbolTable
 70
     0
  0
ENDTAB
  0
TABLE
  2
APPID
  5
9
330
0
100
AcDbSymbolTable
 70
     2
  0
APPID
  5
12
330
9
100
AcDbSymbolTableRecord
100
AcDbRegAppTableRecord
  2
ACAD
 70
     0
  0
ENDTAB
  0
TABLE
  2
DIMSTYLE
  5
A
330
0
100
AcDbSymbolTable
 70
     1
  0
DIMSTYLE
105
27
330
A
100
AcDbSymbolTableRecord
100
AcDbDimStyleTableRecord
  2
ISO-25
 70
     0
  3

  4

  5

  6

  7

 40
1.0
 41
2.5
 42
0.625
 43
3.75
 44
1.25
 45
0.0
 46
0.0
 47
0.0
 48
0.0
140
2.5
141
2.5
142
0.0
143
0.03937007874016
144
1.0
145
0.0
146
1.0
147
0.625
 71
     0
 72
     0
 73
     0
 74
     0
 75
     0
 76
     0
 77
     1
 78
     8
170
     0
171
     3
172
     1
173
     0
174
     0
175
     0
176
     0
177
     0
178
     0
270
     2
271
     2
272
     2
273
     2
274
     3
340
11
275
     0
280
     0
281
     0
282
     0
283
     0
284
     8
285
     0
286
     0
287
     3
288
     0
  0
ENDTAB
  0
TABLE
  2
BLOCK_RECORD
  5
1
330
0
100
AcDbSymbolTable
 70
     1
  0
BLOCK_RECORD
  5
1F
330
1
100
AcDbSymbolTableRecord
100
AcDbBlockTableRecord
  2
*MODEL_SPACE
  0
BLOCK_RECORD
  5
1B
330
1
100
AcDbSymbolTableRecord
100
AcDbBlockTableRecord
  2
*PAPER_SPACE
  0
ENDTAB
  0
ENDSEC
  0
SECTION
  2
BLOCKS
  0
BLOCK
  5
20
330
1F
100
AcDbEntity
  8
0
100
AcDbBlockBegin
  2
*MODEL_SPACE
 70
     0
 10
0.0
 20
0.0
 30
0.0
  3
*MODEL_SPACE
  1

  0
ENDBLK
  5
21
330
1F
100
AcDbEntity
  8
0
100
AcDbBlockEnd
  0
BLOCK
  5
1C
330
1B
100
AcDbEntity
 67
     1
  8
0
100
AcDbBlockBegin
  2
*PAPER_SPACE
  1

  0
ENDBLK
  5
1D
330
1B
100
AcDbEntity
 67
     1
  8
0
100
AcDbBlockEnd
  0
ENDSEC
  0
SECTION
  2
ENTITIES
  0
SPLINE
  5
100
100
AcDbEntity
  8
0
 62
7
100
AcDbSpline
 70
8
 71
3
 72
8
 73
4
 74
0
 40
0
 40
0
 40
0
 40
0
 40
1
 40
1
 40
1
 40
1
 10
237.585027
 20
91.743268
 30
0.0
 10
236.447898
 20
91.743268
 30
0.0
 10
235.526071
 20
92.665092
 30
0.0
 10
235.526069
 20
93.802219
 30
0.0
  0
SPLINE
  5
101
100
AcDbEntity
  8
0
 62
7
100
AcDbSpline
 70
8
 71
3
 72
8
 73
4
 74
0
 40
0
 40
0
 40
0
 40
0
 40
1
 40
1
 40
1
 40
1
 10
237.585027
 20
95.861172
 30
0.0
 10
238.722156
 20
95.861172
 30
0.0
 10
239.643983
 20
94.939350
 30
0.0
 10
239.643988
 20
93.802219
 30
0.0
  0
SPLINE
  5
102
100
AcDbEntity
  8
0
 62
7
100
AcDbSpline
 70
8
 71
3
 72
8
 73
4
 74
0
 40
0
 40
0
 40
0
 40
0
 40
1
 40
1
 40
1
 40
1
 10
81.662293
 20
347.252438
 30
0.0
 10
81.116204
 20
347.252438
 30
0.0
 10
80.592482
 20
347.469373
 30
0.0
 10
80.206339
 20
347.855514
 30
0.0
  0
SPLINE
  5
103
100
AcDbEntity
  8
0
 62
7
100
AcDbSpline
 70
8
 71
3
 72
8
 73
4
 74
0
 40
0
 40
0
 40
0
 40
0
 40
1
 40
1
 40
1
 40
1
 10
83.118245
 20
347.855514
 30
0.0
 10
82.732104
 20
347.469373
 30
0.0
 10
82.208380
 20
347.252438
 30
0.0
 10
81.662293
 20
347.252438
 30
0.0
  0
SPLINE
  5
104
100
AcDbEntity
  8
0
 62
7
100
AcDbSpline
 70
8
 71
3
 72
8
 73
4
 74
0
 40
0
 40
0
 40
0
 40
0
 40
1
 40
1
 40
1
 40
1
 10
59.216339
 20
487.486513
 30
0.0
 10
58.830199
 20
487.872657
 30
0.0
 10
58.613267
 20
488.396381
 30
0.0
 10
58.613267
 20
488.942468
 30
0.0
  0
SPLINE
  5
105
100
AcDbEntity
  8
0
 62
7
100
AcDbSpline
 70
8
 71
3
 72
8
 73
4
 74
0
 40
0
 40
0
 40
0
 40
0
 40
1
 40
1
 40
1
 40
1
 10
62.128246
 20
487.486513
 30
0.0
 10
61.742105
 20
487.100372
 30
0.0
 10
61.218383
 20
486.883438
 30
0.0
 10
60.672294
 20
486.883440
 30
0.0
  0
SPLINE
  5
106
100
AcDbEntity
  8
0
 62
7
100
AcDbSpline
 70
8
 71
3
 72
8
 73
4
 74
0
 40
0
 40
0
 40
0
 40
0
 40
1
 40
1
 40
1
 40
1
 10
62.128246
 20
490.398419
 30
0.0
 10
62.514389
 20
490.012278
 30
0.0
 10
62.731324
 20
489.488554
 30
0.0
 10
62.731324
 20
488.942468
 30
0.0
  0
SPLINE
  5
107
100
AcDbEntity
  8
0
 62
7
100
AcDbSpline
 70
8
 71
3
 72
8
 73
4
 74
0
 40
0
 40
0
 40
0
 40
0
 40
1
 40
1
 40
1
 40
1
 10
80.206339
 20
347.855514
 30
0.0
 10
79.820198
 20
348.241657
 30
0.0
 10
79.603263
 20
348.765379
 30
0.0
 10
79.603263
 20
349.311468
 30
0.0
  0
SPLINE
  5
108
100
AcDbEntity
  8
0
 62
7
100
AcDbSpline
 70
8
 71
3
 72
8
 73
4
 74
0
 40
0
 40
0
 40
0
 40
0
 40
1
 40
1
 40
1
 40
1
 10
269.643999
 20
32.702209
 30
0.0
 10
269.643999
 20
31.565088
 30
0.0
 10
268.722165
 20
30.643253
 30
0.0
 10
267.585038
 20
30.643253
 30
0.0
  0
SPLINE
  5
109
100
AcDbEntity
  8
0
 62
7
100
AcDbSpline
 70
8
 71
3
 72
8
 73
4
 74
0
 40
0
 40
0
 40
0
 40
0
 40
1
 40
1
 40
1
 40
1
 10
267.585038
 20
34.761162
 30
0.0
 10
268.722165
 20
34.761160
 30
0.0
 10
269.643999
 20
33.839338
 30
0.0
 10
269.643999
 20
32.702209
 30
0.0
  0
SPLINE
  5
10a
100
AcDbEntity
  8
0
 62
7
100
AcDbSpline
 70
8
 71
3
 72
8
 73
4
 74
0
 40
0
 40
0
 40
0
 40
0
 40
1
 40
1
 40
1
 40
1
 10
431.182258
 20
490.398425
 30
0.0
 10
431.568391
 20
490.012281
 30
0.0
 10
431.785323
 20
489.488557
 30
0.0
 10
431.785323
 20
488.942468
 30
0.0
  0
SPLINE
  5
10b
100
AcDbEntity
  8
0
 62
7
100
AcDbSpline
 70
8
 71
3
 72
8
 73
4
 74
0
 40
0
 40
0
 40
0
 40
0
 40
1
 40
1
 40
1
 40
1
 10
62.128246
 20
404.985517
 30
0.0
 10
61.742105
 20
404.599373
 30
0.0
 10
61.218383
 20
404.382441
 30
0.0
 10
60.672294
 20
404.382441
 30
0.0
  0
SPLINE
  5
10c
100
AcDbEntity
  8
0
 62
7
100
AcDbSpline
 70
8
 71
3
 72
8
 73
4
 74
0
 40
0
 40
0
 40
0
 40
0
 40
1
 40
1
 40
1
 40
1
 10
267.585038
 20
95.861172
 30
0.0
 10
268.722165
 20
95.861172
 30
0.0
 10
269.643999
 20
94.939348
 30
0.0
 10
269.643999
 20
93.802219
 30
0.0
  0
SPLINE
  5
10d
100
AcDbEntity
  8
0
 62
7
100
AcDbSpline
 70
8
 71
3
 72
8
 73
4
 74
0
 40
0
 40
0
 40
0
 40
0
 40
1
 40
1
 40
1
 40
1
 10
237.585027
 20
30.643253
 30
0.0
 10
236.447898
 20
30.643253
 30
0.0
 10
235.526071
 20
31.565088
 30
0.0
 10
235.526069
 20
32.702209
 30
0.0
  0
SPLINE
  5
10e
100
AcDbEntity
  8
0
 62
7
100
AcDbSpline
 70
8
 71
3
 72
8
 73
4
 74
0
 40
0
 40
0
 40
0
 40
0
 40
1
 40
1
 40
1
 40
1
 10
60.672294
 20
486.883440
 30
0.0
 10
60.126205
 20
486.883438
 30
0.0
 10
59.602483
 20
487.100372
 30
0.0
 10
59.216339
 20
487.486513
 30
0.0
  0
SPLINE
  5
10f
100
AcDbEntity
  8
0
 62
7
100
AcDbSpline
 70
8
 71
3
 72
8
 73
4
 74
0
 40
0
 40
0
 40
0
 40
0
 40
1
 40
1
 40
1
 40
1
 10
62.731324
 20
488.942468
 30
0.0
 10
62.731324
 20
488.396381
 30
0.0
 10
62.514389
 20
487.872657
 30
0.0
 10
62.128246
 20
487.486513
 30
0.0
  0
SPLINE
  5
110
100
AcDbEntity
  8
0
 62
7
100
AcDbSpline
 70
8
 71
3
 72
8
 73
4
 74
0
 40
0
 40
0
 40
0
 40
0
 40
1
 40
1
 40
1
 40
1
 10
81.662293
 20
351.370495
 30
0.0
 10
82.208380
 20
351.370495
 30
0.0
 10
82.732104
 20
351.153564
 30
0.0
 10
83.118245
 20
350.767423
 30
0.0
  0
SPLINE
  5
111
100
AcDbEntity
  8
0
 62
7
100
AcDbSpline
 70
8
 71
3
 72
8
 73
4
 74
0
 40
0
 40
0
 40
0
 40
0
 40
1
 40
1
 40
1
 40
1
 10
428.270333
 20
490.398425
 30
0.0
 10
428.656466
 20
490.784565
 30
0.0
 10
429.180209
 20
491.001497
 30
0.0
 10
429.726282
 20
491.001495
 30
0.0
  0
SPLINE
  5
112
100
AcDbEntity
  8
0
 62
7
100
AcDbSpline
 70
8
 71
3
 72
8
 73
4
 74
0
 40
0
 40
0
 40
0
 40
0
 40
1
 40
1
 40
1
 40
1
 10
235.526069
 20
93.802219
 30
0.0
 10
235.526071
 20
94.939348
 30
0.0
 10
236.447898
 20
95.861172
 30
0.0
 10
237.585027
 20
95.861172
 30
0.0
  0
SPLINE
  5
113
100
AcDbEntity
  8
0
 62
7
100
AcDbSpline
 70
8
 71
3
 72
8
 73
4
 74
0
 40
0
 40
0
 40
0
 40
0
 40
1
 40
1
 40
1
 40
1
 10
265.526077
 20
32.702209
 30
0.0
 10
265.526077
 20
33.839338
 30
0.0
 10
266.447912
 20
34.761162
 30
0.0
 10
267.585038
 20
34.761162
 30
0.0
  0
SPLINE
  5
114
100
AcDbEntity
  8
0
 62
7
100
AcDbSpline
 70
8
 71
3
 72
8
 73
4
 74
0
 40
0
 40
0
 40
0
 40
0
 40
1
 40
1
 40
1
 40
1
 10
239.643988
 20
32.702209
 30
0.0
 10
239.643983
 20
31.565088
 30
0.0
 10
238.722156
 20
30.643253
 30
0.0
 10
237.585027
 20
30.643253
 30
0.0
  0
SPLINE
  5
115
100
AcDbEntity
  8
0
 62
7
100
AcDbSpline
 70
8
 71
3
 72
8
 73
4
 74
0
 40
0
 40
0
 40
0
 40
0
 40
1
 40
1
 40
1
 40
1
 10
267.585038
 20
30.643253
 30
0.0
 10
266.447912
 20
30.643253
 30
0.0
 10
265.526077
 20
31.565088
 30
0.0
 10
265.526077
 20
32.702209
 30
0.0
  0
SPLINE
  5
116
100
AcDbEntity
  8
0
 62
7
100
AcDbSpline
 70
8
 71
3
 72
8
 73
4
 74
0
 40
0
 40
0
 40
0
 40
0
 40
1
 40
1
 40
1
 40
1
 10
58.613267
 20
488.942468
 30
0.0
 10
58.613267
 20
489.488554
 30
0.0
 10
58.830199
 20
490.012278
 30
0.0
 10
59.216339
 20
490.398419
 30
0.0
  0
SPLINE
  5
117
100
AcDbEntity
  8
0
 62
7
100
AcDbSpline
 70
8
 71
3
 72
8
 73
4
 74
0
 40
0
 40
0
 40
0
 40
0
 40
1
 40
1
 40
1
 40
1
 10
429.726282
 20
491.001495
 30
0.0
 10
430.272382
 20
491.001497
 30
0.0
 10
430.796099
 20
490.784565
 30
0.0
 10
431.182258
 20
490.398425
 30
0.0
  0
SPLINE
  5
118
100
AcDbEntity
  8
0
 62
7
100
AcDbSpline
 70
8
 71
3
 72
8
 73
4
 74
0
 40
0
 40
0
 40
0
 40
0
 40
1
 40
1
 40
1
 40
1
 10
59.216339
 20
490.398419
 30
0.0
 10
59.602483
 20
490.784563
 30
0.0
 10
60.126205
 20
491.001495
 30
0.0
 10
60.672294
 20
491.001495
 30
0.0
  0
SPLINE
  5
119
100
AcDbEntity
  8
0
 62
7
100
AcDbSpline
 70
8
 71
3
 72
8
 73
4
 74
0
 40
0
 40
0
 40
0
 40
0
 40
1
 40
1
 40
1
 40
1
 10
60.672294
 20
491.001495
 30
0.0
 10
61.218383
 20
491.001495
 30
0.0
 10
61.742105
 20
490.784563
 30
0.0
 10
62.128246
 20
490.398419
 30
0.0
  0
SPLINE
  5
11a
100
AcDbEntity
  8
0
 62
7
100
AcDbSpline
 70
8
 71
3
 72
8
 73
4
 74
0
 40
0
 40
0
 40
0
 40
0
 40
1
 40
1
 40
1
 40
1
 10
62.731324
 20
406.441468
 30
0.0
 10
62.731324
 20
405.895382
 30
0.0
 10
62.514389
 20
405.371660
 30
0.0
 10
62.128246
 20
404.985517
 30
0.0
  0
SPLINE
  5
11b
100
AcDbEntity
  8
0
 62
7
100
AcDbSpline
 70
8
 71
3
 72
8
 73
4
 74
0
 40
0
 40
0
 40
0
 40
0
 40
1
 40
1
 40
1
 40
1
 10
235.526069
 20
32.702209
 30
0.0
 10
235.526071
 20
33.839338
 30
0.0
 10
236.447898
 20
34.761160
 30
0.0
 10
237.585027
 20
34.761162
 30
0.0
  0
SPLINE
  5
11c
100
AcDbEntity
  8
0
 62
7
100
AcDbSpline
 70
8
 71
3
 72
8
 73
4
 74
0
 40
0
 40
0
 40
0
 40
0
 40
1
 40
1
 40
1
 40
1
 10
79.603263
 20
349.311468
 30
0.0
 10
79.603263
 20
349.857558
 30
0.0
 10
79.820198
 20
350.381279
 30
0.0
 10
80.206339
 20
350.767423
 30
0.0
  0
SPLINE
  5
11d
100
AcDbEntity
  8
0
 62
7
100
AcDbSpline
 70
8
 71
3
 72
8
 73
4
 74
0
 40
0
 40
0
 40
0
 40
0
 40
1
 40
1
 40
1
 40
1
 10
19.282295
 20
351.370495
 30
0.0
 10
19.828384
 20
351.370495
 30
0.0
 10
20.352106
 20
351.153564
 30
0.0
 10
20.738248
 20
350.767420
 30
0.0
  0
SPLINE
  5
11e
100
AcDbEntity
  8
0
 62
7
100
AcDbSpline
 70
8
 71
3
 72
8
 73
4
 74
0
 40
0
 40
0
 40
0
 40
0
 40
1
 40
1
 40
1
 40
1
 10
17.223268
 20
349.311468
 30
0.0
 10
17.223267
 20
349.857558
 30
0.0
 10
17.440200
 20
350.381279
 30
0.0
 10
17.826343
 20
350.767420
 30
0.0
  0
SPLINE
  5
11f
100
AcDbEntity
  8
0
 62
7
100
AcDbSpline
 70
8
 71
3
 72
8
 73
4
 74
0
 40
0
 40
0
 40
0
 40
0
 40
1
 40
1
 40
1
 40
1
 10
19.282295
 20
347.252438
 30
0.0
 10
18.736207
 20
347.252438
 30
0.0
 10
18.212484
 20
347.469373
 30
0.0
 10
17.826343
 20
347.855516
 30
0.0
  0
SPLINE
  5
120
100
AcDbEntity
  8
0
 62
7
100
AcDbSpline
 70
8
 71
3
 72
8
 73
4
 74
0
 40
0
 40
0
 40
0
 40
0
 40
1
 40
1
 40
1
 40
1
 10
80.206339
 20
350.767423
 30
0.0
 10
80.592482
 20
351.153564
 30
0.0
 10
81.116204
 20
351.370495
 30
0.0
 10
81.662293
 20
351.370495
 30
0.0
  0
SPLINE
  5
121
100
AcDbEntity
  8
0
 62
7
100
AcDbSpline
 70
8
 71
3
 72
8
 73
4
 74
0
 40
0
 40
0
 40
0
 40
0
 40
1
 40
1
 40
1
 40
1
 10
20.738248
 20
350.767420
 30
0.0
 10
21.124390
 20
350.381279
 30
0.0
 10
21.341323
 20
349.857558
 30
0.0
 10
21.341323
 20
349.311468
 30
0.0
  0
SPLINE
  5
122
100
AcDbEntity
  8
0
 62
7
100
AcDbSpline
 70
8
 71
3
 72
8
 73
4
 74
0
 40
0
 40
0
 40
0
 40
0
 40
1
 40
1
 40
1
 40
1
 10
83.118245
 20
350.767423
 30
0.0
 10
83.504388
 20
350.381279
 30
0.0
 10
83.721320
 20
349.857558
 30
0.0
 10
83.721320
 20
349.311468
 30
0.0
  0
SPLINE
  5
123
100
AcDbEntity
  8
0
 62
7
100
AcDbSpline
 70
8
 71
3
 72
8
 73
4
 74
0
 40
0
 40
0
 40
0
 40
0
 40
1
 40
1
 40
1
 40
1
 10
20.738248
 20
347.855516
 30
0.0
 10
20.352106
 20
347.469373
 30
0.0
 10
19.828384
 20
347.252438
 30
0.0
 10
19.282295
 20
347.252438
 30
0.0
  0
SPLINE
  5
124
100
AcDbEntity
  8
0
 62
7
100
AcDbSpline
 70
8
 71
3
 72
8
 73
4
 74
0
 40
0
 40
0
 40
0
 40
0
 40
1
 40
1
 40
1
 40
1
 10
17.826343
 20
347.855516
 30
0.0
 10
17.440200
 20
348.241657
 30
0.0
 10
17.223267
 20
348.765379
 30
0.0
 10
17.223268
 20
349.311468
 30
0.0
  0
SPLINE
  5
125
100
AcDbEntity
  8
0
 62
7
100
AcDbSpline
 70
8
 71
3
 72
8
 73
4
 74
0
 40
0
 40
0
 40
0
 40
0
 40
1
 40
1
 40
1
 40
1
 10
17.826343
 20
350.767420
 30
0.0
 10
18.212484
 20
351.153564
 30
0.0
 10
18.736207
 20
351.370495
 30
0.0
 10
19.282295
 20
351.370495
 30
0.0
  0
SPLINE
  5
126
100
AcDbEntity
  8
0
 62
7
100
AcDbSpline
 70
8
 71
3
 72
8
 73
4
 74
0
 40
0
 40
0
 40
0
 40
0
 40
1
 40
1
 40
1
 40
1
 10
21.341323
 20
349.311468
 30
0.0
 10
21.341323
 20
348.765379
 30
0.0
 10
21.124390
 20
348.241657
 30
0.0
 10
20.738248
 20
347.855516
 30
0.0
  0
SPLINE
  5
127
100
AcDbEntity
  8
0
 62
7
100
AcDbSpline
 70
8
 71
3
 72
8
 73
4
 74
0
 40
0
 40
0
 40
0
 40
0
 40
1
 40
1
 40
1
 40
1
 10
148.986078
 20
32.752218
 30
0.0
 10
148.986073
 20
33.298292
 30
0.0
 10
149.202996
 20
33.822003
 30
0.0
 10
149.589127
 20
34.208135
 30
0.0
  0
SPLINE
  5
128
100
AcDbEntity
  8
0
 62
7
100
AcDbSpline
 70
8
 71
3
 72
8
 73
4
 74
0
 40
0
 40
0
 40
0
 40
0
 40
1
 40
1
 40
1
 40
1
 10
359.015831
 20
197.895948
 30
0.0
 10
359.270678
 20
197.641112
 30
0.0
 10
359.413844
 20
197.295477
 30
0.0
 10
359.413844
 20
196.935082
 30
0.0
  0
SPLINE
  5
129
100
AcDbEntity
  8
0
 62
7
100
AcDbSpline
 70
8
 71
3
 72
8
 73
4
 74
0
 40
0
 40
0
 40
0
 40
0
 40
1
 40
1
 40
1
 40
1
 10
358.054970
 20
198.293953
 30
0.0
 10
358.415359
 20
198.293953
 30
0.0
 10
358.761011
 20
198.150787
 30
0.0
 10
359.015831
 20
197.895948
 30
0.0
  0
SPLINE
  5
12a
100
AcDbEntity
  8
0
 62
7
100
AcDbSpline
 70
8
 71
3
 72
8
 73
4
 74
0
 40
0
 40
0
 40
0
 40
0
 40
1
 40
1
 40
1
 40
1
 10
362.496107
 20
196.961329
 30
0.0
 10
362.496107
 20
197.321723
 30
0.0
 10
362.639273
 20
197.667356
 30
0.0
 10
362.894120
 20
197.922195
 30
0.0
  0
SPLINE
  5
12b
100
AcDbEntity
  8
0
 62
7
100
AcDbSpline
 70
8
 71
3
 72
8
 73
4
 74
0
 40
0
 40
0
 40
0
 40
0
 40
1
 40
1
 40
1
 40
1
 10
362.894120
 20
197.922195
 30
0.0
 10
363.148940
 20
198.177034
 30
0.0
 10
363.494592
 20
198.320200
 30
0.0
 10
363.854981
 20
198.320200
 30
0.0
  0
SPLINE
  5
12c
100
AcDbEntity
  8
0
 62
7
100
AcDbSpline
 70
8
 71
3
 72
8
 73
4
 74
0
 40
0
 40
0
 40
0
 40
0
 40
1
 40
1
 40
1
 40
1
 10
338.079061
 20
87.541219
 30
0.0
 10
337.824240
 20
87.796055
 30
0.0
 10
337.681074
 20
88.141691
 30
0.0
 10
337.681074
 20
88.502085
 30
0.0
  0
SPLINE
  5
12d
100
AcDbEntity
  8
0
 62
7
100
AcDbSpline
 70
8
 71
3
 72
8
 73
4
 74
0
 40
0
 40
0
 40
0
 40
0
 40
1
 40
1
 40
1
 40
1
 10
288.105275
 20
81.741185
 30
0.0
 10
287.850428
 20
81.996024
 30
0.0
 10
287.707262
 20
82.341657
 30
0.0
 10
287.707262
 20
82.702054
 30
0.0
  0
SPLINE
  5
12e
100
AcDbEntity
  8
0
 62
7
100
AcDbSpline
 70
8
 71
3
 72
8
 73
4
 74
0
 40
0
 40
0
 40
0
 40
0
 40
1
 40
1
 40
1
 40
1
 10
359.413844
 20
196.935082
 30
0.0
 10
359.413844
 20
196.574685
 30
0.0
 10
359.270678
 20
196.229052
 30
0.0
 10
359.015831
 20
195.974214
 30
0.0
  0
SPLINE
  5
12f
100
AcDbEntity
  8
0
 62
7
100
AcDbSpline
 70
8
 71
3
 72
8
 73
4
 74
0
 40
0
 40
0
 40
0
 40
0
 40
1
 40
1
 40
1
 40
1
 10
356.696097
 20
196.935082
 30
0.0
 10
356.696097
 20
197.295477
 30
0.0
 10
356.839263
 20
197.641112
 30
0.0
 10
357.094109
 20
197.895948
 30
0.0
  0
SPLINE
  5
130
100
AcDbEntity
  8
0
 62
7
100
AcDbSpline
 70
8
 71
3
 72
8
 73
4
 74
0
 40
0
 40
0
 40
0
 40
0
 40
1
 40
1
 40
1
 40
1
 10
337.681074
 20
88.502085
 30
0.0
 10
337.681074
 20
88.862482
 30
0.0
 10
337.824240
 20
89.208115
 30
0.0
 10
338.079061
 20
89.462954
 30
0.0
  0
SPLINE
  5
131
100
AcDbEntity
  8
0
 62
7
100
AcDbSpline
 70
8
 71
3
 72
8
 73
4
 74
0
 40
0
 40
0
 40
0
 40
0
 40
1
 40
1
 40
1
 40
1
 10
357.094109
 20
197.895948
 30
0.0
 10
357.348929
 20
198.150787
 30
0.0
 10
357.694581
 20
198.293953
 30
0.0
 10
358.054970
 20
198.293953
 30
0.0
  0
SPLINE
  5
132
100
AcDbEntity
  8
0
 62
7
100
AcDbSpline
 70
8
 71
3
 72
8
 73
4
 74
0
 40
0
 40
0
 40
0
 40
0
 40
1
 40
1
 40
1
 40
1
 10
359.015831
 20
195.974214
 30
0.0
 10
358.761011
 20
195.719375
 30
0.0
 10
358.415359
 20
195.576209
 30
0.0
 10
358.054970
 20
195.576209
 30
0.0
  0
SPLINE
  5
133
100
AcDbEntity
  8
0
 62
7
100
AcDbSpline
 70
8
 71
3
 72
8
 73
4
 74
0
 40
0
 40
0
 40
0
 40
0
 40
1
 40
1
 40
1
 40
1
 10
338.079061
 20
89.462954
 30
0.0
 10
338.333907
 20
89.717790
 30
0.0
 10
338.679533
 20
89.860959
 30
0.0
 10
339.039948
 20
89.860959
 30
0.0
  0
SPLINE
  5
134
100
AcDbEntity
  8
0
 62
7
100
AcDbSpline
 70
8
 71
3
 72
8
 73
4
 74
0
 40
0
 40
0
 40
0
 40
0
 40
1
 40
1
 40
1
 40
1
 10
358.054970
 20
195.576209
 30
0.0
 10
357.694581
 20
195.576209
 30
0.0
 10
357.348929
 20
195.719375
 30
0.0
 10
357.094109
 20
195.974214
 30
0.0
  0
SPLINE
  5
135
100
AcDbEntity
  8
0
 62
7
100
AcDbSpline
 70
8
 71
3
 72
8
 73
4
 74
0
 40
0
 40
0
 40
0
 40
0
 40
1
 40
1
 40
1
 40
1
 10
340.425068
 20
82.702080
 30
0.0
 10
340.425068
 20
82.341686
 30
0.0
 10
340.281902
 20
81.996053
 30
0.0
 10
340.027055
 20
81.741214
 30
0.0
  0
SPLINE
  5
136
100
AcDbEntity
  8
0
 62
7
100
AcDbSpline
 70
8
 71
3
 72
8
 73
4
 74
0
 40
0
 40
0
 40
0
 40
0
 40
1
 40
1
 40
1
 40
1
 10
339.066195
 20
81.343209
 30
0.0
 10
338.705779
 20
81.343209
 30
0.0
 10
338.360154
 20
81.486375
 30
0.0
 10
338.105307
 20
81.741214
 30
0.0
  0
SPLINE
  5
137
100
AcDbEntity
  8
0
 62
7
100
AcDbSpline
 70
8
 71
3
 72
8
 73
4
 74
0
 40
0
 40
0
 40
0
 40
0
 40
1
 40
1
 40
1
 40
1
 10
338.105307
 20
83.662949
 30
0.0
 10
338.360154
 20
83.917788
 30
0.0
 10
338.705779
 20
84.060954
 30
0.0
 10
339.066195
 20
84.060954
 30
0.0
  0
SPLINE
  5
138
100
AcDbEntity
  8
0
 62
7
100
AcDbSpline
 70
8
 71
3
 72
8
 73
4
 74
0
 40
0
 40
0
 40
0
 40
0
 40
1
 40
1
 40
1
 40
1
 10
337.707321
 20
82.702080
 30
0.0
 10
337.707321
 20
83.062477
 30
0.0
 10
337.850487
 20
83.408110
 30
0.0
 10
338.105307
 20
83.662949
 30
0.0
  0
SPLINE
  5
139
100
AcDbEntity
  8
0
 62
7
100
AcDbSpline
 70
8
 71
3
 72
8
 73
4
 74
0
 40
0
 40
0
 40
0
 40
0
 40
1
 40
1
 40
1
 40
1
 10
339.066195
 20
84.060954
 30
0.0
 10
339.426584
 20
84.060954
 30
0.0
 10
339.772209
 20
83.917788
 30
0.0
 10
340.027055
 20
83.662949
 30
0.0
  0
SPLINE
  5
13a
100
AcDbEntity
  8
0
 62
7
100
AcDbSpline
 70
8
 71
3
 72
8
 73
4
 74
0
 40
0
 40
0
 40
0
 40
0
 40
1
 40
1
 40
1
 40
1
 10
340.398822
 20
88.502085
 30
0.0
 10
340.398822
 20
88.141691
 30
0.0
 10
340.255655
 20
87.796055
 30
0.0
 10
340.000809
 20
87.541219
 30
0.0
  0
SPLINE
  5
13b
100
AcDbEntity
  8
0
 62
7
100
AcDbSpline
 70
8
 71
3
 72
8
 73
4
 74
0
 40
0
 40
0
 40
0
 40
0
 40
1
 40
1
 40
1
 40
1
 10
339.039948
 20
87.143215
 30
0.0
 10
338.679533
 20
87.143215
 30
0.0
 10
338.333907
 20
87.286381
 30
0.0
 10
338.079061
 20
87.541219
 30
0.0
  0
SPLINE
  5
13c
100
AcDbEntity
  8
0
 62
7
100
AcDbSpline
 70
8
 71
3
 72
8
 73
4
 74
0
 40
0
 40
0
 40
0
 40
0
 40
1
 40
1
 40
1
 40
1
 10
340.027055
 20
83.662949
 30
0.0
 10
340.281902
 20
83.408110
 30
0.0
 10
340.425068
 20
83.062477
 30
0.0
 10
340.425068
 20
82.702080
 30
0.0
  0
SPLINE
  5
13d
100
AcDbEntity
  8
0
 62
7
100
AcDbSpline
 70
8
 71
3
 72
8
 73
4
 74
0
 40
0
 40
0
 40
0
 40
0
 40
1
 40
1
 40
1
 40
1
 10
340.000809
 20
87.541219
 30
0.0
 10
339.745962
 20
87.286381
 30
0.0
 10
339.400337
 20
87.143215
 30
0.0
 10
339.039948
 20
87.143215
 30
0.0
  0
SPLINE
  5
13e
100
AcDbEntity
  8
0
 62
7
100
AcDbSpline
 70
8
 71
3
 72
8
 73
4
 74
0
 40
0
 40
0
 40
0
 40
0
 40
1
 40
1
 40
1
 40
1
 10
339.039948
 20
89.860959
 30
0.0
 10
339.400337
 20
89.860959
 30
0.0
 10
339.745962
 20
89.717790
 30
0.0
 10
340.000809
 20
89.462954
 30
0.0
  0
SPLINE
  5
13f
100
AcDbEntity
  8
0
 62
7
100
AcDbSpline
 70
8
 71
3
 72
8
 73
4
 74
0
 40
0
 40
0
 40
0
 40
0
 40
1
 40
1
 40
1
 40
1
 10
340.000809
 20
89.462954
 30
0.0
 10
340.255655
 20
89.208115
 30
0.0
 10
340.398822
 20
88.862482
 30
0.0
 10
340.398822
 20
88.502085
 30
0.0
  0
SPLINE
  5
140
100
AcDbEntity
  8
0
 62
7
100
AcDbSpline
 70
8
 71
3
 72
8
 73
4
 74
0
 40
0
 40
0
 40
0
 40
0
 40
1
 40
1
 40
1
 40
1
 10
338.105307
 20
81.741214
 30
0.0
 10
337.850487
 20
81.996053
 30
0.0
 10
337.707321
 20
82.341686
 30
0.0
 10
337.707321
 20
82.702080
 30
0.0
  0
SPLINE
  5
141
100
AcDbEntity
  8
0
 62
7
100
AcDbSpline
 70
8
 71
3
 72
8
 73
4
 74
0
 40
0
 40
0
 40
0
 40
0
 40
1
 40
1
 40
1
 40
1
 10
290.425009
 20
82.702054
 30
0.0
 10
290.425009
 20
82.341657
 30
0.0
 10
290.281843
 20
81.996024
 30
0.0
 10
290.027023
 20
81.741185
 30
0.0
  0
SPLINE
  5
142
100
AcDbEntity
  8
0
 62
7
100
AcDbSpline
 70
8
 71
3
 72
8
 73
4
 74
0
 40
0
 40
0
 40
0
 40
0
 40
1
 40
1
 40
1
 40
1
 10
290.027023
 20
81.741185
 30
0.0
 10
289.772177
 20
81.486349
 30
0.0
 10
289.426551
 20
81.343180
 30
0.0
 10
289.066136
 20
81.343183
 30
0.0
  0
SPLINE
  5
143
100
AcDbEntity
  8
0
 62
7
100
AcDbSpline
 70
8
 71
3
 72
8
 73
4
 74
0
 40
0
 40
0
 40
0
 40
0
 40
1
 40
1
 40
1
 40
1
 10
340.027055
 20
81.741214
 30
0.0
 10
339.772209
 20
81.486375
 30
0.0
 10
339.426584
 20
81.343209
 30
0.0
 10
339.066195
 20
81.343209
 30
0.0
  0
SPLINE
  5
144
100
AcDbEntity
  8
0
 62
7
100
AcDbSpline
 70
8
 71
3
 72
8
 73
4
 74
0
 40
0
 40
0
 40
0
 40
0
 40
1
 40
1
 40
1
 40
1
 10
287.707262
 20
82.702054
 30
0.0
 10
287.707262
 20
83.062448
 30
0.0
 10
287.850428
 20
83.408084
 30
0.0
 10
288.105275
 20
83.662920
 30
0.0
  0
SPLINE
  5
145
100
AcDbEntity
  8
0
 62
7
100
AcDbSpline
 70
8
 71
3
 72
8
 73
4
 74
0
 40
0
 40
0
 40
0
 40
0
 40
1
 40
1
 40
1
 40
1
 10
357.094109
 20
195.974214
 30
0.0
 10
356.839263
 20
196.229052
 30
0.0
 10
356.696097
 20
196.574685
 30
0.0
 10
356.696097
 20
196.935082
 30
0.0
  0
SPLINE
  5
146
100
AcDbEntity
  8
0
 62
7
100
AcDbSpline
 70
8
 71
3
 72
8
 73
4
 74
0
 40
0
 40
0
 40
0
 40
0
 40
1
 40
1
 40
1
 40
1
 10
289.066136
 20
84.060925
 30
0.0
 10
289.426551
 20
84.060925
 30
0.0
 10
289.772177
 20
83.917758
 30
0.0
 10
290.027023
 20
83.662920
 30
0.0
  0
SPLINE
  5
147
100
AcDbEntity
  8
0
 62
7
100
AcDbSpline
 70
8
 71
3
 72
8
 73
4
 74
0
 40
0
 40
0
 40
0
 40
0
 40
1
 40
1
 40
1
 40
1
 10
290.027023
 20
83.662920
 30
0.0
 10
290.281843
 20
83.408084
 30
0.0
 10
290.425009
 20
83.062448
 30
0.0
 10
290.425009
 20
82.702054
 30
0.0
  0
SPLINE
  5
148
100
AcDbEntity
  8
0
 62
7
100
AcDbSpline
 70
8
 71
3
 72
8
 73
4
 74
0
 40
0
 40
0
 40
0
 40
0
 40
1
 40
1
 40
1
 40
1
 10
288.105275
 20
83.662920
 30
0.0
 10
288.360122
 20
83.917758
 30
0.0
 10
288.705747
 20
84.060925
 30
0.0
 10
289.066136
 20
84.060925
 30
0.0
  0
SPLINE
  5
149
100
AcDbEntity
  8
0
 62
7
100
AcDbSpline
 70
8
 71
3
 72
8
 73
4
 74
0
 40
0
 40
0
 40
0
 40
0
 40
1
 40
1
 40
1
 40
1
 10
290.398763
 20
88.502059
 30
0.0
 10
290.398763
 20
88.141662
 30
0.0
 10
290.255597
 20
87.796029
 30
0.0
 10
290.000777
 20
87.541190
 30
0.0
  0
SPLINE
  5
14a
100
AcDbEntity
  8
0
 62
7
100
AcDbSpline
 70
8
 71
3
 72
8
 73
4
 74
0
 40
0
 40
0
 40
0
 40
0
 40
1
 40
1
 40
1
 40
1
 10
289.066136
 20
81.343183
 30
0.0
 10
288.705747
 20
81.343180
 30
0.0
 10
288.360122
 20
81.486349
 30
0.0
 10
288.105275
 20
81.741185
 30
0.0
  0
SPLINE
  5
14b
100
AcDbEntity
  8
0
 62
7
100
AcDbSpline
 70
8
 71
3
 72
8
 73
4
 74
0
 40
0
 40
0
 40
0
 40
0
 40
1
 40
1
 40
1
 40
1
 10
290.000777
 20
87.541190
 30
0.0
 10
289.745930
 20
87.286351
 30
0.0
 10
289.400305
 20
87.143185
 30
0.0
 10
289.039889
 20
87.143185
 30
0.0
  0
SPLINE
  5
14c
100
AcDbEntity
  8
0
 62
7
100
AcDbSpline
 70
8
 71
3
 72
8
 73
4
 74
0
 40
0
 40
0
 40
0
 40
0
 40
1
 40
1
 40
1
 40
1
 10
352.204001
 20
100.752225
 30
0.0
 10
352.204001
 20
100.206151
 30
0.0
 10
351.987069
 20
99.682443
 30
0.0
 10
351.600962
 20
99.296308
 30
0.0
  0
SPLINE
  5
14d
100
AcDbEntity
  8
0
 62
7
100
AcDbSpline
 70
8
 71
3
 72
8
 73
4
 74
0
 40
0
 40
0
 40
0
 40
0
 40
1
 40
1
 40
1
 40
1
 10
290.000777
 20
89.462925
 30
0.0
 10
290.255597
 20
89.208086
 30
0.0
 10
290.398763
 20
88.862453
 30
0.0
 10
290.398763
 20
88.502059
 30
0.0
  0
SPLINE
  5
14e
100
AcDbEntity
  8
0
 62
7
100
AcDbSpline
 70
8
 71
3
 72
8
 73
4
 74
0
 40
0
 40
0
 40
0
 40
0
 40
1
 40
1
 40
1
 40
1
 10
288.079028
 20
89.462925
 30
0.0
 10
288.333875
 20
89.717764
 30
0.0
 10
288.679500
 20
89.860930
 30
0.0
 10
289.039889
 20
89.860930
 30
0.0
  0
SPLINE
  5
14f
100
AcDbEntity
  8
0
 62
7
100
AcDbSpline
 70
8
 71
3
 72
8
 73
4
 74
0
 40
0
 40
0
 40
0
 40
0
 40
1
 40
1
 40
1
 40
1
 10
288.079028
 20
87.541190
 30
0.0
 10
287.824182
 20
87.796029
 30
0.0
 10
287.681016
 20
88.141662
 30
0.0
 10
287.681016
 20
88.502059
 30
0.0
  0
SPLINE
  5
150
100
AcDbEntity
  8
0
 62
7
100
AcDbSpline
 70
8
 71
3
 72
8
 73
4
 74
0
 40
0
 40
0
 40
0
 40
0
 40
1
 40
1
 40
1
 40
1
 10
287.681016
 20
88.502059
 30
0.0
 10
287.681016
 20
88.862453
 30
0.0
 10
287.824182
 20
89.208086
 30
0.0
 10
288.079028
 20
89.462925
 30
0.0
  0
SPLINE
  5
151
100
AcDbEntity
  8
0
 62
7
100
AcDbSpline
 70
8
 71
3
 72
8
 73
4
 74
0
 40
0
 40
0
 40
0
 40
0
 40
1
 40
1
 40
1
 40
1
 10
289.039889
 20
87.143185
 30
0.0
 10
288.679500
 20
87.143185
 30
0.0
 10
288.333875
 20
87.286351
 30
0.0
 10
288.079028
 20
87.541190
 30
0.0
  0
SPLINE
  5
152
100
AcDbEntity
  8
0
 62
7
100
AcDbSpline
 70
8
 71
3
 72
8
 73
4
 74
0
 40
0
 40
0
 40
0
 40
0
 40
1
 40
1
 40
1
 40
1
 10
289.039889
 20
89.860930
 30
0.0
 10
289.400305
 20
89.860930
 30
0.0
 10
289.745930
 20
89.717764
 30
0.0
 10
290.000777
 20
89.462925
 30
0.0
  0
SPLINE
  5
153
100
AcDbEntity
  8
0
 62
7
100
AcDbSpline
 70
8
 71
3
 72
8
 73
4
 74
0
 40
0
 40
0
 40
0
 40
0
 40
1
 40
1
 40
1
 40
1
 10
348.689143
 20
99.296308
 30
0.0
 10
348.303010
 20
99.682443
 30
0.0
 10
348.086079
 20
100.206151
 30
0.0
 10
348.086105
 20
100.752225
 30
0.0
  0
SPLINE
  5
154
100
AcDbEntity
  8
0
 62
7
100
AcDbSpline
 70
8
 71
3
 72
8
 73
4
 74
0
 40
0
 40
0
 40
0
 40
0
 40
1
 40
1
 40
1
 40
1
 10
351.600962
 20
99.296308
 30
0.0
 10
351.214829
 20
98.910175
 30
0.0
 10
350.691113
 20
98.693245
 30
0.0
 10
350.145040
 20
98.693243
 30
0.0
  0
SPLINE
  5
155
100
AcDbEntity
  8
0
 62
7
100
AcDbSpline
 70
8
 71
3
 72
8
 73
4
 74
0
 40
0
 40
0
 40
0
 40
0
 40
1
 40
1
 40
1
 40
1
 10
348.086105
 20
100.752225
 30
0.0
 10
348.086105
 20
101.889351
 30
0.0
 10
349.007913
 20
102.811173
 30
0.0
 10
350.145040
 20
102.811175
 30
0.0
  0
SPLINE
  5
156
100
AcDbEntity
  8
0
 62
7
100
AcDbSpline
 70
8
 71
3
 72
8
 73
4
 74
0
 40
0
 40
0
 40
0
 40
0
 40
1
 40
1
 40
1
 40
1
 10
350.145040
 20
102.811175
 30
0.0
 10
351.282166
 20
102.811173
 30
0.0
 10
352.204001
 20
101.889351
 30
0.0
 10
352.204001
 20
100.752225
 30
0.0
  0
SPLINE
  5
157
100
AcDbEntity
  8
0
 62
7
100
AcDbSpline
 70
8
 71
3
 72
8
 73
4
 74
0
 40
0
 40
0
 40
0
 40
0
 40
1
 40
1
 40
1
 40
1
 10
322.104022
 20
100.752225
 30
0.0
 10
322.104022
 20
100.206146
 30
0.0
 10
321.887090
 20
99.682433
 30
0.0
 10
321.500957
 20
99.296300
 30
0.0
  0
SPLINE
  5
158
100
AcDbEntity
  8
0
 62
7
100
AcDbSpline
 70
8
 71
3
 72
8
 73
4
 74
0
 40
0
 40
0
 40
0
 40
0
 40
1
 40
1
 40
1
 40
1
 10
350.145040
 20
98.693243
 30
0.0
 10
349.598966
 20
98.693245
 30
0.0
 10
349.075276
 20
98.910175
 30
0.0
 10
348.689143
 20
99.296308
 30
0.0
  0
SPLINE
  5
159
100
AcDbEntity
  8
0
 62
7
100
AcDbSpline
 70
8
 71
3
 72
8
 73
4
 74
0
 40
0
 40
0
 40
0
 40
0
 40
1
 40
1
 40
1
 40
1
 10
320.045034
 20
98.693243
 30
0.0
 10
319.498961
 20
98.693245
 30
0.0
 10
318.975244
 20
98.910175
 30
0.0
 10
318.589112
 20
99.296308
 30
0.0
  0
SPLINE
  5
15a
100
AcDbEntity
  8
0
 62
7
100
AcDbSpline
 70
8
 71
3
 72
8
 73
4
 74
0
 40
0
 40
0
 40
0
 40
0
 40
1
 40
1
 40
1
 40
1
 10
317.986073
 20
100.752225
 30
0.0
 10
317.986073
 20
101.889351
 30
0.0
 10
318.907908
 20
102.811173
 30
0.0
 10
320.045034
 20
102.811175
 30
0.0
  0
SPLINE
  5
15b
100
AcDbEntity
  8
0
 62
7
100
AcDbSpline
 70
8
 71
3
 72
8
 73
4
 74
0
 40
0
 40
0
 40
0
 40
0
 40
1
 40
1
 40
1
 40
1
 10
321.500957
 20
99.296300
 30
0.0
 10
321.114824
 20
98.910164
 30
0.0
 10
320.591108
 20
98.693237
 30
0.0
 10
320.045034
 20
98.693243
 30
0.0
  0
SPLINE
  5
15c
100
AcDbEntity
  8
0
 62
7
100
AcDbSpline
 70
8
 71
3
 72
8
 73
4
 74
0
 40
0
 40
0
 40
0
 40
0
 40
1
 40
1
 40
1
 40
1
 10
318.589112
 20
99.296308
 30
0.0
 10
318.203005
 20
99.682443
 30
0.0
 10
317.986073
 20
100.206151
 30
0.0
 10
317.986073
 20
100.752225
 30
0.0
  0
SPLINE
  5
15d
100
AcDbEntity
  8
0
 62
7
100
AcDbSpline
 70
8
 71
3
 72
8
 73
4
 74
0
 40
0
 40
0
 40
0
 40
0
 40
1
 40
1
 40
1
 40
1
 10
269.643999
 20
93.802219
 30
0.0
 10
269.643999
 20
92.665092
 30
0.0
 10
268.722165
 20
91.743268
 30
0.0
 10
267.585038
 20
91.743268
 30
0.0
  0
SPLINE
  5
15e
100
AcDbEntity
  8
0
 62
7
100
AcDbSpline
 70
8
 71
3
 72
8
 73
4
 74
0
 40
0
 40
0
 40
0
 40
0
 40
1
 40
1
 40
1
 40
1
 10
265.526077
 20
93.802219
 30
0.0
 10
265.526077
 20
94.939350
 30
0.0
 10
266.447912
 20
95.861172
 30
0.0
 10
267.585038
 20
95.861172
 30
0.0
  0
SPLINE
  5
15f
100
AcDbEntity
  8
0
 62
7
100
AcDbSpline
 70
8
 71
3
 72
8
 73
4
 74
0
 40
0
 40
0
 40
0
 40
0
 40
1
 40
1
 40
1
 40
1
 10
239.643988
 20
93.802219
 30
0.0
 10
239.643983
 20
92.665090
 30
0.0
 10
238.722156
 20
91.743266
 30
0.0
 10
237.585027
 20
91.743268
 30
0.0
  0
SPLINE
  5
160
100
AcDbEntity
  8
0
 62
7
100
AcDbSpline
 70
8
 71
3
 72
8
 73
4
 74
0
 40
0
 40
0
 40
0
 40
0
 40
1
 40
1
 40
1
 40
1
 10
321.500957
 20
102.208132
 30
0.0
 10
321.887090
 20
101.822002
 30
0.0
 10
322.103995
 20
101.298296
 30
0.0
 10
322.104022
 20
100.752225
 30
0.0
  0
SPLINE
  5
161
100
AcDbEntity
  8
0
 62
7
100
AcDbSpline
 70
8
 71
3
 72
8
 73
4
 74
0
 40
0
 40
0
 40
0
 40
0
 40
1
 40
1
 40
1
 40
1
 10
320.045034
 20
102.811175
 30
0.0
 10
320.591108
 20
102.811183
 30
0.0
 10
321.114798
 20
102.594259
 30
0.0
 10
321.500957
 20
102.208132
 30
0.0
  0
SPLINE
  5
162
100
AcDbEntity
  8
0
 62
7
100
AcDbSpline
 70
8
 71
3
 72
8
 73
4
 74
0
 40
0
 40
0
 40
0
 40
0
 40
1
 40
1
 40
1
 40
1
 10
267.585038
 20
91.743268
 30
0.0
 10
266.447912
 20
91.743266
 30
0.0
 10
265.526077
 20
92.665090
 30
0.0
 10
265.526077
 20
93.802219
 30
0.0
  0
SPLINE
  5
163
100
AcDbEntity
  8
0
 62
7
100
AcDbSpline
 70
8
 71
3
 72
8
 73
4
 74
0
 40
0
 40
0
 40
0
 40
0
 40
1
 40
1
 40
1
 40
1
 10
152.501255
 20
500.296553
 30
0.0
 10
152.115112
 20
499.910410
 30
0.0
 10
151.591390
 20
499.693478
 30
0.0
 10
151.045301
 20
499.693478
 30
0.0
  0
SPLINE
  5
164
100
AcDbEntity
  8
0
 62
7
100
AcDbSpline
 70
8
 71
3
 72
8
 73
4
 74
0
 40
0
 40
0
 40
0
 40
0
 40
1
 40
1
 40
1
 40
1
 10
354.816179
 20
426.283255
 30
0.0
 10
354.455790
 20
426.283255
 30
0.0
 10
354.110165
 20
426.426421
 30
0.0
 10
353.855318
 20
426.681260
 30
0.0
  0
SPLINE
  5
165
100
AcDbEntity
  8
0
 62
7
100
AcDbSpline
 70
8
 71
3
 72
8
 73
4
 74
0
 40
0
 40
0
 40
0
 40
0
 40
1
 40
1
 40
1
 40
1
 10
149.589349
 20
500.296553
 30
0.0
 10
149.203205
 20
500.682697
 30
0.0
 10
148.986274
 20
501.206418
 30
0.0
 10
148.986274
 20
501.752505
 30
0.0
  0
SPLINE
  5
166
100
AcDbEntity
  8
0
 62
7
100
AcDbSpline
 70
8
 71
3
 72
8
 73
4
 74
0
 40
0
 40
0
 40
0
 40
0
 40
1
 40
1
 40
1
 40
1
 10
353.431059
 20
433.442131
 30
0.0
 10
353.431059
 20
433.802528
 30
0.0
 10
353.574225
 20
434.148161
 30
0.0
 10
353.829072
 20
434.403000
 30
0.0
  0
SPLINE
  5
167
100
AcDbEntity
  8
0
 62
7
100
AcDbSpline
 70
8
 71
3
 72
8
 73
4
 74
0
 40
0
 40
0
 40
0
 40
0
 40
1
 40
1
 40
1
 40
1
 10
354.789932
 20
432.083260
 30
0.0
 10
354.429543
 20
432.083260
 30
0.0
 10
354.083918
 20
432.226427
 30
0.0
 10
353.829072
 20
432.481265
 30
0.0
  0
SPLINE
  5
168
100
AcDbEntity
  8
0
 62
7
100
AcDbSpline
 70
8
 71
3
 72
8
 73
4
 74
0
 40
0
 40
0
 40
0
 40
0
 40
1
 40
1
 40
1
 40
1
 10
353.829072
 20
434.403000
 30
0.0
 10
354.083918
 20
434.657839
 30
0.0
 10
354.429543
 20
434.801005
 30
0.0
 10
354.789932
 20
434.801005
 30
0.0
  0
SPLINE
  5
169
100
AcDbEntity
  8
0
 62
7
100
AcDbSpline
 70
8
 71
3
 72
8
 73
4
 74
0
 40
0
 40
0
 40
0
 40
0
 40
1
 40
1
 40
1
 40
1
 10
361.148796
 20
438.820134
 30
0.0
 10
361.148796
 20
438.459737
 30
0.0
 10
361.005630
 20
438.114104
 30
0.0
 10
360.750810
 20
437.859265
 30
0.0
  0
SPLINE
  5
16a
100
AcDbEntity
  8
0
 62
7
100
AcDbSpline
 70
8
 71
3
 72
8
 73
4
 74
0
 40
0
 40
0
 40
0
 40
0
 40
1
 40
1
 40
1
 40
1
 10
355.750820
 20
434.403000
 30
0.0
 10
356.005640
 20
434.148161
 30
0.0
 10
356.148806
 20
433.802528
 30
0.0
 10
356.148806
 20
433.442131
 30
0.0
  0
SPLINE
  5
16b
100
AcDbEntity
  8
0
 62
7
100
AcDbSpline
 70
8
 71
3
 72
8
 73
4
 74
0
 40
0
 40
0
 40
0
 40
0
 40
1
 40
1
 40
1
 40
1
 10
355.777066
 20
428.602995
 30
0.0
 10
356.031887
 20
428.348156
 30
0.0
 10
356.175053
 20
428.002523
 30
0.0
 10
356.175053
 20
427.642129
 30
0.0
  0
SPLINE
  5
16c
100
AcDbEntity
  8
0
 62
7
100
AcDbSpline
 70
8
 71
3
 72
8
 73
4
 74
0
 40
0
 40
0
 40
0
 40
0
 40
1
 40
1
 40
1
 40
1
 10
148.986274
 20
501.752505
 30
0.0
 10
148.986274
 20
502.298595
 30
0.0
 10
149.203205
 20
502.822316
 30
0.0
 10
149.589349
 20
503.208460
 30
0.0
  0
SPLINE
  5
16d
100
AcDbEntity
  8
0
 62
7
100
AcDbSpline
 70
8
 71
3
 72
8
 73
4
 74
0
 40
0
 40
0
 40
0
 40
0
 40
1
 40
1
 40
1
 40
1
 10
360.750810
 20
437.859265
 30
0.0
 10
360.495963
 20
437.604429
 30
0.0
 10
360.150338
 20
437.461261
 30
0.0
 10
359.789922
 20
437.461263
 30
0.0
  0
SPLINE
  5
16e
100
AcDbEntity
  8
0
 62
7
100
AcDbSpline
 70
8
 71
3
 72
8
 73
4
 74
0
 40
0
 40
0
 40
0
 40
0
 40
1
 40
1
 40
1
 40
1
 10
179.689336
 20
503.208460
 30
0.0
 10
180.075479
 20
503.594600
 30
0.0
 10
180.599201
 20
503.811535
 30
0.0
 10
181.145290
 20
503.811535
 30
0.0
  0
SPLINE
  5
16f
100
AcDbEntity
  8
0
 62
7
100
AcDbSpline
 70
8
 71
3
 72
8
 73
4
 74
0
 40
0
 40
0
 40
0
 40
0
 40
1
 40
1
 40
1
 40
1
 10
179.689336
 20
500.296553
 30
0.0
 10
179.303192
 20
500.682697
 30
0.0
 10
179.086260
 20
501.206418
 30
0.0
 10
179.086260
 20
501.752505
 30
0.0
  0
SPLINE
  5
170
100
AcDbEntity
  8
0
 62
7
100
AcDbSpline
 70
8
 71
3
 72
8
 73
4
 74
0
 40
0
 40
0
 40
0
 40
0
 40
1
 40
1
 40
1
 40
1
 10
359.789922
 20
437.461263
 30
0.0
 10
359.429533
 20
437.461261
 30
0.0
 10
359.083908
 20
437.604429
 30
0.0
 10
358.829062
 20
437.859265
 30
0.0
  0
SPLINE
  5
171
100
AcDbEntity
  8
0
 62
7
100
AcDbSpline
 70
8
 71
3
 72
8
 73
4
 74
0
 40
0
 40
0
 40
0
 40
0
 40
1
 40
1
 40
1
 40
1
 10
358.829062
 20
437.859265
 30
0.0
 10
358.574215
 20
438.114104
 30
0.0
 10
358.431049
 20
438.459737
 30
0.0
 10
358.431049
 20
438.820134
 30
0.0
  0
SPLINE
  5
172
100
AcDbEntity
  8
0
 62
7
100
AcDbSpline
 70
8
 71
3
 72
8
 73
4
 74
0
 40
0
 40
0
 40
0
 40
0
 40
1
 40
1
 40
1
 40
1
 10
181.145290
 20
503.811535
 30
0.0
 10
181.691377
 20
503.811535
 30
0.0
 10
182.215099
 20
503.594600
 30
0.0
 10
182.601242
 20
503.208460
 30
0.0
  0
SPLINE
  5
173
100
AcDbEntity
  8
0
 62
7
100
AcDbSpline
 70
8
 71
3
 72
8
 73
4
 74
0
 40
0
 40
0
 40
0
 40
0
 40
1
 40
1
 40
1
 40
1
 10
151.045301
 20
499.693478
 30
0.0
 10
150.499214
 20
499.693478
 30
0.0
 10
149.975492
 20
499.910410
 30
0.0
 10
149.589349
 20
500.296553
 30
0.0
  0
SPLINE
  5
174
100
AcDbEntity
  8
0
 62
7
100
AcDbSpline
 70
8
 71
3
 72
8
 73
4
 74
0
 40
0
 40
0
 40
0
 40
0
 40
1
 40
1
 40
1
 40
1
 10
355.777066
 20
426.681260
 30
0.0
 10
355.522220
 20
426.426421
 30
0.0
 10
355.176594
 20
426.283255
 30
0.0
 10
354.816179
 20
426.283255
 30
0.0
  0
SPLINE
  5
175
100
AcDbEntity
  8
0
 62
7
100
AcDbSpline
 70
8
 71
3
 72
8
 73
4
 74
0
 40
0
 40
0
 40
0
 40
0
 40
1
 40
1
 40
1
 40
1
 10
355.750820
 20
432.481265
 30
0.0
 10
355.495973
 20
432.226427
 30
0.0
 10
355.150348
 20
432.083260
 30
0.0
 10
354.789932
 20
432.083260
 30
0.0
  0
SPLINE
  5
176
100
AcDbEntity
  8
0
 62
7
100
AcDbSpline
 70
8
 71
3
 72
8
 73
4
 74
0
 40
0
 40
0
 40
0
 40
0
 40
1
 40
1
 40
1
 40
1
 10
353.829072
 20
432.481265
 30
0.0
 10
353.574225
 20
432.736101
 30
0.0
 10
353.431059
 20
433.081737
 30
0.0
 10
353.431059
 20
433.442131
 30
0.0
  0
SPLINE
  5
177
100
AcDbEntity
  8
0
 62
7
100
AcDbSpline
 70
8
 71
3
 72
8
 73
4
 74
0
 40
0
 40
0
 40
0
 40
0
 40
1
 40
1
 40
1
 40
1
 10
356.148806
 20
433.442131
 30
0.0
 10
356.148806
 20
433.081737
 30
0.0
 10
356.005640
 20
432.736101
 30
0.0
 10
355.750820
 20
432.481265
 30
0.0
  0
SPLINE
  5
178
100
AcDbEntity
  8
0
 62
7
100
AcDbSpline
 70
8
 71
3
 72
8
 73
4
 74
0
 40
0
 40
0
 40
0
 40
0
 40
1
 40
1
 40
1
 40
1
 10
353.855318
 20
426.681260
 30
0.0
 10
353.600472
 20
426.936099
 30
0.0
 10
353.457305
 20
427.281732
 30
0.0
 10
353.457305
 20
427.642129
 30
0.0
  0
SPLINE
  5
179
100
AcDbEntity
  8
0
 62
7
100
AcDbSpline
 70
8
 71
3
 72
8
 73
4
 74
0
 40
0
 40
0
 40
0
 40
0
 40
1
 40
1
 40
1
 40
1
 10
153.104331
 20
501.752505
 30
0.0
 10
153.104331
 20
501.206418
 30
0.0
 10
152.887399
 20
500.682697
 30
0.0
 10
152.501255
 20
500.296553
 30
0.0
  0
SPLINE
  5
17a
100
AcDbEntity
  8
0
 62
7
100
AcDbSpline
 70
8
 71
3
 72
8
 73
4
 74
0
 40
0
 40
0
 40
0
 40
0
 40
1
 40
1
 40
1
 40
1
 10
356.175053
 20
427.642129
 30
0.0
 10
356.175053
 20
427.281732
 30
0.0
 10
356.031887
 20
426.936099
 30
0.0
 10
355.777066
 20
426.681260
 30
0.0
  0
SPLINE
  5
17b
100
AcDbEntity
  8
0
 62
7
100
AcDbSpline
 70
8
 71
3
 72
8
 73
4
 74
0
 40
0
 40
0
 40
0
 40
0
 40
1
 40
1
 40
1
 40
1
 10
354.816179
 20
429.001000
 30
0.0
 10
355.176594
 20
429.001000
 30
0.0
 10
355.522220
 20
428.857834
 30
0.0
 10
355.777066
 20
428.602995
 30
0.0
  0
SPLINE
  5
17c
100
AcDbEntity
  8
0
 62
7
100
AcDbSpline
 70
8
 71
3
 72
8
 73
4
 74
0
 40
0
 40
0
 40
0
 40
0
 40
1
 40
1
 40
1
 40
1
 10
181.145290
 20
499.693478
 30
0.0
 10
180.599201
 20
499.693478
 30
0.0
 10
180.075479
 20
499.910410
 30
0.0
 10
179.689336
 20
500.296553
 30
0.0
  0
SPLINE
  5
17d
100
AcDbEntity
  8
0
 62
7
100
AcDbSpline
 70
8
 71
3
 72
8
 73
4
 74
0
 40
0
 40
0
 40
0
 40
0
 40
1
 40
1
 40
1
 40
1
 10
149.589349
 20
503.208460
 30
0.0
 10
149.975492
 20
503.594600
 30
0.0
 10
150.499214
 20
503.811535
 30
0.0
 10
151.045301
 20
503.811535
 30
0.0
  0
SPLINE
  5
17e
100
AcDbEntity
  8
0
 62
7
100
AcDbSpline
 70
8
 71
3
 72
8
 73
4
 74
0
 40
0
 40
0
 40
0
 40
0
 40
1
 40
1
 40
1
 40
1
 10
152.501255
 20
503.208460
 30
0.0
 10
152.887399
 20
502.822316
 30
0.0
 10
153.104331
 20
502.298595
 30
0.0
 10
153.104331
 20
501.752505
 30
0.0
  0
SPLINE
  5
17f
100
AcDbEntity
  8
0
 62
7
100
AcDbSpline
 70
8
 71
3
 72
8
 73
4
 74
0
 40
0
 40
0
 40
0
 40
0
 40
1
 40
1
 40
1
 40
1
 10
353.855318
 20
428.602995
 30
0.0
 10
354.110165
 20
428.857834
 30
0.0
 10
354.455790
 20
429.001000
 30
0.0
 10
354.816179
 20
429.001000
 30
0.0
  0
SPLINE
  5
180
100
AcDbEntity
  8
0
 62
7
100
AcDbSpline
 70
8
 71
3
 72
8
 73
4
 74
0
 40
0
 40
0
 40
0
 40
0
 40
1
 40
1
 40
1
 40
1
 10
354.789932
 20
434.801005
 30
0.0
 10
355.150348
 20
434.801005
 30
0.0
 10
355.495973
 20
434.657839
 30
0.0
 10
355.750820
 20
434.403000
 30
0.0
  0
SPLINE
  5
181
100
AcDbEntity
  8
0
 62
7
100
AcDbSpline
 70
8
 71
3
 72
8
 73
4
 74
0
 40
0
 40
0
 40
0
 40
0
 40
1
 40
1
 40
1
 40
1
 10
182.601242
 20
503.208460
 30
0.0
 10
182.987386
 20
502.822316
 30
0.0
 10
183.204318
 20
502.298595
 30
0.0
 10
183.204318
 20
501.752505
 30
0.0
  0
SPLINE
  5
182
100
AcDbEntity
  8
0
 62
7
100
AcDbSpline
 70
8
 71
3
 72
8
 73
4
 74
0
 40
0
 40
0
 40
0
 40
0
 40
1
 40
1
 40
1
 40
1
 10
151.045301
 20
503.811535
 30
0.0
 10
151.591390
 20
503.811535
 30
0.0
 10
152.115112
 20
503.594600
 30
0.0
 10
152.501255
 20
503.208460
 30
0.0
  0
SPLINE
  5
183
100
AcDbEntity
  8
0
 62
7
100
AcDbSpline
 70
8
 71
3
 72
8
 73
4
 74
0
 40
0
 40
0
 40
0
 40
0
 40
1
 40
1
 40
1
 40
1
 10
353.457305
 20
427.642129
 30
0.0
 10
353.457305
 20
428.002523
 30
0.0
 10
353.600472
 20
428.348156
 30
0.0
 10
353.855318
 20
428.602995
 30
0.0
  0
SPLINE
  5
184
100
AcDbEntity
  8
0
 62
7
100
AcDbSpline
 70
8
 71
3
 72
8
 73
4
 74
0
 40
0
 40
0
 40
0
 40
0
 40
1
 40
1
 40
1
 40
1
 10
179.086260
 20
501.752505
 30
0.0
 10
179.086260
 20
502.298595
 30
0.0
 10
179.303192
 20
502.822316
 30
0.0
 10
179.689336
 20
503.208460
 30
0.0
  0
SPLINE
  5
185
100
AcDbEntity
  8
0
 62
7
100
AcDbSpline
 70
8
 71
3
 72
8
 73
4
 74
0
 40
0
 40
0
 40
0
 40
0
 40
1
 40
1
 40
1
 40
1
 10
359.789922
 20
440.179002
 30
0.0
 10
360.540413
 20
440.179002
 30
0.0
 10
361.148796
 20
439.570617
 30
0.0
 10
361.148796
 20
438.820134
 30
0.0
  0
SPLINE
  5
186
100
AcDbEntity
  8
0
 62
7
100
AcDbSpline
 70
8
 71
3
 72
8
 73
4
 74
0
 40
0
 40
0
 40
0
 40
0
 40
1
 40
1
 40
1
 40
1
 10
361.148796
 20
447.420124
 30
0.0
 10
361.148796
 20
447.059730
 30
0.0
 10
361.005630
 20
446.714094
 30
0.0
 10
360.750810
 20
446.459258
 30
0.0
  0
SPLINE
  5
187
100
AcDbEntity
  8
0
 62
7
100
AcDbSpline
 70
8
 71
3
 72
8
 73
4
 74
0
 40
0
 40
0
 40
0
 40
0
 40
1
 40
1
 40
1
 40
1
 10
358.829062
 20
446.459258
 30
0.0
 10
358.574215
 20
446.714094
 30
0.0
 10
358.431049
 20
447.059730
 30
0.0
 10
358.431049
 20
447.420124
 30
0.0
  0
SPLINE
  5
188
100
AcDbEntity
  8
0
 62
7
100
AcDbSpline
 70
8
 71
3
 72
8
 73
4
 74
0
 40
0
 40
0
 40
0
 40
0
 40
1
 40
1
 40
1
 40
1
 10
358.431049
 20
438.820134
 30
0.0
 10
358.431075
 20
439.570617
 30
0.0
 10
359.039458
 20
440.179002
 30
0.0
 10
359.789922
 20
440.179002
 30
0.0
  0
SPLINE
  5
189
100
AcDbEntity
  8
0
 62
7
100
AcDbSpline
 70
8
 71
3
 72
8
 73
4
 74
0
 40
0
 40
0
 40
0
 40
0
 40
1
 40
1
 40
1
 40
1
 10
359.789922
 20
446.061254
 30
0.0
 10
359.429533
 20
446.061254
 30
0.0
 10
359.083908
 20
446.204420
 30
0.0
 10
358.829062
 20
446.459258
 30
0.0
  0
SPLINE
  5
18a
100
AcDbEntity
  8
0
 62
7
100
AcDbSpline
 70
8
 71
3
 72
8
 73
4
 74
0
 40
0
 40
0
 40
0
 40
0
 40
1
 40
1
 40
1
 40
1
 10
360.750810
 20
446.459258
 30
0.0
 10
360.495963
 20
446.204420
 30
0.0
 10
360.150338
 20
446.061254
 30
0.0
 10
359.789922
 20
446.061254
 30
0.0
  0
SPLINE
  5
18b
100
AcDbEntity
  8
0
 62
7
100
AcDbSpline
 70
8
 71
3
 72
8
 73
4
 74
0
 40
0
 40
0
 40
0
 40
0
 40
1
 40
1
 40
1
 40
1
 10
358.431049
 20
447.420124
 30
0.0
 10
358.431049
 20
447.780521
 30
0.0
 10
358.574215
 20
448.126154
 30
0.0
 10
358.829062
 20
448.380993
 30
0.0
  0
SPLINE
  5
18c
100
AcDbEntity
  8
0
 62
7
100
AcDbSpline
 70
8
 71
3
 72
8
 73
4
 74
0
 40
0
 40
0
 40
0
 40
0
 40
1
 40
1
 40
1
 40
1
 10
358.829062
 20
448.380993
 30
0.0
 10
359.083908
 20
448.635829
 30
0.0
 10
359.429533
 20
448.778998
 30
0.0
 10
359.789922
 20
448.778995
 30
0.0
  0
SPLINE
  5
18d
100
AcDbEntity
  8
0
 62
7
100
AcDbSpline
 70
8
 71
3
 72
8
 73
4
 74
0
 40
0
 40
0
 40
0
 40
0
 40
1
 40
1
 40
1
 40
1
 10
360.750810
 20
448.380993
 30
0.0
 10
361.005630
 20
448.126154
 30
0.0
 10
361.148796
 20
447.780521
 30
0.0
 10
361.148796
 20
447.420124
 30
0.0
  0
SPLINE
  5
18e
100
AcDbEntity
  8
0
 62
7
100
AcDbSpline
 70
8
 71
3
 72
8
 73
4
 74
0
 40
0
 40
0
 40
0
 40
0
 40
1
 40
1
 40
1
 40
1
 10
275.836996
 20
426.681260
 30
0.0
 10
275.582175
 20
426.426421
 30
0.0
 10
275.236524
 20
426.283255
 30
0.0
 10
274.876135
 20
426.283255
 30
0.0
  0
SPLINE
  5
18f
100
AcDbEntity
  8
0
 62
7
100
AcDbSpline
 70
8
 71
3
 72
8
 73
4
 74
0
 40
0
 40
0
 40
0
 40
0
 40
1
 40
1
 40
1
 40
1
 10
276.235008
 20
427.642129
 30
0.0
 10
276.235008
 20
427.281732
 30
0.0
 10
276.091842
 20
426.936099
 30
0.0
 10
275.836996
 20
426.681260
 30
0.0
  0
SPLINE
  5
190
100
AcDbEntity
  8
0
 62
7
100
AcDbSpline
 70
8
 71
3
 72
8
 73
4
 74
0
 40
0
 40
0
 40
0
 40
0
 40
1
 40
1
 40
1
 40
1
 10
359.789922
 20
448.778995
 30
0.0
 10
360.150338
 20
448.778998
 30
0.0
 10
360.495963
 20
448.635829
 30
0.0
 10
360.750810
 20
448.380993
 30
0.0
  0
SPLINE
  5
191
100
AcDbEntity
  8
0
 62
7
100
AcDbSpline
 70
8
 71
3
 72
8
 73
4
 74
0
 40
0
 40
0
 40
0
 40
0
 40
1
 40
1
 40
1
 40
1
 10
274.876135
 20
426.283255
 30
0.0
 10
274.515746
 20
426.283255
 30
0.0
 10
274.170121
 20
426.426421
 30
0.0
 10
273.915274
 20
426.681260
 30
0.0
  0
SPLINE
  5
192
100
AcDbEntity
  8
0
 62
7
100
AcDbSpline
 70
8
 71
3
 72
8
 73
4
 74
0
 40
0
 40
0
 40
0
 40
0
 40
1
 40
1
 40
1
 40
1
 10
273.517261
 20
427.642129
 30
0.0
 10
273.517261
 20
428.002523
 30
0.0
 10
273.660427
 20
428.348156
 30
0.0
 10
273.915274
 20
428.602995
 30
0.0
  0
SPLINE
  5
193
100
AcDbEntity
  8
0
 62
7
100
AcDbSpline
 70
8
 71
3
 72
8
 73
4
 74
0
 40
0
 40
0
 40
0
 40
0
 40
1
 40
1
 40
1
 40
1
 10
273.915274
 20
426.681260
 30
0.0
 10
273.660427
 20
426.936099
 30
0.0
 10
273.517261
 20
427.281732
 30
0.0
 10
273.517261
 20
427.642129
 30
0.0
  0
SPLINE
  5
194
100
AcDbEntity
  8
0
 62
7
100
AcDbSpline
 70
8
 71
3
 72
8
 73
4
 74
0
 40
0
 40
0
 40
0
 40
0
 40
1
 40
1
 40
1
 40
1
 10
273.915274
 20
428.602995
 30
0.0
 10
274.170121
 20
428.857834
 30
0.0
 10
274.515746
 20
429.001000
 30
0.0
 10
274.876135
 20
429.001000
 30
0.0
  0
SPLINE
  5
195
100
AcDbEntity
  8
0
 62
7
100
AcDbSpline
 70
8
 71
3
 72
8
 73
4
 74
0
 40
0
 40
0
 40
0
 40
0
 40
1
 40
1
 40
1
 40
1
 10
274.876135
 20
429.001000
 30
0.0
 10
275.236524
 20
429.001000
 30
0.0
 10
275.582175
 20
428.857834
 30
0.0
 10
275.836996
 20
428.602995
 30
0.0
  0
SPLINE
  5
196
100
AcDbEntity
  8
0
 62
7
100
AcDbSpline
 70
8
 71
3
 72
8
 73
4
 74
0
 40
0
 40
0
 40
0
 40
0
 40
1
 40
1
 40
1
 40
1
 10
276.208788
 20
433.442131
 30
0.0
 10
276.208788
 20
432.691649
 30
0.0
 10
275.600405
 20
432.083260
 30
0.0
 10
274.849915
 20
432.083260
 30
0.0
  0
SPLINE
  5
197
100
AcDbEntity
  8
0
 62
7
100
AcDbSpline
 70
8
 71
3
 72
8
 73
4
 74
0
 40
0
 40
0
 40
0
 40
0
 40
1
 40
1
 40
1
 40
1
 10
273.491041
 20
433.442131
 30
0.0
 10
273.491041
 20
433.802528
 30
0.0
 10
273.634207
 20
434.148161
 30
0.0
 10
273.889054
 20
434.403000
 30
0.0
  0
SPLINE
  5
198
100
AcDbEntity
  8
0
 62
7
100
AcDbSpline
 70
8
 71
3
 72
8
 73
4
 74
0
 40
0
 40
0
 40
0
 40
0
 40
1
 40
1
 40
1
 40
1
 10
273.889054
 20
432.481265
 30
0.0
 10
273.634207
 20
432.736101
 30
0.0
 10
273.491041
 20
433.081737
 30
0.0
 10
273.491041
 20
433.442131
 30
0.0
  0
SPLINE
  5
199
100
AcDbEntity
  8
0
 62
7
100
AcDbSpline
 70
8
 71
3
 72
8
 73
4
 74
0
 40
0
 40
0
 40
0
 40
0
 40
1
 40
1
 40
1
 40
1
 10
273.889054
 20
434.403000
 30
0.0
 10
274.143900
 20
434.657839
 30
0.0
 10
274.489526
 20
434.801005
 30
0.0
 10
274.849915
 20
434.801005
 30
0.0
  0
SPLINE
  5
19a
100
AcDbEntity
  8
0
 62
7
100
AcDbSpline
 70
8
 71
3
 72
8
 73
4
 74
0
 40
0
 40
0
 40
0
 40
0
 40
1
 40
1
 40
1
 40
1
 10
183.203984
 20
32.752218
 30
0.0
 10
183.203981
 20
31.615094
 30
0.0
 10
182.282155
 20
30.693260
 30
0.0
 10
181.145028
 20
30.693260
 30
0.0
  0
SPLINE
  5
19b
100
AcDbEntity
  8
0
 62
7
100
AcDbSpline
 70
8
 71
3
 72
8
 73
4
 74
0
 40
0
 40
0
 40
0
 40
0
 40
1
 40
1
 40
1
 40
1
 10
274.849915
 20
434.801005
 30
0.0
 10
275.600405
 20
434.801005
 30
0.0
 10
276.208788
 20
434.192614
 30
0.0
 10
276.208788
 20
433.442131
 30
0.0
  0
SPLINE
  5
19c
100
AcDbEntity
  8
0
 62
7
100
AcDbSpline
 70
8
 71
3
 72
8
 73
4
 74
0
 40
0
 40
0
 40
0
 40
0
 40
1
 40
1
 40
1
 40
1
 10
237.585027
 20
34.761162
 30
0.0
 10
238.722156
 20
34.761162
 30
0.0
 10
239.643983
 20
33.839338
 30
0.0
 10
239.643988
 20
32.702209
 30
0.0
  0
SPLINE
  5
19d
100
AcDbEntity
  8
0
 62
7
100
AcDbSpline
 70
8
 71
3
 72
8
 73
4
 74
0
 40
0
 40
0
 40
0
 40
0
 40
1
 40
1
 40
1
 40
1
 10
275.836996
 20
428.602995
 30
0.0
 10
276.091842
 20
428.348156
 30
0.0
 10
276.235008
 20
428.002523
 30
0.0
 10
276.235008
 20
427.642129
 30
0.0
  0
SPLINE
  5
19e
100
AcDbEntity
  8
0
 62
7
100
AcDbSpline
 70
8
 71
3
 72
8
 73
4
 74
0
 40
0
 40
0
 40
0
 40
0
 40
1
 40
1
 40
1
 40
1
 10
274.849915
 20
432.083260
 30
0.0
 10
274.489526
 20
432.083260
 30
0.0
 10
274.143900
 20
432.226427
 30
0.0
 10
273.889054
 20
432.481265
 30
0.0
  0
SPLINE
  5
19f
100
AcDbEntity
  8
0
 62
7
100
AcDbSpline
 70
8
 71
3
 72
8
 73
4
 74
0
 40
0
 40
0
 40
0
 40
0
 40
1
 40
1
 40
1
 40
1
 10
179.689114
 20
34.208138
 30
0.0
 10
180.075247
 20
34.594271
 30
0.0
 10
180.598955
 20
34.811200
 30
0.0
 10
181.145028
 20
34.811200
 30
0.0
  0
SPLINE
  5
1a0
100
AcDbEntity
  8
0
 62
7
100
AcDbSpline
 70
8
 71
3
 72
8
 73
4
 74
0
 40
0
 40
0
 40
0
 40
0
 40
1
 40
1
 40
1
 40
1
 10
179.086067
 20
32.752218
 30
0.0
 10
179.086059
 20
33.298292
 30
0.0
 10
179.302983
 20
33.822003
 30
0.0
 10
179.689114
 20
34.208138
 30
0.0
  0
SPLINE
  5
1a1
100
AcDbEntity
  8
0
 62
7
100
AcDbSpline
 70
8
 71
3
 72
8
 73
4
 74
0
 40
0
 40
0
 40
0
 40
0
 40
1
 40
1
 40
1
 40
1
 10
153.103997
 20
32.752218
 30
0.0
 10
153.103995
 20
31.615094
 30
0.0
 10
152.182168
 20
30.693260
 30
0.0
 10
151.045036
 20
30.693260
 30
0.0
  0
SPLINE
  5
1a2
100
AcDbEntity
  8
0
 62
7
100
AcDbSpline
 70
8
 71
3
 72
8
 73
4
 74
0
 40
0
 40
0
 40
0
 40
0
 40
1
 40
1
 40
1
 40
1
 10
182.600938
 20
34.208135
 30
0.0
 10
182.987068
 20
33.822003
 30
0.0
 10
183.203989
 20
33.298292
 30
0.0
 10
183.203984
 20
32.752218
 30
0.0
  0
SPLINE
  5
1a3
100
AcDbEntity
  8
0
 62
7
100
AcDbSpline
 70
8
 71
3
 72
8
 73
4
 74
0
 40
0
 40
0
 40
0
 40
0
 40
1
 40
1
 40
1
 40
1
 10
181.145028
 20
34.811200
 30
0.0
 10
181.691102
 20
34.811200
 30
0.0
 10
182.214808
 20
34.594271
 30
0.0
 10
182.600938
 20
34.208135
 30
0.0
  0
SPLINE
  5
1a4
100
AcDbEntity
  8
0
 62
7
100
AcDbSpline
 70
8
 71
3
 72
8
 73
4
 74
0
 40
0
 40
0
 40
0
 40
0
 40
1
 40
1
 40
1
 40
1
 10
151.045036
 20
30.693260
 30
0.0
 10
149.907907
 20
30.693260
 30
0.0
 10
148.986083
 20
31.615094
 30
0.0
 10
148.986078
 20
32.752218
 30
0.0
  0
SPLINE
  5
1a5
100
AcDbEntity
  8
0
 62
7
100
AcDbSpline
 70
8
 71
3
 72
8
 73
4
 74
0
 40
0
 40
0
 40
0
 40
0
 40
1
 40
1
 40
1
 40
1
 10
181.145028
 20
30.693260
 30
0.0
 10
180.007897
 20
30.693260
 30
0.0
 10
179.086070
 20
31.615094
 30
0.0
 10
179.086067
 20
32.752218
 30
0.0
  0
LWPOLYLINE
  5
1a6
100
AcDbEntity
  8
0
 62
7
100
AcDbPolyline
 90
2
 70
0
 10
217.050961
 20
496.854306
 30
0.0
 10
217.050961
 20
486.854304
 30
0.0
  0
LWPOLYLINE
  5
1a7
100
AcDbEntity
  8
0
 62
7
100
AcDbPolyline
 90
2
 70
0
 10
0.132292
 20
24.991251
 30
0.0
 10
0.179606
 20
507.976733
 30
0.0
  0
SPLINE
  5
1a8
100
AcDbEntity
  8
0
 62
7
100
AcDbSpline
 70
8
 71
3
 72
8
 73
4
 74
0
 40
0
 40
0
 40
0
 40
0
 40
1
 40
1
 40
1
 40
1
 10
219.109964
 20
498.913611
 30
0.0
 10
220.247204
 20
498.913526
 30
0.0
 10
221.169047
 20
497.991546
 30
0.0
 10
221.168962
 20
496.854306
 30
0.0
  0
SPLINE
  5
1a9
100
AcDbEntity
  8
0
 62
7
100
AcDbSpline
 70
8
 71
3
 72
8
 73
4
 74
0
 40
0
 40
0
 40
0
 40
0
 40
1
 40
1
 40
1
 40
1
 10
182.601242
 20
500.296553
 30
0.0
 10
182.215099
 20
499.910410
 30
0.0
 10
181.691377
 20
499.693478
 30
0.0
 10
181.145290
 20
499.693478
 30
0.0
  0
SPLINE
  5
1aa
100
AcDbEntity
  8
0
 62
7
100
AcDbSpline
 70
8
 71
3
 72
8
 73
4
 74
0
 40
0
 40
0
 40
0
 40
0
 40
1
 40
1
 40
1
 40
1
 10
183.204318
 20
501.752505
 30
0.0
 10
183.204318
 20
501.206418
 30
0.0
 10
182.987386
 20
500.682697
 30
0.0
 10
182.601242
 20
500.296553
 30
0.0
  0
SPLINE
  5
1ab
100
AcDbEntity
  8
0
 62
7
100
AcDbSpline
 70
8
 71
3
 72
8
 73
4
 74
0
 40
0
 40
0
 40
0
 40
0
 40
1
 40
1
 40
1
 40
1
 10
112.681038
 20
376.002132
 30
0.0
 10
112.681038
 20
376.362526
 30
0.0
 10
112.824204
 20
376.708162
 30
0.0
 10
113.079042
 20
376.962998
 30
0.0
  0
SPLINE
  5
1ac
100
AcDbEntity
  8
0
 62
7
100
AcDbSpline
 70
8
 71
3
 72
8
 73
4
 74
0
 40
0
 40
0
 40
0
 40
0
 40
1
 40
1
 40
1
 40
1
 10
315.027053
 20
309.141261
 30
0.0
 10
314.772206
 20
308.886423
 30
0.0
 10
314.426581
 20
308.743257
 30
0.0
 10
314.066192
 20
308.743257
 30
0.0
  0
SPLINE
  5
1ad
100
AcDbEntity
  8
0
 62
7
100
AcDbSpline
 70
8
 71
3
 72
8
 73
4
 74
0
 40
0
 40
0
 40
0
 40
0
 40
1
 40
1
 40
1
 40
1
 10
114.039908
 20
374.643261
 30
0.0
 10
113.679514
 20
374.643261
 30
0.0
 10
113.333878
 20
374.786427
 30
0.0
 10
113.079042
 20
375.041263
 30
0.0
  0
SPLINE
  5
1ae
100
AcDbEntity
  8
0
 62
7
100
AcDbSpline
 70
8
 71
3
 72
8
 73
4
 74
0
 40
0
 40
0
 40
0
 40
0
 40
1
 40
1
 40
1
 40
1
 10
312.707318
 20
310.102129
 30
0.0
 10
312.707318
 20
310.462524
 30
0.0
 10
312.850484
 20
310.808159
 30
0.0
 10
313.105304
 20
311.062996
 30
0.0
  0
SPLINE
  5
1af
100
AcDbEntity
  8
0
 62
7
100
AcDbSpline
 70
8
 71
3
 72
8
 73
4
 74
0
 40
0
 40
0
 40
0
 40
0
 40
1
 40
1
 40
1
 40
1
 10
113.105257
 20
371.162996
 30
0.0
 10
113.360096
 20
371.417832
 30
0.0
 10
113.705729
 20
371.560998
 30
0.0
 10
114.066123
 20
371.560998
 30
0.0
  0
SPLINE
  5
1b0
100
AcDbEntity
  8
0
 62
7
100
AcDbSpline
 70
8
 71
3
 72
8
 73
4
 74
0
 40
0
 40
0
 40
0
 40
0
 40
1
 40
1
 40
1
 40
1
 10
213.079041
 20
376.962998
 30
0.0
 10
213.333880
 20
377.217837
 30
0.0
 10
213.679515
 20
377.361006
 30
0.0
 10
214.039910
 20
377.361006
 30
0.0
  0
SPLINE
  5
1b1
100
AcDbEntity
  8
0
 62
7
100
AcDbSpline
 70
8
 71
3
 72
8
 73
4
 74
0
 40
0
 40
0
 40
0
 40
0
 40
1
 40
1
 40
1
 40
1
 10
115.398779
 20
376.002132
 30
0.0
 10
115.398779
 20
375.251649
 30
0.0
 10
114.790394
 20
374.643261
 30
0.0
 10
114.039908
 20
374.643261
 30
0.0
  0
SPLINE
  5
1b2
100
AcDbEntity
  8
0
 62
7
100
AcDbSpline
 70
8
 71
3
 72
8
 73
4
 74
0
 40
0
 40
0
 40
0
 40
0
 40
1
 40
1
 40
1
 40
1
 10
313.105304
 20
311.062996
 30
0.0
 10
313.360151
 20
311.317834
 30
0.0
 10
313.705776
 20
311.461000
 30
0.0
 10
314.066192
 20
311.461000
 30
0.0
  0
SPLINE
  5
1b3
100
AcDbEntity
  8
0
 62
7
100
AcDbSpline
 70
8
 71
3
 72
8
 73
4
 74
0
 40
0
 40
0
 40
0
 40
0
 40
1
 40
1
 40
1
 40
1
 10
313.079058
 20
316.863002
 30
0.0
 10
313.333904
 20
317.117839
 30
0.0
 10
313.679530
 20
317.261006
 30
0.0
 10
314.039945
 20
317.261006
 30
0.0
  0
SPLINE
  5
1b4
100
AcDbEntity
  8
0
 62
7
100
AcDbSpline
 70
8
 71
3
 72
8
 73
4
 74
0
 40
0
 40
0
 40
0
 40
0
 40
1
 40
1
 40
1
 40
1
 10
261.885805
 20
393.969235
 30
0.0
 10
262.140644
 20
393.714396
 30
0.0
 10
262.283810
 20
393.368760
 30
0.0
 10
262.283810
 20
393.008366
 30
0.0
  0
SPLINE
  5
1b5
100
AcDbEntity
  8
0
 62
7
100
AcDbSpline
 70
8
 71
3
 72
8
 73
4
 74
0
 40
0
 40
0
 40
0
 40
0
 40
1
 40
1
 40
1
 40
1
 10
369.236950
 20
112.101255
 30
0.0
 10
368.486485
 20
112.101255
 30
0.0
 10
367.878103
 20
112.709624
 30
0.0
 10
367.878076
 20
113.460099
 30
0.0
  0
SPLINE
  5
1b6
100
AcDbEntity
  8
0
 62
7
100
AcDbSpline
 70
8
 71
3
 72
8
 73
4
 74
0
 40
0
 40
0
 40
0
 40
0
 40
1
 40
1
 40
1
 40
1
 10
365.213854
 20
118.486307
 30
0.0
 10
365.213854
 20
118.125912
 30
0.0
 10
365.070688
 20
117.780276
 30
0.0
 10
364.815842
 20
117.525438
 30
0.0
  0
SPLINE
  5
1b7
100
AcDbEntity
  8
0
 62
7
100
AcDbSpline
 70
8
 71
3
 72
8
 73
4
 74
0
 40
0
 40
0
 40
0
 40
0
 40
1
 40
1
 40
1
 40
1
 10
115.026992
 20
371.162996
 30
0.0
 10
115.281831
 20
370.908157
 30
0.0
 10
115.424997
 20
370.562521
 30
0.0
 10
115.424997
 20
370.202127
 30
0.0
  0
SPLINE
  5
1b8
100
AcDbEntity
  8
0
 62
7
100
AcDbSpline
 70
8
 71
3
 72
8
 73
4
 74
0
 40
0
 40
0
 40
0
 40
0
 40
1
 40
1
 40
1
 40
1
 10
314.066192
 20
308.743257
 30
0.0
 10
313.705776
 20
308.743257
 30
0.0
 10
313.360151
 20
308.886423
 30
0.0
 10
313.105304
 20
309.141261
 30
0.0
  0
SPLINE
  5
1b9
100
AcDbEntity
  8
0
 62
7
100
AcDbSpline
 70
8
 71
3
 72
8
 73
4
 74
0
 40
0
 40
0
 40
0
 40
0
 40
1
 40
1
 40
1
 40
1
 10
113.079042
 20
376.962998
 30
0.0
 10
113.333878
 20
377.217837
 30
0.0
 10
113.679514
 20
377.361006
 30
0.0
 10
114.039908
 20
377.361006
 30
0.0
  0
SPLINE
  5
1ba
100
AcDbEntity
  8
0
 62
7
100
AcDbSpline
 70
8
 71
3
 72
8
 73
4
 74
0
 40
0
 40
0
 40
0
 40
0
 40
1
 40
1
 40
1
 40
1
 10
261.885805
 20
392.047497
 30
0.0
 10
261.630966
 20
391.792661
 30
0.0
 10
261.285333
 20
391.649495
 30
0.0
 10
260.924936
 20
391.649495
 30
0.0
  0
SPLINE
  5
1bb
100
AcDbEntity
  8
0
 62
7
100
AcDbSpline
 70
8
 71
3
 72
8
 73
4
 74
0
 40
0
 40
0
 40
0
 40
0
 40
1
 40
1
 40
1
 40
1
 10
314.039945
 20
317.261006
 30
0.0
 10
314.400334
 20
317.261006
 30
0.0
 10
314.745959
 20
317.117839
 30
0.0
 10
315.000806
 20
316.863002
 30
0.0
  0
SPLINE
  5
1bc
100
AcDbEntity
  8
0
 62
7
100
AcDbSpline
 70
8
 71
3
 72
8
 73
4
 74
0
 40
0
 40
0
 40
0
 40
0
 40
1
 40
1
 40
1
 40
1
 10
315.027053
 20
311.062996
 30
0.0
 10
315.281873
 20
310.808159
 30
0.0
 10
315.425039
 20
310.462524
 30
0.0
 10
315.425039
 20
310.102129
 30
0.0
  0
SPLINE
  5
1bd
100
AcDbEntity
  8
0
 62
7
100
AcDbSpline
 70
8
 71
3
 72
8
 73
4
 74
0
 40
0
 40
0
 40
0
 40
0
 40
1
 40
1
 40
1
 40
1
 10
364.815842
 20
117.525438
 30
0.0
 10
364.560995
 20
117.270602
 30
0.0
 10
364.215370
 20
117.127436
 30
0.0
 10
363.854981
 20
117.127436
 30
0.0
  0
SPLINE
  5
1be
100
AcDbEntity
  8
0
 62
7
100
AcDbSpline
 70
8
 71
3
 72
8
 73
4
 74
0
 40
0
 40
0
 40
0
 40
0
 40
1
 40
1
 40
1
 40
1
 10
315.000806
 20
314.941266
 30
0.0
 10
314.745959
 20
314.686428
 30
0.0
 10
314.400334
 20
314.543262
 30
0.0
 10
314.039945
 20
314.543262
 30
0.0
  0
SPLINE
  5
1bf
100
AcDbEntity
  8
0
 62
7
100
AcDbSpline
 70
8
 71
3
 72
8
 73
4
 74
0
 40
0
 40
0
 40
0
 40
0
 40
1
 40
1
 40
1
 40
1
 10
214.039910
 20
377.361006
 30
0.0
 10
214.790392
 20
377.361003
 30
0.0
 10
215.398778
 20
376.752615
 30
0.0
 10
215.398778
 20
376.002132
 30
0.0
  0
SPLINE
  5
1c0
100
AcDbEntity
  8
0
 62
7
100
AcDbSpline
 70
8
 71
3
 72
8
 73
4
 74
0
 40
0
 40
0
 40
0
 40
0
 40
1
 40
1
 40
1
 40
1
 10
115.424997
 20
370.202127
 30
0.0
 10
115.424997
 20
369.841733
 30
0.0
 10
115.281831
 20
369.496097
 30
0.0
 10
115.026992
 20
369.241258
 30
0.0
  0
SPLINE
  5
1c1
100
AcDbEntity
  8
0
 62
7
100
AcDbSpline
 70
8
 71
3
 72
8
 73
4
 74
0
 40
0
 40
0
 40
0
 40
0
 40
1
 40
1
 40
1
 40
1
 10
114.039908
 20
377.361006
 30
0.0
 10
114.790394
 20
377.361003
 30
0.0
 10
115.398779
 20
376.752615
 30
0.0
 10
115.398779
 20
376.002132
 30
0.0
  0
SPLINE
  5
1c2
100
AcDbEntity
  8
0
 62
7
100
AcDbSpline
 70
8
 71
3
 72
8
 73
4
 74
0
 40
0
 40
0
 40
0
 40
0
 40
1
 40
1
 40
1
 40
1
 10
113.105257
 20
369.241258
 30
0.0
 10
112.850419
 20
369.496097
 30
0.0
 10
112.707253
 20
369.841733
 30
0.0
 10
112.707253
 20
370.202127
 30
0.0
  0
SPLINE
  5
1c3
100
AcDbEntity
  8
0
 62
7
100
AcDbSpline
 70
8
 71
3
 72
8
 73
4
 74
0
 40
0
 40
0
 40
0
 40
0
 40
1
 40
1
 40
1
 40
1
 10
113.079042
 20
375.041263
 30
0.0
 10
112.824204
 20
375.296102
 30
0.0
 10
112.681038
 20
375.641738
 30
0.0
 10
112.681038
 20
376.002132
 30
0.0
  0
SPLINE
  5
1c4
100
AcDbEntity
  8
0
 62
7
100
AcDbSpline
 70
8
 71
3
 72
8
 73
4
 74
0
 40
0
 40
0
 40
0
 40
0
 40
1
 40
1
 40
1
 40
1
 10
213.079041
 20
375.041263
 30
0.0
 10
212.824205
 20
375.296102
 30
0.0
 10
212.681039
 20
375.641738
 30
0.0
 10
212.681039
 20
376.002132
 30
0.0
  0
SPLINE
  5
1c5
100
AcDbEntity
  8
0
 62
7
100
AcDbSpline
 70
8
 71
3
 72
8
 73
4
 74
0
 40
0
 40
0
 40
0
 40
0
 40
1
 40
1
 40
1
 40
1
 10
315.425039
 20
310.102129
 30
0.0
 10
315.425039
 20
309.741733
 30
0.0
 10
315.281873
 20
309.396098
 30
0.0
 10
315.027053
 20
309.141261
 30
0.0
  0
SPLINE
  5
1c6
100
AcDbEntity
  8
0
 62
7
100
AcDbSpline
 70
8
 71
3
 72
8
 73
4
 74
0
 40
0
 40
0
 40
0
 40
0
 40
1
 40
1
 40
1
 40
1
 10
314.039945
 20
314.543262
 30
0.0
 10
313.679530
 20
314.543262
 30
0.0
 10
313.333904
 20
314.686428
 30
0.0
 10
313.079058
 20
314.941266
 30
0.0
  0
SPLINE
  5
1c7
100
AcDbEntity
  8
0
 62
7
100
AcDbSpline
 70
8
 71
3
 72
8
 73
4
 74
0
 40
0
 40
0
 40
0
 40
0
 40
1
 40
1
 40
1
 40
1
 10
262.283810
 20
393.008366
 30
0.0
 10
262.283810
 20
392.647972
 30
0.0
 10
262.140644
 20
392.302336
 30
0.0
 10
261.885805
 20
392.047497
 30
0.0
  0
SPLINE
  5
1c8
100
AcDbEntity
  8
0
 62
7
100
AcDbSpline
 70
8
 71
3
 72
8
 73
4
 74
0
 40
0
 40
0
 40
0
 40
0
 40
1
 40
1
 40
1
 40
1
 10
363.854981
 20
119.845177
 30
0.0
 10
364.215370
 20
119.845177
 30
0.0
 10
364.560995
 20
119.702011
 30
0.0
 10
364.815842
 20
119.447175
 30
0.0
  0
SPLINE
  5
1c9
100
AcDbEntity
  8
0
 62
7
100
AcDbSpline
 70
8
 71
3
 72
8
 73
4
 74
0
 40
0
 40
0
 40
0
 40
0
 40
1
 40
1
 40
1
 40
1
 10
115.026992
 20
369.241258
 30
0.0
 10
114.772153
 20
368.986422
 30
0.0
 10
114.426520
 20
368.843253
 30
0.0
 10
114.066123
 20
368.843256
 30
0.0
  0
SPLINE
  5
1ca
100
AcDbEntity
  8
0
 62
7
100
AcDbSpline
 70
8
 71
3
 72
8
 73
4
 74
0
 40
0
 40
0
 40
0
 40
0
 40
1
 40
1
 40
1
 40
1
 10
114.066123
 20
368.843256
 30
0.0
 10
113.705729
 20
368.843253
 30
0.0
 10
113.360096
 20
368.986422
 30
0.0
 10
113.105257
 20
369.241258
 30
0.0
  0
SPLINE
  5
1cb
100
AcDbEntity
  8
0
 62
7
100
AcDbSpline
 70
8
 71
3
 72
8
 73
4
 74
0
 40
0
 40
0
 40
0
 40
0
 40
1
 40
1
 40
1
 40
1
 10
315.398792
 20
315.902134
 30
0.0
 10
315.398792
 20
315.541739
 30
0.0
 10
315.255626
 20
315.196105
 30
0.0
 10
315.000806
 20
314.941266
 30
0.0
  0
SPLINE
  5
1cc
100
AcDbEntity
  8
0
 62
7
100
AcDbSpline
 70
8
 71
3
 72
8
 73
4
 74
0
 40
0
 40
0
 40
0
 40
0
 40
1
 40
1
 40
1
 40
1
 10
313.079058
 20
314.941266
 30
0.0
 10
312.824238
 20
315.196105
 30
0.0
 10
312.681072
 20
315.541739
 30
0.0
 10
312.681072
 20
315.902134
 30
0.0
  0
SPLINE
  5
1cd
100
AcDbEntity
  8
0
 62
7
100
AcDbSpline
 70
8
 71
3
 72
8
 73
4
 74
0
 40
0
 40
0
 40
0
 40
0
 40
1
 40
1
 40
1
 40
1
 10
112.707253
 20
370.202127
 30
0.0
 10
112.707253
 20
370.562521
 30
0.0
 10
112.850419
 20
370.908157
 30
0.0
 10
113.105257
 20
371.162996
 30
0.0
  0
SPLINE
  5
1ce
100
AcDbEntity
  8
0
 62
7
100
AcDbSpline
 70
8
 71
3
 72
8
 73
4
 74
0
 40
0
 40
0
 40
0
 40
0
 40
1
 40
1
 40
1
 40
1
 10
314.066192
 20
311.461000
 30
0.0
 10
314.426581
 20
311.461000
 30
0.0
 10
314.772206
 20
311.317834
 30
0.0
 10
315.027053
 20
311.062996
 30
0.0
  0
SPLINE
  5
1cf
100
AcDbEntity
  8
0
 62
7
100
AcDbSpline
 70
8
 71
3
 72
8
 73
4
 74
0
 40
0
 40
0
 40
0
 40
0
 40
1
 40
1
 40
1
 40
1
 10
212.681039
 20
376.002132
 30
0.0
 10
212.681039
 20
376.362526
 30
0.0
 10
212.824205
 20
376.708162
 30
0.0
 10
213.079041
 20
376.962998
 30
0.0
  0
SPLINE
  5
1d0
100
AcDbEntity
  8
0
 62
7
100
AcDbSpline
 70
8
 71
3
 72
8
 73
4
 74
0
 40
0
 40
0
 40
0
 40
0
 40
1
 40
1
 40
1
 40
1
 10
114.066123
 20
371.560998
 30
0.0
 10
114.426520
 20
371.560998
 30
0.0
 10
114.772153
 20
371.417832
 30
0.0
 10
115.026992
 20
371.162996
 30
0.0
  0
SPLINE
  5
1d1
100
AcDbEntity
  8
0
 62
7
100
AcDbSpline
 70
8
 71
3
 72
8
 73
4
 74
0
 40
0
 40
0
 40
0
 40
0
 40
1
 40
1
 40
1
 40
1
 10
313.105304
 20
309.141261
 30
0.0
 10
312.850484
 20
309.396098
 30
0.0
 10
312.707318
 20
309.741733
 30
0.0
 10
312.707318
 20
310.102129
 30
0.0
  0
SPLINE
  5
1d2
100
AcDbEntity
  8
0
 62
7
100
AcDbSpline
 70
8
 71
3
 72
8
 73
4
 74
0
 40
0
 40
0
 40
0
 40
0
 40
1
 40
1
 40
1
 40
1
 10
364.815842
 20
119.447175
 30
0.0
 10
365.070688
 20
119.192337
 30
0.0
 10
365.213854
 20
118.846701
 30
0.0
 10
365.213854
 20
118.486307
 30
0.0
  0
SPLINE
  5
1d3
100
AcDbEntity
  8
0
 62
7
100
AcDbSpline
 70
8
 71
3
 72
8
 73
4
 74
0
 40
0
 40
0
 40
0
 40
0
 40
1
 40
1
 40
1
 40
1
 10
312.681072
 20
315.902134
 30
0.0
 10
312.681072
 20
316.262529
 30
0.0
 10
312.824238
 20
316.608164
 30
0.0
 10
313.079058
 20
316.863002
 30
0.0
  0
SPLINE
  5
1d4
100
AcDbEntity
  8
0
 62
7
100
AcDbSpline
 70
8
 71
3
 72
8
 73
4
 74
0
 40
0
 40
0
 40
0
 40
0
 40
1
 40
1
 40
1
 40
1
 10
259.964070
 20
392.047497
 30
0.0
 10
259.709231
 20
392.302336
 30
0.0
 10
259.566065
 20
392.647972
 30
0.0
 10
259.566065
 20
393.008366
 30
0.0
  0
SPLINE
  5
1d5
100
AcDbEntity
  8
0
 62
7
100
AcDbSpline
 70
8
 71
3
 72
8
 73
4
 74
0
 40
0
 40
0
 40
0
 40
0
 40
1
 40
1
 40
1
 40
1
 10
260.924936
 20
391.649495
 30
0.0
 10
260.564542
 20
391.649495
 30
0.0
 10
260.218909
 20
391.792661
 30
0.0
 10
259.964070
 20
392.047497
 30
0.0
  0
SPLINE
  5
1d6
100
AcDbEntity
  8
0
 62
7
100
AcDbSpline
 70
8
 71
3
 72
8
 73
4
 74
0
 40
0
 40
0
 40
0
 40
0
 40
1
 40
1
 40
1
 40
1
 10
315.000806
 20
316.863002
 30
0.0
 10
315.255626
 20
316.608164
 30
0.0
 10
315.398792
 20
316.262529
 30
0.0
 10
315.398792
 20
315.902134
 30
0.0
  0
SPLINE
  5
1d7
100
AcDbEntity
  8
0
 62
7
100
AcDbSpline
 70
8
 71
3
 72
8
 73
4
 74
0
 40
0
 40
0
 40
0
 40
0
 40
1
 40
1
 40
1
 40
1
 10
214.066175
 20
308.743257
 30
0.0
 10
213.315679
 20
308.743258
 30
0.0
 10
212.707283
 20
309.351646
 30
0.0
 10
212.707285
 20
310.102129
 30
0.0
  0
SPLINE
  5
1d8
100
AcDbEntity
  8
0
 62
7
100
AcDbSpline
 70
8
 71
3
 72
8
 73
4
 74
0
 40
0
 40
0
 40
0
 40
0
 40
1
 40
1
 40
1
 40
1
 10
215.027054
 20
311.062996
 30
0.0
 10
215.281895
 20
310.808159
 30
0.0
 10
215.425064
 20
310.462524
 30
0.0
 10
215.425064
 20
310.102129
 30
0.0
  0
SPLINE
  5
1d9
100
AcDbEntity
  8
0
 62
7
100
AcDbSpline
 70
8
 71
3
 72
8
 73
4
 74
0
 40
0
 40
0
 40
0
 40
0
 40
1
 40
1
 40
1
 40
1
 10
215.398847
 20
315.902131
 30
0.0
 10
215.398847
 20
315.151647
 30
0.0
 10
214.790450
 20
314.543261
 30
0.0
 10
214.039957
 20
314.543260
 30
0.0
  0
SPLINE
  5
1da
100
AcDbEntity
  8
0
 62
7
100
AcDbSpline
 70
8
 71
3
 72
8
 73
4
 74
0
 40
0
 40
0
 40
0
 40
0
 40
1
 40
1
 40
1
 40
1
 10
213.079075
 20
314.941263
 30
0.0
 10
212.824234
 20
315.196101
 30
0.0
 10
212.681065
 20
315.541736
 30
0.0
 10
212.681065
 20
315.902131
 30
0.0
  0
SPLINE
  5
1db
100
AcDbEntity
  8
0
 62
7
100
AcDbSpline
 70
8
 71
3
 72
8
 73
4
 74
0
 40
0
 40
0
 40
0
 40
0
 40
1
 40
1
 40
1
 40
1
 10
212.681065
 20
315.902131
 30
0.0
 10
212.681065
 20
316.262527
 30
0.0
 10
212.824234
 20
316.608160
 30
0.0
 10
213.079075
 20
316.862998
 30
0.0
  0
SPLINE
  5
1dc
100
AcDbEntity
  8
0
 62
7
100
AcDbSpline
 70
8
 71
3
 72
8
 73
4
 74
0
 40
0
 40
0
 40
0
 40
0
 40
1
 40
1
 40
1
 40
1
 10
213.079075
 20
316.862998
 30
0.0
 10
213.333917
 20
317.117837
 30
0.0
 10
213.679558
 20
317.261003
 30
0.0
 10
214.039957
 20
317.261003
 30
0.0
  0
SPLINE
  5
1dd
100
AcDbEntity
  8
0
 62
7
100
AcDbSpline
 70
8
 71
3
 72
8
 73
4
 74
0
 40
0
 40
0
 40
0
 40
0
 40
1
 40
1
 40
1
 40
1
 10
358.054970
 20
119.818931
 30
0.0
 10
358.415359
 20
119.818931
 30
0.0
 10
358.761011
 20
119.675765
 30
0.0
 10
359.015831
 20
119.420929
 30
0.0
  0
SPLINE
  5
1de
100
AcDbEntity
  8
0
 62
7
100
AcDbSpline
 70
8
 71
3
 72
8
 73
4
 74
0
 40
0
 40
0
 40
0
 40
0
 40
1
 40
1
 40
1
 40
1
 10
362.894120
 20
119.447175
 30
0.0
 10
363.148940
 20
119.702011
 30
0.0
 10
363.494592
 20
119.845177
 30
0.0
 10
363.854981
 20
119.845177
 30
0.0
  0
SPLINE
  5
1df
100
AcDbEntity
  8
0
 62
7
100
AcDbSpline
 70
8
 71
3
 72
8
 73
4
 74
0
 40
0
 40
0
 40
0
 40
0
 40
1
 40
1
 40
1
 40
1
 10
212.707285
 20
310.102129
 30
0.0
 10
212.707283
 20
310.852611
 30
0.0
 10
213.315679
 20
311.460999
 30
0.0
 10
214.066175
 20
311.461000
 30
0.0
  0
SPLINE
  5
1e0
100
AcDbEntity
  8
0
 62
7
100
AcDbSpline
 70
8
 71
3
 72
8
 73
4
 74
0
 40
0
 40
0
 40
0
 40
0
 40
1
 40
1
 40
1
 40
1
 10
215.425064
 20
310.102129
 30
0.0
 10
215.425064
 20
309.741733
 30
0.0
 10
215.281895
 20
309.396098
 30
0.0
 10
215.027054
 20
309.141261
 30
0.0
  0
SPLINE
  5
1e1
100
AcDbEntity
  8
0
 62
7
100
AcDbSpline
 70
8
 71
3
 72
8
 73
4
 74
0
 40
0
 40
0
 40
0
 40
0
 40
1
 40
1
 40
1
 40
1
 10
214.066175
 20
311.461000
 30
0.0
 10
214.426574
 20
311.461000
 30
0.0
 10
214.772213
 20
311.317834
 30
0.0
 10
215.027054
 20
311.062996
 30
0.0
  0
SPLINE
  5
1e2
100
AcDbEntity
  8
0
 62
7
100
AcDbSpline
 70
8
 71
3
 72
8
 73
4
 74
0
 40
0
 40
0
 40
0
 40
0
 40
1
 40
1
 40
1
 40
1
 10
215.027054
 20
309.141261
 30
0.0
 10
214.772213
 20
308.886423
 30
0.0
 10
214.426574
 20
308.743257
 30
0.0
 10
214.066175
 20
308.743257
 30
0.0
  0
SPLINE
  5
1e3
100
AcDbEntity
  8
0
 62
7
100
AcDbSpline
 70
8
 71
3
 72
8
 73
4
 74
0
 40
0
 40
0
 40
0
 40
0
 40
1
 40
1
 40
1
 40
1
 10
214.039957
 20
314.543260
 30
0.0
 10
213.679558
 20
314.543258
 30
0.0
 10
213.333917
 20
314.686426
 30
0.0
 10
213.079075
 20
314.941263
 30
0.0
  0
SPLINE
  5
1e4
100
AcDbEntity
  8
0
 62
7
100
AcDbSpline
 70
8
 71
3
 72
8
 73
4
 74
0
 40
0
 40
0
 40
0
 40
0
 40
1
 40
1
 40
1
 40
1
 10
214.039957
 20
317.261003
 30
0.0
 10
214.790450
 20
317.261003
 30
0.0
 10
215.398847
 20
316.652614
 30
0.0
 10
215.398847
 20
315.902131
 30
0.0
  0
SPLINE
  5
1e5
100
AcDbEntity
  8
0
 62
7
100
AcDbSpline
 70
8
 71
3
 72
8
 73
4
 74
0
 40
0
 40
0
 40
0
 40
0
 40
1
 40
1
 40
1
 40
1
 10
115.027082
 20
309.141261
 30
0.0
 10
114.772241
 20
308.886423
 30
0.0
 10
114.426602
 20
308.743257
 30
0.0
 10
114.066200
 20
308.743257
 30
0.0
  0
SPLINE
  5
1e6
100
AcDbEntity
  8
0
 62
7
100
AcDbSpline
 70
8
 71
3
 72
8
 73
4
 74
0
 40
0
 40
0
 40
0
 40
0
 40
1
 40
1
 40
1
 40
1
 10
115.425092
 20
310.102129
 30
0.0
 10
115.425092
 20
309.741733
 30
0.0
 10
115.281924
 20
309.396098
 30
0.0
 10
115.027082
 20
309.141261
 30
0.0
  0
SPLINE
  5
1e7
100
AcDbEntity
  8
0
 62
7
100
AcDbSpline
 70
8
 71
3
 72
8
 73
4
 74
0
 40
0
 40
0
 40
0
 40
0
 40
1
 40
1
 40
1
 40
1
 10
114.066200
 20
311.461000
 30
0.0
 10
114.426602
 20
311.461000
 30
0.0
 10
114.772241
 20
311.317834
 30
0.0
 10
115.027082
 20
311.062996
 30
0.0
  0
SPLINE
  5
1e8
100
AcDbEntity
  8
0
 62
7
100
AcDbSpline
 70
8
 71
3
 72
8
 73
4
 74
0
 40
0
 40
0
 40
0
 40
0
 40
1
 40
1
 40
1
 40
1
 10
114.066200
 20
308.743257
 30
0.0
 10
113.315707
 20
308.743258
 30
0.0
 10
112.707311
 20
309.351646
 30
0.0
 10
112.707313
 20
310.102129
 30
0.0
  0
SPLINE
  5
1e9
100
AcDbEntity
  8
0
 62
7
100
AcDbSpline
 70
8
 71
3
 72
8
 73
4
 74
0
 40
0
 40
0
 40
0
 40
0
 40
1
 40
1
 40
1
 40
1
 10
112.707313
 20
310.102129
 30
0.0
 10
112.707311
 20
310.852611
 30
0.0
 10
113.315707
 20
311.460999
 30
0.0
 10
114.066200
 20
311.461000
 30
0.0
  0
SPLINE
  5
1ea
100
AcDbEntity
  8
0
 62
7
100
AcDbSpline
 70
8
 71
3
 72
8
 73
4
 74
0
 40
0
 40
0
 40
0
 40
0
 40
1
 40
1
 40
1
 40
1
 10
115.027082
 20
311.062996
 30
0.0
 10
115.281924
 20
310.808159
 30
0.0
 10
115.425092
 20
310.462524
 30
0.0
 10
115.425092
 20
310.102129
 30
0.0
  0
SPLINE
  5
1eb
100
AcDbEntity
  8
0
 62
7
100
AcDbSpline
 70
8
 71
3
 72
8
 73
4
 74
0
 40
0
 40
0
 40
0
 40
0
 40
1
 40
1
 40
1
 40
1
 10
113.079103
 20
314.941263
 30
0.0
 10
112.824262
 20
315.196101
 30
0.0
 10
112.681093
 20
315.541736
 30
0.0
 10
112.681093
 20
315.902131
 30
0.0
  0
SPLINE
  5
1ec
100
AcDbEntity
  8
0
 62
7
100
AcDbSpline
 70
8
 71
3
 72
8
 73
4
 74
0
 40
0
 40
0
 40
0
 40
0
 40
1
 40
1
 40
1
 40
1
 10
115.398875
 20
315.902131
 30
0.0
 10
115.398875
 20
315.151647
 30
0.0
 10
114.790478
 20
314.543261
 30
0.0
 10
114.039985
 20
314.543260
 30
0.0
  0
SPLINE
  5
1ed
100
AcDbEntity
  8
0
 62
7
100
AcDbSpline
 70
8
 71
3
 72
8
 73
4
 74
0
 40
0
 40
0
 40
0
 40
0
 40
1
 40
1
 40
1
 40
1
 10
112.681093
 20
315.902131
 30
0.0
 10
112.681093
 20
316.262527
 30
0.0
 10
112.824262
 20
316.608160
 30
0.0
 10
113.079103
 20
316.862998
 30
0.0
  0
SPLINE
  5
1ee
100
AcDbEntity
  8
0
 62
7
100
AcDbSpline
 70
8
 71
3
 72
8
 73
4
 74
0
 40
0
 40
0
 40
0
 40
0
 40
1
 40
1
 40
1
 40
1
 10
114.039985
 20
314.543260
 30
0.0
 10
113.679586
 20
314.543258
 30
0.0
 10
113.333945
 20
314.686426
 30
0.0
 10
113.079103
 20
314.941263
 30
0.0
  0
SPLINE
  5
1ef
100
AcDbEntity
  8
0
 62
7
100
AcDbSpline
 70
8
 71
3
 72
8
 73
4
 74
0
 40
0
 40
0
 40
0
 40
0
 40
1
 40
1
 40
1
 40
1
 10
375.036960
 20
114.845217
 30
0.0
 10
375.397349
 20
114.845217
 30
0.0
 10
375.743001
 20
114.702050
 30
0.0
 10
375.997821
 20
114.447212
 30
0.0
  0
SPLINE
  5
1f0
100
AcDbEntity
  8
0
 62
7
100
AcDbSpline
 70
8
 71
3
 72
8
 73
4
 74
0
 40
0
 40
0
 40
0
 40
0
 40
1
 40
1
 40
1
 40
1
 10
376.395834
 20
113.486346
 30
0.0
 10
376.395834
 20
113.125949
 30
0.0
 10
376.252668
 20
112.780316
 30
0.0
 10
375.997821
 20
112.525477
 30
0.0
  0
SPLINE
  5
1f1
100
AcDbEntity
  8
0
 62
7
100
AcDbSpline
 70
8
 71
3
 72
8
 73
4
 74
0
 40
0
 40
0
 40
0
 40
0
 40
1
 40
1
 40
1
 40
1
 10
375.997821
 20
114.447212
 30
0.0
 10
376.252668
 20
114.192376
 30
0.0
 10
376.395834
 20
113.846740
 30
0.0
 10
376.395834
 20
113.486346
 30
0.0
  0
SPLINE
  5
1f2
100
AcDbEntity
  8
0
 62
7
100
AcDbSpline
 70
8
 71
3
 72
8
 73
4
 74
0
 40
0
 40
0
 40
0
 40
0
 40
1
 40
1
 40
1
 40
1
 10
375.997821
 20
112.525477
 30
0.0
 10
375.743001
 20
112.270638
 30
0.0
 10
375.397349
 20
112.127472
 30
0.0
 10
375.036960
 20
112.127475
 30
0.0
  0
SPLINE
  5
1f3
100
AcDbEntity
  8
0
 62
7
100
AcDbSpline
 70
8
 71
3
 72
8
 73
4
 74
0
 40
0
 40
0
 40
0
 40
0
 40
1
 40
1
 40
1
 40
1
 10
375.036960
 20
112.127475
 30
0.0
 10
374.676571
 20
112.127472
 30
0.0
 10
374.330920
 20
112.270638
 30
0.0
 10
374.076099
 20
112.525477
 30
0.0
  0
SPLINE
  5
1f4
100
AcDbEntity
  8
0
 62
7
100
AcDbSpline
 70
8
 71
3
 72
8
 73
4
 74
0
 40
0
 40
0
 40
0
 40
0
 40
1
 40
1
 40
1
 40
1
 10
322.104313
 20
421.135474
 30
0.0
 10
322.104313
 20
419.998311
 30
0.0
 10
321.182478
 20
419.076458
 30
0.0
 10
320.045299
 20
419.076444
 30
0.0
  0
SPLINE
  5
1f5
100
AcDbEntity
  8
0
 62
7
100
AcDbSpline
 70
8
 71
3
 72
8
 73
4
 74
0
 40
0
 40
0
 40
0
 40
0
 40
1
 40
1
 40
1
 40
1
 10
374.076099
 20
112.525477
 30
0.0
 10
373.821253
 20
112.780316
 30
0.0
 10
373.678087
 20
113.125949
 30
0.0
 10
373.678087
 20
113.486346
 30
0.0
  0
SPLINE
  5
1f6
100
AcDbEntity
  8
0
 62
7
100
AcDbSpline
 70
8
 71
3
 72
8
 73
4
 74
0
 40
0
 40
0
 40
0
 40
0
 40
1
 40
1
 40
1
 40
1
 10
23.889402
 20
6.057588
 30
0.0
 10
23.587668
 20
6.359319
 30
0.0
 10
23.418158
 20
6.768550
 30
0.0
 10
23.418162
 20
7.195270
 30
0.0
  0
SPLINE
  5
1f7
100
AcDbEntity
  8
0
 62
7
100
AcDbSpline
 70
8
 71
3
 72
8
 73
4
 74
0
 40
0
 40
0
 40
0
 40
0
 40
1
 40
1
 40
1
 40
1
 10
351.601253
 20
422.591431
 30
0.0
 10
351.987413
 20
422.205288
 30
0.0
 10
352.204345
 20
421.681564
 30
0.0
 10
352.204345
 20
421.135474
 30
0.0
  0
SPLINE
  5
1f8
100
AcDbEntity
  8
0
 62
7
100
AcDbSpline
 70
8
 71
3
 72
8
 73
4
 74
0
 40
0
 40
0
 40
0
 40
0
 40
1
 40
1
 40
1
 40
1
 10
25.027094
 20
8.804201
 30
0.0
 10
25.915678
 20
8.804201
 30
0.0
 10
26.636021
 20
8.083847
 30
0.0
 10
26.636027
 20
7.195270
 30
0.0
  0
SPLINE
  5
1f9
100
AcDbEntity
  8
0
 62
7
100
AcDbSpline
 70
8
 71
3
 72
8
 73
4
 74
0
 40
0
 40
0
 40
0
 40
0
 40
1
 40
1
 40
1
 40
1
 10
7.042094
 20
26.811319
 30
0.0
 10
7.930678
 20
26.811319
 30
0.0
 10
8.651020
 20
26.090991
 30
0.0
 10
8.651026
 20
25.202415
 30
0.0
  0
SPLINE
  5
1fa
100
AcDbEntity
  8
0
 62
7
100
AcDbSpline
 70
8
 71
3
 72
8
 73
4
 74
0
 40
0
 40
0
 40
0
 40
0
 40
1
 40
1
 40
1
 40
1
 10
527.416111
 20
26.700221
 30
0.0
 10
528.304688
 20
26.700221
 30
0.0
 10
529.025016
 20
25.979866
 30
0.0
 10
529.025016
 20
25.091290
 30
0.0
  0
SPLINE
  5
1fb
100
AcDbEntity
  8
0
 62
7
100
AcDbSpline
 70
8
 71
3
 72
8
 73
4
 74
0
 40
0
 40
0
 40
0
 40
0
 40
1
 40
1
 40
1
 40
1
 10
114.039985
 20
317.261003
 30
0.0
 10
114.790478
 20
317.261003
 30
0.0
 10
115.398875
 20
316.652614
 30
0.0
 10
115.398875
 20
315.902131
 30
0.0
  0
SPLINE
  5
1fc
100
AcDbEntity
  8
0
 62
7
100
AcDbSpline
 70
8
 71
3
 72
8
 73
4
 74
0
 40
0
 40
0
 40
0
 40
0
 40
1
 40
1
 40
1
 40
1
 10
113.079103
 20
316.862998
 30
0.0
 10
113.333945
 20
317.117837
 30
0.0
 10
113.679586
 20
317.261003
 30
0.0
 10
114.039985
 20
317.261003
 30
0.0
  0
SPLINE
  5
1fd
100
AcDbEntity
  8
0
 62
7
100
AcDbSpline
 70
8
 71
3
 72
8
 73
4
 74
0
 40
0
 40
0
 40
0
 40
0
 40
1
 40
1
 40
1
 40
1
 10
350.145304
 20
419.076444
 30
0.0
 10
349.008125
 20
419.076458
 30
0.0
 10
348.086290
 20
419.998311
 30
0.0
 10
348.086290
 20
421.135474
 30
0.0
  0
SPLINE
  5
1fe
100
AcDbEntity
  8
0
 62
7
100
AcDbSpline
 70
8
 71
3
 72
8
 73
4
 74
0
 40
0
 40
0
 40
0
 40
0
 40
1
 40
1
 40
1
 40
1
 10
320.045299
 20
423.194501
 30
0.0
 10
321.182478
 20
423.194491
 30
0.0
 10
322.104313
 20
422.272637
 30
0.0
 10
322.104313
 20
421.135474
 30
0.0
  0
SPLINE
  5
1ff
100
AcDbEntity
  8
0
 62
7
100
AcDbSpline
 70
8
 71
3
 72
8
 73
4
 74
0
 40
0
 40
0
 40
0
 40
0
 40
1
 40
1
 40
1
 40
1
 10
528.553793
 20
23.953608
 30
0.0
 10
528.252062
 20
23.651877
 30
0.0
 10
527.842805
 20
23.482358
 30
0.0
 10
527.416111
 20
23.482358
 30
0.0
  0
SPLINE
  5
200
100
AcDbEntity
  8
0
 62
7
100
AcDbSpline
 70
8
 71
3
 72
8
 73
4
 74
0
 40
0
 40
0
 40
0
 40
0
 40
1
 40
1
 40
1
 40
1
 10
350.145304
 20
423.194501
 30
0.0
 10
350.691378
 20
423.194504
 30
0.0
 10
351.215120
 20
422.977572
 30
0.0
 10
351.601253
 20
422.591431
 30
0.0
  0
SPLINE
  5
201
100
AcDbEntity
  8
0
 62
7
100
AcDbSpline
 70
8
 71
3
 72
8
 73
4
 74
0
 40
0
 40
0
 40
0
 40
0
 40
1
 40
1
 40
1
 40
1
 10
348.086290
 20
421.135474
 30
0.0
 10
348.086290
 20
422.272637
 30
0.0
 10
349.008125
 20
423.194491
 30
0.0
 10
350.145304
 20
423.194501
 30
0.0
  0
SPLINE
  5
202
100
AcDbEntity
  8
0
 62
7
100
AcDbSpline
 70
8
 71
3
 72
8
 73
4
 74
0
 40
0
 40
0
 40
0
 40
0
 40
1
 40
1
 40
1
 40
1
 10
529.025016
 20
25.091290
 30
0.0
 10
529.025016
 20
24.664570
 30
0.0
 10
528.855524
 20
24.255339
 30
0.0
 10
528.553793
 20
23.953608
 30
0.0
  0
SPLINE
  5
203
100
AcDbEntity
  8
0
 62
7
100
AcDbSpline
 70
8
 71
3
 72
8
 73
4
 74
0
 40
0
 40
0
 40
0
 40
0
 40
1
 40
1
 40
1
 40
1
 10
526.278403
 20
23.953581
 30
0.0
 10
525.976672
 20
24.255339
 30
0.0
 10
525.807153
 20
24.664570
 30
0.0
 10
525.807153
 20
25.091290
 30
0.0
  0
SPLINE
  5
204
100
AcDbEntity
  8
0
 62
7
100
AcDbSpline
 70
8
 71
3
 72
8
 73
4
 74
0
 40
0
 40
0
 40
0
 40
0
 40
1
 40
1
 40
1
 40
1
 10
317.986285
 20
421.135474
 30
0.0
 10
317.986285
 20
421.681564
 30
0.0
 10
318.203217
 20
422.205288
 30
0.0
 10
318.589350
 20
422.591431
 30
0.0
  0
SPLINE
  5
205
100
AcDbEntity
  8
0
 62
7
100
AcDbSpline
 70
8
 71
3
 72
8
 73
4
 74
0
 40
0
 40
0
 40
0
 40
0
 40
1
 40
1
 40
1
 40
1
 10
525.807153
 20
25.091290
 30
0.0
 10
525.807153
 20
25.518010
 30
0.0
 10
525.976672
 20
25.927241
 30
0.0
 10
526.278403
 20
26.228972
 30
0.0
  0
SPLINE
  5
206
100
AcDbEntity
  8
0
 62
7
100
AcDbSpline
 70
8
 71
3
 72
8
 73
4
 74
0
 40
0
 40
0
 40
0
 40
0
 40
1
 40
1
 40
1
 40
1
 10
351.601253
 20
419.679517
 30
0.0
 10
351.215120
 20
419.293374
 30
0.0
 10
350.691378
 20
419.076444
 30
0.0
 10
350.145304
 20
419.076444
 30
0.0
  0
SPLINE
  5
207
100
AcDbEntity
  8
0
 62
7
100
AcDbSpline
 70
8
 71
3
 72
8
 73
4
 74
0
 40
0
 40
0
 40
0
 40
0
 40
1
 40
1
 40
1
 40
1
 10
318.589350
 20
419.679517
 30
0.0
 10
318.203217
 20
420.065661
 30
0.0
 10
317.986285
 20
420.589385
 30
0.0
 10
317.986285
 20
421.135474
 30
0.0
  0
SPLINE
  5
208
100
AcDbEntity
  8
0
 62
7
100
AcDbSpline
 70
8
 71
3
 72
8
 73
4
 74
0
 40
0
 40
0
 40
0
 40
0
 40
1
 40
1
 40
1
 40
1
 10
509.420079
 20
5.486353
 30
0.0
 10
508.993359
 20
5.486353
 30
0.0
 10
508.584128
 20
5.655871
 30
0.0
 10
508.282397
 20
5.957602
 30
0.0
  0
SPLINE
  5
209
100
AcDbEntity
  8
0
 62
7
100
AcDbSpline
 70
8
 71
3
 72
8
 73
4
 74
0
 40
0
 40
0
 40
0
 40
0
 40
1
 40
1
 40
1
 40
1
 10
352.204345
 20
421.135474
 30
0.0
 10
352.204345
 20
420.589385
 30
0.0
 10
351.987413
 20
420.065661
 30
0.0
 10
351.601253
 20
419.679517
 30
0.0
  0
SPLINE
  5
20a
100
AcDbEntity
  8
0
 62
7
100
AcDbSpline
 70
8
 71
3
 72
8
 73
4
 74
0
 40
0
 40
0
 40
0
 40
0
 40
1
 40
1
 40
1
 40
1
 10
508.282397
 20
5.957602
 30
0.0
 10
507.980666
 20
6.259333
 30
0.0
 10
507.811148
 20
6.668564
 30
0.0
 10
507.811148
 20
7.095284
 30
0.0
  0
SPLINE
  5
20b
100
AcDbEntity
  8
0
 62
7
100
AcDbSpline
 70
8
 71
3
 72
8
 73
4
 74
0
 40
0
 40
0
 40
0
 40
0
 40
1
 40
1
 40
1
 40
1
 10
318.589350
 20
422.591431
 30
0.0
 10
318.975509
 20
422.977572
 30
0.0
 10
319.499225
 20
423.194504
 30
0.0
 10
320.045299
 20
423.194501
 30
0.0
  0
SPLINE
  5
20c
100
AcDbEntity
  8
0
 62
7
100
AcDbSpline
 70
8
 71
3
 72
8
 73
4
 74
0
 40
0
 40
0
 40
0
 40
0
 40
1
 40
1
 40
1
 40
1
 10
507.811148
 20
7.095284
 30
0.0
 10
507.811148
 20
7.522004
 30
0.0
 10
507.980666
 20
7.931235
 30
0.0
 10
508.282397
 20
8.232966
 30
0.0
  0
SPLINE
  5
20d
100
AcDbEntity
  8
0
 62
7
100
AcDbSpline
 70
8
 71
3
 72
8
 73
4
 74
0
 40
0
 40
0
 40
0
 40
0
 40
1
 40
1
 40
1
 40
1
 10
526.278403
 20
26.228972
 30
0.0
 10
526.580134
 20
26.530702
 30
0.0
 10
526.989391
 20
26.700221
 30
0.0
 10
527.416111
 20
26.700221
 30
0.0
  0
SPLINE
  5
20e
100
AcDbEntity
  8
0
 62
7
100
AcDbSpline
 70
8
 71
3
 72
8
 73
4
 74
0
 40
0
 40
0
 40
0
 40
0
 40
1
 40
1
 40
1
 40
1
 10
509.420079
 20
8.704215
 30
0.0
 10
510.308655
 20
8.704189
 30
0.0
 10
511.029010
 20
7.983861
 30
0.0
 10
511.029010
 20
7.095284
 30
0.0
  0
SPLINE
  5
20f
100
AcDbEntity
  8
0
 62
7
100
AcDbSpline
 70
8
 71
3
 72
8
 73
4
 74
0
 40
0
 40
0
 40
0
 40
0
 40
1
 40
1
 40
1
 40
1
 10
26.636027
 20
7.195270
 30
0.0
 10
26.636032
 20
6.768550
 30
0.0
 10
26.466521
 20
6.359319
 30
0.0
 10
26.164787
 20
6.057588
 30
0.0
  0
SPLINE
  5
210
100
AcDbEntity
  8
0
 62
7
100
AcDbSpline
 70
8
 71
3
 72
8
 73
4
 74
0
 40
0
 40
0
 40
0
 40
0
 40
1
 40
1
 40
1
 40
1
 10
26.164787
 20
6.057588
 30
0.0
 10
25.863054
 20
5.755831
 30
0.0
 10
25.453813
 20
5.586312
 30
0.0
 10
25.027094
 20
5.586312
 30
0.0
  0
SPLINE
  5
211
100
AcDbEntity
  8
0
 62
7
100
AcDbSpline
 70
8
 71
3
 72
8
 73
4
 74
0
 40
0
 40
0
 40
0
 40
0
 40
1
 40
1
 40
1
 40
1
 10
25.027094
 20
5.586312
 30
0.0
 10
24.600376
 20
5.586312
 30
0.0
 10
24.191136
 20
5.755831
 30
0.0
 10
23.889402
 20
6.057588
 30
0.0
  0
SPLINE
  5
212
100
AcDbEntity
  8
0
 62
7
100
AcDbSpline
 70
8
 71
3
 72
8
 73
4
 74
0
 40
0
 40
0
 40
0
 40
0
 40
1
 40
1
 40
1
 40
1
 10
511.029010
 20
7.095284
 30
0.0
 10
511.029010
 20
6.206707
 30
0.0
 10
510.308655
 20
5.486379
 30
0.0
 10
509.420079
 20
5.486353
 30
0.0
  0
SPLINE
  5
213
100
AcDbEntity
  8
0
 62
7
100
AcDbSpline
 70
8
 71
3
 72
8
 73
4
 74
0
 40
0
 40
0
 40
0
 40
0
 40
1
 40
1
 40
1
 40
1
 10
8.651026
 20
25.202415
 30
0.0
 10
8.651031
 20
24.775695
 30
0.0
 10
8.481521
 20
24.366437
 30
0.0
 10
8.179787
 20
24.064706
 30
0.0
  0
SPLINE
  5
214
100
AcDbEntity
  8
0
 62
7
100
AcDbSpline
 70
8
 71
3
 72
8
 73
4
 74
0
 40
0
 40
0
 40
0
 40
0
 40
1
 40
1
 40
1
 40
1
 10
5.433161
 20
25.202415
 30
0.0
 10
5.433168
 20
26.090991
 30
0.0
 10
6.153510
 20
26.811319
 30
0.0
 10
7.042094
 20
26.811319
 30
0.0
  0
SPLINE
  5
215
100
AcDbEntity
  8
0
 62
7
100
AcDbSpline
 70
8
 71
3
 72
8
 73
4
 74
0
 40
0
 40
0
 40
0
 40
0
 40
1
 40
1
 40
1
 40
1
 10
8.179787
 20
24.064706
 30
0.0
 10
7.878053
 20
23.762976
 30
0.0
 10
7.468812
 20
23.593457
 30
0.0
 10
7.042094
 20
23.593457
 30
0.0
  0
SPLINE
  5
216
100
AcDbEntity
  8
0
 62
7
100
AcDbSpline
 70
8
 71
3
 72
8
 73
4
 74
0
 40
0
 40
0
 40
0
 40
0
 40
1
 40
1
 40
1
 40
1
 10
5.904401
 20
24.064706
 30
0.0
 10
5.602667
 20
24.366437
 30
0.0
 10
5.433157
 20
24.775695
 30
0.0
 10
5.433161
 20
25.202415
 30
0.0
  0
SPLINE
  5
217
100
AcDbEntity
  8
0
 62
7
100
AcDbSpline
 70
8
 71
3
 72
8
 73
4
 74
0
 40
0
 40
0
 40
0
 40
0
 40
1
 40
1
 40
1
 40
1
 10
7.042094
 20
23.593457
 30
0.0
 10
6.615375
 20
23.593457
 30
0.0
 10
6.206135
 20
23.762976
 30
0.0
 10
5.904401
 20
24.064706
 30
0.0
  0
SPLINE
  5
218
100
AcDbEntity
  8
0
 62
7
100
AcDbSpline
 70
8
 71
3
 72
8
 73
4
 74
0
 40
0
 40
0
 40
0
 40
0
 40
1
 40
1
 40
1
 40
1
 10
527.416111
 20
23.482358
 30
0.0
 10
526.989391
 20
23.482332
 30
0.0
 10
526.580134
 20
23.651851
 30
0.0
 10
526.278403
 20
23.953581
 30
0.0
  0
SPLINE
  5
219
100
AcDbEntity
  8
0
 62
7
100
AcDbSpline
 70
8
 71
3
 72
8
 73
4
 74
0
 40
0
 40
0
 40
0
 40
0
 40
1
 40
1
 40
1
 40
1
 10
508.282397
 20
8.232966
 30
0.0
 10
508.584128
 20
8.534697
 30
0.0
 10
508.993359
 20
8.704215
 30
0.0
 10
509.420079
 20
8.704215
 30
0.0
  0
SPLINE
  5
21a
100
AcDbEntity
  8
0
 62
7
100
AcDbSpline
 70
8
 71
3
 72
8
 73
4
 74
0
 40
0
 40
0
 40
0
 40
0
 40
1
 40
1
 40
1
 40
1
 10
23.418162
 20
7.195270
 30
0.0
 10
23.418169
 20
8.083847
 30
0.0
 10
24.138510
 20
8.804201
 30
0.0
 10
25.027094
 20
8.804201
 30
0.0
  0
SPLINE
  5
21b
100
AcDbEntity
  8
0
 62
7
100
AcDbSpline
 70
8
 71
3
 72
8
 73
4
 74
0
 40
0
 40
0
 40
0
 40
0
 40
1
 40
1
 40
1
 40
1
 10
320.045299
 20
419.076444
 30
0.0
 10
319.499225
 20
419.076444
 30
0.0
 10
318.975509
 20
419.293374
 30
0.0
 10
318.589350
 20
419.679517
 30
0.0
  0
SPLINE
  5
21c
100
AcDbEntity
  8
0
 62
7
100
AcDbSpline
 70
8
 71
3
 72
8
 73
4
 74
0
 40
0
 40
0
 40
0
 40
0
 40
1
 40
1
 40
1
 40
1
 10
369.236950
 20
114.818970
 30
0.0
 10
369.597339
 20
114.818970
 30
0.0
 10
369.942990
 20
114.675804
 30
0.0
 10
370.197810
 20
114.420965
 30
0.0
  0
SPLINE
  5
21d
100
AcDbEntity
  8
0
 62
7
100
AcDbSpline
 70
8
 71
3
 72
8
 73
4
 74
0
 40
0
 40
0
 40
0
 40
0
 40
1
 40
1
 40
1
 40
1
 10
373.678087
 20
113.486346
 30
0.0
 10
373.678087
 20
113.846740
 30
0.0
 10
373.821253
 20
114.192376
 30
0.0
 10
374.076099
 20
114.447212
 30
0.0
  0
SPLINE
  5
21e
100
AcDbEntity
  8
0
 62
7
100
AcDbSpline
 70
8
 71
3
 72
8
 73
4
 74
0
 40
0
 40
0
 40
0
 40
0
 40
1
 40
1
 40
1
 40
1
 10
367.878076
 20
113.460099
 30
0.0
 10
367.878076
 20
113.820493
 30
0.0
 10
368.021242
 20
114.166126
 30
0.0
 10
368.276089
 20
114.420965
 30
0.0
  0
SPLINE
  5
21f
100
AcDbEntity
  8
0
 62
7
100
AcDbSpline
 70
8
 71
3
 72
8
 73
4
 74
0
 40
0
 40
0
 40
0
 40
0
 40
1
 40
1
 40
1
 40
1
 10
370.197810
 20
114.420965
 30
0.0
 10
370.452657
 20
114.166126
 30
0.0
 10
370.595823
 20
113.820493
 30
0.0
 10
370.595823
 20
113.460099
 30
0.0
  0
SPLINE
  5
220
100
AcDbEntity
  8
0
 62
7
100
AcDbSpline
 70
8
 71
3
 72
8
 73
4
 74
0
 40
0
 40
0
 40
0
 40
0
 40
1
 40
1
 40
1
 40
1
 10
370.595823
 20
113.460099
 30
0.0
 10
370.595823
 20
112.709624
 30
0.0
 10
369.987440
 20
112.101255
 30
0.0
 10
369.236950
 20
112.101255
 30
0.0
  0
SPLINE
  5
221
100
AcDbEntity
  8
0
 62
7
100
AcDbSpline
 70
8
 71
3
 72
8
 73
4
 74
0
 40
0
 40
0
 40
0
 40
0
 40
1
 40
1
 40
1
 40
1
 10
368.276089
 20
114.420965
 30
0.0
 10
368.530935
 20
114.675804
 30
0.0
 10
368.876561
 20
114.818970
 30
0.0
 10
369.236950
 20
114.818970
 30
0.0
  0
SPLINE
  5
222
100
AcDbEntity
  8
0
 62
7
100
AcDbSpline
 70
8
 71
3
 72
8
 73
4
 74
0
 40
0
 40
0
 40
0
 40
0
 40
1
 40
1
 40
1
 40
1
 10
374.076099
 20
114.447212
 30
0.0
 10
374.330920
 20
114.702050
 30
0.0
 10
374.676571
 20
114.845217
 30
0.0
 10
375.036960
 20
114.845217
 30
0.0
  0
SPLINE
  5
223
100
AcDbEntity
  8
0
 62
7
100
AcDbSpline
 70
8
 71
3
 72
8
 73
4
 74
0
 40
0
 40
0
 40
0
 40
0
 40
1
 40
1
 40
1
 40
1
 10
429.726282
 20
486.883440
 30
0.0
 10
429.180209
 20
486.883438
 30
0.0
 10
428.656466
 20
487.100370
 30
0.0
 10
428.270333
 20
487.486510
 30
0.0
  0
SPLINE
  5
224
100
AcDbEntity
  8
0
 62
7
100
AcDbSpline
 70
8
 71
3
 72
8
 73
4
 74
0
 40
0
 40
0
 40
0
 40
0
 40
1
 40
1
 40
1
 40
1
 10
428.270333
 20
487.486510
 30
0.0
 10
427.884200
 20
487.872654
 30
0.0
 10
427.667268
 20
488.396378
 30
0.0
 10
427.667268
 20
488.942468
 30
0.0
  0
SPLINE
  5
225
100
AcDbEntity
  8
0
 62
7
100
AcDbSpline
 70
8
 71
3
 72
8
 73
4
 74
0
 40
0
 40
0
 40
0
 40
0
 40
1
 40
1
 40
1
 40
1
 10
431.182258
 20
487.486510
 30
0.0
 10
430.796099
 20
487.100370
 30
0.0
 10
430.272382
 20
486.883438
 30
0.0
 10
429.726282
 20
486.883440
 30
0.0
  0
SPLINE
  5
226
100
AcDbEntity
  8
0
 62
7
100
AcDbSpline
 70
8
 71
3
 72
8
 73
4
 74
0
 40
0
 40
0
 40
0
 40
0
 40
1
 40
1
 40
1
 40
1
 10
427.667268
 20
488.942468
 30
0.0
 10
427.667268
 20
489.488557
 30
0.0
 10
427.884200
 20
490.012281
 30
0.0
 10
428.270333
 20
490.398425
 30
0.0
  0
SPLINE
  5
227
100
AcDbEntity
  8
0
 62
7
100
AcDbSpline
 70
8
 71
3
 72
8
 73
4
 74
0
 40
0
 40
0
 40
0
 40
0
 40
1
 40
1
 40
1
 40
1
 10
152.500951
 20
34.208138
 30
0.0
 10
152.887079
 20
33.822003
 30
0.0
 10
153.104003
 20
33.298292
 30
0.0
 10
153.103997
 20
32.752218
 30
0.0
  0
SPLINE
  5
228
100
AcDbEntity
  8
0
 62
7
100
AcDbSpline
 70
8
 71
3
 72
8
 73
4
 74
0
 40
0
 40
0
 40
0
 40
0
 40
1
 40
1
 40
1
 40
1
 10
149.589127
 20
34.208135
 30
0.0
 10
149.975257
 20
34.594271
 30
0.0
 10
150.498963
 20
34.811200
 30
0.0
 10
151.045036
 20
34.811200
 30
0.0
  0
SPLINE
  5
229
100
AcDbEntity
  8
0
 62
7
100
AcDbSpline
 70
8
 71
3
 72
8
 73
4
 74
0
 40
0
 40
0
 40
0
 40
0
 40
1
 40
1
 40
1
 40
1
 10
368.276089
 20
269.449272
 30
0.0
 10
368.021242
 20
269.704111
 30
0.0
 10
367.878076
 20
270.049747
 30
0.0
 10
367.878076
 20
270.410141
 30
0.0
  0
SPLINE
  5
22a
100
AcDbEntity
  8
0
 62
7
100
AcDbSpline
 70
8
 71
3
 72
8
 73
4
 74
0
 40
0
 40
0
 40
0
 40
0
 40
1
 40
1
 40
1
 40
1
 10
365.213854
 20
275.436347
 30
0.0
 10
365.213854
 20
275.075952
 30
0.0
 10
365.070688
 20
274.730318
 30
0.0
 10
364.815842
 20
274.475479
 30
0.0
  0
SPLINE
  5
22b
100
AcDbEntity
  8
0
 62
7
100
AcDbSpline
 70
8
 71
3
 72
8
 73
4
 74
0
 40
0
 40
0
 40
0
 40
0
 40
1
 40
1
 40
1
 40
1
 10
364.815842
 20
276.397215
 30
0.0
 10
365.070688
 20
276.142376
 30
0.0
 10
365.213854
 20
275.796742
 30
0.0
 10
365.213854
 20
275.436347
 30
0.0
  0
SPLINE
  5
22c
100
AcDbEntity
  8
0
 62
7
100
AcDbSpline
 70
8
 71
3
 72
8
 73
4
 74
0
 40
0
 40
0
 40
0
 40
0
 40
1
 40
1
 40
1
 40
1
 10
363.854981
 20
274.077475
 30
0.0
 10
363.494592
 20
274.077474
 30
0.0
 10
363.148940
 20
274.220642
 30
0.0
 10
362.894120
 20
274.475479
 30
0.0
  0
SPLINE
  5
22d
100
AcDbEntity
  8
0
 62
7
100
AcDbSpline
 70
8
 71
3
 72
8
 73
4
 74
0
 40
0
 40
0
 40
0
 40
0
 40
1
 40
1
 40
1
 40
1
 10
367.878076
 20
270.410141
 30
0.0
 10
367.878076
 20
271.160624
 30
0.0
 10
368.486459
 20
271.769010
 30
0.0
 10
369.236950
 20
271.769010
 30
0.0
  0
SPLINE
  5
22e
100
AcDbEntity
  8
0
 62
7
100
AcDbSpline
 70
8
 71
3
 72
8
 73
4
 74
0
 40
0
 40
0
 40
0
 40
0
 40
1
 40
1
 40
1
 40
1
 10
364.815842
 20
274.475479
 30
0.0
 10
364.560995
 20
274.220642
 30
0.0
 10
364.215370
 20
274.077474
 30
0.0
 10
363.854981
 20
274.077475
 30
0.0
  0
SPLINE
  5
22f
100
AcDbEntity
  8
0
 62
7
100
AcDbSpline
 70
8
 71
3
 72
8
 73
4
 74
0
 40
0
 40
0
 40
0
 40
0
 40
1
 40
1
 40
1
 40
1
 10
362.894120
 20
276.397215
 30
0.0
 10
363.148940
 20
276.652053
 30
0.0
 10
363.494592
 20
276.795219
 30
0.0
 10
363.854981
 20
276.795219
 30
0.0
  0
SPLINE
  5
230
100
AcDbEntity
  8
0
 62
7
100
AcDbSpline
 70
8
 71
3
 72
8
 73
4
 74
0
 40
0
 40
0
 40
0
 40
0
 40
1
 40
1
 40
1
 40
1
 10
362.894120
 20
274.475479
 30
0.0
 10
362.639273
 20
274.730318
 30
0.0
 10
362.496107
 20
275.075952
 30
0.0
 10
362.496107
 20
275.436347
 30
0.0
  0
SPLINE
  5
231
100
AcDbEntity
  8
0
 62
7
100
AcDbSpline
 70
8
 71
3
 72
8
 73
4
 74
0
 40
0
 40
0
 40
0
 40
0
 40
1
 40
1
 40
1
 40
1
 10
522.276289
 20
367.002439
 30
0.0
 10
521.730215
 20
367.002436
 30
0.0
 10
521.206499
 20
367.219368
 30
0.0
 10
520.820340
 20
367.605511
 30
0.0
  0
SPLINE
  5
232
100
AcDbEntity
  8
0
 62
7
100
AcDbSpline
 70
8
 71
3
 72
8
 73
4
 74
0
 40
0
 40
0
 40
0
 40
0
 40
1
 40
1
 40
1
 40
1
 10
520.820340
 20
370.517423
 30
0.0
 10
521.206499
 20
370.903566
 30
0.0
 10
521.730215
 20
371.120498
 30
0.0
 10
522.276289
 20
371.120496
 30
0.0
  0
SPLINE
  5
233
100
AcDbEntity
  8
0
 62
7
100
AcDbSpline
 70
8
 71
3
 72
8
 73
4
 74
0
 40
0
 40
0
 40
0
 40
0
 40
1
 40
1
 40
1
 40
1
 10
362.496107
 20
275.436347
 30
0.0
 10
362.496107
 20
275.796742
 30
0.0
 10
362.639273
 20
276.142376
 30
0.0
 10
362.894120
 20
276.397215
 30
0.0
  0
SPLINE
  5
234
100
AcDbEntity
  8
0
 62
7
100
AcDbSpline
 70
8
 71
3
 72
8
 73
4
 74
0
 40
0
 40
0
 40
0
 40
0
 40
1
 40
1
 40
1
 40
1
 10
358.054970
 20
276.769000
 30
0.0
 10
358.805461
 20
276.769000
 30
0.0
 10
359.413844
 20
276.160614
 30
0.0
 10
359.413844
 20
275.410131
 30
0.0
  0
SPLINE
  5
235
100
AcDbEntity
  8
0
 62
7
100
AcDbSpline
 70
8
 71
3
 72
8
 73
4
 74
0
 40
0
 40
0
 40
0
 40
0
 40
1
 40
1
 40
1
 40
1
 10
523.732264
 20
367.605511
 30
0.0
 10
523.346105
 20
367.219368
 30
0.0
 10
522.822389
 20
367.002436
 30
0.0
 10
522.276289
 20
367.002439
 30
0.0
  0
SPLINE
  5
236
100
AcDbEntity
  8
0
 62
7
100
AcDbSpline
 70
8
 71
3
 72
8
 73
4
 74
0
 40
0
 40
0
 40
0
 40
0
 40
1
 40
1
 40
1
 40
1
 10
520.820340
 20
367.605511
 30
0.0
 10
520.434207
 20
367.991652
 30
0.0
 10
520.217275
 20
368.515376
 30
0.0
 10
520.217275
 20
369.061466
 30
0.0
  0
SPLINE
  5
237
100
AcDbEntity
  8
0
 62
7
100
AcDbSpline
 70
8
 71
3
 72
8
 73
4
 74
0
 40
0
 40
0
 40
0
 40
0
 40
1
 40
1
 40
1
 40
1
 10
359.413844
 20
275.410131
 30
0.0
 10
359.413844
 20
275.049736
 30
0.0
 10
359.270678
 20
274.704101
 30
0.0
 10
359.015831
 20
274.449263
 30
0.0
  0
SPLINE
  5
238
100
AcDbEntity
  8
0
 62
7
100
AcDbSpline
 70
8
 71
3
 72
8
 73
4
 74
0
 40
0
 40
0
 40
0
 40
0
 40
1
 40
1
 40
1
 40
1
 10
359.015831
 20
274.449263
 30
0.0
 10
358.761011
 20
274.194426
 30
0.0
 10
358.415359
 20
274.051259
 30
0.0
 10
358.054970
 20
274.051259
 30
0.0
  0
SPLINE
  5
239
100
AcDbEntity
  8
0
 62
7
100
AcDbSpline
 70
8
 71
3
 72
8
 73
4
 74
0
 40
0
 40
0
 40
0
 40
0
 40
1
 40
1
 40
1
 40
1
 10
363.854981
 20
276.795219
 30
0.0
 10
364.215370
 20
276.795219
 30
0.0
 10
364.560995
 20
276.652053
 30
0.0
 10
364.815842
 20
276.397215
 30
0.0
  0
SPLINE
  5
23a
100
AcDbEntity
  8
0
 62
7
100
AcDbSpline
 70
8
 71
3
 72
8
 73
4
 74
0
 40
0
 40
0
 40
0
 40
0
 40
1
 40
1
 40
1
 40
1
 10
358.054970
 20
274.051259
 30
0.0
 10
357.694581
 20
274.051259
 30
0.0
 10
357.348929
 20
274.194426
 30
0.0
 10
357.094109
 20
274.449263
 30
0.0
  0
SPLINE
  5
23b
100
AcDbEntity
  8
0
 62
7
100
AcDbSpline
 70
8
 71
3
 72
8
 73
4
 74
0
 40
0
 40
0
 40
0
 40
0
 40
1
 40
1
 40
1
 40
1
 10
151.045036
 20
34.811200
 30
0.0
 10
151.591110
 20
34.811200
 30
0.0
 10
152.114818
 20
34.594271
 30
0.0
 10
152.500951
 20
34.208138
 30
0.0
  0
SPLINE
  5
23c
100
AcDbEntity
  8
0
 62
7
100
AcDbSpline
 70
8
 71
3
 72
8
 73
4
 74
0
 40
0
 40
0
 40
0
 40
0
 40
1
 40
1
 40
1
 40
1
 10
524.335329
 20
369.061466
 30
0.0
 10
524.335329
 20
368.515376
 30
0.0
 10
524.118397
 20
367.991652
 30
0.0
 10
523.732264
 20
367.605511
 30
0.0
  0
SPLINE
  5
23d
100
AcDbEntity
  8
0
 62
7
100
AcDbSpline
 70
8
 71
3
 72
8
 73
4
 74
0
 40
0
 40
0
 40
0
 40
0
 40
1
 40
1
 40
1
 40
1
 10
520.217275
 20
369.061466
 30
0.0
 10
520.217275
 20
369.607555
 30
0.0
 10
520.434207
 20
370.131279
 30
0.0
 10
520.820340
 20
370.517423
 30
0.0
  0
SPLINE
  5
23e
100
AcDbEntity
  8
0
 62
7
100
AcDbSpline
 70
8
 71
3
 72
8
 73
4
 74
0
 40
0
 40
0
 40
0
 40
0
 40
1
 40
1
 40
1
 40
1
 10
522.276289
 20
371.120496
 30
0.0
 10
522.822389
 20
371.120498
 30
0.0
 10
523.346105
 20
370.903566
 30
0.0
 10
523.732264
 20
370.517423
 30
0.0
  0
SPLINE
  5
23f
100
AcDbEntity
  8
0
 62
7
100
AcDbSpline
 70
8
 71
3
 72
8
 73
4
 74
0
 40
0
 40
0
 40
0
 40
0
 40
1
 40
1
 40
1
 40
1
 10
357.094109
 20
117.499194
 30
0.0
 10
356.839263
 20
117.754030
 30
0.0
 10
356.696097
 20
118.099666
 30
0.0
 10
356.696097
 20
118.460060
 30
0.0
  0
SPLINE
  5
240
100
AcDbEntity
  8
0
 62
7
100
AcDbSpline
 70
8
 71
3
 72
8
 73
4
 74
0
 40
0
 40
0
 40
0
 40
0
 40
1
 40
1
 40
1
 40
1
 10
363.854981
 20
195.602455
 30
0.0
 10
363.494592
 20
195.602455
 30
0.0
 10
363.148940
 20
195.745621
 30
0.0
 10
362.894120
 20
196.000460
 30
0.0
  0
SPLINE
  5
241
100
AcDbEntity
  8
0
 62
7
100
AcDbSpline
 70
8
 71
3
 72
8
 73
4
 74
0
 40
0
 40
0
 40
0
 40
0
 40
1
 40
1
 40
1
 40
1
 10
375.036960
 20
350.542228
 30
0.0
 10
375.397349
 20
350.542228
 30
0.0
 10
375.743001
 20
350.399062
 30
0.0
 10
375.997821
 20
350.144223
 30
0.0
  0
SPLINE
  5
242
100
AcDbEntity
  8
0
 62
7
100
AcDbSpline
 70
8
 71
3
 72
8
 73
4
 74
0
 40
0
 40
0
 40
0
 40
0
 40
1
 40
1
 40
1
 40
1
 10
368.276089
 20
190.974253
 30
0.0
 10
368.021242
 20
191.229089
 30
0.0
 10
367.878076
 20
191.574724
 30
0.0
 10
367.878076
 20
191.935119
 30
0.0
  0
SPLINE
  5
243
100
AcDbEntity
  8
0
 62
7
100
AcDbSpline
 70
8
 71
3
 72
8
 73
4
 74
0
 40
0
 40
0
 40
0
 40
0
 40
1
 40
1
 40
1
 40
1
 10
375.036960
 20
193.320239
 30
0.0
 10
375.397349
 20
193.320239
 30
0.0
 10
375.743001
 20
193.177070
 30
0.0
 10
375.997821
 20
192.922234
 30
0.0
  0
SPLINE
  5
244
100
AcDbEntity
  8
0
 62
7
100
AcDbSpline
 70
8
 71
3
 72
8
 73
4
 74
0
 40
0
 40
0
 40
0
 40
0
 40
1
 40
1
 40
1
 40
1
 10
373.678087
 20
191.961365
 30
0.0
 10
373.678087
 20
192.321762
 30
0.0
 10
373.821253
 20
192.667395
 30
0.0
 10
374.076099
 20
192.922234
 30
0.0
  0
SPLINE
  5
245
100
AcDbEntity
  8
0
 62
7
100
AcDbSpline
 70
8
 71
3
 72
8
 73
4
 74
0
 40
0
 40
0
 40
0
 40
0
 40
1
 40
1
 40
1
 40
1
 10
370.595823
 20
191.935119
 30
0.0
 10
370.595823
 20
191.574724
 30
0.0
 10
370.452657
 20
191.229089
 30
0.0
 10
370.197810
 20
190.974253
 30
0.0
  0
SPLINE
  5
246
100
AcDbEntity
  8
0
 62
7
100
AcDbSpline
 70
8
 71
3
 72
8
 73
4
 74
0
 40
0
 40
0
 40
0
 40
0
 40
1
 40
1
 40
1
 40
1
 10
357.094109
 20
274.449263
 30
0.0
 10
356.839263
 20
274.704101
 30
0.0
 10
356.696097
 20
275.049736
 30
0.0
 10
356.696097
 20
275.410131
 30
0.0
  0
SPLINE
  5
247
100
AcDbEntity
  8
0
 62
7
100
AcDbSpline
 70
8
 71
3
 72
8
 73
4
 74
0
 40
0
 40
0
 40
0
 40
0
 40
1
 40
1
 40
1
 40
1
 10
370.197810
 20
192.895988
 30
0.0
 10
370.452657
 20
192.641149
 30
0.0
 10
370.595823
 20
192.295516
 30
0.0
 10
370.595823
 20
191.935119
 30
0.0
  0
SPLINE
  5
248
100
AcDbEntity
  8
0
 62
7
100
AcDbSpline
 70
8
 71
3
 72
8
 73
4
 74
0
 40
0
 40
0
 40
0
 40
0
 40
1
 40
1
 40
1
 40
1
 10
375.997821
 20
191.000499
 30
0.0
 10
375.743001
 20
190.745661
 30
0.0
 10
375.397349
 20
190.602495
 30
0.0
 10
375.036960
 20
190.602495
 30
0.0
  0
SPLINE
  5
249
100
AcDbEntity
  8
0
 62
7
100
AcDbSpline
 70
8
 71
3
 72
8
 73
4
 74
0
 40
0
 40
0
 40
0
 40
0
 40
1
 40
1
 40
1
 40
1
 10
376.395834
 20
191.961365
 30
0.0
 10
376.395834
 20
191.600971
 30
0.0
 10
376.252668
 20
191.255335
 30
0.0
 10
375.997821
 20
191.000499
 30
0.0
  0
SPLINE
  5
24a
100
AcDbEntity
  8
0
 62
7
100
AcDbSpline
 70
8
 71
3
 72
8
 73
4
 74
0
 40
0
 40
0
 40
0
 40
0
 40
1
 40
1
 40
1
 40
1
 10
363.854981
 20
198.320200
 30
0.0
 10
364.215370
 20
198.320200
 30
0.0
 10
364.560995
 20
198.177034
 30
0.0
 10
364.815842
 20
197.922195
 30
0.0
  0
SPLINE
  5
24b
100
AcDbEntity
  8
0
 62
7
100
AcDbSpline
 70
8
 71
3
 72
8
 73
4
 74
0
 40
0
 40
0
 40
0
 40
0
 40
1
 40
1
 40
1
 40
1
 10
374.076099
 20
192.922234
 30
0.0
 10
374.330920
 20
193.177070
 30
0.0
 10
374.676571
 20
193.320239
 30
0.0
 10
375.036960
 20
193.320239
 30
0.0
  0
SPLINE
  5
24c
100
AcDbEntity
  8
0
 62
7
100
AcDbSpline
 70
8
 71
3
 72
8
 73
4
 74
0
 40
0
 40
0
 40
0
 40
0
 40
1
 40
1
 40
1
 40
1
 10
356.696097
 20
275.410131
 30
0.0
 10
356.696097
 20
276.160614
 30
0.0
 10
357.304479
 20
276.769000
 30
0.0
 10
358.054970
 20
276.769000
 30
0.0
  0
SPLINE
  5
24d
100
AcDbEntity
  8
0
 62
7
100
AcDbSpline
 70
8
 71
3
 72
8
 73
4
 74
0
 40
0
 40
0
 40
0
 40
0
 40
1
 40
1
 40
1
 40
1
 10
364.815842
 20
197.922195
 30
0.0
 10
365.070688
 20
197.667356
 30
0.0
 10
365.213854
 20
197.321723
 30
0.0
 10
365.213854
 20
196.961329
 30
0.0
  0
SPLINE
  5
24e
100
AcDbEntity
  8
0
 62
7
100
AcDbSpline
 70
8
 71
3
 72
8
 73
4
 74
0
 40
0
 40
0
 40
0
 40
0
 40
1
 40
1
 40
1
 40
1
 10
374.076099
 20
191.000499
 30
0.0
 10
373.821253
 20
191.255335
 30
0.0
 10
373.678087
 20
191.600971
 30
0.0
 10
373.678087
 20
191.961365
 30
0.0
  0
SPLINE
  5
24f
100
AcDbEntity
  8
0
 62
7
100
AcDbSpline
 70
8
 71
3
 72
8
 73
4
 74
0
 40
0
 40
0
 40
0
 40
0
 40
1
 40
1
 40
1
 40
1
 10
375.997821
 20
192.922234
 30
0.0
 10
376.252668
 20
192.667395
 30
0.0
 10
376.395834
 20
192.321762
 30
0.0
 10
376.395834
 20
191.961365
 30
0.0
  0
SPLINE
  5
250
100
AcDbEntity
  8
0
 62
7
100
AcDbSpline
 70
8
 71
3
 72
8
 73
4
 74
0
 40
0
 40
0
 40
0
 40
0
 40
1
 40
1
 40
1
 40
1
 10
367.878076
 20
191.935119
 30
0.0
 10
367.878076
 20
192.295516
 30
0.0
 10
368.021242
 20
192.641149
 30
0.0
 10
368.276089
 20
192.895988
 30
0.0
  0
SPLINE
  5
251
100
AcDbEntity
  8
0
 62
7
100
AcDbSpline
 70
8
 71
3
 72
8
 73
4
 74
0
 40
0
 40
0
 40
0
 40
0
 40
1
 40
1
 40
1
 40
1
 10
375.036960
 20
190.602495
 30
0.0
 10
374.676571
 20
190.602495
 30
0.0
 10
374.330920
 20
190.745661
 30
0.0
 10
374.076099
 20
191.000499
 30
0.0
  0
SPLINE
  5
252
100
AcDbEntity
  8
0
 62
7
100
AcDbSpline
 70
8
 71
3
 72
8
 73
4
 74
0
 40
0
 40
0
 40
0
 40
0
 40
1
 40
1
 40
1
 40
1
 10
368.276089
 20
192.895988
 30
0.0
 10
368.530935
 20
193.150826
 30
0.0
 10
368.876561
 20
193.293992
 30
0.0
 10
369.236950
 20
193.293992
 30
0.0
  0
SPLINE
  5
253
100
AcDbEntity
  8
0
 62
7
100
AcDbSpline
 70
8
 71
3
 72
8
 73
4
 74
0
 40
0
 40
0
 40
0
 40
0
 40
1
 40
1
 40
1
 40
1
 10
369.236950
 20
193.293992
 30
0.0
 10
369.597339
 20
193.293992
 30
0.0
 10
369.942990
 20
193.150826
 30
0.0
 10
370.197810
 20
192.895988
 30
0.0
  0
SPLINE
  5
254
100
AcDbEntity
  8
0
 62
7
100
AcDbSpline
 70
8
 71
3
 72
8
 73
4
 74
0
 40
0
 40
0
 40
0
 40
0
 40
1
 40
1
 40
1
 40
1
 10
365.213854
 20
196.961329
 30
0.0
 10
365.213854
 20
196.600932
 30
0.0
 10
365.070688
 20
196.255299
 30
0.0
 10
364.815842
 20
196.000460
 30
0.0
  0
SPLINE
  5
255
100
AcDbEntity
  8
0
 62
7
100
AcDbSpline
 70
8
 71
3
 72
8
 73
4
 74
0
 40
0
 40
0
 40
0
 40
0
 40
1
 40
1
 40
1
 40
1
 10
364.815842
 20
196.000460
 30
0.0
 10
364.560995
 20
195.745621
 30
0.0
 10
364.215370
 20
195.602455
 30
0.0
 10
363.854981
 20
195.602455
 30
0.0
  0
SPLINE
  5
256
100
AcDbEntity
  8
0
 62
7
100
AcDbSpline
 70
8
 71
3
 72
8
 73
4
 74
0
 40
0
 40
0
 40
0
 40
0
 40
1
 40
1
 40
1
 40
1
 10
369.236950
 20
190.576248
 30
0.0
 10
368.876561
 20
190.576248
 30
0.0
 10
368.530935
 20
190.719414
 30
0.0
 10
368.276089
 20
190.974253
 30
0.0
  0
SPLINE
  5
257
100
AcDbEntity
  8
0
 62
7
100
AcDbSpline
 70
8
 71
3
 72
8
 73
4
 74
0
 40
0
 40
0
 40
0
 40
0
 40
1
 40
1
 40
1
 40
1
 10
362.894120
 20
196.000460
 30
0.0
 10
362.639273
 20
196.255299
 30
0.0
 10
362.496107
 20
196.600932
 30
0.0
 10
362.496107
 20
196.961329
 30
0.0
  0
SPLINE
  5
258
100
AcDbEntity
  8
0
 62
7
100
AcDbSpline
 70
8
 71
3
 72
8
 73
4
 74
0
 40
0
 40
0
 40
0
 40
0
 40
1
 40
1
 40
1
 40
1
 10
359.413844
 20
118.460060
 30
0.0
 10
359.413844
 20
118.099666
 30
0.0
 10
359.270678
 20
117.754030
 30
0.0
 10
359.015831
 20
117.499194
 30
0.0
  0
SPLINE
  5
259
100
AcDbEntity
  8
0
 62
7
100
AcDbSpline
 70
8
 71
3
 72
8
 73
4
 74
0
 40
0
 40
0
 40
0
 40
0
 40
1
 40
1
 40
1
 40
1
 10
359.015831
 20
119.420929
 30
0.0
 10
359.270678
 20
119.166090
 30
0.0
 10
359.413844
 20
118.820457
 30
0.0
 10
359.413844
 20
118.460060
 30
0.0
  0
SPLINE
  5
25a
100
AcDbEntity
  8
0
 62
7
100
AcDbSpline
 70
8
 71
3
 72
8
 73
4
 74
0
 40
0
 40
0
 40
0
 40
0
 40
1
 40
1
 40
1
 40
1
 10
359.015831
 20
117.499194
 30
0.0
 10
358.761011
 20
117.244355
 30
0.0
 10
358.415359
 20
117.101189
 30
0.0
 10
358.054970
 20
117.101189
 30
0.0
  0
SPLINE
  5
25b
100
AcDbEntity
  8
0
 62
7
100
AcDbSpline
 70
8
 71
3
 72
8
 73
4
 74
0
 40
0
 40
0
 40
0
 40
0
 40
1
 40
1
 40
1
 40
1
 10
358.054970
 20
117.101189
 30
0.0
 10
357.694581
 20
117.101189
 30
0.0
 10
357.348929
 20
117.244355
 30
0.0
 10
357.094109
 20
117.499194
 30
0.0
  0
SPLINE
  5
25c
100
AcDbEntity
  8
0
 62
7
100
AcDbSpline
 70
8
 71
3
 72
8
 73
4
 74
0
 40
0
 40
0
 40
0
 40
0
 40
1
 40
1
 40
1
 40
1
 10
370.197810
 20
190.974253
 30
0.0
 10
369.942990
 20
190.719414
 30
0.0
 10
369.597339
 20
190.576248
 30
0.0
 10
369.236950
 20
190.576248
 30
0.0
  0
SPLINE
  5
25d
100
AcDbEntity
  8
0
 62
7
100
AcDbSpline
 70
8
 71
3
 72
8
 73
4
 74
0
 40
0
 40
0
 40
0
 40
0
 40
1
 40
1
 40
1
 40
1
 10
373.678087
 20
349.183354
 30
0.0
 10
373.678087
 20
349.543751
 30
0.0
 10
373.821253
 20
349.889384
 30
0.0
 10
374.076099
 20
350.144223
 30
0.0
  0
SPLINE
  5
25e
100
AcDbEntity
  8
0
 62
7
100
AcDbSpline
 70
8
 71
3
 72
8
 73
4
 74
0
 40
0
 40
0
 40
0
 40
0
 40
1
 40
1
 40
1
 40
1
 10
375.997821
 20
350.144223
 30
0.0
 10
376.252668
 20
349.889384
 30
0.0
 10
376.395834
 20
349.543751
 30
0.0
 10
376.395834
 20
349.183354
 30
0.0
  0
SPLINE
  5
25f
100
AcDbEntity
  8
0
 62
7
100
AcDbSpline
 70
8
 71
3
 72
8
 73
4
 74
0
 40
0
 40
0
 40
0
 40
0
 40
1
 40
1
 40
1
 40
1
 10
376.395834
 20
349.183354
 30
0.0
 10
376.395834
 20
348.822960
 30
0.0
 10
376.252668
 20
348.477327
 30
0.0
 10
375.997821
 20
348.222488
 30
0.0
  0
SPLINE
  5
260
100
AcDbEntity
  8
0
 62
7
100
AcDbSpline
 70
8
 71
3
 72
8
 73
4
 74
0
 40
0
 40
0
 40
0
 40
0
 40
1
 40
1
 40
1
 40
1
 10
375.036960
 20
347.824483
 30
0.0
 10
374.676571
 20
347.824483
 30
0.0
 10
374.330920
 20
347.967649
 30
0.0
 10
374.076099
 20
348.222488
 30
0.0
  0
SPLINE
  5
261
100
AcDbEntity
  8
0
 62
7
100
AcDbSpline
 70
8
 71
3
 72
8
 73
4
 74
0
 40
0
 40
0
 40
0
 40
0
 40
1
 40
1
 40
1
 40
1
 10
357.094109
 20
119.420929
 30
0.0
 10
357.348929
 20
119.675765
 30
0.0
 10
357.694581
 20
119.818931
 30
0.0
 10
358.054970
 20
119.818931
 30
0.0
  0
SPLINE
  5
262
100
AcDbEntity
  8
0
 62
7
100
AcDbSpline
 70
8
 71
3
 72
8
 73
4
 74
0
 40
0
 40
0
 40
0
 40
0
 40
1
 40
1
 40
1
 40
1
 10
374.076099
 20
350.144223
 30
0.0
 10
374.330920
 20
350.399062
 30
0.0
 10
374.676571
 20
350.542228
 30
0.0
 10
375.036960
 20
350.542228
 30
0.0
  0
SPLINE
  5
263
100
AcDbEntity
  8
0
 62
7
100
AcDbSpline
 70
8
 71
3
 72
8
 73
4
 74
0
 40
0
 40
0
 40
0
 40
0
 40
1
 40
1
 40
1
 40
1
 10
356.696097
 20
118.460060
 30
0.0
 10
356.696097
 20
118.820457
 30
0.0
 10
356.839263
 20
119.166090
 30
0.0
 10
357.094109
 20
119.420929
 30
0.0
  0
SPLINE
  5
264
100
AcDbEntity
  8
0
 62
7
100
AcDbSpline
 70
8
 71
3
 72
8
 73
4
 74
0
 40
0
 40
0
 40
0
 40
0
 40
1
 40
1
 40
1
 40
1
 10
374.076099
 20
348.222488
 30
0.0
 10
373.821253
 20
348.477327
 30
0.0
 10
373.678087
 20
348.822960
 30
0.0
 10
373.678087
 20
349.183354
 30
0.0
  0
SPLINE
  5
265
100
AcDbEntity
  8
0
 62
7
100
AcDbSpline
 70
8
 71
3
 72
8
 73
4
 74
0
 40
0
 40
0
 40
0
 40
0
 40
1
 40
1
 40
1
 40
1
 10
375.997821
 20
348.222488
 30
0.0
 10
375.743001
 20
347.967649
 30
0.0
 10
375.397349
 20
347.824483
 30
0.0
 10
375.036960
 20
347.824483
 30
0.0
  0
SPLINE
  5
266
100
AcDbEntity
  8
0
 62
7
100
AcDbSpline
 70
8
 71
3
 72
8
 73
4
 74
0
 40
0
 40
0
 40
0
 40
0
 40
1
 40
1
 40
1
 40
1
 10
368.276089
 20
348.196273
 30
0.0
 10
368.021242
 20
348.451109
 30
0.0
 10
367.878076
 20
348.796745
 30
0.0
 10
367.878076
 20
349.157139
 30
0.0
  0
SPLINE
  5
267
100
AcDbEntity
  8
0
 62
7
100
AcDbSpline
 70
8
 71
3
 72
8
 73
4
 74
0
 40
0
 40
0
 40
0
 40
0
 40
1
 40
1
 40
1
 40
1
 10
370.595823
 20
349.157139
 30
0.0
 10
370.595823
 20
348.796745
 30
0.0
 10
370.452657
 20
348.451109
 30
0.0
 10
370.197810
 20
348.196273
 30
0.0
  0
SPLINE
  5
268
100
AcDbEntity
  8
0
 62
7
100
AcDbSpline
 70
8
 71
3
 72
8
 73
4
 74
0
 40
0
 40
0
 40
0
 40
0
 40
1
 40
1
 40
1
 40
1
 10
370.197810
 20
348.196273
 30
0.0
 10
369.942990
 20
347.941435
 30
0.0
 10
369.597339
 20
347.798269
 30
0.0
 10
369.236950
 20
347.798269
 30
0.0
  0
SPLINE
  5
269
100
AcDbEntity
  8
0
 62
7
100
AcDbSpline
 70
8
 71
3
 72
8
 73
4
 74
0
 40
0
 40
0
 40
0
 40
0
 40
1
 40
1
 40
1
 40
1
 10
369.236950
 20
350.516010
 30
0.0
 10
369.987440
 20
350.516010
 30
0.0
 10
370.595823
 20
349.907622
 30
0.0
 10
370.595823
 20
349.157139
 30
0.0
  0
SPLINE
  5
26a
100
AcDbEntity
  8
0
 62
7
100
AcDbSpline
 70
8
 71
3
 72
8
 73
4
 74
0
 40
0
 40
0
 40
0
 40
0
 40
1
 40
1
 40
1
 40
1
 10
369.236950
 20
347.798269
 30
0.0
 10
368.876561
 20
347.798269
 30
0.0
 10
368.530935
 20
347.941435
 30
0.0
 10
368.276089
 20
348.196273
 30
0.0
  0
SPLINE
  5
26b
100
AcDbEntity
  8
0
 62
7
100
AcDbSpline
 70
8
 71
3
 72
8
 73
4
 74
0
 40
0
 40
0
 40
0
 40
0
 40
1
 40
1
 40
1
 40
1
 10
367.878076
 20
349.157139
 30
0.0
 10
367.878076
 20
349.907622
 30
0.0
 10
368.486459
 20
350.516010
 30
0.0
 10
369.236950
 20
350.516010
 30
0.0
  0
SPLINE
  5
26c
100
AcDbEntity
  8
0
 62
7
100
AcDbSpline
 70
8
 71
3
 72
8
 73
4
 74
0
 40
0
 40
0
 40
0
 40
0
 40
1
 40
1
 40
1
 40
1
 10
363.854981
 20
355.542218
 30
0.0
 10
364.215370
 20
355.542218
 30
0.0
 10
364.560995
 20
355.399052
 30
0.0
 10
364.815842
 20
355.144213
 30
0.0
  0
SPLINE
  5
26d
100
AcDbEntity
  8
0
 62
7
100
AcDbSpline
 70
8
 71
3
 72
8
 73
4
 74
0
 40
0
 40
0
 40
0
 40
0
 40
1
 40
1
 40
1
 40
1
 10
364.815842
 20
353.222478
 30
0.0
 10
364.560995
 20
352.967639
 30
0.0
 10
364.215370
 20
352.824473
 30
0.0
 10
363.854981
 20
352.824473
 30
0.0
  0
SPLINE
  5
26e
100
AcDbEntity
  8
0
 62
7
100
AcDbSpline
 70
8
 71
3
 72
8
 73
4
 74
0
 40
0
 40
0
 40
0
 40
0
 40
1
 40
1
 40
1
 40
1
 10
364.815842
 20
355.144213
 30
0.0
 10
365.070688
 20
354.889374
 30
0.0
 10
365.213854
 20
354.543741
 30
0.0
 10
365.213854
 20
354.183344
 30
0.0
  0
SPLINE
  5
26f
100
AcDbEntity
  8
0
 62
7
100
AcDbSpline
 70
8
 71
3
 72
8
 73
4
 74
0
 40
0
 40
0
 40
0
 40
0
 40
1
 40
1
 40
1
 40
1
 10
365.213854
 20
354.183344
 30
0.0
 10
365.213854
 20
353.822950
 30
0.0
 10
365.070688
 20
353.477317
 30
0.0
 10
364.815842
 20
353.222478
 30
0.0
  0
SPLINE
  5
270
100
AcDbEntity
  8
0
 62
7
100
AcDbSpline
 70
8
 71
3
 72
8
 73
4
 74
0
 40
0
 40
0
 40
0
 40
0
 40
1
 40
1
 40
1
 40
1
 10
362.496107
 20
354.183344
 30
0.0
 10
362.496107
 20
354.543741
 30
0.0
 10
362.639273
 20
354.889374
 30
0.0
 10
362.894120
 20
355.144213
 30
0.0
  0
SPLINE
  5
271
100
AcDbEntity
  8
0
 62
7
100
AcDbSpline
 70
8
 71
3
 72
8
 73
4
 74
0
 40
0
 40
0
 40
0
 40
0
 40
1
 40
1
 40
1
 40
1
 10
363.854981
 20
352.824473
 30
0.0
 10
363.494592
 20
352.824473
 30
0.0
 10
363.148940
 20
352.967639
 30
0.0
 10
362.894120
 20
353.222478
 30
0.0
  0
SPLINE
  5
272
100
AcDbEntity
  8
0
 62
7
100
AcDbSpline
 70
8
 71
3
 72
8
 73
4
 74
0
 40
0
 40
0
 40
0
 40
0
 40
1
 40
1
 40
1
 40
1
 10
362.894120
 20
353.222478
 30
0.0
 10
362.639273
 20
353.477317
 30
0.0
 10
362.496107
 20
353.822950
 30
0.0
 10
362.496107
 20
354.183344
 30
0.0
  0
SPLINE
  5
273
100
AcDbEntity
  8
0
 62
7
100
AcDbSpline
 70
8
 71
3
 72
8
 73
4
 74
0
 40
0
 40
0
 40
0
 40
0
 40
1
 40
1
 40
1
 40
1
 10
358.054970
 20
355.516000
 30
0.0
 10
358.805461
 20
355.516000
 30
0.0
 10
359.413844
 20
354.907612
 30
0.0
 10
359.413844
 20
354.157129
 30
0.0
  0
SPLINE
  5
274
100
AcDbEntity
  8
0
 62
7
100
AcDbSpline
 70
8
 71
3
 72
8
 73
4
 74
0
 40
0
 40
0
 40
0
 40
0
 40
1
 40
1
 40
1
 40
1
 10
362.894120
 20
355.144213
 30
0.0
 10
363.148940
 20
355.399052
 30
0.0
 10
363.494592
 20
355.542218
 30
0.0
 10
363.854981
 20
355.542218
 30
0.0
  0
SPLINE
  5
275
100
AcDbEntity
  8
0
 62
7
100
AcDbSpline
 70
8
 71
3
 72
8
 73
4
 74
0
 40
0
 40
0
 40
0
 40
0
 40
1
 40
1
 40
1
 40
1
 10
359.413844
 20
354.157129
 30
0.0
 10
359.413844
 20
353.796735
 30
0.0
 10
359.270678
 20
353.451099
 30
0.0
 10
359.015831
 20
353.196263
 30
0.0
  0
SPLINE
  5
276
100
AcDbEntity
  8
0
 62
7
100
AcDbSpline
 70
8
 71
3
 72
8
 73
4
 74
0
 40
0
 40
0
 40
0
 40
0
 40
1
 40
1
 40
1
 40
1
 10
357.094109
 20
353.196263
 30
0.0
 10
356.839263
 20
353.451099
 30
0.0
 10
356.696097
 20
353.796735
 30
0.0
 10
356.696097
 20
354.157129
 30
0.0
  0
SPLINE
  5
277
100
AcDbEntity
  8
0
 62
7
100
AcDbSpline
 70
8
 71
3
 72
8
 73
4
 74
0
 40
0
 40
0
 40
0
 40
0
 40
1
 40
1
 40
1
 40
1
 10
356.696097
 20
354.157129
 30
0.0
 10
356.696097
 20
354.907612
 30
0.0
 10
357.304479
 20
355.516000
 30
0.0
 10
358.054970
 20
355.516000
 30
0.0
  0
SPLINE
  5
278
100
AcDbEntity
  8
0
 62
7
100
AcDbSpline
 70
8
 71
3
 72
8
 73
4
 74
0
 40
0
 40
0
 40
0
 40
0
 40
1
 40
1
 40
1
 40
1
 10
359.015831
 20
353.196263
 30
0.0
 10
358.761011
 20
352.941425
 30
0.0
 10
358.415359
 20
352.798259
 30
0.0
 10
358.054970
 20
352.798259
 30
0.0
  0
SPLINE
  5
279
100
AcDbEntity
  8
0
 62
7
100
AcDbSpline
 70
8
 71
3
 72
8
 73
4
 74
0
 40
0
 40
0
 40
0
 40
0
 40
1
 40
1
 40
1
 40
1
 10
358.054970
 20
352.798259
 30
0.0
 10
357.694581
 20
352.798259
 30
0.0
 10
357.348929
 20
352.941425
 30
0.0
 10
357.094109
 20
353.196263
 30
0.0
  0
SPLINE
  5
27a
100
AcDbEntity
  8
0
 62
7
100
AcDbSpline
 70
8
 71
3
 72
8
 73
4
 74
0
 40
0
 40
0
 40
0
 40
0
 40
1
 40
1
 40
1
 40
1
 10
376.395834
 20
270.436356
 30
0.0
 10
376.395834
 20
270.075962
 30
0.0
 10
376.252668
 20
269.730329
 30
0.0
 10
375.997821
 20
269.475490
 30
0.0
  0
SPLINE
  5
27b
100
AcDbEntity
  8
0
 62
7
100
AcDbSpline
 70
8
 71
3
 72
8
 73
4
 74
0
 40
0
 40
0
 40
0
 40
0
 40
1
 40
1
 40
1
 40
1
 10
375.997821
 20
269.475490
 30
0.0
 10
375.743001
 20
269.220651
 30
0.0
 10
375.397349
 20
269.077485
 30
0.0
 10
375.036960
 20
269.077485
 30
0.0
  0
SPLINE
  5
27c
100
AcDbEntity
  8
0
 62
7
100
AcDbSpline
 70
8
 71
3
 72
8
 73
4
 74
0
 40
0
 40
0
 40
0
 40
0
 40
1
 40
1
 40
1
 40
1
 10
373.678087
 20
270.436356
 30
0.0
 10
373.678087
 20
270.796752
 30
0.0
 10
373.821253
 20
271.142386
 30
0.0
 10
374.076099
 20
271.397225
 30
0.0
  0
SPLINE
  5
27d
100
AcDbEntity
  8
0
 62
7
100
AcDbSpline
 70
8
 71
3
 72
8
 73
4
 74
0
 40
0
 40
0
 40
0
 40
0
 40
1
 40
1
 40
1
 40
1
 10
375.036960
 20
269.077485
 30
0.0
 10
374.676571
 20
269.077485
 30
0.0
 10
374.330920
 20
269.220651
 30
0.0
 10
374.076099
 20
269.475490
 30
0.0
  0
SPLINE
  5
27e
100
AcDbEntity
  8
0
 62
7
100
AcDbSpline
 70
8
 71
3
 72
8
 73
4
 74
0
 40
0
 40
0
 40
0
 40
0
 40
1
 40
1
 40
1
 40
1
 10
374.076099
 20
271.397225
 30
0.0
 10
374.330920
 20
271.652063
 30
0.0
 10
374.676571
 20
271.795229
 30
0.0
 10
375.036960
 20
271.795229
 30
0.0
  0
SPLINE
  5
27f
100
AcDbEntity
  8
0
 62
7
100
AcDbSpline
 70
8
 71
3
 72
8
 73
4
 74
0
 40
0
 40
0
 40
0
 40
0
 40
1
 40
1
 40
1
 40
1
 10
369.236950
 20
271.769010
 30
0.0
 10
369.987440
 20
271.769010
 30
0.0
 10
370.595823
 20
271.160624
 30
0.0
 10
370.595823
 20
270.410141
 30
0.0
  0
SPLINE
  5
280
100
AcDbEntity
  8
0
 62
7
100
AcDbSpline
 70
8
 71
3
 72
8
 73
4
 74
0
 40
0
 40
0
 40
0
 40
0
 40
1
 40
1
 40
1
 40
1
 10
370.197810
 20
269.449272
 30
0.0
 10
369.942990
 20
269.194436
 30
0.0
 10
369.597339
 20
269.051270
 30
0.0
 10
369.236950
 20
269.051270
 30
0.0
  0
SPLINE
  5
281
100
AcDbEntity
  8
0
 62
7
100
AcDbSpline
 70
8
 71
3
 72
8
 73
4
 74
0
 40
0
 40
0
 40
0
 40
0
 40
1
 40
1
 40
1
 40
1
 10
375.036960
 20
271.795229
 30
0.0
 10
375.397349
 20
271.795229
 30
0.0
 10
375.743001
 20
271.652063
 30
0.0
 10
375.997821
 20
271.397225
 30
0.0
  0
SPLINE
  5
282
100
AcDbEntity
  8
0
 62
7
100
AcDbSpline
 70
8
 71
3
 72
8
 73
4
 74
0
 40
0
 40
0
 40
0
 40
0
 40
1
 40
1
 40
1
 40
1
 10
375.997821
 20
271.397225
 30
0.0
 10
376.252668
 20
271.142386
 30
0.0
 10
376.395834
 20
270.796752
 30
0.0
 10
376.395834
 20
270.436356
 30
0.0
  0
SPLINE
  5
283
100
AcDbEntity
  8
0
 62
7
100
AcDbSpline
 70
8
 71
3
 72
8
 73
4
 74
0
 40
0
 40
0
 40
0
 40
0
 40
1
 40
1
 40
1
 40
1
 10
374.076099
 20
269.475490
 30
0.0
 10
373.821253
 20
269.730329
 30
0.0
 10
373.678087
 20
270.075962
 30
0.0
 10
373.678087
 20
270.436356
 30
0.0
  0
SPLINE
  5
284
100
AcDbEntity
  8
0
 62
7
100
AcDbSpline
 70
8
 71
3
 72
8
 73
4
 74
0
 40
0
 40
0
 40
0
 40
0
 40
1
 40
1
 40
1
 40
1
 10
370.595823
 20
270.410141
 30
0.0
 10
370.595823
 20
270.049747
 30
0.0
 10
370.452657
 20
269.704111
 30
0.0
 10
370.197810
 20
269.449272
 30
0.0
  0
SPLINE
  5
285
100
AcDbEntity
  8
0
 62
7
100
AcDbSpline
 70
8
 71
3
 72
8
 73
4
 74
0
 40
0
 40
0
 40
0
 40
0
 40
1
 40
1
 40
1
 40
1
 10
369.236950
 20
269.051270
 30
0.0
 10
368.876561
 20
269.051270
 30
0.0
 10
368.530935
 20
269.194436
 30
0.0
 10
368.276089
 20
269.449272
 30
0.0
  0
SPLINE
  5
286
100
AcDbEntity
  8
0
 62
7
100
AcDbSpline
 70
8
 71
3
 72
8
 73
4
 74
0
 40
0
 40
0
 40
0
 40
0
 40
1
 40
1
 40
1
 40
1
 10
362.496107
 20
118.486307
 30
0.0
 10
362.496107
 20
118.846701
 30
0.0
 10
362.639273
 20
119.192337
 30
0.0
 10
362.894120
 20
119.447175
 30
0.0
  0
SPLINE
  5
287
100
AcDbEntity
  8
0
 62
7
100
AcDbSpline
 70
8
 71
3
 72
8
 73
4
 74
0
 40
0
 40
0
 40
0
 40
0
 40
1
 40
1
 40
1
 40
1
 10
362.894120
 20
117.525438
 30
0.0
 10
362.639273
 20
117.780276
 30
0.0
 10
362.496107
 20
118.125912
 30
0.0
 10
362.496107
 20
118.486307
 30
0.0
  0
SPLINE
  5
288
100
AcDbEntity
  8
0
 62
7
100
AcDbSpline
 70
8
 71
3
 72
8
 73
4
 74
0
 40
0
 40
0
 40
0
 40
0
 40
1
 40
1
 40
1
 40
1
 10
363.854981
 20
117.127436
 30
0.0
 10
363.494592
 20
117.127436
 30
0.0
 10
363.148940
 20
117.270602
 30
0.0
 10
362.894120
 20
117.525438
 30
0.0
  0
SPLINE
  5
289
100
AcDbEntity
  8
0
 62
7
100
AcDbSpline
 70
8
 71
3
 72
8
 73
4
 74
0
 40
0
 40
0
 40
0
 40
0
 40
1
 40
1
 40
1
 40
1
 10
60.672294
 20
404.382441
 30
0.0
 10
60.126205
 20
404.382441
 30
0.0
 10
59.602483
 20
404.599373
 30
0.0
 10
59.216339
 20
404.985517
 30
0.0
  0
SPLINE
  5
28a
100
AcDbEntity
  8
0
 62
7
100
AcDbSpline
 70
8
 71
3
 72
8
 73
4
 74
0
 40
0
 40
0
 40
0
 40
0
 40
1
 40
1
 40
1
 40
1
 10
517.425312
 20
349.311468
 30
0.0
 10
517.425312
 20
348.765379
 30
0.0
 10
517.208380
 20
348.241655
 30
0.0
 10
516.822247
 20
347.855511
 30
0.0
  0
SPLINE
  5
28b
100
AcDbEntity
  8
0
 62
7
100
AcDbSpline
 70
8
 71
3
 72
8
 73
4
 74
0
 40
0
 40
0
 40
0
 40
0
 40
1
 40
1
 40
1
 40
1
 10
62.128246
 20
407.897423
 30
0.0
 10
62.514389
 20
407.511279
 30
0.0
 10
62.731324
 20
406.987558
 30
0.0
 10
62.731324
 20
406.441468
 30
0.0
  0
SPLINE
  5
28c
100
AcDbEntity
  8
0
 62
7
100
AcDbSpline
 70
8
 71
3
 72
8
 73
4
 74
0
 40
0
 40
0
 40
0
 40
0
 40
1
 40
1
 40
1
 40
1
 10
515.366272
 20
347.252438
 30
0.0
 10
514.820198
 20
347.252438
 30
0.0
 10
514.296455
 20
347.469368
 30
0.0
 10
513.910323
 20
347.855511
 30
0.0
  0
SPLINE
  5
28d
100
AcDbEntity
  8
0
 62
7
100
AcDbSpline
 70
8
 71
3
 72
8
 73
4
 74
0
 40
0
 40
0
 40
0
 40
0
 40
1
 40
1
 40
1
 40
1
 10
461.495332
 20
349.311468
 30
0.0
 10
461.495332
 20
348.765379
 30
0.0
 10
461.278400
 20
348.241655
 30
0.0
 10
460.892241
 20
347.855511
 30
0.0
  0
SPLINE
  5
28e
100
AcDbEntity
  8
0
 62
7
100
AcDbSpline
 70
8
 71
3
 72
8
 73
4
 74
0
 40
0
 40
0
 40
0
 40
0
 40
1
 40
1
 40
1
 40
1
 10
59.216339
 20
407.897423
 30
0.0
 10
59.602483
 20
408.283566
 30
0.0
 10
60.126205
 20
408.500498
 30
0.0
 10
60.672294
 20
408.500498
 30
0.0
  0
SPLINE
  5
28f
100
AcDbEntity
  8
0
 62
7
100
AcDbSpline
 70
8
 71
3
 72
8
 73
4
 74
0
 40
0
 40
0
 40
0
 40
0
 40
1
 40
1
 40
1
 40
1
 10
516.822247
 20
350.767425
 30
0.0
 10
517.208380
 20
350.381282
 30
0.0
 10
517.425312
 20
349.857558
 30
0.0
 10
517.425312
 20
349.311468
 30
0.0
  0
SPLINE
  5
290
100
AcDbEntity
  8
0
 62
7
100
AcDbSpline
 70
8
 71
3
 72
8
 73
4
 74
0
 40
0
 40
0
 40
0
 40
0
 40
1
 40
1
 40
1
 40
1
 10
83.721320
 20
349.311468
 30
0.0
 10
83.721320
 20
348.765379
 30
0.0
 10
83.504388
 20
348.241657
 30
0.0
 10
83.118245
 20
347.855514
 30
0.0
  0
SPLINE
  5
291
100
AcDbEntity
  8
0
 62
7
100
AcDbSpline
 70
8
 71
3
 72
8
 73
4
 74
0
 40
0
 40
0
 40
0
 40
0
 40
1
 40
1
 40
1
 40
1
 10
457.980343
 20
347.855511
 30
0.0
 10
457.594183
 20
348.241655
 30
0.0
 10
457.377252
 20
348.765379
 30
0.0
 10
457.377252
 20
349.311468
 30
0.0
  0
SPLINE
  5
292
100
AcDbEntity
  8
0
 62
7
100
AcDbSpline
 70
8
 71
3
 72
8
 73
4
 74
0
 40
0
 40
0
 40
0
 40
0
 40
1
 40
1
 40
1
 40
1
 10
516.822247
 20
347.855511
 30
0.0
 10
516.436088
 20
347.469368
 30
0.0
 10
515.912372
 20
347.252438
 30
0.0
 10
515.366272
 20
347.252438
 30
0.0
  0
SPLINE
  5
293
100
AcDbEntity
  8
0
 62
7
100
AcDbSpline
 70
8
 71
3
 72
8
 73
4
 74
0
 40
0
 40
0
 40
0
 40
0
 40
1
 40
1
 40
1
 40
1
 10
58.613267
 20
406.441468
 30
0.0
 10
58.613267
 20
406.987558
 30
0.0
 10
58.830199
 20
407.511279
 30
0.0
 10
59.216339
 20
407.897423
 30
0.0
  0
SPLINE
  5
294
100
AcDbEntity
  8
0
 62
7
100
AcDbSpline
 70
8
 71
3
 72
8
 73
4
 74
0
 40
0
 40
0
 40
0
 40
0
 40
1
 40
1
 40
1
 40
1
 10
457.377252
 20
349.311468
 30
0.0
 10
457.377252
 20
349.857558
 30
0.0
 10
457.594183
 20
350.381282
 30
0.0
 10
457.980343
 20
350.767425
 30
0.0
  0
SPLINE
  5
295
100
AcDbEntity
  8
0
 62
7
100
AcDbSpline
 70
8
 71
3
 72
8
 73
4
 74
0
 40
0
 40
0
 40
0
 40
0
 40
1
 40
1
 40
1
 40
1
 10
459.436292
 20
351.370495
 30
0.0
 10
459.982392
 20
351.370498
 30
0.0
 10
460.506108
 20
351.153566
 30
0.0
 10
460.892241
 20
350.767425
 30
0.0
  0
SPLINE
  5
296
100
AcDbEntity
  8
0
 62
7
100
AcDbSpline
 70
8
 71
3
 72
8
 73
4
 74
0
 40
0
 40
0
 40
0
 40
0
 40
1
 40
1
 40
1
 40
1
 10
460.892241
 20
350.767425
 30
0.0
 10
461.278400
 20
350.381282
 30
0.0
 10
461.495332
 20
349.857558
 30
0.0
 10
461.495332
 20
349.311468
 30
0.0
  0
SPLINE
  5
297
100
AcDbEntity
  8
0
 62
7
100
AcDbSpline
 70
8
 71
3
 72
8
 73
4
 74
0
 40
0
 40
0
 40
0
 40
0
 40
1
 40
1
 40
1
 40
1
 10
59.216339
 20
404.985517
 30
0.0
 10
58.830199
 20
405.371660
 30
0.0
 10
58.613267
 20
405.895382
 30
0.0
 10
58.613267
 20
406.441468
 30
0.0
  0
SPLINE
  5
298
100
AcDbEntity
  8
0
 62
7
100
AcDbSpline
 70
8
 71
3
 72
8
 73
4
 74
0
 40
0
 40
0
 40
0
 40
0
 40
1
 40
1
 40
1
 40
1
 10
513.910323
 20
347.855511
 30
0.0
 10
513.524163
 20
348.241655
 30
0.0
 10
513.307231
 20
348.765379
 30
0.0
 10
513.307231
 20
349.311468
 30
0.0
  0
SPLINE
  5
299
100
AcDbEntity
  8
0
 62
7
100
AcDbSpline
 70
8
 71
3
 72
8
 73
4
 74
0
 40
0
 40
0
 40
0
 40
0
 40
1
 40
1
 40
1
 40
1
 10
523.732264
 20
370.517423
 30
0.0
 10
524.118397
 20
370.131279
 30
0.0
 10
524.335329
 20
369.607555
 30
0.0
 10
524.335329
 20
369.061466
 30
0.0
  0
SPLINE
  5
29a
100
AcDbEntity
  8
0
 62
7
100
AcDbSpline
 70
8
 71
3
 72
8
 73
4
 74
0
 40
0
 40
0
 40
0
 40
0
 40
1
 40
1
 40
1
 40
1
 10
515.366272
 20
351.370495
 30
0.0
 10
515.912372
 20
351.370498
 30
0.0
 10
516.436088
 20
351.153566
 30
0.0
 10
516.822247
 20
350.767425
 30
0.0
  0
SPLINE
  5
29b
100
AcDbEntity
  8
0
 62
7
100
AcDbSpline
 70
8
 71
3
 72
8
 73
4
 74
0
 40
0
 40
0
 40
0
 40
0
 40
1
 40
1
 40
1
 40
1
 10
513.307231
 20
349.311468
 30
0.0
 10
513.307231
 20
349.857558
 30
0.0
 10
513.524163
 20
350.381282
 30
0.0
 10
513.910323
 20
350.767425
 30
0.0
  0
SPLINE
  5
29c
100
AcDbEntity
  8
0
 62
7
100
AcDbSpline
 70
8
 71
3
 72
8
 73
4
 74
0
 40
0
 40
0
 40
0
 40
0
 40
1
 40
1
 40
1
 40
1
 10
459.436292
 20
347.252438
 30
0.0
 10
458.890218
 20
347.252438
 30
0.0
 10
458.366476
 20
347.469368
 30
0.0
 10
457.980343
 20
347.855511
 30
0.0
  0
SPLINE
  5
29d
100
AcDbEntity
  8
0
 62
7
100
AcDbSpline
 70
8
 71
3
 72
8
 73
4
 74
0
 40
0
 40
0
 40
0
 40
0
 40
1
 40
1
 40
1
 40
1
 10
431.785323
 20
406.441468
 30
0.0
 10
431.785323
 20
405.895379
 30
0.0
 10
431.568391
 20
405.371657
 30
0.0
 10
431.182258
 20
404.985514
 30
0.0
  0
SPLINE
  5
29e
100
AcDbEntity
  8
0
 62
7
100
AcDbSpline
 70
8
 71
3
 72
8
 73
4
 74
0
 40
0
 40
0
 40
0
 40
0
 40
1
 40
1
 40
1
 40
1
 10
460.892241
 20
347.855511
 30
0.0
 10
460.506108
 20
347.469368
 30
0.0
 10
459.982392
 20
347.252438
 30
0.0
 10
459.436292
 20
347.252438
 30
0.0
  0
SPLINE
  5
29f
100
AcDbEntity
  8
0
 62
7
100
AcDbSpline
 70
8
 71
3
 72
8
 73
4
 74
0
 40
0
 40
0
 40
0
 40
0
 40
1
 40
1
 40
1
 40
1
 10
513.910323
 20
350.767425
 30
0.0
 10
514.296455
 20
351.153566
 30
0.0
 10
514.820198
 20
351.370498
 30
0.0
 10
515.366272
 20
351.370495
 30
0.0
  0
SPLINE
  5
2a0
100
AcDbEntity
  8
0
 62
7
100
AcDbSpline
 70
8
 71
3
 72
8
 73
4
 74
0
 40
0
 40
0
 40
0
 40
0
 40
1
 40
1
 40
1
 40
1
 10
457.980343
 20
350.767425
 30
0.0
 10
458.366476
 20
351.153566
 30
0.0
 10
458.890218
 20
351.370498
 30
0.0
 10
459.436292
 20
351.370495
 30
0.0
  0
SPLINE
  5
2a1
100
AcDbEntity
  8
0
 62
7
100
AcDbSpline
 70
8
 71
3
 72
8
 73
4
 74
0
 40
0
 40
0
 40
0
 40
0
 40
1
 40
1
 40
1
 40
1
 10
429.726282
 20
404.382441
 30
0.0
 10
429.180209
 20
404.382439
 30
0.0
 10
428.656466
 20
404.599370
 30
0.0
 10
428.270333
 20
404.985514
 30
0.0
  0
SPLINE
  5
2a2
100
AcDbEntity
  8
0
 62
7
100
AcDbSpline
 70
8
 71
3
 72
8
 73
4
 74
0
 40
0
 40
0
 40
0
 40
0
 40
1
 40
1
 40
1
 40
1
 10
431.182258
 20
404.985514
 30
0.0
 10
430.796099
 20
404.599370
 30
0.0
 10
430.272382
 20
404.382439
 30
0.0
 10
429.726282
 20
404.382441
 30
0.0
  0
SPLINE
  5
2a3
100
AcDbEntity
  8
0
 62
7
100
AcDbSpline
 70
8
 71
3
 72
8
 73
4
 74
0
 40
0
 40
0
 40
0
 40
0
 40
1
 40
1
 40
1
 40
1
 10
60.672294
 20
408.500498
 30
0.0
 10
61.218383
 20
408.500498
 30
0.0
 10
61.742105
 20
408.283566
 30
0.0
 10
62.128246
 20
407.897423
 30
0.0
  0
SPLINE
  5
2a4
100
AcDbEntity
  8
0
 62
7
100
AcDbSpline
 70
8
 71
3
 72
8
 73
4
 74
0
 40
0
 40
0
 40
0
 40
0
 40
1
 40
1
 40
1
 40
1
 10
429.726282
 20
408.500498
 30
0.0
 10
430.272382
 20
408.500501
 30
0.0
 10
430.796099
 20
408.283569
 30
0.0
 10
431.182258
 20
407.897425
 30
0.0
  0
SPLINE
  5
2a5
100
AcDbEntity
  8
0
 62
7
100
AcDbSpline
 70
8
 71
3
 72
8
 73
4
 74
0
 40
0
 40
0
 40
0
 40
0
 40
1
 40
1
 40
1
 40
1
 10
431.182258
 20
407.897425
 30
0.0
 10
431.568391
 20
407.511282
 30
0.0
 10
431.785323
 20
406.987560
 30
0.0
 10
431.785323
 20
406.441468
 30
0.0
  0
SPLINE
  5
2a6
100
AcDbEntity
  8
0
 62
7
100
AcDbSpline
 70
8
 71
3
 72
8
 73
4
 74
0
 40
0
 40
0
 40
0
 40
0
 40
1
 40
1
 40
1
 40
1
 10
428.270333
 20
404.985514
 30
0.0
 10
427.884200
 20
405.371657
 30
0.0
 10
427.667268
 20
405.895379
 30
0.0
 10
427.667268
 20
406.441468
 30
0.0
  0
SPLINE
  5
2a7
100
AcDbEntity
  8
0
 62
7
100
AcDbSpline
 70
8
 71
3
 72
8
 73
4
 74
0
 40
0
 40
0
 40
0
 40
0
 40
1
 40
1
 40
1
 40
1
 10
427.667268
 20
406.441468
 30
0.0
 10
427.667268
 20
406.987560
 30
0.0
 10
427.884200
 20
407.511282
 30
0.0
 10
428.270333
 20
407.897425
 30
0.0
  0
SPLINE
  5
2a8
100
AcDbEntity
  8
0
 62
7
100
AcDbSpline
 70
8
 71
3
 72
8
 73
4
 74
0
 40
0
 40
0
 40
0
 40
0
 40
1
 40
1
 40
1
 40
1
 10
431.785323
 20
488.942468
 30
0.0
 10
431.785323
 20
488.396378
 30
0.0
 10
431.568391
 20
487.872654
 30
0.0
 10
431.182258
 20
487.486510
 30
0.0
  0
SPLINE
  5
2a9
100
AcDbEntity
  8
0
 62
7
100
AcDbSpline
 70
8
 71
3
 72
8
 73
4
 74
0
 40
0
 40
0
 40
0
 40
0
 40
1
 40
1
 40
1
 40
1
 10
428.270333
 20
407.897425
 30
0.0
 10
428.656466
 20
408.283569
 30
0.0
 10
429.180209
 20
408.500501
 30
0.0
 10
429.726282
 20
408.500498
 30
0.0
  0
LWPOLYLINE
  5
2aa
100
AcDbEntity
  8
0
 62
7
100
AcDbPolyline
 90
2
 70
0
 10
221.168962
 20
486.854304
 30
0.0
 10
221.168962
 20
496.854306
 30
0.0
  0
SPLINE
  5
2ab
100
AcDbEntity
  8
0
 62
7
100
AcDbSpline
 70
8
 71
3
 72
8
 73
4
 74
0
 40
0
 40
0
 40
0
 40
0
 40
1
 40
1
 40
1
 40
1
 10
219.109961
 20
484.794997
 30
0.0
 10
217.972721
 20
484.795081
 30
0.0
 10
217.050873
 20
485.717064
 30
0.0
 10
217.050961
 20
486.854304
 30
0.0
  0
SPLINE
  5
2ac
100
AcDbEntity
  8
0
 62
7
100
AcDbSpline
 70
8
 71
3
 72
8
 73
4
 74
0
 40
0
 40
0
 40
0
 40
0
 40
1
 40
1
 40
1
 40
1
 10
221.168962
 20
486.854304
 30
0.0
 10
221.169049
 20
485.717064
 30
0.0
 10
220.247201
 20
484.795081
 30
0.0
 10
219.109961
 20
484.794997
 30
0.0
  0
SPLINE
  5
2ad
100
AcDbEntity
  8
0
 62
7
100
AcDbSpline
 70
8
 71
3
 72
8
 73
4
 74
0
 40
0
 40
0
 40
0
 40
0
 40
1
 40
1
 40
1
 40
1
 10
259.964070
 20
393.969235
 30
0.0
 10
260.218909
 20
394.224071
 30
0.0
 10
260.564542
 20
394.367240
 30
0.0
 10
260.924936
 20
394.367240
 30
0.0
  0
SPLINE
  5
2ae
100
AcDbEntity
  8
0
 62
7
100
AcDbSpline
 70
8
 71
3
 72
8
 73
4
 74
0
 40
0
 40
0
 40
0
 40
0
 40
1
 40
1
 40
1
 40
1
 10
259.566065
 20
393.008366
 30
0.0
 10
259.566065
 20
393.368760
 30
0.0
 10
259.709231
 20
393.714396
 30
0.0
 10
259.964070
 20
393.969235
 30
0.0
  0
SPLINE
  5
2af
100
AcDbEntity
  8
0
 62
7
100
AcDbSpline
 70
8
 71
3
 72
8
 73
4
 74
0
 40
0
 40
0
 40
0
 40
0
 40
1
 40
1
 40
1
 40
1
 10
312.707292
 20
370.202127
 30
0.0
 10
312.707292
 20
370.562521
 30
0.0
 10
312.850458
 20
370.908157
 30
0.0
 10
313.105278
 20
371.162996
 30
0.0
  0
SPLINE
  5
2b0
100
AcDbEntity
  8
0
 62
7
100
AcDbSpline
 70
8
 71
3
 72
8
 73
4
 74
0
 40
0
 40
0
 40
0
 40
0
 40
1
 40
1
 40
1
 40
1
 10
256.085800
 20
392.021282
 30
0.0
 10
255.830961
 20
391.766446
 30
0.0
 10
255.485328
 20
391.623278
 30
0.0
 10
255.124931
 20
391.623280
 30
0.0
  0
SPLINE
  5
2b1
100
AcDbEntity
  8
0
 62
7
100
AcDbSpline
 70
8
 71
3
 72
8
 73
4
 74
0
 40
0
 40
0
 40
0
 40
0
 40
1
 40
1
 40
1
 40
1
 10
249.746931
 20
396.623270
 30
0.0
 10
248.996448
 20
396.623270
 30
0.0
 10
248.388062
 20
397.231659
 30
0.0
 10
248.388062
 20
397.982141
 30
0.0
  0
SPLINE
  5
2b2
100
AcDbEntity
  8
0
 62
7
100
AcDbSpline
 70
8
 71
3
 72
8
 73
4
 74
0
 40
0
 40
0
 40
0
 40
0
 40
1
 40
1
 40
1
 40
1
 10
249.746931
 20
399.341012
 30
0.0
 10
250.107325
 20
399.341012
 30
0.0
 10
250.452961
 20
399.197846
 30
0.0
 10
250.707799
 20
398.943007
 30
0.0
  0
SPLINE
  5
2b3
100
AcDbEntity
  8
0
 62
7
100
AcDbSpline
 70
8
 71
3
 72
8
 73
4
 74
0
 40
0
 40
0
 40
0
 40
0
 40
1
 40
1
 40
1
 40
1
 10
242.107807
 20
397.021272
 30
0.0
 10
241.852968
 20
396.766436
 30
0.0
 10
241.507335
 20
396.623268
 30
0.0
 10
241.146940
 20
396.623270
 30
0.0
  0
SPLINE
  5
2b4
100
AcDbEntity
  8
0
 62
7
100
AcDbSpline
 70
8
 71
3
 72
8
 73
4
 74
0
 40
0
 40
0
 40
0
 40
0
 40
1
 40
1
 40
1
 40
1
 10
242.505811
 20
397.982141
 30
0.0
 10
242.505811
 20
397.621744
 30
0.0
 10
242.362645
 20
397.276111
 30
0.0
 10
242.107807
 20
397.021272
 30
0.0
  0
SPLINE
  5
2b5
100
AcDbEntity
  8
0
 62
7
100
AcDbSpline
 70
8
 71
3
 72
8
 73
4
 74
0
 40
0
 40
0
 40
0
 40
0
 40
1
 40
1
 40
1
 40
1
 10
254.164065
 20
392.021282
 30
0.0
 10
253.909226
 20
392.276121
 30
0.0
 10
253.766060
 20
392.621754
 30
0.0
 10
253.766060
 20
392.982151
 30
0.0
  0
SPLINE
  5
2b6
100
AcDbEntity
  8
0
 62
7
100
AcDbSpline
 70
8
 71
3
 72
8
 73
4
 74
0
 40
0
 40
0
 40
0
 40
0
 40
1
 40
1
 40
1
 40
1
 10
240.186072
 20
398.943007
 30
0.0
 10
240.440910
 20
399.197846
 30
0.0
 10
240.786543
 20
399.341012
 30
0.0
 10
241.146940
 20
399.341012
 30
0.0
  0
SPLINE
  5
2b7
100
AcDbEntity
  8
0
 62
7
100
AcDbSpline
 70
8
 71
3
 72
8
 73
4
 74
0
 40
0
 40
0
 40
0
 40
0
 40
1
 40
1
 40
1
 40
1
 10
255.124931
 20
394.341019
 30
0.0
 10
255.875413
 20
394.341019
 30
0.0
 10
256.483802
 20
393.732634
 30
0.0
 10
256.483804
 20
392.982151
 30
0.0
  0
SPLINE
  5
2b8
100
AcDbEntity
  8
0
 62
7
100
AcDbSpline
 70
8
 71
3
 72
8
 73
4
 74
0
 40
0
 40
0
 40
0
 40
0
 40
1
 40
1
 40
1
 40
1
 10
315.425012
 20
370.202127
 30
0.0
 10
315.425012
 20
369.841733
 30
0.0
 10
315.281846
 20
369.496097
 30
0.0
 10
315.027026
 20
369.241258
 30
0.0
  0
SPLINE
  5
2b9
100
AcDbEntity
  8
0
 62
7
100
AcDbSpline
 70
8
 71
3
 72
8
 73
4
 74
0
 40
0
 40
0
 40
0
 40
0
 40
1
 40
1
 40
1
 40
1
 10
250.707799
 20
397.021272
 30
0.0
 10
250.452961
 20
396.766436
 30
0.0
 10
250.107325
 20
396.623268
 30
0.0
 10
249.746931
 20
396.623270
 30
0.0
  0
SPLINE
  5
2ba
100
AcDbEntity
  8
0
 62
7
100
AcDbSpline
 70
8
 71
3
 72
8
 73
4
 74
0
 40
0
 40
0
 40
0
 40
0
 40
1
 40
1
 40
1
 40
1
 10
255.124931
 20
391.623280
 30
0.0
 10
254.764537
 20
391.623278
 30
0.0
 10
254.418901
 20
391.766446
 30
0.0
 10
254.164065
 20
392.021282
 30
0.0
  0
SPLINE
  5
2bb
100
AcDbEntity
  8
0
 62
7
100
AcDbSpline
 70
8
 71
3
 72
8
 73
4
 74
0
 40
0
 40
0
 40
0
 40
0
 40
1
 40
1
 40
1
 40
1
 10
314.066139
 20
368.843256
 30
0.0
 10
313.705750
 20
368.843253
 30
0.0
 10
313.360125
 20
368.986422
 30
0.0
 10
313.105278
 20
369.241258
 30
0.0
  0
SPLINE
  5
2bc
100
AcDbEntity
  8
0
 62
7
100
AcDbSpline
 70
8
 71
3
 72
8
 73
4
 74
0
 40
0
 40
0
 40
0
 40
0
 40
1
 40
1
 40
1
 40
1
 10
315.027026
 20
369.241258
 30
0.0
 10
314.772179
 20
368.986422
 30
0.0
 10
314.426554
 20
368.843253
 30
0.0
 10
314.066139
 20
368.843256
 30
0.0
  0
SPLINE
  5
2bd
100
AcDbEntity
  8
0
 62
7
100
AcDbSpline
 70
8
 71
3
 72
8
 73
4
 74
0
 40
0
 40
0
 40
0
 40
0
 40
1
 40
1
 40
1
 40
1
 10
256.483804
 20
392.982151
 30
0.0
 10
256.483804
 20
392.621754
 30
0.0
 10
256.340638
 20
392.276121
 30
0.0
 10
256.085800
 20
392.021282
 30
0.0
  0
SPLINE
  5
2be
100
AcDbEntity
  8
0
 62
7
100
AcDbSpline
 70
8
 71
3
 72
8
 73
4
 74
0
 40
0
 40
0
 40
0
 40
0
 40
1
 40
1
 40
1
 40
1
 10
251.105801
 20
397.982141
 30
0.0
 10
251.105801
 20
397.621744
 30
0.0
 10
250.962635
 20
397.276111
 30
0.0
 10
250.707799
 20
397.021272
 30
0.0
  0
SPLINE
  5
2bf
100
AcDbEntity
  8
0
 62
7
100
AcDbSpline
 70
8
 71
3
 72
8
 73
4
 74
0
 40
0
 40
0
 40
0
 40
0
 40
1
 40
1
 40
1
 40
1
 10
250.707799
 20
398.943007
 30
0.0
 10
250.962635
 20
398.688171
 30
0.0
 10
251.105801
 20
398.342535
 30
0.0
 10
251.105801
 20
397.982141
 30
0.0
  0
SPLINE
  5
2c0
100
AcDbEntity
  8
0
 62
7
100
AcDbSpline
 70
8
 71
3
 72
8
 73
4
 74
0
 40
0
 40
0
 40
0
 40
0
 40
1
 40
1
 40
1
 40
1
 10
241.146940
 20
399.341012
 30
0.0
 10
241.507335
 20
399.341012
 30
0.0
 10
241.852968
 20
399.197846
 30
0.0
 10
242.107807
 20
398.943007
 30
0.0
  0
SPLINE
  5
2c1
100
AcDbEntity
  8
0
 62
7
100
AcDbSpline
 70
8
 71
3
 72
8
 73
4
 74
0
 40
0
 40
0
 40
0
 40
0
 40
1
 40
1
 40
1
 40
1
 10
248.388062
 20
397.982141
 30
0.0
 10
248.388062
 20
398.732624
 30
0.0
 10
248.996448
 20
399.341012
 30
0.0
 10
249.746931
 20
399.341012
 30
0.0
  0
SPLINE
  5
2c2
100
AcDbEntity
  8
0
 62
7
100
AcDbSpline
 70
8
 71
3
 72
8
 73
4
 74
0
 40
0
 40
0
 40
0
 40
0
 40
1
 40
1
 40
1
 40
1
 10
240.186072
 20
397.021272
 30
0.0
 10
239.931233
 20
397.276111
 30
0.0
 10
239.788067
 20
397.621744
 30
0.0
 10
239.788067
 20
397.982141
 30
0.0
  0
SPLINE
  5
2c3
100
AcDbEntity
  8
0
 62
7
100
AcDbSpline
 70
8
 71
3
 72
8
 73
4
 74
0
 40
0
 40
0
 40
0
 40
0
 40
1
 40
1
 40
1
 40
1
 10
239.788067
 20
397.982141
 30
0.0
 10
239.788067
 20
398.342535
 30
0.0
 10
239.931233
 20
398.688171
 30
0.0
 10
240.186072
 20
398.943007
 30
0.0
  0
SPLINE
  5
2c4
100
AcDbEntity
  8
0
 62
7
100
AcDbSpline
 70
8
 71
3
 72
8
 73
4
 74
0
 40
0
 40
0
 40
0
 40
0
 40
1
 40
1
 40
1
 40
1
 10
241.146940
 20
396.623270
 30
0.0
 10
240.786543
 20
396.623268
 30
0.0
 10
240.440910
 20
396.766436
 30
0.0
 10
240.186072
 20
397.021272
 30
0.0
  0
SPLINE
  5
2c5
100
AcDbEntity
  8
0
 62
7
100
AcDbSpline
 70
8
 71
3
 72
8
 73
4
 74
0
 40
0
 40
0
 40
0
 40
0
 40
1
 40
1
 40
1
 40
1
 10
242.107807
 20
398.943007
 30
0.0
 10
242.362645
 20
398.688171
 30
0.0
 10
242.505811
 20
398.342535
 30
0.0
 10
242.505811
 20
397.982141
 30
0.0
  0
SPLINE
  5
2c6
100
AcDbEntity
  8
0
 62
7
100
AcDbSpline
 70
8
 71
3
 72
8
 73
4
 74
0
 40
0
 40
0
 40
0
 40
0
 40
1
 40
1
 40
1
 40
1
 10
313.105278
 20
369.241258
 30
0.0
 10
312.850458
 20
369.496097
 30
0.0
 10
312.707292
 20
369.841733
 30
0.0
 10
312.707292
 20
370.202127
 30
0.0
  0
SPLINE
  5
2c7
100
AcDbEntity
  8
0
 62
7
100
AcDbSpline
 70
8
 71
3
 72
8
 73
4
 74
0
 40
0
 40
0
 40
0
 40
0
 40
1
 40
1
 40
1
 40
1
 10
313.105278
 20
371.162996
 30
0.0
 10
313.360125
 20
371.417832
 30
0.0
 10
313.705750
 20
371.560998
 30
0.0
 10
314.066139
 20
371.560998
 30
0.0
  0
SPLINE
  5
2c8
100
AcDbEntity
  8
0
 62
7
100
AcDbSpline
 70
8
 71
3
 72
8
 73
4
 74
0
 40
0
 40
0
 40
0
 40
0
 40
1
 40
1
 40
1
 40
1
 10
253.766060
 20
392.982151
 30
0.0
 10
253.766063
 20
393.732634
 30
0.0
 10
254.374448
 20
394.341019
 30
0.0
 10
255.124931
 20
394.341019
 30
0.0
  0
SPLINE
  5
2c9
100
AcDbEntity
  8
0
 62
7
100
AcDbSpline
 70
8
 71
3
 72
8
 73
4
 74
0
 40
0
 40
0
 40
0
 40
0
 40
1
 40
1
 40
1
 40
1
 10
314.066139
 20
371.560998
 30
0.0
 10
314.426554
 20
371.560998
 30
0.0
 10
314.772179
 20
371.417832
 30
0.0
 10
315.027026
 20
371.162996
 30
0.0
  0
SPLINE
  5
2ca
100
AcDbEntity
  8
0
 62
7
100
AcDbSpline
 70
8
 71
3
 72
8
 73
4
 74
0
 40
0
 40
0
 40
0
 40
0
 40
1
 40
1
 40
1
 40
1
 10
315.398766
 20
376.002132
 30
0.0
 10
315.398766
 20
375.641738
 30
0.0
 10
315.255600
 20
375.296102
 30
0.0
 10
315.000779
 20
375.041263
 30
0.0
  0
SPLINE
  5
2cb
100
AcDbEntity
  8
0
 62
7
100
AcDbSpline
 70
8
 71
3
 72
8
 73
4
 74
0
 40
0
 40
0
 40
0
 40
0
 40
1
 40
1
 40
1
 40
1
 10
315.000779
 20
375.041263
 30
0.0
 10
314.745933
 20
374.786427
 30
0.0
 10
314.400308
 20
374.643261
 30
0.0
 10
314.039892
 20
374.643261
 30
0.0
  0
SPLINE
  5
2cc
100
AcDbEntity
  8
0
 62
7
100
AcDbSpline
 70
8
 71
3
 72
8
 73
4
 74
0
 40
0
 40
0
 40
0
 40
0
 40
1
 40
1
 40
1
 40
1
 10
314.039892
 20
374.643261
 30
0.0
 10
313.679503
 20
374.643261
 30
0.0
 10
313.333878
 20
374.786427
 30
0.0
 10
313.079031
 20
375.041263
 30
0.0
  0
SPLINE
  5
2cd
100
AcDbEntity
  8
0
 62
7
100
AcDbSpline
 70
8
 71
3
 72
8
 73
4
 74
0
 40
0
 40
0
 40
0
 40
0
 40
1
 40
1
 40
1
 40
1
 10
313.079031
 20
375.041263
 30
0.0
 10
312.824211
 20
375.296102
 30
0.0
 10
312.681045
 20
375.641738
 30
0.0
 10
312.681045
 20
376.002132
 30
0.0
  0
SPLINE
  5
2ce
100
AcDbEntity
  8
0
 62
7
100
AcDbSpline
 70
8
 71
3
 72
8
 73
4
 74
0
 40
0
 40
0
 40
0
 40
0
 40
1
 40
1
 40
1
 40
1
 10
315.027026
 20
371.162996
 30
0.0
 10
315.281846
 20
370.908157
 30
0.0
 10
315.425012
 20
370.562521
 30
0.0
 10
315.425012
 20
370.202127
 30
0.0
  0
SPLINE
  5
2cf
100
AcDbEntity
  8
0
 62
7
100
AcDbSpline
 70
8
 71
3
 72
8
 73
4
 74
0
 40
0
 40
0
 40
0
 40
0
 40
1
 40
1
 40
1
 40
1
 10
315.000779
 20
376.962998
 30
0.0
 10
315.255600
 20
376.708162
 30
0.0
 10
315.398766
 20
376.362526
 30
0.0
 10
315.398766
 20
376.002132
 30
0.0
  0
SPLINE
  5
2d0
100
AcDbEntity
  8
0
 62
7
100
AcDbSpline
 70
8
 71
3
 72
8
 73
4
 74
0
 40
0
 40
0
 40
0
 40
0
 40
1
 40
1
 40
1
 40
1
 10
312.681045
 20
376.002132
 30
0.0
 10
312.681045
 20
376.362526
 30
0.0
 10
312.824211
 20
376.708162
 30
0.0
 10
313.079031
 20
376.962998
 30
0.0
  0
SPLINE
  5
2d1
100
AcDbEntity
  8
0
 62
7
100
AcDbSpline
 70
8
 71
3
 72
8
 73
4
 74
0
 40
0
 40
0
 40
0
 40
0
 40
1
 40
1
 40
1
 40
1
 10
314.039892
 20
377.361006
 30
0.0
 10
314.400308
 20
377.361006
 30
0.0
 10
314.745933
 20
377.217837
 30
0.0
 10
315.000779
 20
376.962998
 30
0.0
  0
SPLINE
  5
2d2
100
AcDbEntity
  8
0
 62
7
100
AcDbSpline
 70
8
 71
3
 72
8
 73
4
 74
0
 40
0
 40
0
 40
0
 40
0
 40
1
 40
1
 40
1
 40
1
 10
313.079031
 20
376.962998
 30
0.0
 10
313.333878
 20
377.217837
 30
0.0
 10
313.679503
 20
377.361006
 30
0.0
 10
314.039892
 20
377.361006
 30
0.0
  0
SPLINE
  5
2d3
100
AcDbEntity
  8
0
 62
7
100
AcDbSpline
 70
8
 71
3
 72
8
 73
4
 74
0
 40
0
 40
0
 40
0
 40
0
 40
1
 40
1
 40
1
 40
1
 10
214.066124
 20
368.843256
 30
0.0
 10
213.705730
 20
368.843253
 30
0.0
 10
213.360094
 20
368.986422
 30
0.0
 10
213.105258
 20
369.241258
 30
0.0
  0
SPLINE
  5
2d4
100
AcDbEntity
  8
0
 62
7
100
AcDbSpline
 70
8
 71
3
 72
8
 73
4
 74
0
 40
0
 40
0
 40
0
 40
0
 40
1
 40
1
 40
1
 40
1
 10
215.026993
 20
369.241258
 30
0.0
 10
214.772155
 20
368.986422
 30
0.0
 10
214.426521
 20
368.843253
 30
0.0
 10
214.066124
 20
368.843256
 30
0.0
  0
SPLINE
  5
2d5
100
AcDbEntity
  8
0
 62
7
100
AcDbSpline
 70
8
 71
3
 72
8
 73
4
 74
0
 40
0
 40
0
 40
0
 40
0
 40
1
 40
1
 40
1
 40
1
 10
215.424998
 20
370.202127
 30
0.0
 10
215.424998
 20
369.841733
 30
0.0
 10
215.281832
 20
369.496097
 30
0.0
 10
215.026993
 20
369.241258
 30
0.0
  0
SPLINE
  5
2d6
100
AcDbEntity
  8
0
 62
7
100
AcDbSpline
 70
8
 71
3
 72
8
 73
4
 74
0
 40
0
 40
0
 40
0
 40
0
 40
1
 40
1
 40
1
 40
1
 10
212.707254
 20
370.202127
 30
0.0
 10
212.707254
 20
370.562521
 30
0.0
 10
212.850420
 20
370.908157
 30
0.0
 10
213.105258
 20
371.162996
 30
0.0
  0
SPLINE
  5
2d7
100
AcDbEntity
  8
0
 62
7
100
AcDbSpline
 70
8
 71
3
 72
8
 73
4
 74
0
 40
0
 40
0
 40
0
 40
0
 40
1
 40
1
 40
1
 40
1
 10
213.105258
 20
371.162996
 30
0.0
 10
213.360094
 20
371.417832
 30
0.0
 10
213.705730
 20
371.560998
 30
0.0
 10
214.066124
 20
371.560998
 30
0.0
  0
SPLINE
  5
2d8
100
AcDbEntity
  8
0
 62
7
100
AcDbSpline
 70
8
 71
3
 72
8
 73
4
 74
0
 40
0
 40
0
 40
0
 40
0
 40
1
 40
1
 40
1
 40
1
 10
213.105258
 20
369.241258
 30
0.0
 10
212.850420
 20
369.496097
 30
0.0
 10
212.707254
 20
369.841733
 30
0.0
 10
212.707254
 20
370.202127
 30
0.0
  0
SPLINE
  5
2d9
100
AcDbEntity
  8
0
 62
7
100
AcDbSpline
 70
8
 71
3
 72
8
 73
4
 74
0
 40
0
 40
0
 40
0
 40
0
 40
1
 40
1
 40
1
 40
1
 10
214.066124
 20
371.560998
 30
0.0
 10
214.426521
 20
371.560998
 30
0.0
 10
214.772155
 20
371.417832
 30
0.0
 10
215.026993
 20
371.162996
 30
0.0
  0
SPLINE
  5
2da
100
AcDbEntity
  8
0
 62
7
100
AcDbSpline
 70
8
 71
3
 72
8
 73
4
 74
0
 40
0
 40
0
 40
0
 40
0
 40
1
 40
1
 40
1
 40
1
 10
280.810792
 20
437.859265
 30
0.0
 10
280.555945
 20
437.604429
 30
0.0
 10
280.210320
 20
437.461261
 30
0.0
 10
279.849905
 20
437.461263
 30
0.0
  0
SPLINE
  5
2db
100
AcDbEntity
  8
0
 62
7
100
AcDbSpline
 70
8
 71
3
 72
8
 73
4
 74
0
 40
0
 40
0
 40
0
 40
0
 40
1
 40
1
 40
1
 40
1
 10
215.026993
 20
371.162996
 30
0.0
 10
215.281832
 20
370.908157
 30
0.0
 10
215.424998
 20
370.562521
 30
0.0
 10
215.424998
 20
370.202127
 30
0.0
  0
SPLINE
  5
2dc
100
AcDbEntity
  8
0
 62
7
100
AcDbSpline
 70
8
 71
3
 72
8
 73
4
 74
0
 40
0
 40
0
 40
0
 40
0
 40
1
 40
1
 40
1
 40
1
 10
214.039910
 20
374.643261
 30
0.0
 10
213.679515
 20
374.643261
 30
0.0
 10
213.333880
 20
374.786427
 30
0.0
 10
213.079041
 20
375.041263
 30
0.0
  0
SPLINE
  5
2dd
100
AcDbEntity
  8
0
 62
7
100
AcDbSpline
 70
8
 71
3
 72
8
 73
4
 74
0
 40
0
 40
0
 40
0
 40
0
 40
1
 40
1
 40
1
 40
1
 10
215.398778
 20
376.002132
 30
0.0
 10
215.398778
 20
375.251649
 30
0.0
 10
214.790392
 20
374.643261
 30
0.0
 10
214.039910
 20
374.643261
 30
0.0
  0
SPLINE
  5
2de
100
AcDbEntity
  8
0
 62
7
100
AcDbSpline
 70
8
 71
3
 72
8
 73
4
 74
0
 40
0
 40
0
 40
0
 40
0
 40
1
 40
1
 40
1
 40
1
 10
279.849905
 20
437.461263
 30
0.0
 10
279.489516
 20
437.461261
 30
0.0
 10
279.143890
 20
437.604429
 30
0.0
 10
278.889044
 20
437.859265
 30
0.0
  0
SPLINE
  5
2df
100
AcDbEntity
  8
0
 62
7
100
AcDbSpline
 70
8
 71
3
 72
8
 73
4
 74
0
 40
0
 40
0
 40
0
 40
0
 40
1
 40
1
 40
1
 40
1
 10
281.208778
 20
438.820134
 30
0.0
 10
281.208778
 20
438.459737
 30
0.0
 10
281.065612
 20
438.114104
 30
0.0
 10
280.810792
 20
437.859265
 30
0.0
  0
SPLINE
  5
2e0
100
AcDbEntity
  8
0
 62
7
100
AcDbSpline
 70
8
 71
3
 72
8
 73
4
 74
0
 40
0
 40
0
 40
0
 40
0
 40
1
 40
1
 40
1
 40
1
 10
278.889044
 20
437.859265
 30
0.0
 10
278.634197
 20
438.114104
 30
0.0
 10
278.491031
 20
438.459737
 30
0.0
 10
278.491031
 20
438.820134
 30
0.0
  0
SPLINE
  5
2e1
100
AcDbEntity
  8
0
 62
7
100
AcDbSpline
 70
8
 71
3
 72
8
 73
4
 74
0
 40
0
 40
0
 40
0
 40
0
 40
1
 40
1
 40
1
 40
1
 10
278.491031
 20
438.820134
 30
0.0
 10
278.491058
 20
439.570617
 30
0.0
 10
279.099440
 20
440.179002
 30
0.0
 10
279.849905
 20
440.179002
 30
0.0
  0
SPLINE
  5
2e2
100
AcDbEntity
  8
0
 62
7
100
AcDbSpline
 70
8
 71
3
 72
8
 73
4
 74
0
 40
0
 40
0
 40
0
 40
0
 40
1
 40
1
 40
1
 40
1
 10
279.849905
 20
440.179002
 30
0.0
 10
280.600395
 20
440.179002
 30
0.0
 10
281.208778
 20
439.570617
 30
0.0
 10
281.208778
 20
438.820134
 30
0.0
  0
SPLINE
  5
2e3
100
AcDbEntity
  8
0
 62
7
100
AcDbSpline
 70
8
 71
3
 72
8
 73
4
 74
0
 40
0
 40
0
 40
0
 40
0
 40
1
 40
1
 40
1
 40
1
 10
278.491031
 20
447.420124
 30
0.0
 10
278.491031
 20
447.780521
 30
0.0
 10
278.634197
 20
448.126154
 30
0.0
 10
278.889044
 20
448.380993
 30
0.0
  0
SPLINE
  5
2e4
100
AcDbEntity
  8
0
 62
7
100
AcDbSpline
 70
8
 71
3
 72
8
 73
4
 74
0
 40
0
 40
0
 40
0
 40
0
 40
1
 40
1
 40
1
 40
1
 10
280.810792
 20
446.459258
 30
0.0
 10
280.555945
 20
446.204420
 30
0.0
 10
280.210320
 20
446.061254
 30
0.0
 10
279.849905
 20
446.061254
 30
0.0
  0
SPLINE
  5
2e5
100
AcDbEntity
  8
0
 62
7
100
AcDbSpline
 70
8
 71
3
 72
8
 73
4
 74
0
 40
0
 40
0
 40
0
 40
0
 40
1
 40
1
 40
1
 40
1
 10
0.179606
 20
507.976733
 30
0.0
 10
0.179606
 20
521.705996
 30
0.0
 10
11.309379
 20
532.835742
 30
0.0
 10
25.038615
 20
532.835742
 30
0.0
  0
SPLINE
  5
2e6
100
AcDbEntity
  8
0
 62
7
100
AcDbSpline
 70
8
 71
3
 72
8
 73
4
 74
0
 40
0
 40
0
 40
0
 40
0
 40
1
 40
1
 40
1
 40
1
 10
534.359016
 20
24.991118
 30
0.0
 10
534.358937
 20
11.261863
 30
0.0
 10
523.229080
 20
0.132191
 30
0.0
 10
509.499851
 20
0.132271
 30
0.0
  0
LWPOLYLINE
  5
2e7
100
AcDbEntity
  8
0
 62
7
100
AcDbPolyline
 90
2
 70
0
 10
509.499851
 20
0.132271
 30
0.0
 10
24.991328
 20
0.132271
 30
0.0
  0
SPLINE
  5
2e8
100
AcDbEntity
  8
0
 62
7
100
AcDbSpline
 70
8
 71
3
 72
8
 73
4
 74
0
 40
0
 40
0
 40
0
 40
0
 40
1
 40
1
 40
1
 40
1
 10
24.991328
 20
0.132271
 30
0.0
 10
11.262065
 20
0.132244
 30
0.0
 10
0.132309
 20
11.262022
 30
0.0
 10
0.132292
 20
24.991251
 30
0.0
  0
SPLINE
  5
2e9
100
AcDbEntity
  8
0
 62
7
100
AcDbSpline
 70
8
 71
3
 72
8
 73
4
 74
0
 40
0
 40
0
 40
0
 40
0
 40
1
 40
1
 40
1
 40
1
 10
260.924936
 20
394.367240
 30
0.0
 10
261.285333
 20
394.367240
 30
0.0
 10
261.630966
 20
394.224071
 30
0.0
 10
261.885805
 20
393.969235
 30
0.0
  0
LWPOLYLINE
  5
2ea
100
AcDbEntity
  8
0
 62
7
100
AcDbPolyline
 90
2
 70
0
 10
534.359016
 20
24.991118
 30
0.0
 10
534.359016
 20
507.979736
 30
0.0
  0
SPLINE
  5
2eb
100
AcDbEntity
  8
0
 62
7
100
AcDbSpline
 70
8
 71
3
 72
8
 73
4
 74
0
 40
0
 40
0
 40
0
 40
0
 40
1
 40
1
 40
1
 40
1
 10
509.499718
 20
532.838898
 30
0.0
 10
523.228974
 20
532.838811
 30
0.0
 10
534.358645
 20
521.708973
 30
0.0
 10
534.358566
 20
507.979736
 30
0.0
  0
SPLINE
  5
2ec
100
AcDbEntity
  8
0
 62
7
100
AcDbSpline
 70
8
 71
3
 72
8
 73
4
 74
0
 40
0
 40
0
 40
0
 40
0
 40
1
 40
1
 40
1
 40
1
 10
279.849905
 20
448.778995
 30
0.0
 10
280.210320
 20
448.778998
 30
0.0
 10
280.555945
 20
448.635829
 30
0.0
 10
280.810792
 20
448.380993
 30
0.0
  0
SPLINE
  5
2ed
100
AcDbEntity
  8
0
 62
7
100
AcDbSpline
 70
8
 71
3
 72
8
 73
4
 74
0
 40
0
 40
0
 40
0
 40
0
 40
1
 40
1
 40
1
 40
1
 10
279.849905
 20
446.061254
 30
0.0
 10
279.489516
 20
446.061254
 30
0.0
 10
279.143890
 20
446.204420
 30
0.0
 10
278.889044
 20
446.459258
 30
0.0
  0
SPLINE
  5
2ee
100
AcDbEntity
  8
0
 62
7
100
AcDbSpline
 70
8
 71
3
 72
8
 73
4
 74
0
 40
0
 40
0
 40
0
 40
0
 40
1
 40
1
 40
1
 40
1
 10
278.889044
 20
448.380993
 30
0.0
 10
279.143890
 20
448.635829
 30
0.0
 10
279.489516
 20
448.778998
 30
0.0
 10
279.849905
 20
448.778995
 30
0.0
  0
SPLINE
  5
2ef
100
AcDbEntity
  8
0
 62
7
100
AcDbSpline
 70
8
 71
3
 72
8
 73
4
 74
0
 40
0
 40
0
 40
0
 40
0
 40
1
 40
1
 40
1
 40
1
 10
280.810792
 20
448.380993
 30
0.0
 10
281.065612
 20
448.126154
 30
0.0
 10
281.208778
 20
447.780521
 30
0.0
 10
281.208778
 20
447.420124
 30
0.0
  0
SPLINE
  5
2f0
100
AcDbEntity
  8
0
 62
7
100
AcDbSpline
 70
8
 71
3
 72
8
 73
4
 74
0
 40
0
 40
0
 40
0
 40
0
 40
1
 40
1
 40
1
 40
1
 10
278.889044
 20
446.459258
 30
0.0
 10
278.634197
 20
446.714094
 30
0.0
 10
278.491031
 20
447.059730
 30
0.0
 10
278.491031
 20
447.420124
 30
0.0
  0
SPLINE
  5
2f1
100
AcDbEntity
  8
0
 62
7
100
AcDbSpline
 70
8
 71
3
 72
8
 73
4
 74
0
 40
0
 40
0
 40
0
 40
0
 40
1
 40
1
 40
1
 40
1
 10
281.208778
 20
447.420124
 30
0.0
 10
281.208778
 20
447.059730
 30
0.0
 10
281.065612
 20
446.714094
 30
0.0
 10
280.810792
 20
446.459258
 30
0.0
  0
SPLINE
  5
2f2
100
AcDbEntity
  8
0
 62
7
100
AcDbSpline
 70
8
 71
3
 72
8
 73
4
 74
0
 40
0
 40
0
 40
0
 40
0
 40
1
 40
1
 40
1
 40
1
 10
217.050961
 20
496.854306
 30
0.0
 10
217.050876
 20
497.991546
 30
0.0
 10
217.972724
 20
498.913526
 30
0.0
 10
219.109964
 20
498.913611
 30
0.0
  0
LWPOLYLINE
  5
2f3
100
AcDbEntity
  8
0
 62
7
100
AcDbPolyline
 90
2
 70
0
 10
509.499718
 20
532.838898
 30
0.0
 10
25.038615
 20
532.835750
 30
0.0
  0
ENDSEC
  0
SECTION
  2
OBJECTS
  0
DICTIONARY
  5
C
330
0
100
AcDbDictionary
  3
ACAD_GROUP
350
D
  3
ACAD_MLINESTYLE
350
17
  0
DICTIONARY
  5
D
330
C
100
AcDbDictionary
  0
DICTIONARY
  5
1A
330
C
100
AcDbDictionary
  0
DICTIONARY
  5
17
330
C
100
AcDbDictionary
  3
STANDARD
350
18
  0
DICTIONARY
  5
19
330
C
100
AcDbDictionary
  0
ENDSEC
  0
EOF
