0
SECTION
2
HEADER
9
$INSUNITS
70
4
9
$ACADVER
1
AC1014
9
$HANDSEED
5
FFFF
0
ENDSEC
0
SECTION
2
TABLES
0
TABLE
2
VPORT
5
8
100
AcDbSymbolTable
0
ENDTAB
0
TABLE
2
LTYPE
5
5
100
AcDbSymbolTable
0
LTYPE
5
14
100
AcDbSymbolTableRecord
100
AcDbLinetypeTableRecord
2
BYBLOCK
70
0
0
LTYPE
5
15
100
AcDbSymbolTableRecord
100
AcDbLinetypeTableRecord
2
BYLAYER
70
0
0
ENDTAB
0
TABLE
2
LAYER
5
2
100
AcDbSymbolTable
70
2
0
LAYER
5
50
100
AcDbSymbolTableRecord
100
AcDbLayerTableRecord
2
0
70
0
6
CONTINUOUS
0
ENDTAB
0
TABLE
2
STYLE
5
3
100
AcDbSymbolTable
70
1
0
STYLE
5
11
100
AcDbSymbolTableRecord
100
AcDbTextStyleTableRecord
2
STANDARD
70
0
0
ENDTAB
0
TABLE
2
VIEW
5
6
100
AcDbSymbolTable
70
0
0
ENDTAB
0
TABLE
2
UCS
5
7
100
AcDbSymbolTable
70
0
0
ENDTAB
0
TABLE
2
APPID
5
9
100
AcDbSymbolTable
70
2
0
APPID
5
12
100
AcDbSymbolTableRecord
100
AcDbRegAppTableRecord
2
ACAD
70
0
0
ENDTAB
0
TABLE
2
DIMSTYLE
5
A
100
AcDbSymbolTable
70
1
0
ENDTAB
0
TABLE
2
BLOCK_RECORD
5
1
100
AcDbSymbolTable
70
1
0
BLOCK_RECORD
5
1F
100
AcDbSymbolTableRecord
100
AcDbBlockTableRecord
2
*MODEL_SPACE
0
BLOCK_RECORD
5
1B
100
AcDbSymbolTableRecord
100
AcDbBlockTableRecord
2
*PAPER_SPACE
0
ENDTAB
0
ENDSEC
0
SECTION
2
BLOCKS
0
BLOCK
5
20
100
AcDbEntity
100
AcDbBlockBegin
2
*MODEL_SPACE
0
ENDBLK
5
21
100
AcDbEntity
100
AcDbBlockEnd
0
BLOCK
5
1C
100
AcDbEntity
100
AcDbBlockBegin
2
*PAPER_SPACE
0
ENDBLK
5
1D
100
AcDbEntity
100
AcDbBlockEnd
0
ENDSEC
0
SECTION
2
ENTITIES
0
SPLINE
5
100
100
AcDbEntity
8
0
100
AcDbSpline
70
1064
71
3
72
8
73
4
74
0
42
0.000000001
43
0.0000000001
44
0.0000000001
40
0
40
0
40
0
40
0
40
1
40
1
40
1
40
1
10
5.141076
20
44.447848
30
0
10
5.141076
20
45.584959999999995
30
0
10
6.0628869999999999
20
46.506771999999998
30
0
10
7.2000000000000011
20
46.506771999999998
30
0
0
SPLINE
5
101
100
AcDbEntity
8
0
100
AcDbSpline
70
1064
71
3
72
8
73
4
74
0
42
0.000000001
43
0.0000000001
44
0.0000000001
40
0
40
0
40
0
40
0
40
1
40
1
40
1
40
1
10
7.2000000000000011
20
46.506771999999998
30
0
10
8.3371119999999994
20
46.506771999999998
30
0
10
9.2589240000000004
20
45.584959999999995
30
0
10
9.2589240000000004
20
44.447848
30
0
0
SPLINE
5
102
100
AcDbEntity
8
0
100
AcDbSpline
70
1064
71
3
72
8
73
4
74
0
42
0.000000001
43
0.0000000001
44
0.0000000001
40
0
40
0
40
0
40
0
40
1
40
1
40
1
40
1
10
7.2000030000000006
20
181.863767
30
0
10
8.3371149999999989
20
181.863767
30
0
10
9.2589259999999989
20
180.94195500000001
30
0
10
9.2589269999999999
20
179.80484300000001
30
0
0
SPLINE
5
103
100
AcDbEntity
8
0
100
AcDbSpline
70
1064
71
3
72
8
73
4
74
0
42
0.000000001
43
0.0000000001
44
0.0000000001
40
0
40
0
40
0
40
0
40
1
40
1
40
1
40
1
10
7.2000000000000011
20
21.168917
30
0
10
6.0628869999999999
20
21.168917
30
0
10
5.141076
20
22.090729000000003
30
0
10
5.141076
20
23.227841000000002
30
0
0
SPLINE
5
104
100
AcDbEntity
8
0
100
AcDbSpline
70
1064
71
3
72
8
73
4
74
0
42
0.000000001
43
0.0000000001
44
0.0000000001
40
0
40
0
40
0
40
0
40
1
40
1
40
1
40
1
10
5.1410790000000004
20
179.80484300000001
30
0
10
5.1410790000000004
20
180.94195500000001
30
0
10
6.0628900000000012
20
181.863767
30
0
10
7.2000030000000006
20
181.863767
30
0
0
SPLINE
5
105
100
AcDbEntity
8
0
100
AcDbSpline
70
1064
71
3
72
8
73
4
74
0
42
0.000000001
43
0.0000000001
44
0.0000000001
40
0
40
0
40
0
40
0
40
1
40
1
40
1
40
1
10
9.2589269999999999
20
461.02785700000004
30
0
10
9.2589259999999989
20
459.89074500000009
30
0
10
8.3371149999999989
20
458.96893299999999
30
0
10
7.2000030000000006
20
458.96893299999999
30
0
0
SPLINE
5
106
100
AcDbEntity
8
0
100
AcDbSpline
70
1064
71
3
72
8
73
4
74
0
42
0.000000001
43
0.0000000001
44
0.0000000001
40
0
40
0
40
0
40
0
40
1
40
1
40
1
40
1
10
7.2000030000000006
20
458.96893299999999
30
0
10
6.0628900000000012
20
458.96893299999999
30
0
10
5.1410790000000004
20
459.89074500000009
30
0
10
5.1410790000000004
20
461.02785700000004
30
0
0
SPLINE
5
107
100
AcDbEntity
8
0
100
AcDbSpline
70
1064
71
3
72
8
73
4
74
0
42
0.000000001
43
0.0000000001
44
0.0000000001
40
0
40
0
40
0
40
0
40
1
40
1
40
1
40
1
10
9.2589240000000004
20
44.447848
30
0
10
9.2589240000000004
20
43.310735000000008
30
0
10
8.3371119999999994
20
42.388924000000003
30
0
10
7.2000000000000011
20
42.388924000000003
30
0
0
SPLINE
5
108
100
AcDbEntity
8
0
100
AcDbSpline
70
1064
71
3
72
8
73
4
74
0
42
0.000000001
43
0.0000000001
44
0.0000000001
40
0
40
0
40
0
40
0
40
1
40
1
40
1
40
1
10
5.141076
20
23.227841000000002
30
0
10
5.141076
20
24.364953000000003
30
0
10
6.0628869999999999
20
25.286764999999999
30
0
10
7.2000000000000011
20
25.286764999999999
30
0
0
SPLINE
5
109
100
AcDbEntity
8
0
100
AcDbSpline
70
1064
71
3
72
8
73
4
74
0
42
0.000000001
43
0.0000000001
44
0.0000000001
40
0
40
0
40
0
40
0
40
1
40
1
40
1
40
1
10
7.2000000000000011
20
25.286764999999999
30
0
10
8.3371119999999994
20
25.286764999999999
30
0
10
9.2589240000000004
20
24.364954000000001
30
0
10
9.2589240000000004
20
23.227841000000002
30
0
0
SPLINE
5
110
100
AcDbEntity
8
0
100
AcDbSpline
70
1064
71
3
72
8
73
4
74
0
42
0.000000001
43
0.0000000001
44
0.0000000001
40
0
40
0
40
0
40
0
40
1
40
1
40
1
40
1
10
7.2000030000000006
20
463.08678100000003
30
0
10
8.3371149999999989
20
463.08678100000003
30
0
10
9.2589259999999989
20
462.16497000000004
30
0
10
9.2589269999999999
20
461.02785700000004
30
0
0
SPLINE
5
111
100
AcDbEntity
8
0
100
AcDbSpline
70
1064
71
3
72
8
73
4
74
0
42
0.000000001
43
0.0000000001
44
0.0000000001
40
0
40
0
40
0
40
0
40
1
40
1
40
1
40
1
10
9.2589240000000004
20
23.227841000000002
30
0
10
9.2589240000000004
20
22.090729000000003
30
0
10
8.3371119999999994
20
21.168917
30
0
10
7.2000000000000011
20
21.168917
30
0
0
SPLINE
5
112
100
AcDbEntity
8
0
100
AcDbSpline
70
1064
71
3
72
8
73
4
74
0
42
0.000000001
43
0.0000000001
44
0.0000000001
40
0
40
0
40
0
40
0
40
1
40
1
40
1
40
1
10
7.2000030000000006
20
437.74892700000004
30
0
10
6.0628900000000012
20
437.74892700000004
30
0
10
5.1410790000000004
20
438.67073800000003
30
0
10
5.1410790000000004
20
439.80785099999997
30
0
0
SPLINE
5
113
100
AcDbEntity
8
0
100
AcDbSpline
70
1064
71
3
72
8
73
4
74
0
42
0.000000001
43
0.0000000001
44
0.0000000001
40
0
40
0
40
0
40
0
40
1
40
1
40
1
40
1
10
5.1410790000000004
20
439.80785099999997
30
0
10
5.1410790000000004
20
440.94496300000003
30
0
10
6.0628900000000012
20
441.86677500000002
30
0
10
7.2000030000000006
20
441.86677500000002
30
0
0
SPLINE
5
114
100
AcDbEntity
8
0
100
AcDbSpline
70
1064
71
3
72
8
73
4
74
0
42
0.000000001
43
0.0000000001
44
0.0000000001
40
0
40
0
40
0
40
0
40
1
40
1
40
1
40
1
10
9.2589269999999999
20
439.80785099999997
30
0
10
9.2589259999999989
20
438.67073800000003
30
0
10
8.3371149999999989
20
437.74892700000004
30
0
10
7.2000030000000006
20
437.74892700000004
30
0
0
SPLINE
5
115
100
AcDbEntity
8
0
100
AcDbSpline
70
1064
71
3
72
8
73
4
74
0
42
0.000000001
43
0.0000000001
44
0.0000000001
40
0
40
0
40
0
40
0
40
1
40
1
40
1
40
1
10
5.1410790000000004
20
461.02785700000004
30
0
10
5.1410790000000004
20
462.16497000000004
30
0
10
6.0628900000000012
20
463.08678100000003
30
0
10
7.2000030000000006
20
463.08678100000003
30
0
0
SPLINE
5
116
100
AcDbEntity
8
0
100
AcDbSpline
70
1064
71
3
72
8
73
4
74
0
42
0.000000001
43
0.0000000001
44
0.0000000001
40
0
40
0
40
0
40
0
40
1
40
1
40
1
40
1
10
7.2000000000000011
20
42.388924000000003
30
0
10
6.0628869999999999
20
42.388924000000003
30
0
10
5.141076
20
43.310735999999999
30
0
10
5.141076
20
44.447848
30
0
0
SPLINE
5
117
100
AcDbEntity
8
0
100
AcDbSpline
70
1064
71
3
72
8
73
4
74
0
42
0.000000001
43
0.0000000001
44
0.0000000001
40
0
40
0
40
0
40
0
40
1
40
1
40
1
40
1
10
6.2950860000000013
20
229.19108300000005
30
0
10
6.5499770000000002
20
229.44597400000006
30
0
10
6.895683
20
229.58917000000002
30
0
10
7.2561530000000012
20
229.58917000000002
30
0
0
SPLINE
5
118
100
AcDbEntity
8
0
100
AcDbSpline
70
1064
71
3
72
8
73
4
74
0
42
0.000000001
43
0.0000000001
44
0.0000000001
40
0
40
0
40
0
40
0
40
1
40
1
40
1
40
1
10
14.017211999999999
20
276.33595000000003
30
0
10
13.762321000000002
20
276.08105899999998
30
0
10
13.416615
20
275.93786299999999
30
0
10
13.056144999999999
20
275.93786299999999
30
0
0
SPLINE
5
119
100
AcDbEntity
8
0
100
AcDbSpline
70
1064
71
3
72
8
73
4
74
0
42
0.000000001
43
0.0000000001
44
0.0000000001
40
0
40
0
40
0
40
0
40
1
40
1
40
1
40
1
10
14.415298999999999
20
277.29701699999998
30
0
10
14.415298999999999
20
276.93654700000002
30
0
10
14.272103000000001
20
276.59084000000001
30
0
10
14.017211999999999
20
276.33595000000003
30
0
0
SPLINE
5
120
100
AcDbEntity
8
0
100
AcDbSpline
70
1064
71
3
72
8
73
4
74
0
42
0.000000001
43
0.0000000001
44
0.0000000001
40
0
40
0
40
0
40
0
40
1
40
1
40
1
40
1
10
7.2000030000000006
20
441.86677500000002
30
0
10
8.3371149999999989
20
441.86677500000002
30
0
10
9.2589259999999989
20
440.94496300000003
30
0
10
9.2589269999999999
20
439.80785099999997
30
0
0
LINE
5
121
100
AcDbEntity
8
0
100
AcDbLine
10
191.26814400000001
20
0.16783000000000003
30
0
11
191.18077099999999
21
459.31708700000001
31
0
0
LINE
5
122
100
AcDbEntity
8
0
100
AcDbLine
10
166.32176299999998
20
484.17609800000008
30
0
11
0.26783500000000515
21
484.16786999999999
31
0
0
SPLINE
5
123
100
AcDbEntity
8
0
100
AcDbSpline
70
1064
71
3
72
8
73
4
74
0
42
0.000000001
43
0.0000000001
44
0.0000000001
40
0
40
0
40
0
40
0
40
1
40
1
40
1
40
1
10
7.2561530000000012
20
229.58917000000002
30
0
10
7.6166240000000007
20
229.58917000000002
30
0
10
7.9623300000000006
20
229.44597400000006
30
0
10
8.2172210000000021
20
229.19108300000005
30
0
0
SPLINE
5
124
100
AcDbEntity
8
0
100
AcDbSpline
70
1064
71
3
72
8
73
4
74
0
42
0.000000001
43
0.0000000001
44
0.0000000001
40
0
40
0
40
0
40
0
40
1
40
1
40
1
40
1
10
8.2172210000000021
20
229.19108300000005
30
0
10
8.4721109999999999
20
228.936193
30
0
10
8.6153080000000024
20
228.590486
30
0
10
8.6153070000000014
20
228.23001600000001
30
0
0
SPLINE
5
125
100
AcDbEntity
8
0
100
AcDbSpline
70
1064
71
3
72
8
73
4
74
0
42
0.000000001
43
0.0000000001
44
0.0000000001
40
0
40
0
40
0
40
0
40
1
40
1
40
1
40
1
10
11.696991000000001
20
277.29701699999998
30
0
10
11.696991000000001
20
277.65748700000006
30
0
10
11.840187
20
278.00319300000001
30
0
10
12.095077999999999
20
278.258084
30
0
0
SPLINE
5
126
100
AcDbEntity
8
0
100
AcDbSpline
70
1064
71
3
72
8
73
4
74
0
42
0.000000001
43
0.0000000001
44
0.0000000001
40
0
40
0
40
0
40
0
40
1
40
1
40
1
40
1
10
12.095077999999999
20
276.33595000000003
30
0
10
11.840187
20
276.59084000000001
30
0
10
11.696991000000001
20
276.93654700000002
30
0
10
11.696991000000001
20
277.29701699999998
30
0
0
SPLINE
5
127
100
AcDbEntity
8
0
100
AcDbSpline
70
1064
71
3
72
8
73
4
74
0
42
0.000000001
43
0.0000000001
44
0.0000000001
40
0
40
0
40
0
40
0
40
1
40
1
40
1
40
1
10
12.095077999999999
20
278.258084
30
0
10
12.349968000000001
20
278.51297499999998
30
0
10
12.695675
20
278.65617099999997
30
0
10
13.056144999999999
20
278.65617099999997
30
0
0
SPLINE
5
128
100
AcDbEntity
8
0
100
AcDbSpline
70
1064
71
3
72
8
73
4
74
0
42
0.000000001
43
0.0000000001
44
0.0000000001
40
0
40
0
40
0
40
0
40
1
40
1
40
1
40
1
10
13.056144999999999
20
278.65617099999997
30
0
10
13.416615
20
278.65617099999997
30
0
10
13.762321000000002
20
278.51297499999998
30
0
10
14.017211999999999
20
278.258084
30
0
0
SPLINE
5
129
100
AcDbEntity
8
0
100
AcDbSpline
70
1064
71
3
72
8
73
4
74
0
42
0.000000001
43
0.0000000001
44
0.0000000001
40
0
40
0
40
0
40
0
40
1
40
1
40
1
40
1
10
14.017211999999999
20
278.258084
30
0
10
14.272103000000001
20
278.00319300000001
30
0
10
14.415298999999999
20
277.65748700000006
30
0
10
14.415298999999999
20
277.29701699999998
30
0
0
SPLINE
5
130
100
AcDbEntity
8
0
100
AcDbSpline
70
1064
71
3
72
8
73
4
74
0
42
0.000000001
43
0.0000000001
44
0.0000000001
40
0
40
0
40
0
40
0
40
1
40
1
40
1
40
1
10
8.2172210000000021
20
276.33595000000003
30
0
10
7.9623300000000006
20
276.08105899999998
30
0
10
7.6166240000000007
20
275.93786299999999
30
0
10
7.2561530000000012
20
275.93786299999999
30
0
0
SPLINE
5
131
100
AcDbEntity
8
0
100
AcDbSpline
70
1064
71
3
72
8
73
4
74
0
42
0.000000001
43
0.0000000001
44
0.0000000001
40
0
40
0
40
0
40
0
40
1
40
1
40
1
40
1
10
13.056144999999999
20
275.93786299999999
30
0
10
12.695675
20
275.93786299999999
30
0
10
12.349968000000001
20
276.08105899999998
30
0
10
12.095077999999999
20
276.33595000000003
30
0
0
SPLINE
5
132
100
AcDbEntity
8
0
100
AcDbSpline
70
1064
71
3
72
8
73
4
74
0
42
0.000000001
43
0.0000000001
44
0.0000000001
40
0
40
0
40
0
40
0
40
1
40
1
40
1
40
1
10
5.896999000000001
20
277.29701699999998
30
0
10
5.896999000000001
20
277.65748700000006
30
0
10
6.0401959999999999
20
278.00319300000001
30
0
10
6.2950860000000013
20
278.258084
30
0
0
SPLINE
5
133
100
AcDbEntity
8
0
100
AcDbSpline
70
1064
71
3
72
8
73
4
74
0
42
0.000000001
43
0.0000000001
44
0.0000000001
40
0
40
0
40
0
40
0
40
1
40
1
40
1
40
1
10
179.621307
20
266.02301499999999
30
0
10
179.621307
20
265.66254500000002
30
0
10
179.47811100000001
20
265.31683900000007
30
0
10
179.22322000000003
20
265.06194799999997
30
0
0
SPLINE
5
134
100
AcDbEntity
8
0
100
AcDbSpline
70
1064
71
3
72
8
73
4
74
0
42
0.000000001
43
0.0000000001
44
0.0000000001
40
0
40
0
40
0
40
0
40
1
40
1
40
1
40
1
10
179.22322000000003
20
265.06194799999997
30
0
10
178.96832900000004
20
264.80705699999999
30
0
10
178.622623
20
264.663861
30
0
10
178.26215300000001
20
264.663861
30
0
0
SPLINE
5
135
100
AcDbEntity
8
0
100
AcDbSpline
70
1064
71
3
72
8
73
4
74
0
42
0.000000001
43
0.0000000001
44
0.0000000001
40
0
40
0
40
0
40
0
40
1
40
1
40
1
40
1
10
177.301086
20
266.98408200000006
30
0
10
177.55597700000004
20
267.23897299999999
30
0
10
177.90168300000002
20
267.38216899999998
30
0
10
178.26215300000001
20
267.38216899999998
30
0
0
SPLINE
5
136
100
AcDbEntity
8
0
100
AcDbSpline
70
1064
71
3
72
8
73
4
74
0
42
0.000000001
43
0.0000000001
44
0.0000000001
40
0
40
0
40
0
40
0
40
1
40
1
40
1
40
1
10
7.2561530000000012
20
275.93786299999999
30
0
10
6.895683
20
275.93786299999999
30
0
10
6.5499770000000002
20
276.08105899999998
30
0
10
6.2950860000000013
20
276.33595000000003
30
0
0
SPLINE
5
137
100
AcDbEntity
8
0
100
AcDbSpline
70
1064
71
3
72
8
73
4
74
0
42
0.000000001
43
0.0000000001
44
0.0000000001
40
0
40
0
40
0
40
0
40
1
40
1
40
1
40
1
10
178.26215300000001
20
267.38216899999998
30
0
10
178.622623
20
267.38216899999998
30
0
10
178.96832900000004
20
267.23897299999999
30
0
10
179.22322000000003
20
266.98408200000006
30
0
0
SPLINE
5
138
100
AcDbEntity
8
0
100
AcDbSpline
70
1064
71
3
72
8
73
4
74
0
42
0.000000001
43
0.0000000001
44
0.0000000001
40
0
40
0
40
0
40
0
40
1
40
1
40
1
40
1
10
185.42129800000001
20
200.02301700000001
30
0
10
185.42129800000001
20
199.66254700000002
30
0
10
185.27810200000002
20
199.31684099999998
30
0
10
185.023211
20
199.06195
30
0
0
SPLINE
5
139
100
AcDbEntity
8
0
100
AcDbSpline
70
1064
71
3
72
8
73
4
74
0
42
0.000000001
43
0.0000000001
44
0.0000000001
40
0
40
0
40
0
40
0
40
1
40
1
40
1
40
1
10
184.06214399999999
20
198.66386300000002
30
0
10
183.701674
20
198.66386300000002
30
0
10
183.35596800000002
20
198.80705900000004
30
0
10
183.101077
20
199.06195
30
0
0
SPLINE
5
140
100
AcDbEntity
8
0
100
AcDbSpline
70
1064
71
3
72
8
73
4
74
0
42
0.000000001
43
0.0000000001
44
0.0000000001
40
0
40
0
40
0
40
0
40
1
40
1
40
1
40
1
10
8.6153070000000014
20
277.29701699999998
30
0
10
8.6153080000000024
20
276.93654700000002
30
0
10
8.4721109999999999
20
276.59084000000001
30
0
10
8.2172210000000021
20
276.33595000000003
30
0
0
SPLINE
5
141
100
AcDbEntity
8
0
100
AcDbSpline
70
1064
71
3
72
8
73
4
74
0
42
0.000000001
43
0.0000000001
44
0.0000000001
40
0
40
0
40
0
40
0
40
1
40
1
40
1
40
1
10
6.2950860000000013
20
276.33595000000003
30
0
10
6.0401959999999999
20
276.59084000000001
30
0
10
5.896999000000001
20
276.93654700000002
30
0
10
5.896999000000001
20
277.29701699999998
30
0
0
SPLINE
5
142
100
AcDbEntity
8
0
100
AcDbSpline
70
1064
71
3
72
8
73
4
74
0
42
0.000000001
43
0.0000000001
44
0.0000000001
40
0
40
0
40
0
40
0
40
1
40
1
40
1
40
1
10
185.42129800000001
20
266.02301499999999
30
0
10
185.42129800000001
20
265.66254500000002
30
0
10
185.27810200000002
20
265.31683900000007
30
0
10
185.023211
20
265.06194799999997
30
0
0
SPLINE
5
143
100
AcDbEntity
8
0
100
AcDbSpline
70
1064
71
3
72
8
73
4
74
0
42
0.000000001
43
0.0000000001
44
0.0000000001
40
0
40
0
40
0
40
0
40
1
40
1
40
1
40
1
10
8.2172210000000021
20
278.258084
30
0
10
8.4721109999999999
20
278.00319300000001
30
0
10
8.6153080000000024
20
277.65748700000006
30
0
10
8.6153070000000014
20
277.29701699999998
30
0
0
SPLINE
5
144
100
AcDbEntity
8
0
100
AcDbSpline
70
1064
71
3
72
8
73
4
74
0
42
0.000000001
43
0.0000000001
44
0.0000000001
40
0
40
0
40
0
40
0
40
1
40
1
40
1
40
1
10
185.023211
20
265.06194799999997
30
0
10
184.76831999999999
20
264.80705699999999
30
0
10
184.42261400000001
20
264.663861
30
0
10
184.06214399999999
20
264.663861
30
0
0
SPLINE
5
145
100
AcDbEntity
8
0
100
AcDbSpline
70
1064
71
3
72
8
73
4
74
0
42
0.000000001
43
0.0000000001
44
0.0000000001
40
0
40
0
40
0
40
0
40
1
40
1
40
1
40
1
10
6.2950860000000013
20
278.258084
30
0
10
6.5499770000000002
20
278.51297499999998
30
0
10
6.895683
20
278.65617099999997
30
0
10
7.2561530000000012
20
278.65617099999997
30
0
0
SPLINE
5
146
100
AcDbEntity
8
0
100
AcDbSpline
70
1064
71
3
72
8
73
4
74
0
42
0.000000001
43
0.0000000001
44
0.0000000001
40
0
40
0
40
0
40
0
40
1
40
1
40
1
40
1
10
183.101077
20
266.98408200000006
30
0
10
183.35596800000002
20
267.23897299999999
30
0
10
183.701674
20
267.38216899999998
30
0
10
184.06214399999999
20
267.38216899999998
30
0
0
SPLINE
5
147
100
AcDbEntity
8
0
100
AcDbSpline
70
1064
71
3
72
8
73
4
74
0
42
0.000000001
43
0.0000000001
44
0.0000000001
40
0
40
0
40
0
40
0
40
1
40
1
40
1
40
1
10
184.06214399999999
20
267.38216899999998
30
0
10
184.42261400000001
20
267.38216899999998
30
0
10
184.76831999999999
20
267.23897299999999
30
0
10
185.023211
20
266.98408200000006
30
0
0
SPLINE
5
148
100
AcDbEntity
8
0
100
AcDbSpline
70
1064
71
3
72
8
73
4
74
0
42
0.000000001
43
0.0000000001
44
0.0000000001
40
0
40
0
40
0
40
0
40
1
40
1
40
1
40
1
10
185.023211
20
266.98408200000006
30
0
10
185.27810200000002
20
266.72919100000001
30
0
10
185.42129800000001
20
266.38348500000001
30
0
10
185.42129800000001
20
266.02301499999999
30
0
0
SPLINE
5
149
100
AcDbEntity
8
0
100
AcDbSpline
70
1064
71
3
72
8
73
4
74
0
42
0.000000001
43
0.0000000001
44
0.0000000001
40
0
40
0
40
0
40
0
40
1
40
1
40
1
40
1
10
177.301086
20
265.06194799999997
30
0
10
177.04619500000001
20
265.31683900000007
30
0
10
176.90299899999999
20
265.66254500000002
30
0
10
176.90299899999999
20
266.02301499999999
30
0
0
SPLINE
5
150
100
AcDbEntity
8
0
100
AcDbSpline
70
1064
71
3
72
8
73
4
74
0
42
0.000000001
43
0.0000000001
44
0.0000000001
40
0
40
0
40
0
40
0
40
1
40
1
40
1
40
1
10
7.2561530000000012
20
278.65617099999997
30
0
10
7.6166240000000007
20
278.65617099999997
30
0
10
7.9623300000000006
20
278.51297499999998
30
0
10
8.2172210000000021
20
278.258084
30
0
0
SPLINE
5
151
100
AcDbEntity
8
0
100
AcDbSpline
70
1064
71
3
72
8
73
4
74
0
42
0.000000001
43
0.0000000001
44
0.0000000001
40
0
40
0
40
0
40
0
40
1
40
1
40
1
40
1
10
183.101077
20
265.06194799999997
30
0
10
182.84618600000002
20
265.31683900000007
30
0
10
182.70299
20
265.66254500000002
30
0
10
182.70299
20
266.02301499999999
30
0
0
SPLINE
5
152
100
AcDbEntity
8
0
100
AcDbSpline
70
1064
71
3
72
8
73
4
74
0
42
0.000000001
43
0.0000000001
44
0.0000000001
40
0
40
0
40
0
40
0
40
1
40
1
40
1
40
1
10
184.06214399999999
20
264.663861
30
0
10
183.701674
20
264.663861
30
0
10
183.35596800000002
20
264.80705699999999
30
0
10
183.101077
20
265.06194799999997
30
0
0
SPLINE
5
153
100
AcDbEntity
8
0
100
AcDbSpline
70
1064
71
3
72
8
73
4
74
0
42
0.000000001
43
0.0000000001
44
0.0000000001
40
0
40
0
40
0
40
0
40
1
40
1
40
1
40
1
10
176.90299899999999
20
266.02301499999999
30
0
10
176.90299899999999
20
266.38348500000001
30
0
10
177.04619500000001
20
266.72919100000001
30
0
10
177.301086
20
266.98408200000006
30
0
0
SPLINE
5
154
100
AcDbEntity
8
0
100
AcDbSpline
70
1064
71
3
72
8
73
4
74
0
42
0.000000001
43
0.0000000001
44
0.0000000001
40
0
40
0
40
0
40
0
40
1
40
1
40
1
40
1
10
178.26215300000001
20
264.663861
30
0
10
177.90168300000002
20
264.663861
30
0
10
177.55597700000004
20
264.80705699999999
30
0
10
177.301086
20
265.06194799999997
30
0
0
SPLINE
5
155
100
AcDbEntity
8
0
100
AcDbSpline
70
1064
71
3
72
8
73
4
74
0
42
0.000000001
43
0.0000000001
44
0.0000000001
40
0
40
0
40
0
40
0
40
1
40
1
40
1
40
1
10
179.22322000000003
20
266.98408200000006
30
0
10
179.47811100000001
20
266.72919100000001
30
0
10
179.621307
20
266.38348500000001
30
0
10
179.621307
20
266.02301499999999
30
0
0
SPLINE
5
156
100
AcDbEntity
8
0
100
AcDbSpline
70
1064
71
3
72
8
73
4
74
0
42
0.000000001
43
0.0000000001
44
0.0000000001
40
0
40
0
40
0
40
0
40
1
40
1
40
1
40
1
10
185.023211
20
199.06195
30
0
10
184.76831999999999
20
198.80705900000004
30
0
10
184.42261400000001
20
198.66386300000002
30
0
10
184.06214399999999
20
198.66386300000002
30
0
0
SPLINE
5
157
100
AcDbEntity
8
0
100
AcDbSpline
70
1064
71
3
72
8
73
4
74
0
42
0.000000001
43
0.0000000001
44
0.0000000001
40
0
40
0
40
0
40
0
40
1
40
1
40
1
40
1
10
183.101077
20
199.06195
30
0
10
182.84618600000002
20
199.31684099999998
30
0
10
182.70299
20
199.66254700000002
30
0
10
182.70299
20
200.02301700000001
30
0
0
SPLINE
5
158
100
AcDbEntity
8
0
100
AcDbSpline
70
1064
71
3
72
8
73
4
74
0
42
0.000000001
43
0.0000000001
44
0.0000000001
40
0
40
0
40
0
40
0
40
1
40
1
40
1
40
1
10
182.70299
20
266.02301499999999
30
0
10
182.70299
20
266.38348500000001
30
0
10
182.84618600000002
20
266.72919100000001
30
0
10
183.101077
20
266.98408200000006
30
0
0
SPLINE
5
159
100
AcDbEntity
8
0
100
AcDbSpline
70
1064
71
3
72
8
73
4
74
0
42
0.000000001
43
0.0000000001
44
0.0000000001
40
0
40
0
40
0
40
0
40
1
40
1
40
1
40
1
10
182.70299
20
200.02301700000001
30
0
10
182.70299
20
200.383487
30
0
10
182.84618600000002
20
200.72919299999998
30
0
10
183.101077
20
200.984084
30
0
0
SPLINE
5
160
100
AcDbEntity
8
0
100
AcDbSpline
70
1064
71
3
72
8
73
4
74
0
42
0.000000001
43
0.0000000001
44
0.0000000001
40
0
40
0
40
0
40
0
40
1
40
1
40
1
40
1
10
183.101077
20
200.984084
30
0
10
183.35596800000002
20
201.23897500000001
30
0
10
183.701674
20
201.38217100000003
30
0
10
184.06214399999999
20
201.38217100000003
30
0
0
SPLINE
5
161
100
AcDbEntity
8
0
100
AcDbSpline
70
1064
71
3
72
8
73
4
74
0
42
0.000000001
43
0.0000000001
44
0.0000000001
40
0
40
0
40
0
40
0
40
1
40
1
40
1
40
1
10
179.621307
20
200.02301700000001
30
0
10
179.621307
20
199.66254700000002
30
0
10
179.47811100000001
20
199.31684099999998
30
0
10
179.22322000000003
20
199.06195
30
0
0
SPLINE
5
162
100
AcDbEntity
8
0
100
AcDbSpline
70
1064
71
3
72
8
73
4
74
0
42
0.000000001
43
0.0000000001
44
0.0000000001
40
0
40
0
40
0
40
0
40
1
40
1
40
1
40
1
10
178.26215300000001
20
198.66386300000002
30
0
10
177.90168300000002
20
198.66386300000002
30
0
10
177.55597700000004
20
198.80705900000004
30
0
10
177.301086
20
199.06195
30
0
0
SPLINE
5
163
100
AcDbEntity
8
0
100
AcDbSpline
70
1064
71
3
72
8
73
4
74
0
42
0.000000001
43
0.0000000001
44
0.0000000001
40
0
40
0
40
0
40
0
40
1
40
1
40
1
40
1
10
177.301086
20
200.984084
30
0
10
177.55597700000004
20
201.23897500000001
30
0
10
177.90168300000002
20
201.38217100000003
30
0
10
178.26215300000001
20
201.38217100000003
30
0
0
SPLINE
5
164
100
AcDbEntity
8
0
100
AcDbSpline
70
1064
71
3
72
8
73
4
74
0
42
0.000000001
43
0.0000000001
44
0.0000000001
40
0
40
0
40
0
40
0
40
1
40
1
40
1
40
1
10
185.02321699999999
20
67.062947999999992
30
0
10
184.768326
20
66.808056999999991
30
0
10
184.42261999999999
20
66.664861000000002
30
0
10
184.06215
20
66.664861000000002
30
0
0
SPLINE
5
165
100
AcDbEntity
8
0
100
AcDbSpline
70
1064
71
3
72
8
73
4
74
0
42
0.000000001
43
0.0000000001
44
0.0000000001
40
0
40
0
40
0
40
0
40
1
40
1
40
1
40
1
10
185.42130400000002
20
68.024015000000006
30
0
10
185.42130400000002
20
67.663544999999999
30
0
10
185.278108
20
67.317839000000006
30
0
10
185.02321699999999
20
67.062947999999992
30
0
0
SPLINE
5
166
100
AcDbEntity
8
0
100
AcDbSpline
70
1064
71
3
72
8
73
4
74
0
42
0.000000001
43
0.0000000001
44
0.0000000001
40
0
40
0
40
0
40
0
40
1
40
1
40
1
40
1
10
184.06215
20
66.664861000000002
30
0
10
183.70168000000004
20
66.664861000000002
30
0
10
183.355974
20
66.808056999999991
30
0
10
183.10108300000002
20
67.062947999999992
30
0
0
SPLINE
5
167
100
AcDbEntity
8
0
100
AcDbSpline
70
1064
71
3
72
8
73
4
74
0
42
0.000000001
43
0.0000000001
44
0.0000000001
40
0
40
0
40
0
40
0
40
1
40
1
40
1
40
1
10
183.10108300000002
20
67.062947999999992
30
0
10
182.84619200000003
20
67.317839000000006
30
0
10
182.70299599999998
20
67.663544999999999
30
0
10
182.70299599999998
20
68.024015000000006
30
0
0
SPLINE
5
168
100
AcDbEntity
8
0
100
AcDbSpline
70
1064
71
3
72
8
73
4
74
0
42
0.000000001
43
0.0000000001
44
0.0000000001
40
0
40
0
40
0
40
0
40
1
40
1
40
1
40
1
10
184.06214399999999
20
201.38217100000003
30
0
10
184.42261400000001
20
201.38217100000003
30
0
10
184.76831999999999
20
201.23897500000001
30
0
10
185.023211
20
200.984084
30
0
0
SPLINE
5
169
100
AcDbEntity
8
0
100
AcDbSpline
70
1064
71
3
72
8
73
4
74
0
42
0.000000001
43
0.0000000001
44
0.0000000001
40
0
40
0
40
0
40
0
40
1
40
1
40
1
40
1
10
176.90299899999999
20
200.02301700000001
30
0
10
176.90299899999999
20
200.383487
30
0
10
177.04619500000001
20
200.72919299999998
30
0
10
177.301086
20
200.984084
30
0
0
SPLINE
5
170
100
AcDbEntity
8
0
100
AcDbSpline
70
1064
71
3
72
8
73
4
74
0
42
0.000000001
43
0.0000000001
44
0.0000000001
40
0
40
0
40
0
40
0
40
1
40
1
40
1
40
1
10
179.22322000000003
20
199.06195
30
0
10
178.96832900000004
20
198.80705900000004
30
0
10
178.622623
20
198.66386300000002
30
0
10
178.26215300000001
20
198.66386300000002
30
0
0
SPLINE
5
171
100
AcDbEntity
8
0
100
AcDbSpline
70
1064
71
3
72
8
73
4
74
0
42
0.000000001
43
0.0000000001
44
0.0000000001
40
0
40
0
40
0
40
0
40
1
40
1
40
1
40
1
10
177.301086
20
199.06195
30
0
10
177.04619500000001
20
199.31684099999998
30
0
10
176.90299899999999
20
199.66254700000002
30
0
10
176.90299899999999
20
200.02301700000001
30
0
0
SPLINE
5
172
100
AcDbEntity
8
0
100
AcDbSpline
70
1064
71
3
72
8
73
4
74
0
42
0.000000001
43
0.0000000001
44
0.0000000001
40
0
40
0
40
0
40
0
40
1
40
1
40
1
40
1
10
178.26215300000001
20
201.38217100000003
30
0
10
178.622623
20
201.38217100000003
30
0
10
178.96832900000004
20
201.23897500000001
30
0
10
179.22322000000003
20
200.984084
30
0
0
SPLINE
5
173
100
AcDbEntity
8
0
100
AcDbSpline
70
1064
71
3
72
8
73
4
74
0
42
0.000000001
43
0.0000000001
44
0.0000000001
40
0
40
0
40
0
40
0
40
1
40
1
40
1
40
1
10
179.22322000000003
20
200.984084
30
0
10
179.47811100000001
20
200.72919299999998
30
0
10
179.621307
20
200.383487
30
0
10
179.621307
20
200.02301700000001
30
0
0
SPLINE
5
174
100
AcDbEntity
8
0
100
AcDbSpline
70
1064
71
3
72
8
73
4
74
0
42
0.000000001
43
0.0000000001
44
0.0000000001
40
0
40
0
40
0
40
0
40
1
40
1
40
1
40
1
10
185.023211
20
200.984084
30
0
10
185.27810200000002
20
200.72919299999998
30
0
10
185.42129800000001
20
200.383487
30
0
10
185.42129800000001
20
200.02301700000001
30
0
0
SPLINE
5
175
100
AcDbEntity
8
0
100
AcDbSpline
70
1064
71
3
72
8
73
4
74
0
42
0.000000001
43
0.0000000001
44
0.0000000001
40
0
40
0
40
0
40
0
40
1
40
1
40
1
40
1
10
182.70299599999998
20
68.024015000000006
30
0
10
182.70299599999998
20
68.384484999999998
30
0
10
182.84619200000003
20
68.730191000000005
30
0
10
183.10108300000002
20
68.985081999999991
30
0
0
SPLINE
5
176
100
AcDbEntity
8
0
100
AcDbSpline
70
1064
71
3
72
8
73
4
74
0
42
0.000000001
43
0.0000000001
44
0.0000000001
40
0
40
0
40
0
40
0
40
1
40
1
40
1
40
1
10
13.056144999999999
20
143.93787
30
0
10
12.695675
20
143.93787
30
0
10
12.349968000000001
20
144.08106599999999
30
0
10
12.095077999999999
20
144.33595700000001
30
0
0
SPLINE
5
177
100
AcDbEntity
8
0
100
AcDbSpline
70
1064
71
3
72
8
73
4
74
0
42
0.000000001
43
0.0000000001
44
0.0000000001
40
0
40
0
40
0
40
0
40
1
40
1
40
1
40
1
10
12.095077999999999
20
144.33595700000001
30
0
10
11.840187
20
144.59084799999999
30
0
10
11.696991000000001
20
144.936554
30
0
10
11.696991000000001
20
145.29702399999999
30
0
0
SPLINE
5
178
100
AcDbEntity
8
0
100
AcDbSpline
70
1064
71
3
72
8
73
4
74
0
42
0.000000001
43
0.0000000001
44
0.0000000001
40
0
40
0
40
0
40
0
40
1
40
1
40
1
40
1
10
12.095077999999999
20
146.25809099999998
30
0
10
12.349968000000001
20
146.51298199999999
30
0
10
12.695675
20
146.65617800000001
30
0
10
13.056144999999999
20
146.65617800000001
30
0
0
SPLINE
5
179
100
AcDbEntity
8
0
100
AcDbSpline
70
1064
71
3
72
8
73
4
74
0
42
0.000000001
43
0.0000000001
44
0.0000000001
40
0
40
0
40
0
40
0
40
1
40
1
40
1
40
1
10
13.056144999999999
20
146.65617800000001
30
0
10
13.416615
20
146.65617800000001
30
0
10
13.762321000000002
20
146.51298199999999
30
0
10
14.017211999999999
20
146.25809099999998
30
0
0
SPLINE
5
180
100
AcDbEntity
8
0
100
AcDbSpline
70
1064
71
3
72
8
73
4
74
0
42
0.000000001
43
0.0000000001
44
0.0000000001
40
0
40
0
40
0
40
0
40
1
40
1
40
1
40
1
10
7.2561530000000012
20
143.93787
30
0
10
6.895683
20
143.93787
30
0
10
6.5499770000000002
20
144.08106599999999
30
0
10
6.2950860000000013
20
144.33595700000001
30
0
0
SPLINE
5
181
100
AcDbEntity
8
0
100
AcDbSpline
70
1064
71
3
72
8
73
4
74
0
42
0.000000001
43
0.0000000001
44
0.0000000001
40
0
40
0
40
0
40
0
40
1
40
1
40
1
40
1
10
6.2950860000000013
20
144.33595700000001
30
0
10
6.0401959999999999
20
144.59084799999999
30
0
10
5.896999000000001
20
144.936554
30
0
10
5.896999000000001
20
145.29702399999999
30
0
0
SPLINE
5
182
100
AcDbEntity
8
0
100
AcDbSpline
70
1064
71
3
72
8
73
4
74
0
42
0.000000001
43
0.0000000001
44
0.0000000001
40
0
40
0
40
0
40
0
40
1
40
1
40
1
40
1
10
14.017211999999999
20
144.33595700000001
30
0
10
13.762321000000002
20
144.08106599999999
30
0
10
13.416615
20
143.93787
30
0
10
13.056144999999999
20
143.93787
30
0
0
SPLINE
5
183
100
AcDbEntity
8
0
100
AcDbSpline
70
1064
71
3
72
8
73
4
74
0
42
0.000000001
43
0.0000000001
44
0.0000000001
40
0
40
0
40
0
40
0
40
1
40
1
40
1
40
1
10
14.415298999999999
20
145.29702399999999
30
0
10
14.415298999999999
20
144.936554
30
0
10
14.272103000000001
20
144.59084799999999
30
0
10
14.017211999999999
20
144.33595700000001
30
0
0
SPLINE
5
184
100
AcDbEntity
8
0
100
AcDbSpline
70
1064
71
3
72
8
73
4
74
0
42
0.000000001
43
0.0000000001
44
0.0000000001
40
0
40
0
40
0
40
0
40
1
40
1
40
1
40
1
10
11.696991000000001
20
145.29702399999999
30
0
10
11.696991000000001
20
145.65749399999999
30
0
10
11.840187
20
146.00319999999999
30
0
10
12.095077999999999
20
146.25809099999998
30
0
0
SPLINE
5
185
100
AcDbEntity
8
0
100
AcDbSpline
70
1064
71
3
72
8
73
4
74
0
42
0.000000001
43
0.0000000001
44
0.0000000001
40
0
40
0
40
0
40
0
40
1
40
1
40
1
40
1
10
14.017211999999999
20
146.25809099999998
30
0
10
14.272103000000001
20
146.00319999999999
30
0
10
14.415298999999999
20
145.65749399999999
30
0
10
14.415298999999999
20
145.29702399999999
30
0
0
SPLINE
5
186
100
AcDbEntity
8
0
100
AcDbSpline
70
1064
71
3
72
8
73
4
74
0
42
0.000000001
43
0.0000000001
44
0.0000000001
40
0
40
0
40
0
40
0
40
1
40
1
40
1
40
1
10
8.2172210000000021
20
144.33595700000001
30
0
10
7.9623300000000006
20
144.08106599999999
30
0
10
7.6166240000000007
20
143.93787
30
0
10
7.2561530000000012
20
143.93787
30
0
0
SPLINE
5
187
100
AcDbEntity
8
0
100
AcDbSpline
70
1064
71
3
72
8
73
4
74
0
42
0.000000001
43
0.0000000001
44
0.0000000001
40
0
40
0
40
0
40
0
40
1
40
1
40
1
40
1
10
8.6153070000000014
20
145.29702399999999
30
0
10
8.6153080000000024
20
144.936554
30
0
10
8.4721109999999999
20
144.59084799999999
30
0
10
8.2172210000000021
20
144.33595700000001
30
0
0
SPLINE
5
188
100
AcDbEntity
8
0
100
AcDbSpline
70
1064
71
3
72
8
73
4
74
0
42
0.000000001
43
0.0000000001
44
0.0000000001
40
0
40
0
40
0
40
0
40
1
40
1
40
1
40
1
10
5.896999000000001
20
145.29702399999999
30
0
10
5.896999000000001
20
145.65749399999999
30
0
10
6.0401959999999999
20
146.00319999999999
30
0
10
6.2950860000000013
20
146.25809099999998
30
0
0
SPLINE
5
189
100
AcDbEntity
8
0
100
AcDbSpline
70
1064
71
3
72
8
73
4
74
0
42
0.000000001
43
0.0000000001
44
0.0000000001
40
0
40
0
40
0
40
0
40
1
40
1
40
1
40
1
10
6.2950860000000013
20
146.25809099999998
30
0
10
6.5499770000000002
20
146.51298199999999
30
0
10
6.895683
20
146.65617800000001
30
0
10
7.2561530000000012
20
146.65617800000001
30
0
0
SPLINE
5
190
100
AcDbEntity
8
0
100
AcDbSpline
70
1064
71
3
72
8
73
4
74
0
42
0.000000001
43
0.0000000001
44
0.0000000001
40
0
40
0
40
0
40
0
40
1
40
1
40
1
40
1
10
7.2561530000000012
20
146.65617800000001
30
0
10
7.6166240000000007
20
146.65617800000001
30
0
10
7.9623300000000006
20
146.51298199999999
30
0
10
8.2172210000000021
20
146.25809099999998
30
0
0
SPLINE
5
191
100
AcDbEntity
8
0
100
AcDbSpline
70
1064
71
3
72
8
73
4
74
0
42
0.000000001
43
0.0000000001
44
0.0000000001
40
0
40
0
40
0
40
0
40
1
40
1
40
1
40
1
10
12.095077999999999
20
227.26894900000005
30
0
10
11.840187
20
227.52384000000001
30
0
10
11.696991000000001
20
227.86954600000001
30
0
10
11.696991000000001
20
228.23001600000001
30
0
0
SPLINE
5
192
100
AcDbEntity
8
0
100
AcDbSpline
70
1064
71
3
72
8
73
4
74
0
42
0.000000001
43
0.0000000001
44
0.0000000001
40
0
40
0
40
0
40
0
40
1
40
1
40
1
40
1
10
13.056144999999999
20
226.87086200000005
30
0
10
12.695675
20
226.87086200000005
30
0
10
12.349968000000001
20
227.01405800000003
30
0
10
12.095077999999999
20
227.26894900000005
30
0
0
SPLINE
5
193
100
AcDbEntity
8
0
100
AcDbSpline
70
1064
71
3
72
8
73
4
74
0
42
0.000000001
43
0.0000000001
44
0.0000000001
40
0
40
0
40
0
40
0
40
1
40
1
40
1
40
1
10
8.6153070000000014
20
228.23001600000001
30
0
10
8.6153080000000024
20
227.86954600000001
30
0
10
8.4721109999999999
20
227.52384000000001
30
0
10
8.2172210000000021
20
227.26894900000005
30
0
0
SPLINE
5
194
100
AcDbEntity
8
0
100
AcDbSpline
70
1064
71
3
72
8
73
4
74
0
42
0.000000001
43
0.0000000001
44
0.0000000001
40
0
40
0
40
0
40
0
40
1
40
1
40
1
40
1
10
7.2561530000000012
20
226.87086200000005
30
0
10
6.895683
20
226.87086200000005
30
0
10
6.5499770000000002
20
227.01405800000003
30
0
10
6.2950860000000013
20
227.26894900000005
30
0
0
SPLINE
5
195
100
AcDbEntity
8
0
100
AcDbSpline
70
1064
71
3
72
8
73
4
74
0
42
0.000000001
43
0.0000000001
44
0.0000000001
40
0
40
0
40
0
40
0
40
1
40
1
40
1
40
1
10
8.2172210000000021
20
227.26894900000005
30
0
10
7.9623300000000006
20
227.01405800000003
30
0
10
7.6166240000000007
20
226.87086200000005
30
0
10
7.2561530000000012
20
226.87086200000005
30
0
0
SPLINE
5
196
100
AcDbEntity
8
0
100
AcDbSpline
70
1064
71
3
72
8
73
4
74
0
42
0.000000001
43
0.0000000001
44
0.0000000001
40
0
40
0
40
0
40
0
40
1
40
1
40
1
40
1
10
14.415298999999999
20
228.23001600000001
30
0
10
14.415298999999999
20
227.86954600000001
30
0
10
14.272103000000001
20
227.52384000000001
30
0
10
14.017211999999999
20
227.26894900000005
30
0
0
SPLINE
5
197
100
AcDbEntity
8
0
100
AcDbSpline
70
1064
71
3
72
8
73
4
74
0
42
0.000000001
43
0.0000000001
44
0.0000000001
40
0
40
0
40
0
40
0
40
1
40
1
40
1
40
1
10
12.095077999999999
20
229.19108300000005
30
0
10
12.349968000000001
20
229.44597400000006
30
0
10
12.695675
20
229.58917000000002
30
0
10
13.056144999999999
20
229.58917000000002
30
0
0
SPLINE
5
198
100
AcDbEntity
8
0
100
AcDbSpline
70
1064
71
3
72
8
73
4
74
0
42
0.000000001
43
0.0000000001
44
0.0000000001
40
0
40
0
40
0
40
0
40
1
40
1
40
1
40
1
10
14.017211999999999
20
229.19108300000005
30
0
10
14.272103000000001
20
228.936193
30
0
10
14.415298999999999
20
228.590486
30
0
10
14.415298999999999
20
228.23001600000001
30
0
0
SPLINE
5
199
100
AcDbEntity
8
0
100
AcDbSpline
70
1064
71
3
72
8
73
4
74
0
42
0.000000001
43
0.0000000001
44
0.0000000001
40
0
40
0
40
0
40
0
40
1
40
1
40
1
40
1
10
11.696991000000001
20
228.23001600000001
30
0
10
11.696991000000001
20
228.590486
30
0
10
11.840187
20
228.936193
30
0
10
12.095077999999999
20
229.19108300000005
30
0
0
SPLINE
5
200
100
AcDbEntity
8
0
100
AcDbSpline
70
1064
71
3
72
8
73
4
74
0
42
0.000000001
43
0.0000000001
44
0.0000000001
40
0
40
0
40
0
40
0
40
1
40
1
40
1
40
1
10
13.056144999999999
20
229.58917000000002
30
0
10
13.416615
20
229.58917000000002
30
0
10
13.762321000000002
20
229.44597400000006
30
0
10
14.017211999999999
20
229.19108300000005
30
0
0
SPLINE
5
201
100
AcDbEntity
8
0
100
AcDbSpline
70
1064
71
3
72
8
73
4
74
0
42
0.000000001
43
0.0000000001
44
0.0000000001
40
0
40
0
40
0
40
0
40
1
40
1
40
1
40
1
10
14.017211999999999
20
227.26894900000005
30
0
10
13.762321000000002
20
227.01405800000003
30
0
10
13.416615
20
226.87086200000005
30
0
10
13.056144999999999
20
226.87086200000005
30
0
0
SPLINE
5
202
100
AcDbEntity
8
0
100
AcDbSpline
70
1064
71
3
72
8
73
4
74
0
42
0.000000001
43
0.0000000001
44
0.0000000001
40
0
40
0
40
0
40
0
40
1
40
1
40
1
40
1
10
8.2172210000000021
20
146.25809099999998
30
0
10
8.4721109999999999
20
146.00319999999999
30
0
10
8.6153080000000024
20
145.65749399999999
30
0
10
8.6153070000000014
20
145.29702399999999
30
0
0
SPLINE
5
203
100
AcDbEntity
8
0
100
AcDbSpline
70
1064
71
3
72
8
73
4
74
0
42
0.000000001
43
0.0000000001
44
0.0000000001
40
0
40
0
40
0
40
0
40
1
40
1
40
1
40
1
10
53.913004000000001
20
9.4589700000000008
30
0
10
55.050117000000007
20
9.4589700000000008
30
0
10
55.971928000000005
20
8.5371580000000016
30
0
10
55.971928000000005
20
7.4000460000000015
30
0
0
SPLINE
5
204
100
AcDbEntity
8
0
100
AcDbSpline
70
1064
71
3
72
8
73
4
74
0
42
0.000000001
43
0.0000000001
44
0.0000000001
40
0
40
0
40
0
40
0
40
1
40
1
40
1
40
1
10
53.913004000000001
20
5.3411220000000004
30
0
10
52.775892000000006
20
5.3411220000000004
30
0
10
51.854081000000001
20
6.2629339999999996
30
0
10
51.85408000000001
20
7.4000460000000015
30
0
0
SPLINE
5
205
100
AcDbEntity
8
0
100
AcDbSpline
70
1064
71
3
72
8
73
4
74
0
42
0.000000001
43
0.0000000001
44
0.0000000001
40
0
40
0
40
0
40
0
40
1
40
1
40
1
40
1
10
55.971928000000005
20
7.4000460000000015
30
0
10
55.971928000000005
20
6.2629339999999996
30
0
10
55.050117000000007
20
5.3411220000000004
30
0
10
53.913004000000001
20
5.3411220000000004
30
0
0
SPLINE
5
206
100
AcDbEntity
8
0
100
AcDbSpline
70
1064
71
3
72
8
73
4
74
0
42
0.000000001
43
0.0000000001
44
0.0000000001
40
0
40
0
40
0
40
0
40
1
40
1
40
1
40
1
10
75.13301100000001
20
9.4589700000000008
30
0
10
76.270123000000012
20
9.4589700000000008
30
0
10
77.191935000000001
20
8.5371580000000016
30
0
10
77.191935000000001
20
7.4000460000000015
30
0
0
SPLINE
5
207
100
AcDbEntity
8
0
100
AcDbSpline
70
1064
71
3
72
8
73
4
74
0
42
0.000000001
43
0.0000000001
44
0.0000000001
40
0
40
0
40
0
40
0
40
1
40
1
40
1
40
1
10
51.85408000000001
20
7.4000460000000015
30
0
10
51.854081000000001
20
8.5371580000000016
30
0
10
52.775892000000006
20
9.4589700000000008
30
0
10
53.913004000000001
20
9.4589700000000008
30
0
0
SPLINE
5
208
100
AcDbEntity
8
0
100
AcDbSpline
70
1064
71
3
72
8
73
4
74
0
42
0.000000001
43
0.0000000001
44
0.0000000001
40
0
40
0
40
0
40
0
40
1
40
1
40
1
40
1
10
73.074086999999992
20
7.4000460000000015
30
0
10
73.074086999999992
20
8.5371580000000016
30
0
10
73.995899000000009
20
9.4589700000000008
30
0
10
75.13301100000001
20
9.4589700000000008
30
0
0
SPLINE
5
209
100
AcDbEntity
8
0
100
AcDbSpline
70
1064
71
3
72
8
73
4
74
0
42
0.000000001
43
0.0000000001
44
0.0000000001
40
0
40
0
40
0
40
0
40
1
40
1
40
1
40
1
10
155.56908200000004
20
7.4000460000000015
30
0
10
155.56908200000004
20
8.5371580000000016
30
0
10
156.49089400000003
20
9.4589700000000008
30
0
10
157.628006
20
9.4589700000000008
30
0
0
SPLINE
5
210
100
AcDbEntity
8
0
100
AcDbSpline
70
1064
71
3
72
8
73
4
74
0
42
0.000000001
43
0.0000000001
44
0.0000000001
40
0
40
0
40
0
40
0
40
1
40
1
40
1
40
1
10
77.191935000000001
20
7.4000460000000015
30
0
10
77.191935000000001
20
6.2629339999999996
30
0
10
76.270123000000012
20
5.3411220000000004
30
0
10
75.13301100000001
20
5.3411220000000004
30
0
0
SPLINE
5
211
100
AcDbEntity
8
0
100
AcDbSpline
70
1064
71
3
72
8
73
4
74
0
42
0.000000001
43
0.0000000001
44
0.0000000001
40
0
40
0
40
0
40
0
40
1
40
1
40
1
40
1
10
157.628006
20
5.3411220000000004
30
0
10
156.49089400000003
20
5.3411220000000004
30
0
10
155.56908200000004
20
6.2629339999999996
30
0
10
155.56908200000004
20
7.4000460000000015
30
0
0
LINE
5
212
100
AcDbEntity
8
0
100
AcDbLine
10
0.27065600000000001
20
0.18820699999999135
30
0
11
14.67065
21
0.18815000000000001
31
0
0
SPLINE
5
213
100
AcDbEntity
8
0
100
AcDbSpline
70
1064
71
3
72
8
73
4
74
0
42
0.000000001
43
0.0000000001
44
0.0000000001
40
0
40
0
40
0
40
0
40
1
40
1
40
1
40
1
10
6.2950860000000013
20
227.26894900000005
30
0
10
6.0401959999999999
20
227.52384000000001
30
0
10
5.896999000000001
20
227.86954600000001
30
0
10
5.896999000000001
20
228.23001600000001
30
0
0
SPLINE
5
214
100
AcDbEntity
8
0
100
AcDbSpline
70
1064
71
3
72
8
73
4
74
0
42
0.000000001
43
0.0000000001
44
0.0000000001
40
0
40
0
40
0
40
0
40
1
40
1
40
1
40
1
10
5.896999000000001
20
228.23001600000001
30
0
10
5.896999000000001
20
228.590486
30
0
10
6.0401959999999999
20
228.936193
30
0
10
6.2950860000000013
20
229.19108300000005
30
0
0
LINE
5
215
100
AcDbEntity
8
0
100
AcDbLine
10
39.670724999999997
20
0.18815000000000001
30
0
11
87.595772000000011
21
0.16780200000000001
31
0
0
SPLINE
5
216
100
AcDbEntity
8
0
100
AcDbSpline
70
1064
71
3
72
8
73
4
74
0
42
0.000000001
43
0.0000000001
44
0.0000000001
40
0
40
0
40
0
40
0
40
1
40
1
40
1
40
1
10
75.13301100000001
20
5.3411220000000004
30
0
10
73.995899000000009
20
5.3411220000000004
30
0
10
73.074086999999992
20
6.2629339999999996
30
0
10
73.074086999999992
20
7.4000460000000015
30
0
0
LINE
5
217
100
AcDbEntity
8
0
100
AcDbLine
10
0.14100000000000001
20
305.190834
30
0
11
0.27065600000000001
21
0.18820699999999135
31
0
0
LINE
5
218
100
AcDbEntity
8
0
100
AcDbLine
10
87.595772000000011
20
0.16780200000000001
30
0
11
87.584602000000004
21
2.4271880000000001
31
0
0
LINE
5
219
100
AcDbEntity
8
0
100
AcDbLine
10
0.14099999999999999
20
330.1910180000001
30
0
11
2.55789
21
330.194817
31
0
0
LINE
5
220
100
AcDbEntity
8
0
100
AcDbLine
10
39.674762999999999
20
2.7224209999999998
30
0
11
39.670724999999997
21
0.18815000000000001
31
0
0
LINE
5
221
100
AcDbEntity
8
0
100
AcDbLine
10
14.67065
20
0.18815000000000001
30
0
11
14.651579999999999
21
2.7074630000000006
31
0
0
LINE
5
222
100
AcDbEntity
8
0
100
AcDbLine
10
99.267833999999993
20
0.16780200000000001
30
0
11
99.267833999999993
21
3.6678089999999997
31
0
0
LINE
5
223
100
AcDbEntity
8
0
100
AcDbLine
10
17.154015999999999
20
5.2098710000000006
30
0
11
37.172354999999996
21
5.2248570000000001
31
0
0
LINE
5
224
100
AcDbEntity
8
0
100
AcDbLine
10
5.1530660000000008
20
327.69481300000001
30
0
11
5.1322039999999998
21
307.71531699999997
31
0
0
LINE
5
225
100
AcDbEntity
8
0
100
AcDbLine
10
106.26784800000001
20
0.16780200000000001
30
0
11
191.26814400000001
21
0.16783000000000003
31
0
0
LINE
5
226
100
AcDbEntity
8
0
100
AcDbLine
10
2.629769
20
305.212898
30
0
11
0.14100000000000001
21
305.190834
31
0
0
LINE
5
227
100
AcDbEntity
8
0
100
AcDbLine
10
106.256918
20
3.6870849999999997
30
0
11
106.26784800000001
21
0.16780200000000001
31
0
0
SPLINE
5
228
100
AcDbEntity
8
0
100
AcDbSpline
70
1064
71
3
72
8
73
4
74
0
42
0.000000001
43
0.0000000001
44
0.0000000001
40
0
40
0
40
0
40
0
40
1
40
1
40
1
40
1
10
7.2000030000000006
20
358.96893599999999
30
0
10
6.0628900000000012
20
358.96893599999999
30
0
10
5.1410790000000004
20
359.89074799999997
30
0
10
5.1410790000000004
20
361.02786000000003
30
0
0
SPLINE
5
229
100
AcDbEntity
8
0
100
AcDbSpline
70
1064
71
3
72
8
73
4
74
0
42
0.000000001
43
0.0000000001
44
0.0000000001
40
0
40
0
40
0
40
0
40
1
40
1
40
1
40
1
10
9.2589269999999999
20
361.02786000000003
30
0
10
9.2589259999999989
20
359.89074799999997
30
0
10
8.3371149999999989
20
358.96893599999999
30
0
10
7.2000030000000006
20
358.96893599999999
30
0
0
SPLINE
5
230
100
AcDbEntity
8
0
100
AcDbSpline
70
1064
71
3
72
8
73
4
74
0
42
0.000000001
43
0.0000000001
44
0.0000000001
40
0
40
0
40
0
40
0
40
1
40
1
40
1
40
1
10
7.2000030000000006
20
363.08678399999997
30
0
10
8.3371149999999989
20
363.08678399999997
30
0
10
9.2589259999999989
20
362.16497200000003
30
0
10
9.2589269999999999
20
361.02786000000003
30
0
0
SPLINE
5
231
100
AcDbEntity
8
0
100
AcDbSpline
70
1064
71
3
72
8
73
4
74
0
42
0.000000001
43
0.0000000001
44
0.0000000001
40
0
40
0
40
0
40
0
40
1
40
1
40
1
40
1
10
5.1410790000000004
20
361.02786000000003
30
0
10
5.1410790000000004
20
362.16497200000003
30
0
10
6.0628900000000012
20
363.08678399999997
30
0
10
7.2000030000000006
20
363.08678399999997
30
0
0
SPLINE
5
232
100
AcDbEntity
8
0
100
AcDbSpline
70
1064
71
3
72
8
73
4
74
0
42
0.000000001
43
0.0000000001
44
0.0000000001
40
0
40
0
40
0
40
0
40
1
40
1
40
1
40
1
10
9.2589269999999999
20
339.80785300000002
30
0
10
9.2589259999999989
20
338.67074100000002
30
0
10
8.3371149999999989
20
337.74892899999998
30
0
10
7.2000030000000006
20
337.74892899999998
30
0
0
SPLINE
5
233
100
AcDbEntity
8
0
100
AcDbSpline
70
1064
71
3
72
8
73
4
74
0
42
0.000000001
43
0.0000000001
44
0.0000000001
40
0
40
0
40
0
40
0
40
1
40
1
40
1
40
1
10
7.2000030000000006
20
341.86677700000007
30
0
10
8.3371149999999989
20
341.86677700000007
30
0
10
9.2589259999999989
20
340.94496499999997
30
0
10
9.2589269999999999
20
339.80785300000002
30
0
0
LINE
5
234
100
AcDbEntity
8
0
100
AcDbLine
10
92.595830209910758
20
2.4335604673901203
30
0
11
92.563896
21
0.16780199999999995
31
0
0
SPLINE
5
235
100
AcDbEntity
8
0
100
AcDbSpline
70
1064
71
3
72
8
73
4
74
0
42
0.000000001
43
0.0000000001
44
0.0000000001
40
0
40
0
40
0
40
0
40
1
40
1
40
1
40
1
10
5.1410790000000004
20
339.80785300000002
30
0
10
5.1410790000000004
20
340.94496499999997
30
0
10
6.0628900000000012
20
341.86677700000007
30
0
10
7.2000030000000006
20
341.86677700000007
30
0
0
SPLINE
5
236
100
AcDbEntity
8
0
100
AcDbSpline
70
1064
71
3
72
8
73
4
74
0
42
0.000000001
43
0.0000000001
44
0.0000000001
40
0
40
0
40
0
40
0
40
1
40
1
40
1
40
1
10
5.1410790000000004
20
201.02485000000001
30
0
10
5.141077000000001
20
201.57091100000002
30
0
10
5.3579980000000003
20
202.09460800000002
30
0
10
5.7441209999999998
20
202.48073200000005
30
0
0
SPLINE
5
237
100
AcDbEntity
8
0
100
AcDbSpline
70
1064
71
3
72
8
73
4
74
0
42
0.000000001
43
0.0000000001
44
0.0000000001
40
0
40
0
40
0
40
0
40
1
40
1
40
1
40
1
10
9.2589269999999999
20
201.02485000000001
30
0
10
9.2589259999999989
20
199.88773700000002
30
0
10
8.3371149999999989
20
198.96592600000002
30
0
10
7.2000030000000006
20
198.96592600000002
30
0
0
SPLINE
5
238
100
AcDbEntity
8
0
100
AcDbSpline
70
1064
71
3
72
8
73
4
74
0
42
0.000000001
43
0.0000000001
44
0.0000000001
40
0
40
0
40
0
40
0
40
1
40
1
40
1
40
1
10
7.2000030000000006
20
337.74892899999998
30
0
10
6.0628900000000012
20
337.74892899999998
30
0
10
5.1410790000000004
20
338.67074100000002
30
0
10
5.1410790000000004
20
339.80785300000002
30
0
0
SPLINE
5
239
100
AcDbEntity
8
0
100
AcDbSpline
70
1064
71
3
72
8
73
4
74
0
42
0.000000001
43
0.0000000001
44
0.0000000001
40
0
40
0
40
0
40
0
40
1
40
1
40
1
40
1
10
7.2000030000000006
20
198.96592600000002
30
0
10
6.0628900000000012
20
198.96592600000002
30
0
10
5.1410790000000004
20
199.88773700000002
30
0
10
5.1410790000000004
20
201.02485000000001
30
0
0
LINE
5
240
100
AcDbEntity
8
0
100
AcDbLine
10
92.563896
20
0.16780199999999995
30
0
11
99.267833999999993
21
0.16780200000000001
31
0
0
LINE
5
241
100
AcDbEntity
8
0
100
AcDbLine
10
0.26783500000000515
20
484.16786999999999
30
0
11
0.14099999999999999
21
330.1910180000001
31
0
0
SPLINE
5
242
100
AcDbEntity
8
0
100
AcDbSpline
70
1064
71
3
72
8
73
4
74
0
42
0.000000001
43
0.0000000001
44
0.0000000001
40
0
40
0
40
0
40
0
40
1
40
1
40
1
40
1
10
176.90300500000004
20
68.024015000000006
30
0
10
176.90300500000004
20
68.384484999999998
30
0
10
177.046201
20
68.730191000000005
30
0
10
177.30109199999998
20
68.985081999999991
30
0
0
SPLINE
5
243
100
AcDbEntity
8
0
100
AcDbSpline
70
1064
71
3
72
8
73
4
74
0
42
0.000000001
43
0.0000000001
44
0.0000000001
40
0
40
0
40
0
40
0
40
1
40
1
40
1
40
1
10
177.30109199999998
20
67.062947999999992
30
0
10
177.046201
20
67.317839000000006
30
0
10
176.90300500000004
20
67.663544999999999
30
0
10
176.90300500000004
20
68.024015000000006
30
0
0
SPLINE
5
244
100
AcDbEntity
8
0
100
AcDbSpline
70
1064
71
3
72
8
73
4
74
0
42
0.000000001
43
0.0000000001
44
0.0000000001
40
0
40
0
40
0
40
0
40
1
40
1
40
1
40
1
10
9.2589269999999999
20
179.80484300000001
30
0
10
9.2589259999999989
20
178.667731
30
0
10
8.3371149999999989
20
177.74591900000001
30
0
10
7.2000030000000006
20
177.74591900000001
30
0
0
SPLINE
5
245
100
AcDbEntity
8
0
100
AcDbSpline
70
1064
71
3
72
8
73
4
74
0
42
0.000000001
43
0.0000000001
44
0.0000000001
40
0
40
0
40
0
40
0
40
1
40
1
40
1
40
1
10
8.6558840000000004
20
202.48073200000005
30
0
10
9.0420070000000017
20
202.09460800000002
30
0
10
9.2589279999999992
20
201.57091100000002
30
0
10
9.2589269999999999
20
201.02485000000001
30
0
0
SPLINE
5
246
100
AcDbEntity
8
0
100
AcDbSpline
70
1064
71
3
72
8
73
4
74
0
42
0.000000001
43
0.0000000001
44
0.0000000001
40
0
40
0
40
0
40
0
40
1
40
1
40
1
40
1
10
183.10108300000002
20
68.985081999999991
30
0
10
183.355974
20
69.239972999999992
30
0
10
183.70168000000004
20
69.383169000000009
30
0
10
184.06215
20
69.383169000000009
30
0
0
SPLINE
5
247
100
AcDbEntity
8
0
100
AcDbSpline
70
1064
71
3
72
8
73
4
74
0
42
0.000000001
43
0.0000000001
44
0.0000000001
40
0
40
0
40
0
40
0
40
1
40
1
40
1
40
1
10
184.06215
20
69.383169000000009
30
0
10
184.42261999999999
20
69.383169000000009
30
0
10
184.768326
20
69.239972999999992
30
0
10
185.02321699999999
20
68.985081999999991
30
0
0
SPLINE
5
248
100
AcDbEntity
8
0
100
AcDbSpline
70
1064
71
3
72
8
73
4
74
0
42
0.000000001
43
0.0000000001
44
0.0000000001
40
0
40
0
40
0
40
0
40
1
40
1
40
1
40
1
10
179.62131299999999
20
68.024015000000006
30
0
10
179.62131299999999
20
67.663544999999999
30
0
10
179.478117
20
67.317839000000006
30
0
10
179.22322600000001
20
67.062947999999992
30
0
0
SPLINE
5
249
100
AcDbEntity
8
0
100
AcDbSpline
70
1064
71
3
72
8
73
4
74
0
42
0.000000001
43
0.0000000001
44
0.0000000001
40
0
40
0
40
0
40
0
40
1
40
1
40
1
40
1
10
5.7441209999999998
20
202.48073200000005
30
0
10
6.1302449999999995
20
202.86685700000004
30
0
10
6.6539410000000014
20
203.08377899999999
30
0
10
7.2000030000000006
20
203.08377899999999
30
0
0
SPLINE
5
250
100
AcDbEntity
8
0
100
AcDbSpline
70
1064
71
3
72
8
73
4
74
0
42
0.000000001
43
0.0000000001
44
0.0000000001
40
0
40
0
40
0
40
0
40
1
40
1
40
1
40
1
10
185.02321699999999
20
68.985081999999991
30
0
10
185.278108
20
68.730191000000005
30
0
10
185.42130400000002
20
68.384484999999998
30
0
10
185.42130400000002
20
68.024015000000006
30
0
0
SPLINE
5
251
100
AcDbEntity
8
0
100
AcDbSpline
70
1064
71
3
72
8
73
4
74
0
42
0.000000001
43
0.0000000001
44
0.0000000001
40
0
40
0
40
0
40
0
40
1
40
1
40
1
40
1
10
178.262159
20
66.664861000000002
30
0
10
177.90168899999998
20
66.664861000000002
30
0
10
177.55598200000003
20
66.808056999999991
30
0
10
177.30109199999998
20
67.062947999999992
30
0
0
SPLINE
5
252
100
AcDbEntity
8
0
100
AcDbSpline
70
1064
71
3
72
8
73
4
74
0
42
0.000000001
43
0.0000000001
44
0.0000000001
40
0
40
0
40
0
40
0
40
1
40
1
40
1
40
1
10
7.2000030000000006
20
177.74591900000001
30
0
10
6.0628900000000012
20
177.74591900000001
30
0
10
5.1410790000000004
20
178.667731
30
0
10
5.1410790000000004
20
179.80484300000001
30
0
0
SPLINE
5
253
100
AcDbEntity
8
0
100
AcDbSpline
70
1064
71
3
72
8
73
4
74
0
42
0.000000001
43
0.0000000001
44
0.0000000001
40
0
40
0
40
0
40
0
40
1
40
1
40
1
40
1
10
7.2000030000000006
20
203.08377899999999
30
0
10
7.7460640000000005
20
203.08377899999999
30
0
10
8.2697599999999998
20
202.86685700000004
30
0
10
8.6558840000000004
20
202.48073200000005
30
0
0
SPLINE
5
254
100
AcDbEntity
8
0
100
AcDbSpline
70
1064
71
3
72
8
73
4
74
0
42
0.000000001
43
0.0000000001
44
0.0000000001
40
0
40
0
40
0
40
0
40
1
40
1
40
1
40
1
10
179.22322600000001
20
67.062947999999992
30
0
10
178.968335
20
66.808056999999991
30
0
10
178.62262900000002
20
66.664861000000002
30
0
10
178.262159
20
66.664861000000002
30
0
0
SPLINE
5
255
100
AcDbEntity
8
0
100
AcDbSpline
70
1064
71
3
72
8
73
4
74
0
42
0.000000001
43
0.0000000001
44
0.0000000001
40
0
40
0
40
0
40
0
40
1
40
1
40
1
40
1
10
160.088007
20
29.691096999999999
30
0
10
158.950895
20
29.691096999999999
30
0
10
158.02908300000001
20
30.612909000000002
30
0
10
158.02908300000001
20
31.750021000000004
30
0
0
SPLINE
5
256
100
AcDbEntity
8
0
100
AcDbSpline
70
1064
71
3
72
8
73
4
74
0
42
0.000000001
43
0.0000000001
44
0.0000000001
40
0
40
0
40
0
40
0
40
1
40
1
40
1
40
1
10
7.2561530000000012
20
80.656169000000006
30
0
10
7.6166240000000007
20
80.656169000000006
30
0
10
7.9623300000000006
20
80.512973000000002
30
0
10
8.2172210000000021
20
80.258082000000002
30
0
0
SPLINE
5
257
100
AcDbEntity
8
0
100
AcDbSpline
70
1064
71
3
72
8
73
4
74
0
42
0.000000001
43
0.0000000001
44
0.0000000001
40
0
40
0
40
0
40
0
40
1
40
1
40
1
40
1
10
177.30109199999998
20
68.985081999999991
30
0
10
177.55598200000003
20
69.239972999999992
30
0
10
177.90168899999998
20
69.383169000000009
30
0
10
178.262159
20
69.383169000000009
30
0
0
SPLINE
5
258
100
AcDbEntity
8
0
100
AcDbSpline
70
1064
71
3
72
8
73
4
74
0
42
0.000000001
43
0.0000000001
44
0.0000000001
40
0
40
0
40
0
40
0
40
1
40
1
40
1
40
1
10
160.088007
20
33.808945000000001
30
0
10
161.22511900000003
20
33.808945000000001
30
0
10
162.14693100000002
20
32.887132999999999
30
0
10
162.14693100000002
20
31.750021000000004
30
0
0
SPLINE
5
259
100
AcDbEntity
8
0
100
AcDbSpline
70
1064
71
3
72
8
73
4
74
0
42
0.000000001
43
0.0000000001
44
0.0000000001
40
0
40
0
40
0
40
0
40
1
40
1
40
1
40
1
10
178.262159
20
69.383169000000009
30
0
10
178.62262900000002
20
69.383169000000009
30
0
10
178.968335
20
69.239972999999992
30
0
10
179.22322600000001
20
68.985081999999991
30
0
0
SPLINE
5
260
100
AcDbEntity
8
0
100
AcDbSpline
70
1064
71
3
72
8
73
4
74
0
42
0.000000001
43
0.0000000001
44
0.0000000001
40
0
40
0
40
0
40
0
40
1
40
1
40
1
40
1
10
136.40799899999999
20
9.4589700000000008
30
0
10
137.54511200000002
20
9.4589700000000008
30
0
10
138.46692299999998
20
8.5371580000000016
30
0
10
138.46692299999998
20
7.4000460000000015
30
0
0
SPLINE
5
261
100
AcDbEntity
8
0
100
AcDbSpline
70
1064
71
3
72
8
73
4
74
0
42
0.000000001
43
0.0000000001
44
0.0000000001
40
0
40
0
40
0
40
0
40
1
40
1
40
1
40
1
10
136.40799899999999
20
5.3411220000000004
30
0
10
135.27088700000002
20
5.3411220000000004
30
0
10
134.34907500000003
20
6.2629339999999996
30
0
10
134.34907500000003
20
7.4000460000000015
30
0
0
SPLINE
5
262
100
AcDbEntity
8
0
100
AcDbSpline
70
1064
71
3
72
8
73
4
74
0
42
0.000000001
43
0.0000000001
44
0.0000000001
40
0
40
0
40
0
40
0
40
1
40
1
40
1
40
1
10
179.22322600000001
20
68.985081999999991
30
0
10
179.478117
20
68.730191000000005
30
0
10
179.62131299999999
20
68.384484999999998
30
0
10
179.62131299999999
20
68.024015000000006
30
0
0
SPLINE
5
263
100
AcDbEntity
8
0
100
AcDbSpline
70
1064
71
3
72
8
73
4
74
0
42
0.000000001
43
0.0000000001
44
0.0000000001
40
0
40
0
40
0
40
0
40
1
40
1
40
1
40
1
10
162.14693100000002
20
123.05001000000003
30
0
10
162.14693100000002
20
121.912898
30
0
10
161.22511900000003
20
120.99108700000002
30
0
10
160.088007
20
120.99108600000001
30
0
0
SPLINE
5
264
100
AcDbEntity
8
0
100
AcDbSpline
70
1064
71
3
72
8
73
4
74
0
42
0.000000001
43
0.0000000001
44
0.0000000001
40
0
40
0
40
0
40
0
40
1
40
1
40
1
40
1
10
158.02908300000001
20
123.05001000000003
30
0
10
158.02908300000001
20
124.18712300000001
30
0
10
158.950895
20
125.108934
30
0
10
160.088007
20
125.108934
30
0
0
SPLINE
5
265
100
AcDbEntity
8
0
100
AcDbSpline
70
1064
71
3
72
8
73
4
74
0
42
0.000000001
43
0.0000000001
44
0.0000000001
40
0
40
0
40
0
40
0
40
1
40
1
40
1
40
1
10
162.14693100000002
20
31.750021000000004
30
0
10
162.14693100000002
20
30.612909000000002
30
0
10
161.22511900000003
20
29.691096999999999
30
0
10
160.088007
20
29.691096999999999
30
0
0
SPLINE
5
266
100
AcDbEntity
8
0
100
AcDbSpline
70
1064
71
3
72
8
73
4
74
0
42
0.000000001
43
0.0000000001
44
0.0000000001
40
0
40
0
40
0
40
0
40
1
40
1
40
1
40
1
10
158.02908300000001
20
31.750021000000004
30
0
10
158.02908300000001
20
32.887132999999999
30
0
10
158.950895
20
33.808945000000001
30
0
10
160.088007
20
33.808945000000001
30
0
0
SPLINE
5
267
100
AcDbEntity
8
0
100
AcDbSpline
70
1064
71
3
72
8
73
4
74
0
42
0.000000001
43
0.0000000001
44
0.0000000001
40
0
40
0
40
0
40
0
40
1
40
1
40
1
40
1
10
160.088007
20
125.108934
30
0
10
161.22511900000003
20
125.108934
30
0
10
162.14693100000002
20
124.18712300000001
30
0
10
162.14693100000002
20
123.05001000000003
30
0
0
SPLINE
5
268
100
AcDbEntity
8
0
100
AcDbSpline
70
1064
71
3
72
8
73
4
74
0
42
0.000000001
43
0.0000000001
44
0.0000000001
40
0
40
0
40
0
40
0
40
1
40
1
40
1
40
1
10
183.50899900000002
20
118.55308200000002
30
0
10
182.37188700000004
20
118.55308200000002
30
0
10
181.45007500000003
20
119.47489300000001
30
0
10
181.45007500000003
20
120.61200600000001
30
0
0
SPLINE
5
269
100
AcDbEntity
8
0
100
AcDbSpline
70
1064
71
3
72
8
73
4
74
0
42
0.000000001
43
0.0000000001
44
0.0000000001
40
0
40
0
40
0
40
0
40
1
40
1
40
1
40
1
10
181.45007500000003
20
120.61200600000001
30
0
10
181.45007500000003
20
121.74911800000001
30
0
10
182.37188700000004
20
122.67092900000002
30
0
10
183.50899900000002
20
122.67093000000001
30
0
0
SPLINE
5
270
100
AcDbEntity
8
0
100
AcDbSpline
70
1064
71
3
72
8
73
4
74
0
42
0.000000001
43
0.0000000001
44
0.0000000001
40
0
40
0
40
0
40
0
40
1
40
1
40
1
40
1
10
183.50899900000002
20
122.67093000000001
30
0
10
184.64611100000002
20
122.67092900000002
30
0
10
185.56792300000001
20
121.74911800000001
30
0
10
185.56792300000001
20
120.61200600000001
30
0
0
SPLINE
5
271
100
AcDbEntity
8
0
100
AcDbSpline
70
1064
71
3
72
8
73
4
74
0
42
0.000000001
43
0.0000000001
44
0.0000000001
40
0
40
0
40
0
40
0
40
1
40
1
40
1
40
1
10
160.088007
20
120.99108600000001
30
0
10
158.950895
20
120.99108700000002
30
0
10
158.02908300000001
20
121.912898
30
0
10
158.02908300000001
20
123.05001000000003
30
0
0
SPLINE
5
272
100
AcDbEntity
8
0
100
AcDbSpline
70
1064
71
3
72
8
73
4
74
0
42
0.000000001
43
0.0000000001
44
0.0000000001
40
0
40
0
40
0
40
0
40
1
40
1
40
1
40
1
10
138.46692299999998
20
7.4000460000000015
30
0
10
138.46692299999998
20
6.2629339999999996
30
0
10
137.54511200000002
20
5.3411220000000004
30
0
10
136.40799899999999
20
5.3411220000000004
30
0
0
SPLINE
5
273
100
AcDbEntity
8
0
100
AcDbSpline
70
1064
71
3
72
8
73
4
74
0
42
0.000000001
43
0.0000000001
44
0.0000000001
40
0
40
0
40
0
40
0
40
1
40
1
40
1
40
1
10
185.56792300000001
20
120.61200600000001
30
0
10
185.56792300000001
20
119.47489300000001
30
0
10
184.64611100000002
20
118.55308200000002
30
0
10
183.50899900000002
20
118.55308200000002
30
0
0
SPLINE
5
274
100
AcDbEntity
8
0
100
AcDbSpline
70
1064
71
3
72
8
73
4
74
0
42
0.000000001
43
0.0000000001
44
0.0000000001
40
0
40
0
40
0
40
0
40
1
40
1
40
1
40
1
10
134.34907500000003
20
7.4000460000000015
30
0
10
134.34907500000003
20
8.5371580000000016
30
0
10
135.27088700000002
20
9.4589700000000008
30
0
10
136.40799899999999
20
9.4589700000000008
30
0
0
SPLINE
5
275
100
AcDbEntity
8
0
100
AcDbSpline
70
1064
71
3
72
8
73
4
74
0
42
0.000000001
43
0.0000000001
44
0.0000000001
40
0
40
0
40
0
40
0
40
1
40
1
40
1
40
1
10
157.628006
20
9.4589700000000008
30
0
10
158.765118
20
9.4589700000000008
30
0
10
159.68692999999999
20
8.5371580000000016
30
0
10
159.68692999999999
20
7.4000460000000015
30
0
0
SPLINE
5
276
100
AcDbEntity
8
0
100
AcDbSpline
70
1064
71
3
72
8
73
4
74
0
42
0.000000001
43
0.0000000001
44
0.0000000001
40
0
40
0
40
0
40
0
40
1
40
1
40
1
40
1
10
159.68692999999999
20
7.4000460000000015
30
0
10
159.68692999999999
20
6.2629339999999996
30
0
10
158.765118
20
5.3411220000000004
30
0
10
157.628006
20
5.3411220000000004
30
0
0
SPLINE
5
277
100
AcDbEntity
8
0
100
AcDbSpline
70
1064
71
3
72
8
73
4
74
0
42
0.000000001
43
0.0000000001
44
0.0000000001
40
0
40
0
40
0
40
0
40
1
40
1
40
1
40
1
10
6.2950860000000013
20
80.258082000000002
30
0
10
6.5499770000000002
20
80.512973000000002
30
0
10
6.895683
20
80.656169000000006
30
0
10
7.2561530000000012
20
80.656169000000006
30
0
0
SPLINE
5
278
100
AcDbEntity
8
0
100
AcDbSpline
70
1064
71
3
72
8
73
4
74
0
42
0.000000001
43
0.0000000001
44
0.0000000001
40
0
40
0
40
0
40
0
40
1
40
1
40
1
40
1
10
99.267833999999993
20
3.6678090000000001
30
0
10
99.276958295314444
20
5.0498498808266179
30
0
10
100.40469623289354
20
6.1627659206381677
30
0
10
101.78673611374195
20
6.1536416319256224
30
0
0
SPLINE
5
279
100
AcDbEntity
8
0
100
AcDbSpline
70
1064
71
3
72
8
73
4
74
0
42
0.000000001
43
0.0000000001
44
0.0000000001
40
0
40
0
40
0
40
0
40
1
40
1
40
1
40
1
10
5.1322039999999998
20
307.71531699999997
30
0
10
5.1322039999999998
20
306.33326399999999
30
0
10
4.011819
20
305.212898
30
0
10
2.629769
20
305.212898
30
0
0
SPLINE
5
280
100
AcDbEntity
8
0
100
AcDbSpline
70
1064
71
3
72
8
73
4
74
0
42
0.000000001
43
0.0000000001
44
0.0000000001
40
0
40
0
40
0
40
0
40
1
40
1
40
1
40
1
10
37.172354999999996
20
5.2248570000000001
30
0
10
38.554397999999999
20
5.2248570000000001
30
0
10
39.674762999999999
20
4.1044919999999996
30
0
10
39.674762999999999
20
2.7224209999999998
30
0
0
SPLINE
5
281
100
AcDbEntity
8
0
100
AcDbSpline
70
1064
71
3
72
8
73
4
74
0
42
0.000000001
43
0.0000000001
44
0.0000000001
40
0
40
0
40
0
40
0
40
1
40
1
40
1
40
1
10
87.584602000000004
20
2.4271880000000001
30
0
10
87.584602000000004
20
3.809259
30
0
10
88.704968000000008
20
4.9295960000000001
30
0
10
90.087038000000007
20
4.9295960000000001
30
0
0
SPLINE
5
282
100
AcDbEntity
8
0
100
AcDbSpline
70
1064
71
3
72
8
73
4
74
0
42
0.000000001
43
0.0000000001
44
0.0000000001
40
0
40
0
40
0
40
0
40
1
40
1
40
1
40
1
10
103.75451
20
6.1895210000000001
30
0
10
105.13658000000001
20
6.1895210000000001
30
0
10
106.256918
20
5.0691550000000003
30
0
10
106.256918
20
3.6870849999999997
30
0
0
SPLINE
5
283
100
AcDbEntity
8
0
100
AcDbSpline
70
1064
71
3
72
8
73
4
74
0
42
0.000000001
43
0.0000000001
44
0.0000000001
40
0
40
0
40
0
40
0
40
1
40
1
40
1
40
1
10
40.948999000000008
20
292.75698900000003
30
0
10
40.402925000000003
20
292.75698900000003
30
0
10
39.879216
20
292.54006200000003
30
0
10
39.493082000000001
20
292.15392900000001
30
0
0
SPLINE
5
284
100
AcDbEntity
8
0
100
AcDbSpline
70
1064
71
3
72
8
73
4
74
0
42
0.000000001
43
0.0000000001
44
0.0000000001
40
0
40
0
40
0
40
0
40
1
40
1
40
1
40
1
10
39.493082000000001
20
289.24209400000001
30
0
10
39.879216
20
288.85596099999998
30
0
10
40.402925000000003
20
288.63903399999998
30
0
10
40.948999000000008
20
288.63903399999998
30
0
0
SPLINE
5
285
100
AcDbEntity
8
0
100
AcDbSpline
70
1064
71
3
72
8
73
4
74
0
42
0.000000001
43
0.0000000001
44
0.0000000001
40
0
40
0
40
0
40
0
40
1
40
1
40
1
40
1
10
40.948999000000008
20
288.63903399999998
30
0
10
41.495074000000002
20
288.63903399999998
30
0
10
42.018782999999999
20
288.85596099999998
30
0
10
42.404916999999998
20
289.24209400000001
30
0
0
SPLINE
5
286
100
AcDbEntity
8
0
100
AcDbSpline
70
1064
71
3
72
8
73
4
74
0
42
0.000000001
43
0.0000000001
44
0.0000000001
40
0
40
0
40
0
40
0
40
1
40
1
40
1
40
1
10
8.2172210000000021
20
80.258082000000002
30
0
10
8.4721109999999999
20
80.003191000000001
30
0
10
8.6153080000000024
20
79.657485000000008
30
0
10
8.6153070000000014
20
79.297015000000002
30
0
0
SPLINE
5
287
100
AcDbEntity
8
0
100
AcDbSpline
70
1064
71
3
72
8
73
4
74
0
42
0.000000001
43
0.0000000001
44
0.0000000001
40
0
40
0
40
0
40
0
40
1
40
1
40
1
40
1
10
39.493082000000001
20
292.15392900000001
30
0
10
39.106949
20
291.76779500000004
30
0
10
38.890021999999995
20
291.24408599999998
30
0
10
38.890021999999995
20
290.69801100000001
30
0
0
SPLINE
5
288
100
AcDbEntity
8
0
100
AcDbSpline
70
1064
71
3
72
8
73
4
74
0
42
0.000000001
43
0.0000000001
44
0.0000000001
40
0
40
0
40
0
40
0
40
1
40
1
40
1
40
1
10
143.23582400000001
20
289.23808700000001
30
0
10
143.62195800000001
20
289.62422000000004
30
0
10
143.838885
20
290.14792899999998
30
0
10
143.838885
20
290.69400400000001
30
0
0
SPLINE
5
289
100
AcDbEntity
8
0
100
AcDbSpline
70
1064
71
3
72
8
73
4
74
0
42
0.000000001
43
0.0000000001
44
0.0000000001
40
0
40
0
40
0
40
0
40
1
40
1
40
1
40
1
10
5.896999000000001
20
79.297015000000002
30
0
10
5.896999000000001
20
79.657485000000008
30
0
10
6.0401959999999999
20
80.003191000000001
30
0
10
6.2950860000000013
20
80.258082000000002
30
0
0
SPLINE
5
290
100
AcDbEntity
8
0
100
AcDbSpline
70
1064
71
3
72
8
73
4
74
0
42
0.000000001
43
0.0000000001
44
0.0000000001
40
0
40
0
40
0
40
0
40
1
40
1
40
1
40
1
10
141.77990700000004
20
292.75298199999997
30
0
10
141.23383200000001
20
292.75298199999997
30
0
10
140.71012300000001
20
292.53605399999998
30
0
10
140.32398999999998
20
292.14992100000006
30
0
0
SPLINE
5
291
100
AcDbEntity
8
0
100
AcDbSpline
70
1064
71
3
72
8
73
4
74
0
42
0.000000001
43
0.0000000001
44
0.0000000001
40
0
40
0
40
0
40
0
40
1
40
1
40
1
40
1
10
14.651579999999999
20
2.7074630000000006
30
0
10
14.651579999999999
20
4.0895060000000001
30
0
10
15.771945000000001
20
5.2098710000000006
30
0
10
17.154015999999999
20
5.2098710000000006
30
0
0
SPLINE
5
292
100
AcDbEntity
8
0
100
AcDbSpline
70
1064
71
3
72
8
73
4
74
0
42
0.000000001
43
0.0000000001
44
0.0000000001
40
0
40
0
40
0
40
0
40
1
40
1
40
1
40
1
10
90.087038000000007
20
4.929596000000001
30
0
10
91.469075490894497
20
4.9331263719476599
30
0
10
92.592299763883773
20
3.8156269581899838
30
0
10
92.595830209910801
20
2.4335604673901203
30
0
0
SPLINE
5
293
100
AcDbEntity
8
0
100
AcDbSpline
70
1064
71
3
72
8
73
4
74
0
42
0.000000001
43
0.0000000001
44
0.0000000001
40
0
40
0
40
0
40
0
40
1
40
1
40
1
40
1
10
2.55789
20
330.194817
30
0
10
3.9911690000000006
20
330.194817
30
0
10
5.1530660000000008
20
329.07552099999998
30
0
10
5.1530660000000008
20
327.69481300000001
30
0
0
SPLINE
5
294
100
AcDbEntity
8
0
100
AcDbSpline
70
1064
71
3
72
8
73
4
74
0
42
0.000000001
43
0.0000000001
44
0.0000000001
40
0
40
0
40
0
40
0
40
1
40
1
40
1
40
1
10
166.32176299999998
20
484.17609800000008
30
0
10
180.05102700000003
20
484.17609800000008
30
0
10
191.18077099999999
20
473.04632300000009
30
0
10
191.18077099999999
20
459.31708700000001
30
0
0
SPLINE
5
295
100
AcDbEntity
8
0
100
AcDbSpline
70
1064
71
3
72
8
73
4
74
0
42
0.000000001
43
0.0000000001
44
0.0000000001
40
0
40
0
40
0
40
0
40
1
40
1
40
1
40
1
10
38.890021999999995
20
290.69801100000001
30
0
10
38.890021999999995
20
290.15193700000003
30
0
10
39.106949
20
289.62822799999998
30
0
10
39.493082000000001
20
289.24209400000001
30
0
0
SPLINE
5
296
100
AcDbEntity
8
0
100
AcDbSpline
70
1064
71
3
72
8
73
4
74
0
42
0.000000001
43
0.0000000001
44
0.0000000001
40
0
40
0
40
0
40
0
40
1
40
1
40
1
40
1
10
42.404916999999998
20
289.24209400000001
30
0
10
42.791050000000006
20
289.62822799999998
30
0
10
43.007977000000004
20
290.15193700000003
30
0
10
43.007977000000004
20
290.69801100000001
30
0
0
SPLINE
5
297
100
AcDbEntity
8
0
100
AcDbSpline
70
1064
71
3
72
8
73
4
74
0
42
0.000000001
43
0.0000000001
44
0.0000000001
40
0
40
0
40
0
40
0
40
1
40
1
40
1
40
1
10
43.007977000000004
20
290.69801100000001
30
0
10
43.007977000000004
20
291.24408599999998
30
0
10
42.791050000000006
20
291.76779500000004
30
0
10
42.404916999999998
20
292.15392900000001
30
0
0
SPLINE
5
298
100
AcDbEntity
8
0
100
AcDbSpline
70
1064
71
3
72
8
73
4
74
0
42
0.000000001
43
0.0000000001
44
0.0000000001
40
0
40
0
40
0
40
0
40
1
40
1
40
1
40
1
10
140.32398999999998
20
289.23808700000001
30
0
10
140.71012300000001
20
288.85195399999998
30
0
10
141.23383200000001
20
288.63502599999998
30
0
10
141.77990700000004
20
288.63502599999998
30
0
0
SPLINE
5
299
100
AcDbEntity
8
0
100
AcDbSpline
70
1064
71
3
72
8
73
4
74
0
42
0.000000001
43
0.0000000001
44
0.0000000001
40
0
40
0
40
0
40
0
40
1
40
1
40
1
40
1
10
140.32398999999998
20
292.14992100000006
30
0
10
139.93785700000001
20
291.76378799999998
30
0
10
139.72093000000001
20
291.24007899999998
30
0
10
139.72093000000001
20
290.69400400000001
30
0
0
SPLINE
5
300
100
AcDbEntity
8
0
100
AcDbSpline
70
1064
71
3
72
8
73
4
74
0
42
0.000000001
43
0.0000000001
44
0.0000000001
40
0
40
0
40
0
40
0
40
1
40
1
40
1
40
1
10
143.838885
20
290.69400400000001
30
0
10
143.838885
20
291.24007899999998
30
0
10
143.62195800000001
20
291.76378799999998
30
0
10
143.23582400000001
20
292.14992100000006
30
0
0
SPLINE
5
301
100
AcDbEntity
8
0
100
AcDbSpline
70
1064
71
3
72
8
73
4
74
0
42
0.000000001
43
0.0000000001
44
0.0000000001
40
0
40
0
40
0
40
0
40
1
40
1
40
1
40
1
10
141.77990700000004
20
288.63502599999998
30
0
10
142.32598200000001
20
288.63502599999998
30
0
10
142.84969099999998
20
288.85195399999998
30
0
10
143.23582400000001
20
289.23808700000001
30
0
0
SPLINE
5
302
100
AcDbEntity
8
0
100
AcDbSpline
70
1064
71
3
72
8
73
4
74
0
42
0.000000001
43
0.0000000001
44
0.0000000001
40
0
40
0
40
0
40
0
40
1
40
1
40
1
40
1
10
42.404916999999998
20
292.15392900000001
30
0
10
42.018782999999999
20
292.54006200000003
30
0
10
41.495074000000002
20
292.75698900000003
30
0
10
40.948999000000008
20
292.75698900000003
30
0
0
SPLINE
5
303
100
AcDbEntity
8
0
100
AcDbSpline
70
1064
71
3
72
8
73
4
74
0
42
0.000000001
43
0.0000000001
44
0.0000000001
40
0
40
0
40
0
40
0
40
1
40
1
40
1
40
1
10
143.23582400000001
20
292.14992100000006
30
0
10
142.84969099999998
20
292.53605399999998
30
0
10
142.32598200000001
20
292.75298199999997
30
0
10
141.77990700000004
20
292.75298199999997
30
0
0
LINE
5
304
100
AcDbEntity
8
0
100
AcDbLine
10
101.78673611374197
20
6.1536416319256215
30
0
11
103.75451
21
6.1895210000000001
31
0
0
SPLINE
5
305
100
AcDbEntity
8
0
100
AcDbSpline
70
1064
71
3
72
8
73
4
74
0
42
0.000000001
43
0.0000000001
44
0.0000000001
40
0
40
0
40
0
40
0
40
1
40
1
40
1
40
1
10
14.415298999999999
20
79.297015000000002
30
0
10
14.415298999999999
20
78.936544999999995
30
0
10
14.272103000000001
20
78.590838000000005
30
0
10
14.017211999999999
20
78.335948000000002
30
0
0
SPLINE
5
306
100
AcDbEntity
8
0
100
AcDbSpline
70
1064
71
3
72
8
73
4
74
0
42
0.000000001
43
0.0000000001
44
0.0000000001
40
0
40
0
40
0
40
0
40
1
40
1
40
1
40
1
10
139.72093000000001
20
290.69400400000001
30
0
10
139.72093000000001
20
290.14792899999998
30
0
10
139.93785700000001
20
289.62422000000004
30
0
10
140.32398999999998
20
289.23808700000001
30
0
0
SPLINE
5
307
100
AcDbEntity
8
0
100
AcDbSpline
70
1064
71
3
72
8
73
4
74
0
42
0.000000001
43
0.0000000001
44
0.0000000001
40
0
40
0
40
0
40
0
40
1
40
1
40
1
40
1
10
13.056144999999999
20
80.656169000000006
30
0
10
13.416615
20
80.656169000000006
30
0
10
13.762321000000002
20
80.512973000000002
30
0
10
14.017211999999999
20
80.258082000000002
30
0
0
SPLINE
5
308
100
AcDbEntity
8
0
100
AcDbSpline
70
1064
71
3
72
8
73
4
74
0
42
0.000000001
43
0.0000000001
44
0.0000000001
40
0
40
0
40
0
40
0
40
1
40
1
40
1
40
1
10
13.056144999999999
20
77.937860999999998
30
0
10
12.695675
20
77.937860999999998
30
0
10
12.349968000000001
20
78.081057000000001
30
0
10
12.095077999999999
20
78.335948000000002
30
0
0
SPLINE
5
309
100
AcDbEntity
8
0
100
AcDbSpline
70
1064
71
3
72
8
73
4
74
0
42
0.000000001
43
0.0000000001
44
0.0000000001
40
0
40
0
40
0
40
0
40
1
40
1
40
1
40
1
10
6.2950860000000013
20
78.335948000000002
30
0
10
6.0401959999999999
20
78.590838000000005
30
0
10
5.896999000000001
20
78.936544999999995
30
0
10
5.896999000000001
20
79.297015000000002
30
0
0
SPLINE
5
310
100
AcDbEntity
8
0
100
AcDbSpline
70
1064
71
3
72
8
73
4
74
0
42
0.000000001
43
0.0000000001
44
0.0000000001
40
0
40
0
40
0
40
0
40
1
40
1
40
1
40
1
10
14.017211999999999
20
80.258082000000002
30
0
10
14.272103000000001
20
80.003191000000001
30
0
10
14.415298999999999
20
79.657485000000008
30
0
10
14.415298999999999
20
79.297015000000002
30
0
0
SPLINE
5
311
100
AcDbEntity
8
0
100
AcDbSpline
70
1064
71
3
72
8
73
4
74
0
42
0.000000001
43
0.0000000001
44
0.0000000001
40
0
40
0
40
0
40
0
40
1
40
1
40
1
40
1
10
12.095077999999999
20
78.335948000000002
30
0
10
11.840187
20
78.590838000000005
30
0
10
11.696991000000001
20
78.936544999999995
30
0
10
11.696991000000001
20
79.297015000000002
30
0
0
SPLINE
5
312
100
AcDbEntity
8
0
100
AcDbSpline
70
1064
71
3
72
8
73
4
74
0
42
0.000000001
43
0.0000000001
44
0.0000000001
40
0
40
0
40
0
40
0
40
1
40
1
40
1
40
1
10
12.095077999999999
20
80.258082000000002
30
0
10
12.349968000000001
20
80.512973000000002
30
0
10
12.695675
20
80.656169000000006
30
0
10
13.056144999999999
20
80.656169000000006
30
0
0
SPLINE
5
313
100
AcDbEntity
8
0
100
AcDbSpline
70
1064
71
3
72
8
73
4
74
0
42
0.000000001
43
0.0000000001
44
0.0000000001
40
0
40
0
40
0
40
0
40
1
40
1
40
1
40
1
10
14.017211999999999
20
78.335948000000002
30
0
10
13.762321000000002
20
78.081057000000001
30
0
10
13.416615
20
77.937860999999998
30
0
10
13.056144999999999
20
77.937860999999998
30
0
0
SPLINE
5
314
100
AcDbEntity
8
0
100
AcDbSpline
70
1064
71
3
72
8
73
4
74
0
42
0.000000001
43
0.0000000001
44
0.0000000001
40
0
40
0
40
0
40
0
40
1
40
1
40
1
40
1
10
8.6153070000000014
20
79.297015000000002
30
0
10
8.6153080000000024
20
78.936544999999995
30
0
10
8.4721109999999999
20
78.590838000000005
30
0
10
8.2172210000000021
20
78.335948000000002
30
0
0
SPLINE
5
315
100
AcDbEntity
8
0
100
AcDbSpline
70
1064
71
3
72
8
73
4
74
0
42
0.000000001
43
0.0000000001
44
0.0000000001
40
0
40
0
40
0
40
0
40
1
40
1
40
1
40
1
10
8.2172210000000021
20
78.335948000000002
30
0
10
7.9623300000000006
20
78.081057000000001
30
0
10
7.6166240000000007
20
77.937860999999998
30
0
10
7.2561530000000012
20
77.937860999999998
30
0
0
SPLINE
5
316
100
AcDbEntity
8
0
100
AcDbSpline
70
1064
71
3
72
8
73
4
74
0
42
0.000000001
43
0.0000000001
44
0.0000000001
40
0
40
0
40
0
40
0
40
1
40
1
40
1
40
1
10
7.2561530000000012
20
77.937860999999998
30
0
10
6.895683
20
77.937860999999998
30
0
10
6.5499770000000002
20
78.081057000000001
30
0
10
6.2950860000000013
20
78.335948000000002
30
0
0
SPLINE
5
317
100
AcDbEntity
8
0
100
AcDbSpline
70
1064
71
3
72
8
73
4
74
0
42
0.000000001
43
0.0000000001
44
0.0000000001
40
0
40
0
40
0
40
0
40
1
40
1
40
1
40
1
10
11.696991000000001
20
79.297015000000002
30
0
10
11.696991000000001
20
79.657485000000008
30
0
10
11.840187
20
80.003191000000001
30
0
10
12.095077999999999
20
80.258082000000002
30
0
0
SPLINE
5
318
100
AcDbEntity
8
0
100
AcDbSpline
70
1064
71
3
72
8
73
4
74
0
42
0.000000001
43
0.0000000001
44
0.0000000001
40
0
40
0
40
0
40
0
40
1
40
1
40
1
40
1
10
135.95880382887262
20
478.60180769456605
30
0
10
137.09591582887259
20
478.60180669456605
30
0
10
138.01772782887267
20
477.67999569456606
30
0
10
138.01772782887267
20
476.542883694566
30
0
0
SPLINE
5
319
100
AcDbEntity
8
0
100
AcDbSpline
70
1064
71
3
72
8
73
4
74
0
42
0.000000001
43
0.0000000001
44
0.0000000001
40
0
40
0
40
0
40
0
40
1
40
1
40
1
40
1
10
138.01772782887267
20
476.542883694566
30
0
10
138.01772782887267
20
475.40577069456606
30
0
10
137.09591582887259
20
474.48395969456607
30
0
10
135.95880382887262
20
474.48395969456607
30
0
0
SPLINE
5
320
100
AcDbEntity
8
0
100
AcDbSpline
70
1064
71
3
72
8
73
4
74
0
42
0.000000001
43
0.0000000001
44
0.0000000001
40
0
40
0
40
0
40
0
40
1
40
1
40
1
40
1
10
133.89987982887268
20
476.542883694566
30
0
10
133.89987982887268
20
477.67999569456606
30
0
10
134.82169082887265
20
478.60180669456605
30
0
10
135.95880382887262
20
478.60180769456605
30
0
0
SPLINE
5
321
100
AcDbEntity
8
0
100
AcDbSpline
70
1064
71
3
72
8
73
4
74
0
42
0.000000001
43
0.0000000001
44
0.0000000001
40
0
40
0
40
0
40
0
40
1
40
1
40
1
40
1
10
160.57880982887255
20
478.60180769456605
30
0
10
161.71592282887252
20
478.60180669456605
30
0
10
162.63773382887251
20
477.67999569456606
30
0
10
162.63773382887251
20
476.542883694566
30
0
0
SPLINE
5
322
100
AcDbEntity
8
0
100
AcDbSpline
70
1064
71
3
72
8
73
4
74
0
42
0.000000001
43
0.0000000001
44
0.0000000001
40
0
40
0
40
0
40
0
40
1
40
1
40
1
40
1
10
158.51988582887253
20
476.542883694566
30
0
10
158.51988582887253
20
477.67999569456606
30
0
10
159.44169782887252
20
478.60180669456605
30
0
10
160.57880982887255
20
478.60180769456605
30
0
0
SPLINE
5
323
100
AcDbEntity
8
0
100
AcDbSpline
70
1064
71
3
72
8
73
4
74
0
42
0.000000001
43
0.0000000001
44
0.0000000001
40
0
40
0
40
0
40
0
40
1
40
1
40
1
40
1
10
135.95880382887262
20
474.48395969456607
30
0
10
134.82169082887265
20
474.48395969456607
30
0
10
133.89987982887268
20
475.40577069456606
30
0
10
133.89987982887268
20
476.542883694566
30
0
0
SPLINE
5
324
100
AcDbEntity
8
0
100
AcDbSpline
70
1064
71
3
72
8
73
4
74
0
42
0.000000001
43
0.0000000001
44
0.0000000001
40
0
40
0
40
0
40
0
40
1
40
1
40
1
40
1
10
160.57880982887255
20
474.48395969456607
30
0
10
159.44169782887252
20
474.48395969456607
30
0
10
158.51988582887253
20
475.40577069456606
30
0
10
158.51988582887253
20
476.542883694566
30
0
0
SPLINE
5
325
100
AcDbEntity
8
0
100
AcDbSpline
70
1064
71
3
72
8
73
4
74
0
42
0.000000001
43
0.0000000001
44
0.0000000001
40
0
40
0
40
0
40
0
40
1
40
1
40
1
40
1
10
162.63773382887251
20
476.542883694566
30
0
10
162.63773382887251
20
475.40577069456606
30
0
10
161.71592282887252
20
474.48395969456607
30
0
10
160.57880982887255
20
474.48395969456607
30
0
0
SPLINE
5
326
100
AcDbEntity
8
0
100
AcDbSpline
70
1064
71
3
72
8
73
4
74
0
42
0.000000001
43
0.0000000001
44
0.0000000001
40
0
40
0
40
0
40
0
40
1
40
1
40
1
40
1
10
9.2589269999999999
20
461.02785700000004
30
0
10
9.2589259999999989
20
459.89074500000009
30
0
10
8.3371149999999989
20
458.96893299999999
30
0
10
7.2000030000000006
20
458.96893299999999
30
0
0
SPLINE
5
327
100
AcDbEntity
8
0
100
AcDbSpline
70
1064
71
3
72
8
73
4
74
0
42
0.000000001
43
0.0000000001
44
0.0000000001
40
0
40
0
40
0
40
0
40
1
40
1
40
1
40
1
10
7.2000030000000006
20
458.96893299999999
30
0
10
6.0628900000000012
20
458.96893299999999
30
0
10
5.1410790000000004
20
459.89074500000009
30
0
10
5.1410790000000004
20
461.02785700000004
30
0
0
SPLINE
5
328
100
AcDbEntity
8
0
100
AcDbSpline
70
1064
71
3
72
8
73
4
74
0
42
0.000000001
43
0.0000000001
44
0.0000000001
40
0
40
0
40
0
40
0
40
1
40
1
40
1
40
1
10
7.2000030000000006
20
463.08678100000003
30
0
10
8.3371149999999989
20
463.08678100000003
30
0
10
9.2589259999999989
20
462.16497000000004
30
0
10
9.2589269999999999
20
461.02785700000004
30
0
0
SPLINE
5
329
100
AcDbEntity
8
0
100
AcDbSpline
70
1064
71
3
72
8
73
4
74
0
42
0.000000001
43
0.0000000001
44
0.0000000001
40
0
40
0
40
0
40
0
40
1
40
1
40
1
40
1
10
9.2589269999999999
20
439.80785099999997
30
0
10
9.2589259999999989
20
438.67073800000003
30
0
10
8.3371149999999989
20
437.74892700000004
30
0
10
7.2000030000000006
20
437.74892700000004
30
0
0
SPLINE
5
330
100
AcDbEntity
8
0
100
AcDbSpline
70
1064
71
3
72
8
73
4
74
0
42
0.000000001
43
0.0000000001
44
0.0000000001
40
0
40
0
40
0
40
0
40
1
40
1
40
1
40
1
10
7.2000030000000006
20
441.86677500000002
30
0
10
8.3371149999999989
20
441.86677500000002
30
0
10
9.2589259999999989
20
440.94496300000003
30
0
10
9.2589269999999999
20
439.80785099999997
30
0
0
SPLINE
5
331
100
AcDbEntity
8
0
100
AcDbSpline
70
1064
71
3
72
8
73
4
74
0
42
0.000000001
43
0.0000000001
44
0.0000000001
40
0
40
0
40
0
40
0
40
1
40
1
40
1
40
1
10
5.1410790000000004
20
461.02785700000004
30
0
10
5.1410790000000004
20
462.16497000000004
30
0
10
6.0628900000000012
20
463.08678100000003
30
0
10
7.2000030000000006
20
463.08678100000003
30
0
0
SPLINE
5
332
100
AcDbEntity
8
0
100
AcDbSpline
70
1064
71
3
72
8
73
4
74
0
42
0.000000001
43
0.0000000001
44
0.0000000001
40
0
40
0
40
0
40
0
40
1
40
1
40
1
40
1
10
5.1410790000000004
20
439.80785099999997
30
0
10
5.1410790000000004
20
440.94496300000003
30
0
10
6.0628900000000012
20
441.86677500000002
30
0
10
7.2000030000000006
20
441.86677500000002
30
0
0
SPLINE
5
333
100
AcDbEntity
8
0
100
AcDbSpline
70
1064
71
3
72
8
73
4
74
0
42
0.000000001
43
0.0000000001
44
0.0000000001
40
0
40
0
40
0
40
0
40
1
40
1
40
1
40
1
10
7.2000030000000006
20
437.74892700000004
30
0
10
6.0628900000000012
20
437.74892700000004
30
0
10
5.1410790000000004
20
438.67073800000003
30
0
10
5.1410790000000004
20
439.80785099999997
30
0
0
SPLINE
5
334
100
AcDbEntity
8
0
100
AcDbSpline
70
1064
71
3
72
8
73
4
74
0
42
0.000000001
43
0.0000000001
44
0.0000000001
40
0
40
0
40
0
40
0
40
1
40
1
40
1
40
1
10
153.26922780430709
20
333.23659717782346
30
0
10
152.13211480430712
20
333.23659717782346
30
0
10
151.21030380430716
20
334.15840817782345
30
0
10
151.21030380430716
20
335.29552117782345
30
0
0
SPLINE
5
335
100
AcDbEntity
8
0
100
AcDbSpline
70
1064
71
3
72
8
73
4
74
0
42
0.000000001
43
0.0000000001
44
0.0000000001
40
0
40
0
40
0
40
0
40
1
40
1
40
1
40
1
10
155.32815180430714
20
335.29552117782345
30
0
10
155.32815180430714
20
334.15840817782345
30
0
10
154.40633980430707
20
333.23659717782346
30
0
10
153.26922780430709
20
333.23659717782346
30
0
0
SPLINE
5
336
100
AcDbEntity
8
0
100
AcDbSpline
70
1064
71
3
72
8
73
4
74
0
42
0.000000001
43
0.0000000001
44
0.0000000001
40
0
40
0
40
0
40
0
40
1
40
1
40
1
40
1
10
151.21030380430716
20
335.29552117782345
30
0
10
151.21030380430716
20
336.4326331778235
30
0
10
152.13211480430712
20
337.35444417782338
30
0
10
153.26922780430709
20
337.35444517782344
30
0
0
SPLINE
5
337
100
AcDbEntity
8
0
100
AcDbSpline
70
1064
71
3
72
8
73
4
74
0
42
0.000000001
43
0.0000000001
44
0.0000000001
40
0
40
0
40
0
40
0
40
1
40
1
40
1
40
1
10
153.26922780430709
20
337.35444517782344
30
0
10
154.40633980430707
20
337.35444417782338
30
0
10
155.32815180430714
20
336.4326331778235
30
0
10
155.32815180430714
20
335.29552117782345
30
0
0
SPLINE
5
338
100
AcDbEntity
8
0
100
AcDbSpline
70
1064
71
3
72
8
73
4
74
0
42
0.000000001
43
0.0000000001
44
0.0000000001
40
0
40
0
40
0
40
0
40
1
40
1
40
1
40
1
10
43.323638760899819
20
451.56300250546326
30
0
10
42.186525760899833
20
451.56300250546326
30
0
10
41.264714760899878
20
452.48481350546319
30
0
10
41.264714760899878
20
453.62192650546314
30
0
0
SPLINE
5
339
100
AcDbEntity
8
0
100
AcDbSpline
70
1064
71
3
72
8
73
4
74
0
42
0.000000001
43
0.0000000001
44
0.0000000001
40
0
40
0
40
0
40
0
40
1
40
1
40
1
40
1
10
45.382562760899852
20
453.62192650546314
30
0
10
45.382562760899852
20
452.48481350546319
30
0
10
44.460750760899792
20
451.56300250546326
30
0
10
43.323638760899819
20
451.56300250546326
30
0
0
SPLINE
5
340
100
AcDbEntity
8
0
100
AcDbSpline
70
1064
71
3
72
8
73
4
74
0
42
0.000000001
43
0.0000000001
44
0.0000000001
40
0
40
0
40
0
40
0
40
1
40
1
40
1
40
1
10
41.264714760899878
20
453.62192650546314
30
0
10
41.264714760899878
20
454.7590385054632
30
0
10
42.186525760899833
20
455.68084950546313
30
0
10
43.323638760899819
20
455.68085050546313
30
0
0
SPLINE
5
341
100
AcDbEntity
8
0
100
AcDbSpline
70
1064
71
3
72
8
73
4
74
0
42
0.000000001
43
0.0000000001
44
0.0000000001
40
0
40
0
40
0
40
0
40
1
40
1
40
1
40
1
10
43.323638760899819
20
455.68085050546313
30
0
10
44.460750760899792
20
455.68084950546313
30
0
10
45.382562760899852
20
454.7590385054632
30
0
10
45.382562760899852
20
453.62192650546314
30
0
0
SPLINE
5
342
100
AcDbEntity
8
0
100
AcDbSpline
70
1064
71
3
72
8
73
4
74
0
42
0.000000001
43
0.0000000001
44
0.0000000001
40
0
40
0
40
0
40
0
40
1
40
1
40
1
40
1
10
43.249830997951022
20
333.54653143852153
30
0
10
42.112717997951052
20
333.54653143852153
30
0
10
41.190906997951103
20
334.46834243852152
30
0
10
41.190906997951103
20
335.60545543852152
30
0
0
SPLINE
5
343
100
AcDbEntity
8
0
100
AcDbSpline
70
1064
71
3
72
8
73
4
74
0
42
0.000000001
43
0.0000000001
44
0.0000000001
40
0
40
0
40
0
40
0
40
1
40
1
40
1
40
1
10
45.308754997951041
20
335.60545543852152
30
0
10
45.308754997951041
20
334.46834243852152
30
0
10
44.386942997950996
20
333.54653143852153
30
0
10
43.249830997951022
20
333.54653143852153
30
0
0
SPLINE
5
344
100
AcDbEntity
8
0
100
AcDbSpline
70
1064
71
3
72
8
73
4
74
0
42
0.000000001
43
0.0000000001
44
0.0000000001
40
0
40
0
40
0
40
0
40
1
40
1
40
1
40
1
10
41.190906997951103
20
335.60545543852152
30
0
10
41.190906997951103
20
336.74256743852152
30
0
10
42.112717997951052
20
337.66437843852151
30
0
10
43.249830997951022
20
337.66437943852156
30
0
0
SPLINE
5
345
100
AcDbEntity
8
0
100
AcDbSpline
70
1064
71
3
72
8
73
4
74
0
42
0.000000001
43
0.0000000001
44
0.0000000001
40
0
40
0
40
0
40
0
40
1
40
1
40
1
40
1
10
43.249830997951022
20
337.66437943852156
30
0
10
44.386942997950996
20
337.66437843852151
30
0
10
45.308754997951041
20
336.74256743852152
30
0
10
45.308754997951041
20
335.60545543852152
30
0
0
SPLINE
5
346
100
AcDbEntity
8
0
100
AcDbSpline
70
1064
71
3
72
8
73
4
74
0
42
0.000000001
43
0.0000000001
44
0.0000000001
40
0
40
0
40
0
40
0
40
1
40
1
40
1
40
1
10
153.40638113102858
20
451.46561402761671
30
0
10
152.26926813102861
20
451.46561402761671
30
0
10
151.34745713102862
20
452.3874250276167
30
0
10
151.34745713102862
20
453.52453802761664
30
0
0
SPLINE
5
347
100
AcDbEntity
8
0
100
AcDbSpline
70
1064
71
3
72
8
73
4
74
0
42
0.000000001
43
0.0000000001
44
0.0000000001
40
0
40
0
40
0
40
0
40
1
40
1
40
1
40
1
10
155.46530513102863
20
453.52453802761664
30
0
10
155.46530513102863
20
452.3874250276167
30
0
10
154.54349313102855
20
451.46561402761671
30
0
10
153.40638113102858
20
451.46561402761671
30
0
0
SPLINE
5
348
100
AcDbEntity
8
0
100
AcDbSpline
70
1064
71
3
72
8
73
4
74
0
42
0.000000001
43
0.0000000001
44
0.0000000001
40
0
40
0
40
0
40
0
40
1
40
1
40
1
40
1
10
151.34745713102862
20
453.52453802761664
30
0
10
151.34745713102862
20
454.6616500276167
30
0
10
152.26926813102861
20
455.58346102761669
30
0
10
153.40638113102858
20
455.58346202761669
30
0
0
SPLINE
5
349
100
AcDbEntity
8
0
100
AcDbSpline
70
1064
71
3
72
8
73
4
74
0
42
0.000000001
43
0.0000000001
44
0.0000000001
40
0
40
0
40
0
40
0
40
1
40
1
40
1
40
1
10
153.40638113102858
20
455.58346202761669
30
0
10
154.54349313102855
20
455.58346102761669
30
0
10
155.46530513102863
20
454.6616500276167
30
0
10
155.46530513102863
20
453.52453802761664
30
0
0
SPLINE
5
350
100
AcDbEntity
8
0
100
AcDbSpline
70
1064
71
3
72
8
73
4
74
0
42
0.000000001
43
0.0000000001
44
0.0000000001
40
0
40
0
40
0
40
0
40
1
40
1
40
1
40
1
10
135.95880382887262
20
474.48395969456607
30
0
10
134.82169082887265
20
474.48395969456607
30
0
10
133.89987982887268
20
475.40577069456606
30
0
10
133.89987982887268
20
476.542883694566
30
0
0
SPLINE
5
351
100
AcDbEntity
8
0
100
AcDbSpline
70
1064
71
3
72
8
73
4
74
0
42
0.000000001
43
0.0000000001
44
0.0000000001
40
0
40
0
40
0
40
0
40
1
40
1
40
1
40
1
10
138.01772782887267
20
476.542883694566
30
0
10
138.01772782887267
20
475.40577069456606
30
0
10
137.09591582887259
20
474.48395969456607
30
0
10
135.95880382887262
20
474.48395969456607
30
0
0
SPLINE
5
352
100
AcDbEntity
8
0
100
AcDbSpline
70
1064
71
3
72
8
73
4
74
0
42
0.000000001
43
0.0000000001
44
0.0000000001
40
0
40
0
40
0
40
0
40
1
40
1
40
1
40
1
10
133.89987982887268
20
476.542883694566
30
0
10
133.89987982887268
20
477.67999569456606
30
0
10
134.82169082887265
20
478.60180669456605
30
0
10
135.95880382887262
20
478.60180769456605
30
0
0
SPLINE
5
353
100
AcDbEntity
8
0
100
AcDbSpline
70
1064
71
3
72
8
73
4
74
0
42
0.000000001
43
0.0000000001
44
0.0000000001
40
0
40
0
40
0
40
0
40
1
40
1
40
1
40
1
10
135.95880382887262
20
478.60180769456605
30
0
10
137.09591582887259
20
478.60180669456605
30
0
10
138.01772782887267
20
477.67999569456606
30
0
10
138.01772782887267
20
476.542883694566
30
0
0
SPLINE
5
354
100
AcDbEntity
8
0
100
AcDbSpline
70
1064
71
3
72
8
73
4
74
0
42
0.000000001
43
0.0000000001
44
0.0000000001
40
0
40
0
40
0
40
0
40
1
40
1
40
1
40
1
10
41.190906997951103
20
194.10545543852152
30
0
10
41.190906997951103
20
195.24256743852158
30
0
10
42.112717997951052
20
196.16437843852154
30
0
10
43.249830997951022
20
196.16437943852156
30
0
0
SPLINE
5
355
100
AcDbEntity
8
0
100
AcDbSpline
70
1064
71
3
72
8
73
4
74
0
42
0.000000001
43
0.0000000001
44
0.0000000001
40
0
40
0
40
0
40
0
40
1
40
1
40
1
40
1
10
43.249830997951022
20
192.04653143852155
30
0
10
42.112717997951052
20
192.04653143852155
30
0
10
41.190906997951103
20
192.96834243852152
30
0
10
41.190906997951103
20
194.10545543852152
30
0
0
SPLINE
5
356
100
AcDbEntity
8
0
100
AcDbSpline
70
1064
71
3
72
8
73
4
74
0
42
0.000000001
43
0.0000000001
44
0.0000000001
40
0
40
0
40
0
40
0
40
1
40
1
40
1
40
1
10
155.46530513102863
20
312.0245380276167
30
0
10
155.46530513102863
20
310.8874250276167
30
0
10
154.54349313102855
20
309.96561402761671
30
0
10
153.40638113102858
20
309.96561402761671
30
0
0
SPLINE
5
357
100
AcDbEntity
8
0
100
AcDbSpline
70
1064
71
3
72
8
73
4
74
0
42
0.000000001
43
0.0000000001
44
0.0000000001
40
0
40
0
40
0
40
0
40
1
40
1
40
1
40
1
10
153.26922780430709
20
191.73659717782351
30
0
10
152.13211480430712
20
191.73659717782351
30
0
10
151.21030380430716
20
192.65840817782347
30
0
10
151.21030380430716
20
193.79552117782345
30
0
0
SPLINE
5
358
100
AcDbEntity
8
0
100
AcDbSpline
70
1064
71
3
72
8
73
4
74
0
42
0.000000001
43
0.0000000001
44
0.0000000001
40
0
40
0
40
0
40
0
40
1
40
1
40
1
40
1
10
153.40638113102858
20
309.96561402761671
30
0
10
152.26926813102861
20
309.96561402761671
30
0
10
151.34745713102862
20
310.8874250276167
30
0
10
151.34745713102862
20
312.0245380276167
30
0
0
SPLINE
5
359
100
AcDbEntity
8
0
100
AcDbSpline
70
1064
71
3
72
8
73
4
74
0
42
0.000000001
43
0.0000000001
44
0.0000000001
40
0
40
0
40
0
40
0
40
1
40
1
40
1
40
1
10
43.323638760899819
20
314.18085050546318
30
0
10
44.460750760899792
20
314.18084950546313
30
0
10
45.382562760899852
20
313.2590385054632
30
0
10
45.382562760899852
20
312.12192650546314
30
0
0
SPLINE
5
360
100
AcDbEntity
8
0
100
AcDbSpline
70
1064
71
3
72
8
73
4
74
0
42
0.000000001
43
0.0000000001
44
0.0000000001
40
0
40
0
40
0
40
0
40
1
40
1
40
1
40
1
10
151.34745713102862
20
312.0245380276167
30
0
10
151.34745713102862
20
313.1616500276167
30
0
10
152.26926813102861
20
314.08346102761669
30
0
10
153.40638113102858
20
314.08346202761669
30
0
0
SPLINE
5
361
100
AcDbEntity
8
0
100
AcDbSpline
70
1064
71
3
72
8
73
4
74
0
42
0.000000001
43
0.0000000001
44
0.0000000001
40
0
40
0
40
0
40
0
40
1
40
1
40
1
40
1
10
155.32815180430714
20
193.79552117782345
30
0
10
155.32815180430714
20
192.65840817782347
30
0
10
154.40633980430707
20
191.73659717782351
30
0
10
153.26922780430709
20
191.73659717782351
30
0
0
SPLINE
5
362
100
AcDbEntity
8
0
100
AcDbSpline
70
1064
71
3
72
8
73
4
74
0
42
0.000000001
43
0.0000000001
44
0.0000000001
40
0
40
0
40
0
40
0
40
1
40
1
40
1
40
1
10
43.249830997951022
20
196.16437943852156
30
0
10
44.386942997950996
20
196.16437843852154
30
0
10
45.308754997951041
20
195.24256743852158
30
0
10
45.308754997951041
20
194.10545543852152
30
0
0
SPLINE
5
363
100
AcDbEntity
8
0
100
AcDbSpline
70
1064
71
3
72
8
73
4
74
0
42
0.000000001
43
0.0000000001
44
0.0000000001
40
0
40
0
40
0
40
0
40
1
40
1
40
1
40
1
10
45.308754997951041
20
194.10545543852152
30
0
10
45.308754997951041
20
192.96834243852152
30
0
10
44.386942997950996
20
192.04653143852155
30
0
10
43.249830997951022
20
192.04653143852155
30
0
0
SPLINE
5
364
100
AcDbEntity
8
0
100
AcDbSpline
70
1064
71
3
72
8
73
4
74
0
42
0.000000001
43
0.0000000001
44
0.0000000001
40
0
40
0
40
0
40
0
40
1
40
1
40
1
40
1
10
41.264714760899878
20
312.12192650546314
30
0
10
41.264714760899878
20
313.2590385054632
30
0
10
42.186525760899833
20
314.18084950546313
30
0
10
43.323638760899819
20
314.18085050546318
30
0
0
SPLINE
5
365
100
AcDbEntity
8
0
100
AcDbSpline
70
1064
71
3
72
8
73
4
74
0
42
0.000000001
43
0.0000000001
44
0.0000000001
40
0
40
0
40
0
40
0
40
1
40
1
40
1
40
1
10
153.40638113102858
20
314.08346202761669
30
0
10
154.54349313102855
20
314.08346102761669
30
0
10
155.46530513102863
20
313.1616500276167
30
0
10
155.46530513102863
20
312.0245380276167
30
0
0
SPLINE
5
366
100
AcDbEntity
8
0
100
AcDbSpline
70
1064
71
3
72
8
73
4
74
0
42
0.000000001
43
0.0000000001
44
0.0000000001
40
0
40
0
40
0
40
0
40
1
40
1
40
1
40
1
10
45.382562760899852
20
312.12192650546314
30
0
10
45.382562760899852
20
310.98481350546319
30
0
10
44.460750760899792
20
310.06300250546326
30
0
10
43.323638760899819
20
310.06300250546326
30
0
0
SPLINE
5
367
100
AcDbEntity
8
0
100
AcDbSpline
70
1064
71
3
72
8
73
4
74
0
42
0.000000001
43
0.0000000001
44
0.0000000001
40
0
40
0
40
0
40
0
40
1
40
1
40
1
40
1
10
151.21030380430716
20
193.79552117782345
30
0
10
151.21030380430716
20
194.9326331778235
30
0
10
152.13211480430712
20
195.85444417782341
30
0
10
153.26922780430709
20
195.85444517782344
30
0
0
SPLINE
5
368
100
AcDbEntity
8
0
100
AcDbSpline
70
1064
71
3
72
8
73
4
74
0
42
0.000000001
43
0.0000000001
44
0.0000000001
40
0
40
0
40
0
40
0
40
1
40
1
40
1
40
1
10
43.323638760899819
20
310.06300250546326
30
0
10
42.186525760899833
20
310.06300250546326
30
0
10
41.264714760899878
20
310.98481350546319
30
0
10
41.264714760899878
20
312.12192650546314
30
0
0
SPLINE
5
369
100
AcDbEntity
8
0
100
AcDbSpline
70
1064
71
3
72
8
73
4
74
0
42
0.000000001
43
0.0000000001
44
0.0000000001
40
0
40
0
40
0
40
0
40
1
40
1
40
1
40
1
10
153.26922780430709
20
195.85444517782344
30
0
10
154.40633980430707
20
195.85444417782341
30
0
10
155.32815180430714
20
194.9326331778235
30
0
10
155.32815180430714
20
193.79552117782345
30
0
0
ENDSEC
0
SECTION
2
OBJECTS
0
DICTIONARY
5
C
100
AcDbDictionary
3
ACAD_GROUP
350
D
3
ACAD_MLINESTYLE
350
17
0
DICTIONARY
5
D
100
AcDbDictionary
0
DICTIONARY
5
1A
330
C
100
AcDbDictionary
0
DICTIONARY
5
17
100
AcDbDictionary
0
ENDSEC
0
EOF
