  0
SECTION
  2
HEADER
  9
$ACADVER
  1
AC1014
  9
$HANDSEED
  5
FFFF
  9
$MEASUREMENT
 70
     1
  0
ENDSEC
  0
SECTION
  2
TABLES
  0
TABLE
  2
VPORT
  5
8
330
0
100
AcDbSymbolTable
 70
     4
  0
VPORT
  5
2E
330
8
100
AcDbSymbolTableRecord
100
AcDbViewportTableRecord
  2
*ACTIVE
 70
     0
 10
0.0
 20
0.0
 11
1.0
 21
1.0
 12
210.0
 22
148.5
 13
0.0
 23
0.0
 14
10.0
 24
10.0
 15
10.0
 25
10.0
 16
0.0
 26
0.0
 36
1.0
 17
0.0
 27
0.0
 37
0.0
 40
341.0
 41
1.24
 42
50.0
 43
0.0
 44
0.0
 50
0.0
 51
0.0
 71
     0
 72
   100
 73
     1
 74
     3
 75
     0
 76
     0
 77
     0
 78
     0
  0
ENDTAB
  0
TABLE
  2
LTYPE
  5
5
330
0
100
AcDbSymbolTable
 70
     1
  0
LTYPE
  5
14
330
5
100
AcDbSymbolTableRecord
100
AcDbLinetypeTableRecord
  2
BYBLOCK
 70
     0
  3

 72
    65
 73
     0
 40
0.0
  0
LTYPE
  5
15
330
5
100
AcDbSymbolTableRecord
100
AcDbLinetypeTableRecord
  2
BYLAYER
 70
     0
  3

 72
    65
 73
     0
 40
0.0
  0
LTYPE
  5
16
330
5
100
AcDbSymbolTableRecord
100
AcDbLinetypeTableRecord
  2
CONTINUOUS
 70
     0
  3
Solid line
 72
    65
 73
     0
 40
0.0
  0
ENDTAB
  0
TABLE
  2
LAYER
  5
2
100
AcDbSymbolTable
 70
1
  0
LAYER
  5
50
100
AcDbSymbolTableRecord
100
AcDbLayerTableRecord
  2
0
 70
0
  6
CONTINUOUS
  0
ENDTAB
  0
TABLE
  2
STYLE
  5
3
330
0
100
AcDbSymbolTable
 70
     1
  0
STYLE
  5
11
330
3
100
AcDbSymbolTableRecord
100
AcDbTextStyleTableRecord
  2
STANDARD
 70
     0
 40
0.0
 41
1.0
 50
0.0
 71
     0
 42
2.5
  3
txt
  4

  0
ENDTAB
  0
TABLE
  2
VIEW
  5
6
330
0
100
AcDbSymbolTable
 70
     0
  0
ENDTAB
  0
TABLE
  2
UCS
  5
7
330
0
100
AcDbSymbolTable
 70
     0
  0
ENDTAB
  0
TABLE
  2
APPID
  5
9
330
0
100
AcDbSymbolTable
 70
     2
  0
APPID
  5
12
330
9
100
AcDbSymbolTableRecord
100
AcDbRegAppTableRecord
  2
ACAD
 70
     0
  0
ENDTAB
  0
TABLE
  2
DIMSTYLE
  5
A
330
0
100
AcDbSymbolTable
 70
     1
  0
DIMSTYLE
105
27
330
A
100
AcDbSymbolTableRecord
100
AcDbDimStyleTableRecord
  2
ISO-25
 70
     0
  3

  4

  5

  6

  7

 40
1.0
 41
2.5
 42
0.625
 43
3.75
 44
1.25
 45
0.0
 46
0.0
 47
0.0
 48
0.0
140
2.5
141
2.5
142
0.0
143
0.03937007874016
144
1.0
145
0.0
146
1.0
147
0.625
 71
     0
 72
     0
 73
     0
 74
     0
 75
     0
 76
     0
 77
     1
 78
     8
170
     0
171
     3
172
     1
173
     0
174
     0
175
     0
176
     0
177
     0
178
     0
270
     2
271
     2
272
     2
273
     2
274
     3
340
11
275
     0
280
     0
281
     0
282
     0
283
     0
284
     8
285
     0
286
     0
287
     3
288
     0
  0
ENDTAB
  0
TABLE
  2
BLOCK_RECORD
  5
1
330
0
100
AcDbSymbolTable
 70
     1
  0
BLOCK_RECORD
  5
1F
330
1
100
AcDbSymbolTableRecord
100
AcDbBlockTableRecord
  2
*MODEL_SPACE
  0
BLOCK_RECORD
  5
1B
330
1
100
AcDbSymbolTableRecord
100
AcDbBlockTableRecord
  2
*PAPER_SPACE
  0
ENDTAB
  0
ENDSEC
  0
SECTION
  2
BLOCKS
  0
BLOCK
  5
20
330
1F
100
AcDbEntity
  8
0
100
AcDbBlockBegin
  2
*MODEL_SPACE
 70
     0
 10
0.0
 20
0.0
 30
0.0
  3
*MODEL_SPACE
  1

  0
ENDBLK
  5
21
330
1F
100
AcDbEntity
  8
0
100
AcDbBlockEnd
  0
BLOCK
  5
1C
330
1B
100
AcDbEntity
 67
     1
  8
0
100
AcDbBlockBegin
  2
*PAPER_SPACE
  1

  0
ENDBLK
  5
1D
330
1B
100
AcDbEntity
 67
     1
  8
0
100
AcDbBlockEnd
  0
ENDSEC
  0
SECTION
  2
ENTITIES
  0
SPLINE
  5
100
100
AcDbEntity
  8
0
 62
7
100
AcDbSpline
 70
8
 71
3
 72
8
 73
4
 74
0
 40
0
 40
0
 40
0
 40
0
 40
1
 40
1
 40
1
 40
1
 10
98.511742
 20
61.114870
 30
0.0
 10
91.505528
 20
68.121087
 30
0.0
 10
87.569480
 20
77.623561
 30
0.0
 10
87.569483
 20
87.531847
 30
0.0
  0
SPLINE
  5
101
100
AcDbEntity
  8
0
 62
7
100
AcDbSpline
 70
8
 71
3
 72
8
 73
4
 74
0
 40
0
 40
0
 40
0
 40
0
 40
1
 40
1
 40
1
 40
1
 10
124.928713
 20
50.172595
 30
0.0
 10
115.020427
 20
50.172595
 30
0.0
 10
105.517956
 20
54.108651
 30
0.0
 10
98.511742
 20
61.114870
 30
0.0
  0
SPLINE
  5
102
100
AcDbEntity
  8
0
 62
7
100
AcDbSpline
 70
8
 71
3
 72
8
 73
4
 74
0
 40
0
 40
0
 40
0
 40
0
 40
1
 40
1
 40
1
 40
1
 10
90.693770
 20
50.392779
 30
0.0
 10
90.308656
 20
50.007667
 30
0.0
 10
89.786334
 20
49.791312
 30
0.0
 10
89.241703
 20
49.791312
 30
0.0
  0
SPLINE
  5
103
100
AcDbEntity
  8
0
 62
7
100
AcDbSpline
 70
8
 71
3
 72
8
 73
4
 74
0
 40
0
 40
0
 40
0
 40
0
 40
1
 40
1
 40
1
 40
1
 10
87.789635
 20
124.796898
 30
0.0
 10
88.174747
 20
125.182010
 30
0.0
 10
88.697071
 20
125.398365
 30
0.0
 10
89.241703
 20
125.398365
 30
0.0
  0
SPLINE
  5
104
100
AcDbEntity
  8
0
 62
7
100
AcDbSpline
 70
8
 71
3
 72
8
 73
4
 74
0
 40
0
 40
0
 40
0
 40
0
 40
1
 40
1
 40
1
 40
1
 10
89.241703
 20
49.791312
 30
0.0
 10
88.697071
 20
49.791315
 30
0.0
 10
88.174747
 20
50.007667
 30
0.0
 10
87.789635
 20
50.392781
 30
0.0
  0
SPLINE
  5
105
100
AcDbEntity
  8
0
 62
7
100
AcDbSpline
 70
8
 71
3
 72
8
 73
4
 74
0
 40
0
 40
0
 40
0
 40
0
 40
1
 40
1
 40
1
 40
1
 10
87.789635
 20
50.392781
 30
0.0
 10
87.404523
 20
50.777893
 30
0.0
 10
87.188171
 20
51.300215
 30
0.0
 10
87.188171
 20
51.844847
 30
0.0
  0
SPLINE
  5
106
100
AcDbEntity
  8
0
 62
7
100
AcDbSpline
 70
8
 71
3
 72
8
 73
4
 74
0
 40
0
 40
0
 40
0
 40
0
 40
1
 40
1
 40
1
 40
1
 10
160.741697
 20
53.898381
 30
0.0
 10
161.286329
 20
53.898381
 30
0.0
 10
161.808653
 20
53.682026
 30
0.0
 10
162.193762
 20
53.296914
 30
0.0
  0
SPLINE
  5
107
100
AcDbEntity
  8
0
 62
7
100
AcDbSpline
 70
8
 71
3
 72
8
 73
4
 74
0
 40
0
 40
0
 40
0
 40
0
 40
1
 40
1
 40
1
 40
1
 10
53.354749
 20
5.931494
 30
0.0
 10
52.969637
 20
6.316622
 30
0.0
 10
52.753285
 20
6.838936
 30
0.0
 10
52.753285
 20
7.383581
 30
0.0
  0
SPLINE
  5
108
100
AcDbEntity
  8
0
 62
7
100
AcDbSpline
 70
8
 71
3
 72
8
 73
4
 74
0
 40
0
 40
0
 40
0
 40
0
 40
1
 40
1
 40
1
 40
1
 10
54.806817
 20
5.330043
 30
0.0
 10
54.262185
 20
5.330043
 30
0.0
 10
53.739863
 20
5.546393
 30
0.0
 10
53.354749
 20
5.931494
 30
0.0
  0
SPLINE
  5
109
100
AcDbEntity
  8
0
 62
7
100
AcDbSpline
 70
8
 71
3
 72
8
 73
4
 74
0
 40
0
 40
0
 40
0
 40
0
 40
1
 40
1
 40
1
 40
1
 10
56.258882
 20
5.931521
 30
0.0
 10
55.873773
 20
5.546393
 30
0.0
 10
55.351448
 20
5.330043
 30
0.0
 10
54.806817
 20
5.330043
 30
0.0
  0
SPLINE
  5
10a
100
AcDbEntity
  8
0
 62
7
100
AcDbSpline
 70
8
 71
3
 72
8
 73
4
 74
0
 40
0
 40
0
 40
0
 40
0
 40
1
 40
1
 40
1
 40
1
 10
52.753285
 20
7.383581
 30
0.0
 10
52.753285
 20
7.928199
 30
0.0
 10
52.969637
 20
8.450539
 30
0.0
 10
53.354749
 20
8.835640
 30
0.0
  0
SPLINE
  5
10b
100
AcDbEntity
  8
0
 62
7
100
AcDbSpline
 70
8
 71
3
 72
8
 73
4
 74
0
 40
0
 40
0
 40
0
 40
0
 40
1
 40
1
 40
1
 40
1
 10
33.586818
 20
5.330043
 30
0.0
 10
33.042186
 20
5.330043
 30
0.0
 10
32.519862
 20
5.546393
 30
0.0
 10
32.134750
 20
5.931521
 30
0.0
  0
SPLINE
  5
10c
100
AcDbEntity
  8
0
 62
7
100
AcDbSpline
 70
8
 71
3
 72
8
 73
4
 74
0
 40
0
 40
0
 40
0
 40
0
 40
1
 40
1
 40
1
 40
1
 10
35.640347
 20
7.383581
 30
0.0
 10
35.640350
 20
6.838936
 30
0.0
 10
35.423995
 20
6.316622
 30
0.0
 10
35.038883
 20
5.931521
 30
0.0
  0
SPLINE
  5
10d
100
AcDbEntity
  8
0
 62
7
100
AcDbSpline
 70
8
 71
3
 72
8
 73
4
 74
0
 40
0
 40
0
 40
0
 40
0
 40
1
 40
1
 40
1
 40
1
 10
32.134750
 20
5.931521
 30
0.0
 10
31.749639
 20
6.316622
 30
0.0
 10
31.533286
 20
6.838936
 30
0.0
 10
31.533286
 20
7.383581
 30
0.0
  0
SPLINE
  5
10e
100
AcDbEntity
  8
0
 62
7
100
AcDbSpline
 70
8
 71
3
 72
8
 73
4
 74
0
 40
0
 40
0
 40
0
 40
0
 40
1
 40
1
 40
1
 40
1
 10
162.287946
 20
87.531847
 30
0.0
 10
162.287951
 20
77.623558
 30
0.0
 10
158.351901
 20
68.121087
 30
0.0
 10
151.345687
 20
61.114868
 30
0.0
  0
SPLINE
  5
10f
100
AcDbEntity
  8
0
 62
7
100
AcDbSpline
 70
8
 71
3
 72
8
 73
4
 74
0
 40
0
 40
0
 40
0
 40
0
 40
1
 40
1
 40
1
 40
1
 10
159.289629
 20
124.796898
 30
0.0
 10
159.674741
 20
125.182013
 30
0.0
 10
160.197066
 20
125.398365
 30
0.0
 10
160.741697
 20
125.398365
 30
0.0
  0
SPLINE
  5
110
100
AcDbEntity
  8
0
 62
7
100
AcDbSpline
 70
8
 71
3
 72
8
 73
4
 74
0
 40
0
 40
0
 40
0
 40
0
 40
1
 40
1
 40
1
 40
1
 10
91.295234
 20
51.844847
 30
0.0
 10
91.295237
 20
51.300215
 30
0.0
 10
91.078882
 20
50.777890
 30
0.0
 10
90.693770
 20
50.392779
 30
0.0
  0
SPLINE
  5
111
100
AcDbEntity
  8
0
 62
7
100
AcDbSpline
 70
8
 71
3
 72
8
 73
4
 74
0
 40
0
 40
0
 40
0
 40
0
 40
1
 40
1
 40
1
 40
1
 10
54.806817
 20
9.437118
 30
0.0
 10
55.351448
 20
9.437118
 30
0.0
 10
55.873773
 20
9.220768
 30
0.0
 10
56.258882
 20
8.835640
 30
0.0
  0
SPLINE
  5
112
100
AcDbEntity
  8
0
 62
7
100
AcDbSpline
 70
8
 71
3
 72
8
 73
4
 74
0
 40
0
 40
0
 40
0
 40
0
 40
1
 40
1
 40
1
 40
1
 10
89.241703
 20
53.898381
 30
0.0
 10
89.786334
 20
53.898381
 30
0.0
 10
90.308656
 20
53.682029
 30
0.0
 10
90.693770
 20
53.296914
 30
0.0
  0
SPLINE
  5
113
100
AcDbEntity
  8
0
 62
7
100
AcDbSpline
 70
8
 71
3
 72
8
 73
4
 74
0
 40
0
 40
0
 40
0
 40
0
 40
1
 40
1
 40
1
 40
1
 10
56.258882
 20
8.835640
 30
0.0
 10
56.643996
 20
8.450539
 30
0.0
 10
56.860349
 20
7.928199
 30
0.0
 10
56.860349
 20
7.383581
 30
0.0
  0
SPLINE
  5
114
100
AcDbEntity
  8
0
 62
7
100
AcDbSpline
 70
8
 71
3
 72
8
 73
4
 74
0
 40
0
 40
0
 40
0
 40
0
 40
1
 40
1
 40
1
 40
1
 10
35.038883
 20
5.931521
 30
0.0
 10
34.653772
 20
5.546393
 30
0.0
 10
34.131447
 20
5.330043
 30
0.0
 10
33.586818
 20
5.330043
 30
0.0
  0
SPLINE
  5
115
100
AcDbEntity
  8
0
 62
7
100
AcDbSpline
 70
8
 71
3
 72
8
 73
4
 74
0
 40
0
 40
0
 40
0
 40
0
 40
1
 40
1
 40
1
 40
1
 10
151.345687
 20
61.114868
 30
0.0
 10
144.339470
 20
54.108648
 30
0.0
 10
134.837002
 20
50.172595
 30
0.0
 10
124.928713
 20
50.172595
 30
0.0
  0
SPLINE
  5
116
100
AcDbEntity
  8
0
 62
7
100
AcDbSpline
 70
8
 71
3
 72
8
 73
4
 74
0
 40
0
 40
0
 40
0
 40
0
 40
1
 40
1
 40
1
 40
1
 10
87.188171
 20
51.844847
 30
0.0
 10
87.188171
 20
52.389478
 30
0.0
 10
87.404523
 20
52.911803
 30
0.0
 10
87.789635
 20
53.296914
 30
0.0
  0
SPLINE
  5
117
100
AcDbEntity
  8
0
 62
7
100
AcDbSpline
 70
8
 71
3
 72
8
 73
4
 74
0
 40
0
 40
0
 40
0
 40
0
 40
1
 40
1
 40
1
 40
1
 10
87.789635
 20
53.296914
 30
0.0
 10
88.174747
 20
53.682026
 30
0.0
 10
88.697071
 20
53.898381
 30
0.0
 10
89.241703
 20
53.898381
 30
0.0
  0
SPLINE
  5
118
100
AcDbEntity
  8
0
 62
7
100
AcDbSpline
 70
8
 71
3
 72
8
 73
4
 74
0
 40
0
 40
0
 40
0
 40
0
 40
1
 40
1
 40
1
 40
1
 10
32.134750
 20
8.835640
 30
0.0
 10
32.519862
 20
9.220768
 30
0.0
 10
33.042186
 20
9.437118
 30
0.0
 10
33.586818
 20
9.437118
 30
0.0
  0
SPLINE
  5
119
100
AcDbEntity
  8
0
 62
7
100
AcDbSpline
 70
8
 71
3
 72
8
 73
4
 74
0
 40
0
 40
0
 40
0
 40
0
 40
1
 40
1
 40
1
 40
1
 10
31.533286
 20
7.383581
 30
0.0
 10
31.533286
 20
7.928199
 30
0.0
 10
31.749639
 20
8.450539
 30
0.0
 10
32.134750
 20
8.835640
 30
0.0
  0
SPLINE
  5
11a
100
AcDbEntity
  8
0
 62
7
100
AcDbSpline
 70
8
 71
3
 72
8
 73
4
 74
0
 40
0
 40
0
 40
0
 40
0
 40
1
 40
1
 40
1
 40
1
 10
53.354749
 20
8.835640
 30
0.0
 10
53.739863
 20
9.220768
 30
0.0
 10
54.262185
 20
9.437118
 30
0.0
 10
54.806817
 20
9.437118
 30
0.0
  0
SPLINE
  5
11b
100
AcDbEntity
  8
0
 62
7
100
AcDbSpline
 70
8
 71
3
 72
8
 73
4
 74
0
 40
0
 40
0
 40
0
 40
0
 40
1
 40
1
 40
1
 40
1
 10
35.038883
 20
8.835640
 30
0.0
 10
35.423995
 20
8.450539
 30
0.0
 10
35.640350
 20
7.928199
 30
0.0
 10
35.640347
 20
7.383581
 30
0.0
  0
SPLINE
  5
11c
100
AcDbEntity
  8
0
 62
7
100
AcDbSpline
 70
8
 71
3
 72
8
 73
4
 74
0
 40
0
 40
0
 40
0
 40
0
 40
1
 40
1
 40
1
 40
1
 10
90.693770
 20
53.296914
 30
0.0
 10
91.078882
 20
52.911803
 30
0.0
 10
91.295237
 20
52.389478
 30
0.0
 10
91.295234
 20
51.844847
 30
0.0
  0
SPLINE
  5
11d
100
AcDbEntity
  8
0
 62
7
100
AcDbSpline
 70
8
 71
3
 72
8
 73
4
 74
0
 40
0
 40
0
 40
0
 40
0
 40
1
 40
1
 40
1
 40
1
 10
124.928713
 20
124.891069
 30
0.0
 10
145.561644
 20
124.891069
 30
0.0
 10
162.287941
 20
108.164777
 30
0.0
 10
162.287946
 20
87.531847
 30
0.0
  0
SPLINE
  5
11e
100
AcDbEntity
  8
0
 62
7
100
AcDbSpline
 70
8
 71
3
 72
8
 73
4
 74
0
 40
0
 40
0
 40
0
 40
0
 40
1
 40
1
 40
1
 40
1
 10
87.569483
 20
87.531847
 30
0.0
 10
87.569488
 20
108.164777
 30
0.0
 10
104.295785
 20
124.891069
 30
0.0
 10
124.928713
 20
124.891069
 30
0.0
  0
SPLINE
  5
11f
100
AcDbEntity
  8
0
 62
7
100
AcDbSpline
 70
8
 71
3
 72
8
 73
4
 74
0
 40
0
 40
0
 40
0
 40
0
 40
1
 40
1
 40
1
 40
1
 10
185.384870
 20
21.742783
 30
0.0
 10
184.999758
 20
21.357682
 30
0.0
 10
184.477434
 20
21.141332
 30
0.0
 10
183.932802
 20
21.141332
 30
0.0
  0
SPLINE
  5
120
100
AcDbEntity
  8
0
 62
7
100
AcDbSpline
 70
8
 71
3
 72
8
 73
4
 74
0
 40
0
 40
0
 40
0
 40
0
 40
1
 40
1
 40
1
 40
1
 10
6.135783
 20
122.051481
 30
0.0
 10
6.521916
 20
122.437617
 30
0.0
 10
7.045626
 20
122.654543
 30
0.0
 10
7.591701
 20
122.654543
 30
0.0
  0
SPLINE
  5
121
100
AcDbEntity
  8
0
 62
7
100
AcDbSpline
 70
8
 71
3
 72
8
 73
4
 74
0
 40
0
 40
0
 40
0
 40
0
 40
1
 40
1
 40
1
 40
1
 10
181.879299
 20
360.994837
 30
0.0
 10
181.879299
 20
361.539466
 30
0.0
 10
182.095652
 20
362.061791
 30
0.0
 10
182.480763
 20
362.446902
 30
0.0
  0
SPLINE
  5
122
100
AcDbEntity
  8
0
 62
7
100
AcDbSpline
 70
8
 71
3
 72
8
 73
4
 74
0
 40
0
 40
0
 40
0
 40
0
 40
1
 40
1
 40
1
 40
1
 10
181.879270
 20
23.194869
 30
0.0
 10
181.879270
 20
23.739487
 30
0.0
 10
182.095623
 20
24.261828
 30
0.0
 10
182.480734
 20
24.646929
 30
0.0
  0
SPLINE
  5
123
100
AcDbEntity
  8
0
 62
7
100
AcDbSpline
 70
8
 71
3
 72
8
 73
4
 74
0
 40
0
 40
0
 40
0
 40
0
 40
1
 40
1
 40
1
 40
1
 10
138.759881
 20
5.931521
 30
0.0
 10
138.374769
 20
5.546393
 30
0.0
 10
137.852448
 20
5.330043
 30
0.0
 10
137.307816
 20
5.330043
 30
0.0
  0
SPLINE
  5
124
100
AcDbEntity
  8
0
 62
7
100
AcDbSpline
 70
8
 71
3
 72
8
 73
4
 74
0
 40
0
 40
0
 40
0
 40
0
 40
1
 40
1
 40
1
 40
1
 10
182.480763
 20
338.322771
 30
0.0
 10
182.095652
 20
338.707882
 30
0.0
 10
181.879297
 20
339.230207
 30
0.0
 10
181.879299
 20
339.774839
 30
0.0
  0
SPLINE
  5
125
100
AcDbEntity
  8
0
 62
7
100
AcDbSpline
 70
8
 71
3
 72
8
 73
4
 74
0
 40
0
 40
0
 40
0
 40
0
 40
1
 40
1
 40
1
 40
1
 10
183.927836
 20
203.047353
 30
0.0
 10
184.472467
 20
203.047353
 30
0.0
 10
184.994792
 20
202.831000
 30
0.0
 10
185.379906
 20
202.445886
 30
0.0
  0
SPLINE
  5
126
100
AcDbEntity
  8
0
 62
7
100
AcDbSpline
 70
8
 71
3
 72
8
 73
4
 74
0
 40
0
 40
0
 40
0
 40
0
 40
1
 40
1
 40
1
 40
1
 10
185.379904
 20
181.225877
 30
0.0
 10
185.765015
 20
180.840765
 30
0.0
 10
185.981370
 20
180.318441
 30
0.0
 10
185.981370
 20
179.773809
 30
0.0
  0
SPLINE
  5
127
100
AcDbEntity
  8
0
 62
7
100
AcDbSpline
 70
8
 71
3
 72
8
 73
4
 74
0
 40
0
 40
0
 40
0
 40
0
 40
1
 40
1
 40
1
 40
1
 10
183.932802
 20
42.361304
 30
0.0
 10
183.388173
 20
42.361304
 30
0.0
 10
182.865846
 20
42.577659
 30
0.0
 10
182.480734
 20
42.962771
 30
0.0
  0
SPLINE
  5
128
100
AcDbEntity
  8
0
 62
7
100
AcDbSpline
 70
8
 71
3
 72
8
 73
4
 74
0
 40
0
 40
0
 40
0
 40
0
 40
1
 40
1
 40
1
 40
1
 10
182.480734
 20
21.742783
 30
0.0
 10
182.095623
 20
22.127910
 30
0.0
 10
181.879270
 20
22.650224
 30
0.0
 10
181.879270
 20
23.194869
 30
0.0
  0
SPLINE
  5
129
100
AcDbEntity
  8
0
 62
7
100
AcDbSpline
 70
8
 71
3
 72
8
 73
4
 74
0
 40
0
 40
0
 40
0
 40
0
 40
1
 40
1
 40
1
 40
1
 10
185.384899
 20
359.542770
 30
0.0
 10
184.999787
 20
359.157658
 30
0.0
 10
184.477463
 20
358.941305
 30
0.0
 10
183.932831
 20
358.941305
 30
0.0
  0
SPLINE
  5
12a
100
AcDbEntity
  8
0
 62
7
100
AcDbSpline
 70
8
 71
3
 72
8
 73
4
 74
0
 40
0
 40
0
 40
0
 40
0
 40
1
 40
1
 40
1
 40
1
 10
87.789635
 20
121.892763
 30
0.0
 10
87.404523
 20
122.277877
 30
0.0
 10
87.188171
 20
122.800199
 30
0.0
 10
87.188171
 20
123.344831
 30
0.0
  0
SPLINE
  5
12b
100
AcDbEntity
  8
0
 62
7
100
AcDbSpline
 70
8
 71
3
 72
8
 73
4
 74
0
 40
0
 40
0
 40
0
 40
0
 40
1
 40
1
 40
1
 40
1
 10
5.532723
 20
120.595564
 30
0.0
 10
5.532723
 20
121.141637
 30
0.0
 10
5.749650
 20
121.665348
 30
0.0
 10
6.135783
 20
122.051481
 30
0.0
  0
SPLINE
  5
12c
100
AcDbEntity
  8
0
 62
7
100
AcDbSpline
 70
8
 71
3
 72
8
 73
4
 74
0
 40
0
 40
0
 40
0
 40
0
 40
1
 40
1
 40
1
 40
1
 10
181.874301
 20
179.773809
 30
0.0
 10
181.874301
 20
180.318441
 30
0.0
 10
182.090656
 20
180.840765
 30
0.0
 10
182.475768
 20
181.225877
 30
0.0
  0
SPLINE
  5
12d
100
AcDbEntity
  8
0
 62
7
100
AcDbSpline
 70
8
 71
3
 72
8
 73
4
 74
0
 40
0
 40
0
 40
0
 40
0
 40
1
 40
1
 40
1
 40
1
 10
181.879299
 20
339.774839
 30
0.0
 10
181.879299
 20
340.319470
 30
0.0
 10
182.095652
 20
340.841792
 30
0.0
 10
182.480763
 20
341.226906
 30
0.0
  0
SPLINE
  5
12e
100
AcDbEntity
  8
0
 62
7
100
AcDbSpline
 70
8
 71
3
 72
8
 73
4
 74
0
 40
0
 40
0
 40
0
 40
0
 40
1
 40
1
 40
1
 40
1
 10
87.188171
 20
123.344831
 30
0.0
 10
87.188171
 20
123.889462
 30
0.0
 10
87.404523
 20
124.411787
 30
0.0
 10
87.789635
 20
124.796898
 30
0.0
  0
SPLINE
  5
12f
100
AcDbEntity
  8
0
 62
7
100
AcDbSpline
 70
8
 71
3
 72
8
 73
4
 74
0
 40
0
 40
0
 40
0
 40
0
 40
1
 40
1
 40
1
 40
1
 10
182.480763
 20
362.446902
 30
0.0
 10
182.865878
 20
362.832014
 30
0.0
 10
183.388202
 20
363.048369
 30
0.0
 10
183.932831
 20
363.048366
 30
0.0
  0
SPLINE
  5
130
100
AcDbEntity
  8
0
 62
7
100
AcDbSpline
 70
8
 71
3
 72
8
 73
4
 74
0
 40
0
 40
0
 40
0
 40
0
 40
1
 40
1
 40
1
 40
1
 10
182.480734
 20
24.646929
 30
0.0
 10
182.865846
 20
25.032030
 30
0.0
 10
183.388173
 20
25.248406
 30
0.0
 10
183.932802
 20
25.248406
 30
0.0
  0
SPLINE
  5
131
100
AcDbEntity
  8
0
 62
7
100
AcDbSpline
 70
8
 71
3
 72
8
 73
4
 74
0
 40
0
 40
0
 40
0
 40
0
 40
1
 40
1
 40
1
 40
1
 10
183.932831
 20
358.941305
 30
0.0
 10
183.388202
 20
358.941305
 30
0.0
 10
182.865878
 20
359.157658
 30
0.0
 10
182.480763
 20
359.542770
 30
0.0
  0
SPLINE
  5
132
100
AcDbEntity
  8
0
 62
7
100
AcDbSpline
 70
8
 71
3
 72
8
 73
4
 74
0
 40
0
 40
0
 40
0
 40
0
 40
1
 40
1
 40
1
 40
1
 10
9.047619
 20
122.051481
 30
0.0
 10
9.433752
 20
121.665348
 30
0.0
 10
9.650679
 20
121.141637
 30
0.0
 10
9.650678
 20
120.595564
 30
0.0
  0
SPLINE
  5
133
100
AcDbEntity
  8
0
 62
7
100
AcDbSpline
 70
8
 71
3
 72
8
 73
4
 74
0
 40
0
 40
0
 40
0
 40
0
 40
1
 40
1
 40
1
 40
1
 10
9.047619
 20
119.139644
 30
0.0
 10
8.661486
 20
118.753511
 30
0.0
 10
8.137776
 20
118.536584
 30
0.0
 10
7.591701
 20
118.536584
 30
0.0
  0
SPLINE
  5
134
100
AcDbEntity
  8
0
 62
7
100
AcDbSpline
 70
8
 71
3
 72
8
 73
4
 74
0
 40
0
 40
0
 40
0
 40
0
 40
1
 40
1
 40
1
 40
1
 10
91.295234
 20
123.344831
 30
0.0
 10
91.295237
 20
122.800199
 30
0.0
 10
91.078882
 20
122.277874
 30
0.0
 10
90.693770
 20
121.892763
 30
0.0
  0
SPLINE
  5
135
100
AcDbEntity
  8
0
 62
7
100
AcDbSpline
 70
8
 71
3
 72
8
 73
4
 74
0
 40
0
 40
0
 40
0
 40
0
 40
1
 40
1
 40
1
 40
1
 10
7.591701
 20
118.536584
 30
0.0
 10
7.045626
 20
118.536584
 30
0.0
 10
6.521916
 20
118.753511
 30
0.0
 10
6.135783
 20
119.139644
 30
0.0
  0
SPLINE
  5
136
100
AcDbEntity
  8
0
 62
7
100
AcDbSpline
 70
8
 71
3
 72
8
 73
4
 74
0
 40
0
 40
0
 40
0
 40
0
 40
1
 40
1
 40
1
 40
1
 10
183.932831
 20
341.828368
 30
0.0
 10
184.477463
 20
341.828370
 30
0.0
 10
184.999787
 20
341.612015
 30
0.0
 10
185.384899
 20
341.226906
 30
0.0
  0
SPLINE
  5
137
100
AcDbEntity
  8
0
 62
7
100
AcDbSpline
 70
8
 71
3
 72
8
 73
4
 74
0
 40
0
 40
0
 40
0
 40
0
 40
1
 40
1
 40
1
 40
1
 10
7.591701
 20
122.654543
 30
0.0
 10
8.137776
 20
122.654543
 30
0.0
 10
8.661486
 20
122.437617
 30
0.0
 10
9.047619
 20
122.051481
 30
0.0
  0
SPLINE
  5
138
100
AcDbEntity
  8
0
 62
7
100
AcDbSpline
 70
8
 71
3
 72
8
 73
4
 74
0
 40
0
 40
0
 40
0
 40
0
 40
1
 40
1
 40
1
 40
1
 10
183.927836
 20
181.827344
 30
0.0
 10
184.472467
 20
181.827344
 30
0.0
 10
184.994792
 20
181.610991
 30
0.0
 10
185.379904
 20
181.225877
 30
0.0
  0
SPLINE
  5
139
100
AcDbEntity
  8
0
 62
7
100
AcDbSpline
 70
8
 71
3
 72
8
 73
4
 74
0
 40
0
 40
0
 40
0
 40
0
 40
1
 40
1
 40
1
 40
1
 10
89.241703
 20
125.398365
 30
0.0
 10
89.786334
 20
125.398365
 30
0.0
 10
90.308656
 20
125.182013
 30
0.0
 10
90.693770
 20
124.796898
 30
0.0
  0
SPLINE
  5
13a
100
AcDbEntity
  8
0
 62
7
100
AcDbSpline
 70
8
 71
3
 72
8
 73
4
 74
0
 40
0
 40
0
 40
0
 40
0
 40
1
 40
1
 40
1
 40
1
 10
90.693770
 20
121.892763
 30
0.0
 10
90.308656
 20
121.507651
 30
0.0
 10
89.786334
 20
121.291296
 30
0.0
 10
89.241703
 20
121.291296
 30
0.0
  0
SPLINE
  5
13b
100
AcDbEntity
  8
0
 62
7
100
AcDbSpline
 70
8
 71
3
 72
8
 73
4
 74
0
 40
0
 40
0
 40
0
 40
0
 40
1
 40
1
 40
1
 40
1
 10
185.384899
 20
338.322771
 30
0.0
 10
184.999787
 20
337.937659
 30
0.0
 10
184.477463
 20
337.721304
 30
0.0
 10
183.932831
 20
337.721304
 30
0.0
  0
SPLINE
  5
13c
100
AcDbEntity
  8
0
 62
7
100
AcDbSpline
 70
8
 71
3
 72
8
 73
4
 74
0
 40
0
 40
0
 40
0
 40
0
 40
1
 40
1
 40
1
 40
1
 10
183.927836
 20
198.940284
 30
0.0
 10
183.383204
 20
198.940281
 30
0.0
 10
182.860880
 20
199.156636
 30
0.0
 10
182.475768
 20
199.541748
 30
0.0
  0
SPLINE
  5
13d
100
AcDbEntity
  8
0
 62
7
100
AcDbSpline
 70
8
 71
3
 72
8
 73
4
 74
0
 40
0
 40
0
 40
0
 40
0
 40
1
 40
1
 40
1
 40
1
 10
182.475768
 20
199.541748
 30
0.0
 10
182.090656
 20
199.926860
 30
0.0
 10
181.874301
 20
200.449184
 30
0.0
 10
181.874301
 20
200.993816
 30
0.0
  0
SPLINE
  5
13e
100
AcDbEntity
  8
0
 62
7
100
AcDbSpline
 70
8
 71
3
 72
8
 73
4
 74
0
 40
0
 40
0
 40
0
 40
0
 40
1
 40
1
 40
1
 40
1
 10
183.932831
 20
337.721304
 30
0.0
 10
183.388200
 20
337.721304
 30
0.0
 10
182.865875
 20
337.937659
 30
0.0
 10
182.480763
 20
338.322771
 30
0.0
  0
SPLINE
  5
13f
100
AcDbEntity
  8
0
 62
7
100
AcDbSpline
 70
8
 71
3
 72
8
 73
4
 74
0
 40
0
 40
0
 40
0
 40
0
 40
1
 40
1
 40
1
 40
1
 10
185.384899
 20
341.226906
 30
0.0
 10
185.770011
 20
340.841792
 30
0.0
 10
185.986366
 20
340.319470
 30
0.0
 10
185.986366
 20
339.774839
 30
0.0
  0
LWPOLYLINE
  5
140
100
AcDbEntity
  8
0
 62
7
100
AcDbPolyline
 90
2
 70
0
 10
0.132702
 20
0.134923
 30
0.0
 10
0.132702
 20
459.134947
 30
0.0
  0
SPLINE
  5
141
100
AcDbEntity
  8
0
 62
7
100
AcDbSpline
 70
8
 71
3
 72
8
 73
4
 74
0
 40
0
 40
0
 40
0
 40
0
 40
1
 40
1
 40
1
 40
1
 10
185.986366
 20
339.774839
 30
0.0
 10
185.986366
 20
339.230207
 30
0.0
 10
185.770013
 20
338.707882
 30
0.0
 10
185.384899
 20
338.322771
 30
0.0
  0
SPLINE
  5
142
100
AcDbEntity
  8
0
 62
7
100
AcDbSpline
 70
8
 71
3
 72
8
 73
4
 74
0
 40
0
 40
0
 40
0
 40
0
 40
1
 40
1
 40
1
 40
1
 10
183.927836
 20
177.720304
 30
0.0
 10
182.793710
 20
177.720304
 30
0.0
 10
181.874317
 20
178.639686
 30
0.0
 10
181.874301
 20
179.773809
 30
0.0
  0
SPLINE
  5
143
100
AcDbEntity
  8
0
 62
7
100
AcDbSpline
 70
8
 71
3
 72
8
 73
4
 74
0
 40
0
 40
0
 40
0
 40
0
 40
1
 40
1
 40
1
 40
1
 10
182.480734
 20
45.866906
 30
0.0
 10
182.865846
 20
46.252021
 30
0.0
 10
183.388173
 20
46.468373
 30
0.0
 10
183.932802
 20
46.468373
 30
0.0
  0
SPLINE
  5
144
100
AcDbEntity
  8
0
 62
7
100
AcDbSpline
 70
8
 71
3
 72
8
 73
4
 74
0
 40
0
 40
0
 40
0
 40
0
 40
1
 40
1
 40
1
 40
1
 10
90.693770
 20
124.796898
 30
0.0
 10
91.078882
 20
124.411787
 30
0.0
 10
91.295237
 20
123.889462
 30
0.0
 10
91.295234
 20
123.344831
 30
0.0
  0
SPLINE
  5
145
100
AcDbEntity
  8
0
 62
7
100
AcDbSpline
 70
8
 71
3
 72
8
 73
4
 74
0
 40
0
 40
0
 40
0
 40
0
 40
1
 40
1
 40
1
 40
1
 10
185.981370
 20
179.773809
 30
0.0
 10
185.981354
 20
178.639686
 30
0.0
 10
185.061962
 20
177.720304
 30
0.0
 10
183.927836
 20
177.720304
 30
0.0
  0
SPLINE
  5
146
100
AcDbEntity
  8
0
 62
7
100
AcDbSpline
 70
8
 71
3
 72
8
 73
4
 74
0
 40
0
 40
0
 40
0
 40
0
 40
1
 40
1
 40
1
 40
1
 10
182.475768
 20
181.225877
 30
0.0
 10
182.860880
 20
181.610991
 30
0.0
 10
183.383204
 20
181.827344
 30
0.0
 10
183.927836
 20
181.827344
 30
0.0
  0
SPLINE
  5
147
100
AcDbEntity
  8
0
 62
7
100
AcDbSpline
 70
8
 71
3
 72
8
 73
4
 74
0
 40
0
 40
0
 40
0
 40
0
 40
1
 40
1
 40
1
 40
1
 10
182.480763
 20
359.542770
 30
0.0
 10
182.095652
 20
359.927881
 30
0.0
 10
181.879299
 20
360.450206
 30
0.0
 10
181.879299
 20
360.994837
 30
0.0
  0
SPLINE
  5
148
100
AcDbEntity
  8
0
 62
7
100
AcDbSpline
 70
8
 71
3
 72
8
 73
4
 74
0
 40
0
 40
0
 40
0
 40
0
 40
1
 40
1
 40
1
 40
1
 10
183.932802
 20
46.468373
 30
0.0
 10
184.477434
 20
46.468373
 30
0.0
 10
184.999758
 20
46.252018
 30
0.0
 10
185.384870
 20
45.866906
 30
0.0
  0
SPLINE
  5
149
100
AcDbEntity
  8
0
 62
7
100
AcDbSpline
 70
8
 71
3
 72
8
 73
4
 74
0
 40
0
 40
0
 40
0
 40
0
 40
1
 40
1
 40
1
 40
1
 10
185.379904
 20
199.541748
 30
0.0
 10
184.994792
 20
199.156636
 30
0.0
 10
184.472467
 20
198.940281
 30
0.0
 10
183.927836
 20
198.940284
 30
0.0
  0
SPLINE
  5
14a
100
AcDbEntity
  8
0
 62
7
100
AcDbSpline
 70
8
 71
3
 72
8
 73
4
 74
0
 40
0
 40
0
 40
0
 40
0
 40
1
 40
1
 40
1
 40
1
 10
33.586818
 20
9.437118
 30
0.0
 10
34.131447
 20
9.437118
 30
0.0
 10
34.653772
 20
9.220768
 30
0.0
 10
35.038883
 20
8.835640
 30
0.0
  0
SPLINE
  5
14b
100
AcDbEntity
  8
0
 62
7
100
AcDbSpline
 70
8
 71
3
 72
8
 73
4
 74
0
 40
0
 40
0
 40
0
 40
0
 40
1
 40
1
 40
1
 40
1
 10
89.241703
 20
121.291296
 30
0.0
 10
88.697071
 20
121.291299
 30
0.0
 10
88.174747
 20
121.507651
 30
0.0
 10
87.789635
 20
121.892763
 30
0.0
  0
SPLINE
  5
14c
100
AcDbEntity
  8
0
 62
7
100
AcDbSpline
 70
8
 71
3
 72
8
 73
4
 74
0
 40
0
 40
0
 40
0
 40
0
 40
1
 40
1
 40
1
 40
1
 10
182.475768
 20
202.445886
 30
0.0
 10
182.860880
 20
202.831000
 30
0.0
 10
183.383204
 20
203.047353
 30
0.0
 10
183.927836
 20
203.047353
 30
0.0
  0
SPLINE
  5
14d
100
AcDbEntity
  8
0
 62
7
100
AcDbSpline
 70
8
 71
3
 72
8
 73
4
 74
0
 40
0
 40
0
 40
0
 40
0
 40
1
 40
1
 40
1
 40
1
 10
181.874301
 20
200.993816
 30
0.0
 10
181.874301
 20
201.538447
 30
0.0
 10
182.090654
 20
202.060772
 30
0.0
 10
182.475768
 20
202.445886
 30
0.0
  0
SPLINE
  5
14e
100
AcDbEntity
  8
0
 62
7
100
AcDbSpline
 70
8
 71
3
 72
8
 73
4
 74
0
 40
0
 40
0
 40
0
 40
0
 40
1
 40
1
 40
1
 40
1
 10
185.384870
 20
45.866906
 30
0.0
 10
185.769981
 20
45.481795
 30
0.0
 10
185.986334
 20
44.959470
 30
0.0
 10
185.986334
 20
44.414839
 30
0.0
  0
SPLINE
  5
14f
100
AcDbEntity
  8
0
 62
7
100
AcDbSpline
 70
8
 71
3
 72
8
 73
4
 74
0
 40
0
 40
0
 40
0
 40
0
 40
1
 40
1
 40
1
 40
1
 10
185.384870
 20
42.962771
 30
0.0
 10
184.999758
 20
42.577659
 30
0.0
 10
184.477434
 20
42.361307
 30
0.0
 10
183.932802
 20
42.361304
 30
0.0
  0
SPLINE
  5
150
100
AcDbEntity
  8
0
 62
7
100
AcDbSpline
 70
8
 71
3
 72
8
 73
4
 74
0
 40
0
 40
0
 40
0
 40
0
 40
1
 40
1
 40
1
 40
1
 10
182.480734
 20
42.962771
 30
0.0
 10
182.095623
 20
43.347882
 30
0.0
 10
181.879270
 20
43.870207
 30
0.0
 10
181.879270
 20
44.414839
 30
0.0
  0
SPLINE
  5
151
100
AcDbEntity
  8
0
 62
7
100
AcDbSpline
 70
8
 71
3
 72
8
 73
4
 74
0
 40
0
 40
0
 40
0
 40
0
 40
1
 40
1
 40
1
 40
1
 10
183.932802
 20
25.248406
 30
0.0
 10
184.477434
 20
25.248406
 30
0.0
 10
184.999758
 20
25.032030
 30
0.0
 10
185.384870
 20
24.646929
 30
0.0
  0
SPLINE
  5
152
100
AcDbEntity
  8
0
 62
7
100
AcDbSpline
 70
8
 71
3
 72
8
 73
4
 74
0
 40
0
 40
0
 40
0
 40
0
 40
1
 40
1
 40
1
 40
1
 10
6.135783
 20
119.139644
 30
0.0
 10
5.749650
 20
119.525779
 30
0.0
 10
5.532723
 20
120.049487
 30
0.0
 10
5.532723
 20
120.595564
 30
0.0
  0
SPLINE
  5
153
100
AcDbEntity
  8
0
 62
7
100
AcDbSpline
 70
8
 71
3
 72
8
 73
4
 74
0
 40
0
 40
0
 40
0
 40
0
 40
1
 40
1
 40
1
 40
1
 10
185.986334
 20
44.414839
 30
0.0
 10
185.986334
 20
43.870207
 30
0.0
 10
185.769981
 20
43.347885
 30
0.0
 10
185.384870
 20
42.962771
 30
0.0
  0
SPLINE
  5
154
100
AcDbEntity
  8
0
 62
7
100
AcDbSpline
 70
8
 71
3
 72
8
 73
4
 74
0
 40
0
 40
0
 40
0
 40
0
 40
1
 40
1
 40
1
 40
1
 10
9.650678
 20
120.595564
 30
0.0
 10
9.650679
 20
120.049487
 30
0.0
 10
9.433752
 20
119.525779
 30
0.0
 10
9.047619
 20
119.139644
 30
0.0
  0
SPLINE
  5
155
100
AcDbEntity
  8
0
 62
7
100
AcDbSpline
 70
8
 71
3
 72
8
 73
4
 74
0
 40
0
 40
0
 40
0
 40
0
 40
1
 40
1
 40
1
 40
1
 10
185.384870
 20
24.646929
 30
0.0
 10
185.769981
 20
24.261828
 30
0.0
 10
185.986334
 20
23.739487
 30
0.0
 10
185.986334
 20
23.194869
 30
0.0
  0
SPLINE
  5
156
100
AcDbEntity
  8
0
 62
7
100
AcDbSpline
 70
8
 71
3
 72
8
 73
4
 74
0
 40
0
 40
0
 40
0
 40
0
 40
1
 40
1
 40
1
 40
1
 10
185.981370
 20
200.993816
 30
0.0
 10
185.981370
 20
200.449184
 30
0.0
 10
185.765015
 20
199.926860
 30
0.0
 10
185.379904
 20
199.541748
 30
0.0
  0
SPLINE
  5
157
100
AcDbEntity
  8
0
 62
7
100
AcDbSpline
 70
8
 71
3
 72
8
 73
4
 74
0
 40
0
 40
0
 40
0
 40
0
 40
1
 40
1
 40
1
 40
1
 10
185.379906
 20
202.445886
 30
0.0
 10
185.765018
 20
202.060772
 30
0.0
 10
185.981370
 20
201.538447
 30
0.0
 10
185.981370
 20
200.993816
 30
0.0
  0
SPLINE
  5
158
100
AcDbEntity
  8
0
 62
7
100
AcDbSpline
 70
8
 71
3
 72
8
 73
4
 74
0
 40
0
 40
0
 40
0
 40
0
 40
1
 40
1
 40
1
 40
1
 10
181.879270
 20
44.414839
 30
0.0
 10
181.879270
 20
44.959470
 30
0.0
 10
182.095623
 20
45.481795
 30
0.0
 10
182.480734
 20
45.866906
 30
0.0
  0
SPLINE
  5
159
100
AcDbEntity
  8
0
 62
7
100
AcDbSpline
 70
8
 71
3
 72
8
 73
4
 74
0
 40
0
 40
0
 40
0
 40
0
 40
1
 40
1
 40
1
 40
1
 10
183.932802
 20
21.141332
 30
0.0
 10
183.388173
 20
21.141332
 30
0.0
 10
182.865846
 20
21.357682
 30
0.0
 10
182.480734
 20
21.742783
 30
0.0
  0
SPLINE
  5
15a
100
AcDbEntity
  8
0
 62
7
100
AcDbSpline
 70
8
 71
3
 72
8
 73
4
 74
0
 40
0
 40
0
 40
0
 40
0
 40
1
 40
1
 40
1
 40
1
 10
182.480763
 20
341.226906
 30
0.0
 10
182.865878
 20
341.612015
 30
0.0
 10
183.388202
 20
341.828370
 30
0.0
 10
183.932831
 20
341.828368
 30
0.0
  0
SPLINE
  5
15b
100
AcDbEntity
  8
0
 62
7
100
AcDbSpline
 70
8
 71
3
 72
8
 73
4
 74
0
 40
0
 40
0
 40
0
 40
0
 40
1
 40
1
 40
1
 40
1
 10
185.986334
 20
23.194869
 30
0.0
 10
185.986334
 20
22.650224
 30
0.0
 10
185.769981
 20
22.127910
 30
0.0
 10
185.384870
 20
21.742783
 30
0.0
  0
SPLINE
  5
15c
100
AcDbEntity
  8
0
 62
7
100
AcDbSpline
 70
8
 71
3
 72
8
 73
4
 74
0
 40
0
 40
0
 40
0
 40
0
 40
1
 40
1
 40
1
 40
1
 10
159.289629
 20
121.892763
 30
0.0
 10
158.904518
 20
122.277874
 30
0.0
 10
158.688163
 20
122.800199
 30
0.0
 10
158.688163
 20
123.344831
 30
0.0
  0
SPLINE
  5
15d
100
AcDbEntity
  8
0
 62
7
100
AcDbSpline
 70
8
 71
3
 72
8
 73
4
 74
0
 40
0
 40
0
 40
0
 40
0
 40
1
 40
1
 40
1
 40
1
 10
116.087815
 20
5.330043
 30
0.0
 10
115.543183
 20
5.330043
 30
0.0
 10
115.020861
 20
5.546393
 30
0.0
 10
114.635749
 20
5.931521
 30
0.0
  0
SPLINE
  5
15e
100
AcDbEntity
  8
0
 62
7
100
AcDbSpline
 70
8
 71
3
 72
8
 73
4
 74
0
 40
0
 40
0
 40
0
 40
0
 40
1
 40
1
 40
1
 40
1
 10
49.311701
 20
288.618589
 30
0.0
 10
48.765628
 20
288.618589
 30
0.0
 10
48.241917
 20
288.835517
 30
0.0
 10
47.855784
 20
289.221650
 30
0.0
  0
SPLINE
  5
15f
100
AcDbEntity
  8
0
 62
7
100
AcDbSpline
 70
8
 71
3
 72
8
 73
4
 74
0
 40
0
 40
0
 40
0
 40
0
 40
1
 40
1
 40
1
 40
1
 10
138.759881
 20
8.835640
 30
0.0
 10
139.144993
 20
8.450539
 30
0.0
 10
139.361345
 20
7.928199
 30
0.0
 10
139.361345
 20
7.383581
 30
0.0
  0
SPLINE
  5
160
100
AcDbEntity
  8
0
 62
7
100
AcDbSpline
 70
8
 71
3
 72
8
 73
4
 74
0
 40
0
 40
0
 40
0
 40
0
 40
1
 40
1
 40
1
 40
1
 10
182.479636
 20
462.365904
 30
0.0
 10
182.864748
 20
462.751013
 30
0.0
 10
183.387072
 20
462.967368
 30
0.0
 10
183.931701
 20
462.967368
 30
0.0
  0
SPLINE
  5
161
100
AcDbEntity
  8
0
 62
7
100
AcDbSpline
 70
8
 71
3
 72
8
 73
4
 74
0
 40
0
 40
0
 40
0
 40
0
 40
1
 40
1
 40
1
 40
1
 10
118.141349
 20
7.383581
 30
0.0
 10
118.141349
 20
6.838936
 30
0.0
 10
117.924994
 20
6.316622
 30
0.0
 10
117.539882
 20
5.931494
 30
0.0
  0
SPLINE
  5
162
100
AcDbEntity
  8
0
 62
7
100
AcDbSpline
 70
8
 71
3
 72
8
 73
4
 74
0
 40
0
 40
0
 40
0
 40
0
 40
1
 40
1
 40
1
 40
1
 10
116.087815
 20
9.437118
 30
0.0
 10
116.632446
 20
9.437118
 30
0.0
 10
117.154771
 20
9.220768
 30
0.0
 10
117.539882
 20
8.835640
 30
0.0
  0
SPLINE
  5
163
100
AcDbEntity
  8
0
 62
7
100
AcDbSpline
 70
8
 71
3
 72
8
 73
4
 74
0
 40
0
 40
0
 40
0
 40
0
 40
1
 40
1
 40
1
 40
1
 10
185.383769
 20
441.145905
 30
0.0
 10
185.768883
 20
440.760794
 30
0.0
 10
185.985236
 20
440.238469
 30
0.0
 10
185.985236
 20
439.693837
 30
0.0
  0
SPLINE
  5
164
100
AcDbEntity
  8
0
 62
7
100
AcDbSpline
 70
8
 71
3
 72
8
 73
4
 74
0
 40
0
 40
0
 40
0
 40
0
 40
1
 40
1
 40
1
 40
1
 10
183.931701
 20
437.640306
 30
0.0
 10
183.387072
 20
437.640303
 30
0.0
 10
182.864748
 20
437.856658
 30
0.0
 10
182.479634
 20
438.241770
 30
0.0
  0
SPLINE
  5
165
100
AcDbEntity
  8
0
 62
7
100
AcDbSpline
 70
8
 71
3
 72
8
 73
4
 74
0
 40
0
 40
0
 40
0
 40
0
 40
1
 40
1
 40
1
 40
1
 10
182.479634
 20
438.241770
 30
0.0
 10
182.094522
 20
438.626884
 30
0.0
 10
181.878170
 20
439.149206
 30
0.0
 10
181.878170
 20
439.693837
 30
0.0
  0
SPLINE
  5
166
100
AcDbEntity
  8
0
 62
7
100
AcDbSpline
 70
8
 71
3
 72
8
 73
4
 74
0
 40
0
 40
0
 40
0
 40
0
 40
1
 40
1
 40
1
 40
1
 10
139.361345
 20
7.383581
 30
0.0
 10
139.361345
 20
6.838936
 30
0.0
 10
139.144993
 20
6.316622
 30
0.0
 10
138.759881
 20
5.931521
 30
0.0
  0
SPLINE
  5
167
100
AcDbEntity
  8
0
 62
7
100
AcDbSpline
 70
8
 71
3
 72
8
 73
4
 74
0
 40
0
 40
0
 40
0
 40
0
 40
1
 40
1
 40
1
 40
1
 10
135.855748
 20
8.835640
 30
0.0
 10
136.240860
 20
9.220768
 30
0.0
 10
136.763184
 20
9.437118
 30
0.0
 10
137.307816
 20
9.437118
 30
0.0
  0
SPLINE
  5
168
100
AcDbEntity
  8
0
 62
7
100
AcDbSpline
 70
8
 71
3
 72
8
 73
4
 74
0
 40
0
 40
0
 40
0
 40
0
 40
1
 40
1
 40
1
 40
1
 10
185.985236
 20
460.913836
 30
0.0
 10
185.985236
 20
460.369207
 30
0.0
 10
185.768883
 20
459.846883
 30
0.0
 10
185.383769
 20
459.461771
 30
0.0
  0
SPLINE
  5
169
100
AcDbEntity
  8
0
 62
7
100
AcDbSpline
 70
8
 71
3
 72
8
 73
4
 74
0
 40
0
 40
0
 40
0
 40
0
 40
1
 40
1
 40
1
 40
1
 10
162.193762
 20
53.296914
 30
0.0
 10
162.578874
 20
52.911803
 30
0.0
 10
162.795229
 20
52.389478
 30
0.0
 10
162.795229
 20
51.844847
 30
0.0
  0
SPLINE
  5
16a
100
AcDbEntity
  8
0
 62
7
100
AcDbSpline
 70
8
 71
3
 72
8
 73
4
 74
0
 40
0
 40
0
 40
0
 40
0
 40
1
 40
1
 40
1
 40
1
 10
185.383769
 20
459.461771
 30
0.0
 10
184.998658
 20
459.076659
 30
0.0
 10
184.476333
 20
458.860304
 30
0.0
 10
183.931701
 20
458.860304
 30
0.0
  0
SPLINE
  5
16b
100
AcDbEntity
  8
0
 62
7
100
AcDbSpline
 70
8
 71
3
 72
8
 73
4
 74
0
 40
0
 40
0
 40
0
 40
0
 40
1
 40
1
 40
1
 40
1
 10
56.860349
 20
7.383581
 30
0.0
 10
56.860349
 20
6.838936
 30
0.0
 10
56.643996
 20
6.316622
 30
0.0
 10
56.258882
 20
5.931521
 30
0.0
  0
SPLINE
  5
16c
100
AcDbEntity
  8
0
 62
7
100
AcDbSpline
 70
8
 71
3
 72
8
 73
4
 74
0
 40
0
 40
0
 40
0
 40
0
 40
1
 40
1
 40
1
 40
1
 10
137.307816
 20
9.437118
 30
0.0
 10
137.852448
 20
9.437118
 30
0.0
 10
138.374769
 20
9.220768
 30
0.0
 10
138.759881
 20
8.835640
 30
0.0
  0
SPLINE
  5
16d
100
AcDbEntity
  8
0
 62
7
100
AcDbSpline
 70
8
 71
3
 72
8
 73
4
 74
0
 40
0
 40
0
 40
0
 40
0
 40
1
 40
1
 40
1
 40
1
 10
51.370678
 20
290.677567
 30
0.0
 10
51.370678
 20
290.131492
 30
0.0
 10
51.153752
 20
289.607783
 30
0.0
 10
50.767619
 20
289.221650
 30
0.0
  0
SPLINE
  5
16e
100
AcDbEntity
  8
0
 62
7
100
AcDbSpline
 70
8
 71
3
 72
8
 73
4
 74
0
 40
0
 40
0
 40
0
 40
0
 40
1
 40
1
 40
1
 40
1
 10
47.252724
 20
290.677567
 30
0.0
 10
47.252724
 20
291.814708
 30
0.0
 10
48.174562
 20
292.736542
 30
0.0
 10
49.311701
 20
292.736542
 30
0.0
  0
SPLINE
  5
16f
100
AcDbEntity
  8
0
 62
7
100
AcDbSpline
 70
8
 71
3
 72
8
 73
4
 74
0
 40
0
 40
0
 40
0
 40
0
 40
1
 40
1
 40
1
 40
1
 10
185.383772
 20
438.241770
 30
0.0
 10
184.998658
 20
437.856658
 30
0.0
 10
184.476336
 20
437.640303
 30
0.0
 10
183.931701
 20
437.640306
 30
0.0
  0
SPLINE
  5
170
100
AcDbEntity
  8
0
 62
7
100
AcDbSpline
 70
8
 71
3
 72
8
 73
4
 74
0
 40
0
 40
0
 40
0
 40
0
 40
1
 40
1
 40
1
 40
1
 10
185.985236
 20
439.693837
 30
0.0
 10
185.985238
 20
439.149206
 30
0.0
 10
185.768883
 20
438.626884
 30
0.0
 10
185.383772
 20
438.241770
 30
0.0
  0
SPLINE
  5
171
100
AcDbEntity
  8
0
 62
7
100
AcDbSpline
 70
8
 71
3
 72
8
 73
4
 74
0
 40
0
 40
0
 40
0
 40
0
 40
1
 40
1
 40
1
 40
1
 10
158.688163
 20
123.344831
 30
0.0
 10
158.688163
 20
123.889462
 30
0.0
 10
158.904518
 20
124.411787
 30
0.0
 10
159.289629
 20
124.796898
 30
0.0
  0
SPLINE
  5
172
100
AcDbEntity
  8
0
 62
7
100
AcDbSpline
 70
8
 71
3
 72
8
 73
4
 74
0
 40
0
 40
0
 40
0
 40
0
 40
1
 40
1
 40
1
 40
1
 10
183.931701
 20
462.967368
 30
0.0
 10
184.476333
 20
462.967368
 30
0.0
 10
184.998658
 20
462.751013
 30
0.0
 10
185.383769
 20
462.365904
 30
0.0
  0
SPLINE
  5
173
100
AcDbEntity
  8
0
 62
7
100
AcDbSpline
 70
8
 71
3
 72
8
 73
4
 74
0
 40
0
 40
0
 40
0
 40
0
 40
1
 40
1
 40
1
 40
1
 10
114.635749
 20
5.931521
 30
0.0
 10
114.250635
 20
6.316622
 30
0.0
 10
114.034283
 20
6.838936
 30
0.0
 10
114.034283
 20
7.383581
 30
0.0
  0
SPLINE
  5
174
100
AcDbEntity
  8
0
 62
7
100
AcDbSpline
 70
8
 71
3
 72
8
 73
4
 74
0
 40
0
 40
0
 40
0
 40
0
 40
1
 40
1
 40
1
 40
1
 10
114.635749
 20
8.835640
 30
0.0
 10
115.020861
 20
9.220768
 30
0.0
 10
115.543183
 20
9.437118
 30
0.0
 10
116.087815
 20
9.437118
 30
0.0
  0
SPLINE
  5
175
100
AcDbEntity
  8
0
 62
7
100
AcDbSpline
 70
8
 71
3
 72
8
 73
4
 74
0
 40
0
 40
0
 40
0
 40
0
 40
1
 40
1
 40
1
 40
1
 10
185.383769
 20
462.365904
 30
0.0
 10
185.768883
 20
461.980792
 30
0.0
 10
185.985236
 20
461.458468
 30
0.0
 10
185.985236
 20
460.913836
 30
0.0
  0
SPLINE
  5
176
100
AcDbEntity
  8
0
 62
7
100
AcDbSpline
 70
8
 71
3
 72
8
 73
4
 74
0
 40
0
 40
0
 40
0
 40
0
 40
1
 40
1
 40
1
 40
1
 10
162.795229
 20
51.844847
 30
0.0
 10
162.795229
 20
51.300215
 30
0.0
 10
162.578874
 20
50.777893
 30
0.0
 10
162.193762
 20
50.392781
 30
0.0
  0
SPLINE
  5
177
100
AcDbEntity
  8
0
 62
7
100
AcDbSpline
 70
8
 71
3
 72
8
 73
4
 74
0
 40
0
 40
0
 40
0
 40
0
 40
1
 40
1
 40
1
 40
1
 10
160.741697
 20
49.791312
 30
0.0
 10
160.197066
 20
49.791312
 30
0.0
 10
159.674741
 20
50.007667
 30
0.0
 10
159.289629
 20
50.392779
 30
0.0
  0
SPLINE
  5
178
100
AcDbEntity
  8
0
 62
7
100
AcDbSpline
 70
8
 71
3
 72
8
 73
4
 74
0
 40
0
 40
0
 40
0
 40
0
 40
1
 40
1
 40
1
 40
1
 10
162.193762
 20
50.392781
 30
0.0
 10
161.808653
 20
50.007667
 30
0.0
 10
161.286329
 20
49.791315
 30
0.0
 10
160.741697
 20
49.791312
 30
0.0
  0
SPLINE
  5
179
100
AcDbEntity
  8
0
 62
7
100
AcDbSpline
 70
8
 71
3
 72
8
 73
4
 74
0
 40
0
 40
0
 40
0
 40
0
 40
1
 40
1
 40
1
 40
1
 10
49.311701
 20
292.736542
 30
0.0
 10
50.448841
 20
292.736542
 30
0.0
 10
51.370678
 20
291.814708
 30
0.0
 10
51.370678
 20
290.677567
 30
0.0
  0
SPLINE
  5
17a
100
AcDbEntity
  8
0
 62
7
100
AcDbSpline
 70
8
 71
3
 72
8
 73
4
 74
0
 40
0
 40
0
 40
0
 40
0
 40
1
 40
1
 40
1
 40
1
 10
114.034283
 20
7.383581
 30
0.0
 10
114.034283
 20
7.928199
 30
0.0
 10
114.250635
 20
8.450539
 30
0.0
 10
114.635749
 20
8.835640
 30
0.0
  0
SPLINE
  5
17b
100
AcDbEntity
  8
0
 62
7
100
AcDbSpline
 70
8
 71
3
 72
8
 73
4
 74
0
 40
0
 40
0
 40
0
 40
0
 40
1
 40
1
 40
1
 40
1
 10
135.254284
 20
7.383581
 30
0.0
 10
135.254284
 20
7.928199
 30
0.0
 10
135.470637
 20
8.450539
 30
0.0
 10
135.855748
 20
8.835640
 30
0.0
  0
SPLINE
  5
17c
100
AcDbEntity
  8
0
 62
7
100
AcDbSpline
 70
8
 71
3
 72
8
 73
4
 74
0
 40
0
 40
0
 40
0
 40
0
 40
1
 40
1
 40
1
 40
1
 10
117.539882
 20
8.835640
 30
0.0
 10
117.924994
 20
8.450539
 30
0.0
 10
118.141349
 20
7.928199
 30
0.0
 10
118.141349
 20
7.383581
 30
0.0
  0
SPLINE
  5
17d
100
AcDbEntity
  8
0
 62
7
100
AcDbSpline
 70
8
 71
3
 72
8
 73
4
 74
0
 40
0
 40
0
 40
0
 40
0
 40
1
 40
1
 40
1
 40
1
 10
137.307816
 20
5.330043
 30
0.0
 10
136.763184
 20
5.330043
 30
0.0
 10
136.240860
 20
5.546393
 30
0.0
 10
135.855748
 20
5.931521
 30
0.0
  0
SPLINE
  5
17e
100
AcDbEntity
  8
0
 62
7
100
AcDbSpline
 70
8
 71
3
 72
8
 73
4
 74
0
 40
0
 40
0
 40
0
 40
0
 40
1
 40
1
 40
1
 40
1
 10
47.855784
 20
289.221650
 30
0.0
 10
47.469651
 20
289.607783
 30
0.0
 10
47.252724
 20
290.131492
 30
0.0
 10
47.252724
 20
290.677567
 30
0.0
  0
SPLINE
  5
17f
100
AcDbEntity
  8
0
 62
7
100
AcDbSpline
 70
8
 71
3
 72
8
 73
4
 74
0
 40
0
 40
0
 40
0
 40
0
 40
1
 40
1
 40
1
 40
1
 10
50.767619
 20
289.221650
 30
0.0
 10
50.381486
 20
288.835517
 30
0.0
 10
49.857775
 20
288.618589
 30
0.0
 10
49.311701
 20
288.618589
 30
0.0
  0
SPLINE
  5
180
100
AcDbEntity
  8
0
 62
7
100
AcDbSpline
 70
8
 71
3
 72
8
 73
4
 74
0
 40
0
 40
0
 40
0
 40
0
 40
1
 40
1
 40
1
 40
1
 10
182.479636
 20
459.461771
 30
0.0
 10
182.094522
 20
459.846883
 30
0.0
 10
181.878170
 20
460.369207
 30
0.0
 10
181.878170
 20
460.913836
 30
0.0
  0
SPLINE
  5
181
100
AcDbEntity
  8
0
 62
7
100
AcDbSpline
 70
8
 71
3
 72
8
 73
4
 74
0
 40
0
 40
0
 40
0
 40
0
 40
1
 40
1
 40
1
 40
1
 10
181.878170
 20
460.913836
 30
0.0
 10
181.878170
 20
461.458468
 30
0.0
 10
182.094522
 20
461.980792
 30
0.0
 10
182.479636
 20
462.365904
 30
0.0
  0
SPLINE
  5
182
100
AcDbEntity
  8
0
 62
7
100
AcDbSpline
 70
8
 71
3
 72
8
 73
4
 74
0
 40
0
 40
0
 40
0
 40
0
 40
1
 40
1
 40
1
 40
1
 10
181.878170
 20
439.693837
 30
0.0
 10
181.878170
 20
440.238469
 30
0.0
 10
182.094522
 20
440.760794
 30
0.0
 10
182.479636
 20
441.145905
 30
0.0
  0
SPLINE
  5
183
100
AcDbEntity
  8
0
 62
7
100
AcDbSpline
 70
8
 71
3
 72
8
 73
4
 74
0
 40
0
 40
0
 40
0
 40
0
 40
1
 40
1
 40
1
 40
1
 10
183.931701
 20
441.747369
 30
0.0
 10
184.476333
 20
441.747369
 30
0.0
 10
184.998658
 20
441.531017
 30
0.0
 10
185.383769
 20
441.145905
 30
0.0
  0
LWPOLYLINE
  5
184
100
AcDbEntity
  8
0
 62
7
100
AcDbPolyline
 90
3
 70
0
 10
24.849948
 20
484.134918
 30
0.0
 10
191.168611
 20
484.133331
 30
0.0
 10
191.168611
 20
0.133256
 30
0.0
  0
SPLINE
  5
185
100
AcDbEntity
  8
0
 62
7
100
AcDbSpline
 70
8
 71
3
 72
8
 73
4
 74
0
 40
0
 40
0
 40
0
 40
0
 40
1
 40
1
 40
1
 40
1
 10
135.855748
 20
5.931521
 30
0.0
 10
135.470637
 20
6.316622
 30
0.0
 10
135.254284
 20
6.838936
 30
0.0
 10
135.254284
 20
7.383581
 30
0.0
  0
SPLINE
  5
186
100
AcDbEntity
  8
0
 62
7
100
AcDbSpline
 70
8
 71
3
 72
8
 73
4
 74
0
 40
0
 40
0
 40
0
 40
0
 40
1
 40
1
 40
1
 40
1
 10
117.539882
 20
5.931494
 30
0.0
 10
117.154771
 20
5.546393
 30
0.0
 10
116.632446
 20
5.330043
 30
0.0
 10
116.087815
 20
5.330043
 30
0.0
  0
SPLINE
  5
187
100
AcDbEntity
  8
0
 62
7
100
AcDbSpline
 70
8
 71
3
 72
8
 73
4
 74
0
 40
0
 40
0
 40
0
 40
0
 40
1
 40
1
 40
1
 40
1
 10
182.479636
 20
441.145905
 30
0.0
 10
182.864748
 20
441.531017
 30
0.0
 10
183.387072
 20
441.747369
 30
0.0
 10
183.931701
 20
441.747369
 30
0.0
  0
SPLINE
  5
188
100
AcDbEntity
  8
0
 62
7
100
AcDbSpline
 70
8
 71
3
 72
8
 73
4
 74
0
 40
0
 40
0
 40
0
 40
0
 40
1
 40
1
 40
1
 40
1
 10
183.931701
 20
458.860304
 30
0.0
 10
183.387072
 20
458.860304
 30
0.0
 10
182.864748
 20
459.076659
 30
0.0
 10
182.479636
 20
459.461771
 30
0.0
  0
SPLINE
  5
189
100
AcDbEntity
  8
0
 62
7
100
AcDbSpline
 70
8
 71
3
 72
8
 73
4
 74
0
 40
0
 40
0
 40
0
 40
0
 40
1
 40
1
 40
1
 40
1
 10
185.986366
 20
360.994837
 30
0.0
 10
185.986366
 20
360.450206
 30
0.0
 10
185.770011
 20
359.927881
 30
0.0
 10
185.384899
 20
359.542770
 30
0.0
  0
SPLINE
  5
18a
100
AcDbEntity
  8
0
 62
7
100
AcDbSpline
 70
8
 71
3
 72
8
 73
4
 74
0
 40
0
 40
0
 40
0
 40
0
 40
1
 40
1
 40
1
 40
1
 10
185.384899
 20
362.446902
 30
0.0
 10
185.770011
 20
362.061791
 30
0.0
 10
185.986366
 20
361.539466
 30
0.0
 10
185.986366
 20
360.994837
 30
0.0
  0
SPLINE
  5
18b
100
AcDbEntity
  8
0
 62
7
100
AcDbSpline
 70
8
 71
3
 72
8
 73
4
 74
0
 40
0
 40
0
 40
0
 40
0
 40
1
 40
1
 40
1
 40
1
 10
183.932831
 20
363.048366
 30
0.0
 10
184.477463
 20
363.048369
 30
0.0
 10
184.999787
 20
362.832014
 30
0.0
 10
185.384899
 20
362.446902
 30
0.0
  0
SPLINE
  5
18c
100
AcDbEntity
  8
0
 62
7
100
AcDbSpline
 70
8
 71
3
 72
8
 73
4
 74
0
 40
0
 40
0
 40
0
 40
0
 40
1
 40
1
 40
1
 40
1
 10
160.741697
 20
121.291296
 30
0.0
 10
160.197066
 20
121.291296
 30
0.0
 10
159.674741
 20
121.507651
 30
0.0
 10
159.289629
 20
121.892763
 30
0.0
  0
SPLINE
  5
18d
100
AcDbEntity
  8
0
 62
7
100
AcDbSpline
 70
8
 71
3
 72
8
 73
4
 74
0
 40
0
 40
0
 40
0
 40
0
 40
1
 40
1
 40
1
 40
1
 10
162.193762
 20
124.796898
 30
0.0
 10
162.578874
 20
124.411787
 30
0.0
 10
162.795229
 20
123.889462
 30
0.0
 10
162.795229
 20
123.344831
 30
0.0
  0
SPLINE
  5
18e
100
AcDbEntity
  8
0
 62
7
100
AcDbSpline
 70
8
 71
3
 72
8
 73
4
 74
0
 40
0
 40
0
 40
0
 40
0
 40
1
 40
1
 40
1
 40
1
 10
148.686693
 20
289.225655
 30
0.0
 10
148.300560
 20
289.611788
 30
0.0
 10
148.083634
 20
290.135497
 30
0.0
 10
148.083634
 20
290.681572
 30
0.0
  0
SPLINE
  5
18f
100
AcDbEntity
  8
0
 62
7
100
AcDbSpline
 70
8
 71
3
 72
8
 73
4
 74
0
 40
0
 40
0
 40
0
 40
0
 40
1
 40
1
 40
1
 40
1
 10
160.741697
 20
125.398365
 30
0.0
 10
161.286329
 20
125.398365
 30
0.0
 10
161.808653
 20
125.182010
 30
0.0
 10
162.193762
 20
124.796898
 30
0.0
  0
SPLINE
  5
190
100
AcDbEntity
  8
0
 62
7
100
AcDbSpline
 70
8
 71
3
 72
8
 73
4
 74
0
 40
0
 40
0
 40
0
 40
0
 40
1
 40
1
 40
1
 40
1
 10
158.688163
 20
51.844847
 30
0.0
 10
158.688163
 20
52.389478
 30
0.0
 10
158.904518
 20
52.911803
 30
0.0
 10
159.289629
 20
53.296914
 30
0.0
  0
SPLINE
  5
191
100
AcDbEntity
  8
0
 62
7
100
AcDbSpline
 70
8
 71
3
 72
8
 73
4
 74
0
 40
0
 40
0
 40
0
 40
0
 40
1
 40
1
 40
1
 40
1
 10
162.193762
 20
121.892763
 30
0.0
 10
161.808653
 20
121.507651
 30
0.0
 10
161.286329
 20
121.291299
 30
0.0
 10
160.741697
 20
121.291296
 30
0.0
  0
SPLINE
  5
192
100
AcDbEntity
  8
0
 62
7
100
AcDbSpline
 70
8
 71
3
 72
8
 73
4
 74
0
 40
0
 40
0
 40
0
 40
0
 40
1
 40
1
 40
1
 40
1
 10
162.795229
 20
123.344831
 30
0.0
 10
162.795229
 20
122.800199
 30
0.0
 10
162.578874
 20
122.277877
 30
0.0
 10
162.193762
 20
121.892763
 30
0.0
  0
SPLINE
  5
193
100
AcDbEntity
  8
0
 62
7
100
AcDbSpline
 70
8
 71
3
 72
8
 73
4
 74
0
 40
0
 40
0
 40
0
 40
0
 40
1
 40
1
 40
1
 40
1
 10
159.289629
 20
53.296914
 30
0.0
 10
159.674741
 20
53.682029
 30
0.0
 10
160.197066
 20
53.898381
 30
0.0
 10
160.741697
 20
53.898381
 30
0.0
  0
SPLINE
  5
194
100
AcDbEntity
  8
0
 62
7
100
AcDbSpline
 70
8
 71
3
 72
8
 73
4
 74
0
 40
0
 40
0
 40
0
 40
0
 40
1
 40
1
 40
1
 40
1
 10
150.142611
 20
288.622594
 30
0.0
 10
149.596537
 20
288.622594
 30
0.0
 10
149.072826
 20
288.839521
 30
0.0
 10
148.686693
 20
289.225655
 30
0.0
  0
SPLINE
  5
195
100
AcDbEntity
  8
0
 62
7
100
AcDbSpline
 70
8
 71
3
 72
8
 73
4
 74
0
 40
0
 40
0
 40
0
 40
0
 40
1
 40
1
 40
1
 40
1
 10
148.083634
 20
290.681572
 30
0.0
 10
148.083634
 20
291.227647
 30
0.0
 10
148.300560
 20
291.751356
 30
0.0
 10
148.686693
 20
292.137489
 30
0.0
  0
SPLINE
  5
196
100
AcDbEntity
  8
0
 62
7
100
AcDbSpline
 70
8
 71
3
 72
8
 73
4
 74
0
 40
0
 40
0
 40
0
 40
0
 40
1
 40
1
 40
1
 40
1
 10
151.598528
 20
292.137489
 30
0.0
 10
151.984661
 20
291.751356
 30
0.0
 10
152.201590
 20
291.227647
 30
0.0
 10
152.201590
 20
290.681572
 30
0.0
  0
SPLINE
  5
197
100
AcDbEntity
  8
0
 62
7
100
AcDbSpline
 70
8
 71
3
 72
8
 73
4
 74
0
 40
0
 40
0
 40
0
 40
0
 40
1
 40
1
 40
1
 40
1
 10
151.598528
 20
289.225655
 30
0.0
 10
151.212395
 20
288.839521
 30
0.0
 10
150.688687
 20
288.622594
 30
0.0
 10
150.142611
 20
288.622594
 30
0.0
  0
SPLINE
  5
198
100
AcDbEntity
  8
0
 62
7
100
AcDbSpline
 70
8
 71
3
 72
8
 73
4
 74
0
 40
0
 40
0
 40
0
 40
0
 40
1
 40
1
 40
1
 40
1
 10
159.289629
 20
50.392779
 30
0.0
 10
158.904518
 20
50.777890
 30
0.0
 10
158.688163
 20
51.300215
 30
0.0
 10
158.688163
 20
51.844847
 30
0.0
  0
SPLINE
  5
199
100
AcDbEntity
  8
0
 62
7
100
AcDbSpline
 70
8
 71
3
 72
8
 73
4
 74
0
 40
0
 40
0
 40
0
 40
0
 40
1
 40
1
 40
1
 40
1
 10
148.686693
 20
292.137489
 30
0.0
 10
149.072826
 20
292.523622
 30
0.0
 10
149.596537
 20
292.740549
 30
0.0
 10
150.142611
 20
292.740549
 30
0.0
  0
SPLINE
  5
19a
100
AcDbEntity
  8
0
 62
7
100
AcDbSpline
 70
8
 71
3
 72
8
 73
4
 74
0
 40
0
 40
0
 40
0
 40
0
 40
1
 40
1
 40
1
 40
1
 10
0.132702
 20
459.134947
 30
0.0
 10
0.054627
 20
472.863988
 30
0.0
 10
11.120926
 20
484.056842
 30
0.0
 10
24.849948
 20
484.134918
 30
0.0
  0
SPLINE
  5
19b
100
AcDbEntity
  8
0
 62
7
100
AcDbSpline
 70
8
 71
3
 72
8
 73
4
 74
0
 40
0
 40
0
 40
0
 40
0
 40
1
 40
1
 40
1
 40
1
 10
152.201590
 20
290.681572
 30
0.0
 10
152.201590
 20
290.135497
 30
0.0
 10
151.984661
 20
289.611788
 30
0.0
 10
151.598528
 20
289.225655
 30
0.0
  0
SPLINE
  5
19c
100
AcDbEntity
  8
0
 62
7
100
AcDbSpline
 70
8
 71
3
 72
8
 73
4
 74
0
 40
0
 40
0
 40
0
 40
0
 40
1
 40
1
 40
1
 40
1
 10
150.142611
 20
292.740549
 30
0.0
 10
150.688687
 20
292.740549
 30
0.0
 10
151.212395
 20
292.523622
 30
0.0
 10
151.598528
 20
292.137489
 30
0.0
  0
SPLINE
  5
19d
100
AcDbEntity
  8
0
 62
7
100
AcDbSpline
 70
8
 71
3
 72
8
 73
4
 74
0
 40
0
 40
0
 40
0
 40
0
 40
1
 40
1
 40
1
 40
1
 10
53.511586
 20
476.526444
 30
0.0
 10
53.511586
 20
477.663554
 30
0.0
 10
54.433400
 20
478.585365
 30
0.0
 10
55.570510
 20
478.585368
 30
0.0
  0
SPLINE
  5
19e
100
AcDbEntity
  8
0
 62
7
100
AcDbSpline
 70
8
 71
3
 72
8
 73
4
 74
0
 40
0
 40
0
 40
0
 40
0
 40
1
 40
1
 40
1
 40
1
 10
30.950504
 20
478.585368
 30
0.0
 10
32.087617
 20
478.585365
 30
0.0
 10
33.009428
 20
477.663554
 30
0.0
 10
33.009428
 20
476.526444
 30
0.0
  0
SPLINE
  5
19f
100
AcDbEntity
  8
0
 62
7
100
AcDbSpline
 70
8
 71
3
 72
8
 73
4
 74
0
 40
0
 40
0
 40
0
 40
0
 40
1
 40
1
 40
1
 40
1
 10
28.891580
 20
476.526444
 30
0.0
 10
28.891580
 20
477.663554
 30
0.0
 10
29.813391
 20
478.585365
 30
0.0
 10
30.950504
 20
478.585368
 30
0.0
  0
SPLINE
  5
1a0
100
AcDbEntity
  8
0
 62
7
100
AcDbSpline
 70
8
 71
3
 72
8
 73
4
 74
0
 40
0
 40
0
 40
0
 40
0
 40
1
 40
1
 40
1
 40
1
 10
30.950504
 20
474.467520
 30
0.0
 10
29.813391
 20
474.467520
 30
0.0
 10
28.891580
 20
475.389331
 30
0.0
 10
28.891580
 20
476.526444
 30
0.0
  0
SPLINE
  5
1a1
100
AcDbEntity
  8
0
 62
7
100
AcDbSpline
 70
8
 71
3
 72
8
 73
4
 74
0
 40
0
 40
0
 40
0
 40
0
 40
1
 40
1
 40
1
 40
1
 10
57.629434
 20
476.526444
 30
0.0
 10
57.629434
 20
475.389331
 30
0.0
 10
56.707623
 20
474.467520
 30
0.0
 10
55.570510
 20
474.467520
 30
0.0
  0
SPLINE
  5
1a2
100
AcDbEntity
  8
0
 62
7
100
AcDbSpline
 70
8
 71
3
 72
8
 73
4
 74
0
 40
0
 40
0
 40
0
 40
0
 40
1
 40
1
 40
1
 40
1
 10
33.009428
 20
476.526444
 30
0.0
 10
33.009428
 20
475.389331
 30
0.0
 10
32.087617
 20
474.467520
 30
0.0
 10
30.950504
 20
474.467520
 30
0.0
  0
SPLINE
  5
1a3
100
AcDbEntity
  8
0
 62
7
100
AcDbSpline
 70
8
 71
3
 72
8
 73
4
 74
0
 40
0
 40
0
 40
0
 40
0
 40
1
 40
1
 40
1
 40
1
 10
55.570510
 20
474.467520
 30
0.0
 10
54.433400
 20
474.467520
 30
0.0
 10
53.511586
 20
475.389331
 30
0.0
 10
53.511586
 20
476.526444
 30
0.0
  0
SPLINE
  5
1a4
100
AcDbEntity
  8
0
 62
7
100
AcDbSpline
 70
8
 71
3
 72
8
 73
4
 74
0
 40
0
 40
0
 40
0
 40
0
 40
1
 40
1
 40
1
 40
1
 10
55.570510
 20
478.585368
 30
0.0
 10
56.707623
 20
478.585365
 30
0.0
 10
57.629434
 20
477.663554
 30
0.0
 10
57.629434
 20
476.526444
 30
0.0
  0
LWPOLYLINE
  5
1a5
100
AcDbEntity
  8
0
 62
7
100
AcDbPolyline
 90
2
 70
0
 10
0.132702
 20
0.134923
 30
0.0
 10
191.168611
 20
0.132277
 30
0.0
  0
ENDSEC
  0
SECTION
  2
OBJECTS
  0
DICTIONARY
  5
C
330
0
100
AcDbDictionary
  3
ACAD_GROUP
350
D
  3
ACAD_MLINESTYLE
350
17
  0
DICTIONARY
  5
D
330
C
100
AcDbDictionary
  0
DICTIONARY
  5
1A
330
C
100
AcDbDictionary
  0
DICTIONARY
  5
17
330
C
100
AcDbDictionary
  3
STANDARD
350
18
  0
DICTIONARY
  5
19
330
C
100
AcDbDictionary
  0
ENDSEC
  0
EOF
