  0
SECTION
  2
HEADER
  9
$ACADVER
  1
AC1014
  9
$HANDSEED
  5
FFFF
  9
$MEASUREMENT
 70
     1
  0
ENDSEC
  0
SECTION
  2
TABLES
  0
TABLE
  2
VPORT
  5
8
330
0
100
AcDbSymbolTable
 70
     4
  0
VPORT
  5
2E
330
8
100
AcDbSymbolTableRecord
100
AcDbViewportTableRecord
  2
*ACTIVE
 70
     0
 10
0.0
 20
0.0
 11
1.0
 21
1.0
 12
210.0
 22
148.5
 13
0.0
 23
0.0
 14
10.0
 24
10.0
 15
10.0
 25
10.0
 16
0.0
 26
0.0
 36
1.0
 17
0.0
 27
0.0
 37
0.0
 40
341.0
 41
1.24
 42
50.0
 43
0.0
 44
0.0
 50
0.0
 51
0.0
 71
     0
 72
   100
 73
     1
 74
     3
 75
     0
 76
     0
 77
     0
 78
     0
  0
ENDTAB
  0
TABLE
  2
LTYPE
  5
5
330
0
100
AcDbSymbolTable
 70
     1
  0
LTYPE
  5
14
330
5
100
AcDbSymbolTableRecord
100
AcDbLinetypeTableRecord
  2
BYBLOCK
 70
     0
  3

 72
    65
 73
     0
 40
0.0
  0
LTYPE
  5
15
330
5
100
AcDbSymbolTableRecord
100
AcDbLinetypeTableRecord
  2
BYLAYER
 70
     0
  3

 72
    65
 73
     0
 40
0.0
  0
LTYPE
  5
16
330
5
100
AcDbSymbolTableRecord
100
AcDbLinetypeTableRecord
  2
CONTINUOUS
 70
     0
  3
Solid line
 72
    65
 73
     0
 40
0.0
  0
ENDTAB
  0
TABLE
  2
LAYER
  5
2
100
AcDbSymbolTable
 70
1
  0
LAYER
  5
50
100
AcDbSymbolTableRecord
100
AcDbLayerTableRecord
  2
0
 70
0
  6
CONTINUOUS
  0
ENDTAB
  0
TABLE
  2
STYLE
  5
3
330
0
100
AcDbSymbolTable
 70
     1
  0
STYLE
  5
11
330
3
100
AcDbSymbolTableRecord
100
AcDbTextStyleTableRecord
  2
STANDARD
 70
     0
 40
0.0
 41
1.0
 50
0.0
 71
     0
 42
2.5
  3
txt
  4

  0
ENDTAB
  0
TABLE
  2
VIEW
  5
6
330
0
100
AcDbSymbolTable
 70
     0
  0
ENDTAB
  0
TABLE
  2
UCS
  5
7
330
0
100
AcDbSymbolTable
 70
     0
  0
ENDTAB
  0
TABLE
  2
APPID
  5
9
330
0
100
AcDbSymbolTable
 70
     2
  0
APPID
  5
12
330
9
100
AcDbSymbolTableRecord
100
AcDbRegAppTableRecord
  2
ACAD
 70
     0
  0
ENDTAB
  0
TABLE
  2
DIMSTYLE
  5
A
330
0
100
AcDbSymbolTable
 70
     1
  0
DIMSTYLE
105
27
330
A
100
AcDbSymbolTableRecord
100
AcDbDimStyleTableRecord
  2
ISO-25
 70
     0
  3

  4

  5

  6

  7

 40
1.0
 41
2.5
 42
0.625
 43
3.75
 44
1.25
 45
0.0
 46
0.0
 47
0.0
 48
0.0
140
2.5
141
2.5
142
0.0
143
0.03937007874016
144
1.0
145
0.0
146
1.0
147
0.625
 71
     0
 72
     0
 73
     0
 74
     0
 75
     0
 76
     0
 77
     1
 78
     8
170
     0
171
     3
172
     1
173
     0
174
     0
175
     0
176
     0
177
     0
178
     0
270
     2
271
     2
272
     2
273
     2
274
     3
340
11
275
     0
280
     0
281
     0
282
     0
283
     0
284
     8
285
     0
286
     0
287
     3
288
     0
  0
ENDTAB
  0
TABLE
  2
BLOCK_RECORD
  5
1
330
0
100
AcDbSymbolTable
 70
     1
  0
BLOCK_RECORD
  5
1F
330
1
100
AcDbSymbolTableRecord
100
AcDbBlockTableRecord
  2
*MODEL_SPACE
  0
BLOCK_RECORD
  5
1B
330
1
100
AcDbSymbolTableRecord
100
AcDbBlockTableRecord
  2
*PAPER_SPACE
  0
ENDTAB
  0
ENDSEC
  0
SECTION
  2
BLOCKS
  0
BLOCK
  5
20
330
1F
100
AcDbEntity
  8
0
100
AcDbBlockBegin
  2
*MODEL_SPACE
 70
     0
 10
0.0
 20
0.0
 30
0.0
  3
*MODEL_SPACE
  1

  0
ENDBLK
  5
21
330
1F
100
AcDbEntity
  8
0
100
AcDbBlockEnd
  0
BLOCK
  5
1C
330
1B
100
AcDbEntity
 67
     1
  8
0
100
AcDbBlockBegin
  2
*PAPER_SPACE
  1

  0
ENDBLK
  5
1D
330
1B
100
AcDbEntity
 67
     1
  8
0
100
AcDbBlockEnd
  0
ENDSEC
  0
SECTION
  2
ENTITIES
  0
SPLINE
  5
100
100
AcDbEntity
  8
0
 62
7
100
AcDbSpline
 70
8
 71
3
 72
8
 73
4
 74
0
 40
0
 40
0
 40
0
 40
0
 40
1
 40
1
 40
1
 40
1
 10
10.755395
 20
7.458450
 30
0.0
 10
10.755395
 20
6.312089
 30
0.0
 10
9.842551
 20
5.399224
 30
0.0
 10
8.696211
 20
5.399224
 30
0.0
  0
SPLINE
  5
101
100
AcDbEntity
  8
0
 62
7
100
AcDbSpline
 70
8
 71
3
 72
8
 73
4
 74
0
 40
0
 40
0
 40
0
 40
0
 40
1
 40
1
 40
1
 40
1
 10
8.696211
 20
5.399224
 30
0.0
 10
7.549864
 20
5.399224
 30
0.0
 10
6.637027
 20
6.312089
 30
0.0
 10
6.637027
 20
7.458450
 30
0.0
  0
SPLINE
  5
102
100
AcDbEntity
  8
0
 62
7
100
AcDbSpline
 70
8
 71
3
 72
8
 73
4
 74
0
 40
0
 40
0
 40
0
 40
0
 40
1
 40
1
 40
1
 40
1
 10
446.687042
 20
7.258451
 30
0.0
 10
446.687042
 20
8.404838
 30
0.0
 10
447.599855
 20
9.317597
 30
0.0
 10
448.746215
 20
9.317597
 30
0.0
  0
SPLINE
  5
103
100
AcDbEntity
  8
0
 62
7
100
AcDbSpline
 70
8
 71
3
 72
8
 73
4
 74
0
 40
0
 40
0
 40
0
 40
0
 40
1
 40
1
 40
1
 40
1
 10
29.916204
 20
5.399224
 30
0.0
 10
28.769865
 20
5.399224
 30
0.0
 10
27.857031
 20
6.312089
 30
0.0
 10
27.857031
 20
7.458450
 30
0.0
  0
SPLINE
  5
104
100
AcDbEntity
  8
0
 62
7
100
AcDbSpline
 70
8
 71
3
 72
8
 73
4
 74
0
 40
0
 40
0
 40
0
 40
0
 40
1
 40
1
 40
1
 40
1
 10
527.955401
 20
7.458450
 30
0.0
 10
527.955401
 20
6.312089
 30
0.0
 10
527.042562
 20
5.399224
 30
0.0
 10
525.896228
 20
5.399224
 30
0.0
  0
SPLINE
  5
105
100
AcDbEntity
  8
0
 62
7
100
AcDbSpline
 70
8
 71
3
 72
8
 73
4
 74
0
 40
0
 40
0
 40
0
 40
0
 40
1
 40
1
 40
1
 40
1
 10
525.896228
 20
5.399224
 30
0.0
 10
524.749868
 20
5.399224
 30
0.0
 10
523.837029
 20
6.312089
 30
0.0
 10
523.837029
 20
7.458450
 30
0.0
  0
SPLINE
  5
106
100
AcDbEntity
  8
0
 62
7
100
AcDbSpline
 70
8
 71
3
 72
8
 73
4
 74
0
 40
0
 40
0
 40
0
 40
0
 40
1
 40
1
 40
1
 40
1
 10
506.735394
 20
7.458450
 30
0.0
 10
506.735394
 20
6.312089
 30
0.0
 10
505.822555
 20
5.399224
 30
0.0
 10
504.676221
 20
5.399224
 30
0.0
  0
SPLINE
  5
107
100
AcDbEntity
  8
0
 62
7
100
AcDbSpline
 70
8
 71
3
 72
8
 73
4
 74
0
 40
0
 40
0
 40
0
 40
0
 40
1
 40
1
 40
1
 40
1
 10
5.318030
 20
110.192464
 30
0.0
 10
5.318030
 20
111.338848
 30
0.0
 10
6.230862
 20
112.251611
 30
0.0
 10
7.377214
 20
112.251611
 30
0.0
  0
SPLINE
  5
108
100
AcDbEntity
  8
0
 62
7
100
AcDbSpline
 70
8
 71
3
 72
8
 73
4
 74
0
 40
0
 40
0
 40
0
 40
0
 40
1
 40
1
 40
1
 40
1
 10
504.676221
 20
5.399224
 30
0.0
 10
503.529861
 20
5.399224
 30
0.0
 10
502.617049
 20
6.312089
 30
0.0
 10
502.617049
 20
7.458450
 30
0.0
  0
SPLINE
  5
109
100
AcDbEntity
  8
0
 62
7
100
AcDbSpline
 70
8
 71
3
 72
8
 73
4
 74
0
 40
0
 40
0
 40
0
 40
0
 40
1
 40
1
 40
1
 40
1
 10
7.377214
 20
112.251611
 30
0.0
 10
8.523555
 20
112.251611
 30
0.0
 10
9.436393
 20
111.338848
 30
0.0
 10
9.436393
 20
110.192464
 30
0.0
  0
SPLINE
  5
10a
100
AcDbEntity
  8
0
 62
7
100
AcDbSpline
 70
8
 71
3
 72
8
 73
4
 74
0
 40
0
 40
0
 40
0
 40
0
 40
1
 40
1
 40
1
 40
1
 10
502.617049
 20
7.458450
 30
0.0
 10
502.617049
 20
8.604836
 30
0.0
 10
503.529861
 20
9.517596
 30
0.0
 10
504.676221
 20
9.517596
 30
0.0
  0
SPLINE
  5
10b
100
AcDbEntity
  8
0
 62
7
100
AcDbSpline
 70
8
 71
3
 72
8
 73
4
 74
0
 40
0
 40
0
 40
0
 40
0
 40
1
 40
1
 40
1
 40
1
 10
27.857031
 20
7.458450
 30
0.0
 10
27.857031
 20
8.604836
 30
0.0
 10
28.769865
 20
9.517596
 30
0.0
 10
29.916204
 20
9.517596
 30
0.0
  0
SPLINE
  5
10c
100
AcDbEntity
  8
0
 62
7
100
AcDbSpline
 70
8
 71
3
 72
8
 73
4
 74
0
 40
0
 40
0
 40
0
 40
0
 40
1
 40
1
 40
1
 40
1
 10
31.975392
 20
7.458450
 30
0.0
 10
31.975392
 20
6.312089
 30
0.0
 10
31.062556
 20
5.399224
 30
0.0
 10
29.916204
 20
5.399224
 30
0.0
  0
SPLINE
  5
10d
100
AcDbEntity
  8
0
 62
7
100
AcDbSpline
 70
8
 71
3
 72
8
 73
4
 74
0
 40
0
 40
0
 40
0
 40
0
 40
1
 40
1
 40
1
 40
1
 10
29.916204
 20
9.517596
 30
0.0
 10
31.062556
 20
9.517596
 30
0.0
 10
31.975392
 20
8.604836
 30
0.0
 10
31.975392
 20
7.458450
 30
0.0
  0
SPLINE
  5
10e
100
AcDbEntity
  8
0
 62
7
100
AcDbSpline
 70
8
 71
3
 72
8
 73
4
 74
0
 40
0
 40
0
 40
0
 40
0
 40
1
 40
1
 40
1
 40
1
 10
448.746215
 20
9.317597
 30
0.0
 10
449.892549
 20
9.317597
 30
0.0
 10
450.805388
 20
8.404838
 30
0.0
 10
450.805388
 20
7.258451
 30
0.0
  0
SPLINE
  5
10f
100
AcDbEntity
  8
0
 62
7
100
AcDbSpline
 70
8
 71
3
 72
8
 73
4
 74
0
 40
0
 40
0
 40
0
 40
0
 40
1
 40
1
 40
1
 40
1
 10
525.896228
 20
9.517596
 30
0.0
 10
527.042562
 20
9.517596
 30
0.0
 10
527.955401
 20
8.604836
 30
0.0
 10
527.955401
 20
7.458450
 30
0.0
  0
SPLINE
  5
110
100
AcDbEntity
  8
0
 62
7
100
AcDbSpline
 70
8
 71
3
 72
8
 73
4
 74
0
 40
0
 40
0
 40
0
 40
0
 40
1
 40
1
 40
1
 40
1
 10
523.837029
 20
7.458450
 30
0.0
 10
523.837029
 20
8.604836
 30
0.0
 10
524.749868
 20
9.517596
 30
0.0
 10
525.896228
 20
9.517596
 30
0.0
  0
SPLINE
  5
111
100
AcDbEntity
  8
0
 62
7
100
AcDbSpline
 70
8
 71
3
 72
8
 73
4
 74
0
 40
0
 40
0
 40
0
 40
0
 40
1
 40
1
 40
1
 40
1
 10
7.377214
 20
108.133257
 30
0.0
 10
6.230862
 20
108.133257
 30
0.0
 10
5.318030
 20
109.046102
 30
0.0
 10
5.318030
 20
110.192464
 30
0.0
  0
SPLINE
  5
112
100
AcDbEntity
  8
0
 62
7
100
AcDbSpline
 70
8
 71
3
 72
8
 73
4
 74
0
 40
0
 40
0
 40
0
 40
0
 40
1
 40
1
 40
1
 40
1
 10
521.877207
 20
26.149225
 30
0.0
 10
520.730847
 20
26.149225
 30
0.0
 10
519.818034
 20
27.062064
 30
0.0
 10
519.818034
 20
28.208450
 30
0.0
  0
SPLINE
  5
113
100
AcDbEntity
  8
0
 62
7
100
AcDbSpline
 70
8
 71
3
 72
8
 73
4
 74
0
 40
0
 40
0
 40
0
 40
0
 40
1
 40
1
 40
1
 40
1
 10
427.668052
 20
450.382446
 30
0.0
 10
427.668052
 20
451.528862
 30
0.0
 10
428.580864
 20
452.441574
 30
0.0
 10
429.727224
 20
452.441574
 30
0.0
  0
SPLINE
  5
114
100
AcDbEntity
  8
0
 62
7
100
AcDbSpline
 70
8
 71
3
 72
8
 73
4
 74
0
 40
0
 40
0
 40
0
 40
0
 40
1
 40
1
 40
1
 40
1
 10
521.877207
 20
30.267597
 30
0.0
 10
523.023541
 20
30.267597
 30
0.0
 10
523.936380
 20
29.354811
 30
0.0
 10
523.936380
 20
28.208450
 30
0.0
  0
SPLINE
  5
115
100
AcDbEntity
  8
0
 62
7
100
AcDbSpline
 70
8
 71
3
 72
8
 73
4
 74
0
 40
0
 40
0
 40
0
 40
0
 40
1
 40
1
 40
1
 40
1
 10
429.727224
 20
448.323252
 30
0.0
 10
428.580864
 20
448.323252
 30
0.0
 10
427.668052
 20
449.236094
 30
0.0
 10
427.668052
 20
450.382446
 30
0.0
  0
SPLINE
  5
116
100
AcDbEntity
  8
0
 62
7
100
AcDbSpline
 70
8
 71
3
 72
8
 73
4
 74
0
 40
0
 40
0
 40
0
 40
0
 40
1
 40
1
 40
1
 40
1
 10
62.736396
 20
190.377423
 30
0.0
 10
62.736396
 20
189.231073
 30
0.0
 10
61.823557
 20
188.318229
 30
0.0
 10
60.677213
 20
188.318229
 30
0.0
  0
SPLINE
  5
117
100
AcDbEntity
  8
0
 62
7
100
AcDbSpline
 70
8
 71
3
 72
8
 73
4
 74
0
 40
0
 40
0
 40
0
 40
0
 40
1
 40
1
 40
1
 40
1
 10
60.677213
 20
192.436617
 30
0.0
 10
61.823557
 20
192.436617
 30
0.0
 10
62.736396
 20
191.523841
 30
0.0
 10
62.736396
 20
190.377423
 30
0.0
  0
SPLINE
  5
118
100
AcDbEntity
  8
0
 62
7
100
AcDbSpline
 70
8
 71
3
 72
8
 73
4
 74
0
 40
0
 40
0
 40
0
 40
0
 40
1
 40
1
 40
1
 40
1
 10
529.236407
 20
309.842445
 30
0.0
 10
529.236407
 20
308.696094
 30
0.0
 10
528.323542
 20
307.783250
 30
0.0
 10
527.177235
 20
307.783250
 30
0.0
  0
SPLINE
  5
119
100
AcDbEntity
  8
0
 62
7
100
AcDbSpline
 70
8
 71
3
 72
8
 73
4
 74
0
 40
0
 40
0
 40
0
 40
0
 40
1
 40
1
 40
1
 40
1
 10
525.118036
 20
309.842445
 30
0.0
 10
525.118036
 20
310.988861
 30
0.0
 10
526.030874
 20
311.901573
 30
0.0
 10
527.177235
 20
311.901573
 30
0.0
  0
SPLINE
  5
11a
100
AcDbEntity
  8
0
 62
7
100
AcDbSpline
 70
8
 71
3
 72
8
 73
4
 74
0
 40
0
 40
0
 40
0
 40
0
 40
1
 40
1
 40
1
 40
1
 10
527.177235
 20
311.901573
 30
0.0
 10
528.323542
 20
311.901573
 30
0.0
 10
529.236407
 20
310.988861
 30
0.0
 10
529.236407
 20
309.842445
 30
0.0
  0
SPLINE
  5
11b
100
AcDbEntity
  8
0
 62
7
100
AcDbSpline
 70
8
 71
3
 72
8
 73
4
 74
0
 40
0
 40
0
 40
0
 40
0
 40
1
 40
1
 40
1
 40
1
 10
527.177235
 20
108.133244
 30
0.0
 10
526.030874
 20
108.133244
 30
0.0
 10
525.118036
 20
109.046094
 30
0.0
 10
525.118036
 20
110.192451
 30
0.0
  0
SPLINE
  5
11c
100
AcDbEntity
  8
0
 62
7
100
AcDbSpline
 70
8
 71
3
 72
8
 73
4
 74
0
 40
0
 40
0
 40
0
 40
0
 40
1
 40
1
 40
1
 40
1
 10
60.677213
 20
452.441574
 30
0.0
 10
61.823552
 20
452.441574
 30
0.0
 10
62.736396
 20
451.528862
 30
0.0
 10
62.736396
 20
450.382446
 30
0.0
  0
SPLINE
  5
11d
100
AcDbEntity
  8
0
 62
7
100
AcDbSpline
 70
8
 71
3
 72
8
 73
4
 74
0
 40
0
 40
0
 40
0
 40
0
 40
1
 40
1
 40
1
 40
1
 10
525.118036
 20
110.192451
 30
0.0
 10
525.118036
 20
111.338835
 30
0.0
 10
526.030874
 20
112.251597
 30
0.0
 10
527.177235
 20
112.251597
 30
0.0
  0
SPLINE
  5
11e
100
AcDbEntity
  8
0
 62
7
100
AcDbSpline
 70
8
 71
3
 72
8
 73
4
 74
0
 40
0
 40
0
 40
0
 40
0
 40
1
 40
1
 40
1
 40
1
 10
58.618035
 20
450.382446
 30
0.0
 10
58.618035
 20
451.528862
 30
0.0
 10
59.530866
 20
452.441574
 30
0.0
 10
60.677213
 20
452.441574
 30
0.0
  0
SPLINE
  5
11f
100
AcDbEntity
  8
0
 62
7
100
AcDbSpline
 70
8
 71
3
 72
8
 73
4
 74
0
 40
0
 40
0
 40
0
 40
0
 40
1
 40
1
 40
1
 40
1
 10
527.177235
 20
112.251597
 30
0.0
 10
528.323542
 20
112.251597
 30
0.0
 10
529.236407
 20
111.338835
 30
0.0
 10
529.236407
 20
110.192451
 30
0.0
  0
SPLINE
  5
120
100
AcDbEntity
  8
0
 62
7
100
AcDbSpline
 70
8
 71
3
 72
8
 73
4
 74
0
 40
0
 40
0
 40
0
 40
0
 40
1
 40
1
 40
1
 40
1
 10
431.786423
 20
33.802443
 30
0.0
 10
431.786423
 20
32.656086
 30
0.0
 10
430.873584
 20
31.743231
 30
0.0
 10
429.727224
 20
31.743231
 30
0.0
  0
SPLINE
  5
121
100
AcDbEntity
  8
0
 62
7
100
AcDbSpline
 70
8
 71
3
 72
8
 73
4
 74
0
 40
0
 40
0
 40
0
 40
0
 40
1
 40
1
 40
1
 40
1
 10
429.727224
 20
31.743231
 30
0.0
 10
428.580891
 20
31.743231
 30
0.0
 10
427.668052
 20
32.656086
 30
0.0
 10
427.668052
 20
33.802443
 30
0.0
  0
SPLINE
  5
122
100
AcDbEntity
  8
0
 62
7
100
AcDbSpline
 70
8
 71
3
 72
8
 73
4
 74
0
 40
0
 40
0
 40
0
 40
0
 40
1
 40
1
 40
1
 40
1
 10
5.318030
 20
310.192417
 30
0.0
 10
5.318030
 20
311.338833
 30
0.0
 10
6.230862
 20
312.251610
 30
0.0
 10
7.377209
 20
312.251610
 30
0.0
  0
SPLINE
  5
123
100
AcDbEntity
  8
0
 62
7
100
AcDbSpline
 70
8
 71
3
 72
8
 73
4
 74
0
 40
0
 40
0
 40
0
 40
0
 40
1
 40
1
 40
1
 40
1
 10
504.676221
 20
9.517596
 30
0.0
 10
505.822555
 20
9.517596
 30
0.0
 10
506.735394
 20
8.604836
 30
0.0
 10
506.735394
 20
7.458450
 30
0.0
  0
SPLINE
  5
124
100
AcDbEntity
  8
0
 62
7
100
AcDbSpline
 70
8
 71
3
 72
8
 73
4
 74
0
 40
0
 40
0
 40
0
 40
0
 40
1
 40
1
 40
1
 40
1
 10
429.727224
 20
35.861590
 30
0.0
 10
430.873584
 20
35.861590
 30
0.0
 10
431.786423
 20
34.948827
 30
0.0
 10
431.786423
 20
33.802443
 30
0.0
  0
SPLINE
  5
125
100
AcDbEntity
  8
0
 62
7
100
AcDbSpline
 70
8
 71
3
 72
8
 73
4
 74
0
 40
0
 40
0
 40
0
 40
0
 40
1
 40
1
 40
1
 40
1
 10
60.677213
 20
448.323252
 30
0.0
 10
59.530866
 20
448.323252
 30
0.0
 10
58.618035
 20
449.236094
 30
0.0
 10
58.618035
 20
450.382446
 30
0.0
  0
SPLINE
  5
126
100
AcDbEntity
  8
0
 62
7
100
AcDbSpline
 70
8
 71
3
 72
8
 73
4
 74
0
 40
0
 40
0
 40
0
 40
0
 40
1
 40
1
 40
1
 40
1
 10
7.377209
 20
308.133222
 30
0.0
 10
6.230862
 20
308.133222
 30
0.0
 10
5.318030
 20
309.046065
 30
0.0
 10
5.318030
 20
310.192417
 30
0.0
  0
SPLINE
  5
127
100
AcDbEntity
  8
0
 62
7
100
AcDbSpline
 70
8
 71
3
 72
8
 73
4
 74
0
 40
0
 40
0
 40
0
 40
0
 40
1
 40
1
 40
1
 40
1
 10
527.177235
 20
307.783250
 30
0.0
 10
526.030874
 20
307.783250
 30
0.0
 10
525.118036
 20
308.696094
 30
0.0
 10
525.118036
 20
309.842445
 30
0.0
  0
SPLINE
  5
128
100
AcDbEntity
  8
0
 62
7
100
AcDbSpline
 70
8
 71
3
 72
8
 73
4
 74
0
 40
0
 40
0
 40
0
 40
0
 40
1
 40
1
 40
1
 40
1
 10
427.668052
 20
33.802443
 30
0.0
 10
427.668052
 20
34.948827
 30
0.0
 10
428.580891
 20
35.861590
 30
0.0
 10
429.727224
 20
35.861590
 30
0.0
  0
SPLINE
  5
129
100
AcDbEntity
  8
0
 62
7
100
AcDbSpline
 70
8
 71
3
 72
8
 73
4
 74
0
 40
0
 40
0
 40
0
 40
0
 40
1
 40
1
 40
1
 40
1
 10
427.668052
 20
190.380479
 30
0.0
 10
427.668052
 20
191.526828
 30
0.0
 10
428.580891
 20
192.439606
 30
0.0
 10
429.727251
 20
192.439606
 30
0.0
  0
SPLINE
  5
12a
100
AcDbEntity
  8
0
 62
7
100
AcDbSpline
 70
8
 71
3
 72
8
 73
4
 74
0
 40
0
 40
0
 40
0
 40
0
 40
1
 40
1
 40
1
 40
1
 10
431.786423
 20
190.380479
 30
0.0
 10
431.786423
 20
189.234126
 30
0.0
 10
430.873584
 20
188.321285
 30
0.0
 10
429.727251
 20
188.321285
 30
0.0
  0
SPLINE
  5
12b
100
AcDbEntity
  8
0
 62
7
100
AcDbSpline
 70
8
 71
3
 72
8
 73
4
 74
0
 40
0
 40
0
 40
0
 40
0
 40
1
 40
1
 40
1
 40
1
 10
429.727251
 20
188.321285
 30
0.0
 10
428.580891
 20
188.321285
 30
0.0
 10
427.668052
 20
189.234126
 30
0.0
 10
427.668052
 20
190.380479
 30
0.0
  0
SPLINE
  5
12c
100
AcDbEntity
  8
0
 62
7
100
AcDbSpline
 70
8
 71
3
 72
8
 73
4
 74
0
 40
0
 40
0
 40
0
 40
0
 40
1
 40
1
 40
1
 40
1
 10
529.236407
 20
110.192451
 30
0.0
 10
529.236407
 20
109.046094
 30
0.0
 10
528.323542
 20
108.133244
 30
0.0
 10
527.177235
 20
108.133244
 30
0.0
  0
SPLINE
  5
12d
100
AcDbEntity
  8
0
 62
7
100
AcDbSpline
 70
8
 71
3
 72
8
 73
4
 74
0
 40
0
 40
0
 40
0
 40
0
 40
1
 40
1
 40
1
 40
1
 10
523.936380
 20
28.208450
 30
0.0
 10
523.936380
 20
27.062064
 30
0.0
 10
523.023541
 20
26.149225
 30
0.0
 10
521.877207
 20
26.149225
 30
0.0
  0
SPLINE
  5
12e
100
AcDbEntity
  8
0
 62
7
100
AcDbSpline
 70
8
 71
3
 72
8
 73
4
 74
0
 40
0
 40
0
 40
0
 40
0
 40
1
 40
1
 40
1
 40
1
 10
60.677213
 20
31.743231
 30
0.0
 10
59.530866
 20
31.743231
 30
0.0
 10
58.618035
 20
32.656086
 30
0.0
 10
58.618035
 20
33.802443
 30
0.0
  0
SPLINE
  5
12f
100
AcDbEntity
  8
0
 62
7
100
AcDbSpline
 70
8
 71
3
 72
8
 73
4
 74
0
 40
0
 40
0
 40
0
 40
0
 40
1
 40
1
 40
1
 40
1
 10
429.727224
 20
452.441574
 30
0.0
 10
430.873558
 20
452.441574
 30
0.0
 10
431.786397
 20
451.528862
 30
0.0
 10
431.786397
 20
450.382446
 30
0.0
  0
SPLINE
  5
130
100
AcDbEntity
  8
0
 62
7
100
AcDbSpline
 70
8
 71
3
 72
8
 73
4
 74
0
 40
0
 40
0
 40
0
 40
0
 40
1
 40
1
 40
1
 40
1
 10
58.618035
 20
190.377423
 30
0.0
 10
58.618035
 20
191.523841
 30
0.0
 10
59.530866
 20
192.436617
 30
0.0
 10
60.677213
 20
192.436617
 30
0.0
  0
SPLINE
  5
131
100
AcDbEntity
  8
0
 62
7
100
AcDbSpline
 70
8
 71
3
 72
8
 73
4
 74
0
 40
0
 40
0
 40
0
 40
0
 40
1
 40
1
 40
1
 40
1
 10
519.818034
 20
28.208450
 30
0.0
 10
519.818034
 20
29.354811
 30
0.0
 10
520.730847
 20
30.267597
 30
0.0
 10
521.877207
 20
30.267597
 30
0.0
  0
SPLINE
  5
132
100
AcDbEntity
  8
0
 62
7
100
AcDbSpline
 70
8
 71
3
 72
8
 73
4
 74
0
 40
0
 40
0
 40
0
 40
0
 40
1
 40
1
 40
1
 40
1
 10
9.436393
 20
110.192464
 30
0.0
 10
9.436393
 20
109.046102
 30
0.0
 10
8.523555
 20
108.133257
 30
0.0
 10
7.377214
 20
108.133257
 30
0.0
  0
SPLINE
  5
133
100
AcDbEntity
  8
0
 62
7
100
AcDbSpline
 70
8
 71
3
 72
8
 73
4
 74
0
 40
0
 40
0
 40
0
 40
0
 40
1
 40
1
 40
1
 40
1
 10
428.165204
 20
378.417578
 30
0.0
 10
429.311537
 20
378.417578
 30
0.0
 10
430.224376
 20
377.504869
 30
0.0
 10
430.224376
 20
376.358451
 30
0.0
  0
SPLINE
  5
134
100
AcDbEntity
  8
0
 62
7
100
AcDbSpline
 70
8
 71
3
 72
8
 73
4
 74
0
 40
0
 40
0
 40
0
 40
0
 40
1
 40
1
 40
1
 40
1
 10
58.618035
 20
350.382429
 30
0.0
 10
58.618035
 20
351.528847
 30
0.0
 10
59.530866
 20
352.441623
 30
0.0
 10
60.677213
 20
352.441623
 30
0.0
  0
SPLINE
  5
135
100
AcDbEntity
  8
0
 62
7
100
AcDbSpline
 70
8
 71
3
 72
8
 73
4
 74
0
 40
0
 40
0
 40
0
 40
0
 40
1
 40
1
 40
1
 40
1
 10
60.677213
 20
352.441623
 30
0.0
 10
61.823557
 20
352.441623
 30
0.0
 10
62.736396
 20
351.528847
 30
0.0
 10
62.736396
 20
350.382429
 30
0.0
  0
SPLINE
  5
136
100
AcDbEntity
  8
0
 62
7
100
AcDbSpline
 70
8
 71
3
 72
8
 73
4
 74
0
 40
0
 40
0
 40
0
 40
0
 40
1
 40
1
 40
1
 40
1
 10
431.786397
 20
450.382446
 30
0.0
 10
431.786397
 20
449.236094
 30
0.0
 10
430.873558
 20
448.323252
 30
0.0
 10
429.727224
 20
448.323252
 30
0.0
  0
SPLINE
  5
137
100
AcDbEntity
  8
0
 62
7
100
AcDbSpline
 70
8
 71
3
 72
8
 73
4
 74
0
 40
0
 40
0
 40
0
 40
0
 40
1
 40
1
 40
1
 40
1
 10
9.436393
 20
310.192417
 30
0.0
 10
9.436393
 20
309.046065
 30
0.0
 10
8.523555
 20
308.133222
 30
0.0
 10
7.377209
 20
308.133222
 30
0.0
  0
SPLINE
  5
138
100
AcDbEntity
  8
0
 62
7
100
AcDbSpline
 70
8
 71
3
 72
8
 73
4
 74
0
 40
0
 40
0
 40
0
 40
0
 40
1
 40
1
 40
1
 40
1
 10
7.377209
 20
312.251610
 30
0.0
 10
8.523555
 20
312.251610
 30
0.0
 10
9.436393
 20
311.338833
 30
0.0
 10
9.436393
 20
310.192417
 30
0.0
  0
SPLINE
  5
139
100
AcDbEntity
  8
0
 62
7
100
AcDbSpline
 70
8
 71
3
 72
8
 73
4
 74
0
 40
0
 40
0
 40
0
 40
0
 40
1
 40
1
 40
1
 40
1
 10
60.677213
 20
35.861590
 30
0.0
 10
61.823552
 20
35.861590
 30
0.0
 10
62.736396
 20
34.948827
 30
0.0
 10
62.736396
 20
33.802443
 30
0.0
  0
SPLINE
  5
13a
100
AcDbEntity
  8
0
 62
7
100
AcDbSpline
 70
8
 71
3
 72
8
 73
4
 74
0
 40
0
 40
0
 40
0
 40
0
 40
1
 40
1
 40
1
 40
1
 10
60.677213
 20
188.318229
 30
0.0
 10
59.530866
 20
188.318229
 30
0.0
 10
58.618035
 20
189.231073
 30
0.0
 10
58.618035
 20
190.377423
 30
0.0
  0
SPLINE
  5
13b
100
AcDbEntity
  8
0
 62
7
100
AcDbSpline
 70
8
 71
3
 72
8
 73
4
 74
0
 40
0
 40
0
 40
0
 40
0
 40
1
 40
1
 40
1
 40
1
 10
62.736396
 20
450.382446
 30
0.0
 10
62.736396
 20
449.236094
 30
0.0
 10
61.823552
 20
448.323252
 30
0.0
 10
60.677213
 20
448.323252
 30
0.0
  0
SPLINE
  5
13c
100
AcDbEntity
  8
0
 62
7
100
AcDbSpline
 70
8
 71
3
 72
8
 73
4
 74
0
 40
0
 40
0
 40
0
 40
0
 40
1
 40
1
 40
1
 40
1
 10
62.736396
 20
350.382429
 30
0.0
 10
62.736396
 20
349.236079
 30
0.0
 10
61.823557
 20
348.323235
 30
0.0
 10
60.677213
 20
348.323235
 30
0.0
  0
SPLINE
  5
13d
100
AcDbEntity
  8
0
 62
7
100
AcDbSpline
 70
8
 71
3
 72
8
 73
4
 74
0
 40
0
 40
0
 40
0
 40
0
 40
1
 40
1
 40
1
 40
1
 10
60.677213
 20
348.323235
 30
0.0
 10
59.530866
 20
348.323235
 30
0.0
 10
58.618035
 20
349.236079
 30
0.0
 10
58.618035
 20
350.382429
 30
0.0
  0
SPLINE
  5
13e
100
AcDbEntity
  8
0
 62
7
100
AcDbSpline
 70
8
 71
3
 72
8
 73
4
 74
0
 40
0
 40
0
 40
0
 40
0
 40
1
 40
1
 40
1
 40
1
 10
58.618035
 20
33.802443
 30
0.0
 10
58.618035
 20
34.948827
 30
0.0
 10
59.530866
 20
35.861590
 30
0.0
 10
60.677213
 20
35.861590
 30
0.0
  0
SPLINE
  5
13f
100
AcDbEntity
  8
0
 62
7
100
AcDbSpline
 70
8
 71
3
 72
8
 73
4
 74
0
 40
0
 40
0
 40
0
 40
0
 40
1
 40
1
 40
1
 40
1
 10
62.736396
 20
33.802443
 30
0.0
 10
62.736396
 20
32.656086
 30
0.0
 10
61.823552
 20
31.743231
 30
0.0
 10
60.677213
 20
31.743231
 30
0.0
  0
SPLINE
  5
140
100
AcDbEntity
  8
0
 62
7
100
AcDbSpline
 70
8
 71
3
 72
8
 73
4
 74
0
 40
0
 40
0
 40
0
 40
0
 40
1
 40
1
 40
1
 40
1
 10
443.491140
 20
66.013255
 30
0.0
 10
443.491061
 20
67.150495
 30
0.0
 10
444.412896
 20
68.072478
 30
0.0
 10
445.550128
 20
68.072565
 30
0.0
  0
SPLINE
  5
141
100
AcDbEntity
  8
0
 62
7
100
AcDbSpline
 70
8
 71
3
 72
8
 73
4
 74
0
 40
0
 40
0
 40
0
 40
0
 40
1
 40
1
 40
1
 40
1
 10
445.550128
 20
68.072565
 30
0.0
 10
446.687386
 20
68.072478
 30
0.0
 10
447.609221
 20
67.150495
 30
0.0
 10
447.609142
 20
66.013255
 30
0.0
  0
SPLINE
  5
142
100
AcDbEntity
  8
0
 62
7
100
AcDbSpline
 70
8
 71
3
 72
8
 73
4
 74
0
 40
0
 40
0
 40
0
 40
0
 40
1
 40
1
 40
1
 40
1
 10
445.550128
 20
53.953946
 30
0.0
 10
444.412896
 20
53.954031
 30
0.0
 10
443.491061
 20
54.876016
 30
0.0
 10
443.491140
 20
56.013262
 30
0.0
  0
SPLINE
  5
143
100
AcDbEntity
  8
0
 62
7
100
AcDbSpline
 70
8
 71
3
 72
8
 73
4
 74
0
 40
0
 40
0
 40
0
 40
0
 40
1
 40
1
 40
1
 40
1
 10
447.609142
 20
56.013262
 30
0.0
 10
447.609221
 20
54.876016
 30
0.0
 10
446.687386
 20
53.954031
 30
0.0
 10
445.550128
 20
53.953946
 30
0.0
  0
SPLINE
  5
144
100
AcDbEntity
  8
0
 62
7
100
AcDbSpline
 70
8
 71
3
 72
8
 73
4
 74
0
 40
0
 40
0
 40
0
 40
0
 40
1
 40
1
 40
1
 40
1
 10
477.718857
 20
56.013592
 30
0.0
 10
477.718937
 20
54.876352
 30
0.0
 10
476.797076
 20
53.954372
 30
0.0
 10
475.659843
 20
53.954287
 30
0.0
  0
LWPOLYLINE
  5
145
100
AcDbEntity
  8
0
 62
7
100
AcDbPolyline
 90
2
 70
0
 10
447.609142
 20
66.013255
 30
0.0
 10
447.609142
 20
56.013262
 30
0.0
  0
SPLINE
  5
146
100
AcDbEntity
  8
0
 62
7
100
AcDbSpline
 70
8
 71
3
 72
8
 73
4
 74
0
 40
0
 40
0
 40
0
 40
0
 40
1
 40
1
 40
1
 40
1
 10
12.497752
 20
66.013580
 30
0.0
 10
12.497667
 20
67.150826
 30
0.0
 10
13.419513
 20
68.072806
 30
0.0
 10
14.556752
 20
68.072891
 30
0.0
  0
SPLINE
  5
147
100
AcDbEntity
  8
0
 62
7
100
AcDbSpline
 70
8
 71
3
 72
8
 73
4
 74
0
 40
0
 40
0
 40
0
 40
0
 40
1
 40
1
 40
1
 40
1
 10
475.659843
 20
68.072904
 30
0.0
 10
476.797076
 20
68.072817
 30
0.0
 10
477.718937
 20
67.150834
 30
0.0
 10
477.718857
 20
66.013594
 30
0.0
  0
SPLINE
  5
148
100
AcDbEntity
  8
0
 62
7
100
AcDbSpline
 70
8
 71
3
 72
8
 73
4
 74
0
 40
0
 40
0
 40
0
 40
0
 40
1
 40
1
 40
1
 40
1
 10
473.600856
 20
66.013594
 30
0.0
 10
473.600750
 20
67.150834
 30
0.0
 10
474.522611
 20
68.072817
 30
0.0
 10
475.659843
 20
68.072904
 30
0.0
  0
LWPOLYLINE
  5
149
100
AcDbEntity
  8
0
 62
7
100
AcDbPolyline
 90
2
 70
0
 10
46.725456
 20
66.013914
 30
0.0
 10
46.725456
 20
56.013918
 30
0.0
  0
SPLINE
  5
14a
100
AcDbEntity
  8
0
 62
7
100
AcDbSpline
 70
8
 71
3
 72
8
 73
4
 74
0
 40
0
 40
0
 40
0
 40
0
 40
1
 40
1
 40
1
 40
1
 10
44.666452
 20
53.954613
 30
0.0
 10
43.529212
 20
53.954697
 30
0.0
 10
42.607364
 20
54.876680
 30
0.0
 10
42.607454
 20
56.013918
 30
0.0
  0
LWPOLYLINE
  5
14b
100
AcDbEntity
  8
0
 62
7
100
AcDbPolyline
 90
2
 70
0
 10
473.600856
 20
66.013594
 30
0.0
 10
473.600856
 20
56.013592
 30
0.0
  0
LWPOLYLINE
  5
14c
100
AcDbEntity
  8
0
 62
7
100
AcDbPolyline
 90
2
 70
0
 10
42.607454
 20
66.013914
 30
0.0
 10
42.607454
 20
56.013918
 30
0.0
  0
LWPOLYLINE
  5
14d
100
AcDbEntity
  8
0
 62
7
100
AcDbPolyline
 90
2
 70
0
 10
16.615752
 20
56.013579
 30
0.0
 10
16.615752
 20
66.013580
 30
0.0
  0
SPLINE
  5
14e
100
AcDbEntity
  8
0
 62
7
100
AcDbSpline
 70
8
 71
3
 72
8
 73
4
 74
0
 40
0
 40
0
 40
0
 40
0
 40
1
 40
1
 40
1
 40
1
 10
169.427209
 20
292.399441
 30
0.0
 10
170.573556
 20
292.399441
 30
0.0
 10
171.486395
 20
291.486664
 30
0.0
 10
171.486395
 20
290.340248
 30
0.0
  0
LWPOLYLINE
  5
14f
100
AcDbEntity
  8
0
 62
7
100
AcDbPolyline
 90
2
 70
0
 10
443.491140
 20
56.013262
 30
0.0
 10
443.491140
 20
66.013255
 30
0.0
  0
LWPOLYLINE
  5
150
100
AcDbEntity
  8
0
 62
7
100
AcDbPolyline
 90
2
 70
0
 10
420.616509
 20
278.359254
 30
0.0
 10
420.636353
 20
0.132349
 30
0.0
  0
SPLINE
  5
151
100
AcDbEntity
  8
0
 62
7
100
AcDbSpline
 70
8
 71
3
 72
8
 73
4
 74
0
 40
0
 40
0
 40
0
 40
0
 40
1
 40
1
 40
1
 40
1
 10
367.468041
 20
290.340266
 30
0.0
 10
367.468041
 20
291.486615
 30
0.0
 10
368.380853
 20
292.399392
 30
0.0
 10
369.527213
 20
292.399392
 30
0.0
  0
SPLINE
  5
152
100
AcDbEntity
  8
0
 62
7
100
AcDbSpline
 70
8
 71
3
 72
8
 73
4
 74
0
 40
0
 40
0
 40
0
 40
0
 40
1
 40
1
 40
1
 40
1
 10
369.527213
 20
288.281071
 30
0.0
 10
368.380853
 20
288.281071
 30
0.0
 10
367.468041
 20
289.193915
 30
0.0
 10
367.468041
 20
290.340266
 30
0.0
  0
SPLINE
  5
153
100
AcDbEntity
  8
0
 62
7
100
AcDbSpline
 70
8
 71
3
 72
8
 73
4
 74
0
 40
0
 40
0
 40
0
 40
0
 40
1
 40
1
 40
1
 40
1
 10
16.615752
 20
56.013579
 30
0.0
 10
16.615835
 20
54.876342
 30
0.0
 10
15.693988
 20
53.954359
 30
0.0
 10
14.556749
 20
53.954274
 30
0.0
  0
SPLINE
  5
154
100
AcDbEntity
  8
0
 62
7
100
AcDbSpline
 70
8
 71
3
 72
8
 73
4
 74
0
 40
0
 40
0
 40
0
 40
0
 40
1
 40
1
 40
1
 40
1
 10
267.468029
 20
290.440283
 30
0.0
 10
267.468029
 20
291.586633
 30
0.0
 10
268.380868
 20
292.499411
 30
0.0
 10
269.527202
 20
292.499411
 30
0.0
  0
SPLINE
  5
155
100
AcDbEntity
  8
0
 62
7
100
AcDbSpline
 70
8
 71
3
 72
8
 73
4
 74
0
 40
0
 40
0
 40
0
 40
0
 40
1
 40
1
 40
1
 40
1
 10
371.586386
 20
290.340266
 30
0.0
 10
371.586386
 20
289.193915
 30
0.0
 10
370.673547
 20
288.281071
 30
0.0
 10
369.527213
 20
288.281071
 30
0.0
  0
SPLINE
  5
156
100
AcDbEntity
  8
0
 62
7
100
AcDbSpline
 70
8
 71
3
 72
8
 73
4
 74
0
 40
0
 40
0
 40
0
 40
0
 40
1
 40
1
 40
1
 40
1
 10
269.527202
 20
292.499411
 30
0.0
 10
270.673562
 20
292.499411
 30
0.0
 10
271.586401
 20
291.586633
 30
0.0
 10
271.586401
 20
290.440283
 30
0.0
  0
LWPOLYLINE
  5
157
100
AcDbEntity
  8
0
 62
7
100
AcDbPolyline
 90
3
 70
0
 10
0.132292
 20
459.137440
 30
0.0
 10
0.136587
 20
0.132428
 30
0.0
 10
100.636588
 20
0.132428
 30
0.0
  0
LWPOLYLINE
  5
158
100
AcDbEntity
  8
0
 62
7
100
AcDbPolyline
 90
2
 70
0
 10
420.636300
 20
0.132349
 30
0.0
 10
534.374325
 20
0.132296
 30
0.0
  0
SPLINE
  5
159
100
AcDbEntity
  8
0
 62
7
100
AcDbSpline
 70
8
 71
3
 72
8
 73
4
 74
0
 40
0
 40
0
 40
0
 40
0
 40
1
 40
1
 40
1
 40
1
 10
44.666455
 20
68.073221
 30
0.0
 10
45.803692
 20
68.073137
 30
0.0
 10
46.725540
 20
67.151151
 30
0.0
 10
46.725456
 20
66.013914
 30
0.0
  0
SPLINE
  5
15a
100
AcDbEntity
  8
0
 62
7
100
AcDbSpline
 70
8
 71
3
 72
8
 73
4
 74
0
 40
0
 40
0
 40
0
 40
0
 40
1
 40
1
 40
1
 40
1
 10
42.607454
 20
66.013914
 30
0.0
 10
42.607369
 20
67.151151
 30
0.0
 10
43.529215
 20
68.073137
 30
0.0
 10
44.666455
 20
68.073221
 30
0.0
  0
SPLINE
  5
15b
100
AcDbEntity
  8
0
 62
7
100
AcDbSpline
 70
8
 71
3
 72
8
 73
4
 74
0
 40
0
 40
0
 40
0
 40
0
 40
1
 40
1
 40
1
 40
1
 10
14.556749
 20
53.954274
 30
0.0
 10
13.419510
 20
53.954359
 30
0.0
 10
12.497662
 20
54.876342
 30
0.0
 10
12.497752
 20
56.013579
 30
0.0
  0
SPLINE
  5
15c
100
AcDbEntity
  8
0
 62
7
100
AcDbSpline
 70
8
 71
3
 72
8
 73
4
 74
0
 40
0
 40
0
 40
0
 40
0
 40
1
 40
1
 40
1
 40
1
 10
429.727224
 20
348.323235
 30
0.0
 10
428.580864
 20
348.323235
 30
0.0
 10
427.668052
 20
349.236079
 30
0.0
 10
427.668052
 20
350.382429
 30
0.0
  0
SPLINE
  5
15d
100
AcDbEntity
  8
0
 62
7
100
AcDbSpline
 70
8
 71
3
 72
8
 73
4
 74
0
 40
0
 40
0
 40
0
 40
0
 40
1
 40
1
 40
1
 40
1
 10
14.556752
 20
68.072891
 30
0.0
 10
15.693990
 20
68.072806
 30
0.0
 10
16.615837
 20
67.150826
 30
0.0
 10
16.615752
 20
66.013580
 30
0.0
  0
LWPOLYLINE
  5
15e
100
AcDbEntity
  8
0
 62
7
100
AcDbPolyline
 90
2
 70
0
 10
477.718857
 20
66.013594
 30
0.0
 10
477.718857
 20
56.013592
 30
0.0
  0
LWPOLYLINE
  5
15f
100
AcDbEntity
  8
0
 62
7
100
AcDbPolyline
 90
2
 70
0
 10
12.497752
 20
66.013580
 30
0.0
 10
12.497752
 20
56.013579
 30
0.0
  0
SPLINE
  5
160
100
AcDbEntity
  8
0
 62
7
100
AcDbSpline
 70
8
 71
3
 72
8
 73
4
 74
0
 40
0
 40
0
 40
0
 40
0
 40
1
 40
1
 40
1
 40
1
 10
429.727251
 20
192.439606
 30
0.0
 10
430.873584
 20
192.439606
 30
0.0
 10
431.786423
 20
191.526828
 30
0.0
 10
431.786423
 20
190.380479
 30
0.0
  0
LWPOLYLINE
  5
161
100
AcDbEntity
  8
0
 62
7
100
AcDbPolyline
 90
2
 70
0
 10
509.711031
 20
483.286048
 30
0.0
 10
24.991302
 20
483.996398
 30
0.0
  0
SPLINE
  5
162
100
AcDbEntity
  8
0
 62
7
100
AcDbSpline
 70
8
 71
3
 72
8
 73
4
 74
0
 40
0
 40
0
 40
0
 40
0
 40
1
 40
1
 40
1
 40
1
 10
167.368031
 20
290.340248
 30
0.0
 10
167.368031
 20
291.486664
 30
0.0
 10
168.280862
 20
292.399441
 30
0.0
 10
169.427209
 20
292.399441
 30
0.0
  0
LWPOLYLINE
  5
163
100
AcDbEntity
  8
0
 62
7
100
AcDbPolyline
 90
2
 70
0
 10
534.570037
 20
458.427023
 30
0.0
 10
534.374325
 20
0.132296
 30
0.0
  0
SPLINE
  5
164
100
AcDbEntity
  8
0
 62
7
100
AcDbSpline
 70
8
 71
3
 72
8
 73
4
 74
0
 40
0
 40
0
 40
0
 40
0
 40
1
 40
1
 40
1
 40
1
 10
46.725456
 20
56.013918
 30
0.0
 10
46.725546
 20
54.876680
 30
0.0
 10
45.803697
 20
53.954697
 30
0.0
 10
44.666452
 20
53.954613
 30
0.0
  0
SPLINE
  5
165
100
AcDbEntity
  8
0
 62
7
100
AcDbSpline
 70
8
 71
3
 72
8
 73
4
 74
0
 40
0
 40
0
 40
0
 40
0
 40
1
 40
1
 40
1
 40
1
 10
271.586401
 20
290.440283
 30
0.0
 10
271.586401
 20
289.293932
 30
0.0
 10
270.673562
 20
288.381022
 30
0.0
 10
269.527202
 20
288.381022
 30
0.0
  0
SPLINE
  5
166
100
AcDbEntity
  8
0
 62
7
100
AcDbSpline
 70
8
 71
3
 72
8
 73
4
 74
0
 40
0
 40
0
 40
0
 40
0
 40
1
 40
1
 40
1
 40
1
 10
269.527202
 20
288.381022
 30
0.0
 10
268.380868
 20
288.381022
 30
0.0
 10
267.468029
 20
289.293932
 30
0.0
 10
267.468029
 20
290.440283
 30
0.0
  0
SPLINE
  5
167
100
AcDbEntity
  8
0
 62
7
100
AcDbSpline
 70
8
 71
3
 72
8
 73
4
 74
0
 40
0
 40
0
 40
0
 40
0
 40
1
 40
1
 40
1
 40
1
 10
431.786397
 20
350.382429
 30
0.0
 10
431.786397
 20
349.236079
 30
0.0
 10
430.873558
 20
348.323235
 30
0.0
 10
429.727224
 20
348.323235
 30
0.0
  0
SPLINE
  5
168
100
AcDbEntity
  8
0
 62
7
100
AcDbSpline
 70
8
 71
3
 72
8
 73
4
 74
0
 40
0
 40
0
 40
0
 40
0
 40
1
 40
1
 40
1
 40
1
 10
427.668052
 20
350.382429
 30
0.0
 10
427.668052
 20
351.528847
 30
0.0
 10
428.580864
 20
352.441623
 30
0.0
 10
429.727224
 20
352.441623
 30
0.0
  0
SPLINE
  5
169
100
AcDbEntity
  8
0
 62
7
100
AcDbSpline
 70
8
 71
3
 72
8
 73
4
 74
0
 40
0
 40
0
 40
0
 40
0
 40
1
 40
1
 40
1
 40
1
 10
169.427209
 20
288.281053
 30
0.0
 10
168.280862
 20
288.281053
 30
0.0
 10
167.368031
 20
289.193897
 30
0.0
 10
167.368031
 20
290.340248
 30
0.0
  0
SPLINE
  5
16a
100
AcDbEntity
  8
0
 62
7
100
AcDbSpline
 70
8
 71
3
 72
8
 73
4
 74
0
 40
0
 40
0
 40
0
 40
0
 40
1
 40
1
 40
1
 40
1
 10
369.527213
 20
292.399392
 30
0.0
 10
370.673547
 20
292.399392
 30
0.0
 10
371.586386
 20
291.486615
 30
0.0
 10
371.586386
 20
290.340266
 30
0.0
  0
SPLINE
  5
16b
100
AcDbEntity
  8
0
 62
7
100
AcDbSpline
 70
8
 71
3
 72
8
 73
4
 74
0
 40
0
 40
0
 40
0
 40
0
 40
1
 40
1
 40
1
 40
1
 10
171.486395
 20
290.340248
 30
0.0
 10
171.486395
 20
289.193897
 30
0.0
 10
170.573556
 20
288.281053
 30
0.0
 10
169.427209
 20
288.281053
 30
0.0
  0
SPLINE
  5
16c
100
AcDbEntity
  8
0
 62
7
100
AcDbSpline
 70
8
 71
3
 72
8
 73
4
 74
0
 40
0
 40
0
 40
0
 40
0
 40
1
 40
1
 40
1
 40
1
 10
429.727224
 20
352.441623
 30
0.0
 10
430.873558
 20
352.441623
 30
0.0
 10
431.786397
 20
351.528847
 30
0.0
 10
431.786397
 20
350.382429
 30
0.0
  0
SPLINE
  5
16d
100
AcDbEntity
  8
0
 62
7
100
AcDbSpline
 70
8
 71
3
 72
8
 73
4
 74
0
 40
0
 40
0
 40
0
 40
0
 40
1
 40
1
 40
1
 40
1
 10
475.659843
 20
53.954287
 30
0.0
 10
474.522611
 20
53.954372
 30
0.0
 10
473.600750
 20
54.876352
 30
0.0
 10
473.600856
 20
56.013592
 30
0.0
  0
SPLINE
  5
16e
100
AcDbEntity
  8
0
 62
7
100
AcDbSpline
 70
8
 71
3
 72
8
 73
4
 74
0
 40
0
 40
0
 40
0
 40
0
 40
1
 40
1
 40
1
 40
1
 10
524.717800
 20
471.721489
 30
0.0
 10
525.019558
 20
472.023243
 30
0.0
 10
525.189076
 20
472.432514
 30
0.0
 10
525.189076
 20
472.859260
 30
0.0
  0
SPLINE
  5
16f
100
AcDbEntity
  8
0
 62
7
100
AcDbSpline
 70
8
 71
3
 72
8
 73
4
 74
0
 40
0
 40
0
 40
0
 40
0
 40
1
 40
1
 40
1
 40
1
 10
469.966222
 20
5.199225
 30
0.0
 10
468.819862
 20
5.199225
 30
0.0
 10
467.907023
 20
6.112091
 30
0.0
 10
467.907023
 20
7.258451
 30
0.0
  0
SPLINE
  5
170
100
AcDbEntity
  8
0
 62
7
100
AcDbSpline
 70
8
 71
3
 72
8
 73
4
 74
0
 40
0
 40
0
 40
0
 40
0
 40
1
 40
1
 40
1
 40
1
 10
38.927208
 20
378.417578
 30
0.0
 10
40.073542
 20
378.417578
 30
0.0
 10
40.986386
 20
377.504869
 30
0.0
 10
40.986386
 20
376.358451
 30
0.0
  0
SPLINE
  5
171
100
AcDbEntity
  8
0
 62
7
100
AcDbSpline
 70
8
 71
3
 72
8
 73
4
 74
0
 40
0
 40
0
 40
0
 40
0
 40
1
 40
1
 40
1
 40
1
 10
489.027996
 20
29.948086
 30
0.0
 10
489.027758
 20
27.271905
 30
0.0
 10
487.086854
 20
25.102613
 30
0.0
 10
484.692824
 20
25.102824
 30
0.0
  0
SPLINE
  5
172
100
AcDbEntity
  8
0
 62
7
100
AcDbSpline
 70
8
 71
3
 72
8
 73
4
 74
0
 40
0
 40
0
 40
0
 40
0
 40
1
 40
1
 40
1
 40
1
 10
71.057211
 20
5.399224
 30
0.0
 10
69.910859
 20
5.399224
 30
0.0
 10
68.998033
 20
6.312089
 30
0.0
 10
68.998033
 20
7.458450
 30
0.0
  0
LWPOLYLINE
  5
173
100
AcDbEntity
  8
0
 62
7
100
AcDbPolyline
 90
2
 70
0
 10
415.757383
 20
283.218342
 30
0.0
 10
105.505995
 20
283.211701
 30
0.0
  0
SPLINE
  5
174
100
AcDbEntity
  8
0
 62
7
100
AcDbSpline
 70
8
 71
3
 72
8
 73
4
 74
0
 40
0
 40
0
 40
0
 40
0
 40
1
 40
1
 40
1
 40
1
 10
430.224376
 20
376.358451
 30
0.0
 10
430.224376
 20
375.212101
 30
0.0
 10
429.311537
 20
374.299257
 30
0.0
 10
428.165204
 20
374.299257
 30
0.0
  0
SPLINE
  5
175
100
AcDbEntity
  8
0
 62
7
100
AcDbSpline
 70
8
 71
3
 72
8
 73
4
 74
0
 40
0
 40
0
 40
0
 40
0
 40
1
 40
1
 40
1
 40
1
 10
523.580013
 20
474.468311
 30
0.0
 10
523.153266
 20
474.468311
 30
0.0
 10
522.744009
 20
474.298789
 30
0.0
 10
522.442251
 20
473.997035
 30
0.0
  0
SPLINE
  5
176
100
AcDbEntity
  8
0
 62
7
100
AcDbSpline
 70
8
 71
3
 72
8
 73
4
 74
0
 40
0
 40
0
 40
0
 40
0
 40
1
 40
1
 40
1
 40
1
 10
92.277210
 20
9.517596
 30
0.0
 10
93.423557
 20
9.517596
 30
0.0
 10
94.336393
 20
8.604836
 30
0.0
 10
94.336393
 20
7.458450
 30
0.0
  0
LWPOLYLINE
  5
177
100
AcDbEntity
  8
0
 62
7
100
AcDbPolyline
 90
2
 70
0
 10
484.692824
 20
34.793334
 30
0.0
 10
463.641701
 20
34.793334
 30
0.0
  0
SPLINE
  5
178
100
AcDbEntity
  8
0
 62
7
100
AcDbSpline
 70
8
 71
3
 72
8
 73
4
 74
0
 40
0
 40
0
 40
0
 40
0
 40
1
 40
1
 40
1
 40
1
 10
100.646901
 20
278.352611
 30
0.0
 10
100.646901
 20
281.036219
 30
0.0
 10
102.822395
 20
283.211702
 30
0.0
 10
105.505995
 20
283.211702
 30
0.0
  0
SPLINE
  5
179
100
AcDbEntity
  8
0
 62
7
100
AcDbSpline
 70
8
 71
3
 72
8
 73
4
 74
0
 40
0
 40
0
 40
0
 40
0
 40
1
 40
1
 40
1
 40
1
 10
463.641701
 20
25.102824
 30
0.0
 10
461.247672
 20
25.102613
 30
0.0
 10
459.306768
 20
27.271931
 30
0.0
 10
459.306556
 20
29.948086
 30
0.0
  0
LWPOLYLINE
  5
17a
100
AcDbEntity
  8
0
 62
7
100
AcDbPolyline
 90
2
 70
0
 10
484.692824
 20
25.102824
 30
0.0
 10
463.641701
 20
25.102824
 30
0.0
  0
SPLINE
  5
17b
100
AcDbEntity
  8
0
 62
7
100
AcDbSpline
 70
8
 71
3
 72
8
 73
4
 74
0
 40
0
 40
0
 40
0
 40
0
 40
1
 40
1
 40
1
 40
1
 10
450.805388
 20
7.258451
 30
0.0
 10
450.805388
 20
6.112091
 30
0.0
 10
449.892549
 20
5.199225
 30
0.0
 10
448.746215
 20
5.199225
 30
0.0
  0
SPLINE
  5
17c
100
AcDbEntity
  8
0
 62
7
100
AcDbSpline
 70
8
 71
3
 72
8
 73
4
 74
0
 40
0
 40
0
 40
0
 40
0
 40
1
 40
1
 40
1
 40
1
 10
9.126975
 20
473.372219
 30
0.0
 10
9.126979
 20
474.260872
 30
0.0
 10
9.847377
 20
474.981266
 30
0.0
 10
10.736032
 20
474.981266
 30
0.0
  0
SPLINE
  5
17d
100
AcDbEntity
  8
0
 62
7
100
AcDbSpline
 70
8
 71
3
 72
8
 73
4
 74
0
 40
0
 40
0
 40
0
 40
0
 40
1
 40
1
 40
1
 40
1
 10
467.907023
 20
7.258451
 30
0.0
 10
467.907023
 20
8.404838
 30
0.0
 10
468.819862
 20
9.317597
 30
0.0
 10
469.966222
 20
9.317597
 30
0.0
  0
SPLINE
  5
17e
100
AcDbEntity
  8
0
 62
7
100
AcDbSpline
 70
8
 71
3
 72
8
 73
4
 74
0
 40
0
 40
0
 40
0
 40
0
 40
1
 40
1
 40
1
 40
1
 10
459.306556
 20
29.948086
 30
0.0
 10
459.306768
 20
32.624243
 30
0.0
 10
461.247672
 20
34.793535
 30
0.0
 10
463.641701
 20
34.793334
 30
0.0
  0
SPLINE
  5
17f
100
AcDbEntity
  8
0
 62
7
100
AcDbSpline
 70
8
 71
3
 72
8
 73
4
 74
0
 40
0
 40
0
 40
0
 40
0
 40
1
 40
1
 40
1
 40
1
 10
6.637027
 20
7.458450
 30
0.0
 10
6.637027
 20
8.604836
 30
0.0
 10
7.549864
 20
9.517596
 30
0.0
 10
8.696211
 20
9.517596
 30
0.0
  0
SPLINE
  5
180
100
AcDbEntity
  8
0
 62
7
100
AcDbSpline
 70
8
 71
3
 72
8
 73
4
 74
0
 40
0
 40
0
 40
0
 40
0
 40
1
 40
1
 40
1
 40
1
 10
8.696211
 20
9.517596
 30
0.0
 10
9.842551
 20
9.517596
 30
0.0
 10
10.755395
 20
8.604836
 30
0.0
 10
10.755395
 20
7.458450
 30
0.0
  0
SPLINE
  5
181
100
AcDbEntity
  8
0
 62
7
100
AcDbSpline
 70
8
 71
3
 72
8
 73
4
 74
0
 40
0
 40
0
 40
0
 40
0
 40
1
 40
1
 40
1
 40
1
 10
458.265209
 20
378.417578
 30
0.0
 10
459.411516
 20
378.417578
 30
0.0
 10
460.324382
 20
377.504869
 30
0.0
 10
460.324382
 20
376.358451
 30
0.0
  0
SPLINE
  5
182
100
AcDbEntity
  8
0
 62
7
100
AcDbSpline
 70
8
 71
3
 72
8
 73
4
 74
0
 40
0
 40
0
 40
0
 40
0
 40
1
 40
1
 40
1
 40
1
 10
428.165204
 20
374.299257
 30
0.0
 10
427.018843
 20
374.299257
 30
0.0
 10
426.106031
 20
375.212101
 30
0.0
 10
426.106031
 20
376.358451
 30
0.0
  0
SPLINE
  5
183
100
AcDbEntity
  8
0
 62
7
100
AcDbSpline
 70
8
 71
3
 72
8
 73
4
 74
0
 40
0
 40
0
 40
0
 40
0
 40
1
 40
1
 40
1
 40
1
 10
523.580013
 20
471.250213
 30
0.0
 10
524.006759
 20
471.250210
 30
0.0
 10
524.416043
 20
471.419734
 30
0.0
 10
524.717800
 20
471.721489
 30
0.0
  0
SPLINE
  5
184
100
AcDbEntity
  8
0
 62
7
100
AcDbSpline
 70
8
 71
3
 72
8
 73
4
 74
0
 40
0
 40
0
 40
0
 40
0
 40
1
 40
1
 40
1
 40
1
 10
40.986386
 20
376.358451
 30
0.0
 10
40.986386
 20
375.212101
 30
0.0
 10
40.073542
 20
374.299257
 30
0.0
 10
38.927208
 20
374.299257
 30
0.0
  0
SPLINE
  5
185
100
AcDbEntity
  8
0
 62
7
100
AcDbSpline
 70
8
 71
3
 72
8
 73
4
 74
0
 40
0
 40
0
 40
0
 40
0
 40
1
 40
1
 40
1
 40
1
 10
38.927208
 20
374.299257
 30
0.0
 10
37.780848
 20
374.299257
 30
0.0
 10
36.868028
 20
375.212101
 30
0.0
 10
36.868028
 20
376.358451
 30
0.0
  0
SPLINE
  5
186
100
AcDbEntity
  8
0
 62
7
100
AcDbSpline
 70
8
 71
3
 72
8
 73
4
 74
0
 40
0
 40
0
 40
0
 40
0
 40
1
 40
1
 40
1
 40
1
 10
68.998033
 20
7.458450
 30
0.0
 10
68.998033
 20
8.604836
 30
0.0
 10
69.910859
 20
9.517596
 30
0.0
 10
71.057211
 20
9.517596
 30
0.0
  0
SPLINE
  5
187
100
AcDbEntity
  8
0
 62
7
100
AcDbSpline
 70
8
 71
3
 72
8
 73
4
 74
0
 40
0
 40
0
 40
0
 40
0
 40
1
 40
1
 40
1
 40
1
 10
469.966222
 20
9.317597
 30
0.0
 10
471.112529
 20
9.317597
 30
0.0
 10
472.025394
 20
8.404838
 30
0.0
 10
472.025394
 20
7.258451
 30
0.0
  0
SPLINE
  5
188
100
AcDbEntity
  8
0
 62
7
100
AcDbSpline
 70
8
 71
3
 72
8
 73
4
 74
0
 40
0
 40
0
 40
0
 40
0
 40
1
 40
1
 40
1
 40
1
 10
90.218032
 20
7.458450
 30
0.0
 10
90.218032
 20
8.604836
 30
0.0
 10
91.130863
 20
9.517596
 30
0.0
 10
92.277210
 20
9.517596
 30
0.0
  0
SPLINE
  5
189
100
AcDbEntity
  8
0
 62
7
100
AcDbSpline
 70
8
 71
3
 72
8
 73
4
 74
0
 40
0
 40
0
 40
0
 40
0
 40
1
 40
1
 40
1
 40
1
 10
94.336393
 20
7.458450
 30
0.0
 10
94.336393
 20
6.312089
 30
0.0
 10
93.423557
 20
5.399224
 30
0.0
 10
92.277210
 20
5.399224
 30
0.0
  0
SPLINE
  5
18a
100
AcDbEntity
  8
0
 62
7
100
AcDbSpline
 70
8
 71
3
 72
8
 73
4
 74
0
 40
0
 40
0
 40
0
 40
0
 40
1
 40
1
 40
1
 40
1
 10
522.442251
 20
473.997035
 30
0.0
 10
522.140494
 20
473.695278
 30
0.0
 10
521.970949
 20
473.286009
 30
0.0
 10
521.970949
 20
472.859260
 30
0.0
  0
SPLINE
  5
18b
100
AcDbEntity
  8
0
 62
7
100
AcDbSpline
 70
8
 71
3
 72
8
 73
4
 74
0
 40
0
 40
0
 40
0
 40
0
 40
1
 40
1
 40
1
 40
1
 10
509.711031
 20
483.286048
 30
0.0
 10
523.440286
 20
483.286048
 30
0.0
 10
534.570037
 20
472.156268
 30
0.0
 10
534.570037
 20
458.427023
 30
0.0
  0
SPLINE
  5
18c
100
AcDbEntity
  8
0
 62
7
100
AcDbSpline
 70
8
 71
3
 72
8
 73
4
 74
0
 40
0
 40
0
 40
0
 40
0
 40
1
 40
1
 40
1
 40
1
 10
69.027209
 20
374.299257
 30
0.0
 10
67.880851
 20
374.299257
 30
0.0
 10
66.968031
 20
375.212101
 30
0.0
 10
66.968031
 20
376.358451
 30
0.0
  0
SPLINE
  5
18d
100
AcDbEntity
  8
0
 62
7
100
AcDbSpline
 70
8
 71
3
 72
8
 73
4
 74
0
 40
0
 40
0
 40
0
 40
0
 40
1
 40
1
 40
1
 40
1
 10
71.057211
 20
9.517596
 30
0.0
 10
72.203550
 20
9.517596
 30
0.0
 10
73.116389
 20
8.604836
 30
0.0
 10
73.116389
 20
7.458450
 30
0.0
  0
SPLINE
  5
18e
100
AcDbEntity
  8
0
 62
7
100
AcDbSpline
 70
8
 71
3
 72
8
 73
4
 74
0
 40
0
 40
0
 40
0
 40
0
 40
1
 40
1
 40
1
 40
1
 10
12.345083
 20
473.372219
 30
0.0
 10
12.345080
 20
472.483565
 30
0.0
 10
11.624685
 20
471.763171
 30
0.0
 10
10.736032
 20
471.763168
 30
0.0
  0
SPLINE
  5
18f
100
AcDbEntity
  8
0
 62
7
100
AcDbSpline
 70
8
 71
3
 72
8
 73
4
 74
0
 40
0
 40
0
 40
0
 40
0
 40
1
 40
1
 40
1
 40
1
 10
36.868028
 20
376.358451
 30
0.0
 10
36.868028
 20
377.504869
 30
0.0
 10
37.780848
 20
378.417578
 30
0.0
 10
38.927208
 20
378.417578
 30
0.0
  0
SPLINE
  5
190
100
AcDbEntity
  8
0
 62
7
100
AcDbSpline
 70
8
 71
3
 72
8
 73
4
 74
0
 40
0
 40
0
 40
0
 40
0
 40
1
 40
1
 40
1
 40
1
 10
66.968031
 20
376.358451
 30
0.0
 10
66.968031
 20
377.504869
 30
0.0
 10
67.880851
 20
378.417578
 30
0.0
 10
69.027209
 20
378.417578
 30
0.0
  0
SPLINE
  5
191
100
AcDbEntity
  8
0
 62
7
100
AcDbSpline
 70
8
 71
3
 72
8
 73
4
 74
0
 40
0
 40
0
 40
0
 40
0
 40
1
 40
1
 40
1
 40
1
 10
0.132292
 20
459.137440
 30
0.0
 10
0.132292
 20
472.866685
 30
0.0
 10
11.262063
 20
483.996398
 30
0.0
 10
24.991302
 20
483.996398
 30
0.0
  0
SPLINE
  5
192
100
AcDbEntity
  8
0
 62
7
100
AcDbSpline
 70
8
 71
3
 72
8
 73
4
 74
0
 40
0
 40
0
 40
0
 40
0
 40
1
 40
1
 40
1
 40
1
 10
415.757383
 20
283.218342
 30
0.0
 10
418.440972
 20
283.218342
 30
0.0
 10
420.616509
 20
281.042860
 30
0.0
 10
420.616509
 20
278.359254
 30
0.0
  0
SPLINE
  5
193
100
AcDbEntity
  8
0
 62
7
100
AcDbSpline
 70
8
 71
3
 72
8
 73
4
 74
0
 40
0
 40
0
 40
0
 40
0
 40
1
 40
1
 40
1
 40
1
 10
458.265209
 20
374.299257
 30
0.0
 10
457.118849
 20
374.299257
 30
0.0
 10
456.206010
 20
375.212101
 30
0.0
 10
456.206010
 20
376.358451
 30
0.0
  0
SPLINE
  5
194
100
AcDbEntity
  8
0
 62
7
100
AcDbSpline
 70
8
 71
3
 72
8
 73
4
 74
0
 40
0
 40
0
 40
0
 40
0
 40
1
 40
1
 40
1
 40
1
 10
456.206010
 20
376.358451
 30
0.0
 10
456.206010
 20
377.504869
 30
0.0
 10
457.118849
 20
378.417578
 30
0.0
 10
458.265209
 20
378.417578
 30
0.0
  0
SPLINE
  5
195
100
AcDbEntity
  8
0
 62
7
100
AcDbSpline
 70
8
 71
3
 72
8
 73
4
 74
0
 40
0
 40
0
 40
0
 40
0
 40
1
 40
1
 40
1
 40
1
 10
522.442251
 20
471.721489
 30
0.0
 10
522.744009
 20
471.419734
 30
0.0
 10
523.153266
 20
471.250210
 30
0.0
 10
523.580013
 20
471.250213
 30
0.0
  0
SPLINE
  5
196
100
AcDbEntity
  8
0
 62
7
100
AcDbSpline
 70
8
 71
3
 72
8
 73
4
 74
0
 40
0
 40
0
 40
0
 40
0
 40
1
 40
1
 40
1
 40
1
 10
10.736032
 20
474.981266
 30
0.0
 10
11.624685
 20
474.981264
 30
0.0
 10
12.345080
 20
474.260869
 30
0.0
 10
12.345083
 20
473.372219
 30
0.0
  0
SPLINE
  5
197
100
AcDbEntity
  8
0
 62
7
100
AcDbSpline
 70
8
 71
3
 72
8
 73
4
 74
0
 40
0
 40
0
 40
0
 40
0
 40
1
 40
1
 40
1
 40
1
 10
73.116389
 20
7.458450
 30
0.0
 10
73.116389
 20
6.312089
 30
0.0
 10
72.203550
 20
5.399224
 30
0.0
 10
71.057211
 20
5.399224
 30
0.0
  0
SPLINE
  5
198
100
AcDbEntity
  8
0
 62
7
100
AcDbSpline
 70
8
 71
3
 72
8
 73
4
 74
0
 40
0
 40
0
 40
0
 40
0
 40
1
 40
1
 40
1
 40
1
 10
460.324382
 20
376.358451
 30
0.0
 10
460.324382
 20
375.212101
 30
0.0
 10
459.411516
 20
374.299257
 30
0.0
 10
458.265209
 20
374.299257
 30
0.0
  0
SPLINE
  5
199
100
AcDbEntity
  8
0
 62
7
100
AcDbSpline
 70
8
 71
3
 72
8
 73
4
 74
0
 40
0
 40
0
 40
0
 40
0
 40
1
 40
1
 40
1
 40
1
 10
521.970949
 20
472.859260
 30
0.0
 10
521.970949
 20
472.432514
 30
0.0
 10
522.140494
 20
472.023243
 30
0.0
 10
522.442251
 20
471.721489
 30
0.0
  0
SPLINE
  5
19a
100
AcDbEntity
  8
0
 62
7
100
AcDbSpline
 70
8
 71
3
 72
8
 73
4
 74
0
 40
0
 40
0
 40
0
 40
0
 40
1
 40
1
 40
1
 40
1
 10
525.189076
 20
472.859260
 30
0.0
 10
525.189076
 20
473.286009
 30
0.0
 10
525.019558
 20
473.695278
 30
0.0
 10
524.717800
 20
473.997035
 30
0.0
  0
SPLINE
  5
19b
100
AcDbEntity
  8
0
 62
7
100
AcDbSpline
 70
8
 71
3
 72
8
 73
4
 74
0
 40
0
 40
0
 40
0
 40
0
 40
1
 40
1
 40
1
 40
1
 10
71.086387
 20
376.358451
 30
0.0
 10
71.086387
 20
375.212101
 30
0.0
 10
70.173537
 20
374.299257
 30
0.0
 10
69.027209
 20
374.299257
 30
0.0
  0
SPLINE
  5
19c
100
AcDbEntity
  8
0
 62
7
100
AcDbSpline
 70
8
 71
3
 72
8
 73
4
 74
0
 40
0
 40
0
 40
0
 40
0
 40
1
 40
1
 40
1
 40
1
 10
426.106031
 20
376.358451
 30
0.0
 10
426.106031
 20
377.504869
 30
0.0
 10
427.018843
 20
378.417578
 30
0.0
 10
428.165204
 20
378.417578
 30
0.0
  0
SPLINE
  5
19d
100
AcDbEntity
  8
0
 62
7
100
AcDbSpline
 70
8
 71
3
 72
8
 73
4
 74
0
 40
0
 40
0
 40
0
 40
0
 40
1
 40
1
 40
1
 40
1
 10
472.025394
 20
7.258451
 30
0.0
 10
472.025394
 20
6.112091
 30
0.0
 10
471.112529
 20
5.199225
 30
0.0
 10
469.966222
 20
5.199225
 30
0.0
  0
SPLINE
  5
19e
100
AcDbEntity
  8
0
 62
7
100
AcDbSpline
 70
8
 71
3
 72
8
 73
4
 74
0
 40
0
 40
0
 40
0
 40
0
 40
1
 40
1
 40
1
 40
1
 10
448.746215
 20
5.199225
 30
0.0
 10
447.599855
 20
5.199225
 30
0.0
 10
446.687042
 20
6.112091
 30
0.0
 10
446.687042
 20
7.258451
 30
0.0
  0
SPLINE
  5
19f
100
AcDbEntity
  8
0
 62
7
100
AcDbSpline
 70
8
 71
3
 72
8
 73
4
 74
0
 40
0
 40
0
 40
0
 40
0
 40
1
 40
1
 40
1
 40
1
 10
92.277210
 20
5.399224
 30
0.0
 10
91.130863
 20
5.399224
 30
0.0
 10
90.218032
 20
6.312089
 30
0.0
 10
90.218032
 20
7.458450
 30
0.0
  0
SPLINE
  5
1a0
100
AcDbEntity
  8
0
 62
7
100
AcDbSpline
 70
8
 71
3
 72
8
 73
4
 74
0
 40
0
 40
0
 40
0
 40
0
 40
1
 40
1
 40
1
 40
1
 10
524.717800
 20
473.997035
 30
0.0
 10
524.416043
 20
474.298789
 30
0.0
 10
524.006759
 20
474.468311
 30
0.0
 10
523.580013
 20
474.468311
 30
0.0
  0
SPLINE
  5
1a1
100
AcDbEntity
  8
0
 62
7
100
AcDbSpline
 70
8
 71
3
 72
8
 73
4
 74
0
 40
0
 40
0
 40
0
 40
0
 40
1
 40
1
 40
1
 40
1
 10
69.027209
 20
378.417578
 30
0.0
 10
70.173537
 20
378.417578
 30
0.0
 10
71.086387
 20
377.504869
 30
0.0
 10
71.086387
 20
376.358451
 30
0.0
  0
SPLINE
  5
1a2
100
AcDbEntity
  8
0
 62
7
100
AcDbSpline
 70
8
 71
3
 72
8
 73
4
 74
0
 40
0
 40
0
 40
0
 40
0
 40
1
 40
1
 40
1
 40
1
 10
484.692824
 20
34.793334
 30
0.0
 10
487.086854
 20
34.793538
 30
0.0
 10
489.027758
 20
32.624240
 30
0.0
 10
489.027996
 20
29.948086
 30
0.0
  0
SPLINE
  5
1a3
100
AcDbEntity
  8
0
 62
7
100
AcDbSpline
 70
8
 71
3
 72
8
 73
4
 74
0
 40
0
 40
0
 40
0
 40
0
 40
1
 40
1
 40
1
 40
1
 10
10.736032
 20
471.763168
 30
0.0
 10
9.847377
 20
471.763168
 30
0.0
 10
9.126979
 20
472.483563
 30
0.0
 10
9.126975
 20
473.372219
 30
0.0
  0
LWPOLYLINE
  5
1a4
100
AcDbEntity
  8
0
 62
7
100
AcDbPolyline
 90
2
 70
0
 10
100.646901
 20
278.352611
 30
0.0
 10
100.636582
 20
0.132428
 30
0.0
  0
ENDSEC
  0
SECTION
  2
OBJECTS
  0
DICTIONARY
  5
C
330
0
100
AcDbDictionary
  3
ACAD_GROUP
350
D
  3
ACAD_MLINESTYLE
350
17
  0
DICTIONARY
  5
D
330
C
100
AcDbDictionary
  0
DICTIONARY
  5
1A
330
C
100
AcDbDictionary
  0
DICTIONARY
  5
17
330
C
100
AcDbDictionary
  3
STANDARD
350
18
  0
DICTIONARY
  5
19
330
C
100
AcDbDictionary
  0
ENDSEC
  0
EOF
