<?xml version="1.0" encoding="UTF-8" standalone="no"?>
<svg
   xmlns:dc="http://purl.org/dc/elements/1.1/"
   xmlns:cc="http://creativecommons.org/ns#"
   xmlns:rdf="http://www.w3.org/1999/02/22-rdf-syntax-ns#"
   xmlns:svg="http://www.w3.org/2000/svg"
   xmlns="http://www.w3.org/2000/svg"
   xmlns:sodipodi="http://sodipodi.sourceforge.net/DTD/sodipodi-0.dtd"
   xmlns:inkscape="http://www.inkscape.org/namespaces/inkscape"
   width="368.5365mm"
   height="325.43594mm"
   id="svg2"
   version="1.1"
   inkscape:version="0.91 r13725"
   sodipodi:docname="coverplates_front_side.svg">
  <metadata
     id="metadata121">
    <rdf:RDF>
      <cc:Work
         rdf:about="">
        <dc:format>image/svg+xml</dc:format>
        <dc:type
           rdf:resource="http://purl.org/dc/dcmitype/StillImage" />
        <dc:title></dc:title>
      </cc:Work>
    </rdf:RDF>
  </metadata>
  <sodipodi:namedview
     pagecolor="#ffffff"
     bordercolor="#666666"
     borderopacity="1"
     objecttolerance="10"
     gridtolerance="10"
     guidetolerance="10"
     inkscape:pageopacity="0"
     inkscape:pageshadow="2"
     inkscape:window-width="1920"
     inkscape:window-height="1017"
     id="namedview119"
     showgrid="false"
     inkscape:document-units="mm"
     units="mm"
     inkscape:showpageshadow="false"
     showborder="false"
     fit-margin-top="0"
     fit-margin-left="0"
     fit-margin-right="0"
     fit-margin-bottom="0"
     inkscape:zoom="0.22425739"
     inkscape:cx="-102.85349"
     inkscape:cy="870.42649"
     inkscape:window-x="-8"
     inkscape:window-y="-8"
     inkscape:window-maximized="1"
     inkscape:current-layer="g117" />
  <desc
     id="desc4">C:\Users\Bo\Documents\GitHub\Round4\Sheets  (DRAFT - NOT COMPLETE OR VERIFIED)\Optional rear housing\coverplates_front_side_R15.dxf - scale = 1.000000, origin = (0.000000, 0.000000), auto = False</desc>
  <defs
     id="defs6">
    <marker
       refY="0"
       refX="0"
       style="overflow:visible"
       id="DistanceX"
       orient="auto">
      <path
         style="stroke:#000000;stroke-width:0.5"
         d="M 3,-3 -3,3 M 0,-5 0,5"
         id="path9"
         inkscape:connector-curvature="0" />
    </marker>
    <pattern
       height="8"
       width="8"
       patternUnits="userSpaceOnUse"
       y="0"
       x="0"
       id="Hatch">
      <path
         linecap="square"
         stroke="#000000"
         stroke-width="0.25"
         d="M8 4 l-4,4"
         id="path12" />
      <path
         linecap="square"
         stroke="#000000"
         stroke-width="0.25"
         d="M6 2 l-4,4"
         id="path14" />
      <path
         linecap="square"
         stroke="#000000"
         stroke-width="0.25"
         d="M4 0 l-4,4"
         id="path16" />
    </pattern>
    <symbol
       id="*Model_Space" />
    <symbol
       id="*Paper_Space" />
    <symbol
       id="*Paper_Space0" />
  </defs>
  <g
     inkscape:label="ABDECKUNG"
     inkscape:groupmode="layer"
     id="g21"
     transform="translate(0,-243.48816)">
    <path
       style="fill:none;stroke:#000000;stroke-linecap:round"
       d="m 927.818,280.30706 c 0.04,-4.3307 -3.464,-7.86087 -7.795,-7.86087"
       id="path23"
       inkscape:connector-curvature="0" />
    <path
       style="fill:none;stroke:#000000;stroke-linecap:round"
       d="m 920.023,272.44619 c -4.331,0 -7.831,3.53017 -7.795,7.86087"
       id="path25"
       inkscape:connector-curvature="0" />
    <path
       style="fill:none;stroke:#000000;stroke-linecap:round"
       d="m 912.228,280.30706 c -0.04,4.3307 3.464,7.86087 7.795,7.86087"
       id="path27"
       inkscape:connector-curvature="0" />
    <path
       style="fill:none;stroke:#000000;stroke-linecap:round"
       d="m 920.023,288.16793 c 4.331,0 7.831,-3.53017 7.795,-7.86087"
       id="path29"
       inkscape:connector-curvature="0" />
    <path
       style="fill:none;stroke:#000000;stroke-linecap:round"
       d="m 852.523,280.30706 c 0.04,-4.3307 -3.464,-7.86087 -7.795,-7.86087"
       id="path31"
       inkscape:connector-curvature="0" />
    <path
       style="fill:none;stroke:#000000;stroke-linecap:round"
       d="m 844.728,272.44619 c -4.331,0 -7.831,3.53017 -7.795,7.86087"
       id="path33"
       inkscape:connector-curvature="0" />
    <path
       style="fill:none;stroke:#000000;stroke-linecap:round"
       d="m 836.933,280.30706 c -0.04,4.3307 3.464,7.86087 7.795,7.86087"
       id="path35"
       inkscape:connector-curvature="0" />
    <path
       style="fill:none;stroke:#000000;stroke-linecap:round"
       d="m 844.728,288.16793 c 4.331,0 7.831,-3.53017 7.795,-7.86087"
       id="path37"
       inkscape:connector-curvature="0" />
    <path
       style="fill:none;stroke:#000000;stroke-linecap:round"
       d="m 1225.598,1034.1456 c 0,-3.4247 -2.776,-6.201 -6.201,-6.201"
       id="path39"
       inkscape:connector-curvature="0" />
    <path
       style="fill:none;stroke:#000000;stroke-linecap:round"
       d="m 1219.397,1027.9446 c -3.425,0 -6.201,2.7763 -6.201,6.201"
       id="path41"
       inkscape:connector-curvature="0" />
    <path
       style="fill:none;stroke:#000000;stroke-linecap:round"
       d="m 1213.196,1034.1456 c 0,3.4248 2.776,6.201 6.201,6.201"
       id="path43"
       inkscape:connector-curvature="0" />
    <path
       style="fill:none;stroke:#000000;stroke-linecap:round"
       d="m 1219.397,1040.3466 c 3.425,0 6.201,-2.7762 6.201,-6.201"
       id="path45"
       inkscape:connector-curvature="0" />
    <path
       style="fill:none;stroke:#000000;stroke-linecap:round"
       d="m 850.007,1034.1456 c 0.03,-3.4477 -2.753,-6.2605 -6.201,-6.2605"
       id="path47"
       inkscape:connector-curvature="0" />
    <path
       style="fill:none;stroke:#000000;stroke-linecap:round"
       d="m 843.806,1027.8851 c -3.447,0 -6.233,2.8128 -6.2,6.2605"
       id="path49"
       inkscape:connector-curvature="0" />
    <path
       style="fill:none;stroke:#000000;stroke-linecap:round"
       d="m 837.606,1034.1456 c -0.03,3.4478 2.753,6.2605 6.2,6.2605"
       id="path51"
       inkscape:connector-curvature="0" />
    <path
       style="fill:none;stroke:#000000;stroke-linecap:round"
       d="m 843.806,1040.4061 c 3.448,0 6.234,-2.8127 6.201,-6.2605"
       id="path53"
       inkscape:connector-curvature="0" />
    <path
       style="fill:none;stroke:#000000;stroke-linecap:round"
       d="m 1283.177,1051.8622 0,-807.87404 -1282.677,0 0,807.87404 1282.677,0 0,0 0,0 0,0 0,0 0,0 0,0 0,0 z"
       id="path55"
       inkscape:connector-curvature="0" />
    <path
       style="fill:none;stroke:#000000;stroke-linecap:round"
       d="m 470.874,1034.1456 c 0,-3.4247 -2.776,-6.201 -6.201,-6.201"
       id="path57"
       inkscape:connector-curvature="0" />
    <path
       style="fill:none;stroke:#000000;stroke-linecap:round"
       d="m 464.673,1027.9446 c -3.425,0 -6.201,2.7763 -6.201,6.201"
       id="path59"
       inkscape:connector-curvature="0" />
    <path
       style="fill:none;stroke:#000000;stroke-linecap:round"
       d="m 458.472,1034.1456 c 0,3.4248 2.776,6.201 6.201,6.201"
       id="path61"
       inkscape:connector-curvature="0" />
    <path
       style="fill:none;stroke:#000000;stroke-linecap:round"
       d="m 464.673,1040.3466 c 3.425,0 6.201,-2.7762 6.201,-6.201"
       id="path63"
       inkscape:connector-curvature="0" />
    <path
       style="fill:none;stroke:#000000;stroke-linecap:round"
       d="m 927.818,280.30706 0,0 0,0 0,0 0,0 0,0 0,0 0,0 0,0 z"
       id="path65"
       inkscape:connector-curvature="0" />
    <path
       style="fill:none;stroke:#000000;stroke-linecap:round"
       d="m 95.283,1034.1456 c 0,-3.4247 -2.776,-6.201 -6.201,-6.201"
       id="path67"
       inkscape:connector-curvature="0" />
    <path
       style="fill:none;stroke:#000000;stroke-linecap:round"
       d="m 89.082,1027.9446 c -3.425,0 -6.201,2.7763 -6.201,6.201"
       id="path69"
       inkscape:connector-curvature="0" />
    <path
       style="fill:none;stroke:#000000;stroke-linecap:round"
       d="m 82.881,1034.1456 c 0,3.4248 2.776,6.201 6.201,6.201"
       id="path71"
       inkscape:connector-curvature="0" />
    <path
       style="fill:none;stroke:#000000;stroke-linecap:round"
       d="m 89.082,1040.3466 c 3.425,0 6.201,-2.7762 6.201,-6.201"
       id="path73"
       inkscape:connector-curvature="0" />
    <path
       style="fill:none;stroke:#000000;stroke-linecap:round"
       d="m 852.523,280.30706 0,0 0,0 0,0 0,0 0,0 0,0 0,0 0,0 z"
       id="path75"
       inkscape:connector-curvature="0" />
    <path
       style="fill:none;stroke:#000000;stroke-linecap:round"
       d="m 24.417,972.13777 c 0,-3.42473 -2.776,-6.20101 -6.201,-6.20101"
       id="path77"
       inkscape:connector-curvature="0" />
    <path
       style="fill:none;stroke:#000000;stroke-linecap:round"
       d="m 18.216,965.93676 c -3.425,0 -6.201,2.77628 -6.201,6.20101"
       id="path79"
       inkscape:connector-curvature="0" />
    <path
       style="fill:none;stroke:#000000;stroke-linecap:round"
       d="m 12.015,972.13777 c 0,3.42471 2.776,6.20099 6.201,6.20099"
       id="path81"
       inkscape:connector-curvature="0" />
    <path
       style="fill:none;stroke:#000000;stroke-linecap:round"
       d="m 18.216,978.33876 c 3.425,0 6.201,-2.77628 6.201,-6.20099"
       id="path83"
       inkscape:connector-curvature="0" />
    <path
       style="fill:none;stroke:#000000;stroke-linecap:round"
       d="m 1225.598,1034.1456 0,0 0,0 0,0 0,0 0,0 0,0 0,0 0,0 z"
       id="path85"
       inkscape:connector-curvature="0" />
    <path
       style="fill:none;stroke:#000000;stroke-linecap:round"
       d="m 24.417,307.76769 c 0,-3.42472 -2.776,-6.201 -6.201,-6.201"
       id="path87"
       inkscape:connector-curvature="0" />
    <path
       style="fill:none;stroke:#000000;stroke-linecap:round"
       d="m 18.216,301.56669 c -3.425,0 -6.201,2.77628 -6.201,6.201"
       id="path89"
       inkscape:connector-curvature="0" />
    <path
       style="fill:none;stroke:#000000;stroke-linecap:round"
       d="m 12.015,307.76769 c 0,3.42472 2.776,6.201 6.201,6.201"
       id="path91"
       inkscape:connector-curvature="0" />
    <path
       style="fill:none;stroke:#000000;stroke-linecap:round"
       d="m 18.216,313.96869 c 3.425,0 6.201,-2.77628 6.201,-6.201"
       id="path93"
       inkscape:connector-curvature="0" />
    <path
       style="fill:none;stroke:#000000;stroke-linecap:round"
       d="m 850.007,1034.1456 0,0 0,0 0,0 0,0 0,0 0,0 0,0 0,0 z"
       id="path95"
       inkscape:connector-curvature="0" />
    <path
       style="fill:none;stroke:#000000;stroke-linecap:round"
       d="m 24.417,635.5236 c 0,-3.42472 -2.776,-6.201 -6.201,-6.201"
       id="path97"
       inkscape:connector-curvature="0" />
    <path
       style="fill:none;stroke:#000000;stroke-linecap:round"
       d="m 18.216,629.3226 c -3.425,0 -6.201,2.77628 -6.201,6.201"
       id="path99"
       inkscape:connector-curvature="0" />
    <path
       style="fill:none;stroke:#000000;stroke-linecap:round"
       d="m 12.015,635.5236 c 0,3.42472 2.776,6.201 6.201,6.201"
       id="path101"
       inkscape:connector-curvature="0" />
    <path
       style="fill:none;stroke:#000000;stroke-linecap:round"
       d="m 18.216,641.7246 c 3.425,0 6.201,-2.77628 6.201,-6.201"
       id="path103"
       inkscape:connector-curvature="0" />
    <path
       style="fill:none;stroke:#000000;stroke-linecap:round"
       d="m 470.874,1034.1456 0,0 0,0 0,0 0,0 0,0 0,0 0,0 0,0 z"
       id="path105"
       inkscape:connector-curvature="0" />
    <path
       style="fill:none;stroke:#000000;stroke-linecap:round"
       d="m 95.283,1034.1456 0,0 0,0 0,0 0,0 0,0 0,0 0,0 0,0 z"
       id="path107"
       inkscape:connector-curvature="0" />
    <path
       style="fill:none;stroke:#000000;stroke-linecap:round"
       d="m 24.417,972.13777 0,0 0,0 0,0 0,0 0,0 0,0 0,0 0,0 z"
       id="path109"
       inkscape:connector-curvature="0" />
    <path
       style="fill:none;stroke:#000000;stroke-linecap:round"
       d="m 24.417,307.76769 0,0 0,0 0,0 0,0 0,0 0,0 0,0 0,0 z"
       id="path111"
       inkscape:connector-curvature="0" />
    <path
       style="fill:none;stroke:#000000;stroke-linecap:round"
       d="m 24.417,635.5236 0,0 0,0 0,0 0,0 0,0 0,0 0,0 0,0 z"
       id="path113"
       inkscape:connector-curvature="0" />
    <path
       style="fill:none;stroke:#000000;stroke-linecap:round"
       d="m 1305.838,1396.1076 0,0 0,0 0,0 0,0 0,0 0,0 0,0 0,0 z"
       id="path115"
       inkscape:connector-curvature="0" />
  </g>
  <g
     inkscape:label="0"
     inkscape:groupmode="layer"
     id="g117"
     transform="translate(0,-243.48816)" />
</svg>
