<?xml version="1.0" encoding="UTF-8" standalone="no"?>
<svg
   xmlns:dc="http://purl.org/dc/elements/1.1/"
   xmlns:cc="http://creativecommons.org/ns#"
   xmlns:rdf="http://www.w3.org/1999/02/22-rdf-syntax-ns#"
   xmlns:svg="http://www.w3.org/2000/svg"
   xmlns="http://www.w3.org/2000/svg"
   xmlns:sodipodi="http://sodipodi.sourceforge.net/DTD/sodipodi-0.dtd"
   xmlns:inkscape="http://www.inkscape.org/namespaces/inkscape"
   width="339.73199mm"
   height="298.45764mm"
   id="svg2"
   version="1.1"
   inkscape:version="0.91 r13725"
   sodipodi:docname="coverplates_rear_1_full_200_mm_travel.svg">
  <metadata
     id="metadata174">
    <rdf:RDF>
      <cc:Work
         rdf:about="">
        <dc:format>image/svg+xml</dc:format>
        <dc:type
           rdf:resource="http://purl.org/dc/dcmitype/StillImage" />
        <dc:title></dc:title>
      </cc:Work>
    </rdf:RDF>
  </metadata>
  <sodipodi:namedview
     pagecolor="#ffffff"
     bordercolor="#666666"
     borderopacity="1"
     objecttolerance="10"
     gridtolerance="10"
     guidetolerance="10"
     inkscape:pageopacity="0"
     inkscape:pageshadow="2"
     inkscape:window-width="1920"
     inkscape:window-height="1017"
     id="namedview172"
     showgrid="false"
     inkscape:document-units="mm"
     units="mm"
     inkscape:showpageshadow="false"
     showborder="false"
     fit-margin-top="0"
     fit-margin-left="0"
     fit-margin-right="0"
     fit-margin-bottom="0"
     inkscape:zoom="0.80376193"
     inkscape:cx="566.45448"
     inkscape:cy="528.76353"
     inkscape:window-x="-8"
     inkscape:window-y="-8"
     inkscape:window-maximized="1"
     inkscape:current-layer="g22" />
  <desc
     id="desc4">C:\Users\Bo\Documents\GitHub\Round4\Sheets  (DRAFT - NOT COMPLETE OR VERIFIED)\Optional rear housing\coverplates_rear_1.dxf - scale = 1.000000, origin = (0.000000, 0.000000), auto = False</desc>
  <defs
     id="defs6">
    <marker
       refY="0"
       refX="0"
       style="overflow:visible"
       id="DistanceX"
       orient="auto">
      <path
         style="stroke:#000000;stroke-width:0.5"
         d="M 3,-3 -3,3 M 0,-5 0,5"
         id="path9"
         inkscape:connector-curvature="0" />
    </marker>
    <pattern
       height="8"
       width="8"
       patternUnits="userSpaceOnUse"
       y="0"
       x="0"
       id="Hatch">
      <path
         linecap="square"
         stroke="#000000"
         stroke-width="0.25"
         d="M8 4 l-4,4"
         id="path12" />
      <path
         linecap="square"
         stroke="#000000"
         stroke-width="0.25"
         d="M6 2 l-4,4"
         id="path14" />
      <path
         linecap="square"
         stroke="#000000"
         stroke-width="0.25"
         d="M4 0 l-4,4"
         id="path16" />
    </pattern>
    <symbol
       id="*MODEL_SPACE" />
    <symbol
       id="*PAPER_SPACE" />
  </defs>
  <g
     inkscape:label="0"
     inkscape:groupmode="layer"
     id="g20"
     transform="translate(1.1675411e-8,5.1648677)" />
  <g
     inkscape:label="ABDECKUNG"
     inkscape:groupmode="layer"
     id="g22"
     transform="translate(1.1675411e-8,5.1648677)">
    <path
       style="fill:none;stroke:#000000"
       d="M 40.539253,656.96734 C 42.951189,655.57481 44.437,653.0013 44.437,650.21624"
       id="path24"
       inkscape:connector-curvature="0" />
    <path
       style="fill:none;stroke:#000000"
       d="m 44.437,650.21624 c 0,-2.78507 -1.485811,-5.35857 -3.897747,-6.7511"
       id="path26"
       inkscape:connector-curvature="0" />
    <path
       style="fill:none;stroke:#000000"
       d="m 40.539253,643.46514 c -2.411936,-1.39253 -5.383566,-1.39253 -7.795503,0"
       id="path28"
       inkscape:connector-curvature="0" />
    <path
       style="fill:none;stroke:#000000"
       d="m 32.74375,643.46514 c -2.411936,1.39253 -3.897747,3.96603 -3.897747,6.7511"
       id="path30"
       inkscape:connector-curvature="0" />
    <path
       style="fill:none;stroke:#000000"
       d="m 28.846003,650.21624 c 0,2.78506 1.485811,5.35857 3.897747,6.7511"
       id="path32"
       inkscape:connector-curvature="0" />
    <path
       style="fill:none;stroke:#000000"
       d="m 32.74375,656.96734 c 2.411937,1.39253 5.383567,1.39253 7.795503,0"
       id="path34"
       inkscape:connector-curvature="0" />
    <path
       style="fill:none;stroke:#000000"
       d="m 40.539253,656.96734 0,0 0,0 z"
       id="path36"
       inkscape:connector-curvature="0" />
    <path
       style="fill:none;stroke:#000000"
       d="m 28.846003,575.02724 c 0,2.78506 1.485811,5.35857 3.897747,6.7511"
       id="path38"
       inkscape:connector-curvature="0" />
    <path
       style="fill:none;stroke:#000000"
       d="m 32.74375,581.77834 c 2.411937,1.39253 5.383567,1.39253 7.795503,0"
       id="path40"
       inkscape:connector-curvature="0" />
    <path
       style="fill:none;stroke:#000000"
       d="M 40.539253,581.77834 C 42.951189,580.38581 44.437,577.8123 44.437,575.02724"
       id="path42"
       inkscape:connector-curvature="0" />
    <path
       style="fill:none;stroke:#000000"
       d="m 44.437,575.02724 c 0,-2.78507 -1.485811,-5.35857 -3.897747,-6.75111"
       id="path44"
       inkscape:connector-curvature="0" />
    <path
       style="fill:none;stroke:#000000"
       d="m 40.539253,568.27613 c -2.411936,-1.39253 -5.383566,-1.39253 -7.795503,0"
       id="path46"
       inkscape:connector-curvature="0" />
    <path
       style="fill:none;stroke:#000000"
       d="m 32.74375,568.27613 c -2.411936,1.39254 -3.897747,3.96604 -3.897747,6.75111"
       id="path48"
       inkscape:connector-curvature="0" />
    <path
       style="fill:none;stroke:#000000"
       d="m 566.4545,1051.8622 0,0 0,0 0,0 0,0 z"
       id="path50"
       inkscape:connector-curvature="0" />
    <path
       style="fill:none;stroke:#000000"
       d="m 28.846003,575.02724 0,0 0,0 z"
       id="path52"
       inkscape:connector-curvature="0" />
    <path
       style="fill:none;stroke:#000000;stroke-width:1.03080022"
       d="m 1203.2594,1048.6103 -1202.7439999,0 0,-1053.2597676 1202.7439999,0 0,1053.2597676 0,0 0,0 0,0 z"
       id="path54"
       inkscape:connector-curvature="0" />
    <path
       style="fill:none;stroke:#000000"
       d="m 1171.0307,643.46514 c -2.412,-1.39253 -5.3836,-1.39253 -7.7954,0"
       id="path56"
       inkscape:connector-curvature="0" />
    <path
       style="fill:none;stroke:#000000"
       d="m 1163.2353,643.46514 c -2.412,1.39253 -3.8978,3.96603 -3.8978,6.7511"
       id="path58"
       inkscape:connector-curvature="0" />
    <path
       style="fill:none;stroke:#000000"
       d="m 1159.3375,650.21624 c 0,2.78506 1.4858,5.35857 3.8978,6.7511"
       id="path60"
       inkscape:connector-curvature="0" />
    <path
       style="fill:none;stroke:#000000"
       d="m 1163.2353,656.96734 c 2.4118,1.39253 5.3834,1.39253 7.7954,0"
       id="path62"
       inkscape:connector-curvature="0" />
    <path
       style="fill:none;stroke:#000000"
       d="m 1171.0307,656.96734 c 2.4119,-1.39253 3.8976,-3.96604 3.8976,-6.7511"
       id="path64"
       inkscape:connector-curvature="0" />
    <path
       style="fill:none;stroke:#000000"
       d="m 1174.9283,650.21624 c 0,-2.78507 -1.4857,-5.35857 -3.8976,-6.7511"
       id="path66"
       inkscape:connector-curvature="0" />
    <path
       style="fill:none;stroke:#000000"
       d="m 32.74375,643.46514 0,0 0,0 0,0 0,0 z"
       id="path68"
       inkscape:connector-curvature="0" />
    <path
       style="fill:none;stroke:#000000"
       d="m 1171.0307,643.46514 0,0 0,0 z"
       id="path70"
       inkscape:connector-curvature="0" />
    <path
       style="fill:none;stroke:#000000"
       d="m 40.539253,568.27613 0,0 0,0 0,0 0,0 z"
       id="path72"
       inkscape:connector-curvature="0" />
    <path
       style="fill:none;stroke:#000000"
       d="m 1163.2353,568.27613 c -2.412,1.39254 -3.8978,3.96604 -3.8978,6.75111"
       id="path74"
       inkscape:connector-curvature="0" />
    <path
       style="fill:none;stroke:#000000"
       d="m 1159.3375,575.02724 c 0,2.78506 1.4858,5.35857 3.8978,6.7511"
       id="path76"
       inkscape:connector-curvature="0" />
    <path
       style="fill:none;stroke:#000000"
       d="m 1163.2353,581.77834 c 2.4118,1.39253 5.3834,1.39253 7.7954,0"
       id="path78"
       inkscape:connector-curvature="0" />
    <path
       style="fill:none;stroke:#000000"
       d="m 1171.0307,581.77834 c 2.4119,-1.39253 3.8976,-3.96604 3.8976,-6.7511"
       id="path80"
       inkscape:connector-curvature="0" />
    <path
       style="fill:none;stroke:#000000"
       d="m 1174.9283,575.02724 c 0,-2.78507 -1.4857,-5.35857 -3.8976,-6.75111"
       id="path82"
       inkscape:connector-curvature="0" />
    <path
       style="fill:none;stroke:#000000"
       d="m 1171.0307,568.27613 c -2.412,-1.39253 -5.3836,-1.39253 -7.7954,0"
       id="path84"
       inkscape:connector-curvature="0" />
    <path
       style="fill:none;stroke:#000000"
       d="m 44.437,650.21624 0,0 0,0 0,0 0,0 0,0 z"
       id="path86"
       inkscape:connector-curvature="0" />
    <path
       style="fill:none;stroke:#000000"
       d="m 1163.2353,568.27613 0,0 0,0 z"
       id="path88"
       inkscape:connector-curvature="0" />
    <path
       style="fill:none;stroke:#000000"
       d="m 1163.2353,656.96734 0,0 0,0 0,0 0,0 z"
       id="path90"
       inkscape:connector-curvature="0" />
    <path
       style="fill:none;stroke:#000000"
       d="m 53.240443,27.647678 c 2.421464,1.407107 5.411653,1.407107 7.833118,0"
       id="path92"
       inkscape:connector-curvature="0" />
    <path
       style="fill:none;stroke:#000000"
       d="m 61.073561,27.647678 c 2.421464,-1.407104 3.902006,-4.005029 3.87844,-6.805542"
       id="path94"
       inkscape:connector-curvature="0" />
    <path
       style="fill:none;stroke:#000000"
       d="m 64.952001,20.842136 c 0.02357,-2.800516 -1.456976,-5.398441 -3.87844,-6.805545"
       id="path96"
       inkscape:connector-curvature="0" />
    <path
       style="fill:none;stroke:#000000"
       d="m 61.073561,14.036591 c -2.421465,-1.407104 -5.411654,-1.407104 -7.833118,0"
       id="path98"
       inkscape:connector-curvature="0" />
    <path
       style="fill:none;stroke:#000000"
       d="m 53.240443,14.036591 c -2.421465,1.407104 -3.902007,4.005029 -3.878441,6.805545"
       id="path100"
       inkscape:connector-curvature="0" />
    <path
       style="fill:none;stroke:#000000"
       d="m 49.362002,20.842136 c -0.02357,2.800513 1.456976,5.398438 3.878441,6.805542"
       id="path102"
       inkscape:connector-curvature="0" />
    <path
       style="fill:none;stroke:#000000"
       d="m 44.437,575.02724 0,0 0,0 0,0 0,0 0,0 z"
       id="path104"
       inkscape:connector-curvature="0" />
    <path
       style="fill:none;stroke:#000000"
       d="m 53.240443,27.647678 0,0 0,0 z"
       id="path106"
       inkscape:connector-curvature="0" />
    <path
       style="fill:none;stroke:#000000"
       d="m 1171.0307,581.77834 0,0 0,0 0,0 0,0 z"
       id="path108"
       inkscape:connector-curvature="0" />
    <path
       style="fill:none;stroke:#000000"
       d="m 124.657,20.842136 c 0,2.785064 1.48581,5.358568 3.89775,6.751099"
       id="path110"
       inkscape:connector-curvature="0" />
    <path
       style="fill:none;stroke:#000000"
       d="m 128.55475,27.593235 c 2.41194,1.392534 5.38356,1.392534 7.7955,0"
       id="path112"
       inkscape:connector-curvature="0" />
    <path
       style="fill:none;stroke:#000000"
       d="M 136.35025,27.593235 C 138.76219,26.200704 140.248,23.6272 140.248,20.842136"
       id="path114"
       inkscape:connector-curvature="0" />
    <path
       style="fill:none;stroke:#000000"
       d="m 140.248,20.842136 c 0,-2.785064 -1.48581,-5.358571 -3.89775,-6.751102"
       id="path116"
       inkscape:connector-curvature="0" />
    <path
       style="fill:none;stroke:#000000"
       d="m 136.35025,14.091034 c -2.41194,-1.392534 -5.38356,-1.392534 -7.7955,0"
       id="path118"
       inkscape:connector-curvature="0" />
    <path
       style="fill:none;stroke:#000000"
       d="m 128.55475,14.091034 c -2.41194,1.392531 -3.89775,3.966038 -3.89775,6.751102"
       id="path120"
       inkscape:connector-curvature="0" />
    <path
       style="fill:none;stroke:#000000"
       d="m 1174.9283,650.21624 0,0 0,0 0,0 0,0 0,0 z"
       id="path122"
       inkscape:connector-curvature="0" />
    <path
       style="fill:none;stroke:#000000"
       d="m 124.657,20.842136 0,0 0,0 z"
       id="path124"
       inkscape:connector-curvature="0" />
    <path
       style="fill:none;stroke:#000000"
       d="m 53.240443,14.036591 0,0 0,0 0,0 0,0 z"
       id="path126"
       inkscape:connector-curvature="0" />
    <path
       style="fill:none;stroke:#000000"
       d="m 1142.7195,27.593232 c 2.4119,1.392534 5.3834,1.392534 7.7954,0"
       id="path128"
       inkscape:connector-curvature="0" />
    <path
       style="fill:none;stroke:#000000"
       d="m 1150.5149,27.593232 c 2.4119,-1.392531 3.8977,-3.966035 3.8977,-6.751099"
       id="path130"
       inkscape:connector-curvature="0" />
    <path
       style="fill:none;stroke:#000000"
       d="m 1154.4126,20.842133 c 0,-2.785064 -1.4858,-5.358571 -3.8977,-6.751102"
       id="path132"
       inkscape:connector-curvature="0" />
    <path
       style="fill:none;stroke:#000000"
       d="m 1150.5149,14.091031 c -2.412,-1.392534 -5.3835,-1.392534 -7.7954,0"
       id="path134"
       inkscape:connector-curvature="0" />
    <path
       style="fill:none;stroke:#000000"
       d="m 1142.7195,14.091031 c -2.412,1.392531 -3.8978,3.966038 -3.8978,6.751102"
       id="path136"
       inkscape:connector-curvature="0" />
    <path
       style="fill:none;stroke:#000000"
       d="m 1138.8217,20.842133 c 0,2.785064 1.4858,5.358568 3.8978,6.751099"
       id="path138"
       inkscape:connector-curvature="0" />
    <path
       style="fill:none;stroke:#000000"
       d="m 1174.9283,575.02724 0,0 0,0 0,0 0,0 0,0 z"
       id="path140"
       inkscape:connector-curvature="0" />
    <path
       style="fill:none;stroke:#000000"
       d="m 1142.7195,27.593232 0,0 0,0 z"
       id="path142"
       inkscape:connector-curvature="0" />
    <path
       style="fill:none;stroke:#000000"
       d="m 128.55475,14.091034 0,0 0,0 0,0 0,0 z"
       id="path144"
       inkscape:connector-curvature="0" />
    <path
       style="fill:none;stroke:#000000"
       d="m 1075.2207,27.593232 c 2.4119,-1.392531 3.8977,-3.966035 3.8977,-6.751099"
       id="path146"
       inkscape:connector-curvature="0" />
    <path
       style="fill:none;stroke:#000000"
       d="m 1079.1184,20.842133 c 0,-2.785064 -1.4858,-5.358571 -3.8977,-6.751102"
       id="path148"
       inkscape:connector-curvature="0" />
    <path
       style="fill:none;stroke:#000000"
       d="m 1075.2207,14.091031 c -2.4119,-1.392534 -5.3835,-1.392534 -7.7954,0"
       id="path150"
       inkscape:connector-curvature="0" />
    <path
       style="fill:none;stroke:#000000"
       d="m 1067.4253,14.091031 c -2.4119,1.392531 -3.8977,3.966038 -3.8977,6.751102"
       id="path152"
       inkscape:connector-curvature="0" />
    <path
       style="fill:none;stroke:#000000"
       d="m 1063.5276,20.842133 c 0,2.785064 1.4858,5.358568 3.8977,6.751099"
       id="path154"
       inkscape:connector-curvature="0" />
    <path
       style="fill:none;stroke:#000000"
       d="m 1067.4253,27.593232 c 2.4119,1.392534 5.3835,1.392534 7.7954,0"
       id="path156"
       inkscape:connector-curvature="0" />
    <path
       style="fill:none;stroke:#000000"
       d="m 64.952001,20.842136 0,0 0,0 0,0 0,0 0,0 z"
       id="path158"
       inkscape:connector-curvature="0" />
    <path
       style="fill:none;stroke:#000000"
       d="m 1075.2207,27.593232 0,0 0,0 z"
       id="path160"
       inkscape:connector-curvature="0" />
    <path
       style="fill:none;stroke:#000000"
       d="m 1138.8217,20.842133 0,0 0,0 0,0 0,0 z"
       id="path162"
       inkscape:connector-curvature="0" />
    <path
       style="fill:none;stroke:#000000"
       d="m 140.248,20.842136 0,0 0,0 0,0 0,0 0,0 z"
       id="path164"
       inkscape:connector-curvature="0" />
    <path
       style="fill:none;stroke:#000000"
       d="m 1063.5276,20.842133 0,0 0,0 0,0 0,0 z"
       id="path166"
       inkscape:connector-curvature="0" />
    <path
       style="fill:none;stroke:#000000"
       d="m 1154.4126,20.842133 0,0 0,0 0,0 0,0 0,0 z"
       id="path168"
       inkscape:connector-curvature="0" />
    <path
       style="fill:none;stroke:#000000"
       d="m 1079.1184,20.842133 0,0 0,0 0,0 0,0 0,0 z"
       id="path170"
       inkscape:connector-curvature="0" />
  </g>
</svg>
