<?xml version="1.0" encoding="UTF-8" standalone="no"?>
<svg
   xmlns:dc="http://purl.org/dc/elements/1.1/"
   xmlns:cc="http://creativecommons.org/ns#"
   xmlns:rdf="http://www.w3.org/1999/02/22-rdf-syntax-ns#"
   xmlns:svg="http://www.w3.org/2000/svg"
   xmlns="http://www.w3.org/2000/svg"
   xmlns:sodipodi="http://sodipodi.sourceforge.net/DTD/sodipodi-0.dtd"
   xmlns:inkscape="http://www.inkscape.org/namespaces/inkscape"
   width="427.30936mm"
   height="286.36124mm"
   id="svg2"
   version="1.1"
   inkscape:version="0.91 r13725"
   sodipodi:docname="coverplates_front_top_mk42.svg">
  <metadata
     id="metadata101">
    <rdf:RDF>
      <cc:Work
         rdf:about="">
        <dc:format>image/svg+xml</dc:format>
        <dc:type
           rdf:resource="http://purl.org/dc/dcmitype/StillImage" />
        <dc:title></dc:title>
      </cc:Work>
    </rdf:RDF>
  </metadata>
  <sodipodi:namedview
     pagecolor="#ffffff"
     bordercolor="#666666"
     borderopacity="1"
     objecttolerance="10"
     gridtolerance="10"
     guidetolerance="10"
     inkscape:pageopacity="0"
     inkscape:pageshadow="2"
     inkscape:window-width="1920"
     inkscape:window-height="1017"
     id="namedview99"
     showgrid="false"
     units="mm"
     inkscape:document-units="mm"
     fit-margin-top="0"
     fit-margin-left="0"
     fit-margin-right="0"
     fit-margin-bottom="0"
     inkscape:showpageshadow="false"
     showborder="false"
     inkscape:zoom="0.83771425"
     inkscape:cx="736.15396"
     inkscape:cy="507.3329"
     inkscape:window-x="-8"
     inkscape:window-y="-8"
     inkscape:window-maximized="1"
     inkscape:current-layer="g21" />
  <desc
     id="desc4">C:\Users\Bo\Documents\GitHub\Round4\Sheets  (DRAFT - NOT COMPLETE OR VERIFIED)\Optional rear housing\coverplates_front_top_R15.dxf - scale = 1.000000, origin = (0.000000, 0.000000), auto = False</desc>
  <defs
     id="defs6">
    <marker
       refY="0"
       refX="0"
       style="overflow:visible"
       id="DistanceX"
       orient="auto">
      <path
         style="stroke:#000000;stroke-width:0.5"
         d="M 3,-3 -3,3 M 0,-5 0,5"
         id="path9"
         inkscape:connector-curvature="0" />
    </marker>
    <pattern
       height="8"
       width="8"
       patternUnits="userSpaceOnUse"
       y="0"
       x="0"
       id="Hatch">
      <path
         linecap="square"
         stroke="#000000"
         stroke-width="0.25"
         d="M8 4 l-4,4"
         id="path12" />
      <path
         linecap="square"
         stroke="#000000"
         stroke-width="0.25"
         d="M6 2 l-4,4"
         id="path14" />
      <path
         linecap="square"
         stroke="#000000"
         stroke-width="0.25"
         d="M4 0 l-4,4"
         id="path16" />
    </pattern>
    <symbol
       id="*Model_Space" />
    <symbol
       id="*Paper_Space" />
    <symbol
       id="*Paper_Space0" />
  </defs>
  <g
     inkscape:label="ABDECKUNG"
     inkscape:groupmode="layer"
     id="g21"
     transform="translate(0.04841428,-37.696396)">
    <path
       style="fill:none;stroke:#000000;stroke-linecap:round"
       d="m 1674.1828,988.9685 c 0,-3.1312 -2.538,-5.6695 -5.67,-5.6695"
       id="path23"
       inkscape:connector-curvature="0" />
    <path
       style="fill:none;stroke:#000000;stroke-linecap:round"
       d="m 1668.5128,983.299 c -3.131,0 -5.669,2.5383 -5.669,5.6695"
       id="path25"
       inkscape:connector-curvature="0" />
    <path
       style="fill:none;stroke:#000000;stroke-linecap:round"
       d="m 1662.8438,988.9685 c 0,3.1312 2.538,5.6695 5.669,5.6695"
       id="path27"
       inkscape:connector-curvature="0" />
    <path
       style="fill:none;stroke:#000000;stroke-linecap:round"
       d="m 1668.5128,994.638 c 3.132,0 5.67,-2.5383 5.67,-5.6695"
       id="path29"
       inkscape:connector-curvature="0" />
    <path
       style="fill:none;stroke:#000000;stroke-linecap:round"
       d="m 28.314999,988.9685 c 0.03,-3.1534 -2.515,-5.7268 -5.669001,-5.7268"
       id="path31"
       inkscape:connector-curvature="0" />
    <path
       style="fill:none;stroke:#000000;stroke-linecap:round"
       d="m 22.645998,983.2417 c -3.153996,0 -5.700996,2.5734 -5.668997,5.7268"
       id="path33"
       inkscape:connector-curvature="0" />
    <path
       style="fill:none;stroke:#000000;stroke-linecap:round"
       d="m 16.977001,988.9685 c -0.03,3.1534 2.515001,5.7268 5.668997,5.7268"
       id="path35"
       inkscape:connector-curvature="0" />
    <path
       style="fill:none;stroke:#000000;stroke-linecap:round"
       d="m 22.645998,994.6953 c 3.154001,0 5.701001,-2.5734 5.669001,-5.7268"
       id="path37"
       inkscape:connector-curvature="0" />
    <path
       style="fill:none;stroke:#000000;stroke-width:1.08222771;stroke-linecap:round"
       d="m 0.54111386,946.69038 0,-134.56336 1690.07448614,0 0,134.56336 -1690.07448614,0 0,0 0,0 0,0 0,0 0,0 z"
       id="path39"
       inkscape:connector-curvature="0" />
    <path
       style="fill:none;stroke:#000000;stroke-width:1.08205688;stroke-linecap:round"
       d="m 0.54102844,1051.8211 0,-88.50058 1690.07467156,0 0,88.50058 -1690.07467156,0 0,0 0,0 0,0 0,0 0,0 z"
       id="path41"
       inkscape:connector-curvature="0" />
    <path
       style="fill:none;stroke:#000000;stroke-linecap:round"
       d="m 1674.1828,988.9685 0,0 0,0 0,0 0,0 0,0 0,0 z"
       id="path43"
       inkscape:connector-curvature="0" />
    <path
       style="fill:none;stroke:#000000;stroke-linecap:round"
       d="m 0.5,55.925376 c 0,-9.78476 7.932001,-17.71679 17.716999,-17.71654"
       id="path45"
       inkscape:connector-curvature="0" />
    <path
       style="fill:none;stroke:#000000;stroke-linecap:round"
       d="m 28.314999,988.9685 0,0 0,0 0,0 0,0 0,0 0,0 z"
       id="path47"
       inkscape:connector-curvature="0" />
    <path
       style="fill:none;stroke:#000000;stroke-linecap:round"
       d="m 1672.9422,38.208836 c 9.784,3e-4 17.716,7.93218 17.716,17.71654"
       id="path49"
       inkscape:connector-curvature="0" />
    <path
       style="fill:none;stroke:#000000;stroke-linecap:round"
       d="m 1690.6582,769.90175 c 0,9.78437 -7.932,17.71624 -17.716,17.71654"
       id="path53"
       inkscape:connector-curvature="0" />
    <path
       style="fill:none;stroke:#000000;stroke-width:1.09672856;stroke-linecap:round"
       d="m 0.49995,769.79861 0,-713.874573 0,713.874573 0,0 0,0 0,0 0,0 z"
       id="path55"
       inkscape:connector-curvature="0" />
    <path
       style="fill:none;stroke:#000000;stroke-linecap:round"
       d="M 18.216999,787.61829 C 8.432001,787.61855 0.5,779.68651 0.5,769.90175"
       id="path57"
       inkscape:connector-curvature="0" />
    <path
       style="fill:none;stroke:#000000;stroke-width:1.08458388;stroke-linecap:round"
       d="m 18.216999,38.208836 1654.724401,0 -1654.724401,0 0,0 0,0 0,0 0,0 z"
       id="path59"
       inkscape:connector-curvature="0" />
    <path
       style="fill:none;stroke:#000000;stroke-width:1.09672856;stroke-linecap:round"
       d="m 1690.6578,56.025834 0,713.874576 0,-713.874576 0,0 0,0 0,0 0,0 z"
       id="path69"
       inkscape:connector-curvature="0" />
    <path
       style="fill:none;stroke:#000000;stroke-width:1.08458388;stroke-linecap:round"
       d="m 1672.9414,787.61829 -1654.724401,0 1654.724401,0 0,0 0,0 0,0 0,0 z"
       id="path79"
       inkscape:connector-curvature="0" />
    <path
       style="fill:none;stroke:#000000;stroke-linecap:round"
       d="m 0.5,769.90175 0,0 0,0 0,0 0,0 0,0 0,0 z"
       id="path81"
       inkscape:connector-curvature="0" />
    <g
       id="g4241"
       transform="translate(135.96482,4.6733864e-4)">
      <path
         inkscape:connector-curvature="0"
         id="path61"
         d="m 624.477,674.23199 c 0,-3.13118 -2.538,-5.6695 -5.669,-5.6695"
         style="fill:none;stroke:#000000;stroke-linecap:round" />
      <path
         inkscape:connector-curvature="0"
         id="path63"
         d="m 618.808,668.56249 c -3.132,0 -5.67,2.53832 -5.67,5.6695"
         style="fill:none;stroke:#000000;stroke-linecap:round" />
      <path
         inkscape:connector-curvature="0"
         id="path65"
         d="m 613.138,674.23199 c 0,3.13118 2.538,5.6695 5.67,5.6695"
         style="fill:none;stroke:#000000;stroke-linecap:round" />
      <path
         inkscape:connector-curvature="0"
         id="path67"
         d="m 618.808,679.90149 c 3.131,0 5.669,-2.53832 5.669,-5.6695"
         style="fill:none;stroke:#000000;stroke-linecap:round" />
      <path
         inkscape:connector-curvature="0"
         id="path71"
         d="m 829.988,674.23199 c 0.03,-3.15336 -2.515,-5.72673 -5.669,-5.72673"
         style="fill:none;stroke:#000000;stroke-linecap:round" />
      <path
         inkscape:connector-curvature="0"
         id="path73"
         d="m 824.319,668.50526 c -3.154,0 -5.701,2.57337 -5.669,5.72673"
         style="fill:none;stroke:#000000;stroke-linecap:round" />
      <path
         inkscape:connector-curvature="0"
         id="path75"
         d="m 818.65,674.23199 c -0.03,3.15336 2.515,5.72673 5.669,5.72673"
         style="fill:none;stroke:#000000;stroke-linecap:round" />
      <path
         inkscape:connector-curvature="0"
         id="path77"
         d="m 824.319,679.95872 c 3.154,0 5.701,-2.57337 5.669,-5.72673"
         style="fill:none;stroke:#000000;stroke-linecap:round" />
      <path
         inkscape:connector-curvature="0"
         id="path83"
         d="m 732.193,747.75561 c 0,-5.87079 -4.759,-10.63 -10.63,-10.63"
         style="fill:none;stroke:#000000;stroke-linecap:round" />
      <path
         inkscape:connector-curvature="0"
         id="path85"
         d="m 721.563,737.12561 c -5.871,0 -10.63,4.75921 -10.63,10.63"
         style="fill:none;stroke:#000000;stroke-linecap:round" />
      <path
         inkscape:connector-curvature="0"
         id="path87"
         d="m 710.933,747.75561 c 0,5.87079 4.759,10.63 10.63,10.63"
         style="fill:none;stroke:#000000;stroke-linecap:round" />
      <path
         inkscape:connector-curvature="0"
         id="path89"
         d="m 721.563,758.38561 c 5.871,0 10.63,-4.75921 10.63,-10.63"
         style="fill:none;stroke:#000000;stroke-linecap:round" />
      <path
         inkscape:connector-curvature="0"
         id="path91"
         d="m 624.477,674.23199 0,0 0,0 0,0 0,0 0,0 0,0 z"
         style="fill:none;stroke:#000000;stroke-linecap:round" />
      <path
         inkscape:connector-curvature="0"
         id="path93"
         d="m 829.988,674.23199 0,0 0,0 0,0 0,0 0,0 0,0 z"
         style="fill:none;stroke:#000000;stroke-linecap:round" />
      <path
         inkscape:connector-curvature="0"
         id="path95"
         d="m 732.193,747.75561 0,0 0,0 0,0 0,0 0,0 0,0 z"
         style="fill:none;stroke:#000000;stroke-linecap:round" />
    </g>
  </g>
  <g
     inkscape:label="0"
     inkscape:groupmode="layer"
     id="g97"
     transform="translate(0.04841428,-37.696396)" />
</svg>
