0
SECTION
2
HEADER
9
$INSUNITS
70
4
9
$ACADVER
1
AC1014
9
$HANDSEED
5
FFFF
0
ENDSEC
0
SECTION
2
TABLES
0
TABLE
2
VPORT
5
8
100
AcDbSymbolTable
0
ENDTAB
0
TABLE
2
LTYPE
5
5
100
AcDbSymbolTable
0
LTYPE
5
14
100
AcDbSymbolTableRecord
100
AcDbLinetypeTableRecord
2
BYBLOCK
70
0
0
LTYPE
5
15
100
AcDbSymbolTableRecord
100
AcDbLinetypeTableRecord
2
BYLAYER
70
0
0
ENDTAB
0
TABLE
2
LAYER
5
2
100
AcDbSymbolTable
70
2
0
LAYER
5
50
100
AcDbSymbolTableRecord
100
AcDbLayerTableRecord
2
0
70
0
6
CONTINUOUS
0
ENDTAB
0
TABLE
2
STYLE
5
3
100
AcDbSymbolTable
70
1
0
STYLE
5
11
100
AcDbSymbolTableRecord
100
AcDbTextStyleTableRecord
2
STANDARD
70
0
0
ENDTAB
0
TABLE
2
VIEW
5
6
100
AcDbSymbolTable
70
0
0
ENDTAB
0
TABLE
2
UCS
5
7
100
AcDbSymbolTable
70
0
0
ENDTAB
0
TABLE
2
APPID
5
9
100
AcDbSymbolTable
70
2
0
APPID
5
12
100
AcDbSymbolTableRecord
100
AcDbRegAppTableRecord
2
ACAD
70
0
0
ENDTAB
0
TABLE
2
DIMSTYLE
5
A
100
AcDbSymbolTable
70
1
0
ENDTAB
0
TABLE
2
BLOCK_RECORD
5
1
100
AcDbSymbolTable
70
1
0
BLOCK_RECORD
5
1F
100
AcDbSymbolTableRecord
100
AcDbBlockTableRecord
2
*MODEL_SPACE
0
BLOCK_RECORD
5
1B
100
AcDbSymbolTableRecord
100
AcDbBlockTableRecord
2
*PAPER_SPACE
0
ENDTAB
0
ENDSEC
0
SECTION
2
BLOCKS
0
BLOCK
5
20
100
AcDbEntity
100
AcDbBlockBegin
2
*MODEL_SPACE
0
ENDBLK
5
21
100
AcDbEntity
100
AcDbBlockEnd
0
BLOCK
5
1C
100
AcDbEntity
100
AcDbBlockBegin
2
*PAPER_SPACE
0
ENDBLK
5
1D
100
AcDbEntity
100
AcDbBlockEnd
0
ENDSEC
0
SECTION
2
ENTITIES
0
SPLINE
5
100
100
AcDbEntity
8
0
100
AcDbSpline
70
1064
71
3
72
8
73
4
74
0
42
0.000000001
43
0.0000000001
44
0.0000000001
40
0
40
0
40
0
40
0
40
1
40
1
40
1
40
1
10
98.52004100000002
20
61.131309999999999
30
0
10
91.513825999999995
20
68.137529000000001
30
0
10
87.577778000000009
20
77.640001000000012
30
0
10
87.577782999999997
20
87.548287999999999
30
0
0
SPLINE
5
101
100
AcDbEntity
8
0
100
AcDbSpline
70
1064
71
3
72
8
73
4
74
0
42
0.000000001
43
0.0000000001
44
0.0000000001
40
0
40
0
40
0
40
0
40
1
40
1
40
1
40
1
10
124.93701200000002
20
50.189036000000009
30
0
10
115.02872500000001
20
50.189036999999999
30
0
10
105.526256
20
54.125091000000012
30
0
10
98.52004100000002
20
61.131309999999999
30
0
0
SPLINE
5
102
100
AcDbEntity
8
0
100
AcDbSpline
70
1064
71
3
72
8
73
4
74
0
42
0.000000001
43
0.0000000001
44
0.0000000001
40
0
40
0
40
0
40
0
40
1
40
1
40
1
40
1
10
90.702069000000009
20
50.409220000000005
30
0
10
90.316956000000005
20
50.024107000000001
30
0
10
89.794631999999993
20
49.807753999999996
30
0
10
89.250000999999997
20
49.807753999999996
30
0
0
SPLINE
5
103
100
AcDbEntity
8
0
100
AcDbSpline
70
1064
71
3
72
8
73
4
74
0
42
0.000000001
43
0.0000000001
44
0.0000000001
40
0
40
0
40
0
40
0
40
1
40
1
40
1
40
1
10
87.797934000000012
20
124.81333899999998
30
0
10
88.18304599999999
20
125.19845100000001
30
0
10
88.705370000000002
20
125.414805
30
0
10
89.250000999999997
20
125.414805
30
0
0
SPLINE
5
104
100
AcDbEntity
8
0
100
AcDbSpline
70
1064
71
3
72
8
73
4
74
0
42
0.000000001
43
0.0000000001
44
0.0000000001
40
0
40
0
40
0
40
0
40
1
40
1
40
1
40
1
10
89.250000999999997
20
49.807753999999996
30
0
10
88.705370000000002
20
49.807755
30
0
10
88.18304599999999
20
50.024107999999998
30
0
10
87.797934000000012
20
50.409221000000002
30
0
0
SPLINE
5
105
100
AcDbEntity
8
0
100
AcDbSpline
70
1064
71
3
72
8
73
4
74
0
42
0.000000001
43
0.0000000001
44
0.0000000001
40
0
40
0
40
0
40
0
40
1
40
1
40
1
40
1
10
87.797934000000012
20
50.409221000000002
30
0
10
87.412823000000003
20
50.794333000000009
30
0
10
87.196468999999993
20
51.316656999999999
30
0
10
87.196470000000005
20
51.861288000000002
30
0
0
SPLINE
5
106
100
AcDbEntity
8
0
100
AcDbSpline
70
1064
71
3
72
8
73
4
74
0
42
0.000000001
43
0.0000000001
44
0.0000000001
40
0
40
0
40
0
40
0
40
1
40
1
40
1
40
1
10
160.74999600000001
20
53.914821000000003
30
0
10
161.29462700000002
20
53.914821000000003
30
0
10
161.81695099999999
20
53.698467000000001
30
0
10
162.20206200000004
20
53.313355000000008
30
0
0
SPLINE
5
107
100
AcDbEntity
8
0
100
AcDbSpline
70
1064
71
3
72
8
73
4
74
0
42
0.000000001
43
0.0000000001
44
0.0000000001
40
0
40
0
40
0
40
0
40
1
40
1
40
1
40
1
10
53.363049000000004
20
5.9479480000000002
30
0
10
52.977936999999997
20
6.3330609999999998
30
0
10
52.761582999999995
20
6.8553850000000018
30
0
10
52.761583999999999
20
7.4000160000000017
30
0
0
SPLINE
5
108
100
AcDbEntity
8
0
100
AcDbSpline
70
1064
71
3
72
8
73
4
74
0
42
0.000000001
43
0.0000000001
44
0.0000000001
40
0
40
0
40
0
40
0
40
1
40
1
40
1
40
1
10
54.81511600000001
20
5.346483000000001
30
0
10
54.270485000000008
20
5.346482
30
0
10
53.748161000000003
20
5.5628359999999999
30
0
10
53.363049000000004
20
5.9479480000000002
30
0
0
SPLINE
5
109
100
AcDbEntity
8
0
100
AcDbSpline
70
1064
71
3
72
8
73
4
74
0
42
0.000000001
43
0.0000000001
44
0.0000000001
40
0
40
0
40
0
40
0
40
1
40
1
40
1
40
1
10
56.267181999999998
20
5.9479490000000004
30
0
10
55.882070999999996
20
5.562837
30
0
10
55.359747000000006
20
5.346483000000001
30
0
10
54.81511600000001
20
5.346483000000001
30
0
0
SPLINE
5
110
100
AcDbEntity
8
0
100
AcDbSpline
70
1064
71
3
72
8
73
4
74
0
42
0.000000001
43
0.0000000001
44
0.0000000001
40
0
40
0
40
0
40
0
40
1
40
1
40
1
40
1
10
52.761583999999999
20
7.4000160000000017
30
0
10
52.761582999999995
20
7.9446470000000016
30
0
10
52.977936999999997
20
8.4669720000000019
30
0
10
53.363049000000004
20
8.8520840000000014
30
0
0
SPLINE
5
111
100
AcDbEntity
8
0
100
AcDbSpline
70
1064
71
3
72
8
73
4
74
0
42
0.000000001
43
0.0000000001
44
0.0000000001
40
0
40
0
40
0
40
0
40
1
40
1
40
1
40
1
10
33.595115999999997
20
5.346483000000001
30
0
10
33.050484999999995
20
5.346483000000001
30
0
10
32.528160999999997
20
5.5628359999999999
30
0
10
32.143049000000005
20
5.9479490000000004
30
0
0
SPLINE
5
112
100
AcDbEntity
8
0
100
AcDbSpline
70
1064
71
3
72
8
73
4
74
0
42
0.000000001
43
0.0000000001
44
0.0000000001
40
0
40
0
40
0
40
0
40
1
40
1
40
1
40
1
10
35.648646999999997
20
7.4000160000000017
30
0
10
35.648648000000009
20
6.8553850000000018
30
0
10
35.432293999999999
20
6.3330609999999998
30
0
10
35.047183000000004
20
5.9479490000000004
30
0
0
SPLINE
5
113
100
AcDbEntity
8
0
100
AcDbSpline
70
1064
71
3
72
8
73
4
74
0
42
0.000000001
43
0.0000000001
44
0.0000000001
40
0
40
0
40
0
40
0
40
1
40
1
40
1
40
1
10
32.143049000000005
20
5.9479490000000004
30
0
10
31.757936999999998
20
6.3330609999999998
30
0
10
31.541584000000004
20
6.8553850000000018
30
0
10
31.541584000000004
20
7.4000160000000017
30
0
0
LINE
5
114
100
AcDbEntity
8
0
100
AcDbLine
10
0.14100099999999999
20
0.15137500000000001
30
0
11
0.14100099999999999
21
459.151388
31
0
0
SPLINE
5
115
100
AcDbEntity
8
0
100
AcDbSpline
70
1064
71
3
72
8
73
4
74
0
42
0.000000001
43
0.0000000001
44
0.0000000001
40
0
40
0
40
0
40
0
40
1
40
1
40
1
40
1
10
162.29624400000003
20
87.548287999999999
30
0
10
162.29624900000002
20
77.640000000000001
30
0
10
158.36020099999999
20
68.137528000000003
30
0
10
151.35398500000002
20
61.131309000000002
30
0
0
SPLINE
5
116
100
AcDbEntity
8
0
100
AcDbSpline
70
1064
71
3
72
8
73
4
74
0
42
0.000000001
43
0.0000000001
44
0.0000000001
40
0
40
0
40
0
40
0
40
1
40
1
40
1
40
1
10
159.29792800000001
20
124.81334000000001
30
0
10
159.68303999999998
20
125.198452
30
0
10
160.20536500000003
20
125.414806
30
0
10
160.74999600000001
20
125.414805
30
0
0
SPLINE
5
117
100
AcDbEntity
8
0
100
AcDbSpline
70
1064
71
3
72
8
73
4
74
0
42
0.000000001
43
0.0000000001
44
0.0000000001
40
0
40
0
40
0
40
0
40
1
40
1
40
1
40
1
10
91.303534000000013
20
51.861288000000002
30
0
10
91.303534999999997
20
51.316656999999999
30
0
10
91.087181000000015
20
50.794332000000004
30
0
10
90.702069000000009
20
50.409220000000005
30
0
0
SPLINE
5
118
100
AcDbEntity
8
0
100
AcDbSpline
70
1064
71
3
72
8
73
4
74
0
42
0.000000001
43
0.0000000001
44
0.0000000001
40
0
40
0
40
0
40
0
40
1
40
1
40
1
40
1
10
54.81511600000001
20
9.4535500000000017
30
0
10
55.359747000000006
20
9.4535500000000017
30
0
10
55.882070999999996
20
9.2371960000000009
30
0
10
56.267181999999998
20
8.8520830000000004
30
0
0
SPLINE
5
119
100
AcDbEntity
8
0
100
AcDbSpline
70
1064
71
3
72
8
73
4
74
0
42
0.000000001
43
0.0000000001
44
0.0000000001
40
0
40
0
40
0
40
0
40
1
40
1
40
1
40
1
10
89.250000999999997
20
53.914821000000003
30
0
10
89.794631999999993
20
53.914821999999994
30
0
10
90.316956000000005
20
53.698468000000013
30
0
10
90.702069000000009
20
53.313356000000013
30
0
0
SPLINE
5
120
100
AcDbEntity
8
0
100
AcDbSpline
70
1064
71
3
72
8
73
4
74
0
42
0.000000001
43
0.0000000001
44
0.0000000001
40
0
40
0
40
0
40
0
40
1
40
1
40
1
40
1
10
56.267181999999998
20
8.8520830000000004
30
0
10
56.652294000000005
20
8.4669710000000009
30
0
10
56.868647000000003
20
7.9446470000000016
30
0
10
56.868647000000003
20
7.4000160000000017
30
0
0
SPLINE
5
121
100
AcDbEntity
8
0
100
AcDbSpline
70
1064
71
3
72
8
73
4
74
0
42
0.000000001
43
0.0000000001
44
0.0000000001
40
0
40
0
40
0
40
0
40
1
40
1
40
1
40
1
10
35.047183000000004
20
5.9479490000000004
30
0
10
34.662071000000005
20
5.562837
30
0
10
34.139747
20
5.346483000000001
30
0
10
33.595115999999997
20
5.346483000000001
30
0
0
SPLINE
5
122
100
AcDbEntity
8
0
100
AcDbSpline
70
1064
71
3
72
8
73
4
74
0
42
0.000000001
43
0.0000000001
44
0.0000000001
40
0
40
0
40
0
40
0
40
1
40
1
40
1
40
1
10
151.35398500000002
20
61.131309000000002
30
0
10
144.347769
20
54.12509
30
0
10
134.84530000000001
20
50.189036000000009
30
0
10
124.93701200000002
20
50.189036000000009
30
0
0
SPLINE
5
123
100
AcDbEntity
8
0
100
AcDbSpline
70
1064
71
3
72
8
73
4
74
0
42
0.000000001
43
0.0000000001
44
0.0000000001
40
0
40
0
40
0
40
0
40
1
40
1
40
1
40
1
10
87.196470000000005
20
51.861288000000002
30
0
10
87.196468999999993
20
52.405918000000007
30
0
10
87.412823000000003
20
52.928243000000002
30
0
10
87.797934000000012
20
53.313355000000008
30
0
0
SPLINE
5
124
100
AcDbEntity
8
0
100
AcDbSpline
70
1064
71
3
72
8
73
4
74
0
42
0.000000001
43
0.0000000001
44
0.0000000001
40
0
40
0
40
0
40
0
40
1
40
1
40
1
40
1
10
87.797934000000012
20
53.313355000000008
30
0
10
88.18304599999999
20
53.698467000000001
30
0
10
88.705370000000002
20
53.914821000000003
30
0
10
89.250000999999997
20
53.914821000000003
30
0
0
SPLINE
5
125
100
AcDbEntity
8
0
100
AcDbSpline
70
1064
71
3
72
8
73
4
74
0
42
0.000000001
43
0.0000000001
44
0.0000000001
40
0
40
0
40
0
40
0
40
1
40
1
40
1
40
1
10
32.143049000000005
20
8.8520840000000014
30
0
10
32.528160999999997
20
9.2371960000000009
30
0
10
33.050484999999995
20
9.4535500000000017
30
0
10
33.595115999999997
20
9.4535500000000017
30
0
0
SPLINE
5
126
100
AcDbEntity
8
0
100
AcDbSpline
70
1064
71
3
72
8
73
4
74
0
42
0.000000001
43
0.0000000001
44
0.0000000001
40
0
40
0
40
0
40
0
40
1
40
1
40
1
40
1
10
31.541584000000004
20
7.4000160000000017
30
0
10
31.541584000000004
20
7.9446470000000016
30
0
10
31.757936999999998
20
8.4669710000000009
30
0
10
32.143049000000005
20
8.8520840000000014
30
0
0
SPLINE
5
127
100
AcDbEntity
8
0
100
AcDbSpline
70
1064
71
3
72
8
73
4
74
0
42
0.000000001
43
0.0000000001
44
0.0000000001
40
0
40
0
40
0
40
0
40
1
40
1
40
1
40
1
10
53.363049000000004
20
8.8520840000000014
30
0
10
53.748161000000003
20
9.2371960000000009
30
0
10
54.270485000000008
20
9.4535500000000017
30
0
10
54.81511600000001
20
9.4535500000000017
30
0
0
SPLINE
5
128
100
AcDbEntity
8
0
100
AcDbSpline
70
1064
71
3
72
8
73
4
74
0
42
0.000000001
43
0.0000000001
44
0.0000000001
40
0
40
0
40
0
40
0
40
1
40
1
40
1
40
1
10
35.047183000000004
20
8.8520840000000014
30
0
10
35.432293999999999
20
8.4669710000000009
30
0
10
35.648648000000009
20
7.9446470000000016
30
0
10
35.648646999999997
20
7.4000160000000017
30
0
0
LINE
5
129
100
AcDbEntity
8
0
100
AcDbLine
10
0.14100099999999999
20
459.151388
30
0
11
0.14100099999999999
21
0.15137500000000001
31
0
0
SPLINE
5
130
100
AcDbEntity
8
0
100
AcDbSpline
70
1064
71
3
72
8
73
4
74
0
42
0.000000001
43
0.0000000001
44
0.0000000001
40
0
40
0
40
0
40
0
40
1
40
1
40
1
40
1
10
90.702069000000009
20
53.313356000000013
30
0
10
91.087181000000015
20
52.928243000000002
30
0
10
91.303534999999997
20
52.405918999999997
30
0
10
91.303534000000013
20
51.861288000000002
30
0
0
SPLINE
5
131
100
AcDbEntity
8
0
100
AcDbSpline
70
1064
71
3
72
8
73
4
74
0
42
0.000000001
43
0.0000000001
44
0.0000000001
40
0
40
0
40
0
40
0
40
1
40
1
40
1
40
1
10
124.93701200000002
20
124.90751100000003
30
0
10
145.56994299999999
20
124.90751100000003
30
0
10
162.29623900000001
20
108.181218
30
0
10
162.29624400000003
20
87.548287999999999
30
0
0
SPLINE
5
132
100
AcDbEntity
8
0
100
AcDbSpline
70
1064
71
3
72
8
73
4
74
0
42
0.000000001
43
0.0000000001
44
0.0000000001
40
0
40
0
40
0
40
0
40
1
40
1
40
1
40
1
10
87.577782999999997
20
87.548287999999999
30
0
10
87.577787999999998
20
108.18121699999999
30
0
10
104.30408299999999
20
124.90750900000002
30
0
10
124.93701200000002
20
124.90751100000003
30
0
0
SPLINE
5
133
100
AcDbEntity
8
0
100
AcDbSpline
70
1064
71
3
72
8
73
4
74
0
42
0.000000001
43
0.0000000001
44
0.0000000001
40
0
40
0
40
0
40
0
40
1
40
1
40
1
40
1
10
185.393168
20
21.759233999999999
30
0
10
185.00805700000004
20
21.374122
30
0
10
184.48573300000004
20
21.157768000000004
30
0
10
183.94110200000003
20
21.157768000000004
30
0
0
SPLINE
5
134
100
AcDbEntity
8
0
100
AcDbSpline
70
1064
71
3
72
8
73
4
74
0
42
0.000000001
43
0.0000000001
44
0.0000000001
40
0
40
0
40
0
40
0
40
1
40
1
40
1
40
1
10
6.1440820000000009
20
122.06792300000001
30
0
10
6.5302150000000001
20
122.45405700000001
30
0
10
7.0539250000000013
20
122.67098400000002
30
0
10
7.6000000000000014
20
122.67098400000002
30
0
0
SPLINE
5
135
100
AcDbEntity
8
0
100
AcDbSpline
70
1064
71
3
72
8
73
4
74
0
42
0.000000001
43
0.0000000001
44
0.0000000001
40
0
40
0
40
0
40
0
40
1
40
1
40
1
40
1
10
181.88759700000003
20
361.011278
30
0
10
181.88759700000003
20
361.55590799999999
30
0
10
182.10395100000002
20
362.07823200000001
30
0
10
182.48906300000002
20
362.46334400000001
30
0
0
SPLINE
5
136
100
AcDbEntity
8
0
100
AcDbSpline
70
1064
71
3
72
8
73
4
74
0
42
0.000000001
43
0.0000000001
44
0.0000000001
40
0
40
0
40
0
40
0
40
1
40
1
40
1
40
1
10
181.88756900000001
20
23.211301000000006
30
0
10
181.88756799999999
20
23.755932000000005
30
0
10
182.10392200000001
20
24.278257
30
0
10
182.48903400000003
20
24.663368999999999
30
0
0
SPLINE
5
137
100
AcDbEntity
8
0
100
AcDbSpline
70
1064
71
3
72
8
73
4
74
0
42
0.000000001
43
0.0000000001
44
0.0000000001
40
0
40
0
40
0
40
0
40
1
40
1
40
1
40
1
10
138.76818
20
5.9479490000000004
30
0
10
138.38306799999998
20
5.562837
30
0
10
137.86074500000001
20
5.346483000000001
30
0
10
137.316114
20
5.346483000000001
30
0
0
SPLINE
5
138
100
AcDbEntity
8
0
100
AcDbSpline
70
1064
71
3
72
8
73
4
74
0
42
0.000000001
43
0.0000000001
44
0.0000000001
40
0
40
0
40
0
40
0
40
1
40
1
40
1
40
1
10
182.48906200000005
20
338.33921099999998
30
0
10
182.10395000000003
20
338.72432400000002
30
0
10
181.88759600000003
20
339.24664800000005
30
0
10
181.88759700000003
20
339.79127900000003
30
0
0
SPLINE
5
139
100
AcDbEntity
8
0
100
AcDbSpline
70
1064
71
3
72
8
73
4
74
0
42
0.000000001
43
0.0000000001
44
0.0000000001
40
0
40
0
40
0
40
0
40
1
40
1
40
1
40
1
10
183.93613500000004
20
203.06379300000003
30
0
10
184.48076700000001
20
203.063794
30
0
10
185.00309200000001
20
202.84744000000001
30
0
10
185.38820400000003
20
202.46232700000002
30
0
0
SPLINE
5
140
100
AcDbEntity
8
0
100
AcDbSpline
70
1064
71
3
72
8
73
4
74
0
42
0.000000001
43
0.0000000001
44
0.0000000001
40
0
40
0
40
0
40
0
40
1
40
1
40
1
40
1
10
185.38820300000003
20
181.24231800000001
30
0
10
185.77331500000003
20
180.85720600000002
30
0
10
185.98966899999999
20
180.33488199999999
30
0
10
185.98966899999999
20
179.79025000000001
30
0
0
SPLINE
5
141
100
AcDbEntity
8
0
100
AcDbSpline
70
1064
71
3
72
8
73
4
74
0
42
0.000000001
43
0.0000000001
44
0.0000000001
40
0
40
0
40
0
40
0
40
1
40
1
40
1
40
1
10
183.94110200000003
20
42.377746000000009
30
0
10
183.39647100000002
20
42.377746000000009
30
0
10
182.87414600000002
20
42.594099000000007
30
0
10
182.48903400000003
20
42.979212000000004
30
0
0
SPLINE
5
142
100
AcDbEntity
8
0
100
AcDbSpline
70
1064
71
3
72
8
73
4
74
0
42
0.000000001
43
0.0000000001
44
0.0000000001
40
0
40
0
40
0
40
0
40
1
40
1
40
1
40
1
10
182.48903400000003
20
21.759233000000002
30
0
10
182.10392200000001
20
22.144346000000002
30
0
10
181.88756799999999
20
22.66667
30
0
10
181.88756900000001
20
23.211301000000006
30
0
0
SPLINE
5
143
100
AcDbEntity
8
0
100
AcDbSpline
70
1064
71
3
72
8
73
4
74
0
42
0.000000001
43
0.0000000001
44
0.0000000001
40
0
40
0
40
0
40
0
40
1
40
1
40
1
40
1
10
185.39319699999999
20
359.55921100000006
30
0
10
185.00808500000002
20
359.17410000000007
30
0
10
184.48576100000002
20
358.95774600000004
30
0
10
183.94113000000002
20
358.95774700000004
30
0
0
SPLINE
5
144
100
AcDbEntity
8
0
100
AcDbSpline
70
1064
71
3
72
8
73
4
74
0
42
0.000000001
43
0.0000000001
44
0.0000000001
40
0
40
0
40
0
40
0
40
1
40
1
40
1
40
1
10
87.797934000000012
20
121.90920500000001
30
0
10
87.412823000000003
20
122.29431699999999
30
0
10
87.196468999999993
20
122.816641
30
0
10
87.196470000000005
20
123.361272
30
0
0
SPLINE
5
145
100
AcDbEntity
8
0
100
AcDbSpline
70
1064
71
3
72
8
73
4
74
0
42
0.000000001
43
0.0000000001
44
0.0000000001
40
0
40
0
40
0
40
0
40
1
40
1
40
1
40
1
10
5.5410220000000008
20
120.61200400000001
30
0
10
5.5410220000000008
20
121.158079
30
0
10
5.757949
20
121.68178900000001
30
0
10
6.1440820000000009
20
122.06792300000001
30
0
0
SPLINE
5
146
100
AcDbEntity
8
0
100
AcDbSpline
70
1064
71
3
72
8
73
4
74
0
42
0.000000001
43
0.0000000001
44
0.0000000001
40
0
40
0
40
0
40
0
40
1
40
1
40
1
40
1
10
181.88260100000002
20
179.79025000000001
30
0
10
181.88260100000002
20
180.33488199999999
30
0
10
182.09895500000002
20
180.85720600000002
30
0
10
182.48406700000001
20
181.24231800000001
30
0
0
SPLINE
5
147
100
AcDbEntity
8
0
100
AcDbSpline
70
1064
71
3
72
8
73
4
74
0
42
0.000000001
43
0.0000000001
44
0.0000000001
40
0
40
0
40
0
40
0
40
1
40
1
40
1
40
1
10
181.88759700000003
20
339.79127900000003
30
0
10
181.88759700000003
20
340.33591000000001
30
0
10
182.10395100000002
20
340.85823400000004
30
0
10
182.48906300000002
20
341.24334599999997
30
0
0
SPLINE
5
148
100
AcDbEntity
8
0
100
AcDbSpline
70
1064
71
3
72
8
73
4
74
0
42
0.000000001
43
0.0000000001
44
0.0000000001
40
0
40
0
40
0
40
0
40
1
40
1
40
1
40
1
10
87.196470000000005
20
123.361272
30
0
10
87.196468999999993
20
123.905902
30
0
10
87.412823000000003
20
124.42822700000001
30
0
10
87.797934000000012
20
124.81333899999998
30
0
0
SPLINE
5
149
100
AcDbEntity
8
0
100
AcDbSpline
70
1064
71
3
72
8
73
4
74
0
42
0.000000001
43
0.0000000001
44
0.0000000001
40
0
40
0
40
0
40
0
40
1
40
1
40
1
40
1
10
182.48906300000002
20
362.46334400000001
30
0
10
182.87417600000003
20
362.84845600000006
30
0
10
183.39650000000003
20
363.06480899999997
30
0
10
183.94113000000002
20
363.06480800000003
30
0
0
SPLINE
5
150
100
AcDbEntity
8
0
100
AcDbSpline
70
1064
71
3
72
8
73
4
74
0
42
0.000000001
43
0.0000000001
44
0.0000000001
40
0
40
0
40
0
40
0
40
1
40
1
40
1
40
1
10
182.48903400000003
20
24.663368999999999
30
0
10
182.87414600000002
20
25.048482
30
0
10
183.39647100000002
20
25.264835000000005
30
0
10
183.94110200000003
20
25.264835000000005
30
0
0
SPLINE
5
151
100
AcDbEntity
8
0
100
AcDbSpline
70
1064
71
3
72
8
73
4
74
0
42
0.000000001
43
0.0000000001
44
0.0000000001
40
0
40
0
40
0
40
0
40
1
40
1
40
1
40
1
10
183.94113000000002
20
358.95774700000004
30
0
10
183.39650000000003
20
358.95774600000004
30
0
10
182.87417600000003
20
359.17410000000007
30
0
10
182.48906300000002
20
359.55921100000006
30
0
0
SPLINE
5
152
100
AcDbEntity
8
0
100
AcDbSpline
70
1064
71
3
72
8
73
4
74
0
42
0.000000001
43
0.0000000001
44
0.0000000001
40
0
40
0
40
0
40
0
40
1
40
1
40
1
40
1
10
9.0559180000000001
20
122.06792300000001
30
0
10
9.4420509999999993
20
121.68178900000001
30
0
10
9.6589780000000012
20
121.158079
30
0
10
9.6589770000000001
20
120.61200400000001
30
0
0
SPLINE
5
153
100
AcDbEntity
8
0
100
AcDbSpline
70
1064
71
3
72
8
73
4
74
0
42
0.000000001
43
0.0000000001
44
0.0000000001
40
0
40
0
40
0
40
0
40
1
40
1
40
1
40
1
10
9.0559180000000001
20
119.15608500000002
30
0
10
8.669785000000001
20
118.76995100000002
30
0
10
8.1460750000000015
20
118.55302399999999
30
0
10
7.6000000000000014
20
118.55302399999999
30
0
0
SPLINE
5
154
100
AcDbEntity
8
0
100
AcDbSpline
70
1064
71
3
72
8
73
4
74
0
42
0.000000001
43
0.0000000001
44
0.0000000001
40
0
40
0
40
0
40
0
40
1
40
1
40
1
40
1
10
91.303534000000013
20
123.361272
30
0
10
91.303534999999997
20
122.816641
30
0
10
91.087181000000015
20
122.29431599999999
30
0
10
90.702069000000009
20
121.90920400000002
30
0
0
SPLINE
5
155
100
AcDbEntity
8
0
100
AcDbSpline
70
1064
71
3
72
8
73
4
74
0
42
0.000000001
43
0.0000000001
44
0.0000000001
40
0
40
0
40
0
40
0
40
1
40
1
40
1
40
1
10
7.6000000000000014
20
118.55302399999999
30
0
10
7.0539250000000013
20
118.55302399999999
30
0
10
6.5302150000000001
20
118.76995100000002
30
0
10
6.1440820000000009
20
119.15608500000002
30
0
0
SPLINE
5
156
100
AcDbEntity
8
0
100
AcDbSpline
70
1064
71
3
72
8
73
4
74
0
42
0.000000001
43
0.0000000001
44
0.0000000001
40
0
40
0
40
0
40
0
40
1
40
1
40
1
40
1
10
183.94113000000002
20
341.84481
30
0
10
184.48576100000002
20
341.84481099999999
30
0
10
185.00808500000002
20
341.62845699999997
30
0
10
185.39319699999999
20
341.24334599999997
30
0
0
SPLINE
5
157
100
AcDbEntity
8
0
100
AcDbSpline
70
1064
71
3
72
8
73
4
74
0
42
0.000000001
43
0.0000000001
44
0.0000000001
40
0
40
0
40
0
40
0
40
1
40
1
40
1
40
1
10
7.6000000000000014
20
122.67098400000002
30
0
10
8.1460750000000015
20
122.67098400000002
30
0
10
8.669785000000001
20
122.45405700000001
30
0
10
9.0559180000000001
20
122.06792300000001
30
0
0
SPLINE
5
158
100
AcDbEntity
8
0
100
AcDbSpline
70
1064
71
3
72
8
73
4
74
0
42
0.000000001
43
0.0000000001
44
0.0000000001
40
0
40
0
40
0
40
0
40
1
40
1
40
1
40
1
10
183.93613500000004
20
181.843784
30
0
10
184.48076600000002
20
181.843784
30
0
10
185.00309100000004
20
181.627431
30
0
10
185.38820300000003
20
181.24231800000001
30
0
0
SPLINE
5
159
100
AcDbEntity
8
0
100
AcDbSpline
70
1064
71
3
72
8
73
4
74
0
42
0.000000001
43
0.0000000001
44
0.0000000001
40
0
40
0
40
0
40
0
40
1
40
1
40
1
40
1
10
89.250000999999997
20
125.414805
30
0
10
89.794631999999993
20
125.414806
30
0
10
90.316956000000005
20
125.198452
30
0
10
90.702069000000009
20
124.81334000000001
30
0
0
SPLINE
5
160
100
AcDbEntity
8
0
100
AcDbSpline
70
1064
71
3
72
8
73
4
74
0
42
0.000000001
43
0.0000000001
44
0.0000000001
40
0
40
0
40
0
40
0
40
1
40
1
40
1
40
1
10
90.702069000000009
20
121.90920400000002
30
0
10
90.316956000000005
20
121.524091
30
0
10
89.794631999999993
20
121.307738
30
0
10
89.250000999999997
20
121.307738
30
0
0
SPLINE
5
161
100
AcDbEntity
8
0
100
AcDbSpline
70
1064
71
3
72
8
73
4
74
0
42
0.000000001
43
0.0000000001
44
0.0000000001
40
0
40
0
40
0
40
0
40
1
40
1
40
1
40
1
10
185.39319800000001
20
338.33921099999998
30
0
10
185.00808600000002
20
337.95409900000004
30
0
10
184.48576100000002
20
337.73774500000002
30
0
10
183.94113000000002
20
337.73774600000002
30
0
0
SPLINE
5
162
100
AcDbEntity
8
0
100
AcDbSpline
70
1064
71
3
72
8
73
4
74
0
42
0.000000001
43
0.0000000001
44
0.0000000001
40
0
40
0
40
0
40
0
40
1
40
1
40
1
40
1
10
183.93613500000004
20
198.95672400000001
30
0
10
183.391504
20
198.95672300000001
30
0
10
182.86917900000003
20
199.17307700000003
30
0
10
182.48406700000001
20
199.558189
30
0
0
SPLINE
5
163
100
AcDbEntity
8
0
100
AcDbSpline
70
1064
71
3
72
8
73
4
74
0
42
0.000000001
43
0.0000000001
44
0.0000000001
40
0
40
0
40
0
40
0
40
1
40
1
40
1
40
1
10
182.48406700000001
20
199.558189
30
0
10
182.09895500000002
20
199.94330099999999
30
0
10
181.88260100000002
20
200.46562600000001
30
0
10
181.88260100000002
20
201.01025700000002
30
0
0
SPLINE
5
164
100
AcDbEntity
8
0
100
AcDbSpline
70
1064
71
3
72
8
73
4
74
0
42
0.000000001
43
0.0000000001
44
0.0000000001
40
0
40
0
40
0
40
0
40
1
40
1
40
1
40
1
10
183.94113000000002
20
337.73774600000002
30
0
10
183.39649900000006
20
337.73774500000002
30
0
10
182.87417500000004
20
337.95409900000004
30
0
10
182.48906200000005
20
338.33921099999998
30
0
0
SPLINE
5
165
100
AcDbEntity
8
0
100
AcDbSpline
70
1064
71
3
72
8
73
4
74
0
42
0.000000001
43
0.0000000001
44
0.0000000001
40
0
40
0
40
0
40
0
40
1
40
1
40
1
40
1
10
185.39319699999999
20
341.24334599999997
30
0
10
185.77831000000003
20
340.85823400000004
30
0
10
185.994664
20
340.33591000000001
30
0
10
185.994664
20
339.79127900000003
30
0
0
LINE
5
166
100
AcDbEntity
8
0
100
AcDbLine
10
24.858247147960192
20
484.15135997313303
30
0
11
191.17691000000005
21
484.14970400000004
31
0
0
SPLINE
5
167
100
AcDbEntity
8
0
100
AcDbSpline
70
1064
71
3
72
8
73
4
74
0
42
0.000000001
43
0.0000000001
44
0.0000000001
40
0
40
0
40
0
40
0
40
1
40
1
40
1
40
1
10
185.994664
20
339.79127900000003
30
0
10
185.994664
20
339.24664800000005
30
0
10
185.77831100000003
20
338.72432400000002
30
0
10
185.39319800000001
20
338.33921099999998
30
0
0
SPLINE
5
168
100
AcDbEntity
8
0
100
AcDbSpline
70
1064
71
3
72
8
73
4
74
0
42
0.000000001
43
0.0000000001
44
0.0000000001
40
0
40
0
40
0
40
0
40
1
40
1
40
1
40
1
10
183.93613500000004
20
177.73674499999998
30
0
10
182.80201000000002
20
177.73674400000002
30
0
10
181.88261600000001
20
178.65612600000003
30
0
10
181.88260100000002
20
179.79025000000001
30
0
0
SPLINE
5
169
100
AcDbEntity
8
0
100
AcDbSpline
70
1064
71
3
72
8
73
4
74
0
42
0.000000001
43
0.0000000001
44
0.0000000001
40
0
40
0
40
0
40
0
40
1
40
1
40
1
40
1
10
182.48903400000003
20
45.883347999999998
30
0
10
182.87414600000002
20
46.268459999999997
30
0
10
183.39647100000002
20
46.484814000000007
30
0
10
183.94110200000003
20
46.484813000000003
30
0
0
SPLINE
5
170
100
AcDbEntity
8
0
100
AcDbSpline
70
1064
71
3
72
8
73
4
74
0
42
0.000000001
43
0.0000000001
44
0.0000000001
40
0
40
0
40
0
40
0
40
1
40
1
40
1
40
1
10
90.702069000000009
20
124.81334000000001
30
0
10
91.087181000000015
20
124.42822700000001
30
0
10
91.303534999999997
20
123.90590300000001
30
0
10
91.303534000000013
20
123.361272
30
0
0
SPLINE
5
171
100
AcDbEntity
8
0
100
AcDbSpline
70
1064
71
3
72
8
73
4
74
0
42
0.000000001
43
0.0000000001
44
0.0000000001
40
0
40
0
40
0
40
0
40
1
40
1
40
1
40
1
10
185.98966899999999
20
179.79025000000001
30
0
10
185.98965400000003
20
178.65612600000003
30
0
10
185.07026000000002
20
177.73674400000002
30
0
10
183.93613500000004
20
177.73674499999998
30
0
0
SPLINE
5
172
100
AcDbEntity
8
0
100
AcDbSpline
70
1064
71
3
72
8
73
4
74
0
42
0.000000001
43
0.0000000001
44
0.0000000001
40
0
40
0
40
0
40
0
40
1
40
1
40
1
40
1
10
182.48406700000001
20
181.24231800000001
30
0
10
182.86917900000003
20
181.627431
30
0
10
183.391504
20
181.843784
30
0
10
183.93613500000004
20
181.843784
30
0
0
LINE
5
173
100
AcDbEntity
8
0
100
AcDbLine
10
191.17691000000005
20
484.14970400000004
30
0
11
24.858247147960192
21
484.15135997313303
31
0
0
SPLINE
5
174
100
AcDbEntity
8
0
100
AcDbSpline
70
1064
71
3
72
8
73
4
74
0
42
0.000000001
43
0.0000000001
44
0.0000000001
40
0
40
0
40
0
40
0
40
1
40
1
40
1
40
1
10
182.48906300000002
20
359.55921100000006
30
0
10
182.10395100000002
20
359.944323
30
0
10
181.88759700000003
20
360.46664700000002
30
0
10
181.88759700000003
20
361.011278
30
0
0
SPLINE
5
175
100
AcDbEntity
8
0
100
AcDbSpline
70
1064
71
3
72
8
73
4
74
0
42
0.000000001
43
0.0000000001
44
0.0000000001
40
0
40
0
40
0
40
0
40
1
40
1
40
1
40
1
10
183.94110200000003
20
46.484813000000003
30
0
10
184.48573300000004
20
46.484813000000003
30
0
10
185.00805700000004
20
46.268459
30
0
10
185.393168
20
45.883347000000001
30
0
0
SPLINE
5
176
100
AcDbEntity
8
0
100
AcDbSpline
70
1064
71
3
72
8
73
4
74
0
42
0.000000001
43
0.0000000001
44
0.0000000001
40
0
40
0
40
0
40
0
40
1
40
1
40
1
40
1
10
185.38820300000003
20
199.558189
30
0
10
185.00309100000004
20
199.17307700000003
30
0
10
184.48076600000002
20
198.95672300000001
30
0
10
183.93613500000004
20
198.95672400000001
30
0
0
SPLINE
5
177
100
AcDbEntity
8
0
100
AcDbSpline
70
1064
71
3
72
8
73
4
74
0
42
0.000000001
43
0.0000000001
44
0.0000000001
40
0
40
0
40
0
40
0
40
1
40
1
40
1
40
1
10
33.595115999999997
20
9.4535500000000017
30
0
10
34.139747
20
9.4535500000000017
30
0
10
34.662071000000005
20
9.2371960000000009
30
0
10
35.047183000000004
20
8.8520840000000014
30
0
0
SPLINE
5
178
100
AcDbEntity
8
0
100
AcDbSpline
70
1064
71
3
72
8
73
4
74
0
42
0.000000001
43
0.0000000001
44
0.0000000001
40
0
40
0
40
0
40
0
40
1
40
1
40
1
40
1
10
89.250000999999997
20
121.307738
30
0
10
88.705370000000002
20
121.307739
30
0
10
88.18304599999999
20
121.52409200000001
30
0
10
87.797934000000012
20
121.90920500000001
30
0
0
SPLINE
5
179
100
AcDbEntity
8
0
100
AcDbSpline
70
1064
71
3
72
8
73
4
74
0
42
0.000000001
43
0.0000000001
44
0.0000000001
40
0
40
0
40
0
40
0
40
1
40
1
40
1
40
1
10
182.48406600000004
20
202.46232700000002
30
0
10
182.86917800000003
20
202.84744000000001
30
0
10
183.39150300000003
20
203.063794
30
0
10
183.93613500000004
20
203.06379300000003
30
0
0
SPLINE
5
180
100
AcDbEntity
8
0
100
AcDbSpline
70
1064
71
3
72
8
73
4
74
0
42
0.000000001
43
0.0000000001
44
0.0000000001
40
0
40
0
40
0
40
0
40
1
40
1
40
1
40
1
10
181.88260100000002
20
201.01025700000002
30
0
10
181.88260000000002
20
201.554889
30
0
10
182.09895399999999
20
202.077214
30
0
10
182.48406600000004
20
202.46232700000002
30
0
0
SPLINE
5
181
100
AcDbEntity
8
0
100
AcDbSpline
70
1064
71
3
72
8
73
4
74
0
42
0.000000001
43
0.0000000001
44
0.0000000001
40
0
40
0
40
0
40
0
40
1
40
1
40
1
40
1
10
185.393168
20
45.883347000000001
30
0
10
185.77828000000005
20
45.498235000000008
30
0
10
185.99463300000002
20
44.975909999999999
30
0
10
185.99463300000002
20
44.431280000000008
30
0
0
SPLINE
5
182
100
AcDbEntity
8
0
100
AcDbSpline
70
1064
71
3
72
8
73
4
74
0
42
0.000000001
43
0.0000000001
44
0.0000000001
40
0
40
0
40
0
40
0
40
1
40
1
40
1
40
1
10
185.393168
20
42.979213000000001
30
0
10
185.00805700000004
20
42.594099999999997
30
0
10
184.48573300000004
20
42.377746999999999
30
0
10
183.94110200000003
20
42.377746000000009
30
0
0
SPLINE
5
183
100
AcDbEntity
8
0
100
AcDbSpline
70
1064
71
3
72
8
73
4
74
0
42
0.000000001
43
0.0000000001
44
0.0000000001
40
0
40
0
40
0
40
0
40
1
40
1
40
1
40
1
10
182.48903400000003
20
42.979212000000004
30
0
10
182.10392200000001
20
43.364323999999996
30
0
10
181.88756799999999
20
43.886649000000006
30
0
10
181.88756900000001
20
44.431280000000008
30
0
0
SPLINE
5
184
100
AcDbEntity
8
0
100
AcDbSpline
70
1064
71
3
72
8
73
4
74
0
42
0.000000001
43
0.0000000001
44
0.0000000001
40
0
40
0
40
0
40
0
40
1
40
1
40
1
40
1
10
183.94110200000003
20
25.264835000000005
30
0
10
184.48573300000004
20
25.264835000000005
30
0
10
185.00805700000004
20
25.048481000000002
30
0
10
185.393168
20
24.663368000000002
30
0
0
SPLINE
5
185
100
AcDbEntity
8
0
100
AcDbSpline
70
1064
71
3
72
8
73
4
74
0
42
0.000000001
43
0.0000000001
44
0.0000000001
40
0
40
0
40
0
40
0
40
1
40
1
40
1
40
1
10
6.1440820000000009
20
119.15608500000002
30
0
10
5.757949
20
119.542219
30
0
10
5.5410220000000008
20
120.06592900000001
30
0
10
5.5410220000000008
20
120.61200400000001
30
0
0
SPLINE
5
186
100
AcDbEntity
8
0
100
AcDbSpline
70
1064
71
3
72
8
73
4
74
0
42
0.000000001
43
0.0000000001
44
0.0000000001
40
0
40
0
40
0
40
0
40
1
40
1
40
1
40
1
10
185.99463300000002
20
44.431280000000008
30
0
10
185.99463300000002
20
43.886649000000006
30
0
10
185.77828000000005
20
43.364325000000001
30
0
10
185.393168
20
42.979213000000001
30
0
0
SPLINE
5
187
100
AcDbEntity
8
0
100
AcDbSpline
70
1064
71
3
72
8
73
4
74
0
42
0.000000001
43
0.0000000001
44
0.0000000001
40
0
40
0
40
0
40
0
40
1
40
1
40
1
40
1
10
9.6589770000000001
20
120.61200400000001
30
0
10
9.6589780000000012
20
120.06592900000001
30
0
10
9.4420509999999993
20
119.542219
30
0
10
9.0559180000000001
20
119.15608500000002
30
0
0
SPLINE
5
188
100
AcDbEntity
8
0
100
AcDbSpline
70
1064
71
3
72
8
73
4
74
0
42
0.000000001
43
0.0000000001
44
0.0000000001
40
0
40
0
40
0
40
0
40
1
40
1
40
1
40
1
10
185.393168
20
24.663368000000002
30
0
10
185.77828000000005
20
24.278256000000003
30
0
10
185.99463300000002
20
23.755932000000005
30
0
10
185.99463300000002
20
23.211301000000006
30
0
0
SPLINE
5
189
100
AcDbEntity
8
0
100
AcDbSpline
70
1064
71
3
72
8
73
4
74
0
42
0.000000001
43
0.0000000001
44
0.0000000001
40
0
40
0
40
0
40
0
40
1
40
1
40
1
40
1
10
185.98966899999999
20
201.01025700000002
30
0
10
185.98966899999999
20
200.46562600000001
30
0
10
185.77331500000003
20
199.94330099999999
30
0
10
185.38820300000003
20
199.558189
30
0
0
SPLINE
5
190
100
AcDbEntity
8
0
100
AcDbSpline
70
1064
71
3
72
8
73
4
74
0
42
0.000000001
43
0.0000000001
44
0.0000000001
40
0
40
0
40
0
40
0
40
1
40
1
40
1
40
1
10
185.38820400000003
20
202.46232700000002
30
0
10
185.77331700000002
20
202.077214
30
0
10
185.98967000000002
20
201.554889
30
0
10
185.98966899999999
20
201.01025700000002
30
0
0
SPLINE
5
191
100
AcDbEntity
8
0
100
AcDbSpline
70
1064
71
3
72
8
73
4
74
0
42
0.000000001
43
0.0000000001
44
0.0000000001
40
0
40
0
40
0
40
0
40
1
40
1
40
1
40
1
10
181.88756900000001
20
44.431280000000008
30
0
10
181.88756799999999
20
44.975911000000004
30
0
10
182.10392200000001
20
45.498235000000008
30
0
10
182.48903400000003
20
45.883347999999998
30
0
0
SPLINE
5
192
100
AcDbEntity
8
0
100
AcDbSpline
70
1064
71
3
72
8
73
4
74
0
42
0.000000001
43
0.0000000001
44
0.0000000001
40
0
40
0
40
0
40
0
40
1
40
1
40
1
40
1
10
183.94110200000003
20
21.157768000000004
30
0
10
183.39647100000002
20
21.157767
30
0
10
182.87414600000002
20
21.374121000000002
30
0
10
182.48903400000003
20
21.759233000000002
30
0
0
SPLINE
5
193
100
AcDbEntity
8
0
100
AcDbSpline
70
1064
71
3
72
8
73
4
74
0
42
0.000000001
43
0.0000000001
44
0.0000000001
40
0
40
0
40
0
40
0
40
1
40
1
40
1
40
1
10
182.48906300000002
20
341.24334599999997
30
0
10
182.87417600000003
20
341.62845699999997
30
0
10
183.39650000000003
20
341.84481099999999
30
0
10
183.94113000000002
20
341.84481
30
0
0
SPLINE
5
194
100
AcDbEntity
8
0
100
AcDbSpline
70
1064
71
3
72
8
73
4
74
0
42
0.000000001
43
0.0000000001
44
0.0000000001
40
0
40
0
40
0
40
0
40
1
40
1
40
1
40
1
10
185.99463300000002
20
23.211301000000006
30
0
10
185.99463300000002
20
22.666671000000001
30
0
10
185.77828000000005
20
22.144347
30
0
10
185.393168
20
21.759233999999999
30
0
0
SPLINE
5
195
100
AcDbEntity
8
0
100
AcDbSpline
70
1064
71
3
72
8
73
4
74
0
42
0.000000001
43
0.0000000001
44
0.0000000001
40
0
40
0
40
0
40
0
40
1
40
1
40
1
40
1
10
159.29792800000001
20
121.90920400000002
30
0
10
158.91281599999999
20
122.29431599999999
30
0
10
158.69646200000003
20
122.816641
30
0
10
158.69646200000003
20
123.361272
30
0
0
SPLINE
5
196
100
AcDbEntity
8
0
100
AcDbSpline
70
1064
71
3
72
8
73
4
74
0
42
0.000000001
43
0.0000000001
44
0.0000000001
40
0
40
0
40
0
40
0
40
1
40
1
40
1
40
1
10
116.09611299999999
20
5.346483000000001
30
0
10
115.55148200000002
20
5.346483000000001
30
0
10
115.02915900000002
20
5.562837
30
0
10
114.64404700000001
20
5.9479490000000004
30
0
0
SPLINE
5
197
100
AcDbEntity
8
0
100
AcDbSpline
70
1064
71
3
72
8
73
4
74
0
42
0.000000001
43
0.0000000001
44
0.0000000001
40
0
40
0
40
0
40
0
40
1
40
1
40
1
40
1
10
49.320000000000007
20
288.63502999999997
30
0
10
48.773926000000003
20
288.63502999999997
30
0
10
48.250216999999999
20
288.85195800000008
30
0
10
47.864082999999994
20
289.238091
30
0
0
SPLINE
5
198
100
AcDbEntity
8
0
100
AcDbSpline
70
1064
71
3
72
8
73
4
74
0
42
0.000000001
43
0.0000000001
44
0.0000000001
40
0
40
0
40
0
40
0
40
1
40
1
40
1
40
1
10
138.76818
20
8.8520830000000004
30
0
10
139.15329199999999
20
8.4669710000000009
30
0
10
139.36964499999999
20
7.9446470000000016
30
0
10
139.36964499999999
20
7.4000160000000017
30
0
0
SPLINE
5
199
100
AcDbEntity
8
0
100
AcDbSpline
70
1064
71
3
72
8
73
4
74
0
42
0.000000001
43
0.0000000001
44
0.0000000001
40
0
40
0
40
0
40
0
40
1
40
1
40
1
40
1
10
182.48793400000005
20
462.3823440000001
30
0
10
182.87304699999999
20
462.76745500000004
30
0
10
183.39537100000001
20
462.98380900000006
30
0
10
183.94000100000002
20
462.98380800000007
30
0
0
SPLINE
5
200
100
AcDbEntity
8
0
100
AcDbSpline
70
1064
71
3
72
8
73
4
74
0
42
0.000000001
43
0.0000000001
44
0.0000000001
40
0
40
0
40
0
40
0
40
1
40
1
40
1
40
1
10
118.14964700000002
20
7.4000160000000017
30
0
10
118.14964700000002
20
6.8553850000000018
30
0
10
117.93329299999999
20
6.3330609999999998
30
0
10
117.54818100000001
20
5.9479480000000002
30
0
0
SPLINE
5
201
100
AcDbEntity
8
0
100
AcDbSpline
70
1064
71
3
72
8
73
4
74
0
42
0.000000001
43
0.0000000001
44
0.0000000001
40
0
40
0
40
0
40
0
40
1
40
1
40
1
40
1
10
116.09611299999999
20
9.4535500000000017
30
0
10
116.64074400000001
20
9.4535500000000017
30
0
10
117.16306899999999
20
9.2371970000000019
30
0
10
117.54818100000001
20
8.8520840000000014
30
0
0
SPLINE
5
202
100
AcDbEntity
8
0
100
AcDbSpline
70
1064
71
3
72
8
73
4
74
0
42
0.000000001
43
0.0000000001
44
0.0000000001
40
0
40
0
40
0
40
0
40
1
40
1
40
1
40
1
10
185.39206900000005
20
441.16234500000007
30
0
10
185.77718100000004
20
440.77723399999996
30
0
10
185.99353500000004
20
440.25490999999994
30
0
10
185.99353500000004
20
439.71027900000001
30
0
0
SPLINE
5
203
100
AcDbEntity
8
0
100
AcDbSpline
70
1064
71
3
72
8
73
4
74
0
42
0.000000001
43
0.0000000001
44
0.0000000001
40
0
40
0
40
0
40
0
40
1
40
1
40
1
40
1
10
183.94000100000002
20
437.65674600000006
30
0
10
183.39537000000001
20
437.656745
30
0
10
182.87304600000002
20
437.87309900000002
30
0
10
182.48793300000003
20
438.25821100000007
30
0
0
SPLINE
5
204
100
AcDbEntity
8
0
100
AcDbSpline
70
1064
71
3
72
8
73
4
74
0
42
0.000000001
43
0.0000000001
44
0.0000000001
40
0
40
0
40
0
40
0
40
1
40
1
40
1
40
1
10
182.48793300000003
20
438.25821100000007
30
0
10
182.10282100000001
20
438.64332400000001
30
0
10
181.88646699999998
20
439.16564800000003
30
0
10
181.88646800000001
20
439.71027900000001
30
0
0
SPLINE
5
205
100
AcDbEntity
8
0
100
AcDbSpline
70
1064
71
3
72
8
73
4
74
0
42
0.000000001
43
0.0000000001
44
0.0000000001
40
0
40
0
40
0
40
0
40
1
40
1
40
1
40
1
10
139.36964499999999
20
7.4000160000000017
30
0
10
139.36964499999999
20
6.8553860000000011
30
0
10
139.15329199999999
20
6.3330609999999998
30
0
10
138.76818
20
5.9479490000000004
30
0
0
SPLINE
5
206
100
AcDbEntity
8
0
100
AcDbSpline
70
1064
71
3
72
8
73
4
74
0
42
0.000000001
43
0.0000000001
44
0.0000000001
40
0
40
0
40
0
40
0
40
1
40
1
40
1
40
1
10
135.864048
20
8.8520830000000004
30
0
10
136.24916000000002
20
9.2371960000000009
30
0
10
136.77148300000002
20
9.4535500000000017
30
0
10
137.316114
20
9.4535500000000017
30
0
0
SPLINE
5
207
100
AcDbEntity
8
0
100
AcDbSpline
70
1064
71
3
72
8
73
4
74
0
42
0.000000001
43
0.0000000001
44
0.0000000001
40
0
40
0
40
0
40
0
40
1
40
1
40
1
40
1
10
185.99353500000004
20
460.93027699999993
30
0
10
185.99353500000004
20
460.38564699999995
30
0
10
185.77718100000004
20
459.86332300000009
30
0
10
185.39206900000005
20
459.47821100000004
30
0
0
SPLINE
5
208
100
AcDbEntity
8
0
100
AcDbSpline
70
1064
71
3
72
8
73
4
74
0
42
0.000000001
43
0.0000000001
44
0.0000000001
40
0
40
0
40
0
40
0
40
1
40
1
40
1
40
1
10
162.20206200000004
20
53.313355000000008
30
0
10
162.587174
20
52.928243000000002
30
0
10
162.80352700000003
20
52.405918000000007
30
0
10
162.80352700000003
20
51.861288000000002
30
0
0
SPLINE
5
209
100
AcDbEntity
8
0
100
AcDbSpline
70
1064
71
3
72
8
73
4
74
0
42
0.000000001
43
0.0000000001
44
0.0000000001
40
0
40
0
40
0
40
0
40
1
40
1
40
1
40
1
10
185.39206900000005
20
459.47821100000004
30
0
10
185.006957
20
459.09309900000005
30
0
10
184.48463200000003
20
458.87674500000003
30
0
10
183.94000100000002
20
458.87674599999997
30
0
0
SPLINE
5
210
100
AcDbEntity
8
0
100
AcDbSpline
70
1064
71
3
72
8
73
4
74
0
42
0.000000001
43
0.0000000001
44
0.0000000001
40
0
40
0
40
0
40
0
40
1
40
1
40
1
40
1
10
56.868647000000003
20
7.4000160000000017
30
0
10
56.868647000000003
20
6.8553860000000011
30
0
10
56.652294000000005
20
6.3330609999999998
30
0
10
56.267181999999998
20
5.9479490000000004
30
0
0
SPLINE
5
211
100
AcDbEntity
8
0
100
AcDbSpline
70
1064
71
3
72
8
73
4
74
0
42
0.000000001
43
0.0000000001
44
0.0000000001
40
0
40
0
40
0
40
0
40
1
40
1
40
1
40
1
10
137.316114
20
9.4535500000000017
30
0
10
137.86074500000001
20
9.4535500000000017
30
0
10
138.38306799999998
20
9.2371960000000009
30
0
10
138.76818
20
8.8520830000000004
30
0
0
SPLINE
5
212
100
AcDbEntity
8
0
100
AcDbSpline
70
1064
71
3
72
8
73
4
74
0
42
0.000000001
43
0.0000000001
44
0.0000000001
40
0
40
0
40
0
40
0
40
1
40
1
40
1
40
1
10
51.378978000000004
20
290.694008
30
0
10
51.378978000000004
20
290.14793300000002
30
0
10
51.162051000000005
20
289.62422400000003
30
0
10
50.775917
20
289.238091
30
0
0
SPLINE
5
213
100
AcDbEntity
8
0
100
AcDbSpline
70
1064
71
3
72
8
73
4
74
0
42
0.000000001
43
0.0000000001
44
0.0000000001
40
0
40
0
40
0
40
0
40
1
40
1
40
1
40
1
10
47.261023000000002
20
290.694008
30
0
10
47.261024000000006
20
291.8311490000001
30
0
10
48.182859999999998
20
292.75298300000003
30
0
10
49.320000000000007
20
292.75298300000003
30
0
0
LINE
5
214
100
AcDbEntity
8
0
100
AcDbLine
10
191.17691000000005
20
484.14970400000004
30
0
11
191.17691000000005
21
0.14969000000000676
31
0
0
SPLINE
5
215
100
AcDbEntity
8
0
100
AcDbSpline
70
1064
71
3
72
8
73
4
74
0
42
0.000000001
43
0.0000000001
44
0.0000000001
40
0
40
0
40
0
40
0
40
1
40
1
40
1
40
1
10
185.39207000000002
20
438.25821100000007
30
0
10
185.006957
20
437.87309900000002
30
0
10
184.48463300000003
20
437.656745
30
0
10
183.94000100000002
20
437.65674600000006
30
0
0
SPLINE
5
216
100
AcDbEntity
8
0
100
AcDbSpline
70
1064
71
3
72
8
73
4
74
0
42
0.000000001
43
0.0000000001
44
0.0000000001
40
0
40
0
40
0
40
0
40
1
40
1
40
1
40
1
10
185.99353500000004
20
439.71027900000001
30
0
10
185.99353600000003
20
439.16564800000003
30
0
10
185.77718200000004
20
438.64332400000001
30
0
10
185.39207000000002
20
438.25821100000007
30
0
0
SPLINE
5
217
100
AcDbEntity
8
0
100
AcDbSpline
70
1064
71
3
72
8
73
4
74
0
42
0.000000001
43
0.0000000001
44
0.0000000001
40
0
40
0
40
0
40
0
40
1
40
1
40
1
40
1
10
158.69646200000003
20
123.361272
30
0
10
158.69646200000003
20
123.90590300000001
30
0
10
158.91281599999999
20
124.42822700000001
30
0
10
159.29792800000001
20
124.81334000000001
30
0
0
SPLINE
5
218
100
AcDbEntity
8
0
100
AcDbSpline
70
1064
71
3
72
8
73
4
74
0
42
0.000000001
43
0.0000000001
44
0.0000000001
40
0
40
0
40
0
40
0
40
1
40
1
40
1
40
1
10
183.94000100000002
20
462.98380800000007
30
0
10
184.48463200000003
20
462.98380900000006
30
0
10
185.00695600000003
20
462.76745500000004
30
0
10
185.39206900000005
20
462.3823440000001
30
0
0
SPLINE
5
219
100
AcDbEntity
8
0
100
AcDbSpline
70
1064
71
3
72
8
73
4
74
0
42
0.000000001
43
0.0000000001
44
0.0000000001
40
0
40
0
40
0
40
0
40
1
40
1
40
1
40
1
10
114.64404700000001
20
5.9479490000000004
30
0
10
114.25893500000001
20
6.3330609999999998
30
0
10
114.04258200000001
20
6.8553860000000011
30
0
10
114.04258200000001
20
7.4000160000000017
30
0
0
SPLINE
5
220
100
AcDbEntity
8
0
100
AcDbSpline
70
1064
71
3
72
8
73
4
74
0
42
0.000000001
43
0.0000000001
44
0.0000000001
40
0
40
0
40
0
40
0
40
1
40
1
40
1
40
1
10
114.64404700000001
20
8.8520830000000004
30
0
10
115.02915900000002
20
9.2371960000000009
30
0
10
115.55148200000002
20
9.4535500000000017
30
0
10
116.09611299999999
20
9.4535500000000017
30
0
0
SPLINE
5
221
100
AcDbEntity
8
0
100
AcDbSpline
70
1064
71
3
72
8
73
4
74
0
42
0.000000001
43
0.0000000001
44
0.0000000001
40
0
40
0
40
0
40
0
40
1
40
1
40
1
40
1
10
185.39206900000005
20
462.3823440000001
30
0
10
185.77718100000004
20
461.99723200000005
30
0
10
185.99353500000004
20
461.47490800000008
30
0
10
185.99353500000004
20
460.93027699999993
30
0
0
SPLINE
5
222
100
AcDbEntity
8
0
100
AcDbSpline
70
1064
71
3
72
8
73
4
74
0
42
0.000000001
43
0.0000000001
44
0.0000000001
40
0
40
0
40
0
40
0
40
1
40
1
40
1
40
1
10
162.80352700000003
20
51.861288000000002
30
0
10
162.80352700000003
20
51.316656999999999
30
0
10
162.587174
20
50.794333000000009
30
0
10
162.20206200000004
20
50.409221000000002
30
0
0
SPLINE
5
223
100
AcDbEntity
8
0
100
AcDbSpline
70
1064
71
3
72
8
73
4
74
0
42
0.000000001
43
0.0000000001
44
0.0000000001
40
0
40
0
40
0
40
0
40
1
40
1
40
1
40
1
10
160.74999600000001
20
49.807753999999996
30
0
10
160.20536500000003
20
49.807753999999996
30
0
10
159.68303999999998
20
50.024107000000001
30
0
10
159.29792800000001
20
50.409220000000005
30
0
0
SPLINE
5
224
100
AcDbEntity
8
0
100
AcDbSpline
70
1064
71
3
72
8
73
4
74
0
42
0.000000001
43
0.0000000001
44
0.0000000001
40
0
40
0
40
0
40
0
40
1
40
1
40
1
40
1
10
162.20206200000004
20
50.409221000000002
30
0
10
161.81695099999999
20
50.024107999999998
30
0
10
161.29462700000002
20
49.807755
30
0
10
160.74999600000001
20
49.807753999999996
30
0
0
SPLINE
5
225
100
AcDbEntity
8
0
100
AcDbSpline
70
1064
71
3
72
8
73
4
74
0
42
0.000000001
43
0.0000000001
44
0.0000000001
40
0
40
0
40
0
40
0
40
1
40
1
40
1
40
1
10
49.320000000000007
20
292.75298300000003
30
0
10
50.457141000000007
20
292.75298300000003
30
0
10
51.378976000000009
20
291.8311490000001
30
0
10
51.378978000000004
20
290.694008
30
0
0
SPLINE
5
226
100
AcDbEntity
8
0
100
AcDbSpline
70
1064
71
3
72
8
73
4
74
0
42
0.000000001
43
0.0000000001
44
0.0000000001
40
0
40
0
40
0
40
0
40
1
40
1
40
1
40
1
10
114.04258200000001
20
7.4000160000000017
30
0
10
114.04258200000001
20
7.9446470000000016
30
0
10
114.25893500000001
20
8.4669710000000009
30
0
10
114.64404700000001
20
8.8520830000000004
30
0
0
SPLINE
5
227
100
AcDbEntity
8
0
100
AcDbSpline
70
1064
71
3
72
8
73
4
74
0
42
0.000000001
43
0.0000000001
44
0.0000000001
40
0
40
0
40
0
40
0
40
1
40
1
40
1
40
1
10
135.26258300000001
20
7.4000160000000017
30
0
10
135.26258300000001
20
7.9446470000000016
30
0
10
135.47893600000003
20
8.4669710000000009
30
0
10
135.864048
20
8.8520830000000004
30
0
0
SPLINE
5
228
100
AcDbEntity
8
0
100
AcDbSpline
70
1064
71
3
72
8
73
4
74
0
42
0.000000001
43
0.0000000001
44
0.0000000001
40
0
40
0
40
0
40
0
40
1
40
1
40
1
40
1
10
117.54818100000001
20
8.8520840000000014
30
0
10
117.93329299999999
20
8.4669720000000019
30
0
10
118.14964700000002
20
7.9446470000000016
30
0
10
118.14964700000002
20
7.4000160000000017
30
0
0
SPLINE
5
229
100
AcDbEntity
8
0
100
AcDbSpline
70
1064
71
3
72
8
73
4
74
0
42
0.000000001
43
0.0000000001
44
0.0000000001
40
0
40
0
40
0
40
0
40
1
40
1
40
1
40
1
10
137.316114
20
5.346483000000001
30
0
10
136.77148300000002
20
5.346483000000001
30
0
10
136.24916000000002
20
5.562837
30
0
10
135.864048
20
5.9479490000000004
30
0
0
SPLINE
5
230
100
AcDbEntity
8
0
100
AcDbSpline
70
1064
71
3
72
8
73
4
74
0
42
0.000000001
43
0.0000000001
44
0.0000000001
40
0
40
0
40
0
40
0
40
1
40
1
40
1
40
1
10
47.864082999999994
20
289.238091
30
0
10
47.47795
20
289.62422400000003
30
0
10
47.261023000000002
20
290.14793300000002
30
0
10
47.261023000000002
20
290.694008
30
0
0
SPLINE
5
231
100
AcDbEntity
8
0
100
AcDbSpline
70
1064
71
3
72
8
73
4
74
0
42
0.000000001
43
0.0000000001
44
0.0000000001
40
0
40
0
40
0
40
0
40
1
40
1
40
1
40
1
10
50.775917
20
289.238091
30
0
10
50.389784000000006
20
288.85195800000008
30
0
10
49.866075000000009
20
288.63502999999997
30
0
10
49.320000000000007
20
288.63502999999997
30
0
0
SPLINE
5
232
100
AcDbEntity
8
0
100
AcDbSpline
70
1064
71
3
72
8
73
4
74
0
42
0.000000001
43
0.0000000001
44
0.0000000001
40
0
40
0
40
0
40
0
40
1
40
1
40
1
40
1
10
182.48793400000005
20
459.47821100000004
30
0
10
182.102822
20
459.86332300000009
30
0
10
181.88646800000001
20
460.38564699999995
30
0
10
181.88646800000001
20
460.93027699999993
30
0
0
SPLINE
5
233
100
AcDbEntity
8
0
100
AcDbSpline
70
1064
71
3
72
8
73
4
74
0
42
0.000000001
43
0.0000000001
44
0.0000000001
40
0
40
0
40
0
40
0
40
1
40
1
40
1
40
1
10
181.88646800000001
20
460.93027699999993
30
0
10
181.88646800000001
20
461.47490800000008
30
0
10
182.102822
20
461.99723200000005
30
0
10
182.48793400000005
20
462.3823440000001
30
0
0
SPLINE
5
234
100
AcDbEntity
8
0
100
AcDbSpline
70
1064
71
3
72
8
73
4
74
0
42
0.000000001
43
0.0000000001
44
0.0000000001
40
0
40
0
40
0
40
0
40
1
40
1
40
1
40
1
10
181.88646800000001
20
439.71027900000001
30
0
10
181.88646800000001
20
440.25490999999994
30
0
10
182.102822
20
440.77723399999996
30
0
10
182.48793400000005
20
441.16234500000007
30
0
0
SPLINE
5
235
100
AcDbEntity
8
0
100
AcDbSpline
70
1064
71
3
72
8
73
4
74
0
42
0.000000001
43
0.0000000001
44
0.0000000001
40
0
40
0
40
0
40
0
40
1
40
1
40
1
40
1
10
183.94000100000002
20
441.76380999999998
30
0
10
184.48463200000003
20
441.76380999999998
30
0
10
185.00695600000003
20
441.54745700000007
30
0
10
185.39206900000005
20
441.16234500000007
30
0
0
LINE
5
236
100
AcDbEntity
8
0
100
AcDbLine
10
0.14100099999999999
20
0.15137500000000001
30
0
11
191.17691000000005
21
0.14969000000000676
31
0
0
SPLINE
5
237
100
AcDbEntity
8
0
100
AcDbSpline
70
1064
71
3
72
8
73
4
74
0
42
0.000000001
43
0.0000000001
44
0.0000000001
40
0
40
0
40
0
40
0
40
1
40
1
40
1
40
1
10
135.864048
20
5.9479490000000004
30
0
10
135.47893600000003
20
6.3330609999999998
30
0
10
135.26258300000001
20
6.8553860000000011
30
0
10
135.26258300000001
20
7.4000160000000017
30
0
0
SPLINE
5
238
100
AcDbEntity
8
0
100
AcDbSpline
70
1064
71
3
72
8
73
4
74
0
42
0.000000001
43
0.0000000001
44
0.0000000001
40
0
40
0
40
0
40
0
40
1
40
1
40
1
40
1
10
117.54818100000001
20
5.9479480000000002
30
0
10
117.16306899999999
20
5.5628359999999999
30
0
10
116.64074400000001
20
5.346482
30
0
10
116.09611299999999
20
5.346483000000001
30
0
0
LINE
5
239
100
AcDbEntity
8
0
100
AcDbLine
10
191.17691000000005
20
0.14969000000000676
30
0
11
191.17691000000005
21
484.14970400000004
31
0
0
SPLINE
5
240
100
AcDbEntity
8
0
100
AcDbSpline
70
1064
71
3
72
8
73
4
74
0
42
0.000000001
43
0.0000000001
44
0.0000000001
40
0
40
0
40
0
40
0
40
1
40
1
40
1
40
1
10
182.48793400000005
20
441.16234500000007
30
0
10
182.87304699999999
20
441.54745700000007
30
0
10
183.39537100000001
20
441.76380999999998
30
0
10
183.94000100000002
20
441.76380999999998
30
0
0
SPLINE
5
241
100
AcDbEntity
8
0
100
AcDbSpline
70
1064
71
3
72
8
73
4
74
0
42
0.000000001
43
0.0000000001
44
0.0000000001
40
0
40
0
40
0
40
0
40
1
40
1
40
1
40
1
10
183.94000100000002
20
458.87674599999997
30
0
10
183.39537100000001
20
458.87674500000003
30
0
10
182.87304600000002
20
459.09309900000005
30
0
10
182.48793400000005
20
459.47821100000004
30
0
0
SPLINE
5
242
100
AcDbEntity
8
0
100
AcDbSpline
70
1064
71
3
72
8
73
4
74
0
42
0.000000001
43
0.0000000001
44
0.0000000001
40
0
40
0
40
0
40
0
40
1
40
1
40
1
40
1
10
185.994664
20
361.011278
30
0
10
185.994664
20
360.46664700000002
30
0
10
185.77831000000003
20
359.944323
30
0
10
185.39319699999999
20
359.55921100000006
30
0
0
SPLINE
5
243
100
AcDbEntity
8
0
100
AcDbSpline
70
1064
71
3
72
8
73
4
74
0
42
0.000000001
43
0.0000000001
44
0.0000000001
40
0
40
0
40
0
40
0
40
1
40
1
40
1
40
1
10
185.39319699999999
20
362.46334400000001
30
0
10
185.77831000000003
20
362.07823200000001
30
0
10
185.994664
20
361.55590799999999
30
0
10
185.994664
20
361.011278
30
0
0
SPLINE
5
244
100
AcDbEntity
8
0
100
AcDbSpline
70
1064
71
3
72
8
73
4
74
0
42
0.000000001
43
0.0000000001
44
0.0000000001
40
0
40
0
40
0
40
0
40
1
40
1
40
1
40
1
10
183.94113000000002
20
363.06480800000003
30
0
10
184.48576100000002
20
363.06480899999997
30
0
10
185.00808500000002
20
362.84845600000006
30
0
10
185.39319699999999
20
362.46334400000001
30
0
0
SPLINE
5
245
100
AcDbEntity
8
0
100
AcDbSpline
70
1064
71
3
72
8
73
4
74
0
42
0.000000001
43
0.0000000001
44
0.0000000001
40
0
40
0
40
0
40
0
40
1
40
1
40
1
40
1
10
160.74999600000001
20
121.307738
30
0
10
160.20536500000003
20
121.307738
30
0
10
159.68303999999998
20
121.524091
30
0
10
159.29792800000001
20
121.90920400000002
30
0
0
LINE
5
246
100
AcDbEntity
8
0
100
AcDbLine
10
191.17691000000005
20
0.14969000000000676
30
0
11
0.14100099999999999
21
0.15137500000000001
31
0
0
SPLINE
5
247
100
AcDbEntity
8
0
100
AcDbSpline
70
1064
71
3
72
8
73
4
74
0
42
0.000000001
43
0.0000000001
44
0.0000000001
40
0
40
0
40
0
40
0
40
1
40
1
40
1
40
1
10
162.20206200000004
20
124.81333899999998
30
0
10
162.587174
20
124.42822700000001
30
0
10
162.80352700000003
20
123.905902
30
0
10
162.80352700000003
20
123.361272
30
0
0
SPLINE
5
248
100
AcDbEntity
8
0
100
AcDbSpline
70
1064
71
3
72
8
73
4
74
0
42
0.000000001
43
0.0000000001
44
0.0000000001
40
0
40
0
40
0
40
0
40
1
40
1
40
1
40
1
10
148.69499299999998
20
289.242096
30
0
10
148.30886000000001
20
289.62822899999998
30
0
10
148.09193200000001
20
290.15193799999997
30
0
10
148.09193200000001
20
290.698013
30
0
0
SPLINE
5
249
100
AcDbEntity
8
0
100
AcDbSpline
70
1064
71
3
72
8
73
4
74
0
42
0.000000001
43
0.0000000001
44
0.0000000001
40
0
40
0
40
0
40
0
40
1
40
1
40
1
40
1
10
160.74999600000001
20
125.414805
30
0
10
161.29462700000002
20
125.414805
30
0
10
161.81695099999999
20
125.19845100000001
30
0
10
162.20206200000004
20
124.81333899999998
30
0
0
SPLINE
5
250
100
AcDbEntity
8
0
100
AcDbSpline
70
1064
71
3
72
8
73
4
74
0
42
0.000000001
43
0.0000000001
44
0.0000000001
40
0
40
0
40
0
40
0
40
1
40
1
40
1
40
1
10
158.69646200000003
20
51.861288000000002
30
0
10
158.69646200000003
20
52.405918999999997
30
0
10
158.91281599999999
20
52.928243000000002
30
0
10
159.29792800000001
20
53.313356000000013
30
0
0
SPLINE
5
251
100
AcDbEntity
8
0
100
AcDbSpline
70
1064
71
3
72
8
73
4
74
0
42
0.000000001
43
0.0000000001
44
0.0000000001
40
0
40
0
40
0
40
0
40
1
40
1
40
1
40
1
10
162.20206200000004
20
121.90920500000001
30
0
10
161.81695099999999
20
121.52409200000001
30
0
10
161.29462700000002
20
121.307739
30
0
10
160.74999600000001
20
121.307738
30
0
0
SPLINE
5
252
100
AcDbEntity
8
0
100
AcDbSpline
70
1064
71
3
72
8
73
4
74
0
42
0.000000001
43
0.0000000001
44
0.0000000001
40
0
40
0
40
0
40
0
40
1
40
1
40
1
40
1
10
162.80352700000003
20
123.361272
30
0
10
162.80352700000003
20
122.816641
30
0
10
162.587174
20
122.29431699999999
30
0
10
162.20206200000004
20
121.90920500000001
30
0
0
SPLINE
5
253
100
AcDbEntity
8
0
100
AcDbSpline
70
1064
71
3
72
8
73
4
74
0
42
0.000000001
43
0.0000000001
44
0.0000000001
40
0
40
0
40
0
40
0
40
1
40
1
40
1
40
1
10
159.29792800000001
20
53.313356000000013
30
0
10
159.68303999999998
20
53.698468000000013
30
0
10
160.20536500000003
20
53.914821999999994
30
0
10
160.74999600000001
20
53.914821000000003
30
0
0
SPLINE
5
254
100
AcDbEntity
8
0
100
AcDbSpline
70
1064
71
3
72
8
73
4
74
0
42
0.000000001
43
0.0000000001
44
0.0000000001
40
0
40
0
40
0
40
0
40
1
40
1
40
1
40
1
10
150.15091000000001
20
288.63903500000004
30
0
10
149.60483500000001
20
288.63903500000004
30
0
10
149.08112600000001
20
288.85596200000003
30
0
10
148.69499299999998
20
289.242096
30
0
0
SPLINE
5
255
100
AcDbEntity
8
0
100
AcDbSpline
70
1064
71
3
72
8
73
4
74
0
42
0.000000001
43
0.0000000001
44
0.0000000001
40
0
40
0
40
0
40
0
40
1
40
1
40
1
40
1
10
148.09193200000001
20
290.698013
30
0
10
148.09193200000001
20
291.24408799999998
30
0
10
148.30886000000001
20
291.76779700000003
30
0
10
148.69499299999998
20
292.15393
30
0
0
SPLINE
5
256
100
AcDbEntity
8
0
100
AcDbSpline
70
1064
71
3
72
8
73
4
74
0
42
0.000000001
43
0.0000000001
44
0.0000000001
40
0
40
0
40
0
40
0
40
1
40
1
40
1
40
1
10
151.60682700000001
20
292.15393
30
0
10
151.99296000000001
20
291.76779700000003
30
0
10
152.20988799999998
20
291.24408799999998
30
0
10
152.20988799999998
20
290.698013
30
0
0
SPLINE
5
257
100
AcDbEntity
8
0
100
AcDbSpline
70
1064
71
3
72
8
73
4
74
0
42
0.000000001
43
0.0000000001
44
0.0000000001
40
0
40
0
40
0
40
0
40
1
40
1
40
1
40
1
10
151.60682700000001
20
289.242096
30
0
10
151.22069399999998
20
288.85596200000003
30
0
10
150.69698500000001
20
288.63903500000004
30
0
10
150.15091000000001
20
288.63903500000004
30
0
0
SPLINE
5
258
100
AcDbEntity
8
0
100
AcDbSpline
70
1064
71
3
72
8
73
4
74
0
42
0.000000001
43
0.0000000001
44
0.0000000001
40
0
40
0
40
0
40
0
40
1
40
1
40
1
40
1
10
159.29792800000001
20
50.409220000000005
30
0
10
158.91281599999999
20
50.794332000000004
30
0
10
158.69646200000003
20
51.316656999999999
30
0
10
158.69646200000003
20
51.861288000000002
30
0
0
SPLINE
5
259
100
AcDbEntity
8
0
100
AcDbSpline
70
1064
71
3
72
8
73
4
74
0
42
0.000000001
43
0.0000000001
44
0.0000000001
40
0
40
0
40
0
40
0
40
1
40
1
40
1
40
1
10
148.69499299999998
20
292.15393
30
0
10
149.08112600000001
20
292.54006300000003
30
0
10
149.60483500000001
20
292.75698999999997
30
0
10
150.15091000000001
20
292.75698999999997
30
0
0
SPLINE
5
260
100
AcDbEntity
8
0
100
AcDbSpline
70
1064
71
3
72
8
73
4
74
0
42
0.000000001
43
0.0000000001
44
0.0000000001
40
0
40
0
40
0
40
0
40
1
40
1
40
1
40
1
10
0.14100099999999949
20
459.15138800000011
30
0
10
0.062925593383130196
20
472.88042999908276
30
0
10
11.129225148554056
20
484.07328468025196
30
0
10
24.858247147960192
20
484.15135997313308
30
0
0
SPLINE
5
261
100
AcDbEntity
8
0
100
AcDbSpline
70
1064
71
3
72
8
73
4
74
0
42
0.000000001
43
0.0000000001
44
0.0000000001
40
0
40
0
40
0
40
0
40
1
40
1
40
1
40
1
10
152.20988799999998
20
290.698013
30
0
10
152.20988799999998
20
290.15193799999997
30
0
10
151.99296000000001
20
289.62822899999998
30
0
10
151.60682700000001
20
289.242096
30
0
0
SPLINE
5
262
100
AcDbEntity
8
0
100
AcDbSpline
70
1064
71
3
72
8
73
4
74
0
42
0.000000001
43
0.0000000001
44
0.0000000001
40
0
40
0
40
0
40
0
40
1
40
1
40
1
40
1
10
150.15091000000001
20
292.75698999999997
30
0
10
150.69698500000001
20
292.75698999999997
30
0
10
151.22069399999998
20
292.54006300000003
30
0
10
151.60682700000001
20
292.15393
30
0
0
SPLINE
5
263
100
AcDbEntity
8
0
100
AcDbSpline
70
1064
71
3
72
8
73
4
74
0
42
0.000000001
43
0.0000000001
44
0.0000000001
40
0
40
0
40
0
40
0
40
1
40
1
40
1
40
1
10
53.519885828872532
20
476.542883694566
30
0
10
53.519885828872532
20
477.67999569456606
30
0
10
54.44169782887252
20
478.60180669456605
30
0
10
55.578809828872551
20
478.60180769456605
30
0
0
SPLINE
5
264
100
AcDbEntity
8
0
100
AcDbSpline
70
1064
71
3
72
8
73
4
74
0
42
0.000000001
43
0.0000000001
44
0.0000000001
40
0
40
0
40
0
40
0
40
1
40
1
40
1
40
1
10
30.958803828872625
20
478.60180769456605
30
0
10
32.095915828872599
20
478.60180669456605
30
0
10
33.017727828872658
20
477.67999569456606
30
0
10
33.017727828872658
20
476.542883694566
30
0
0
SPLINE
5
265
100
AcDbEntity
8
0
100
AcDbSpline
70
1064
71
3
72
8
73
4
74
0
42
0.000000001
43
0.0000000001
44
0.0000000001
40
0
40
0
40
0
40
0
40
1
40
1
40
1
40
1
10
28.899879828872681
20
476.542883694566
30
0
10
28.899879828872681
20
477.67999569456606
30
0
10
29.82169082887264
20
478.60180669456605
30
0
10
30.958803828872625
20
478.60180769456605
30
0
0
SPLINE
5
266
100
AcDbEntity
8
0
100
AcDbSpline
70
1064
71
3
72
8
73
4
74
0
42
0.000000001
43
0.0000000001
44
0.0000000001
40
0
40
0
40
0
40
0
40
1
40
1
40
1
40
1
10
30.958803828872625
20
474.48395969456607
30
0
10
29.82169082887264
20
474.48395969456607
30
0
10
28.899879828872681
20
475.40577069456606
30
0
10
28.899879828872681
20
476.542883694566
30
0
0
SPLINE
5
267
100
AcDbEntity
8
0
100
AcDbSpline
70
1064
71
3
72
8
73
4
74
0
42
0.000000001
43
0.0000000001
44
0.0000000001
40
0
40
0
40
0
40
0
40
1
40
1
40
1
40
1
10
57.637733828872513
20
476.542883694566
30
0
10
57.637733828872513
20
475.40577069456606
30
0
10
56.715922828872536
20
474.48395969456607
30
0
10
55.578809828872551
20
474.48395969456607
30
0
0
SPLINE
5
268
100
AcDbEntity
8
0
100
AcDbSpline
70
1064
71
3
72
8
73
4
74
0
42
0.000000001
43
0.0000000001
44
0.0000000001
40
0
40
0
40
0
40
0
40
1
40
1
40
1
40
1
10
30.958803828872625
20
474.48395969456607
30
0
10
29.82169082887264
20
474.48395969456607
30
0
10
28.899879828872681
20
475.40577069456606
30
0
10
28.899879828872681
20
476.542883694566
30
0
0
SPLINE
5
269
100
AcDbEntity
8
0
100
AcDbSpline
70
1064
71
3
72
8
73
4
74
0
42
0.000000001
43
0.0000000001
44
0.0000000001
40
0
40
0
40
0
40
0
40
1
40
1
40
1
40
1
10
33.017727828872658
20
476.542883694566
30
0
10
33.017727828872658
20
475.40577069456606
30
0
10
32.095915828872599
20
474.48395969456607
30
0
10
30.958803828872625
20
474.48395969456607
30
0
0
SPLINE
5
270
100
AcDbEntity
8
0
100
AcDbSpline
70
1064
71
3
72
8
73
4
74
0
42
0.000000001
43
0.0000000001
44
0.0000000001
40
0
40
0
40
0
40
0
40
1
40
1
40
1
40
1
10
55.578809828872551
20
474.48395969456607
30
0
10
54.44169782887252
20
474.48395969456607
30
0
10
53.519885828872532
20
475.40577069456606
30
0
10
53.519885828872532
20
476.542883694566
30
0
0
SPLINE
5
271
100
AcDbEntity
8
0
100
AcDbSpline
70
1064
71
3
72
8
73
4
74
0
42
0.000000001
43
0.0000000001
44
0.0000000001
40
0
40
0
40
0
40
0
40
1
40
1
40
1
40
1
10
33.017727828872658
20
476.542883694566
30
0
10
33.017727828872658
20
475.40577069456606
30
0
10
32.095915828872599
20
474.48395969456607
30
0
10
30.958803828872625
20
474.48395969456607
30
0
0
SPLINE
5
272
100
AcDbEntity
8
0
100
AcDbSpline
70
1064
71
3
72
8
73
4
74
0
42
0.000000001
43
0.0000000001
44
0.0000000001
40
0
40
0
40
0
40
0
40
1
40
1
40
1
40
1
10
55.578809828872551
20
478.60180769456605
30
0
10
56.715922828872536
20
478.60180669456605
30
0
10
57.637733828872513
20
477.67999569456606
30
0
10
57.637733828872513
20
476.542883694566
30
0
0
SPLINE
5
273
100
AcDbEntity
8
0
100
AcDbSpline
70
1064
71
3
72
8
73
4
74
0
42
0.000000001
43
0.0000000001
44
0.0000000001
40
0
40
0
40
0
40
0
40
1
40
1
40
1
40
1
10
30.958803828872625
20
478.60180769456605
30
0
10
32.095915828872599
20
478.60180669456605
30
0
10
33.017727828872658
20
477.67999569456606
30
0
10
33.017727828872658
20
476.542883694566
30
0
0
SPLINE
5
274
100
AcDbEntity
8
0
100
AcDbSpline
70
1064
71
3
72
8
73
4
74
0
42
0.000000001
43
0.0000000001
44
0.0000000001
40
0
40
0
40
0
40
0
40
1
40
1
40
1
40
1
10
28.899879828872681
20
476.542883694566
30
0
10
28.899879828872681
20
477.67999569456606
30
0
10
29.82169082887264
20
478.60180669456605
30
0
10
30.958803828872625
20
478.60180769456605
30
0
0
ENDSEC
0
SECTION
2
OBJECTS
0
DICTIONARY
5
C
100
AcDbDictionary
3
ACAD_GROUP
350
D
3
ACAD_MLINESTYLE
350
17
0
DICTIONARY
5
D
100
AcDbDictionary
0
DICTIONARY
5
1A
330
C
100
AcDbDictionary
0
DICTIONARY
5
17
100
AcDbDictionary
0
ENDSEC
0
EOF
