0
SECTION
2
HEADER
9
$INSUNITS
70
4
9
$ACADVER
1
AC1014
9
$HANDSEED
5
FFFF
0
ENDSEC
0
SECTION
2
TABLES
0
TABLE
2
VPORT
5
8
100
AcDbSymbolTable
0
ENDTAB
0
TABLE
2
LTYPE
5
5
100
AcDbSymbolTable
0
LTYPE
5
14
100
AcDbSymbolTableRecord
100
AcDbLinetypeTableRecord
2
BYBLOCK
70
0
0
LTYPE
5
15
100
AcDbSymbolTableRecord
100
AcDbLinetypeTableRecord
2
BYLAYER
70
0
0
ENDTAB
0
TABLE
2
LAYER
5
2
100
AcDbSymbolTable
70
2
0
LAYER
5
50
100
AcDbSymbolTableRecord
100
AcDbLayerTableRecord
2
0
70
0
6
CONTINUOUS
0
ENDTAB
0
TABLE
2
STYLE
5
3
100
AcDbSymbolTable
70
1
0
STYLE
5
11
100
AcDbSymbolTableRecord
100
AcDbTextStyleTableRecord
2
STANDARD
70
0
0
ENDTAB
0
TABLE
2
VIEW
5
6
100
AcDbSymbolTable
70
0
0
ENDTAB
0
TABLE
2
UCS
5
7
100
AcDbSymbolTable
70
0
0
ENDTAB
0
TABLE
2
APPID
5
9
100
AcDbSymbolTable
70
2
0
APPID
5
12
100
AcDbSymbolTableRecord
100
AcDbRegAppTableRecord
2
ACAD
70
0
0
ENDTAB
0
TABLE
2
DIMSTYLE
5
A
100
AcDbSymbolTable
70
1
0
ENDTAB
0
TABLE
2
BLOCK_RECORD
5
1
100
AcDbSymbolTable
70
1
0
BLOCK_RECORD
5
1F
100
AcDbSymbolTableRecord
100
AcDbBlockTableRecord
2
*MODEL_SPACE
0
BLOCK_RECORD
5
1B
100
AcDbSymbolTableRecord
100
AcDbBlockTableRecord
2
*PAPER_SPACE
0
ENDTAB
0
ENDSEC
0
SECTION
2
BLOCKS
0
BLOCK
5
20
100
AcDbEntity
100
AcDbBlockBegin
2
*MODEL_SPACE
0
ENDBLK
5
21
100
AcDbEntity
100
AcDbBlockEnd
0
BLOCK
5
1C
100
AcDbEntity
100
AcDbBlockBegin
2
*PAPER_SPACE
0
ENDBLK
5
1D
100
AcDbEntity
100
AcDbBlockEnd
0
ENDSEC
0
SECTION
2
ENTITIES
0
SPLINE
5
100
100
AcDbEntity
8
0
100
AcDbSpline
70
1064
71
3
72
8
73
4
74
0
42
0.000000001
43
0.0000000001
44
0.0000000001
40
0
40
0
40
0
40
0
40
1
40
1
40
1
40
1
10
417.99101799999988
20
15.141111
30
0
10
417.99101799999988
20
16.024805000000001
30
0
10
417.27473799999996
20
16.74117
30
0
10
416.39081799999997
20
16.74117
30
0
0
LWPOLYLINE
5
101
100
AcDbEntity
8
0
100
AcDbPolyline
90
4
70
1
43
0.0
10
0.14111100000000931
20
0.14111300000000002
10
461.46278069140095
20
0.14111299999999716
10
461.46278069140095
20
230.89112900000001
10
0.14111099999999838
20
230.89112900000001
0
SPLINE
5
102
100
AcDbEntity
8
0
100
AcDbSpline
70
1064
71
3
72
8
73
4
74
0
42
0.000000001
43
0.0000000001
44
0.0000000001
40
0
40
0
40
0
40
0
40
1
40
1
40
1
40
1
10
396.39085799999987
20
16.74117
30
0
10
395.50721999999996
20
16.74117
30
0
10
394.79093999999986
20
16.024805000000001
30
0
10
394.79093999999986
20
15.141111
30
0
0
SPLINE
5
103
100
AcDbEntity
8
0
100
AcDbSpline
70
1064
71
3
72
8
73
4
74
0
42
0.000000001
43
0.0000000001
44
0.0000000001
40
0
40
0
40
0
40
0
40
1
40
1
40
1
40
1
10
416.39081799999997
20
13.541052000000002
30
0
10
417.27473799999996
20
13.541052000000002
30
0
10
417.99101799999988
20
14.257417000000004
30
0
10
417.99101799999988
20
15.141111
30
0
0
SPLINE
5
104
100
AcDbEntity
8
0
100
AcDbSpline
70
1064
71
3
72
8
73
4
74
0
42
0.000000001
43
0.0000000001
44
0.0000000001
40
0
40
0
40
0
40
0
40
1
40
1
40
1
40
1
10
51.541116000000002
20
15.141111
30
0
10
51.532648999999999
20
14.251151000000002
30
0
10
52.250903999999998
20
13.524881000000002
30
0
10
53.141032999999993
20
13.524881000000002
30
0
0
SPLINE
5
105
100
AcDbEntity
8
0
100
AcDbSpline
70
1064
71
3
72
8
73
4
74
0
42
0.000000001
43
0.0000000001
44
0.0000000001
40
0
40
0
40
0
40
0
40
1
40
1
40
1
40
1
10
414.79089999999997
20
15.141111
30
0
10
414.79089999999997
20
14.257417000000004
30
0
10
415.50717999999989
20
13.541052000000002
30
0
10
416.39081799999997
20
13.541052000000002
30
0
0
SPLINE
5
106
100
AcDbEntity
8
0
100
AcDbSpline
70
1064
71
3
72
8
73
4
74
0
42
0.000000001
43
0.0000000001
44
0.0000000001
40
0
40
0
40
0
40
0
40
1
40
1
40
1
40
1
10
396.39085799999987
20
13.541052000000002
30
0
10
397.27477800000003
20
13.541052000000002
30
0
10
397.99105799999995
20
14.257417000000004
30
0
10
397.99105799999995
20
15.141111
30
0
0
SPLINE
5
107
100
AcDbEntity
8
0
100
AcDbSpline
70
1064
71
3
72
8
73
4
74
0
42
0.000000001
43
0.0000000001
44
0.0000000001
40
0
40
0
40
0
40
0
40
1
40
1
40
1
40
1
10
112.74100400000002
20
215.141122
30
0
10
112.74100400000002
20
216.02481599999999
30
0
10
112.02472400000002
20
216.74117999999999
30
0
10
111.14108700000003
20
216.74117999999999
30
0
0
SPLINE
5
108
100
AcDbEntity
8
0
100
AcDbSpline
70
1064
71
3
72
8
73
4
74
0
42
0.000000001
43
0.0000000001
44
0.0000000001
40
0
40
0
40
0
40
0
40
1
40
1
40
1
40
1
10
167.54094000000003
20
215.141122
30
0
10
167.54094000000003
20
214.25742700000001
30
0
10
168.25721999999999
20
213.54106299999998
30
0
10
169.14085800000004
20
213.54106299999998
30
0
0
SPLINE
5
109
100
AcDbEntity
8
0
100
AcDbSpline
70
1064
71
3
72
8
73
4
74
0
42
0.000000001
43
0.0000000001
44
0.0000000001
40
0
40
0
40
0
40
0
40
1
40
1
40
1
40
1
10
73.14099299999998
20
13.524881000000002
30
0
10
74.031121999999982
20
13.524881000000002
30
0
10
74.749942000000004
20
14.251151000000002
30
0
10
74.740910999999983
20
15.141111
30
0
0
SPLINE
5
110
100
AcDbEntity
8
0
100
AcDbSpline
70
1064
71
3
72
8
73
4
74
0
42
0.000000001
43
0.0000000001
44
0.0000000001
40
0
40
0
40
0
40
0
40
1
40
1
40
1
40
1
10
54.740951000000003
20
15.141111
30
0
10
54.749417999999999
20
16.03107
30
0
10
54.031162000000002
20
16.757341
30
0
10
53.141032999999993
20
16.757341
30
0
0
SPLINE
5
111
100
AcDbEntity
8
0
100
AcDbSpline
70
1064
71
3
72
8
73
4
74
0
42
0.000000001
43
0.0000000001
44
0.0000000001
40
0
40
0
40
0
40
0
40
1
40
1
40
1
40
1
10
74.740910999999983
20
15.141111
30
0
10
74.749377999999979
20
16.03107
30
0
10
74.031121999999982
20
16.757341
30
0
10
73.14099299999998
20
16.757341
30
0
0
SPLINE
5
112
100
AcDbEntity
8
0
100
AcDbSpline
70
1064
71
3
72
8
73
4
74
0
42
0.000000001
43
0.0000000001
44
0.0000000001
40
0
40
0
40
0
40
0
40
1
40
1
40
1
40
1
10
170.74105800000001
20
215.141122
30
0
10
170.74105800000001
20
216.02481599999999
30
0
10
170.02477800000003
20
216.74117999999999
30
0
10
169.14085800000004
20
216.74117999999999
30
0
0
SPLINE
5
113
100
AcDbEntity
8
0
100
AcDbSpline
70
1064
71
3
72
8
73
4
74
0
42
0.000000001
43
0.0000000001
44
0.0000000001
40
0
40
0
40
0
40
0
40
1
40
1
40
1
40
1
10
169.14085800000004
20
216.74117999999999
30
0
10
168.25721999999999
20
216.74117999999999
30
0
10
167.54094000000003
20
216.02481599999999
30
0
10
167.54094000000003
20
215.141122
30
0
0
SPLINE
5
114
100
AcDbEntity
8
0
100
AcDbSpline
70
1064
71
3
72
8
73
4
74
0
42
0.000000001
43
0.0000000001
44
0.0000000001
40
0
40
0
40
0
40
0
40
1
40
1
40
1
40
1
10
397.99105799999995
20
15.141111
30
0
10
397.99105799999995
20
16.024805000000001
30
0
10
397.27477800000003
20
16.74117
30
0
10
396.39085799999987
20
16.74117
30
0
0
SPLINE
5
115
100
AcDbEntity
8
0
100
AcDbSpline
70
1064
71
3
72
8
73
4
74
0
42
0.000000001
43
0.0000000001
44
0.0000000001
40
0
40
0
40
0
40
0
40
1
40
1
40
1
40
1
10
53.141032999999993
20
13.524881000000002
30
0
10
54.031162000000002
20
13.524881000000002
30
0
10
54.74998200000001
20
14.251151000000002
30
0
10
54.740951000000003
20
15.141111
30
0
0
SPLINE
5
116
100
AcDbEntity
8
0
100
AcDbSpline
70
1064
71
3
72
8
73
4
74
0
42
0.000000001
43
0.0000000001
44
0.0000000001
40
0
40
0
40
0
40
0
40
1
40
1
40
1
40
1
10
394.79093999999986
20
15.141111
30
0
10
394.79093999999986
20
14.257417000000004
30
0
10
395.50721999999996
20
13.541052000000002
30
0
10
396.39085799999987
20
13.541052000000002
30
0
0
SPLINE
5
117
100
AcDbEntity
8
0
100
AcDbSpline
70
1064
71
3
72
8
73
4
74
0
42
0.000000001
43
0.0000000001
44
0.0000000001
40
0
40
0
40
0
40
0
40
1
40
1
40
1
40
1
10
416.39081799999997
20
16.74117
30
0
10
415.50717999999989
20
16.74117
30
0
10
414.79089999999997
20
16.024805000000001
30
0
10
414.79089999999997
20
15.141111
30
0
0
SPLINE
5
118
100
AcDbEntity
8
0
100
AcDbSpline
70
1064
71
3
72
8
73
4
74
0
42
0.000000001
43
0.0000000001
44
0.0000000001
40
0
40
0
40
0
40
0
40
1
40
1
40
1
40
1
10
53.141032999999993
20
16.757341
30
0
10
52.250903999999998
20
16.757341
30
0
10
51.532084000000005
20
16.03107
30
0
10
51.541116000000002
20
15.141111
30
0
0
SPLINE
5
119
100
AcDbEntity
8
0
100
AcDbSpline
70
1064
71
3
72
8
73
4
74
0
42
0.000000001
43
0.0000000001
44
0.0000000001
40
0
40
0
40
0
40
0
40
1
40
1
40
1
40
1
10
73.14099299999998
20
16.757341
30
0
10
72.250864000000007
20
16.757341
30
0
10
71.532043999999999
20
16.03107
30
0
10
71.541076000000004
20
15.141111
30
0
0
SPLINE
5
120
100
AcDbEntity
8
0
100
AcDbSpline
70
1064
71
3
72
8
73
4
74
0
42
0.000000001
43
0.0000000001
44
0.0000000001
40
0
40
0
40
0
40
0
40
1
40
1
40
1
40
1
10
71.541076000000004
20
15.141111
30
0
10
71.532608999999994
20
14.251151000000002
30
0
10
72.250864000000007
20
13.524881000000002
30
0
10
73.14099299999998
20
13.524881000000002
30
0
0
SPLINE
5
121
100
AcDbEntity
8
0
100
AcDbSpline
70
1064
71
3
72
8
73
4
74
0
42
0.000000001
43
0.0000000001
44
0.0000000001
40
0
40
0
40
0
40
0
40
1
40
1
40
1
40
1
10
111.14108700000003
20
213.54106299999998
30
0
10
112.02472400000002
20
213.54106299999998
30
0
10
112.74100400000002
20
214.25742700000001
30
0
10
112.74100400000002
20
215.141122
30
0
0
SPLINE
5
122
100
AcDbEntity
8
0
100
AcDbSpline
70
1064
71
3
72
8
73
4
74
0
42
0.000000001
43
0.0000000001
44
0.0000000001
40
0
40
0
40
0
40
0
40
1
40
1
40
1
40
1
10
111.14108700000003
20
216.74117999999999
30
0
10
110.25716700000001
20
216.74117999999999
30
0
10
109.54088700000001
20
216.02481599999999
30
0
10
109.54088700000001
20
215.141122
30
0
0
SPLINE
5
123
100
AcDbEntity
8
0
100
AcDbSpline
70
1064
71
3
72
8
73
4
74
0
42
0.000000001
43
0.0000000001
44
0.0000000001
40
0
40
0
40
0
40
0
40
1
40
1
40
1
40
1
10
169.14085800000004
20
213.54106299999998
30
0
10
170.02477800000003
20
213.54106299999998
30
0
10
170.74105800000001
20
214.25742700000001
30
0
10
170.74105800000001
20
215.141122
30
0
0
SPLINE
5
124
100
AcDbEntity
8
0
100
AcDbSpline
70
1064
71
3
72
8
73
4
74
0
42
0.000000001
43
0.0000000001
44
0.0000000001
40
0
40
0
40
0
40
0
40
1
40
1
40
1
40
1
10
109.54088700000001
20
215.141122
30
0
10
109.54088700000001
20
214.25742700000001
30
0
10
110.25716700000001
20
213.54106299999998
30
0
10
111.14108700000003
20
213.54106299999998
30
0
0
ENDSEC
0
SECTION
2
OBJECTS
0
DICTIONARY
5
C
100
AcDbDictionary
3
ACAD_GROUP
350
D
3
ACAD_MLINESTYLE
350
17
0
DICTIONARY
5
D
100
AcDbDictionary
0
DICTIONARY
5
1A
330
C
100
AcDbDictionary
0
DICTIONARY
5
17
100
AcDbDictionary
0
ENDSEC
0
EOF
