0
SECTION
2
HEADER
9
$INSUNITS
70
4
9
$ACADVER
1
AC1014
9
$HANDSEED
5
FFFF
0
ENDSEC
0
SECTION
2
TABLES
0
TABLE
2
VPORT
5
8
100
AcDbSymbolTable
0
ENDTAB
0
TABLE
2
LTYPE
5
5
100
AcDbSymbolTable
0
LTYPE
5
14
100
AcDbSymbolTableRecord
100
AcDbLinetypeTableRecord
2
BYBLOCK
70
0
0
LTYPE
5
15
100
AcDbSymbolTableRecord
100
AcDbLinetypeTableRecord
2
BYLAYER
70
0
0
ENDTAB
0
TABLE
2
LAYER
5
2
100
AcDbSymbolTable
70
2
0
LAYER
5
50
100
AcDbSymbolTableRecord
100
AcDbLayerTableRecord
2
0
70
0
6
CONTINUOUS
0
ENDTAB
0
TABLE
2
STYLE
5
3
100
AcDbSymbolTable
70
1
0
STYLE
5
11
100
AcDbSymbolTableRecord
100
AcDbTextStyleTableRecord
2
STANDARD
70
0
0
ENDTAB
0
TABLE
2
VIEW
5
6
100
AcDbSymbolTable
70
0
0
ENDTAB
0
TABLE
2
UCS
5
7
100
AcDbSymbolTable
70
0
0
ENDTAB
0
TABLE
2
APPID
5
9
100
AcDbSymbolTable
70
2
0
APPID
5
12
100
AcDbSymbolTableRecord
100
AcDbRegAppTableRecord
2
ACAD
70
0
0
ENDTAB
0
TABLE
2
DIMSTYLE
5
A
100
AcDbSymbolTable
70
1
0
ENDTAB
0
TABLE
2
BLOCK_RECORD
5
1
100
AcDbSymbolTable
70
1
0
BLOCK_RECORD
5
1F
100
AcDbSymbolTableRecord
100
AcDbBlockTableRecord
2
*MODEL_SPACE
0
BLOCK_RECORD
5
1B
100
AcDbSymbolTableRecord
100
AcDbBlockTableRecord
2
*PAPER_SPACE
0
ENDTAB
0
ENDSEC
0
SECTION
2
BLOCKS
0
BLOCK
5
20
100
AcDbEntity
100
AcDbBlockBegin
2
*MODEL_SPACE
0
ENDBLK
5
21
100
AcDbEntity
100
AcDbBlockEnd
0
BLOCK
5
1C
100
AcDbEntity
100
AcDbBlockBegin
2
*PAPER_SPACE
0
ENDBLK
5
1D
100
AcDbEntity
100
AcDbBlockEnd
0
ENDSEC
0
SECTION
2
ENTITIES
0
SPLINE
5
100
100
AcDbEntity
8
0
100
AcDbSpline
70
1064
71
3
72
8
73
4
74
0
42
0.000000001
43
0.0000000001
44
0.0000000001
40
0
40
0
40
0
40
0
40
1
40
1
40
1
40
1
10
35.581111000000064
20
293.604871
30
0
10
35.581111000000064
20
292.81886400000002
30
0
10
36.000439000000071
20
292.09256400000004
30
0
10
36.681142000000065
20
291.69956100000002
30
0
0
SPLINE
5
101
100
AcDbEntity
8
0
100
AcDbSpline
70
1064
71
3
72
8
73
4
74
0
42
0.000000001
43
0.0000000001
44
0.0000000001
40
0
40
0
40
0
40
0
40
1
40
1
40
1
40
1
10
17.636451000000065
20
291.68419600000004
30
0
10
18.319842000000065
20
292.08131200000003
30
0
10
18.737684000000069
20
292.81450400000006
30
0
10
18.731033000000068
20
293.604871
30
0
0
SPLINE
5
102
100
AcDbEntity
8
0
100
AcDbSpline
70
1064
71
3
72
8
73
4
74
0
42
0.000000001
43
0.0000000001
44
0.0000000001
40
0
40
0
40
0
40
0
40
1
40
1
40
1
40
1
10
18.731033000000068
20
293.604871
30
0
10
18.73768500000007
20
294.39523900000006
30
0
10
18.319842000000065
20
295.12843100000003
30
0
10
17.636451000000065
20
295.52554700000007
30
0
0
SPLINE
5
103
100
AcDbEntity
8
0
100
AcDbSpline
70
1064
71
3
72
8
73
4
74
0
42
0.000000001
43
0.0000000001
44
0.0000000001
40
0
40
0
40
0
40
0
40
1
40
1
40
1
40
1
10
370.70081500000009
20
295.31018300000005
30
0
10
370.02009500000008
20
294.91718000000003
30
0
10
369.60076900000001
20
294.19087900000005
30
0
10
369.60076900000001
20
293.40487200000007
30
0
0
SPLINE
5
104
100
AcDbEntity
8
0
100
AcDbSpline
70
1064
71
3
72
8
73
4
74
0
42
0.000000001
43
0.0000000001
44
0.0000000001
40
0
40
0
40
0
40
0
40
1
40
1
40
1
40
1
10
9.241142
20
136.10639399999999
30
0
10
8.5604399999999998
20
135.71338800000001
30
0
10
8.1411110000000004
20
134.987089
30
0
10
8.1411110000000004
20
134.20108000000002
30
0
0
SPLINE
5
105
100
AcDbEntity
8
0
100
AcDbSpline
70
1064
71
3
72
8
73
4
74
0
42
0.000000001
43
0.0000000001
44
0.0000000001
40
0
40
0
40
0
40
0
40
1
40
1
40
1
40
1
10
36.681142000000065
20
291.69956100000002
30
0
10
37.361845000000066
20
291.306557
30
0
10
38.200503000000069
20
291.306557
30
0
10
38.881206000000063
20
291.69956100000002
30
0
0
SPLINE
5
106
100
AcDbEntity
8
0
100
AcDbSpline
70
1064
71
3
72
8
73
4
74
0
42
0.000000001
43
0.0000000001
44
0.0000000001
40
0
40
0
40
0
40
0
40
1
40
1
40
1
40
1
10
17.636451000000065
20
295.52554700000007
30
0
10
16.953060000000065
20
295.922663
30
0
10
16.109162000000065
20
295.922663
30
0
10
15.425771000000065
20
295.52554700000007
30
0
0
SPLINE
5
107
100
AcDbEntity
8
0
100
AcDbSpline
70
1064
71
3
72
8
73
4
74
0
42
0.000000001
43
0.0000000001
44
0.0000000001
40
0
40
0
40
0
40
0
40
1
40
1
40
1
40
1
10
380.49086399999999
20
114.88638400000001
30
0
10
379.81014399999998
20
115.27938700000001
30
0
10
378.97149300000001
20
115.27938700000001
30
0
10
378.29082900000003
20
114.88638400000001
30
0
0
SPLINE
5
108
100
AcDbEntity
8
0
100
AcDbSpline
70
1064
71
3
72
8
73
4
74
0
42
0.000000001
43
0.0000000001
44
0.0000000001
40
0
40
0
40
0
40
0
40
1
40
1
40
1
40
1
10
11.441205999999999
20
132.29577
30
0
10
12.121908000000001
20
132.688773
30
0
10
12.541237000000001
20
133.415075
30
0
10
12.541237000000001
20
134.20108000000002
30
0
0
SPLINE
5
109
100
AcDbEntity
8
0
100
AcDbSpline
70
1064
71
3
72
8
73
4
74
0
42
0.000000001
43
0.0000000001
44
0.0000000001
40
0
40
0
40
0
40
0
40
1
40
1
40
1
40
1
10
9.241142
20
111.07576299999999
30
0
10
9.9218440000000001
20
110.68276000000003
30
0
10
10.760503999999999
20
110.68276000000003
30
0
10
11.441205999999999
20
111.07576299999999
30
0
0
SPLINE
5
110
100
AcDbEntity
8
0
100
AcDbSpline
70
1064
71
3
72
8
73
4
74
0
42
0.000000001
43
0.0000000001
44
0.0000000001
40
0
40
0
40
0
40
0
40
1
40
1
40
1
40
1
10
12.541237000000001
20
112.98107399999999
30
0
10
12.541237000000001
20
113.76708200000002
30
0
10
12.121908000000001
20
114.493381
30
0
10
11.441205999999999
20
114.88638400000001
30
0
0
SPLINE
5
111
100
AcDbEntity
8
0
100
AcDbSpline
70
1064
71
3
72
8
73
4
74
0
42
0.000000001
43
0.0000000001
44
0.0000000001
40
0
40
0
40
0
40
0
40
1
40
1
40
1
40
1
10
381.59085400000004
20
112.98107399999999
30
0
10
381.59085400000004
20
113.76708200000002
30
0
10
381.17155600000001
20
114.493381
30
0
10
380.49086399999999
20
114.88638400000001
30
0
0
SPLINE
5
112
100
AcDbEntity
8
0
100
AcDbSpline
70
1064
71
3
72
8
73
4
74
0
42
0.000000001
43
0.0000000001
44
0.0000000001
40
0
40
0
40
0
40
0
40
1
40
1
40
1
40
1
10
378.29082900000003
20
136.10639399999999
30
0
10
377.61010899999997
20
135.71338800000001
30
0
10
377.19078300000001
20
134.987089
30
0
10
377.19078300000001
20
134.20108000000002
30
0
0
SPLINE
5
113
100
AcDbEntity
8
0
100
AcDbSpline
70
1064
71
3
72
8
73
4
74
0
42
0.000000001
43
0.0000000001
44
0.0000000001
40
0
40
0
40
0
40
0
40
1
40
1
40
1
40
1
10
378.29082900000003
20
111.07576299999999
30
0
10
378.97149300000001
20
110.68276000000003
30
0
10
379.81014399999998
20
110.68276000000003
30
0
10
380.49086399999999
20
111.07576299999999
30
0
0
SPLINE
5
114
100
AcDbEntity
8
0
100
AcDbSpline
70
1064
71
3
72
8
73
4
74
0
42
0.000000001
43
0.0000000001
44
0.0000000001
40
0
40
0
40
0
40
0
40
1
40
1
40
1
40
1
10
380.49086399999999
20
136.10639399999999
30
0
10
379.81014399999998
20
136.49939699999999
30
0
10
378.97149300000001
20
136.49939699999999
30
0
10
378.29082900000003
20
136.10639399999999
30
0
0
LWPOLYLINE
5
115
100
AcDbEntity
8
0
100
AcDbPolyline
90
4
70
1
43
0.0
10
390.03613900000005
20
303.66112200000003
10
0.060868000000019913
20
303.66112200000003
10
0.16086799999996515
20
0.16086099999999998
10
390.03613900000005
20
0.16086099999998993
0
SPLINE
5
116
100
AcDbEntity
8
0
100
AcDbSpline
70
1064
71
3
72
8
73
4
74
0
42
0.000000001
43
0.0000000001
44
0.0000000001
40
0
40
0
40
0
40
0
40
1
40
1
40
1
40
1
10
377.19078300000001
20
134.20108000000002
30
0
10
377.19078300000001
20
133.415075
30
0
10
377.61010899999997
20
132.688773
30
0
10
378.29082900000003
20
132.29577
30
0
0
SPLINE
5
117
100
AcDbEntity
8
0
100
AcDbSpline
70
1064
71
3
72
8
73
4
74
0
42
0.000000001
43
0.0000000001
44
0.0000000001
40
0
40
0
40
0
40
0
40
1
40
1
40
1
40
1
10
380.49086399999999
20
132.29577
30
0
10
381.17155600000001
20
132.688773
30
0
10
381.59085400000004
20
133.415075
30
0
10
381.59085400000004
20
134.20108000000002
30
0
0
SPLINE
5
118
100
AcDbEntity
8
0
100
AcDbSpline
70
1064
71
3
72
8
73
4
74
0
42
0.000000001
43
0.0000000001
44
0.0000000001
40
0
40
0
40
0
40
0
40
1
40
1
40
1
40
1
10
12.541237000000001
20
134.20108000000002
30
0
10
12.541237000000001
20
134.987089
30
0
10
12.121908000000001
20
135.71338800000001
30
0
10
11.441205999999999
20
136.10639399999999
30
0
0
SPLINE
5
119
100
AcDbEntity
8
0
100
AcDbSpline
70
1064
71
3
72
8
73
4
74
0
42
0.000000001
43
0.0000000001
44
0.0000000001
40
0
40
0
40
0
40
0
40
1
40
1
40
1
40
1
10
351.65115300000002
20
291.49956200000008
30
0
10
352.33184500000004
20
291.89256500000005
30
0
10
352.75117100000011
20
292.61886500000003
30
0
10
352.75117100000011
20
293.40487200000007
30
0
0
SPLINE
5
120
100
AcDbEntity
8
0
100
AcDbSpline
70
1064
71
3
72
8
73
4
74
0
42
0.000000001
43
0.0000000001
44
0.0000000001
40
0
40
0
40
0
40
0
40
1
40
1
40
1
40
1
10
369.60076900000001
20
293.40487200000007
30
0
10
369.60076900000001
20
292.61886500000003
30
0
10
370.02009500000008
20
291.89256500000005
30
0
10
370.70081500000009
20
291.49956200000008
30
0
0
SPLINE
5
121
100
AcDbEntity
8
0
100
AcDbSpline
70
1064
71
3
72
8
73
4
74
0
42
0.000000001
43
0.0000000001
44
0.0000000001
40
0
40
0
40
0
40
0
40
1
40
1
40
1
40
1
10
374.00086700000003
20
293.40487200000007
30
0
10
374.00086700000003
20
294.19087900000005
30
0
10
373.58154200000001
20
294.91718000000003
30
0
10
372.90085000000005
20
295.31018300000005
30
0
0
SPLINE
5
122
100
AcDbEntity
8
0
100
AcDbSpline
70
1064
71
3
72
8
73
4
74
0
42
0.000000001
43
0.0000000001
44
0.0000000001
40
0
40
0
40
0
40
0
40
1
40
1
40
1
40
1
10
36.681142000000065
20
295.51018200000004
30
0
10
36.000439000000071
20
295.11717900000002
30
0
10
35.581111000000064
20
294.39087799999999
30
0
10
35.581111000000064
20
293.604871
30
0
0
SPLINE
5
123
100
AcDbEntity
8
0
100
AcDbSpline
70
1064
71
3
72
8
73
4
74
0
42
0.000000001
43
0.0000000001
44
0.0000000001
40
0
40
0
40
0
40
0
40
1
40
1
40
1
40
1
10
378.29082900000003
20
114.88638400000001
30
0
10
377.61010899999997
20
114.493381
30
0
10
377.19078300000001
20
113.76708200000002
30
0
10
377.19078300000001
20
112.98107399999999
30
0
0
SPLINE
5
124
100
AcDbEntity
8
0
100
AcDbSpline
70
1064
71
3
72
8
73
4
74
0
42
0.000000001
43
0.0000000001
44
0.0000000001
40
0
40
0
40
0
40
0
40
1
40
1
40
1
40
1
10
9.241142
20
132.29577
30
0
10
9.9218440000000001
20
131.90276699999998
30
0
10
10.760503999999999
20
131.90276699999998
30
0
10
11.441205999999999
20
132.29577
30
0
0
SPLINE
5
125
100
AcDbEntity
8
0
100
AcDbSpline
70
1064
71
3
72
8
73
4
74
0
42
0.000000001
43
0.0000000001
44
0.0000000001
40
0
40
0
40
0
40
0
40
1
40
1
40
1
40
1
10
11.441205999999999
20
136.10639399999999
30
0
10
10.760503999999999
20
136.49939699999999
30
0
10
9.9218440000000001
20
136.49939699999999
30
0
10
9.241142
20
136.10639399999999
30
0
0
SPLINE
5
126
100
AcDbEntity
8
0
100
AcDbSpline
70
1064
71
3
72
8
73
4
74
0
42
0.000000001
43
0.0000000001
44
0.0000000001
40
0
40
0
40
0
40
0
40
1
40
1
40
1
40
1
10
349.45111800000006
20
291.49956200000008
30
0
10
350.13181000000003
20
291.10655800000006
30
0
10
350.97046200000011
20
291.10655800000006
30
0
10
351.65115300000002
20
291.49956200000008
30
0
0
SPLINE
5
127
100
AcDbEntity
8
0
100
AcDbSpline
70
1064
71
3
72
8
73
4
74
0
42
0.000000001
43
0.0000000001
44
0.0000000001
40
0
40
0
40
0
40
0
40
1
40
1
40
1
40
1
10
372.90085000000005
20
295.31018300000005
30
0
10
372.22013000000004
20
295.70318700000007
30
0
10
371.38150700000006
20
295.70318700000007
30
0
10
370.70081500000009
20
295.31018300000005
30
0
0
SPLINE
5
128
100
AcDbEntity
8
0
100
AcDbSpline
70
1064
71
3
72
8
73
4
74
0
42
0.000000001
43
0.0000000001
44
0.0000000001
40
0
40
0
40
0
40
0
40
1
40
1
40
1
40
1
10
378.29082900000003
20
132.29577
30
0
10
378.97149300000001
20
131.90276699999998
30
0
10
379.81014399999998
20
131.90276699999998
30
0
10
380.49086399999999
20
132.29577
30
0
0
SPLINE
5
129
100
AcDbEntity
8
0
100
AcDbSpline
70
1064
71
3
72
8
73
4
74
0
42
0.000000001
43
0.0000000001
44
0.0000000001
40
0
40
0
40
0
40
0
40
1
40
1
40
1
40
1
10
8.1411110000000004
20
134.20108000000002
30
0
10
8.1411110000000004
20
133.415075
30
0
10
8.5604399999999998
20
132.688773
30
0
10
9.241142
20
132.29577
30
0
0
SPLINE
5
130
100
AcDbEntity
8
0
100
AcDbSpline
70
1064
71
3
72
8
73
4
74
0
42
0.000000001
43
0.0000000001
44
0.0000000001
40
0
40
0
40
0
40
0
40
1
40
1
40
1
40
1
10
9.241142
20
114.88638400000001
30
0
10
8.5604399999999998
20
114.493381
30
0
10
8.1411110000000004
20
113.76708200000002
30
0
10
8.1411110000000004
20
112.98107399999999
30
0
0
SPLINE
5
131
100
AcDbEntity
8
0
100
AcDbSpline
70
1064
71
3
72
8
73
4
74
0
42
0.000000001
43
0.0000000001
44
0.0000000001
40
0
40
0
40
0
40
0
40
1
40
1
40
1
40
1
10
380.49086399999999
20
111.07576299999999
30
0
10
381.17155600000001
20
111.46876599999999
30
0
10
381.59085400000004
20
112.19506799999999
30
0
10
381.59085400000004
20
112.98107399999999
30
0
0
SPLINE
5
132
100
AcDbEntity
8
0
100
AcDbSpline
70
1064
71
3
72
8
73
4
74
0
42
0.000000001
43
0.0000000001
44
0.0000000001
40
0
40
0
40
0
40
0
40
1
40
1
40
1
40
1
10
11.441205999999999
20
114.88638400000001
30
0
10
10.760503999999999
20
115.27938700000001
30
0
10
9.9218440000000001
20
115.27938700000001
30
0
10
9.241142
20
114.88638400000001
30
0
0
SPLINE
5
133
100
AcDbEntity
8
0
100
AcDbSpline
70
1064
71
3
72
8
73
4
74
0
42
0.000000001
43
0.0000000001
44
0.0000000001
40
0
40
0
40
0
40
0
40
1
40
1
40
1
40
1
10
11.441205999999999
20
111.07576299999999
30
0
10
12.121908000000001
20
111.46876599999999
30
0
10
12.541237000000001
20
112.19506799999999
30
0
10
12.541237000000001
20
112.98107399999999
30
0
0
SPLINE
5
134
100
AcDbEntity
8
0
100
AcDbSpline
70
1064
71
3
72
8
73
4
74
0
42
0.000000001
43
0.0000000001
44
0.0000000001
40
0
40
0
40
0
40
0
40
1
40
1
40
1
40
1
10
370.70081500000009
20
291.49956200000008
30
0
10
371.38150700000006
20
291.10655800000006
30
0
10
372.22013000000004
20
291.10655800000006
30
0
10
372.90085000000005
20
291.49956200000008
30
0
0
SPLINE
5
135
100
AcDbEntity
8
0
100
AcDbSpline
70
1064
71
3
72
8
73
4
74
0
42
0.000000001
43
0.0000000001
44
0.0000000001
40
0
40
0
40
0
40
0
40
1
40
1
40
1
40
1
10
38.881206000000063
20
295.51018200000004
30
0
10
38.200503000000069
20
295.90318600000001
30
0
10
37.361845000000066
20
295.90318600000001
30
0
10
36.681142000000065
20
295.51018200000004
30
0
0
SPLINE
5
136
100
AcDbEntity
8
0
100
AcDbSpline
70
1064
71
3
72
8
73
4
74
0
42
0.000000001
43
0.0000000001
44
0.0000000001
40
0
40
0
40
0
40
0
40
1
40
1
40
1
40
1
10
39.981237000000071
20
293.604871
30
0
10
39.981237000000071
20
294.39087799999999
30
0
10
39.561909000000071
20
295.11717900000002
30
0
10
38.881206000000063
20
295.51018200000004
30
0
0
SPLINE
5
137
100
AcDbEntity
8
0
100
AcDbSpline
70
1064
71
3
72
8
73
4
74
0
42
0.000000001
43
0.0000000001
44
0.0000000001
40
0
40
0
40
0
40
0
40
1
40
1
40
1
40
1
10
38.881206000000063
20
291.69956100000002
30
0
10
39.561909000000071
20
292.09256400000004
30
0
10
39.981237000000071
20
292.81886400000002
30
0
10
39.981237000000071
20
293.604871
30
0
0
SPLINE
5
138
100
AcDbEntity
8
0
100
AcDbSpline
70
1064
71
3
72
8
73
4
74
0
42
0.000000001
43
0.0000000001
44
0.0000000001
40
0
40
0
40
0
40
0
40
1
40
1
40
1
40
1
10
15.425771000000065
20
295.52554700000007
30
0
10
14.742380000000066
20
295.12843100000003
30
0
10
14.324538000000066
20
294.39523900000006
30
0
10
14.331189000000066
20
293.604871
30
0
0
SPLINE
5
139
100
AcDbEntity
8
0
100
AcDbSpline
70
1064
71
3
72
8
73
4
74
0
42
0.000000001
43
0.0000000001
44
0.0000000001
40
0
40
0
40
0
40
0
40
1
40
1
40
1
40
1
10
14.331189000000066
20
293.604871
30
0
10
14.324537000000067
20
292.81450400000006
30
0
10
14.742380000000066
20
292.08131200000003
30
0
10
15.425771000000065
20
291.68419600000004
30
0
0
SPLINE
5
140
100
AcDbEntity
8
0
100
AcDbSpline
70
1064
71
3
72
8
73
4
74
0
42
0.000000001
43
0.0000000001
44
0.0000000001
40
0
40
0
40
0
40
0
40
1
40
1
40
1
40
1
10
15.425771000000065
20
291.68419600000004
30
0
10
16.109162000000065
20
291.28707900000006
30
0
10
16.953060000000065
20
291.28707900000006
30
0
10
17.636451000000065
20
291.68419600000004
30
0
0
SPLINE
5
141
100
AcDbEntity
8
0
100
AcDbSpline
70
1064
71
3
72
8
73
4
74
0
42
0.000000001
43
0.0000000001
44
0.0000000001
40
0
40
0
40
0
40
0
40
1
40
1
40
1
40
1
10
8.1411110000000004
20
112.98107399999999
30
0
10
8.1411110000000004
20
112.19506799999999
30
0
10
8.5604399999999998
20
111.46876599999999
30
0
10
9.241142
20
111.07576299999999
30
0
0
SPLINE
5
142
100
AcDbEntity
8
0
100
AcDbSpline
70
1064
71
3
72
8
73
4
74
0
42
0.000000001
43
0.0000000001
44
0.0000000001
40
0
40
0
40
0
40
0
40
1
40
1
40
1
40
1
10
349.45111800000006
20
295.31018300000005
30
0
10
348.77042700000004
20
294.91718000000003
30
0
10
348.35110100000009
20
294.19087900000005
30
0
10
348.35110100000009
20
293.40487200000007
30
0
0
SPLINE
5
143
100
AcDbEntity
8
0
100
AcDbSpline
70
1064
71
3
72
8
73
4
74
0
42
0.000000001
43
0.0000000001
44
0.0000000001
40
0
40
0
40
0
40
0
40
1
40
1
40
1
40
1
10
351.65115300000002
20
295.31018300000005
30
0
10
350.97046200000011
20
295.70318700000007
30
0
10
350.13181000000003
20
295.70318700000007
30
0
10
349.45111800000006
20
295.31018300000005
30
0
0
SPLINE
5
144
100
AcDbEntity
8
0
100
AcDbSpline
70
1064
71
3
72
8
73
4
74
0
42
0.000000001
43
0.0000000001
44
0.0000000001
40
0
40
0
40
0
40
0
40
1
40
1
40
1
40
1
10
377.19078300000001
20
112.98107399999999
30
0
10
377.19078300000001
20
112.19506799999999
30
0
10
377.61010899999997
20
111.46876599999999
30
0
10
378.29082900000003
20
111.07576299999999
30
0
0
SPLINE
5
145
100
AcDbEntity
8
0
100
AcDbSpline
70
1064
71
3
72
8
73
4
74
0
42
0.000000001
43
0.0000000001
44
0.0000000001
40
0
40
0
40
0
40
0
40
1
40
1
40
1
40
1
10
372.90085000000005
20
291.49956200000008
30
0
10
373.58154200000001
20
291.89256500000005
30
0
10
374.00086700000003
20
292.61886500000003
30
0
10
374.00086700000003
20
293.40487200000007
30
0
0
SPLINE
5
146
100
AcDbEntity
8
0
100
AcDbSpline
70
1064
71
3
72
8
73
4
74
0
42
0.000000001
43
0.0000000001
44
0.0000000001
40
0
40
0
40
0
40
0
40
1
40
1
40
1
40
1
10
352.75117100000011
20
293.40487200000007
30
0
10
352.75117100000011
20
294.19087900000005
30
0
10
352.33184500000004
20
294.91718000000003
30
0
10
351.65115300000002
20
295.31018300000005
30
0
0
SPLINE
5
147
100
AcDbEntity
8
0
100
AcDbSpline
70
1064
71
3
72
8
73
4
74
0
42
0.000000001
43
0.0000000001
44
0.0000000001
40
0
40
0
40
0
40
0
40
1
40
1
40
1
40
1
10
348.35110100000009
20
293.40487200000007
30
0
10
348.35110100000009
20
292.61886500000003
30
0
10
348.77042700000004
20
291.89256500000005
30
0
10
349.45111800000006
20
291.49956200000008
30
0
0
SPLINE
5
148
100
AcDbEntity
8
0
100
AcDbSpline
70
1064
71
3
72
8
73
4
74
0
42
0.000000001
43
0.0000000001
44
0.0000000001
40
0
40
0
40
0
40
0
40
1
40
1
40
1
40
1
10
381.59085400000004
20
134.20108000000002
30
0
10
381.59085400000004
20
134.987089
30
0
10
381.17155600000001
20
135.71338800000001
30
0
10
380.49086399999999
20
136.10639399999999
30
0
0
ENDSEC
0
SECTION
2
OBJECTS
0
DICTIONARY
5
C
100
AcDbDictionary
3
ACAD_GROUP
350
D
3
ACAD_MLINESTYLE
350
17
0
DICTIONARY
5
D
100
AcDbDictionary
0
DICTIONARY
5
1A
330
C
100
AcDbDictionary
0
DICTIONARY
5
17
100
AcDbDictionary
0
ENDSEC
0
EOF
