0
SECTION
2
HEADER
9
$INSUNITS
70
4
9
$ACADVER
1
AC1014
9
$HANDSEED
5
FFFF
0
ENDSEC
0
SECTION
2
TABLES
0
TABLE
2
VPORT
5
8
100
AcDbSymbolTable
0
ENDTAB
0
TABLE
2
LTYPE
5
5
100
AcDbSymbolTable
0
LTYPE
5
14
100
AcDbSymbolTableRecord
100
AcDbLinetypeTableRecord
2
BYBLOCK
70
0
0
LTYPE
5
15
100
AcDbSymbolTableRecord
100
AcDbLinetypeTableRecord
2
BYLAYER
70
0
0
ENDTAB
0
TABLE
2
LAYER
5
2
100
AcDbSymbolTable
70
2
0
LAYER
5
50
100
AcDbSymbolTableRecord
100
AcDbLayerTableRecord
2
0
70
0
6
CONTINUOUS
0
ENDTAB
0
TABLE
2
STYLE
5
3
100
AcDbSymbolTable
70
1
0
STYLE
5
11
100
AcDbSymbolTableRecord
100
AcDbTextStyleTableRecord
2
STANDARD
70
0
0
ENDTAB
0
TABLE
2
VIEW
5
6
100
AcDbSymbolTable
70
0
0
ENDTAB
0
TABLE
2
UCS
5
7
100
AcDbSymbolTable
70
0
0
ENDTAB
0
TABLE
2
APPID
5
9
100
AcDbSymbolTable
70
2
0
APPID
5
12
100
AcDbSymbolTableRecord
100
AcDbRegAppTableRecord
2
ACAD
70
0
0
ENDTAB
0
TABLE
2
DIMSTYLE
5
A
100
AcDbSymbolTable
70
1
0
ENDTAB
0
TABLE
2
BLOCK_RECORD
5
1
100
AcDbSymbolTable
70
1
0
BLOCK_RECORD
5
1F
100
AcDbSymbolTableRecord
100
AcDbBlockTableRecord
2
*MODEL_SPACE
0
BLOCK_RECORD
5
1B
100
AcDbSymbolTableRecord
100
AcDbBlockTableRecord
2
*PAPER_SPACE
0
ENDTAB
0
ENDSEC
0
SECTION
2
BLOCKS
0
BLOCK
5
20
100
AcDbEntity
100
AcDbBlockBegin
2
*MODEL_SPACE
0
ENDBLK
5
21
100
AcDbEntity
100
AcDbBlockEnd
0
BLOCK
5
1C
100
AcDbEntity
100
AcDbBlockBegin
2
*PAPER_SPACE
0
ENDBLK
5
1D
100
AcDbEntity
100
AcDbBlockEnd
0
ENDSEC
0
SECTION
2
ENTITIES
0
SPLINE
5
100
100
AcDbEntity
8
0
100
AcDbSpline
70
1064
71
3
72
8
73
4
74
0
42
0.000000001
43
0.0000000001
44
0.0000000001
40
0
40
0
40
0
40
0
40
1
40
1
40
1
40
1
10
374.74105700000007
20
30.394003999999999
30
0
10
374.74105700000007
20
31.531117999999999
30
0
10
375.66286600000007
20
32.452933999999999
30
0
10
376.79998100000006
20
32.452942
30
0
0
SPLINE
5
101
100
AcDbEntity
8
0
100
AcDbSpline
70
1064
71
3
72
8
73
4
74
0
42
0.000000001
43
0.0000000001
44
0.0000000001
40
0
40
0
40
0
40
0
40
1
40
1
40
1
40
1
10
378.25587900000005
20
28.938109999999998
30
0
10
377.86975000000007
20
28.551984000000004
30
0
10
377.34604700000011
20
28.335062000000004
30
0
10
376.79998100000006
20
28.335065999999998
30
0
0
SPLINE
5
102
100
AcDbEntity
8
0
100
AcDbSpline
70
1064
71
3
72
8
73
4
74
0
42
0.000000001
43
0.0000000001
44
0.0000000001
40
0
40
0
40
0
40
0
40
1
40
1
40
1
40
1
10
378.85893300000009
20
30.394003999999999
30
0
10
378.85893300000009
20
29.847937000000002
30
0
10
378.64200800000003
20
29.324235999999999
30
0
10
378.25587900000005
20
28.938109999999998
30
0
0
SPLINE
5
103
100
AcDbEntity
8
0
100
AcDbSpline
70
1064
71
3
72
8
73
4
74
0
42
0.000000001
43
0.0000000001
44
0.0000000001
40
0
40
0
40
0
40
0
40
1
40
1
40
1
40
1
10
376.79998100000006
20
28.335065999999998
30
0
10
375.66286600000007
20
28.335074000000002
30
0
10
374.74105700000007
20
29.256889000000005
30
0
10
374.74105700000007
20
30.394003999999999
30
0
0
SPLINE
5
104
100
AcDbEntity
8
0
100
AcDbSpline
70
1064
71
3
72
8
73
4
74
0
42
0.000000001
43
0.0000000001
44
0.0000000001
40
0
40
0
40
0
40
0
40
1
40
1
40
1
40
1
10
376.79998100000006
20
32.452942
30
0
10
377.34604700000011
20
32.452946000000004
30
0
10
377.86975000000007
20
32.236024
30
0
10
378.25587900000005
20
31.849898000000003
30
0
0
SPLINE
5
105
100
AcDbEntity
8
0
100
AcDbSpline
70
1064
71
3
72
8
73
4
74
0
42
0.000000001
43
0.0000000001
44
0.0000000001
40
0
40
0
40
0
40
0
40
1
40
1
40
1
40
1
10
376.79998100000006
20
49.455067
30
0
10
375.66286600000007
20
49.455075000000008
30
0
10
374.74105700000007
20
50.376891000000008
30
0
10
374.74105700000007
20
51.514005000000004
30
0
0
SPLINE
5
106
100
AcDbEntity
8
0
100
AcDbSpline
70
1064
71
3
72
8
73
4
74
0
42
0.000000001
43
0.0000000001
44
0.0000000001
40
0
40
0
40
0
40
0
40
1
40
1
40
1
40
1
10
378.25587900000005
20
153.75690200000003
30
0
10
378.64200800000003
20
153.37077500000001
30
0
10
378.85893300000009
20
152.84707399999999
30
0
10
378.85893300000009
20
152.301008
30
0
0
SPLINE
5
107
100
AcDbEntity
8
0
100
AcDbSpline
70
1064
71
3
72
8
73
4
74
0
42
0.000000001
43
0.0000000001
44
0.0000000001
40
0
40
0
40
0
40
0
40
1
40
1
40
1
40
1
10
376.79998100000006
20
154.35994600000001
30
0
10
377.34604700000011
20
154.359949
30
0
10
377.86975000000007
20
154.14302800000002
30
0
10
378.25587900000005
20
153.75690200000003
30
0
0
SPLINE
5
108
100
AcDbEntity
8
0
100
AcDbSpline
70
1064
71
3
72
8
73
4
74
0
42
0.000000001
43
0.0000000001
44
0.0000000001
40
0
40
0
40
0
40
0
40
1
40
1
40
1
40
1
10
374.74105700000007
20
152.301008
30
0
10
374.74105700000007
20
153.43812199999999
30
0
10
375.66286600000007
20
154.359938
30
0
10
376.79998100000006
20
154.35994600000001
30
0
0
SPLINE
5
109
100
AcDbEntity
8
0
100
AcDbSpline
70
1064
71
3
72
8
73
4
74
0
42
0.000000001
43
0.0000000001
44
0.0000000001
40
0
40
0
40
0
40
0
40
1
40
1
40
1
40
1
10
378.25587900000005
20
31.849898000000003
30
0
10
378.64200800000003
20
31.463771999999999
30
0
10
378.85893300000009
20
30.940071000000007
30
0
10
378.85893300000009
20
30.394003999999999
30
0
0
SPLINE
5
110
100
AcDbEntity
8
0
100
AcDbSpline
70
1064
71
3
72
8
73
4
74
0
42
0.000000001
43
0.0000000001
44
0.0000000001
40
0
40
0
40
0
40
0
40
1
40
1
40
1
40
1
10
378.85893300000009
20
51.514005000000004
30
0
10
378.85893300000009
20
50.967938000000004
30
0
10
378.64200800000003
20
50.444237000000001
30
0
10
378.25587900000005
20
50.058110999999997
30
0
0
SPLINE
5
111
100
AcDbEntity
8
0
100
AcDbSpline
70
1064
71
3
72
8
73
4
74
0
42
0.000000001
43
0.0000000001
44
0.0000000001
40
0
40
0
40
0
40
0
40
1
40
1
40
1
40
1
10
374.74105700000007
20
51.514005000000004
30
0
10
374.74105700000007
20
52.651120000000006
30
0
10
375.66286600000007
20
53.572935000000008
30
0
10
376.79998100000006
20
53.572943000000002
30
0
0
SPLINE
5
112
100
AcDbEntity
8
0
100
AcDbSpline
70
1064
71
3
72
8
73
4
74
0
42
0.000000001
43
0.0000000001
44
0.0000000001
40
0
40
0
40
0
40
0
40
1
40
1
40
1
40
1
10
203.65270200000003
20
7.4000050000000002
30
0
10
203.65270200000003
20
8.5371250000000014
30
0
10
204.57452000000004
20
9.4589429999999997
30
0
10
205.71164000000005
20
9.4589429999999997
30
0
0
SPLINE
5
113
100
AcDbEntity
8
0
100
AcDbSpline
70
1064
71
3
72
8
73
4
74
0
42
0.000000001
43
0.0000000001
44
0.0000000001
40
0
40
0
40
0
40
0
40
1
40
1
40
1
40
1
10
126.87600300000003
20
5.3410660000000014
30
0
10
125.73888300000004
20
5.3410660000000014
30
0
10
124.81706500000003
20
6.2628839999999997
30
0
10
124.81706500000003
20
7.4000050000000002
30
0
0
SPLINE
5
114
100
AcDbEntity
8
0
100
AcDbSpline
70
1064
71
3
72
8
73
4
74
0
42
0.000000001
43
0.0000000001
44
0.0000000001
40
0
40
0
40
0
40
0
40
1
40
1
40
1
40
1
10
105.75599900000002
20
9.4589429999999997
30
0
10
106.89311900000001
20
9.4589429999999997
30
0
10
107.81493700000004
20
8.5371250000000014
30
0
10
107.81493700000004
20
7.4000050000000002
30
0
0
SPLINE
5
115
100
AcDbEntity
8
0
100
AcDbSpline
70
1064
71
3
72
8
73
4
74
0
42
0.000000001
43
0.0000000001
44
0.0000000001
40
0
40
0
40
0
40
0
40
1
40
1
40
1
40
1
10
226.83164400000004
20
5.3410660000000014
30
0
10
225.69452400000003
20
5.3410660000000014
30
0
10
224.77270600000003
20
6.2628839999999997
30
0
10
224.77270600000003
20
7.4000050000000002
30
0
0
SPLINE
5
116
100
AcDbEntity
8
0
100
AcDbSpline
70
1064
71
3
72
8
73
4
74
0
42
0.000000001
43
0.0000000001
44
0.0000000001
40
0
40
0
40
0
40
0
40
1
40
1
40
1
40
1
10
326.85666000000003
20
5.3410660000000014
30
0
10
325.71954000000011
20
5.3410660000000014
30
0
10
324.79772200000008
20
6.2628839999999997
30
0
10
324.79772200000008
20
7.4000050000000002
30
0
0
SPLINE
5
117
100
AcDbEntity
8
0
100
AcDbSpline
70
1064
71
3
72
8
73
4
74
0
42
0.000000001
43
0.0000000001
44
0.0000000001
40
0
40
0
40
0
40
0
40
1
40
1
40
1
40
1
10
360.14092599999998
20
183.58200500000004
30
0
10
360.14092599999998
20
183.03593799999999
30
0
10
359.92400099999998
20
182.512237
30
0
10
359.53787199999999
20
182.12611100000001
30
0
0
SPLINE
5
118
100
AcDbEntity
8
0
100
AcDbSpline
70
1064
71
3
72
8
73
4
74
0
42
0.000000001
43
0.0000000001
44
0.0000000001
40
0
40
0
40
0
40
0
40
1
40
1
40
1
40
1
10
9.3589400000000005
20
152.301008
30
0
10
9.3589390000000012
20
151.754943
30
0
10
9.1420159999999999
20
151.23124300000001
30
0
10
8.7558890000000016
20
150.84511799999999
30
0
0
SPLINE
5
119
100
AcDbEntity
8
0
100
AcDbSpline
70
1064
71
3
72
8
73
4
74
0
42
0.000000001
43
0.0000000001
44
0.0000000001
40
0
40
0
40
0
40
0
40
1
40
1
40
1
40
1
10
303.67771800000008
20
7.4000050000000002
30
0
10
303.67771800000008
20
8.5371250000000014
30
0
10
304.59953600000006
20
9.4589429999999997
30
0
10
305.73665600000004
20
9.4589429999999997
30
0
0
SPLINE
5
120
100
AcDbEntity
8
0
100
AcDbSpline
70
1064
71
3
72
8
73
4
74
0
42
0.000000001
43
0.0000000001
44
0.0000000001
40
0
40
0
40
0
40
0
40
1
40
1
40
1
40
1
10
128.93494100000001
20
7.4000050000000002
30
0
10
128.93494100000001
20
6.2628839999999997
30
0
10
128.01312300000004
20
5.3410660000000014
30
0
10
126.87600300000003
20
5.3410660000000014
30
0
0
SPLINE
5
121
100
AcDbEntity
8
0
100
AcDbSpline
70
1064
71
3
72
8
73
4
74
0
42
0.000000001
43
0.0000000001
44
0.0000000001
40
0
40
0
40
0
40
0
40
1
40
1
40
1
40
1
10
207.770578
20
7.4000050000000002
30
0
10
207.770578
20
6.2628839999999997
30
0
10
206.84876000000003
20
5.3410660000000014
30
0
10
205.71164000000005
20
5.3410660000000014
30
0
0
SPLINE
5
122
100
AcDbEntity
8
0
100
AcDbSpline
70
1064
71
3
72
8
73
4
74
0
42
0.000000001
43
0.0000000001
44
0.0000000001
40
0
40
0
40
0
40
0
40
1
40
1
40
1
40
1
10
7.2999990000000015
20
154.35994600000001
30
0
10
7.8460630000000009
20
154.35994600000001
30
0
10
8.3697630000000007
20
154.143023
30
0
10
8.7558890000000016
20
153.75689800000001
30
0
0
SPLINE
5
123
100
AcDbEntity
8
0
100
AcDbSpline
70
1064
71
3
72
8
73
4
74
0
42
0.000000001
43
0.0000000001
44
0.0000000001
40
0
40
0
40
0
40
0
40
1
40
1
40
1
40
1
10
378.25587900000005
20
52.969898999999998
30
0
10
378.64200800000003
20
52.583773000000001
30
0
10
378.85893300000009
20
52.060072000000005
30
0
10
378.85893300000009
20
51.514005000000004
30
0
0
SPLINE
5
124
100
AcDbEntity
8
0
100
AcDbSpline
70
1064
71
3
72
8
73
4
74
0
42
0.000000001
43
0.0000000001
44
0.0000000001
40
0
40
0
40
0
40
0
40
1
40
1
40
1
40
1
10
359.53787199999999
20
185.03789900000001
30
0
10
359.92400099999998
20
184.65177299999999
30
0
10
360.14092599999998
20
184.128072
30
0
10
360.14092599999998
20
183.58200500000004
30
0
0
SPLINE
5
125
100
AcDbEntity
8
0
100
AcDbSpline
70
1064
71
3
72
8
73
4
74
0
42
0.000000001
43
0.0000000001
44
0.0000000001
40
0
40
0
40
0
40
0
40
1
40
1
40
1
40
1
10
23.968001000000001
20
181.523067
30
0
10
22.830880000000001
20
181.523067
30
0
10
21.909063
20
182.444885
30
0
10
21.909062000000002
20
183.58200500000004
30
0
0
SPLINE
5
126
100
AcDbEntity
8
0
100
AcDbSpline
70
1064
71
3
72
8
73
4
74
0
42
0.000000001
43
0.0000000001
44
0.0000000001
40
0
40
0
40
0
40
0
40
1
40
1
40
1
40
1
10
8.7558890000000016
20
129.72511300000002
30
0
10
8.3697630000000007
20
129.33898800000003
30
0
10
7.8460630000000009
20
129.12206499999999
30
0
10
7.2999990000000015
20
129.12206499999999
30
0
0
SPLINE
5
127
100
AcDbEntity
8
0
100
AcDbSpline
70
1064
71
3
72
8
73
4
74
0
42
0.000000001
43
0.0000000001
44
0.0000000001
40
0
40
0
40
0
40
0
40
1
40
1
40
1
40
1
10
7.2999990000000015
20
150.24206899999999
30
0
10
6.1628790000000002
20
150.24206999999998
30
0
10
5.2410610000000002
20
151.16388700000002
30
0
10
5.2410599999999992
20
152.301008
30
0
0
SPLINE
5
128
100
AcDbEntity
8
0
100
AcDbSpline
70
1064
71
3
72
8
73
4
74
0
42
0.000000001
43
0.0000000001
44
0.0000000001
40
0
40
0
40
0
40
0
40
1
40
1
40
1
40
1
10
126.87600300000003
20
9.4589429999999997
30
0
10
128.01312300000004
20
9.4589429999999997
30
0
10
128.93494100000001
20
8.5371250000000014
30
0
10
128.93494100000001
20
7.4000050000000002
30
0
0
SPLINE
5
129
100
AcDbEntity
8
0
100
AcDbSpline
70
1064
71
3
72
8
73
4
74
0
42
0.000000001
43
0.0000000001
44
0.0000000001
40
0
40
0
40
0
40
0
40
1
40
1
40
1
40
1
10
378.25587900000005
20
50.058110999999997
30
0
10
377.86975000000007
20
49.671985000000006
30
0
10
377.34604700000011
20
49.45506300000001
30
0
10
376.79998100000006
20
49.455067
30
0
0
SPLINE
5
130
100
AcDbEntity
8
0
100
AcDbSpline
70
1064
71
3
72
8
73
4
74
0
42
0.000000001
43
0.0000000001
44
0.0000000001
40
0
40
0
40
0
40
0
40
1
40
1
40
1
40
1
10
9.3589370000000009
20
30.394003999999999
30
0
10
9.3589370000000009
20
29.256884000000003
30
0
10
8.4371189999999991
20
28.335065999999998
30
0
10
7.2999990000000015
20
28.335065999999998
30
0
0
SPLINE
5
131
100
AcDbEntity
8
0
100
AcDbSpline
70
1064
71
3
72
8
73
4
74
0
42
0.000000001
43
0.0000000001
44
0.0000000001
40
0
40
0
40
0
40
0
40
1
40
1
40
1
40
1
10
5.2410599999999992
20
51.514005000000004
30
0
10
5.2410610000000002
20
52.651125000000008
30
0
10
6.1628790000000002
20
53.572943000000002
30
0
10
7.2999990000000015
20
53.572943000000002
30
0
0
SPLINE
5
132
100
AcDbEntity
8
0
100
AcDbSpline
70
1064
71
3
72
8
73
4
74
0
42
0.000000001
43
0.0000000001
44
0.0000000001
40
0
40
0
40
0
40
0
40
1
40
1
40
1
40
1
10
8.7558890000000016
20
132.63689299999999
30
0
10
9.1420159999999999
20
132.25076799999999
30
0
10
9.3589390000000012
20
131.727068
30
0
10
9.3589400000000005
20
131.18100300000003
30
0
0
SPLINE
5
133
100
AcDbEntity
8
0
100
AcDbSpline
70
1064
71
3
72
8
73
4
74
0
42
0.000000001
43
0.0000000001
44
0.0000000001
40
0
40
0
40
0
40
0
40
1
40
1
40
1
40
1
10
26.026939000000002
20
183.58200500000004
30
0
10
26.026938000000005
20
182.444885
30
0
10
25.105121
20
181.523067
30
0
10
23.968001000000001
20
181.523067
30
0
0
SPLINE
5
134
100
AcDbEntity
8
0
100
AcDbSpline
70
1064
71
3
72
8
73
4
74
0
42
0.000000001
43
0.0000000001
44
0.0000000001
40
0
40
0
40
0
40
0
40
1
40
1
40
1
40
1
10
5.2410599999999992
20
30.394003999999999
30
0
10
5.2410610000000002
20
31.531123999999998
30
0
10
6.1628790000000002
20
32.452942
30
0
10
7.2999990000000015
20
32.452942
30
0
0
SPLINE
5
135
100
AcDbEntity
8
0
100
AcDbSpline
70
1064
71
3
72
8
73
4
74
0
42
0.000000001
43
0.0000000001
44
0.0000000001
40
0
40
0
40
0
40
0
40
1
40
1
40
1
40
1
10
356.02305000000001
20
183.58200500000004
30
0
10
356.02305000000001
20
184.71911900000003
30
0
10
356.94485900000006
20
185.64093500000001
30
0
10
358.08197400000006
20
185.64094299999999
30
0
0
SPLINE
5
136
100
AcDbEntity
8
0
100
AcDbSpline
70
1064
71
3
72
8
73
4
74
0
42
0.000000001
43
0.0000000001
44
0.0000000001
40
0
40
0
40
0
40
0
40
1
40
1
40
1
40
1
10
5.2410599999999992
20
152.301008
30
0
10
5.2410610000000002
20
153.43812800000001
30
0
10
6.1628790000000002
20
154.35994499999998
30
0
10
7.2999990000000015
20
154.35994600000001
30
0
0
SPLINE
5
137
100
AcDbEntity
8
0
100
AcDbSpline
70
1064
71
3
72
8
73
4
74
0
42
0.000000001
43
0.0000000001
44
0.0000000001
40
0
40
0
40
0
40
0
40
1
40
1
40
1
40
1
10
376.79998100000006
20
53.572943000000002
30
0
10
377.34604700000011
20
53.572947000000006
30
0
10
377.86975000000007
20
53.356025000000002
30
0
10
378.25587900000005
20
52.969898999999998
30
0
0
SPLINE
5
138
100
AcDbEntity
8
0
100
AcDbSpline
70
1064
71
3
72
8
73
4
74
0
42
0.000000001
43
0.0000000001
44
0.0000000001
40
0
40
0
40
0
40
0
40
1
40
1
40
1
40
1
10
7.2999990000000015
20
53.572943000000002
30
0
10
8.4371189999999991
20
53.572943000000002
30
0
10
9.3589370000000009
20
52.651125000000008
30
0
10
9.3589370000000009
20
51.514005000000004
30
0
0
SPLINE
5
139
100
AcDbEntity
8
0
100
AcDbSpline
70
1064
71
3
72
8
73
4
74
0
42
0.000000001
43
0.0000000001
44
0.0000000001
40
0
40
0
40
0
40
0
40
1
40
1
40
1
40
1
10
7.2999990000000015
20
32.452942
30
0
10
8.4371189999999991
20
32.452942
30
0
10
9.3589370000000009
20
31.531123999999998
30
0
10
9.3589370000000009
20
30.394003999999999
30
0
0
SPLINE
5
140
100
AcDbEntity
8
0
100
AcDbSpline
70
1064
71
3
72
8
73
4
74
0
42
0.000000001
43
0.0000000001
44
0.0000000001
40
0
40
0
40
0
40
0
40
1
40
1
40
1
40
1
10
7.2999990000000015
20
129.12206499999999
30
0
10
6.1628790000000002
20
129.12206599999999
30
0
10
5.2410610000000002
20
130.04388299999999
30
0
10
5.2410599999999992
20
131.18100300000003
30
0
0
SPLINE
5
141
100
AcDbEntity
8
0
100
AcDbSpline
70
1064
71
3
72
8
73
4
74
0
42
0.000000001
43
0.0000000001
44
0.0000000001
40
0
40
0
40
0
40
0
40
1
40
1
40
1
40
1
10
8.7558890000000016
20
153.75689800000001
30
0
10
9.1420159999999999
20
153.37077199999999
30
0
10
9.3589390000000012
20
152.847072
30
0
10
9.3589400000000005
20
152.301008
30
0
0
SPLINE
5
142
100
AcDbEntity
8
0
100
AcDbSpline
70
1064
71
3
72
8
73
4
74
0
42
0.000000001
43
0.0000000001
44
0.0000000001
40
0
40
0
40
0
40
0
40
1
40
1
40
1
40
1
10
23.968001000000001
20
185.64094299999999
30
0
10
25.105121
20
185.64094299999999
30
0
10
26.026938000000005
20
184.71912499999999
30
0
10
26.026939000000002
20
183.58200500000004
30
0
0
SPLINE
5
143
100
AcDbEntity
8
0
100
AcDbSpline
70
1064
71
3
72
8
73
4
74
0
42
0.000000001
43
0.0000000001
44
0.0000000001
40
0
40
0
40
0
40
0
40
1
40
1
40
1
40
1
10
328.91559800000005
20
7.4000050000000002
30
0
10
328.91559800000005
20
6.2628839999999997
30
0
10
327.99378100000007
20
5.3410660000000014
30
0
10
326.85666000000003
20
5.3410660000000014
30
0
0
SPLINE
5
144
100
AcDbEntity
8
0
100
AcDbSpline
70
1064
71
3
72
8
73
4
74
0
42
0.000000001
43
0.0000000001
44
0.0000000001
40
0
40
0
40
0
40
0
40
1
40
1
40
1
40
1
10
326.85666000000003
20
9.4589429999999997
30
0
10
327.99378100000007
20
9.4589429999999997
30
0
10
328.9155990000001
20
8.5371250000000014
30
0
10
328.91559800000005
20
7.4000050000000002
30
0
0
SPLINE
5
145
100
AcDbEntity
8
0
100
AcDbSpline
70
1064
71
3
72
8
73
4
74
0
42
0.000000001
43
0.0000000001
44
0.0000000001
40
0
40
0
40
0
40
0
40
1
40
1
40
1
40
1
10
324.79772200000008
20
7.4000050000000002
30
0
10
324.79772200000008
20
8.5371250000000014
30
0
10
325.71954000000011
20
9.4589429999999997
30
0
10
326.85666000000003
20
9.4589429999999997
30
0
0
SPLINE
5
146
100
AcDbEntity
8
0
100
AcDbSpline
70
1064
71
3
72
8
73
4
74
0
42
0.000000001
43
0.0000000001
44
0.0000000001
40
0
40
0
40
0
40
0
40
1
40
1
40
1
40
1
10
21.909062000000002
20
183.58200500000004
30
0
10
21.909063
20
184.71912499999999
30
0
10
22.830880000000001
20
185.64094299999999
30
0
10
23.968001000000001
20
185.64094299999999
30
0
0
SPLINE
5
147
100
AcDbEntity
8
0
100
AcDbSpline
70
1064
71
3
72
8
73
4
74
0
42
0.000000001
43
0.0000000001
44
0.0000000001
40
0
40
0
40
0
40
0
40
1
40
1
40
1
40
1
10
305.73665600000004
20
9.4589429999999997
30
0
10
306.87377700000008
20
9.4589429999999997
30
0
10
307.79559500000005
20
8.5371250000000014
30
0
10
307.79559400000005
20
7.4000050000000002
30
0
0
SPLINE
5
148
100
AcDbEntity
8
0
100
AcDbSpline
70
1064
71
3
72
8
73
4
74
0
42
0.000000001
43
0.0000000001
44
0.0000000001
40
0
40
0
40
0
40
0
40
1
40
1
40
1
40
1
10
307.79559400000005
20
7.4000050000000002
30
0
10
307.79559400000005
20
6.2628839999999997
30
0
10
306.87377599999996
20
5.3410660000000014
30
0
10
305.73665600000004
20
5.3410660000000014
30
0
0
SPLINE
5
149
100
AcDbEntity
8
0
100
AcDbSpline
70
1064
71
3
72
8
73
4
74
0
42
0.000000001
43
0.0000000001
44
0.0000000001
40
0
40
0
40
0
40
0
40
1
40
1
40
1
40
1
10
305.73665600000004
20
5.3410660000000014
30
0
10
304.59953600000006
20
5.3410660000000014
30
0
10
303.67771800000008
20
6.2628839999999997
30
0
10
303.67771800000008
20
7.4000050000000002
30
0
0
SPLINE
5
150
100
AcDbEntity
8
0
100
AcDbSpline
70
1064
71
3
72
8
73
4
74
0
42
0.000000001
43
0.0000000001
44
0.0000000001
40
0
40
0
40
0
40
0
40
1
40
1
40
1
40
1
10
228.89058199999999
20
7.4000050000000002
30
0
10
228.89058199999999
20
6.2628839999999997
30
0
10
227.96876400000002
20
5.3410660000000014
30
0
10
226.83164400000004
20
5.3410660000000014
30
0
0
SPLINE
5
151
100
AcDbEntity
8
0
100
AcDbSpline
70
1064
71
3
72
8
73
4
74
0
42
0.000000001
43
0.0000000001
44
0.0000000001
40
0
40
0
40
0
40
0
40
1
40
1
40
1
40
1
10
7.2999990000000015
20
133.23994199999999
30
0
10
7.8460630000000009
20
133.23994199999999
30
0
10
8.3697630000000007
20
133.02301900000001
30
0
10
8.7558890000000016
20
132.63689299999999
30
0
0
SPLINE
5
152
100
AcDbEntity
8
0
100
AcDbSpline
70
1064
71
3
72
8
73
4
74
0
42
0.000000001
43
0.0000000001
44
0.0000000001
40
0
40
0
40
0
40
0
40
1
40
1
40
1
40
1
10
9.3589400000000005
20
131.18100300000003
30
0
10
9.3589390000000012
20
130.634939
30
0
10
9.1420159999999999
20
130.11123899999998
30
0
10
8.7558890000000016
20
129.72511300000002
30
0
0
SPLINE
5
153
100
AcDbEntity
8
0
100
AcDbSpline
70
1064
71
3
72
8
73
4
74
0
42
0.000000001
43
0.0000000001
44
0.0000000001
40
0
40
0
40
0
40
0
40
1
40
1
40
1
40
1
10
205.71164000000005
20
5.3410660000000014
30
0
10
204.57452000000004
20
5.3410660000000014
30
0
10
203.65270200000003
20
6.2628839999999997
30
0
10
203.65270200000003
20
7.4000050000000002
30
0
0
SPLINE
5
154
100
AcDbEntity
8
0
100
AcDbSpline
70
1064
71
3
72
8
73
4
74
0
42
0.000000001
43
0.0000000001
44
0.0000000001
40
0
40
0
40
0
40
0
40
1
40
1
40
1
40
1
10
9.3589370000000009
20
51.514005000000004
30
0
10
9.3589370000000009
20
50.376885000000001
30
0
10
8.4371189999999991
20
49.455067
30
0
10
7.2999990000000015
20
49.455067
30
0
0
SPLINE
5
155
100
AcDbEntity
8
0
100
AcDbSpline
70
1064
71
3
72
8
73
4
74
0
42
0.000000001
43
0.0000000001
44
0.0000000001
40
0
40
0
40
0
40
0
40
1
40
1
40
1
40
1
10
7.2999990000000015
20
49.455067
30
0
10
6.1628790000000002
20
49.455067
30
0
10
5.2410610000000002
20
50.376885000000001
30
0
10
5.2410599999999992
20
51.514005000000004
30
0
0
SPLINE
5
156
100
AcDbEntity
8
0
100
AcDbSpline
70
1064
71
3
72
8
73
4
74
0
42
0.000000001
43
0.0000000001
44
0.0000000001
40
0
40
0
40
0
40
0
40
1
40
1
40
1
40
1
10
7.2999990000000015
20
28.335065999999998
30
0
10
6.1628790000000002
20
28.335065999999998
30
0
10
5.2410610000000002
20
29.256884000000003
30
0
10
5.2410599999999992
20
30.394003999999999
30
0
0
SPLINE
5
157
100
AcDbEntity
8
0
100
AcDbSpline
70
1064
71
3
72
8
73
4
74
0
42
0.000000001
43
0.0000000001
44
0.0000000001
40
0
40
0
40
0
40
0
40
1
40
1
40
1
40
1
10
5.2410599999999992
20
131.18100300000003
30
0
10
5.2410610000000002
20
132.31812400000001
30
0
10
6.1628790000000002
20
133.23994099999999
30
0
10
7.2999990000000015
20
133.23994199999999
30
0
0
SPLINE
5
158
100
AcDbEntity
8
0
100
AcDbSpline
70
1064
71
3
72
8
73
4
74
0
42
0.000000001
43
0.0000000001
44
0.0000000001
40
0
40
0
40
0
40
0
40
1
40
1
40
1
40
1
10
8.7558890000000016
20
150.84511799999999
30
0
10
8.3697630000000007
20
150.45899200000002
30
0
10
7.8460630000000009
20
150.24206899999999
30
0
10
7.2999990000000015
20
150.24206899999999
30
0
0
SPLINE
5
159
100
AcDbEntity
8
0
100
AcDbSpline
70
1064
71
3
72
8
73
4
74
0
42
0.000000001
43
0.0000000001
44
0.0000000001
40
0
40
0
40
0
40
0
40
1
40
1
40
1
40
1
10
358.08197400000006
20
181.523067
30
0
10
356.94485900000006
20
181.52307500000003
30
0
10
356.02305000000001
20
182.44489099999998
30
0
10
356.02305000000001
20
183.58200500000004
30
0
0
SPLINE
5
160
100
AcDbEntity
8
0
100
AcDbSpline
70
1064
71
3
72
8
73
4
74
0
42
0.000000001
43
0.0000000001
44
0.0000000001
40
0
40
0
40
0
40
0
40
1
40
1
40
1
40
1
10
358.08197400000006
20
185.64094299999999
30
0
10
358.628041
20
185.64094700000001
30
0
10
359.15174300000001
20
185.42402500000003
30
0
10
359.53787199999999
20
185.03789900000001
30
0
0
SPLINE
5
161
100
AcDbEntity
8
0
100
AcDbSpline
70
1064
71
3
72
8
73
4
74
0
42
0.000000001
43
0.0000000001
44
0.0000000001
40
0
40
0
40
0
40
0
40
1
40
1
40
1
40
1
10
224.77270600000003
20
7.4000050000000002
30
0
10
224.77270600000003
20
8.5371250000000014
30
0
10
225.69452400000003
20
9.4589429999999997
30
0
10
226.83164400000004
20
9.4589429999999997
30
0
0
SPLINE
5
162
100
AcDbEntity
8
0
100
AcDbSpline
70
1064
71
3
72
8
73
4
74
0
42
0.000000001
43
0.0000000001
44
0.0000000001
40
0
40
0
40
0
40
0
40
1
40
1
40
1
40
1
10
205.71164000000005
20
9.4589429999999997
30
0
10
206.84876000000003
20
9.4589429999999997
30
0
10
207.770578
20
8.5371250000000014
30
0
10
207.770578
20
7.4000050000000002
30
0
0
SPLINE
5
163
100
AcDbEntity
8
0
100
AcDbSpline
70
1064
71
3
72
8
73
4
74
0
42
0.000000001
43
0.0000000001
44
0.0000000001
40
0
40
0
40
0
40
0
40
1
40
1
40
1
40
1
10
226.83164400000004
20
9.4589429999999997
30
0
10
227.96876400000002
20
9.4589429999999997
30
0
10
228.89058199999999
20
8.5371250000000014
30
0
10
228.89058199999999
20
7.4000050000000002
30
0
0
SPLINE
5
164
100
AcDbEntity
8
0
100
AcDbSpline
70
1064
71
3
72
8
73
4
74
0
42
0.000000001
43
0.0000000001
44
0.0000000001
40
0
40
0
40
0
40
0
40
1
40
1
40
1
40
1
10
359.53787199999999
20
182.12611100000001
30
0
10
359.15174300000001
20
181.73998500000005
30
0
10
358.628041
20
181.52306299999998
30
0
10
358.08197400000006
20
181.523067
30
0
0
SPLINE
5
165
100
AcDbEntity
8
0
100
AcDbSpline
70
1064
71
3
72
8
73
4
74
0
42
0.000000001
43
0.0000000001
44
0.0000000001
40
0
40
0
40
0
40
0
40
1
40
1
40
1
40
1
10
378.85893300000009
20
131.18100300000003
30
0
10
378.85893300000009
20
130.63493700000004
30
0
10
378.64200800000003
20
130.11123600000002
30
0
10
378.25587900000005
20
129.725109
30
0
0
SPLINE
5
166
100
AcDbEntity
8
0
100
AcDbSpline
70
1064
71
3
72
8
73
4
74
0
42
0.000000001
43
0.0000000001
44
0.0000000001
40
0
40
0
40
0
40
0
40
1
40
1
40
1
40
1
10
378.85893300000009
20
152.301008
30
0
10
378.85893300000009
20
151.75494100000003
30
0
10
378.64200800000003
20
151.23123999999999
30
0
10
378.25587900000005
20
150.845114
30
0
0
LWPOLYLINE
5
167
100
AcDbEntity
8
0
100
AcDbPolyline
90
5
70
1
43
0.0
10
0.16720700000000002
20
0.16721400000001552
10
0.16720700000000477
20
190.914782
10
383.93278300000009
20
190.914782
10
383.93278300000009
20
0.16721386782352102
10
1.724396
20
0.16727000000000003
0
SPLINE
5
168
100
AcDbEntity
8
0
100
AcDbSpline
70
1064
71
3
72
8
73
4
74
0
42
0.000000001
43
0.0000000001
44
0.0000000001
40
0
40
0
40
0
40
0
40
1
40
1
40
1
40
1
10
103.69706100000003
20
7.4000050000000002
30
0
10
103.69706100000003
20
8.5371250000000014
30
0
10
104.61887900000002
20
9.4589429999999997
30
0
10
105.75599900000002
20
9.4589429999999997
30
0
0
SPLINE
5
169
100
AcDbEntity
8
0
100
AcDbSpline
70
1064
71
3
72
8
73
4
74
0
42
0.000000001
43
0.0000000001
44
0.0000000001
40
0
40
0
40
0
40
0
40
1
40
1
40
1
40
1
10
378.25587900000005
20
129.725109
30
0
10
377.86975000000007
20
129.33898300000004
30
0
10
377.34604700000011
20
129.122062
30
0
10
376.79998100000006
20
129.12206499999999
30
0
0
SPLINE
5
170
100
AcDbEntity
8
0
100
AcDbSpline
70
1064
71
3
72
8
73
4
74
0
42
0.000000001
43
0.0000000001
44
0.0000000001
40
0
40
0
40
0
40
0
40
1
40
1
40
1
40
1
10
376.79998100000006
20
129.12206499999999
30
0
10
375.66286600000007
20
129.122073
30
0
10
374.74105700000007
20
130.04388899999998
30
0
10
374.74105700000007
20
131.18100300000003
30
0
0
SPLINE
5
171
100
AcDbEntity
8
0
100
AcDbSpline
70
1064
71
3
72
8
73
4
74
0
42
0.000000001
43
0.0000000001
44
0.0000000001
40
0
40
0
40
0
40
0
40
1
40
1
40
1
40
1
10
376.79998100000006
20
133.23994199999999
30
0
10
377.34604700000011
20
133.23994500000001
30
0
10
377.86975000000007
20
133.02302399999999
30
0
10
378.25587900000005
20
132.636897
30
0
0
SPLINE
5
172
100
AcDbEntity
8
0
100
AcDbSpline
70
1064
71
3
72
8
73
4
74
0
42
0.000000001
43
0.0000000001
44
0.0000000001
40
0
40
0
40
0
40
0
40
1
40
1
40
1
40
1
10
378.25587900000005
20
132.636897
30
0
10
378.64200800000003
20
132.25077099999999
30
0
10
378.85893300000009
20
131.72707
30
0
10
378.85893300000009
20
131.18100300000003
30
0
0
SPLINE
5
173
100
AcDbEntity
8
0
100
AcDbSpline
70
1064
71
3
72
8
73
4
74
0
42
0.000000001
43
0.0000000001
44
0.0000000001
40
0
40
0
40
0
40
0
40
1
40
1
40
1
40
1
10
107.81493700000004
20
7.4000050000000002
30
0
10
107.81493700000004
20
6.2628839999999997
30
0
10
106.89311900000001
20
5.3410660000000014
30
0
10
105.75599900000002
20
5.3410660000000014
30
0
0
SPLINE
5
174
100
AcDbEntity
8
0
100
AcDbSpline
70
1064
71
3
72
8
73
4
74
0
42
0.000000001
43
0.0000000001
44
0.0000000001
40
0
40
0
40
0
40
0
40
1
40
1
40
1
40
1
10
124.81706500000003
20
7.4000050000000002
30
0
10
124.81706500000003
20
8.5371250000000014
30
0
10
125.73888300000004
20
9.4589429999999997
30
0
10
126.87600300000003
20
9.4589429999999997
30
0
0
SPLINE
5
175
100
AcDbEntity
8
0
100
AcDbSpline
70
1064
71
3
72
8
73
4
74
0
42
0.000000001
43
0.0000000001
44
0.0000000001
40
0
40
0
40
0
40
0
40
1
40
1
40
1
40
1
10
376.79998100000006
20
150.24206899999999
30
0
10
375.66286600000007
20
150.24207699999999
30
0
10
374.74105700000007
20
151.16389300000003
30
0
10
374.74105700000007
20
152.301008
30
0
0
SPLINE
5
176
100
AcDbEntity
8
0
100
AcDbSpline
70
1064
71
3
72
8
73
4
74
0
42
0.000000001
43
0.0000000001
44
0.0000000001
40
0
40
0
40
0
40
0
40
1
40
1
40
1
40
1
10
374.74105700000007
20
131.18100300000003
30
0
10
374.74105700000007
20
132.318118
30
0
10
375.66286600000007
20
133.23993400000001
30
0
10
376.79998100000006
20
133.23994199999999
30
0
0
SPLINE
5
177
100
AcDbEntity
8
0
100
AcDbSpline
70
1064
71
3
72
8
73
4
74
0
42
0.000000001
43
0.0000000001
44
0.0000000001
40
0
40
0
40
0
40
0
40
1
40
1
40
1
40
1
10
378.25587900000005
20
150.845114
30
0
10
377.86975000000007
20
150.45898700000004
30
0
10
377.34604700000011
20
150.24206599999999
30
0
10
376.79998100000006
20
150.24206899999999
30
0
0
SPLINE
5
178
100
AcDbEntity
8
0
100
AcDbSpline
70
1064
71
3
72
8
73
4
74
0
42
0.000000001
43
0.0000000001
44
0.0000000001
40
0
40
0
40
0
40
0
40
1
40
1
40
1
40
1
10
105.75599900000002
20
5.3410660000000014
30
0
10
104.61887900000002
20
5.3410660000000014
30
0
10
103.69706100000003
20
6.2628839999999997
30
0
10
103.69706100000003
20
7.4000050000000002
30
0
0
ENDSEC
0
SECTION
2
OBJECTS
0
DICTIONARY
5
C
100
AcDbDictionary
3
ACAD_GROUP
350
D
3
ACAD_MLINESTYLE
350
17
0
DICTIONARY
5
D
100
AcDbDictionary
0
DICTIONARY
5
1A
330
C
100
AcDbDictionary
0
DICTIONARY
5
17
100
AcDbDictionary
0
ENDSEC
0
EOF
