  0
SECTION
  2
HEADER
  9
$ACADVER
  1
AC1014
  9
$HANDSEED
  5
FFFF
  9
$MEASUREMENT
 70
     1
  0
ENDSEC
  0
SECTION
  2
TABLES
  0
TABLE
  2
VPORT
  5
8
330
0
100
AcDbSymbolTable
 70
     4
  0
VPORT
  5
2E
330
8
100
AcDbSymbolTableRecord
100
AcDbViewportTableRecord
  2
*ACTIVE
 70
     0
 10
0.0
 20
0.0
 11
1.0
 21
1.0
 12
210.0
 22
148.5
 13
0.0
 23
0.0
 14
10.0
 24
10.0
 15
10.0
 25
10.0
 16
0.0
 26
0.0
 36
1.0
 17
0.0
 27
0.0
 37
0.0
 40
341.0
 41
1.24
 42
50.0
 43
0.0
 44
0.0
 50
0.0
 51
0.0
 71
     0
 72
   100
 73
     1
 74
     3
 75
     0
 76
     0
 77
     0
 78
     0
  0
ENDTAB
  0
TABLE
  2
LTYPE
  5
5
330
0
100
AcDbSymbolTable
 70
     1
  0
LTYPE
  5
14
330
5
100
AcDbSymbolTableRecord
100
AcDbLinetypeTableRecord
  2
BYBLOCK
 70
     0
  3

 72
    65
 73
     0
 40
0.0
  0
LTYPE
  5
15
330
5
100
AcDbSymbolTableRecord
100
AcDbLinetypeTableRecord
  2
BYLAYER
 70
     0
  3

 72
    65
 73
     0
 40
0.0
  0
LTYPE
  5
16
330
5
100
AcDbSymbolTableRecord
100
AcDbLinetypeTableRecord
  2
CONTINUOUS
 70
     0
  3
Solid line
 72
    65
 73
     0
 40
0.0
  0
ENDTAB
  0
TABLE
  2
LAYER
  5
2
100
AcDbSymbolTable
 70
1
  0
LAYER
  5
50
100
AcDbSymbolTableRecord
100
AcDbLayerTableRecord
  2
0
 70
0
  6
CONTINUOUS
  0
ENDTAB
  0
TABLE
  2
STYLE
  5
3
330
0
100
AcDbSymbolTable
 70
     1
  0
STYLE
  5
11
330
3
100
AcDbSymbolTableRecord
100
AcDbTextStyleTableRecord
  2
STANDARD
 70
     0
 40
0.0
 41
1.0
 50
0.0
 71
     0
 42
2.5
  3
txt
  4

  0
ENDTAB
  0
TABLE
  2
VIEW
  5
6
330
0
100
AcDbSymbolTable
 70
     0
  0
ENDTAB
  0
TABLE
  2
UCS
  5
7
330
0
100
AcDbSymbolTable
 70
     0
  0
ENDTAB
  0
TABLE
  2
APPID
  5
9
330
0
100
AcDbSymbolTable
 70
     2
  0
APPID
  5
12
330
9
100
AcDbSymbolTableRecord
100
AcDbRegAppTableRecord
  2
ACAD
 70
     0
  0
ENDTAB
  0
TABLE
  2
DIMSTYLE
  5
A
330
0
100
AcDbSymbolTable
 70
     1
  0
DIMSTYLE
105
27
330
A
100
AcDbSymbolTableRecord
100
AcDbDimStyleTableRecord
  2
ISO-25
 70
     0
  3

  4

  5

  6

  7

 40
1.0
 41
2.5
 42
0.625
 43
3.75
 44
1.25
 45
0.0
 46
0.0
 47
0.0
 48
0.0
140
2.5
141
2.5
142
0.0
143
0.03937007874016
144
1.0
145
0.0
146
1.0
147
0.625
 71
     0
 72
     0
 73
     0
 74
     0
 75
     0
 76
     0
 77
     1
 78
     8
170
     0
171
     3
172
     1
173
     0
174
     0
175
     0
176
     0
177
     0
178
     0
270
     2
271
     2
272
     2
273
     2
274
     3
340
11
275
     0
280
     0
281
     0
282
     0
283
     0
284
     8
285
     0
286
     0
287
     3
288
     0
  0
ENDTAB
  0
TABLE
  2
BLOCK_RECORD
  5
1
330
0
100
AcDbSymbolTable
 70
     1
  0
BLOCK_RECORD
  5
1F
330
1
100
AcDbSymbolTableRecord
100
AcDbBlockTableRecord
  2
*MODEL_SPACE
  0
BLOCK_RECORD
  5
1B
330
1
100
AcDbSymbolTableRecord
100
AcDbBlockTableRecord
  2
*PAPER_SPACE
  0
ENDTAB
  0
ENDSEC
  0
SECTION
  2
BLOCKS
  0
BLOCK
  5
20
330
1F
100
AcDbEntity
  8
0
100
AcDbBlockBegin
  2
*MODEL_SPACE
 70
     0
 10
0.0
 20
0.0
 30
0.0
  3
*MODEL_SPACE
  1

  0
ENDBLK
  5
21
330
1F
100
AcDbEntity
  8
0
100
AcDbBlockEnd
  0
BLOCK
  5
1C
330
1B
100
AcDbEntity
 67
     1
  8
0
100
AcDbBlockBegin
  2
*PAPER_SPACE
  1

  0
ENDBLK
  5
1D
330
1B
100
AcDbEntity
 67
     1
  8
0
100
AcDbBlockEnd
  0
ENDSEC
  0
SECTION
  2
ENTITIES
  0
SPLINE
  5
100
100
AcDbEntity
  8
0
 62
7
100
AcDbSpline
 70
8
 71
3
 72
8
 73
4
 74
0
 40
0
 40
0
 40
0
 40
0
 40
1
 40
1
 40
1
 40
1
 10
374.706154
 20
30.359091
 30
0.0
 10
374.706154
 20
31.496191
 30
0.0
 10
375.627963
 20
32.418018
 30
0.0
 10
376.765062
 20
32.418026
 30
0.0
  0
SPLINE
  5
101
100
AcDbEntity
  8
0
 62
7
100
AcDbSpline
 70
8
 71
3
 72
8
 73
4
 74
0
 40
0
 40
0
 40
0
 40
0
 40
1
 40
1
 40
1
 40
1
 10
378.220959
 20
28.903195
 30
0.0
 10
377.834826
 20
28.517062
 30
0.0
 10
377.311136
 20
28.300157
 30
0.0
 10
376.765062
 20
28.300157
 30
0.0
  0
SPLINE
  5
102
100
AcDbEntity
  8
0
 62
7
100
AcDbSpline
 70
8
 71
3
 72
8
 73
4
 74
0
 40
0
 40
0
 40
0
 40
0
 40
1
 40
1
 40
1
 40
1
 10
378.824024
 20
30.359091
 30
0.0
 10
378.824024
 20
29.813018
 30
0.0
 10
378.607092
 20
29.289328
 30
0.0
 10
378.220959
 20
28.903195
 30
0.0
  0
SPLINE
  5
103
100
AcDbEntity
  8
0
 62
7
100
AcDbSpline
 70
8
 71
3
 72
8
 73
4
 74
0
 40
0
 40
0
 40
0
 40
0
 40
1
 40
1
 40
1
 40
1
 10
376.765062
 20
28.300157
 30
0.0
 10
375.627963
 20
28.300157
 30
0.0
 10
374.706154
 20
29.221965
 30
0.0
 10
374.706154
 20
30.359091
 30
0.0
  0
SPLINE
  5
104
100
AcDbEntity
  8
0
 62
7
100
AcDbSpline
 70
8
 71
3
 72
8
 73
4
 74
0
 40
0
 40
0
 40
0
 40
0
 40
1
 40
1
 40
1
 40
1
 10
376.765062
 20
32.418026
 30
0.0
 10
377.311136
 20
32.418031
 30
0.0
 10
377.834826
 20
32.201121
 30
0.0
 10
378.220959
 20
31.814988
 30
0.0
  0
SPLINE
  5
105
100
AcDbEntity
  8
0
 62
7
100
AcDbSpline
 70
8
 71
3
 72
8
 73
4
 74
0
 40
0
 40
0
 40
0
 40
0
 40
1
 40
1
 40
1
 40
1
 10
376.765062
 20
49.420151
 30
0.0
 10
375.627963
 20
49.420159
 30
0.0
 10
374.706154
 20
50.341975
 30
0.0
 10
374.706154
 20
51.479091
 30
0.0
  0
SPLINE
  5
106
100
AcDbEntity
  8
0
 62
7
100
AcDbSpline
 70
8
 71
3
 72
8
 73
4
 74
0
 40
0
 40
0
 40
0
 40
0
 40
1
 40
1
 40
1
 40
1
 10
378.220959
 20
153.721986
 30
0.0
 10
378.607092
 20
153.335861
 30
0.0
 10
378.824024
 20
152.812158
 30
0.0
 10
378.824024
 20
152.266092
 30
0.0
  0
SPLINE
  5
107
100
AcDbEntity
  8
0
 62
7
100
AcDbSpline
 70
8
 71
3
 72
8
 73
4
 74
0
 40
0
 40
0
 40
0
 40
0
 40
1
 40
1
 40
1
 40
1
 10
376.765062
 20
154.325030
 30
0.0
 10
377.311136
 20
154.325035
 30
0.0
 10
377.834826
 20
154.108114
 30
0.0
 10
378.220959
 20
153.721986
 30
0.0
  0
SPLINE
  5
108
100
AcDbEntity
  8
0
 62
7
100
AcDbSpline
 70
8
 71
3
 72
8
 73
4
 74
0
 40
0
 40
0
 40
0
 40
0
 40
1
 40
1
 40
1
 40
1
 10
374.706154
 20
152.266092
 30
0.0
 10
374.706154
 20
153.403208
 30
0.0
 10
375.627963
 20
154.325024
 30
0.0
 10
376.765062
 20
154.325030
 30
0.0
  0
SPLINE
  5
109
100
AcDbEntity
  8
0
 62
7
100
AcDbSpline
 70
8
 71
3
 72
8
 73
4
 74
0
 40
0
 40
0
 40
0
 40
0
 40
1
 40
1
 40
1
 40
1
 10
378.220959
 20
31.814988
 30
0.0
 10
378.607092
 20
31.428855
 30
0.0
 10
378.824024
 20
30.905165
 30
0.0
 10
378.824024
 20
30.359091
 30
0.0
  0
SPLINE
  5
10a
100
AcDbEntity
  8
0
 62
7
100
AcDbSpline
 70
8
 71
3
 72
8
 73
4
 74
0
 40
0
 40
0
 40
0
 40
0
 40
1
 40
1
 40
1
 40
1
 10
378.824024
 20
51.479091
 30
0.0
 10
378.824024
 20
50.933023
 30
0.0
 10
378.607092
 20
50.409322
 30
0.0
 10
378.220959
 20
50.023197
 30
0.0
  0
SPLINE
  5
10b
100
AcDbEntity
  8
0
 62
7
100
AcDbSpline
 70
8
 71
3
 72
8
 73
4
 74
0
 40
0
 40
0
 40
0
 40
0
 40
1
 40
1
 40
1
 40
1
 10
374.706154
 20
51.479091
 30
0.0
 10
374.706154
 20
52.616204
 30
0.0
 10
375.627963
 20
53.538020
 30
0.0
 10
376.765062
 20
53.538028
 30
0.0
  0
SPLINE
  5
10c
100
AcDbEntity
  8
0
 62
7
100
AcDbSpline
 70
8
 71
3
 72
8
 73
4
 74
0
 40
0
 40
0
 40
0
 40
0
 40
1
 40
1
 40
1
 40
1
 10
203.617787
 20
7.365080
 30
0.0
 10
203.617787
 20
8.502206
 30
0.0
 10
204.539606
 20
9.424041
 30
0.0
 10
205.676724
 20
9.424041
 30
0.0
  0
SPLINE
  5
10d
100
AcDbEntity
  8
0
 62
7
100
AcDbSpline
 70
8
 71
3
 72
8
 73
4
 74
0
 40
0
 40
0
 40
0
 40
0
 40
1
 40
1
 40
1
 40
1
 10
126.841088
 20
5.306145
 30
0.0
 10
125.703967
 20
5.306145
 30
0.0
 10
124.782151
 20
6.227980
 30
0.0
 10
124.782151
 20
7.365080
 30
0.0
  0
SPLINE
  5
10e
100
AcDbEntity
  8
0
 62
7
100
AcDbSpline
 70
8
 71
3
 72
8
 73
4
 74
0
 40
0
 40
0
 40
0
 40
0
 40
1
 40
1
 40
1
 40
1
 10
105.721083
 20
9.424041
 30
0.0
 10
106.858204
 20
9.424041
 30
0.0
 10
107.780023
 20
8.502206
 30
0.0
 10
107.780023
 20
7.365080
 30
0.0
  0
SPLINE
  5
10f
100
AcDbEntity
  8
0
 62
7
100
AcDbSpline
 70
8
 71
3
 72
8
 73
4
 74
0
 40
0
 40
0
 40
0
 40
0
 40
1
 40
1
 40
1
 40
1
 10
226.796729
 20
5.306145
 30
0.0
 10
225.659608
 20
5.306145
 30
0.0
 10
224.737792
 20
6.227980
 30
0.0
 10
224.737792
 20
7.365080
 30
0.0
  0
SPLINE
  5
110
100
AcDbEntity
  8
0
 62
7
100
AcDbSpline
 70
8
 71
3
 72
8
 73
4
 74
0
 40
0
 40
0
 40
0
 40
0
 40
1
 40
1
 40
1
 40
1
 10
326.821757
 20
5.306145
 30
0.0
 10
325.684631
 20
5.306145
 30
0.0
 10
324.762796
 20
6.227980
 30
0.0
 10
324.762796
 20
7.365080
 30
0.0
  0
SPLINE
  5
111
100
AcDbEntity
  8
0
 62
7
100
AcDbSpline
 70
8
 71
3
 72
8
 73
4
 74
0
 40
0
 40
0
 40
0
 40
0
 40
1
 40
1
 40
1
 40
1
 10
360.106023
 20
183.547089
 30
0.0
 10
360.106023
 20
183.001024
 30
0.0
 10
359.889091
 20
182.477323
 30
0.0
 10
359.502958
 20
182.091196
 30
0.0
  0
SPLINE
  5
112
100
AcDbEntity
  8
0
 62
7
100
AcDbSpline
 70
8
 71
3
 72
8
 73
4
 74
0
 40
0
 40
0
 40
0
 40
0
 40
1
 40
1
 40
1
 40
1
 10
9.324025
 20
152.266092
 30
0.0
 10
9.324024
 20
151.720027
 30
0.0
 10
9.107101
 20
151.196329
 30
0.0
 10
8.720974
 20
150.810204
 30
0.0
  0
SPLINE
  5
113
100
AcDbEntity
  8
0
 62
7
100
AcDbSpline
 70
8
 71
3
 72
8
 73
4
 74
0
 40
0
 40
0
 40
0
 40
0
 40
1
 40
1
 40
1
 40
1
 10
303.642802
 20
7.365080
 30
0.0
 10
303.642802
 20
8.502206
 30
0.0
 10
304.564610
 20
9.424041
 30
0.0
 10
305.701736
 20
9.424041
 30
0.0
  0
SPLINE
  5
114
100
AcDbEntity
  8
0
 62
7
100
AcDbSpline
 70
8
 71
3
 72
8
 73
4
 74
0
 40
0
 40
0
 40
0
 40
0
 40
1
 40
1
 40
1
 40
1
 10
128.900025
 20
7.365080
 30
0.0
 10
128.900025
 20
6.227980
 30
0.0
 10
127.978209
 20
5.306145
 30
0.0
 10
126.841088
 20
5.306145
 30
0.0
  0
SPLINE
  5
115
100
AcDbEntity
  8
0
 62
7
100
AcDbSpline
 70
8
 71
3
 72
8
 73
4
 74
0
 40
0
 40
0
 40
0
 40
0
 40
1
 40
1
 40
1
 40
1
 10
207.735664
 20
7.365080
 30
0.0
 10
207.735664
 20
6.227980
 30
0.0
 10
206.813845
 20
5.306145
 30
0.0
 10
205.676724
 20
5.306145
 30
0.0
  0
SPLINE
  5
116
100
AcDbEntity
  8
0
 62
7
100
AcDbSpline
 70
8
 71
3
 72
8
 73
4
 74
0
 40
0
 40
0
 40
0
 40
0
 40
1
 40
1
 40
1
 40
1
 10
7.265084
 20
154.325030
 30
0.0
 10
7.811148
 20
154.325030
 30
0.0
 10
8.334848
 20
154.108108
 30
0.0
 10
8.720974
 20
153.721983
 30
0.0
  0
SPLINE
  5
117
100
AcDbEntity
  8
0
 62
7
100
AcDbSpline
 70
8
 71
3
 72
8
 73
4
 74
0
 40
0
 40
0
 40
0
 40
0
 40
1
 40
1
 40
1
 40
1
 10
378.220959
 20
52.934985
 30
0.0
 10
378.607092
 20
52.548857
 30
0.0
 10
378.824024
 20
52.025157
 30
0.0
 10
378.824024
 20
51.479091
 30
0.0
  0
SPLINE
  5
118
100
AcDbEntity
  8
0
 62
7
100
AcDbSpline
 70
8
 71
3
 72
8
 73
4
 74
0
 40
0
 40
0
 40
0
 40
0
 40
1
 40
1
 40
1
 40
1
 10
359.502958
 20
185.002983
 30
0.0
 10
359.889091
 20
184.616858
 30
0.0
 10
360.106023
 20
184.093158
 30
0.0
 10
360.106023
 20
183.547089
 30
0.0
  0
SPLINE
  5
119
100
AcDbEntity
  8
0
 62
7
100
AcDbSpline
 70
8
 71
3
 72
8
 73
4
 74
0
 40
0
 40
0
 40
0
 40
0
 40
1
 40
1
 40
1
 40
1
 10
23.933086
 20
181.488152
 30
0.0
 10
22.795965
 20
181.488152
 30
0.0
 10
21.874148
 20
182.409971
 30
0.0
 10
21.874147
 20
183.547089
 30
0.0
  0
SPLINE
  5
11a
100
AcDbEntity
  8
0
 62
7
100
AcDbSpline
 70
8
 71
3
 72
8
 73
4
 74
0
 40
0
 40
0
 40
0
 40
0
 40
1
 40
1
 40
1
 40
1
 10
8.720974
 20
129.690197
 30
0.0
 10
8.334848
 20
129.304074
 30
0.0
 10
7.811148
 20
129.087151
 30
0.0
 10
7.265084
 20
129.087151
 30
0.0
  0
SPLINE
  5
11b
100
AcDbEntity
  8
0
 62
7
100
AcDbSpline
 70
8
 71
3
 72
8
 73
4
 74
0
 40
0
 40
0
 40
0
 40
0
 40
1
 40
1
 40
1
 40
1
 10
7.265084
 20
150.207153
 30
0.0
 10
6.127964
 20
150.207155
 30
0.0
 10
5.206146
 20
151.128972
 30
0.0
 10
5.206145
 20
152.266092
 30
0.0
  0
SPLINE
  5
11c
100
AcDbEntity
  8
0
 62
7
100
AcDbSpline
 70
8
 71
3
 72
8
 73
4
 74
0
 40
0
 40
0
 40
0
 40
0
 40
1
 40
1
 40
1
 40
1
 10
126.841088
 20
9.424041
 30
0.0
 10
127.978209
 20
9.424041
 30
0.0
 10
128.900025
 20
8.502206
 30
0.0
 10
128.900025
 20
7.365080
 30
0.0
  0
SPLINE
  5
11d
100
AcDbEntity
  8
0
 62
7
100
AcDbSpline
 70
8
 71
3
 72
8
 73
4
 74
0
 40
0
 40
0
 40
0
 40
0
 40
1
 40
1
 40
1
 40
1
 10
378.220959
 20
50.023197
 30
0.0
 10
377.834826
 20
49.637070
 30
0.0
 10
377.311136
 20
49.420148
 30
0.0
 10
376.765062
 20
49.420151
 30
0.0
  0
SPLINE
  5
11e
100
AcDbEntity
  8
0
 62
7
100
AcDbSpline
 70
8
 71
3
 72
8
 73
4
 74
0
 40
0
 40
0
 40
0
 40
0
 40
1
 40
1
 40
1
 40
1
 10
9.324022
 20
30.359091
 30
0.0
 10
9.324022
 20
29.221965
 30
0.0
 10
8.402204
 20
28.300157
 30
0.0
 10
7.265084
 20
28.300157
 30
0.0
  0
SPLINE
  5
11f
100
AcDbEntity
  8
0
 62
7
100
AcDbSpline
 70
8
 71
3
 72
8
 73
4
 74
0
 40
0
 40
0
 40
0
 40
0
 40
1
 40
1
 40
1
 40
1
 10
5.206145
 20
51.479091
 30
0.0
 10
5.206146
 20
52.616209
 30
0.0
 10
6.127964
 20
53.538028
 30
0.0
 10
7.265084
 20
53.538028
 30
0.0
  0
SPLINE
  5
120
100
AcDbEntity
  8
0
 62
7
100
AcDbSpline
 70
8
 71
3
 72
8
 73
4
 74
0
 40
0
 40
0
 40
0
 40
0
 40
1
 40
1
 40
1
 40
1
 10
8.720974
 20
132.601979
 30
0.0
 10
9.107101
 20
132.215854
 30
0.0
 10
9.324024
 20
131.692153
 30
0.0
 10
9.324025
 20
131.146088
 30
0.0
  0
SPLINE
  5
121
100
AcDbEntity
  8
0
 62
7
100
AcDbSpline
 70
8
 71
3
 72
8
 73
4
 74
0
 40
0
 40
0
 40
0
 40
0
 40
1
 40
1
 40
1
 40
1
 10
25.992024
 20
183.547089
 30
0.0
 10
25.992023
 20
182.409971
 30
0.0
 10
25.070206
 20
181.488152
 30
0.0
 10
23.933086
 20
181.488152
 30
0.0
  0
SPLINE
  5
122
100
AcDbEntity
  8
0
 62
7
100
AcDbSpline
 70
8
 71
3
 72
8
 73
4
 74
0
 40
0
 40
0
 40
0
 40
0
 40
1
 40
1
 40
1
 40
1
 10
5.206145
 20
30.359091
 30
0.0
 10
5.206146
 20
31.496218
 30
0.0
 10
6.127964
 20
32.418026
 30
0.0
 10
7.265084
 20
32.418026
 30
0.0
  0
SPLINE
  5
123
100
AcDbEntity
  8
0
 62
7
100
AcDbSpline
 70
8
 71
3
 72
8
 73
4
 74
0
 40
0
 40
0
 40
0
 40
0
 40
1
 40
1
 40
1
 40
1
 10
355.988127
 20
183.547089
 30
0.0
 10
355.988127
 20
184.684205
 30
0.0
 10
356.909935
 20
185.606021
 30
0.0
 10
358.047062
 20
185.606027
 30
0.0
  0
SPLINE
  5
124
100
AcDbEntity
  8
0
 62
7
100
AcDbSpline
 70
8
 71
3
 72
8
 73
4
 74
0
 40
0
 40
0
 40
0
 40
0
 40
1
 40
1
 40
1
 40
1
 10
5.206145
 20
152.266092
 30
0.0
 10
5.206146
 20
153.403213
 30
0.0
 10
6.127964
 20
154.325030
 30
0.0
 10
7.265084
 20
154.325030
 30
0.0
  0
SPLINE
  5
125
100
AcDbEntity
  8
0
 62
7
100
AcDbSpline
 70
8
 71
3
 72
8
 73
4
 74
0
 40
0
 40
0
 40
0
 40
0
 40
1
 40
1
 40
1
 40
1
 10
376.765062
 20
53.538028
 30
0.0
 10
377.311136
 20
53.538031
 30
0.0
 10
377.834826
 20
53.321110
 30
0.0
 10
378.220959
 20
52.934985
 30
0.0
  0
SPLINE
  5
126
100
AcDbEntity
  8
0
 62
7
100
AcDbSpline
 70
8
 71
3
 72
8
 73
4
 74
0
 40
0
 40
0
 40
0
 40
0
 40
1
 40
1
 40
1
 40
1
 10
7.265084
 20
53.538028
 30
0.0
 10
8.402204
 20
53.538028
 30
0.0
 10
9.324022
 20
52.616209
 30
0.0
 10
9.324022
 20
51.479091
 30
0.0
  0
SPLINE
  5
127
100
AcDbEntity
  8
0
 62
7
100
AcDbSpline
 70
8
 71
3
 72
8
 73
4
 74
0
 40
0
 40
0
 40
0
 40
0
 40
1
 40
1
 40
1
 40
1
 10
7.265084
 20
32.418026
 30
0.0
 10
8.402204
 20
32.418026
 30
0.0
 10
9.324022
 20
31.496218
 30
0.0
 10
9.324022
 20
30.359091
 30
0.0
  0
SPLINE
  5
128
100
AcDbEntity
  8
0
 62
7
100
AcDbSpline
 70
8
 71
3
 72
8
 73
4
 74
0
 40
0
 40
0
 40
0
 40
0
 40
1
 40
1
 40
1
 40
1
 10
7.265084
 20
129.087151
 30
0.0
 10
6.127964
 20
129.087151
 30
0.0
 10
5.206146
 20
130.008967
 30
0.0
 10
5.206145
 20
131.146088
 30
0.0
  0
SPLINE
  5
129
100
AcDbEntity
  8
0
 62
7
100
AcDbSpline
 70
8
 71
3
 72
8
 73
4
 74
0
 40
0
 40
0
 40
0
 40
0
 40
1
 40
1
 40
1
 40
1
 10
8.720974
 20
153.721983
 30
0.0
 10
9.107101
 20
153.335856
 30
0.0
 10
9.324024
 20
152.812158
 30
0.0
 10
9.324025
 20
152.266092
 30
0.0
  0
SPLINE
  5
12a
100
AcDbEntity
  8
0
 62
7
100
AcDbSpline
 70
8
 71
3
 72
8
 73
4
 74
0
 40
0
 40
0
 40
0
 40
0
 40
1
 40
1
 40
1
 40
1
 10
23.933086
 20
185.606027
 30
0.0
 10
25.070206
 20
185.606027
 30
0.0
 10
25.992023
 20
184.684210
 30
0.0
 10
25.992024
 20
183.547089
 30
0.0
  0
SPLINE
  5
12b
100
AcDbEntity
  8
0
 62
7
100
AcDbSpline
 70
8
 71
3
 72
8
 73
4
 74
0
 40
0
 40
0
 40
0
 40
0
 40
1
 40
1
 40
1
 40
1
 10
328.880691
 20
7.365080
 30
0.0
 10
328.880691
 20
6.227980
 30
0.0
 10
327.958857
 20
5.306145
 30
0.0
 10
326.821757
 20
5.306145
 30
0.0
  0
SPLINE
  5
12c
100
AcDbEntity
  8
0
 62
7
100
AcDbSpline
 70
8
 71
3
 72
8
 73
4
 74
0
 40
0
 40
0
 40
0
 40
0
 40
1
 40
1
 40
1
 40
1
 10
326.821757
 20
9.424041
 30
0.0
 10
327.958857
 20
9.424041
 30
0.0
 10
328.880691
 20
8.502206
 30
0.0
 10
328.880691
 20
7.365080
 30
0.0
  0
SPLINE
  5
12d
100
AcDbEntity
  8
0
 62
7
100
AcDbSpline
 70
8
 71
3
 72
8
 73
4
 74
0
 40
0
 40
0
 40
0
 40
0
 40
1
 40
1
 40
1
 40
1
 10
324.762796
 20
7.365080
 30
0.0
 10
324.762796
 20
8.502206
 30
0.0
 10
325.684631
 20
9.424041
 30
0.0
 10
326.821757
 20
9.424041
 30
0.0
  0
SPLINE
  5
12e
100
AcDbEntity
  8
0
 62
7
100
AcDbSpline
 70
8
 71
3
 72
8
 73
4
 74
0
 40
0
 40
0
 40
0
 40
0
 40
1
 40
1
 40
1
 40
1
 10
21.874147
 20
183.547089
 30
0.0
 10
21.874148
 20
184.684210
 30
0.0
 10
22.795965
 20
185.606027
 30
0.0
 10
23.933086
 20
185.606027
 30
0.0
  0
SPLINE
  5
12f
100
AcDbEntity
  8
0
 62
7
100
AcDbSpline
 70
8
 71
3
 72
8
 73
4
 74
0
 40
0
 40
0
 40
0
 40
0
 40
1
 40
1
 40
1
 40
1
 10
305.701736
 20
9.424041
 30
0.0
 10
306.838862
 20
9.424041
 30
0.0
 10
307.760671
 20
8.502206
 30
0.0
 10
307.760671
 20
7.365080
 30
0.0
  0
SPLINE
  5
130
100
AcDbEntity
  8
0
 62
7
100
AcDbSpline
 70
8
 71
3
 72
8
 73
4
 74
0
 40
0
 40
0
 40
0
 40
0
 40
1
 40
1
 40
1
 40
1
 10
307.760671
 20
7.365080
 30
0.0
 10
307.760671
 20
6.227980
 30
0.0
 10
306.838862
 20
5.306145
 30
0.0
 10
305.701736
 20
5.306145
 30
0.0
  0
SPLINE
  5
131
100
AcDbEntity
  8
0
 62
7
100
AcDbSpline
 70
8
 71
3
 72
8
 73
4
 74
0
 40
0
 40
0
 40
0
 40
0
 40
1
 40
1
 40
1
 40
1
 10
305.701736
 20
5.306145
 30
0.0
 10
304.564610
 20
5.306145
 30
0.0
 10
303.642802
 20
6.227980
 30
0.0
 10
303.642802
 20
7.365080
 30
0.0
  0
SPLINE
  5
132
100
AcDbEntity
  8
0
 62
7
100
AcDbSpline
 70
8
 71
3
 72
8
 73
4
 74
0
 40
0
 40
0
 40
0
 40
0
 40
1
 40
1
 40
1
 40
1
 10
228.855666
 20
7.365080
 30
0.0
 10
228.855666
 20
6.227980
 30
0.0
 10
227.933850
 20
5.306145
 30
0.0
 10
226.796729
 20
5.306145
 30
0.0
  0
SPLINE
  5
133
100
AcDbEntity
  8
0
 62
7
100
AcDbSpline
 70
8
 71
3
 72
8
 73
4
 74
0
 40
0
 40
0
 40
0
 40
0
 40
1
 40
1
 40
1
 40
1
 10
7.265084
 20
133.205028
 30
0.0
 10
7.811148
 20
133.205028
 30
0.0
 10
8.334848
 20
132.988104
 30
0.0
 10
8.720974
 20
132.601979
 30
0.0
  0
SPLINE
  5
134
100
AcDbEntity
  8
0
 62
7
100
AcDbSpline
 70
8
 71
3
 72
8
 73
4
 74
0
 40
0
 40
0
 40
0
 40
0
 40
1
 40
1
 40
1
 40
1
 10
9.324025
 20
131.146088
 30
0.0
 10
9.324024
 20
130.600025
 30
0.0
 10
9.107101
 20
130.076324
 30
0.0
 10
8.720974
 20
129.690197
 30
0.0
  0
SPLINE
  5
135
100
AcDbEntity
  8
0
 62
7
100
AcDbSpline
 70
8
 71
3
 72
8
 73
4
 74
0
 40
0
 40
0
 40
0
 40
0
 40
1
 40
1
 40
1
 40
1
 10
205.676724
 20
5.306145
 30
0.0
 10
204.539606
 20
5.306145
 30
0.0
 10
203.617787
 20
6.227980
 30
0.0
 10
203.617787
 20
7.365080
 30
0.0
  0
SPLINE
  5
136
100
AcDbEntity
  8
0
 62
7
100
AcDbSpline
 70
8
 71
3
 72
8
 73
4
 74
0
 40
0
 40
0
 40
0
 40
0
 40
1
 40
1
 40
1
 40
1
 10
9.324022
 20
51.479091
 30
0.0
 10
9.324022
 20
50.341970
 30
0.0
 10
8.402204
 20
49.420151
 30
0.0
 10
7.265084
 20
49.420151
 30
0.0
  0
SPLINE
  5
137
100
AcDbEntity
  8
0
 62
7
100
AcDbSpline
 70
8
 71
3
 72
8
 73
4
 74
0
 40
0
 40
0
 40
0
 40
0
 40
1
 40
1
 40
1
 40
1
 10
7.265084
 20
49.420151
 30
0.0
 10
6.127964
 20
49.420151
 30
0.0
 10
5.206146
 20
50.341970
 30
0.0
 10
5.206145
 20
51.479091
 30
0.0
  0
SPLINE
  5
138
100
AcDbEntity
  8
0
 62
7
100
AcDbSpline
 70
8
 71
3
 72
8
 73
4
 74
0
 40
0
 40
0
 40
0
 40
0
 40
1
 40
1
 40
1
 40
1
 10
7.265084
 20
28.300157
 30
0.0
 10
6.127964
 20
28.300157
 30
0.0
 10
5.206146
 20
29.221965
 30
0.0
 10
5.206145
 20
30.359091
 30
0.0
  0
SPLINE
  5
139
100
AcDbEntity
  8
0
 62
7
100
AcDbSpline
 70
8
 71
3
 72
8
 73
4
 74
0
 40
0
 40
0
 40
0
 40
0
 40
1
 40
1
 40
1
 40
1
 10
5.206145
 20
131.146088
 30
0.0
 10
5.206146
 20
132.283209
 30
0.0
 10
6.127964
 20
133.205025
 30
0.0
 10
7.265084
 20
133.205028
 30
0.0
  0
SPLINE
  5
13a
100
AcDbEntity
  8
0
 62
7
100
AcDbSpline
 70
8
 71
3
 72
8
 73
4
 74
0
 40
0
 40
0
 40
0
 40
0
 40
1
 40
1
 40
1
 40
1
 10
8.720974
 20
150.810204
 30
0.0
 10
8.334848
 20
150.424077
 30
0.0
 10
7.811148
 20
150.207153
 30
0.0
 10
7.265084
 20
150.207153
 30
0.0
  0
SPLINE
  5
13b
100
AcDbEntity
  8
0
 62
7
100
AcDbSpline
 70
8
 71
3
 72
8
 73
4
 74
0
 40
0
 40
0
 40
0
 40
0
 40
1
 40
1
 40
1
 40
1
 10
358.047062
 20
181.488152
 30
0.0
 10
356.909935
 20
181.488160
 30
0.0
 10
355.988127
 20
182.409976
 30
0.0
 10
355.988127
 20
183.547089
 30
0.0
  0
SPLINE
  5
13c
100
AcDbEntity
  8
0
 62
7
100
AcDbSpline
 70
8
 71
3
 72
8
 73
4
 74
0
 40
0
 40
0
 40
0
 40
0
 40
1
 40
1
 40
1
 40
1
 10
358.047062
 20
185.606027
 30
0.0
 10
358.593135
 20
185.606032
 30
0.0
 10
359.116825
 20
185.389111
 30
0.0
 10
359.502958
 20
185.002983
 30
0.0
  0
SPLINE
  5
13d
100
AcDbEntity
  8
0
 62
7
100
AcDbSpline
 70
8
 71
3
 72
8
 73
4
 74
0
 40
0
 40
0
 40
0
 40
0
 40
1
 40
1
 40
1
 40
1
 10
224.737792
 20
7.365080
 30
0.0
 10
224.737792
 20
8.502206
 30
0.0
 10
225.659608
 20
9.424041
 30
0.0
 10
226.796729
 20
9.424041
 30
0.0
  0
SPLINE
  5
13e
100
AcDbEntity
  8
0
 62
7
100
AcDbSpline
 70
8
 71
3
 72
8
 73
4
 74
0
 40
0
 40
0
 40
0
 40
0
 40
1
 40
1
 40
1
 40
1
 10
205.676724
 20
9.424041
 30
0.0
 10
206.813845
 20
9.424041
 30
0.0
 10
207.735664
 20
8.502206
 30
0.0
 10
207.735664
 20
7.365080
 30
0.0
  0
SPLINE
  5
13f
100
AcDbEntity
  8
0
 62
7
100
AcDbSpline
 70
8
 71
3
 72
8
 73
4
 74
0
 40
0
 40
0
 40
0
 40
0
 40
1
 40
1
 40
1
 40
1
 10
226.796729
 20
9.424041
 30
0.0
 10
227.933850
 20
9.424041
 30
0.0
 10
228.855666
 20
8.502206
 30
0.0
 10
228.855666
 20
7.365080
 30
0.0
  0
SPLINE
  5
140
100
AcDbEntity
  8
0
 62
7
100
AcDbSpline
 70
8
 71
3
 72
8
 73
4
 74
0
 40
0
 40
0
 40
0
 40
0
 40
1
 40
1
 40
1
 40
1
 10
359.502958
 20
182.091196
 30
0.0
 10
359.116825
 20
181.705071
 30
0.0
 10
358.593135
 20
181.488147
 30
0.0
 10
358.047062
 20
181.488152
 30
0.0
  0
SPLINE
  5
141
100
AcDbEntity
  8
0
 62
7
100
AcDbSpline
 70
8
 71
3
 72
8
 73
4
 74
0
 40
0
 40
0
 40
0
 40
0
 40
1
 40
1
 40
1
 40
1
 10
378.824024
 20
131.146088
 30
0.0
 10
378.824024
 20
130.600022
 30
0.0
 10
378.607092
 20
130.076322
 30
0.0
 10
378.220959
 20
129.690194
 30
0.0
  0
SPLINE
  5
142
100
AcDbEntity
  8
0
 62
7
100
AcDbSpline
 70
8
 71
3
 72
8
 73
4
 74
0
 40
0
 40
0
 40
0
 40
0
 40
1
 40
1
 40
1
 40
1
 10
378.824024
 20
152.266092
 30
0.0
 10
378.824024
 20
151.720027
 30
0.0
 10
378.607092
 20
151.196324
 30
0.0
 10
378.220959
 20
150.810199
 30
0.0
  0
SPLINE
  5
143
100
AcDbEntity
  8
0
 62
7
100
AcDbSpline
 70
8
 71
3
 72
8
 73
4
 74
0
 40
0
 40
0
 40
0
 40
0
 40
1
 40
1
 40
1
 40
1
 10
103.662146
 20
7.365080
 30
0.0
 10
103.662146
 20
8.502206
 30
0.0
 10
104.583965
 20
9.424041
 30
0.0
 10
105.721083
 20
9.424041
 30
0.0
  0
SPLINE
  5
144
100
AcDbEntity
  8
0
 62
7
100
AcDbSpline
 70
8
 71
3
 72
8
 73
4
 74
0
 40
0
 40
0
 40
0
 40
0
 40
1
 40
1
 40
1
 40
1
 10
378.220959
 20
129.690194
 30
0.0
 10
377.834826
 20
129.304069
 30
0.0
 10
377.311136
 20
129.087148
 30
0.0
 10
376.765062
 20
129.087151
 30
0.0
  0
SPLINE
  5
145
100
AcDbEntity
  8
0
 62
7
100
AcDbSpline
 70
8
 71
3
 72
8
 73
4
 74
0
 40
0
 40
0
 40
0
 40
0
 40
1
 40
1
 40
1
 40
1
 10
376.765062
 20
129.087151
 30
0.0
 10
375.627963
 20
129.087158
 30
0.0
 10
374.706154
 20
130.008975
 30
0.0
 10
374.706154
 20
131.146088
 30
0.0
  0
SPLINE
  5
146
100
AcDbEntity
  8
0
 62
7
100
AcDbSpline
 70
8
 71
3
 72
8
 73
4
 74
0
 40
0
 40
0
 40
0
 40
0
 40
1
 40
1
 40
1
 40
1
 10
376.765062
 20
133.205028
 30
0.0
 10
377.311136
 20
133.205030
 30
0.0
 10
377.834826
 20
132.988109
 30
0.0
 10
378.220959
 20
132.601981
 30
0.0
  0
SPLINE
  5
147
100
AcDbEntity
  8
0
 62
7
100
AcDbSpline
 70
8
 71
3
 72
8
 73
4
 74
0
 40
0
 40
0
 40
0
 40
0
 40
1
 40
1
 40
1
 40
1
 10
378.220959
 20
132.601981
 30
0.0
 10
378.607092
 20
132.215856
 30
0.0
 10
378.824024
 20
131.692156
 30
0.0
 10
378.824024
 20
131.146088
 30
0.0
  0
SPLINE
  5
148
100
AcDbEntity
  8
0
 62
7
100
AcDbSpline
 70
8
 71
3
 72
8
 73
4
 74
0
 40
0
 40
0
 40
0
 40
0
 40
1
 40
1
 40
1
 40
1
 10
107.780023
 20
7.365080
 30
0.0
 10
107.780023
 20
6.227980
 30
0.0
 10
106.858204
 20
5.306145
 30
0.0
 10
105.721083
 20
5.306145
 30
0.0
  0
SPLINE
  5
149
100
AcDbEntity
  8
0
 62
7
100
AcDbSpline
 70
8
 71
3
 72
8
 73
4
 74
0
 40
0
 40
0
 40
0
 40
0
 40
1
 40
1
 40
1
 40
1
 10
124.782151
 20
7.365080
 30
0.0
 10
124.782151
 20
8.502206
 30
0.0
 10
125.703967
 20
9.424041
 30
0.0
 10
126.841088
 20
9.424041
 30
0.0
  0
SPLINE
  5
14a
100
AcDbEntity
  8
0
 62
7
100
AcDbSpline
 70
8
 71
3
 72
8
 73
4
 74
0
 40
0
 40
0
 40
0
 40
0
 40
1
 40
1
 40
1
 40
1
 10
376.765062
 20
150.207153
 30
0.0
 10
375.627963
 20
150.207163
 30
0.0
 10
374.706154
 20
151.128977
 30
0.0
 10
374.706154
 20
152.266092
 30
0.0
  0
SPLINE
  5
14b
100
AcDbEntity
  8
0
 62
7
100
AcDbSpline
 70
8
 71
3
 72
8
 73
4
 74
0
 40
0
 40
0
 40
0
 40
0
 40
1
 40
1
 40
1
 40
1
 10
374.706154
 20
131.146088
 30
0.0
 10
374.706154
 20
132.283203
 30
0.0
 10
375.627963
 20
133.205020
 30
0.0
 10
376.765062
 20
133.205028
 30
0.0
  0
SPLINE
  5
14c
100
AcDbEntity
  8
0
 62
7
100
AcDbSpline
 70
8
 71
3
 72
8
 73
4
 74
0
 40
0
 40
0
 40
0
 40
0
 40
1
 40
1
 40
1
 40
1
 10
378.220959
 20
150.810199
 30
0.0
 10
377.834826
 20
150.424071
 30
0.0
 10
377.311136
 20
150.207150
 30
0.0
 10
376.765062
 20
150.207153
 30
0.0
  0
SPLINE
  5
14d
100
AcDbEntity
  8
0
 62
7
100
AcDbSpline
 70
8
 71
3
 72
8
 73
4
 74
0
 40
0
 40
0
 40
0
 40
0
 40
1
 40
1
 40
1
 40
1
 10
105.721083
 20
5.306145
 30
0.0
 10
104.583965
 20
5.306145
 30
0.0
 10
103.662146
 20
6.227980
 30
0.0
 10
103.662146
 20
7.365080
 30
0.0
  0
LWPOLYLINE
  5
14e
100
AcDbEntity
  8
0
 62
7
100
AcDbPolyline
 90
5
 70
1
 10
0.132292
 20
0.132298
 30
0.0
 10
0.132292
 20
190.879868
 30
0.0
 10
383.897859
 20
190.879868
 30
0.0
 10
383.897859
 20
0.132298
 30
0.0
 10
1.689481
 20
0.132351
 30
0.0
  0
ENDSEC
  0
SECTION
  2
OBJECTS
  0
DICTIONARY
  5
C
330
0
100
AcDbDictionary
  3
ACAD_GROUP
350
D
  3
ACAD_MLINESTYLE
350
17
  0
DICTIONARY
  5
D
330
C
100
AcDbDictionary
  0
DICTIONARY
  5
1A
330
C
100
AcDbDictionary
  0
DICTIONARY
  5
17
330
C
100
AcDbDictionary
  3
STANDARD
350
18
  0
DICTIONARY
  5
19
330
C
100
AcDbDictionary
  0
ENDSEC
  0
EOF
