  0
SECTION
  2
HEADER
  9
$ACADVER
  1
AC1014
  9
$HANDSEED
  5
FFFF
  9
$MEASUREMENT
 70
     1
  0
ENDSEC
  0
SECTION
  2
TABLES
  0
TABLE
  2
VPORT
  5
8
330
0
100
AcDbSymbolTable
 70
     4
  0
VPORT
  5
2E
330
8
100
AcDbSymbolTableRecord
100
AcDbViewportTableRecord
  2
*ACTIVE
 70
     0
 10
0.0
 20
0.0
 11
1.0
 21
1.0
 12
210.0
 22
148.5
 13
0.0
 23
0.0
 14
10.0
 24
10.0
 15
10.0
 25
10.0
 16
0.0
 26
0.0
 36
1.0
 17
0.0
 27
0.0
 37
0.0
 40
341.0
 41
1.24
 42
50.0
 43
0.0
 44
0.0
 50
0.0
 51
0.0
 71
     0
 72
   100
 73
     1
 74
     3
 75
     0
 76
     0
 77
     0
 78
     0
  0
ENDTAB
  0
TABLE
  2
LTYPE
  5
5
330
0
100
AcDbSymbolTable
 70
     1
  0
LTYPE
  5
14
330
5
100
AcDbSymbolTableRecord
100
AcDbLinetypeTableRecord
  2
BYBLOCK
 70
     0
  3

 72
    65
 73
     0
 40
0.0
  0
LTYPE
  5
15
330
5
100
AcDbSymbolTableRecord
100
AcDbLinetypeTableRecord
  2
BYLAYER
 70
     0
  3

 72
    65
 73
     0
 40
0.0
  0
LTYPE
  5
16
330
5
100
AcDbSymbolTableRecord
100
AcDbLinetypeTableRecord
  2
CONTINUOUS
 70
     0
  3
Solid line
 72
    65
 73
     0
 40
0.0
  0
ENDTAB
  0
TABLE
  2
LAYER
  5
2
100
AcDbSymbolTable
 70
1
  0
LAYER
  5
50
100
AcDbSymbolTableRecord
100
AcDbLayerTableRecord
  2
0
 70
0
  6
CONTINUOUS
  0
ENDTAB
  0
TABLE
  2
STYLE
  5
3
330
0
100
AcDbSymbolTable
 70
     1
  0
STYLE
  5
11
330
3
100
AcDbSymbolTableRecord
100
AcDbTextStyleTableRecord
  2
STANDARD
 70
     0
 40
0.0
 41
1.0
 50
0.0
 71
     0
 42
2.5
  3
txt
  4

  0
ENDTAB
  0
TABLE
  2
VIEW
  5
6
330
0
100
AcDbSymbolTable
 70
     0
  0
ENDTAB
  0
TABLE
  2
UCS
  5
7
330
0
100
AcDbSymbolTable
 70
     0
  0
ENDTAB
  0
TABLE
  2
APPID
  5
9
330
0
100
AcDbSymbolTable
 70
     2
  0
APPID
  5
12
330
9
100
AcDbSymbolTableRecord
100
AcDbRegAppTableRecord
  2
ACAD
 70
     0
  0
ENDTAB
  0
TABLE
  2
DIMSTYLE
  5
A
330
0
100
AcDbSymbolTable
 70
     1
  0
DIMSTYLE
105
27
330
A
100
AcDbSymbolTableRecord
100
AcDbDimStyleTableRecord
  2
ISO-25
 70
     0
  3

  4

  5

  6

  7

 40
1.0
 41
2.5
 42
0.625
 43
3.75
 44
1.25
 45
0.0
 46
0.0
 47
0.0
 48
0.0
140
2.5
141
2.5
142
0.0
143
0.03937007874016
144
1.0
145
0.0
146
1.0
147
0.625
 71
     0
 72
     0
 73
     0
 74
     0
 75
     0
 76
     0
 77
     1
 78
     8
170
     0
171
     3
172
     1
173
     0
174
     0
175
     0
176
     0
177
     0
178
     0
270
     2
271
     2
272
     2
273
     2
274
     3
340
11
275
     0
280
     0
281
     0
282
     0
283
     0
284
     8
285
     0
286
     0
287
     3
288
     0
  0
ENDTAB
  0
TABLE
  2
BLOCK_RECORD
  5
1
330
0
100
AcDbSymbolTable
 70
     1
  0
BLOCK_RECORD
  5
1F
330
1
100
AcDbSymbolTableRecord
100
AcDbBlockTableRecord
  2
*MODEL_SPACE
  0
BLOCK_RECORD
  5
1B
330
1
100
AcDbSymbolTableRecord
100
AcDbBlockTableRecord
  2
*PAPER_SPACE
  0
ENDTAB
  0
ENDSEC
  0
SECTION
  2
BLOCKS
  0
BLOCK
  5
20
330
1F
100
AcDbEntity
  8
0
100
AcDbBlockBegin
  2
*MODEL_SPACE
 70
     0
 10
0.0
 20
0.0
 30
0.0
  3
*MODEL_SPACE
  1

  0
ENDBLK
  5
21
330
1F
100
AcDbEntity
  8
0
100
AcDbBlockEnd
  0
BLOCK
  5
1C
330
1B
100
AcDbEntity
 67
     1
  8
0
100
AcDbBlockBegin
  2
*PAPER_SPACE
  1

  0
ENDBLK
  5
1D
330
1B
100
AcDbEntity
 67
     1
  8
0
100
AcDbBlockEnd
  0
ENDSEC
  0
SECTION
  2
ENTITIES
  0
SPLINE
  5
100
100
AcDbEntity
  8
0
 62
7
100
AcDbSpline
 70
8
 71
3
 72
8
 73
4
 74
0
 40
0
 40
0
 40
0
 40
0
 40
1
 40
1
 40
1
 40
1
 10
310.313702
 20
223.437997
 30
0.0
 10
310.313702
 20
224.410815
 30
0.0
 10
311.106288
 20
225.197651
 30
0.0
 10
312.079293
 20
225.189028
 30
0.0
  0
SPLINE
  5
101
100
AcDbEntity
  8
0
 62
7
100
AcDbSpline
 70
8
 71
3
 72
8
 73
4
 74
0
 40
0
 40
0
 40
0
 40
0
 40
1
 40
1
 40
1
 40
1
 10
9.802614
 20
304.223915
 30
0.0
 10
11.024833
 20
304.235205
 30
0.0
 10
12.021126
 20
303.246298
 30
0.0
 10
12.021126
 20
302.023993
 30
0.0
  0
SPLINE
  5
102
100
AcDbEntity
  8
0
 62
7
100
AcDbSpline
 70
8
 71
3
 72
8
 73
4
 74
0
 40
0
 40
0
 40
0
 40
0
 40
1
 40
1
 40
1
 40
1
 10
9.802614
 20
104.473920
 30
0.0
 10
11.024833
 20
104.485217
 30
0.0
 10
12.021126
 20
103.496303
 30
0.0
 10
12.021126
 20
102.273997
 30
0.0
  0
SPLINE
  5
103
100
AcDbEntity
  8
0
 62
7
100
AcDbSpline
 70
8
 71
3
 72
8
 73
4
 74
0
 40
0
 40
0
 40
0
 40
0
 40
1
 40
1
 40
1
 40
1
 10
312.084082
 20
122.184255
 30
0.0
 10
311.117533
 20
122.184250
 30
0.0
 10
310.333996
 20
122.967697
 30
0.0
 10
310.333996
 20
123.934307
 30
0.0
  0
SPLINE
  5
104
100
AcDbEntity
  8
0
 62
7
100
AcDbSpline
 70
8
 71
3
 72
8
 73
4
 74
0
 40
0
 40
0
 40
0
 40
0
 40
1
 40
1
 40
1
 40
1
 10
9.802614
 20
299.824071
 30
0.0
 10
8.580394
 20
299.812781
 30
0.0
 10
7.584102
 20
300.801689
 30
0.0
 10
7.584102
 20
302.023993
 30
0.0
  0
SPLINE
  5
105
100
AcDbEntity
  8
0
 62
7
100
AcDbSpline
 70
8
 71
3
 72
8
 73
4
 74
0
 40
0
 40
0
 40
0
 40
0
 40
1
 40
1
 40
1
 40
1
 10
201.334227
 20
456.913287
 30
0.0
 10
201.334227
 20
455.945316
 30
0.0
 10
200.550698
 20
455.160766
 30
0.0
 10
199.584167
 20
455.160766
 30
0.0
  0
SPLINE
  5
106
100
AcDbEntity
  8
0
 62
7
100
AcDbSpline
 70
8
 71
3
 72
8
 73
4
 74
0
 40
0
 40
0
 40
0
 40
0
 40
1
 40
1
 40
1
 40
1
 10
112.334312
 20
456.913287
 30
0.0
 10
112.334312
 20
455.945316
 30
0.0
 10
111.550786
 20
455.160766
 30
0.0
 10
110.584255
 20
455.160766
 30
0.0
  0
SPLINE
  5
107
100
AcDbEntity
  8
0
 62
7
100
AcDbSpline
 70
8
 71
3
 72
8
 73
4
 74
0
 40
0
 40
0
 40
0
 40
0
 40
1
 40
1
 40
1
 40
1
 10
110.584255
 20
458.665805
 30
0.0
 10
111.550786
 20
458.665805
 30
0.0
 10
112.334312
 20
457.881257
 30
0.0
 10
112.334312
 20
456.913287
 30
0.0
  0
SPLINE
  5
108
100
AcDbEntity
  8
0
 62
7
100
AcDbSpline
 70
8
 71
3
 72
8
 73
4
 74
0
 40
0
 40
0
 40
0
 40
0
 40
1
 40
1
 40
1
 40
1
 10
199.584167
 20
455.160766
 30
0.0
 10
198.617636
 20
455.160766
 30
0.0
 10
197.834110
 20
455.945316
 30
0.0
 10
197.834110
 20
456.913287
 30
0.0
  0
SPLINE
  5
109
100
AcDbEntity
  8
0
 62
7
100
AcDbSpline
 70
8
 71
3
 72
8
 73
4
 74
0
 40
0
 40
0
 40
0
 40
0
 40
1
 40
1
 40
1
 40
1
 10
312.101386
 20
16.141171
 30
0.0
 10
311.134863
 20
16.141171
 30
0.0
 10
310.351881
 20
16.925845
 30
0.0
 10
310.352543
 20
17.892448
 30
0.0
  0
SPLINE
  5
10a
100
AcDbEntity
  8
0
 62
7
100
AcDbSpline
 70
8
 71
3
 72
8
 73
4
 74
0
 40
0
 40
0
 40
0
 40
0
 40
1
 40
1
 40
1
 40
1
 10
312.084161
 20
328.684040
 30
0.0
 10
311.117639
 20
328.684040
 30
0.0
 10
310.334101
 20
329.467490
 30
0.0
 10
310.334101
 20
330.434100
 30
0.0
  0
SPLINE
  5
10b
100
AcDbEntity
  8
0
 62
7
100
AcDbSpline
 70
8
 71
3
 72
8
 73
4
 74
0
 40
0
 40
0
 40
0
 40
0
 40
1
 40
1
 40
1
 40
1
 10
7.584102
 20
323.273914
 30
0.0
 10
7.584102
 20
324.496221
 30
0.0
 10
8.580394
 20
325.483998
 30
0.0
 10
9.802614
 20
325.473838
 30
0.0
  0
SPLINE
  5
10c
100
AcDbEntity
  8
0
 62
7
100
AcDbSpline
 70
8
 71
3
 72
8
 73
4
 74
0
 40
0
 40
0
 40
0
 40
0
 40
1
 40
1
 40
1
 40
1
 10
199.584167
 20
458.665805
 30
0.0
 10
200.550698
 20
458.665805
 30
0.0
 10
201.334227
 20
457.881257
 30
0.0
 10
201.334227
 20
456.913287
 30
0.0
  0
SPLINE
  5
10d
100
AcDbEntity
  8
0
 62
7
100
AcDbSpline
 70
8
 71
3
 72
8
 73
4
 74
0
 40
0
 40
0
 40
0
 40
0
 40
1
 40
1
 40
1
 40
1
 10
9.802614
 20
125.723843
 30
0.0
 10
11.024833
 20
125.735141
 30
0.0
 10
12.021126
 20
124.746226
 30
0.0
 10
12.021126
 20
123.523920
 30
0.0
  0
SPLINE
  5
10e
100
AcDbEntity
  8
0
 62
7
100
AcDbSpline
 70
8
 71
3
 72
8
 73
4
 74
0
 40
0
 40
0
 40
0
 40
0
 40
1
 40
1
 40
1
 40
1
 10
16.425699
 20
456.923592
 30
0.0
 10
16.425699
 20
457.891560
 30
0.0
 10
17.209227
 20
458.676110
 30
0.0
 10
18.175759
 20
458.676110
 30
0.0
  0
SPLINE
  5
10f
100
AcDbEntity
  8
0
 62
7
100
AcDbSpline
 70
8
 71
3
 72
8
 73
4
 74
0
 40
0
 40
0
 40
0
 40
0
 40
1
 40
1
 40
1
 40
1
 10
197.834110
 20
456.913287
 30
0.0
 10
197.834110
 20
457.881257
 30
0.0
 10
198.617636
 20
458.665805
 30
0.0
 10
199.584167
 20
458.665805
 30
0.0
  0
SPLINE
  5
110
100
AcDbEntity
  8
0
 62
7
100
AcDbSpline
 70
8
 71
3
 72
8
 73
4
 74
0
 40
0
 40
0
 40
0
 40
0
 40
1
 40
1
 40
1
 40
1
 10
313.831734
 20
223.424797
 30
0.0
 10
313.831734
 20
222.450329
 30
0.0
 10
313.037931
 20
221.662953
 30
0.0
 10
312.064900
 20
221.672279
 30
0.0
  0
SPLINE
  5
111
100
AcDbEntity
  8
0
 62
7
100
AcDbSpline
 70
8
 71
3
 72
8
 73
4
 74
0
 40
0
 40
0
 40
0
 40
0
 40
1
 40
1
 40
1
 40
1
 10
12.021126
 20
323.273914
 30
0.0
 10
12.021126
 20
322.051611
 30
0.0
 10
11.024833
 20
321.063834
 30
0.0
 10
9.802614
 20
321.073991
 30
0.0
  0
SPLINE
  5
112
100
AcDbEntity
  8
0
 62
7
100
AcDbSpline
 70
8
 71
3
 72
8
 73
4
 74
0
 40
0
 40
0
 40
0
 40
0
 40
1
 40
1
 40
1
 40
1
 10
108.834195
 20
456.913287
 30
0.0
 10
108.834195
 20
457.881257
 30
0.0
 10
109.617724
 20
458.665805
 30
0.0
 10
110.584255
 20
458.665805
 30
0.0
  0
SPLINE
  5
113
100
AcDbEntity
  8
0
 62
7
100
AcDbSpline
 70
8
 71
3
 72
8
 73
4
 74
0
 40
0
 40
0
 40
0
 40
0
 40
1
 40
1
 40
1
 40
1
 10
294.584064
 20
458.665805
 30
0.0
 10
295.550614
 20
458.665805
 30
0.0
 10
296.334124
 20
457.881257
 30
0.0
 10
296.334124
 20
456.913287
 30
0.0
  0
SPLINE
  5
114
100
AcDbEntity
  8
0
 62
7
100
AcDbSpline
 70
8
 71
3
 72
8
 73
4
 74
0
 40
0
 40
0
 40
0
 40
0
 40
1
 40
1
 40
1
 40
1
 10
9.802614
 20
321.073991
 30
0.0
 10
8.580394
 20
321.062694
 30
0.0
 10
7.584102
 20
322.051611
 30
0.0
 10
7.584102
 20
323.273914
 30
0.0
  0
SPLINE
  5
115
100
AcDbEntity
  8
0
 62
7
100
AcDbSpline
 70
8
 71
3
 72
8
 73
4
 74
0
 40
0
 40
0
 40
0
 40
0
 40
1
 40
1
 40
1
 40
1
 10
9.802614
 20
100.074076
 30
0.0
 10
8.580394
 20
100.062778
 30
0.0
 10
7.584102
 20
101.051693
 30
0.0
 10
7.584102
 20
102.273997
 30
0.0
  0
SPLINE
  5
116
100
AcDbEntity
  8
0
 62
7
100
AcDbSpline
 70
8
 71
3
 72
8
 73
4
 74
0
 40
0
 40
0
 40
0
 40
0
 40
1
 40
1
 40
1
 40
1
 10
310.352543
 20
17.892448
 30
0.0
 10
310.352543
 20
18.859076
 30
0.0
 10
311.134836
 20
19.643063
 30
0.0
 10
312.101359
 20
19.643751
 30
0.0
  0
SPLINE
  5
117
100
AcDbEntity
  8
0
 62
7
100
AcDbSpline
 70
8
 71
3
 72
8
 73
4
 74
0
 40
0
 40
0
 40
0
 40
0
 40
1
 40
1
 40
1
 40
1
 10
313.851419
 20
17.893691
 30
0.0
 10
313.851419
 20
16.925713
 30
0.0
 10
313.067935
 20
16.141171
 30
0.0
 10
312.101386
 20
16.141171
 30
0.0
  0
SPLINE
  5
118
100
AcDbEntity
  8
0
 62
7
100
AcDbSpline
 70
8
 71
3
 72
8
 73
4
 74
0
 40
0
 40
0
 40
0
 40
0
 40
1
 40
1
 40
1
 40
1
 10
9.802614
 20
121.323997
 30
0.0
 10
8.580394
 20
121.312699
 30
0.0
 10
7.584102
 20
122.301616
 30
0.0
 10
7.584102
 20
123.523920
 30
0.0
  0
SPLINE
  5
119
100
AcDbEntity
  8
0
 62
7
100
AcDbSpline
 70
8
 71
3
 72
8
 73
4
 74
0
 40
0
 40
0
 40
0
 40
0
 40
1
 40
1
 40
1
 40
1
 10
312.082812
 20
125.685611
 30
0.0
 10
313.049361
 20
125.686404
 30
0.0
 10
313.833428
 20
124.903386
 30
0.0
 10
313.834116
 20
123.936776
 30
0.0
  0
SPLINE
  5
11a
100
AcDbEntity
  8
0
 62
7
100
AcDbSpline
 70
8
 71
3
 72
8
 73
4
 74
0
 40
0
 40
0
 40
0
 40
0
 40
1
 40
1
 40
1
 40
1
 10
110.584255
 20
455.160766
 30
0.0
 10
109.617724
 20
455.160766
 30
0.0
 10
108.834195
 20
455.945316
 30
0.0
 10
108.834195
 20
456.913287
 30
0.0
  0
SPLINE
  5
11b
100
AcDbEntity
  8
0
 62
7
100
AcDbSpline
 70
8
 71
3
 72
8
 73
4
 74
0
 40
0
 40
0
 40
0
 40
0
 40
1
 40
1
 40
1
 40
1
 10
296.334124
 20
456.913287
 30
0.0
 10
296.334124
 20
455.945316
 30
0.0
 10
295.550614
 20
455.160766
 30
0.0
 10
294.584064
 20
455.160766
 30
0.0
  0
SPLINE
  5
11c
100
AcDbEntity
  8
0
 62
7
100
AcDbSpline
 70
8
 71
3
 72
8
 73
4
 74
0
 40
0
 40
0
 40
0
 40
0
 40
1
 40
1
 40
1
 40
1
 10
12.021126
 20
302.023993
 30
0.0
 10
12.021126
 20
300.801689
 30
0.0
 10
11.024833
 20
299.813911
 30
0.0
 10
9.802614
 20
299.824071
 30
0.0
  0
SPLINE
  5
11d
100
AcDbEntity
  8
0
 62
7
100
AcDbSpline
 70
8
 71
3
 72
8
 73
4
 74
0
 40
0
 40
0
 40
0
 40
0
 40
1
 40
1
 40
1
 40
1
 10
312.083685
 20
332.184618
 30
0.0
 10
313.050261
 20
332.185412
 30
0.0
 10
313.834301
 20
331.402388
 30
0.0
 10
313.834962
 20
330.435775
 30
0.0
  0
SPLINE
  5
11e
100
AcDbEntity
  8
0
 62
7
100
AcDbSpline
 70
8
 71
3
 72
8
 73
4
 74
0
 40
0
 40
0
 40
0
 40
0
 40
1
 40
1
 40
1
 40
1
 10
12.021126
 20
102.273997
 30
0.0
 10
12.021126
 20
101.051693
 30
0.0
 10
11.024833
 20
100.063916
 30
0.0
 10
9.802614
 20
100.074076
 30
0.0
  0
SPLINE
  5
11f
100
AcDbEntity
  8
0
 62
7
100
AcDbSpline
 70
8
 71
3
 72
8
 73
4
 74
0
 40
0
 40
0
 40
0
 40
0
 40
1
 40
1
 40
1
 40
1
 10
310.334101
 20
436.434227
 30
0.0
 10
310.334101
 20
437.400837
 30
0.0
 10
311.117639
 20
438.184287
 30
0.0
 10
312.084161
 20
438.184287
 30
0.0
  0
SPLINE
  5
120
100
AcDbEntity
  8
0
 62
7
100
AcDbSpline
 70
8
 71
3
 72
8
 73
4
 74
0
 40
0
 40
0
 40
0
 40
0
 40
1
 40
1
 40
1
 40
1
 10
312.064900
 20
221.672279
 30
0.0
 10
311.091842
 20
221.672473
 30
0.0
 10
310.305024
 20
222.464934
 30
0.0
 10
310.313702
 20
223.437997
 30
0.0
  0
SPLINE
  5
121
100
AcDbEntity
  8
0
 62
7
100
AcDbSpline
 70
8
 71
3
 72
8
 73
4
 74
0
 40
0
 40
0
 40
0
 40
0
 40
1
 40
1
 40
1
 40
1
 10
12.021126
 20
123.523920
 30
0.0
 10
12.021126
 20
122.301616
 30
0.0
 10
11.024833
 20
121.313837
 30
0.0
 10
9.802614
 20
121.323997
 30
0.0
  0
SPLINE
  5
122
100
AcDbEntity
  8
0
 62
7
100
AcDbSpline
 70
8
 71
3
 72
8
 73
4
 74
0
 40
0
 40
0
 40
0
 40
0
 40
1
 40
1
 40
1
 40
1
 10
313.834962
 20
330.435775
 30
0.0
 10
313.834962
 20
329.467808
 30
0.0
 10
313.050711
 20
328.683606
 30
0.0
 10
312.084161
 20
328.684040
 30
0.0
  0
SPLINE
  5
123
100
AcDbEntity
  8
0
 62
7
100
AcDbSpline
 70
8
 71
3
 72
8
 73
4
 74
0
 40
0
 40
0
 40
0
 40
0
 40
1
 40
1
 40
1
 40
1
 10
313.834116
 20
123.936776
 30
0.0
 10
313.834116
 20
122.968805
 30
0.0
 10
313.050631
 20
122.184255
 30
0.0
 10
312.084082
 20
122.184255
 30
0.0
  0
SPLINE
  5
124
100
AcDbEntity
  8
0
 62
7
100
AcDbSpline
 70
8
 71
3
 72
8
 73
4
 74
0
 40
0
 40
0
 40
0
 40
0
 40
1
 40
1
 40
1
 40
1
 10
310.333996
 20
123.934307
 30
0.0
 10
310.333996
 20
124.900917
 30
0.0
 10
311.116289
 20
125.684925
 30
0.0
 10
312.082812
 20
125.685611
 30
0.0
  0
SPLINE
  5
125
100
AcDbEntity
  8
0
 62
7
100
AcDbSpline
 70
8
 71
3
 72
8
 73
4
 74
0
 40
0
 40
0
 40
0
 40
0
 40
1
 40
1
 40
1
 40
1
 10
7.584102
 20
102.273997
 30
0.0
 10
7.584102
 20
103.496303
 30
0.0
 10
8.580394
 20
104.484080
 30
0.0
 10
9.802614
 20
104.473920
 30
0.0
  0
SPLINE
  5
126
100
AcDbEntity
  8
0
 62
7
100
AcDbSpline
 70
8
 71
3
 72
8
 73
4
 74
0
 40
0
 40
0
 40
0
 40
0
 40
1
 40
1
 40
1
 40
1
 10
312.079293
 20
225.189028
 30
0.0
 10
313.052378
 20
225.189558
 30
0.0
 10
313.839725
 20
224.397583
 30
0.0
 10
313.831734
 20
223.424797
 30
0.0
  0
SPLINE
  5
127
100
AcDbEntity
  8
0
 62
7
100
AcDbSpline
 70
8
 71
3
 72
8
 73
4
 74
0
 40
0
 40
0
 40
0
 40
0
 40
1
 40
1
 40
1
 40
1
 10
7.584102
 20
123.523920
 30
0.0
 10
7.584102
 20
124.746226
 30
0.0
 10
8.580394
 20
125.734003
 30
0.0
 10
9.802614
 20
125.723843
 30
0.0
  0
SPLINE
  5
128
100
AcDbEntity
  8
0
 62
7
100
AcDbSpline
 70
8
 71
3
 72
8
 73
4
 74
0
 40
0
 40
0
 40
0
 40
0
 40
1
 40
1
 40
1
 40
1
 10
312.082944
 20
434.682950
 30
0.0
 10
311.116421
 20
434.683744
 30
0.0
 10
310.333414
 20
435.467617
 30
0.0
 10
310.334101
 20
436.434227
 30
0.0
  0
SPLINE
  5
129
100
AcDbEntity
  8
0
 62
7
100
AcDbSpline
 70
8
 71
3
 72
8
 73
4
 74
0
 40
0
 40
0
 40
0
 40
0
 40
1
 40
1
 40
1
 40
1
 10
18.175759
 20
455.171072
 30
0.0
 10
17.209227
 20
455.171072
 30
0.0
 10
16.425699
 20
455.955619
 30
0.0
 10
16.425699
 20
456.923592
 30
0.0
  0
SPLINE
  5
12a
100
AcDbEntity
  8
0
 62
7
100
AcDbSpline
 70
8
 71
3
 72
8
 73
4
 74
0
 40
0
 40
0
 40
0
 40
0
 40
1
 40
1
 40
1
 40
1
 10
312.101359
 20
19.643751
 30
0.0
 10
313.067935
 20
19.643751
 30
0.0
 10
313.851419
 20
18.860293
 30
0.0
 10
313.851419
 20
17.893691
 30
0.0
  0
SPLINE
  5
12b
100
AcDbEntity
  8
0
 62
7
100
AcDbSpline
 70
8
 71
3
 72
8
 73
4
 74
0
 40
0
 40
0
 40
0
 40
0
 40
1
 40
1
 40
1
 40
1
 10
310.334101
 20
330.434100
 30
0.0
 10
310.333837
 20
331.400711
 30
0.0
 10
311.117162
 20
332.184367
 30
0.0
 10
312.083685
 20
332.184618
 30
0.0
  0
SPLINE
  5
12c
100
AcDbEntity
  8
0
 62
7
100
AcDbSpline
 70
8
 71
3
 72
8
 73
4
 74
0
 40
0
 40
0
 40
0
 40
0
 40
1
 40
1
 40
1
 40
1
 10
9.802614
 20
325.473838
 30
0.0
 10
11.024833
 20
325.485135
 30
0.0
 10
12.021126
 20
324.496221
 30
0.0
 10
12.021126
 20
323.273914
 30
0.0
  0
SPLINE
  5
12d
100
AcDbEntity
  8
0
 62
7
100
AcDbSpline
 70
8
 71
3
 72
8
 73
4
 74
0
 40
0
 40
0
 40
0
 40
0
 40
1
 40
1
 40
1
 40
1
 10
7.584102
 20
302.023993
 30
0.0
 10
7.584102
 20
303.246298
 30
0.0
 10
8.580394
 20
304.234075
 30
0.0
 10
9.802614
 20
304.223915
 30
0.0
  0
SPLINE
  5
12e
100
AcDbEntity
  8
0
 62
7
100
AcDbSpline
 70
8
 71
3
 72
8
 73
4
 74
0
 40
0
 40
0
 40
0
 40
0
 40
1
 40
1
 40
1
 40
1
 10
294.584064
 20
455.160766
 30
0.0
 10
293.617541
 20
455.160766
 30
0.0
 10
292.834004
 20
455.945316
 30
0.0
 10
292.834004
 20
456.913287
 30
0.0
  0
SPLINE
  5
12f
100
AcDbEntity
  8
0
 62
7
100
AcDbSpline
 70
8
 71
3
 72
8
 73
4
 74
0
 40
0
 40
0
 40
0
 40
0
 40
1
 40
1
 40
1
 40
1
 10
19.925817
 20
456.923592
 30
0.0
 10
19.925817
 20
455.955619
 30
0.0
 10
19.142289
 20
455.171072
 30
0.0
 10
18.175759
 20
455.171072
 30
0.0
  0
SPLINE
  5
130
100
AcDbEntity
  8
0
 62
7
100
AcDbSpline
 70
8
 71
3
 72
8
 73
4
 74
0
 40
0
 40
0
 40
0
 40
0
 40
1
 40
1
 40
1
 40
1
 10
292.834004
 20
456.913287
 30
0.0
 10
292.834004
 20
457.881257
 30
0.0
 10
293.617541
 20
458.665805
 30
0.0
 10
294.584064
 20
458.665805
 30
0.0
  0
SPLINE
  5
131
100
AcDbEntity
  8
0
 62
7
100
AcDbSpline
 70
8
 71
3
 72
8
 73
4
 74
0
 40
0
 40
0
 40
0
 40
0
 40
1
 40
1
 40
1
 40
1
 10
312.084161
 20
438.184287
 30
0.0
 10
313.050711
 20
438.184287
 30
0.0
 10
313.834221
 20
437.400837
 30
0.0
 10
313.834221
 20
436.434227
 30
0.0
  0
SPLINE
  5
132
100
AcDbEntity
  8
0
 62
7
100
AcDbSpline
 70
8
 71
3
 72
8
 73
4
 74
0
 40
0
 40
0
 40
0
 40
0
 40
1
 40
1
 40
1
 40
1
 10
18.175759
 20
458.676110
 30
0.0
 10
19.142289
 20
458.676110
 30
0.0
 10
19.925817
 20
457.891560
 30
0.0
 10
19.925817
 20
456.923592
 30
0.0
  0
SPLINE
  5
133
100
AcDbEntity
  8
0
 62
7
100
AcDbSpline
 70
8
 71
3
 72
8
 73
4
 74
0
 40
0
 40
0
 40
0
 40
0
 40
1
 40
1
 40
1
 40
1
 10
313.834221
 20
436.434227
 30
0.0
 10
313.834221
 20
435.466254
 30
0.0
 10
313.049494
 20
434.682262
 30
0.0
 10
312.082944
 20
434.682950
 30
0.0
  0
LWPOLYLINE
  5
134
100
AcDbEntity
  8
0
 62
7
100
AcDbPolyline
 90
4
 70
1
 10
0.132292
 20
0.132291
 30
0.0
 10
317.035680
 20
0.132291
 30
0.0
 10
317.035680
 20
461.867678
 30
0.0
 10
0.132292
 20
461.867678
 30
0.0
  0
ENDSEC
  0
SECTION
  2
OBJECTS
  0
DICTIONARY
  5
C
330
0
100
AcDbDictionary
  3
ACAD_GROUP
350
D
  3
ACAD_MLINESTYLE
350
17
  0
DICTIONARY
  5
D
330
C
100
AcDbDictionary
  0
DICTIONARY
  5
1A
330
C
100
AcDbDictionary
  0
DICTIONARY
  5
17
330
C
100
AcDbDictionary
  3
STANDARD
350
18
  0
DICTIONARY
  5
19
330
C
100
AcDbDictionary
  0
ENDSEC
  0
EOF
