0
SECTION
2
HEADER
9
$INSUNITS
70
4
9
$ACADVER
1
AC1014
9
$HANDSEED
5
FFFF
0
ENDSEC
0
SECTION
2
TABLES
0
TABLE
2
VPORT
5
8
100
AcDbSymbolTable
0
ENDTAB
0
TABLE
2
LTYPE
5
5
100
AcDbSymbolTable
0
LTYPE
5
14
100
AcDbSymbolTableRecord
100
AcDbLinetypeTableRecord
2
BYBLOCK
70
0
0
LTYPE
5
15
100
AcDbSymbolTableRecord
100
AcDbLinetypeTableRecord
2
BYLAYER
70
0
0
ENDTAB
0
TABLE
2
LAYER
5
2
100
AcDbSymbolTable
70
2
0
LAYER
5
50
100
AcDbSymbolTableRecord
100
AcDbLayerTableRecord
2
0
70
0
6
CONTINUOUS
0
ENDTAB
0
TABLE
2
STYLE
5
3
100
AcDbSymbolTable
70
1
0
STYLE
5
11
100
AcDbSymbolTableRecord
100
AcDbTextStyleTableRecord
2
STANDARD
70
0
0
ENDTAB
0
TABLE
2
VIEW
5
6
100
AcDbSymbolTable
70
0
0
ENDTAB
0
TABLE
2
UCS
5
7
100
AcDbSymbolTable
70
0
0
ENDTAB
0
TABLE
2
APPID
5
9
100
AcDbSymbolTable
70
2
0
APPID
5
12
100
AcDbSymbolTableRecord
100
AcDbRegAppTableRecord
2
ACAD
70
0
0
ENDTAB
0
TABLE
2
DIMSTYLE
5
A
100
AcDbSymbolTable
70
1
0
ENDTAB
0
TABLE
2
BLOCK_RECORD
5
1
100
AcDbSymbolTable
70
1
0
BLOCK_RECORD
5
1F
100
AcDbSymbolTableRecord
100
AcDbBlockTableRecord
2
*MODEL_SPACE
0
BLOCK_RECORD
5
1B
100
AcDbSymbolTableRecord
100
AcDbBlockTableRecord
2
*PAPER_SPACE
0
ENDTAB
0
ENDSEC
0
SECTION
2
BLOCKS
0
BLOCK
5
20
100
AcDbEntity
100
AcDbBlockBegin
2
*MODEL_SPACE
0
ENDBLK
5
21
100
AcDbEntity
100
AcDbBlockEnd
0
BLOCK
5
1C
100
AcDbEntity
100
AcDbBlockBegin
2
*PAPER_SPACE
0
ENDBLK
5
1D
100
AcDbEntity
100
AcDbBlockEnd
0
ENDSEC
0
SECTION
2
ENTITIES
0
SPLINE
5
100
100
AcDbEntity
8
0
100
AcDbSpline
70
1064
71
3
72
8
73
4
74
0
42
0.000000001
43
0.0000000001
44
0.0000000001
40
0
40
0
40
0
40
0
40
1
40
1
40
1
40
1
10
0.1547609999999999
20
281.21699499999983
30
0
10
0.15496975422583359
20
283.97847099210941
30
0
10
2.3937249748569691
20
286.21689775944151
30
0
10
5.155269961599112
20
286.21661799999981
30
0
0
SPLINE
5
101
100
AcDbEntity
8
0
100
AcDbSpline
70
1064
71
3
72
8
73
4
74
0
42
0.000000001
43
0.0000000001
44
0.0000000001
40
0
40
0
40
0
40
0
40
1
40
1
40
1
40
1
10
271.02709700000003
20
105.100408
30
0
10
271.91722599999997
20
105.100408
30
0
10
272.63604600000002
20
105.82667000000001
30
0
10
272.62701499999997
20
106.71661800000001
30
0
0
SPLINE
5
102
100
AcDbEntity
8
0
100
AcDbSpline
70
1064
71
3
72
8
73
4
74
0
42
0.000000001
43
0.0000000001
44
0.0000000001
40
0
40
0
40
0
40
0
40
1
40
1
40
1
40
1
10
214.62724399999999
20
106.71661800000001
30
0
10
214.62724399999999
20
107.60030700000002
30
0
10
213.91096400000004
20
108.316677
30
0
10
213.02732599999999
20
108.316677
30
0
0
SPLINE
5
103
100
AcDbEntity
8
0
100
AcDbSpline
70
1064
71
3
72
8
73
4
74
0
42
0.000000001
43
0.0000000001
44
0.0000000001
40
0
40
0
40
0
40
0
40
1
40
1
40
1
40
1
10
211.42712599999999
20
106.71661800000001
30
0
10
211.42712599999999
20
105.83293
30
0
10
212.143406
20
105.11655900000001
30
0
10
213.02732599999999
20
105.11655900000001
30
0
0
LINE
5
104
100
AcDbEntity
8
0
100
AcDbLine
10
5.1552699615991129
20
286.21661800000004
30
0
11
472.15490899999998
21
286.21661800000004
31
0
0
LINE
5
105
100
AcDbEntity
8
0
100
AcDbLine
10
477.1549830001257
20
281.216843003424
30
0
11
477.15487100000007
21
79.716996999999992
31
0
0
SPLINE
5
106
100
AcDbEntity
8
0
100
AcDbSpline
70
1064
71
3
72
8
73
4
74
0
42
0.000000001
43
0.0000000001
44
0.0000000001
40
0
40
0
40
0
40
0
40
1
40
1
40
1
40
1
10
242.02707100000001
20
88.96664100000001
30
0
10
240.37014400000001
20
88.96664100000001
30
0
10
239.02704800000004
20
87.623486000000014
30
0
10
239.02704800000004
20
85.966618999999994
30
0
0
SPLINE
5
107
100
AcDbEntity
8
0
100
AcDbSpline
70
1064
71
3
72
8
73
4
74
0
42
0.000000001
43
0.0000000001
44
0.0000000001
40
0
40
0
40
0
40
0
40
1
40
1
40
1
40
1
10
477.15487100000018
20
79.716996999999992
30
0
10
477.15507977358425
20
76.955630007892182
30
0
10
474.91666302590522
20
74.716910765645309
30
0
10
472.15540104022347
20
74.716616999999999
30
0
0
LINE
5
108
100
AcDbEntity
8
0
100
AcDbLine
10
0.154775
20
79.716618999999994
30
0
11
0.15476099999999998
21
281.216995
31
0
0
SPLINE
5
109
100
AcDbEntity
8
0
100
AcDbSpline
70
1064
71
3
72
8
73
4
74
0
42
0.000000001
43
0.0000000001
44
0.0000000001
40
0
40
0
40
0
40
0
40
1
40
1
40
1
40
1
10
242.02707100000001
20
82.966596999999993
30
0
10
243.68399700000003
20
82.966596999999993
30
0
10
245.02709300000004
20
84.309751000000006
30
0
10
245.02709300000004
20
85.966618999999994
30
0
0
SPLINE
5
110
100
AcDbEntity
8
0
100
AcDbSpline
70
1064
71
3
72
8
73
4
74
0
42
0.000000001
43
0.0000000001
44
0.0000000001
40
0
40
0
40
0
40
0
40
1
40
1
40
1
40
1
10
271.02709700000003
20
108.332829
30
0
10
270.13696800000002
20
108.332829
30
0
10
269.41814799999997
20
107.606567
30
0
10
269.42717900000002
20
106.71661800000001
30
0
0
LINE
5
111
100
AcDbEntity
8
0
100
AcDbLine
10
5.1549060000000004
20
74.716616999999999
30
0
11
472.15540104022347
21
74.716616999999999
31
0
0
LINE
5
112
100
AcDbEntity
8
0
100
AcDbLine
10
477.15487100000007
20
79.716996999999992
30
0
11
477.1549830001257
21
281.216843003424
31
0
0
LINE
5
113
100
AcDbEntity
8
0
100
AcDbLine
10
0.15476099999999998
20
281.216995
30
0
11
0.154775
21
79.716618999999994
31
0
0
SPLINE
5
114
100
AcDbEntity
8
0
100
AcDbSpline
70
1064
71
3
72
8
73
4
74
0
42
0.000000001
43
0.0000000001
44
0.0000000001
40
0
40
0
40
0
40
0
40
1
40
1
40
1
40
1
10
213.02732599999999
20
108.316677
30
0
10
212.143406
20
108.316677
30
0
10
211.42712599999999
20
107.60030700000002
30
0
10
211.42712599999999
20
106.71661800000001
30
0
0
SPLINE
5
115
100
AcDbEntity
8
0
100
AcDbSpline
70
1064
71
3
72
8
73
4
74
0
42
0.000000001
43
0.0000000001
44
0.0000000001
40
0
40
0
40
0
40
0
40
1
40
1
40
1
40
1
10
245.02709300000004
20
85.966618999999994
30
0
10
245.02709300000004
20
87.623486000000014
30
0
10
243.68399700000003
20
88.96664100000001
30
0
10
242.02707100000001
20
88.96664100000001
30
0
0
SPLINE
5
116
100
AcDbEntity
8
0
100
AcDbSpline
70
1064
71
3
72
8
73
4
74
0
42
0.000000001
43
0.0000000001
44
0.0000000001
40
0
40
0
40
0
40
0
40
1
40
1
40
1
40
1
10
472.15490899993563
20
286.21661799996099
30
0
10
474.91617100095687
20
286.21665781186829
30
0
10
477.15485818358815
20
283.97820600056485
30
0
10
477.15498300006067
20
281.21684300338575
30
0
0
SPLINE
5
117
100
AcDbEntity
8
0
100
AcDbSpline
70
1064
71
3
72
8
73
4
74
0
42
0.000000001
43
0.0000000001
44
0.0000000001
40
0
40
0
40
0
40
0
40
1
40
1
40
1
40
1
10
213.02732599999999
20
105.11655900000001
30
0
10
213.91096400000004
20
105.11655900000001
30
0
10
214.62724399999999
20
105.83293
30
0
10
214.62724399999999
20
106.71661800000001
30
0
0
LINE
5
118
100
AcDbEntity
8
0
100
AcDbLine
10
472.15490899999998
20
286.21661800000004
30
0
11
5.1552699615991129
21
286.21661800000004
31
0
0
SPLINE
5
119
100
AcDbEntity
8
0
100
AcDbSpline
70
1064
71
3
72
8
73
4
74
0
42
0.000000001
43
0.0000000001
44
0.0000000001
40
0
40
0
40
0
40
0
40
1
40
1
40
1
40
1
10
239.02704800000004
20
85.966618999999994
30
0
10
239.02704800000004
20
84.309751000000006
30
0
10
240.37014400000001
20
82.966596999999993
30
0
10
242.02707100000001
20
82.966596999999993
30
0
0
SPLINE
5
120
100
AcDbEntity
8
0
100
AcDbSpline
70
1064
71
3
72
8
73
4
74
0
42
0.000000001
43
0.0000000001
44
0.0000000001
40
0
40
0
40
0
40
0
40
1
40
1
40
1
40
1
10
272.62701499999997
20
106.71661800000001
30
0
10
272.63548199999997
20
107.606567
30
0
10
271.91722599999997
20
108.332829
30
0
10
271.02709700000003
20
108.332829
30
0
0
SPLINE
5
121
100
AcDbEntity
8
0
100
AcDbSpline
70
1064
71
3
72
8
73
4
74
0
42
0.000000001
43
0.0000000001
44
0.0000000001
40
0
40
0
40
0
40
0
40
1
40
1
40
1
40
1
10
269.42717900000002
20
106.71661800000001
30
0
10
269.41871299999997
20
105.82667000000001
30
0
10
270.13696800000002
20
105.100408
30
0
10
271.02709700000003
20
105.100408
30
0
0
LINE
5
122
100
AcDbEntity
8
0
100
AcDbLine
10
472.15540104022347
20
74.716616999999999
30
0
11
5.1549060000000004
21
74.716616999999999
31
0
0
SPLINE
5
123
100
AcDbEntity
8
0
100
AcDbSpline
70
1064
71
3
72
8
73
4
74
0
42
0.000000001
43
0.0000000001
44
0.0000000001
40
0
40
0
40
0
40
0
40
1
40
1
40
1
40
1
10
5.1549060000000004
20
74.716616999999999
30
0
10
2.3933610000000001
20
74.716543999999999
30
0
10
0.154775
20
76.955142000000023
30
0
10
0.154775
20
79.716618999999994
30
0
0
ENDSEC
0
SECTION
2
OBJECTS
0
DICTIONARY
5
C
100
AcDbDictionary
3
ACAD_GROUP
350
D
3
ACAD_MLINESTYLE
350
17
0
DICTIONARY
5
D
100
AcDbDictionary
0
DICTIONARY
5
1A
330
C
100
AcDbDictionary
0
DICTIONARY
5
17
100
AcDbDictionary
0
ENDSEC
0
EOF
